<?xml version="1.0" encoding="UTF-8"?>
<svg width="401px" height="350px" viewBox="0 0 401 350" version="1.1" xmlns="http://www.w3.org/2000/svg" xmlns:xlink="http://www.w3.org/1999/xlink">
    <!-- Generator: Sketch 50.2 (55047) - http://www.bohemiancoding.com/sketch -->
    <title>doctor</title>
    <desc>Created with Sketch.</desc>
    <defs>
        <path d="M0.431533973,17.9558013 C7.24392083,63.0643113 14.3916971,85.6185663 21.8748628,85.6185663 C29.3580284,85.6185663 47.8599683,57.2749174 77.3806825,0.587619558 L0.431533973,17.9558013 Z" id="path-1"></path>
        <path d="M134.472863,1.17631464e-13 C90.6485555,1.16345923e-13 46.8242479,1.15060381e-13 2.99994033,1.1377484e-13 L2.99994033,1.13686838e-13 C1.34308608,1.13991197e-13 -5.96730752e-05,1.34314575 -5.96730752e-05,3 L-6.09024628e-05,36 C-6.09024628e-05,37.6568542 1.34308485,39 2.9999391,39 C2.99993951,39 2.99993992,39 2.99994033,39 L120.341108,38.9999495 C121.997961,38.9999488 123.341106,37.6568032 123.341106,35.9999495 C123.341108,26.8852094 123.341108,17.7704694 123.341108,8.65572941 C123.341108,4.16896375 150.126136,7.122654e-15 134.472863,1.17631464e-13 Z" id="path-3"></path>
    </defs>
    <g id="Page-1" stroke="none" stroke-width="1" fill="none" fill-rule="evenodd">
        <g id="illustrations" transform="translate(-1729.000000, -192.000000)">
            <g id="doctor" transform="translate(1729.000000, 175.000000)">
                <rect id="Rectangle-37" stroke="#000000" stroke-width="2" fill="#C2ECE3" x="1" y="39.4615385" width="378.769231" height="326.538462"></rect>
                <path d="M117.516442,179.037487 C106.436482,213.002704 76.7921177,251.372089 28.6000327,294.192308 L84.8532701,294.192308 C94.3466161,291.516553 107.743673,282.418291 124.961523,266.902961 C124.959597,240.147485 124.781825,228.891939 123.897367,215.954907 C122.843113,200.53425 120.837637,188.483539 117.516442,179.037487 Z" id="Path-133" stroke="#000000" stroke-width="2" fill="#FFFFFF"></path>
                <rect id="Rectangle-38" stroke="#000000" stroke-width="2" fill="#CCCCCC" x="1" y="287" width="378.769231" height="79"></rect>
                <path d="M190.313927,322.027471 C282.674003,319.014357 391.586269,322.098724 399.481399,281.377054 C406.253755,246.446455 344.827014,123.319114 324.273765,111.692351 C243.572701,66.0405849 142.712943,99.1212184 125.256139,134.692509 C113.618269,158.406702 114.760256,209.160433 128.682099,286.953702 L282.398129,286.953702 C252.045617,293.488033 221.319765,299.67402 190.220572,305.511663 L190.313927,322.027471 Z" id="Path-134" fill="#FFFFFF"></path>
                <path d="M290.933547,182.692308 C327.735152,228.700253 340.928453,257.718631 330.513451,269.74744 C323.061309,278.354295 276.297016,290.275702 190.220572,305.511663" id="Path-134" stroke="#000000" stroke-width="2" stroke-linecap="round" stroke-linejoin="round"></path>
                <path d="M138.728691,346.784906 C132.880589,337.987155 144.309114,310.839321 148.554859,302.453716 C155.70292,288.335862 160.263016,281.51339 163.24887,280.719767 C168.542462,279.312762 152.773713,305.903462 155.267809,307.066478 C161.309398,297.543766 166.910015,282.185597 172.087783,281.1946 C177.265551,280.203602 158.343711,309.957887 161.891271,311.612141 C165.406705,301.799585 177.1985,282.881727 178.086684,287.005344 C178.974868,291.128961 167.599175,311.334227 162.904856,325.591212 C162.434677,332.147638 164.253806,323.387862 170.393422,315.576759 C176.533038,307.765656 170.853031,332.871646 156.147505,348.770301 C152.193314,353.045314 141.419255,350.832529 138.728691,346.784906 Z" id="Path-4-Copy-3" fill="#0000FF" transform="translate(157.616394, 315.877259) scale(-1, -1) rotate(65.000000) translate(-157.616394, -315.877259) "></path>
                <path d="M191.812574,321.787974 C284.17265,318.77486 391.586269,322.098724 399.481399,281.377054 C406.253755,246.446455 344.827014,123.319114 324.273765,111.692351 C243.572701,66.0405849 142.712943,99.1212184 125.256139,134.692509 C113.618269,158.406702 114.760256,209.160433 128.682099,286.953702 L282.215006,286.953702 L283.057951,286.831702 C267.815154,290.528545 236.869361,296.755198 190.220572,305.511663" id="Path-134" stroke="#000000" stroke-width="2" stroke-linecap="round" stroke-linejoin="round"></path>
                <path d="M162.096059,105.996074 L160.919843,106.210814 C168.392131,152.033041 175.872452,175.242067 183.360804,175.837892 C183.821201,176.995906 184.239394,177.974161 184.615385,178.772658 C181.192654,188.458041 154.970388,160.855233 151.923077,140.050218 C156.803534,135.492761 156.803534,136.654439 160.095992,132.812767 C156.706322,127.958811 155.733997,119.580193 157.179019,107.676912 L161.76457,104.807692 C161.87543,105.205369 161.985927,105.601499 162.09606,105.99608 L162.096059,105.996074 Z" id="Combined-Shape" stroke="#000000" stroke-width="2" fill="#FFFFFF"></path>
                <path d="M175.961538,185.587736 C206.770086,161.703145 234.184187,90.8306981 237.675104,89.892284 C240.002383,89.2666746 243.469656,89.2666746 248.076923,89.892284 C247.952177,104.289152 242.160799,118.612787 230.702789,132.863187 C225.707788,139.075502 231.519523,136.954566 234.856856,148.654359 C231.088541,157.819428 211.456768,170.130553 175.961538,185.587736 C176.799106,218.323863 179.209192,252.00581 183.191798,286.633577" id="Path-139" stroke="#000000" stroke-width="2" fill="#FFFFFF" stroke-linecap="round" stroke-linejoin="round"></path>
                <path d="M160.576923,107.434189 C168.600404,152.478063 176.386913,175 183.936447,175 C191.485982,175 210.302038,146.153846 240.384615,88.4615385 L160.576923,107.434189 Z" id="Path-137" fill="#D8D8D8"></path>
                <g id="Group-7" transform="translate(161.538462, 89.423077)">
                    <mask id="mask-2" fill="white">
                        <use xlink:href="#path-1"></use>
                    </mask>
                    <path stroke="#000000" stroke-width="2" d="M-0.696186099,17.1851828 L79.2633067,-0.862463356 L78.2676217,1.04950573 C48.3644439,58.4712312 29.9906522,86.6185663 21.8748628,86.6185663 C13.5354281,86.6185663 6.37991803,64.039908 -0.557253609,18.1051302 L-0.696186099,17.1851828 Z"></path>
                    <path d="M16.8607844,24.1555923 C16.2247613,37.1405429 16.9027762,45.4270852 18.894829,49.0152191 C17.0424865,60.794361 14.3893655,76.2843535 10.935466,95.4851964 L30.5801431,95.4851964 C29.5898579,70.4862167 28.7030898,55.4764567 27.9198389,50.4559162 C30.8240668,46.399606 33.7009888,37.6328314 36.5506048,24.1555923 L16.8607844,24.1555923 Z" id="Path-2" fill="#000000" mask="url(#mask-2)"></path>
                    <path d="M5.33718802,54.9939808 C12.0387259,41.778967 18.5004997,33.364782 24.7225096,29.7514259 C30.7821022,33.4886869 43.0518747,49.7941165 54.0726878,54.9939808 C68.0094396,47.9053024 78.6419491,28.6281119 85.9702162,-2.83759066 L-7.10913796,9.83874946 L5.33718802,54.9939808 Z" id="Path-138" stroke="#000000" stroke-width="2" fill="#FFFFFF" mask="url(#mask-2)"></path>
                </g>
                <g id="Group-6" transform="translate(129.692308, 76.923077)">
                    <ellipse id="Oval-12" fill="#000000" transform="translate(14.147956, 123.626363) rotate(20.000000) translate(-14.147956, -123.626363) " cx="14.1479557" cy="123.626363" rx="7.96370595" ry="12.8846176"></ellipse>
                    <ellipse id="Oval-12" fill="#CCCCCC" transform="translate(12.632114, 122.073109) rotate(20.000000) translate(-12.632114, -122.073109) " cx="12.6321137" cy="122.073109" rx="7.96370595" ry="12.8846176"></ellipse>
                    <path d="M73.7680441,154.809058 C68.4152329,151.25414 70.7111233,122.826559 78.3293783,97.2304128 C85.4095679,73.442082 97.0868514,52.0993499 111.493814,55.4410565 C126.079426,58.8242008 123.520846,84.1121913 115.496609,108.701701 C107.066599,134.534666 92.6041749,159.596722 85.6506728,157.679167" id="Path-136" stroke="#CCCCCC" stroke-width="5" stroke-linecap="round"></path>
                    <path d="M79.9705199,92.158551 C89.0270929,68.9155824 97.8644698,52.2085165 111.493814,55.4410565 C125.123159,58.6735966 123.817224,79.4932995 117.06523,103.748317" id="Path-136" stroke="#000000" stroke-width="10" stroke-linecap="round"></path>
                    <path d="M11.4589176,119.070931 C16.2200558,39.6903102 37.8171751,-3.1189826e-14 76.2502754,0 C114.683376,3.08111415e-14 126.892631,17.6217815 112.878042,52.8653446" id="Path-135" stroke="#000000" stroke-width="10" stroke-linecap="round" stroke-linejoin="round"></path>
                    <rect id="Rectangle-39" fill="#CCCCCC" transform="translate(75.569681, 155.563389) rotate(10.000000) translate(-75.569681, -155.563389) " x="71.0802453" y="152.18988" width="8.97887204" height="6.74701804" rx="3.37350902"></rect>
                    <rect id="Rectangle-39-Copy" fill="#CCCCCC" transform="translate(83.500673, 156.185744) rotate(20.000000) translate(-83.500673, -156.185744) " x="79.011237" y="152.812235" width="8.97887204" height="6.74701804" rx="3.37350902"></rect>
                </g>
                <path d="M164.24553,109.12313 C155.332717,89.2928775 147.604522,29.8706607 182.901665,18.61684 C218.198808,7.36301929 244.398409,71.7971802 238.622966,92.0963511 C234.473913,106.679188 204.198624,120.035665 182.901665,119.192908 C174.553458,118.862556 166.5208,114.185412 164.24553,109.12313 Z" id="Path-130" fill="#0000FF"></path>
                <path d="M149.472863,93 C105.648556,93 61.8242479,93 17.9999403,93 L17.9999403,93 C16.3430861,93 14.9999403,94.3431458 14.9999403,96 L14.9999391,129 C14.9999391,130.656854 16.3430848,132 17.9999391,132 C17.9999395,132 17.9999399,132 17.9999403,132 L135.341108,131.999949 C136.997961,131.999949 138.341106,130.656803 138.341106,128.999949 C138.341108,119.885209 138.341108,110.770469 138.341108,101.655729 C138.341108,97.1689637 165.126136,93 149.472863,93 Z" id="Path-132" fill="#FFFFFF"></path>
                <g id="Group-8" transform="translate(15.000000, 93.000000)">
                    <mask id="mask-4" fill="white">
                        <use xlink:href="#path-3"></use>
                    </mask>
                    <path stroke="#000000" stroke-width="2" d="M134.472863,-1 C136.906702,-1 138.406301,-0.90327321 139.196629,-0.683523542 C139.947775,-0.474668476 140.469499,-0.0817101024 140.374149,0.730791202 C140.307956,1.2948421 139.969763,1.60563545 139.392767,1.93361332 C138.787075,2.27790304 137.8307,2.65292601 136.204388,3.21492578 C136.003733,3.28426571 132.714138,4.39577045 131.694937,4.75610943 C129.338837,5.58910922 127.604916,6.29899531 126.324603,6.9940184 C124.992623,7.71708927 124.341108,8.34776312 124.341108,8.65572941 C124.341108,22.3278395 124.341108,22.3278395 124.341106,35.9999495 C124.341106,38.2090878 122.550246,39.9999485 120.341108,39.9999495 L2.9999391,40 C0.790800098,40 -1.0000609,38.209139 -1.0000609,36 L-1.00005967,3 C-1.00005967,0.790861001 0.790801328,-1 2.99994033,-1 C68.7364017,-1 68.7364017,-1 134.472863,-1 Z"></path>
                    <path d="M-57.138,-3.47 L-60.218,-3.47 L-61.632,5 L-63.172,5 L-61.758,-3.47 L-64.838,-3.47 L-64.614,-4.772 L-56.914,-4.772 L-57.138,-3.47 Z M-56.97,5 L-55.248,-5.36 L-53.75,-5.36 L-54.562,-0.516 L-54.492,-0.516 C-53.96,-1.664 -53.274,-2.392 -52.112,-2.392 C-50.824,-2.392 -50.152,-1.538 -50.152,-0.306 C-50.152,0.03 -50.18,0.366 -50.264,0.856 L-50.95,5 L-52.448,5 L-51.748,0.8 C-51.706,0.548 -51.664,0.226 -51.664,-0.012 C-51.664,-0.67 -51.972,-1.174 -52.714,-1.174 C-53.274,-1.174 -53.708,-0.894 -54.072,-0.446 C-54.254,-0.222 -54.702,0.38 -54.828,1.136 L-55.472,5 L-56.97,5 Z M-45.294,5.168 C-47.254,5.168 -48.276,4.09 -48.276,2.074 C-48.276,-0.572 -46.61,-2.392 -44.188,-2.392 C-42.746,-2.392 -41.64,-1.72 -41.64,-0.432 C-41.64,0.646 -42.34,1.906 -46.75,2.046 C-46.764,2.172 -46.764,2.284 -46.764,2.326 C-46.764,3.236 -46.414,3.964 -45.126,3.964 C-44.188,3.964 -43.656,3.586 -42.872,2.522 L-41.892,3.152 C-42.676,4.37 -43.642,5.168 -45.294,5.168 Z M-44.328,-1.258 C-45.546,-1.258 -46.372,-0.53 -46.61,0.954 L-46.638,1.108 C-43.502,0.982 -43.124,0.268 -43.124,-0.334 C-43.124,-0.866 -43.46,-1.258 -44.328,-1.258 Z M-36.992,5 L-38.49,5 L-37.496,-1.006 L-39.358,-1.006 L-39.148,-2.224 L-35.788,-2.224 L-36.138,-0.18 L-36.054,-0.18 C-35.508,-1.426 -34.738,-2.224 -33.338,-2.224 L-32.498,-2.224 L-32.75,-0.726 L-34.01,-0.726 C-34.808,-0.726 -35.284,-0.516 -35.676,-0.04 C-35.858,0.184 -36.278,0.716 -36.39,1.388 L-36.992,5 Z M-28.494,5.168 C-30.454,5.168 -31.476,4.09 -31.476,2.074 C-31.476,-0.572 -29.81,-2.392 -27.388,-2.392 C-25.946,-2.392 -24.84,-1.72 -24.84,-0.432 C-24.84,0.646 -25.54,1.906 -29.95,2.046 C-29.964,2.172 -29.964,2.284 -29.964,2.326 C-29.964,3.236 -29.614,3.964 -28.326,3.964 C-27.388,3.964 -26.856,3.586 -26.072,2.522 L-25.092,3.152 C-25.876,4.37 -26.842,5.168 -28.494,5.168 Z M-27.528,-1.258 C-28.746,-1.258 -29.572,-0.53 -29.81,0.954 L-29.838,1.108 C-26.702,0.982 -26.324,0.268 -26.324,-0.334 C-26.324,-0.866 -26.66,-1.258 -27.528,-1.258 Z M-8.964,5 L-10.462,5 L-10.182,3.292 L-10.238,3.292 C-10.784,4.412 -11.47,5.168 -12.73,5.168 C-14.214,5.168 -14.928,4.146 -14.928,2.368 C-14.928,0.044 -13.864,-2.392 -11.54,-2.392 C-10.448,-2.392 -9.804,-1.874 -9.538,-0.922 L-9.468,-0.922 L-9.258,-2.224 L-7.76,-2.224 L-8.964,5 Z M-12.128,3.95 C-11.568,3.95 -11.078,3.698 -10.644,3.194 C-10.336,2.844 -10.014,2.312 -9.902,1.64 L-9.664,0.198 C-9.524,-0.642 -10.07,-1.174 -11.078,-1.174 C-12.324,-1.174 -12.996,-0.334 -13.192,0.842 L-13.36,1.836 C-13.388,2.004 -13.416,2.228 -13.416,2.438 C-13.416,3.348 -13.01,3.95 -12.128,3.95 Z M-3.392,5 L-4.89,5 L-3.896,-1.006 L-5.758,-1.006 L-5.548,-2.224 L-2.188,-2.224 L-2.538,-0.18 L-2.454,-0.18 C-1.908,-1.426 -1.138,-2.224 0.262,-2.224 L1.102,-2.224 L0.85,-0.726 L-0.41,-0.726 C-1.208,-0.726 -1.684,-0.516 -2.076,-0.04 C-2.258,0.184 -2.678,0.716 -2.79,1.388 L-3.392,5 Z M5.106,5.168 C3.146,5.168 2.124,4.09 2.124,2.074 C2.124,-0.572 3.79,-2.392 6.212,-2.392 C7.654,-2.392 8.76,-1.72 8.76,-0.432 C8.76,0.646 8.06,1.906 3.65,2.046 C3.636,2.172 3.636,2.284 3.636,2.326 C3.636,3.236 3.986,3.964 5.274,3.964 C6.212,3.964 6.744,3.586 7.528,2.522 L8.508,3.152 C7.724,4.37 6.758,5.168 5.106,5.168 Z M6.072,-1.258 C4.854,-1.258 4.028,-0.53 3.79,0.954 L3.762,1.108 C6.898,0.982 7.276,0.268 7.276,-0.334 C7.276,-0.866 6.94,-1.258 6.072,-1.258 Z M21.696,5.168 C20.282,5.168 19.204,4.706 18.63,3.88 L19.582,3.04 C20.086,3.684 20.814,4.02 21.808,4.02 C22.9,4.02 23.572,3.614 23.572,2.886 C23.572,2.326 23.18,2.158 22.662,2.074 L21.612,1.892 C20.548,1.696 19.554,1.29 19.554,-0.026 C19.554,-1.594 20.94,-2.392 22.718,-2.392 C23.992,-2.392 24.972,-1.986 25.504,-1.328 L24.58,-0.446 C24.3,-0.838 23.67,-1.244 22.634,-1.244 C21.598,-1.244 21.024,-0.852 21.024,-0.18 C21.024,0.394 21.444,0.534 21.962,0.632 L23.012,0.828 C24.048,1.024 25.056,1.374 25.056,2.69 C25.056,4.23 23.726,5.168 21.696,5.168 Z M30.306,5.168 C28.346,5.168 27.324,4.09 27.324,2.074 C27.324,-0.572 28.99,-2.392 31.412,-2.392 C32.854,-2.392 33.96,-1.72 33.96,-0.432 C33.96,0.646 33.26,1.906 28.85,2.046 C28.836,2.172 28.836,2.284 28.836,2.326 C28.836,3.236 29.186,3.964 30.474,3.964 C31.412,3.964 31.944,3.586 32.728,2.522 L33.708,3.152 C32.924,4.37 31.958,5.168 30.306,5.168 Z M31.272,-1.258 C30.054,-1.258 29.228,-0.53 28.99,0.954 L28.962,1.108 C32.098,0.982 32.476,0.268 32.476,-0.334 C32.476,-0.866 32.14,-1.258 31.272,-1.258 Z M35.752,-2.224 L38.622,-2.224 L37.684,3.936 L37.866,4.048 C39.952,3.614 40.932,1.752 40.932,-0.082 C40.932,-0.712 40.778,-1.356 40.498,-1.888 L41.87,-2.35 C42.248,-1.776 42.444,-0.992 42.444,-0.124 C42.444,2.788 40.176,5.14 37.642,5.14 C36.718,5.14 36.27,4.636 36.27,3.824 C36.27,3.614 36.284,3.432 36.326,3.166 L36.97,-1.006 L35.556,-1.006 L35.752,-2.224 Z M47.106,5.168 C45.146,5.168 44.124,4.09 44.124,2.074 C44.124,-0.572 45.79,-2.392 48.212,-2.392 C49.654,-2.392 50.76,-1.72 50.76,-0.432 C50.76,0.646 50.06,1.906 45.65,2.046 C45.636,2.172 45.636,2.284 45.636,2.326 C45.636,3.236 45.986,3.964 47.274,3.964 C48.212,3.964 48.744,3.586 49.528,2.522 L50.508,3.152 C49.724,4.37 48.758,5.168 47.106,5.168 Z M48.072,-1.258 C46.854,-1.258 46.028,-0.53 45.79,0.954 L45.762,1.108 C48.898,0.982 49.276,0.268 49.276,-0.334 C49.276,-0.866 48.94,-1.258 48.072,-1.258 Z M55.408,5 L53.91,5 L54.904,-1.006 L53.042,-1.006 L53.252,-2.224 L56.612,-2.224 L56.262,-0.18 L56.346,-0.18 C56.892,-1.426 57.662,-2.224 59.062,-2.224 L59.902,-2.224 L59.65,-0.726 L58.39,-0.726 C57.592,-0.726 57.116,-0.516 56.724,-0.04 C56.542,0.184 56.122,0.716 56.01,1.388 L55.408,5 Z M66.636,5 L65.138,5 L65.418,3.292 L65.362,3.292 C64.816,4.412 64.13,5.168 62.87,5.168 C61.386,5.168 60.672,4.146 60.672,2.368 C60.672,0.044 61.736,-2.392 64.06,-2.392 C65.152,-2.392 65.796,-1.874 66.062,-0.922 L66.132,-0.922 L66.342,-2.224 L67.84,-2.224 L66.636,5 Z M63.472,3.95 C64.032,3.95 64.522,3.698 64.956,3.194 C65.264,2.844 65.586,2.312 65.698,1.64 L65.936,0.198 C66.076,-0.642 65.53,-1.174 64.522,-1.174 C63.276,-1.174 62.604,-0.334 62.408,0.842 L62.24,1.836 C62.212,2.004 62.184,2.228 62.184,2.438 C62.184,3.348 62.59,3.95 63.472,3.95 Z M72.012,5.168 C71.088,5.168 70.682,4.65 70.682,3.88 C70.682,3.684 70.71,3.446 70.766,3.152 L72.166,-4.142 L69.786,-4.142 L69.996,-5.36 L73.902,-5.36 L72.124,3.852 L72.418,3.95 L74.91,1.696 L75.75,2.466 L74.546,3.642 C73.356,4.804 72.74,5.168 72.012,5.168 Z M88.77,5.168 C87.874,5.168 87.426,4.65 87.426,3.81 C87.426,3.642 87.468,3.39 87.51,3.138 L88.196,-1.006 L86.208,-1.006 L86.404,-2.224 L87.748,-2.224 C88.28,-2.224 88.518,-2.406 88.616,-2.952 L88.924,-4.772 L90.324,-4.772 L89.904,-2.224 L92.816,-2.224 L92.62,-1.006 L89.694,-1.006 L88.896,3.782 L89.176,3.922 L91.92,1.976 L92.662,2.872 L91.388,3.824 C90.128,4.79 89.526,5.168 88.77,5.168 Z M96.554,7.968 C95.308,7.968 94.44,7.674 93.838,6.946 L94.79,5.994 C95.196,6.498 95.784,6.75 96.568,6.75 C97.772,6.75 98.5,6.204 98.766,4.566 L99.004,3.068 L98.948,3.068 C98.416,4.216 97.73,4.944 96.568,4.944 C95.28,4.944 94.608,4.09 94.608,2.858 C94.608,2.522 94.636,2.186 94.72,1.696 L95.364,-2.224 L96.862,-2.224 L96.204,1.752 C96.162,2.004 96.12,2.326 96.12,2.564 C96.12,3.222 96.428,3.726 97.17,3.726 C97.73,3.726 98.164,3.446 98.528,2.998 C98.71,2.774 99.158,2.172 99.284,1.416 L99.886,-2.224 L101.384,-2.224 L100.208,4.804 C99.844,7.016 98.5,7.968 96.554,7.968 Z M102.098,7.8 L103.764,-2.224 L105.262,-2.224 L104.982,-0.516 L105.038,-0.516 C105.584,-1.636 106.27,-2.392 107.53,-2.392 C109.014,-2.392 109.728,-1.37 109.728,0.408 C109.728,2.732 108.664,5.168 106.34,5.168 C105.248,5.168 104.604,4.65 104.338,3.698 L104.268,3.698 L103.596,7.8 L102.098,7.8 Z M105.878,3.95 C107.124,3.95 107.796,3.11 107.992,1.934 L108.16,0.94 C108.188,0.772 108.216,0.548 108.216,0.338 C108.216,-0.572 107.81,-1.174 106.928,-1.174 C106.368,-1.174 105.878,-0.922 105.444,-0.418 C105.136,-0.068 104.814,0.464 104.702,1.136 L104.464,2.578 C104.324,3.418 104.87,3.95 105.878,3.95 Z M114.306,5.168 C112.346,5.168 111.324,4.09 111.324,2.074 C111.324,-0.572 112.99,-2.392 115.412,-2.392 C116.854,-2.392 117.96,-1.72 117.96,-0.432 C117.96,0.646 117.26,1.906 112.85,2.046 C112.836,2.172 112.836,2.284 112.836,2.326 C112.836,3.236 113.186,3.964 114.474,3.964 C115.412,3.964 115.944,3.586 116.728,2.522 L117.708,3.152 C116.924,4.37 115.958,5.168 114.306,5.168 Z M115.272,-1.258 C114.054,-1.258 113.228,-0.53 112.99,0.954 L112.962,1.108 C116.098,0.982 116.476,0.268 116.476,-0.334 C116.476,-0.866 116.14,-1.258 115.272,-1.258 Z M122.496,5.168 C121.082,5.168 120.004,4.706 119.43,3.88 L120.382,3.04 C120.886,3.684 121.614,4.02 122.608,4.02 C123.7,4.02 124.372,3.614 124.372,2.886 C124.372,2.326 123.98,2.158 123.462,2.074 L122.412,1.892 C121.348,1.696 120.354,1.29 120.354,-0.026 C120.354,-1.594 121.74,-2.392 123.518,-2.392 C124.792,-2.392 125.772,-1.986 126.304,-1.328 L125.38,-0.446 C125.1,-0.838 124.47,-1.244 123.434,-1.244 C122.398,-1.244 121.824,-0.852 121.824,-0.18 C121.824,0.394 122.244,0.534 122.762,0.632 L123.812,0.828 C124.848,1.024 125.856,1.374 125.856,2.69 C125.856,4.23 124.526,5.168 122.496,5.168 Z M139.31,5.168 C137.42,5.168 136.37,3.936 136.37,2.088 C136.37,-0.67 138.036,-2.392 140.29,-2.392 C142.18,-2.392 143.23,-1.16 143.23,0.688 C143.23,3.446 141.564,5.168 139.31,5.168 Z M139.408,3.978 C140.57,3.978 141.298,3.208 141.508,1.948 L141.662,1.024 C141.704,0.758 141.732,0.534 141.732,0.366 C141.732,-0.698 141.13,-1.202 140.192,-1.202 C139.03,-1.202 138.302,-0.432 138.092,0.828 L137.938,1.752 C137.896,2.018 137.868,2.242 137.868,2.41 C137.868,3.474 138.47,3.978 139.408,3.978 Z M146.632,7.968 C145.834,7.968 145.386,7.422 144.42,6.274 L143.692,5.392 L144.714,4.594 L146.548,6.722 L146.772,6.666 L148.046,-1.006 L145.61,-1.006 L145.806,-2.224 L148.242,-2.224 L148.466,-3.568 C148.634,-4.576 149.306,-5.36 150.594,-5.36 L153.044,-5.36 L152.848,-4.142 L150.062,-4.142 L149.74,-2.224 L152.54,-2.224 L152.344,-1.006 L149.544,-1.006 L148.34,6.204 C148.158,7.296 147.626,7.968 146.632,7.968 Z M-62.192,23 L-63.69,23 L-62.696,16.994 L-64.558,16.994 L-64.348,15.776 L-60.988,15.776 L-61.338,17.82 L-61.254,17.82 C-60.708,16.574 -59.938,15.776 -58.538,15.776 L-57.698,15.776 L-57.95,17.274 L-59.21,17.274 C-60.008,17.274 -60.484,17.484 -60.876,17.96 C-61.058,18.184 -61.478,18.716 -61.59,19.388 L-62.192,23 Z M-53.694,23.168 C-55.654,23.168 -56.676,22.09 -56.676,20.074 C-56.676,17.428 -55.01,15.608 -52.588,15.608 C-51.146,15.608 -50.04,16.28 -50.04,17.568 C-50.04,18.646 -50.74,19.906 -55.15,20.046 C-55.164,20.172 -55.164,20.284 -55.164,20.326 C-55.164,21.236 -54.814,21.964 -53.526,21.964 C-52.588,21.964 -52.056,21.586 -51.272,20.522 L-50.292,21.152 C-51.076,22.37 -52.042,23.168 -53.694,23.168 Z M-52.728,16.742 C-53.946,16.742 -54.772,17.47 -55.01,18.954 L-55.038,19.108 C-51.902,18.982 -51.524,18.268 -51.524,17.666 C-51.524,17.134 -51.86,16.742 -52.728,16.742 Z M-45.406,23.168 C-47.268,23.168 -48.262,21.978 -48.262,20.116 C-48.262,17.484 -46.694,15.608 -44.412,15.608 C-42.83,15.608 -42.046,16.378 -41.78,17.386 L-43.026,17.932 C-43.264,17.162 -43.698,16.854 -44.552,16.854 C-45.574,16.854 -46.316,17.512 -46.54,18.856 L-46.68,19.696 C-46.722,19.948 -46.736,20.158 -46.736,20.354 C-46.736,21.39 -46.176,21.922 -45.182,21.922 C-44.566,21.922 -44.02,21.74 -42.928,20.256 L-41.934,20.872 C-42.872,22.356 -43.796,23.168 -45.406,23.168 Z M-37.09,23.168 C-38.98,23.168 -40.03,21.936 -40.03,20.088 C-40.03,17.33 -38.364,15.608 -36.11,15.608 C-34.22,15.608 -33.17,16.84 -33.17,18.688 C-33.17,21.446 -34.836,23.168 -37.09,23.168 Z M-36.992,21.978 C-35.83,21.978 -35.102,21.208 -34.892,19.948 L-34.738,19.024 C-34.696,18.758 -34.668,18.534 -34.668,18.366 C-34.668,17.302 -35.27,16.798 -36.208,16.798 C-37.37,16.798 -38.098,17.568 -38.308,18.828 L-38.462,19.752 C-38.504,20.018 -38.532,20.242 -38.532,20.41 C-38.532,21.474 -37.93,21.978 -36.992,21.978 Z M-30.272,23 L-31.77,23 L-30.566,15.776 L-29.068,15.776 L-29.362,17.484 L-29.292,17.484 C-28.76,16.336 -28.074,15.608 -26.912,15.608 C-25.624,15.608 -24.952,16.462 -24.952,17.694 C-24.952,18.03 -24.98,18.366 -25.064,18.856 L-25.75,23 L-27.248,23 L-26.548,18.8 C-26.506,18.548 -26.464,18.226 -26.464,17.988 C-26.464,17.33 -26.772,16.826 -27.514,16.826 C-28.074,16.826 -28.508,17.106 -28.872,17.554 C-29.054,17.778 -29.502,18.38 -29.628,19.136 L-30.272,23 Z M-20.304,23.168 C-21.718,23.168 -22.796,22.706 -23.37,21.88 L-22.418,21.04 C-21.914,21.684 -21.186,22.02 -20.192,22.02 C-19.1,22.02 -18.428,21.614 -18.428,20.886 C-18.428,20.326 -18.82,20.158 -19.338,20.074 L-20.388,19.892 C-21.452,19.696 -22.446,19.29 -22.446,17.974 C-22.446,16.406 -21.06,15.608 -19.282,15.608 C-18.008,15.608 -17.028,16.014 -16.496,16.672 L-17.42,17.554 C-17.7,17.162 -18.33,16.756 -19.366,16.756 C-20.402,16.756 -20.976,17.148 -20.976,17.82 C-20.976,18.394 -20.556,18.534 -20.038,18.632 L-18.988,18.828 C-17.952,19.024 -16.944,19.374 -16.944,20.69 C-16.944,22.23 -18.274,23.168 -20.304,23.168 Z M-12.03,23.168 C-12.926,23.168 -13.374,22.65 -13.374,21.81 C-13.374,21.642 -13.332,21.39 -13.29,21.138 L-12.604,16.994 L-14.592,16.994 L-14.396,15.776 L-13.052,15.776 C-12.52,15.776 -12.282,15.594 -12.184,15.048 L-11.876,13.228 L-10.476,13.228 L-10.896,15.776 L-7.984,15.776 L-8.18,16.994 L-11.106,16.994 L-11.904,21.782 L-11.624,21.922 L-8.88,19.976 L-8.138,20.872 L-9.412,21.824 C-10.672,22.79 -11.274,23.168 -12.03,23.168 Z M-3.392,23 L-4.89,23 L-3.896,16.994 L-5.758,16.994 L-5.548,15.776 L-2.188,15.776 L-2.538,17.82 L-2.454,17.82 C-1.908,16.574 -1.138,15.776 0.262,15.776 L1.102,15.776 L0.85,17.274 L-0.41,17.274 C-1.208,17.274 -1.684,17.484 -2.076,17.96 C-2.258,18.184 -2.678,18.716 -2.79,19.388 L-3.392,23 Z M6.282,23 L6.576,21.292 L6.506,21.292 C5.974,22.44 5.288,23.168 4.126,23.168 C2.838,23.168 2.166,22.314 2.166,21.082 C2.166,20.746 2.194,20.41 2.278,19.92 L2.964,15.776 L4.462,15.776 L3.762,19.976 C3.72,20.228 3.678,20.55 3.678,20.788 C3.678,21.446 3.986,21.95 4.728,21.95 C5.288,21.95 5.722,21.67 6.086,21.222 C6.268,20.998 6.716,20.396 6.842,19.64 L7.486,15.776 L8.984,15.776 L7.78,23 L6.282,23 Z M13.394,23.168 C11.532,23.168 10.538,21.978 10.538,20.116 C10.538,17.484 12.106,15.608 14.388,15.608 C15.97,15.608 16.754,16.378 17.02,17.386 L15.774,17.932 C15.536,17.162 15.102,16.854 14.248,16.854 C13.226,16.854 12.484,17.512 12.26,18.856 L12.12,19.696 C12.078,19.948 12.064,20.158 12.064,20.354 C12.064,21.39 12.624,21.922 13.618,21.922 C14.234,21.922 14.78,21.74 15.872,20.256 L16.866,20.872 C15.928,22.356 15.004,23.168 13.394,23.168 Z M21.57,23.168 C20.674,23.168 20.226,22.65 20.226,21.81 C20.226,21.642 20.268,21.39 20.31,21.138 L20.996,16.994 L19.008,16.994 L19.204,15.776 L20.548,15.776 C21.08,15.776 21.318,15.594 21.416,15.048 L21.724,13.228 L23.124,13.228 L22.704,15.776 L25.616,15.776 L25.42,16.994 L22.494,16.994 L21.696,21.782 L21.976,21.922 L24.72,19.976 L25.462,20.872 L24.188,21.824 C22.928,22.79 22.326,23.168 21.57,23.168 Z M31.16,14.446 C30.446,14.446 30.208,14.138 30.208,13.76 C30.208,13.648 30.236,13.494 30.264,13.326 C30.348,12.822 30.642,12.514 31.356,12.514 C32.07,12.514 32.308,12.822 32.308,13.2 C32.308,13.312 32.28,13.466 32.252,13.634 C32.168,14.138 31.874,14.446 31.16,14.446 Z M30.348,23.168 C29.466,23.168 29.004,22.65 29.004,21.908 C29.004,21.67 29.046,21.446 29.102,21.11 L29.9,16.994 L27.464,16.994 L27.66,15.776 L31.622,15.776 L30.446,21.838 L30.726,21.95 L33.148,19.724 L34.002,20.494 L32.91,21.586 C31.748,22.748 31.118,23.168 30.348,23.168 Z M35.752,15.776 L38.622,15.776 L37.684,21.936 L37.866,22.048 C39.952,21.614 40.932,19.752 40.932,17.918 C40.932,17.288 40.778,16.644 40.498,16.112 L41.87,15.65 C42.248,16.224 42.444,17.008 42.444,17.876 C42.444,20.788 40.176,23.14 37.642,23.14 C36.718,23.14 36.27,22.636 36.27,21.824 C36.27,21.614 36.284,21.432 36.326,21.166 L36.97,16.994 L35.556,16.994 L35.752,15.776 Z M47.106,23.168 C45.146,23.168 44.124,22.09 44.124,20.074 C44.124,17.428 45.79,15.608 48.212,15.608 C49.654,15.608 50.76,16.28 50.76,17.568 C50.76,18.646 50.06,19.906 45.65,20.046 C45.636,20.172 45.636,20.284 45.636,20.326 C45.636,21.236 45.986,21.964 47.274,21.964 C48.212,21.964 48.744,21.586 49.528,20.522 L50.508,21.152 C49.724,22.37 48.758,23.168 47.106,23.168 Z M48.072,16.742 C46.854,16.742 46.028,17.47 45.79,18.954 L45.762,19.108 C48.898,18.982 49.276,18.268 49.276,17.666 C49.276,17.134 48.94,16.742 48.072,16.742 Z M63.696,23.168 C62.282,23.168 61.204,22.706 60.63,21.88 L61.582,21.04 C62.086,21.684 62.814,22.02 63.808,22.02 C64.9,22.02 65.572,21.614 65.572,20.886 C65.572,20.326 65.18,20.158 64.662,20.074 L63.612,19.892 C62.548,19.696 61.554,19.29 61.554,17.974 C61.554,16.406 62.94,15.608 64.718,15.608 C65.992,15.608 66.972,16.014 67.504,16.672 L66.58,17.554 C66.3,17.162 65.67,16.756 64.634,16.756 C63.598,16.756 63.024,17.148 63.024,17.82 C63.024,18.394 63.444,18.534 63.962,18.632 L65.012,18.828 C66.048,19.024 67.056,19.374 67.056,20.69 C67.056,22.23 65.726,23.168 63.696,23.168 Z M73.482,23 L73.776,21.292 L73.706,21.292 C73.174,22.44 72.488,23.168 71.326,23.168 C70.038,23.168 69.366,22.314 69.366,21.082 C69.366,20.746 69.394,20.41 69.478,19.92 L70.164,15.776 L71.662,15.776 L70.962,19.976 C70.92,20.228 70.878,20.55 70.878,20.788 C70.878,21.446 71.186,21.95 71.928,21.95 C72.488,21.95 72.922,21.67 73.286,21.222 C73.468,20.998 73.916,20.396 74.042,19.64 L74.686,15.776 L76.184,15.776 L74.98,23 L73.482,23 Z M80.608,23 L79.11,23 L80.104,16.994 L78.242,16.994 L78.452,15.776 L81.812,15.776 L81.462,17.82 L81.546,17.82 C82.092,16.574 82.862,15.776 84.262,15.776 L85.102,15.776 L84.85,17.274 L83.59,17.274 C82.792,17.274 82.316,17.484 81.924,17.96 C81.742,18.184 81.322,18.716 81.21,19.388 L80.608,23 Z M88.224,25.968 C86.992,25.968 86.124,25.674 85.508,24.946 L86.46,23.994 C86.866,24.498 87.454,24.75 88.238,24.75 C89.4,24.75 90.128,24.274 90.408,22.594 L90.674,21.026 L90.604,21.026 C90.058,22.174 89.372,22.916 88.112,22.916 C86.6,22.916 85.9,21.838 85.9,20.144 C85.9,17.96 86.95,15.608 89.246,15.608 C90.352,15.608 90.996,16.126 91.262,17.078 L91.332,17.078 L91.542,15.776 L93.04,15.776 L91.878,22.748 C91.5,25.016 90.17,25.968 88.224,25.968 Z M88.714,21.684 C89.274,21.684 89.736,21.446 90.184,20.942 C90.436,20.662 90.814,20.158 90.94,19.416 L91.136,18.226 C91.276,17.372 90.73,16.826 89.722,16.826 C88.49,16.826 87.818,17.652 87.608,18.856 L87.496,19.528 C87.468,19.752 87.44,19.948 87.44,20.186 C87.44,21.11 87.832,21.684 88.714,21.684 Z M97.506,23.168 C95.546,23.168 94.524,22.09 94.524,20.074 C94.524,17.428 96.19,15.608 98.612,15.608 C100.054,15.608 101.16,16.28 101.16,17.568 C101.16,18.646 100.46,19.906 96.05,20.046 C96.036,20.172 96.036,20.284 96.036,20.326 C96.036,21.236 96.386,21.964 97.674,21.964 C98.612,21.964 99.144,21.586 99.928,20.522 L100.908,21.152 C100.124,22.37 99.158,23.168 97.506,23.168 Z M98.472,16.742 C97.254,16.742 96.428,17.47 96.19,18.954 L96.162,19.108 C99.298,18.982 99.676,18.268 99.676,17.666 C99.676,17.134 99.34,16.742 98.472,16.742 Z M105.808,23 L104.31,23 L105.304,16.994 L103.442,16.994 L103.652,15.776 L107.012,15.776 L106.662,17.82 L106.746,17.82 C107.292,16.574 108.062,15.776 109.462,15.776 L110.302,15.776 L110.05,17.274 L108.79,17.274 C107.992,17.274 107.516,17.484 107.124,17.96 C106.942,18.184 106.522,18.716 106.41,19.388 L105.808,23 Z M113.354,25.968 C112.108,25.968 111.24,25.674 110.638,24.946 L111.59,23.994 C111.996,24.498 112.584,24.75 113.368,24.75 C114.572,24.75 115.3,24.204 115.566,22.566 L115.804,21.068 L115.748,21.068 C115.216,22.216 114.53,22.944 113.368,22.944 C112.08,22.944 111.408,22.09 111.408,20.858 C111.408,20.522 111.436,20.186 111.52,19.696 L112.164,15.776 L113.662,15.776 L113.004,19.752 C112.962,20.004 112.92,20.326 112.92,20.564 C112.92,21.222 113.228,21.726 113.97,21.726 C114.53,21.726 114.964,21.446 115.328,20.998 C115.51,20.774 115.958,20.172 116.084,19.416 L116.686,15.776 L118.184,15.776 L117.008,22.804 C116.644,25.016 115.3,25.968 113.354,25.968 Z M133.836,23 L132.338,23 L132.618,21.292 L132.562,21.292 C132.016,22.412 131.33,23.168 130.07,23.168 C128.586,23.168 127.872,22.146 127.872,20.368 C127.872,18.044 128.936,15.608 131.26,15.608 C132.352,15.608 132.996,16.126 133.262,17.078 L133.332,17.078 L133.542,15.776 L135.04,15.776 L133.836,23 Z M130.672,21.95 C131.232,21.95 131.722,21.698 132.156,21.194 C132.464,20.844 132.786,20.312 132.898,19.64 L133.136,18.198 C133.276,17.358 132.73,16.826 131.722,16.826 C130.476,16.826 129.804,17.666 129.608,18.842 L129.44,19.836 C129.412,20.004 129.384,20.228 129.384,20.438 C129.384,21.348 129.79,21.95 130.672,21.95 Z M136.552,15.776 L139.422,15.776 L138.484,21.936 L138.666,22.048 C140.752,21.614 141.732,19.752 141.732,17.918 C141.732,17.288 141.578,16.644 141.298,16.112 L142.67,15.65 C143.048,16.224 143.244,17.008 143.244,17.876 C143.244,20.788 140.976,23.14 138.442,23.14 C137.518,23.14 137.07,22.636 137.07,21.824 C137.07,21.614 137.084,21.432 137.126,21.166 L137.77,16.994 L136.356,16.994 L136.552,15.776 Z M150.636,23 L149.138,23 L149.418,21.292 L149.362,21.292 C148.816,22.412 148.13,23.168 146.87,23.168 C145.386,23.168 144.672,22.146 144.672,20.368 C144.672,18.044 145.736,15.608 148.06,15.608 C149.152,15.608 149.796,16.126 150.062,17.078 L150.132,17.078 L150.342,15.776 L151.84,15.776 L150.636,23 Z M147.472,21.95 C148.032,21.95 148.522,21.698 148.956,21.194 C149.264,20.844 149.586,20.312 149.698,19.64 L149.936,18.198 C150.076,17.358 149.53,16.826 148.522,16.826 C147.276,16.826 146.604,17.666 146.408,18.842 L146.24,19.836 C146.212,20.004 146.184,20.228 146.184,20.438 C146.184,21.348 146.59,21.95 147.472,21.95 Z M157.16,14.446 C156.446,14.446 156.208,14.138 156.208,13.76 C156.208,13.648 156.236,13.494 156.264,13.326 C156.348,12.822 156.642,12.514 157.356,12.514 C158.07,12.514 158.308,12.822 158.308,13.2 C158.308,13.312 158.28,13.466 158.252,13.634 C158.168,14.138 157.874,14.446 157.16,14.446 Z M156.348,23.168 C155.466,23.168 155.004,22.65 155.004,21.908 C155.004,21.67 155.046,21.446 155.102,21.11 L155.9,16.994 L153.464,16.994 L153.66,15.776 L157.622,15.776 L156.446,21.838 L156.726,21.95 L159.148,19.724 L160.002,20.494 L158.91,21.586 C157.748,22.748 157.118,23.168 156.348,23.168 Z M164.412,23.168 C163.488,23.168 163.082,22.65 163.082,21.88 C163.082,21.684 163.11,21.446 163.166,21.152 L164.566,13.858 L162.186,13.858 L162.396,12.64 L166.302,12.64 L164.524,21.852 L164.818,21.95 L167.31,19.696 L168.15,20.466 L166.946,21.642 C165.756,22.804 165.14,23.168 164.412,23.168 Z M175.836,23 L174.338,23 L174.618,21.292 L174.562,21.292 C174.016,22.412 173.33,23.168 172.07,23.168 C170.586,23.168 169.872,22.146 169.872,20.368 C169.872,18.044 170.936,15.608 173.26,15.608 C174.352,15.608 174.996,16.126 175.262,17.078 L175.332,17.078 L175.542,15.776 L177.04,15.776 L175.836,23 Z M172.672,21.95 C173.232,21.95 173.722,21.698 174.156,21.194 C174.464,20.844 174.786,20.312 174.898,19.64 L175.136,18.198 C175.276,17.358 174.73,16.826 173.722,16.826 C172.476,16.826 171.804,17.666 171.608,18.842 L171.44,19.836 C171.412,20.004 171.384,20.228 171.384,20.438 C171.384,21.348 171.79,21.95 172.672,21.95 Z M178.16,23 L179.882,12.64 L181.38,12.64 L180.582,17.484 L180.638,17.484 C181.184,16.364 181.87,15.608 183.13,15.608 C184.614,15.608 185.328,16.63 185.328,18.408 C185.328,20.732 184.264,23.168 181.94,23.168 C180.848,23.168 180.204,22.65 179.938,21.698 L179.868,21.698 L179.658,23 L178.16,23 Z M181.478,21.95 C182.724,21.95 183.396,21.11 183.592,19.934 L183.76,18.94 C183.788,18.772 183.816,18.548 183.816,18.338 C183.816,17.428 183.41,16.826 182.528,16.826 C181.968,16.826 181.478,17.078 181.044,17.582 C180.736,17.932 180.414,18.464 180.302,19.136 L180.064,20.578 C179.924,21.418 180.47,21.95 181.478,21.95 Z M189.612,23.168 C188.688,23.168 188.282,22.65 188.282,21.88 C188.282,21.684 188.31,21.446 188.366,21.152 L189.766,13.858 L187.386,13.858 L187.596,12.64 L191.502,12.64 L189.724,21.852 L190.018,21.95 L192.51,19.696 L193.35,20.466 L192.146,21.642 C190.956,22.804 190.34,23.168 189.612,23.168 Z M198.306,23.168 C196.346,23.168 195.324,22.09 195.324,20.074 C195.324,17.428 196.99,15.608 199.412,15.608 C200.854,15.608 201.96,16.28 201.96,17.568 C201.96,18.646 201.26,19.906 196.85,20.046 C196.836,20.172 196.836,20.284 196.836,20.326 C196.836,21.236 197.186,21.964 198.474,21.964 C199.412,21.964 199.944,21.586 200.728,20.522 L201.708,21.152 C200.924,22.37 199.958,23.168 198.306,23.168 Z M199.272,16.742 C198.054,16.742 197.228,17.47 196.99,18.954 L196.962,19.108 C200.098,18.982 200.476,18.268 200.476,17.666 C200.476,17.134 200.14,16.742 199.272,16.742 Z M204.522,25.03 L205.964,20.886 L208.092,20.886 L205.726,25.03 L204.522,25.03 Z M-59.364,41 L-60.862,41 L-60.582,39.292 L-60.638,39.292 C-61.184,40.412 -61.87,41.168 -63.13,41.168 C-64.614,41.168 -65.328,40.146 -65.328,38.368 C-65.328,36.044 -64.264,33.608 -61.94,33.608 C-60.848,33.608 -60.204,34.126 -59.938,35.078 L-59.868,35.078 L-59.658,33.776 L-58.16,33.776 L-59.364,41 Z M-62.528,39.95 C-61.968,39.95 -61.478,39.698 -61.044,39.194 C-60.736,38.844 -60.414,38.312 -60.302,37.64 L-60.064,36.198 C-59.924,35.358 -60.47,34.826 -61.478,34.826 C-62.724,34.826 -63.396,35.666 -63.592,36.842 L-63.76,37.836 C-63.788,38.004 -63.816,38.228 -63.816,38.438 C-63.816,39.348 -63.41,39.95 -62.528,39.95 Z M-55.472,41 L-56.97,41 L-55.766,33.776 L-54.268,33.776 L-54.562,35.484 L-54.492,35.484 C-53.96,34.336 -53.274,33.608 -52.112,33.608 C-50.824,33.608 -50.152,34.462 -50.152,35.694 C-50.152,36.03 -50.18,36.366 -50.264,36.856 L-50.95,41 L-52.448,41 L-51.748,36.8 C-51.706,36.548 -51.664,36.226 -51.664,35.988 C-51.664,35.33 -51.972,34.826 -52.714,34.826 C-53.274,34.826 -53.708,35.106 -54.072,35.554 C-54.254,35.778 -54.702,36.38 -54.828,37.136 L-55.472,41 Z M-44.062,41 L-43.782,39.292 L-43.838,39.292 C-44.384,40.412 -45.07,41.168 -46.33,41.168 C-47.814,41.168 -48.528,40.146 -48.528,38.368 C-48.528,36.044 -47.464,33.608 -45.14,33.608 C-44.048,33.608 -43.404,34.126 -43.138,35.078 L-43.068,35.078 L-42.34,30.64 L-40.842,30.64 L-42.564,41 L-44.062,41 Z M-45.728,39.95 C-45.168,39.95 -44.678,39.698 -44.244,39.194 C-43.936,38.844 -43.614,38.312 -43.502,37.64 L-43.264,36.198 C-43.124,35.358 -43.67,34.826 -44.678,34.826 C-45.924,34.826 -46.596,35.666 -46.792,36.842 L-46.96,37.836 C-46.988,38.004 -47.016,38.228 -47.016,38.438 C-47.016,39.348 -46.61,39.95 -45.728,39.95 Z M-28.704,41.168 C-30.118,41.168 -31.196,40.706 -31.77,39.88 L-30.818,39.04 C-30.314,39.684 -29.586,40.02 -28.592,40.02 C-27.5,40.02 -26.828,39.614 -26.828,38.886 C-26.828,38.326 -27.22,38.158 -27.738,38.074 L-28.788,37.892 C-29.852,37.696 -30.846,37.29 -30.846,35.974 C-30.846,34.406 -29.46,33.608 -27.682,33.608 C-26.408,33.608 -25.428,34.014 -24.896,34.672 L-25.82,35.554 C-26.1,35.162 -26.73,34.756 -27.766,34.756 C-28.802,34.756 -29.376,35.148 -29.376,35.82 C-29.376,36.394 -28.956,36.534 -28.438,36.632 L-27.388,36.828 C-26.352,37.024 -25.344,37.374 -25.344,38.69 C-25.344,40.23 -26.674,41.168 -28.704,41.168 Z M-20.29,41.168 C-22.18,41.168 -23.23,39.936 -23.23,38.088 C-23.23,35.33 -21.564,33.608 -19.31,33.608 C-17.42,33.608 -16.37,34.84 -16.37,36.688 C-16.37,39.446 -18.036,41.168 -20.29,41.168 Z M-20.192,39.978 C-19.03,39.978 -18.302,39.208 -18.092,37.948 L-17.938,37.024 C-17.896,36.758 -17.868,36.534 -17.868,36.366 C-17.868,35.302 -18.47,34.798 -19.408,34.798 C-20.57,34.798 -21.298,35.568 -21.508,36.828 L-21.662,37.752 C-21.704,38.018 -21.732,38.242 -21.732,38.41 C-21.732,39.474 -21.13,39.978 -20.192,39.978 Z M-14.298,41 L-15.572,41 L-14.368,33.776 L-13.094,33.776 L-13.29,34.966 L-13.22,34.966 C-12.884,34.182 -12.422,33.608 -11.638,33.608 C-10.854,33.608 -10.462,34.154 -10.532,35.008 L-10.476,35.008 C-10.126,34.182 -9.594,33.608 -8.74,33.608 C-7.928,33.608 -7.494,34.098 -7.494,34.98 C-7.494,35.26 -7.536,35.708 -7.592,36.044 L-8.418,41 L-9.692,41 L-8.894,36.226 C-8.852,35.974 -8.81,35.624 -8.81,35.442 C-8.81,34.994 -9.006,34.756 -9.356,34.756 C-9.678,34.756 -9.944,34.938 -10.154,35.274 C-10.364,35.61 -10.546,36.03 -10.616,36.45 L-11.372,41 L-12.646,41 L-11.834,36.156 C-11.792,35.904 -11.764,35.666 -11.764,35.456 C-11.764,34.966 -11.932,34.756 -12.268,34.756 C-12.59,34.756 -12.856,34.924 -13.094,35.274 C-13.332,35.624 -13.458,36.03 -13.528,36.38 L-14.298,41 Z M-3.294,41.168 C-5.254,41.168 -6.276,40.09 -6.276,38.074 C-6.276,35.428 -4.61,33.608 -2.188,33.608 C-0.746,33.608 0.36,34.28 0.36,35.568 C0.36,36.646 -0.34,37.906 -4.75,38.046 C-4.764,38.172 -4.764,38.284 -4.764,38.326 C-4.764,39.236 -4.414,39.964 -3.126,39.964 C-2.188,39.964 -1.656,39.586 -0.872,38.522 L0.108,39.152 C-0.676,40.37 -1.642,41.168 -3.294,41.168 Z M-2.328,34.742 C-3.546,34.742 -4.372,35.47 -4.61,36.954 L-4.638,37.108 C-1.502,36.982 -1.124,36.268 -1.124,35.666 C-1.124,35.134 -1.46,34.742 -2.328,34.742 Z M4.77,41.168 C3.874,41.168 3.426,40.65 3.426,39.81 C3.426,39.642 3.468,39.39 3.51,39.138 L4.196,34.994 L2.208,34.994 L2.404,33.776 L3.748,33.776 C4.28,33.776 4.518,33.594 4.616,33.048 L4.924,31.228 L6.324,31.228 L5.904,33.776 L8.816,33.776 L8.62,34.994 L5.694,34.994 L4.896,39.782 L5.176,39.922 L7.92,37.976 L8.662,38.872 L7.388,39.824 C6.128,40.79 5.526,41.168 4.77,41.168 Z M14.36,32.446 C13.646,32.446 13.408,32.138 13.408,31.76 C13.408,31.648 13.436,31.494 13.464,31.326 C13.548,30.822 13.842,30.514 14.556,30.514 C15.27,30.514 15.508,30.822 15.508,31.2 C15.508,31.312 15.48,31.466 15.452,31.634 C15.368,32.138 15.074,32.446 14.36,32.446 Z M13.548,41.168 C12.666,41.168 12.204,40.65 12.204,39.908 C12.204,39.67 12.246,39.446 12.302,39.11 L13.1,34.994 L10.664,34.994 L10.86,33.776 L14.822,33.776 L13.646,39.838 L13.926,39.95 L16.348,37.724 L17.202,38.494 L16.11,39.586 C14.948,40.748 14.318,41.168 13.548,41.168 Z M19.302,41 L18.028,41 L19.232,33.776 L20.506,33.776 L20.31,34.966 L20.38,34.966 C20.716,34.182 21.178,33.608 21.962,33.608 C22.746,33.608 23.138,34.154 23.068,35.008 L23.124,35.008 C23.474,34.182 24.006,33.608 24.86,33.608 C25.672,33.608 26.106,34.098 26.106,34.98 C26.106,35.26 26.064,35.708 26.008,36.044 L25.182,41 L23.908,41 L24.706,36.226 C24.748,35.974 24.79,35.624 24.79,35.442 C24.79,34.994 24.594,34.756 24.244,34.756 C23.922,34.756 23.656,34.938 23.446,35.274 C23.236,35.61 23.054,36.03 22.984,36.45 L22.228,41 L20.954,41 L21.766,36.156 C21.808,35.904 21.836,35.666 21.836,35.456 C21.836,34.966 21.668,34.756 21.332,34.756 C21.01,34.756 20.744,34.924 20.506,35.274 C20.268,35.624 20.142,36.03 20.072,36.38 L19.302,41 Z M30.306,41.168 C28.346,41.168 27.324,40.09 27.324,38.074 C27.324,35.428 28.99,33.608 31.412,33.608 C32.854,33.608 33.96,34.28 33.96,35.568 C33.96,36.646 33.26,37.906 28.85,38.046 C28.836,38.172 28.836,38.284 28.836,38.326 C28.836,39.236 29.186,39.964 30.474,39.964 C31.412,39.964 31.944,39.586 32.728,38.522 L33.708,39.152 C32.924,40.37 31.958,41.168 30.306,41.168 Z M31.272,34.742 C30.054,34.742 29.228,35.47 28.99,36.954 L28.962,37.108 C32.098,36.982 32.476,36.268 32.476,35.666 C32.476,35.134 32.14,34.742 31.272,34.742 Z M38.496,41.168 C37.082,41.168 36.004,40.706 35.43,39.88 L36.382,39.04 C36.886,39.684 37.614,40.02 38.608,40.02 C39.7,40.02 40.372,39.614 40.372,38.886 C40.372,38.326 39.98,38.158 39.462,38.074 L38.412,37.892 C37.348,37.696 36.354,37.29 36.354,35.974 C36.354,34.406 37.74,33.608 39.518,33.608 C40.792,33.608 41.772,34.014 42.304,34.672 L41.38,35.554 C41.1,35.162 40.47,34.756 39.434,34.756 C38.398,34.756 37.824,35.148 37.824,35.82 C37.824,36.394 38.244,36.534 38.762,36.632 L39.812,36.828 C40.848,37.024 41.856,37.374 41.856,38.69 C41.856,40.23 40.526,41.168 38.496,41.168 Z M55.17,41.168 C54.274,41.168 53.826,40.65 53.826,39.81 C53.826,39.642 53.868,39.39 53.91,39.138 L54.596,34.994 L52.608,34.994 L52.804,33.776 L54.148,33.776 C54.68,33.776 54.918,33.594 55.016,33.048 L55.324,31.228 L56.724,31.228 L56.304,33.776 L59.216,33.776 L59.02,34.994 L56.094,34.994 L55.296,39.782 L55.576,39.922 L58.32,37.976 L59.062,38.872 L57.788,39.824 C56.528,40.79 55.926,41.168 55.17,41.168 Z M60.63,41 L62.352,30.64 L63.85,30.64 L63.038,35.484 L63.108,35.484 C63.64,34.336 64.326,33.608 65.488,33.608 C66.776,33.608 67.448,34.462 67.448,35.694 C67.448,36.03 67.42,36.366 67.336,36.856 L66.65,41 L65.152,41 L65.852,36.8 C65.894,36.548 65.936,36.226 65.936,35.988 C65.936,35.33 65.628,34.826 64.886,34.826 C64.326,34.826 63.892,35.106 63.528,35.554 C63.346,35.778 62.898,36.38 62.772,37.136 L62.128,41 L60.63,41 Z M72.306,41.168 C70.346,41.168 69.324,40.09 69.324,38.074 C69.324,35.428 70.99,33.608 73.412,33.608 C74.854,33.608 75.96,34.28 75.96,35.568 C75.96,36.646 75.26,37.906 70.85,38.046 C70.836,38.172 70.836,38.284 70.836,38.326 C70.836,39.236 71.186,39.964 72.474,39.964 C73.412,39.964 73.944,39.586 74.728,38.522 L75.708,39.152 C74.924,40.37 73.958,41.168 72.306,41.168 Z M73.272,34.742 C72.054,34.742 71.228,35.47 70.99,36.954 L70.962,37.108 C74.098,36.982 74.476,36.268 74.476,35.666 C74.476,35.134 74.14,34.742 73.272,34.742 Z M85.298,43.8 L86.964,33.776 L88.462,33.776 L88.182,35.484 L88.238,35.484 C88.784,34.364 89.47,33.608 90.73,33.608 C92.214,33.608 92.928,34.63 92.928,36.408 C92.928,38.732 91.864,41.168 89.54,41.168 C88.448,41.168 87.804,40.65 87.538,39.698 L87.468,39.698 L86.796,43.8 L85.298,43.8 Z M89.078,39.95 C90.324,39.95 90.996,39.11 91.192,37.934 L91.36,36.94 C91.388,36.772 91.416,36.548 91.416,36.338 C91.416,35.428 91.01,34.826 90.128,34.826 C89.568,34.826 89.078,35.078 88.644,35.582 C88.336,35.932 88.014,36.464 87.902,37.136 L87.664,38.578 C87.524,39.418 88.07,39.95 89.078,39.95 Z M97.408,41 L95.91,41 L96.904,34.994 L95.042,34.994 L95.252,33.776 L98.612,33.776 L98.262,35.82 L98.346,35.82 C98.892,34.574 99.662,33.776 101.062,33.776 L101.902,33.776 L101.65,35.274 L100.39,35.274 C99.592,35.274 99.116,35.484 98.724,35.96 C98.542,36.184 98.122,36.716 98.01,37.388 L97.408,41 Z M105.71,41.168 C103.82,41.168 102.77,39.936 102.77,38.088 C102.77,35.33 104.436,33.608 106.69,33.608 C108.58,33.608 109.63,34.84 109.63,36.688 C109.63,39.446 107.964,41.168 105.71,41.168 Z M105.808,39.978 C106.97,39.978 107.698,39.208 107.908,37.948 L108.062,37.024 C108.104,36.758 108.132,36.534 108.132,36.366 C108.132,35.302 107.53,34.798 106.592,34.798 C105.43,34.798 104.702,35.568 104.492,36.828 L104.338,37.752 C104.296,38.018 104.268,38.242 104.268,38.41 C104.268,39.474 104.87,39.978 105.808,39.978 Z M114.194,41.168 C112.332,41.168 111.338,39.978 111.338,38.116 C111.338,35.484 112.906,33.608 115.188,33.608 C116.77,33.608 117.554,34.378 117.82,35.386 L116.574,35.932 C116.336,35.162 115.902,34.854 115.048,34.854 C114.026,34.854 113.284,35.512 113.06,36.856 L112.92,37.696 C112.878,37.948 112.864,38.158 112.864,38.354 C112.864,39.39 113.424,39.922 114.418,39.922 C115.034,39.922 115.58,39.74 116.672,38.256 L117.666,38.872 C116.728,40.356 115.804,41.168 114.194,41.168 Z M122.706,41.168 C120.746,41.168 119.724,40.09 119.724,38.074 C119.724,35.428 121.39,33.608 123.812,33.608 C125.254,33.608 126.36,34.28 126.36,35.568 C126.36,36.646 125.66,37.906 121.25,38.046 C121.236,38.172 121.236,38.284 121.236,38.326 C121.236,39.236 121.586,39.964 122.874,39.964 C123.812,39.964 124.344,39.586 125.128,38.522 L126.108,39.152 C125.324,40.37 124.358,41.168 122.706,41.168 Z M123.672,34.742 C122.454,34.742 121.628,35.47 121.39,36.954 L121.362,37.108 C124.498,36.982 124.876,36.268 124.876,35.666 C124.876,35.134 124.54,34.742 123.672,34.742 Z M130.896,41.168 C129.482,41.168 128.404,40.706 127.83,39.88 L128.782,39.04 C129.286,39.684 130.014,40.02 131.008,40.02 C132.1,40.02 132.772,39.614 132.772,38.886 C132.772,38.326 132.38,38.158 131.862,38.074 L130.812,37.892 C129.748,37.696 128.754,37.29 128.754,35.974 C128.754,34.406 130.14,33.608 131.918,33.608 C133.192,33.608 134.172,34.014 134.704,34.672 L133.78,35.554 C133.5,35.162 132.87,34.756 131.834,34.756 C130.798,34.756 130.224,35.148 130.224,35.82 C130.224,36.394 130.644,36.534 131.162,36.632 L132.212,36.828 C133.248,37.024 134.256,37.374 134.256,38.69 C134.256,40.23 132.926,41.168 130.896,41.168 Z M139.296,41.168 C137.882,41.168 136.804,40.706 136.23,39.88 L137.182,39.04 C137.686,39.684 138.414,40.02 139.408,40.02 C140.5,40.02 141.172,39.614 141.172,38.886 C141.172,38.326 140.78,38.158 140.262,38.074 L139.212,37.892 C138.148,37.696 137.154,37.29 137.154,35.974 C137.154,34.406 138.54,33.608 140.318,33.608 C141.592,33.608 142.572,34.014 143.104,34.672 L142.18,35.554 C141.9,35.162 141.27,34.756 140.234,34.756 C139.198,34.756 138.624,35.148 138.624,35.82 C138.624,36.394 139.044,36.534 139.562,36.632 L140.612,36.828 C141.648,37.024 142.656,37.374 142.656,38.69 C142.656,40.23 141.326,41.168 139.296,41.168 Z M153.702,41 L152.428,41 L153.632,33.776 L154.906,33.776 L154.71,34.966 L154.78,34.966 C155.116,34.182 155.578,33.608 156.362,33.608 C157.146,33.608 157.538,34.154 157.468,35.008 L157.524,35.008 C157.874,34.182 158.406,33.608 159.26,33.608 C160.072,33.608 160.506,34.098 160.506,34.98 C160.506,35.26 160.464,35.708 160.408,36.044 L159.582,41 L158.308,41 L159.106,36.226 C159.148,35.974 159.19,35.624 159.19,35.442 C159.19,34.994 158.994,34.756 158.644,34.756 C158.322,34.756 158.056,34.938 157.846,35.274 C157.636,35.61 157.454,36.03 157.384,36.45 L156.628,41 L155.354,41 L156.166,36.156 C156.208,35.904 156.236,35.666 156.236,35.456 C156.236,34.966 156.068,34.756 155.732,34.756 C155.41,34.756 155.144,34.924 154.906,35.274 C154.668,35.624 154.542,36.03 154.472,36.38 L153.702,41 Z M164.706,41.168 C162.746,41.168 161.724,40.09 161.724,38.074 C161.724,35.428 163.39,33.608 165.812,33.608 C167.254,33.608 168.36,34.28 168.36,35.568 C168.36,36.646 167.66,37.906 163.25,38.046 C163.236,38.172 163.236,38.284 163.236,38.326 C163.236,39.236 163.586,39.964 164.874,39.964 C165.812,39.964 166.344,39.586 167.128,38.522 L168.108,39.152 C167.324,40.37 166.358,41.168 164.706,41.168 Z M165.672,34.742 C164.454,34.742 163.628,35.47 163.39,36.954 L163.362,37.108 C166.498,36.982 166.876,36.268 166.876,35.666 C166.876,35.134 166.54,34.742 165.672,34.742 Z M175.836,41 L174.338,41 L174.618,39.292 L174.562,39.292 C174.016,40.412 173.33,41.168 172.07,41.168 C170.586,41.168 169.872,40.146 169.872,38.368 C169.872,36.044 170.936,33.608 173.26,33.608 C174.352,33.608 174.996,34.126 175.262,35.078 L175.332,35.078 L175.542,33.776 L177.04,33.776 L175.836,41 Z M172.672,39.95 C173.232,39.95 173.722,39.698 174.156,39.194 C174.464,38.844 174.786,38.312 174.898,37.64 L175.136,36.198 C175.276,35.358 174.73,34.826 173.722,34.826 C172.476,34.826 171.804,35.666 171.608,36.842 L171.44,37.836 C171.412,38.004 171.384,38.228 171.384,38.438 C171.384,39.348 171.79,39.95 172.672,39.95 Z M179.728,41 L178.23,41 L179.434,33.776 L180.932,33.776 L180.638,35.484 L180.708,35.484 C181.24,34.336 181.926,33.608 183.088,33.608 C184.376,33.608 185.048,34.462 185.048,35.694 C185.048,36.03 185.02,36.366 184.936,36.856 L184.25,41 L182.752,41 L183.452,36.8 C183.494,36.548 183.536,36.226 183.536,35.988 C183.536,35.33 183.228,34.826 182.486,34.826 C181.926,34.826 181.492,35.106 181.128,35.554 C180.946,35.778 180.498,36.38 180.372,37.136 L179.728,41 Z M189.696,41.168 C188.282,41.168 187.204,40.706 186.63,39.88 L187.582,39.04 C188.086,39.684 188.814,40.02 189.808,40.02 C190.9,40.02 191.572,39.614 191.572,38.886 C191.572,38.326 191.18,38.158 190.662,38.074 L189.612,37.892 C188.548,37.696 187.554,37.29 187.554,35.974 C187.554,34.406 188.94,33.608 190.718,33.608 C191.992,33.608 192.972,34.014 193.504,34.672 L192.58,35.554 C192.3,35.162 191.67,34.756 190.634,34.756 C189.598,34.756 189.024,35.148 189.024,35.82 C189.024,36.394 189.444,36.534 189.962,36.632 L191.012,36.828 C192.048,37.024 193.056,37.374 193.056,38.69 C193.056,40.23 191.726,41.168 189.696,41.168 Z M-64.698,59 L-65.972,59 L-64.768,51.776 L-63.494,51.776 L-63.69,52.966 L-63.62,52.966 C-63.284,52.182 -62.822,51.608 -62.038,51.608 C-61.254,51.608 -60.862,52.154 -60.932,53.008 L-60.876,53.008 C-60.526,52.182 -59.994,51.608 -59.14,51.608 C-58.328,51.608 -57.894,52.098 -57.894,52.98 C-57.894,53.26 -57.936,53.708 -57.992,54.044 L-58.818,59 L-60.092,59 L-59.294,54.226 C-59.252,53.974 -59.21,53.624 -59.21,53.442 C-59.21,52.994 -59.406,52.756 -59.756,52.756 C-60.078,52.756 -60.344,52.938 -60.554,53.274 C-60.764,53.61 -60.946,54.03 -61.016,54.45 L-61.772,59 L-63.046,59 L-62.234,54.156 C-62.192,53.904 -62.164,53.666 -62.164,53.456 C-62.164,52.966 -62.332,52.756 -62.668,52.756 C-62.99,52.756 -63.256,52.924 -63.494,53.274 C-63.732,53.624 -63.858,54.03 -63.928,54.38 L-64.698,59 Z M-53.89,59.168 C-55.78,59.168 -56.83,57.936 -56.83,56.088 C-56.83,53.33 -55.164,51.608 -52.91,51.608 C-51.02,51.608 -49.97,52.84 -49.97,54.688 C-49.97,57.446 -51.636,59.168 -53.89,59.168 Z M-53.792,57.978 C-52.63,57.978 -51.902,57.208 -51.692,55.948 L-51.538,55.024 C-51.496,54.758 -51.468,54.534 -51.468,54.366 C-51.468,53.302 -52.07,52.798 -53.008,52.798 C-54.17,52.798 -54.898,53.568 -55.108,54.828 L-55.262,55.752 C-55.304,56.018 -55.332,56.242 -55.332,56.41 C-55.332,57.474 -54.73,57.978 -53.792,57.978 Z M-45.392,59 L-46.89,59 L-45.896,52.994 L-47.758,52.994 L-47.548,51.776 L-44.188,51.776 L-44.538,53.82 L-44.454,53.82 C-43.908,52.574 -43.138,51.776 -41.738,51.776 L-40.898,51.776 L-41.15,53.274 L-42.41,53.274 C-43.208,53.274 -43.684,53.484 -44.076,53.96 C-44.258,54.184 -44.678,54.716 -44.79,55.388 L-45.392,59 Z M-36.894,59.168 C-38.854,59.168 -39.876,58.09 -39.876,56.074 C-39.876,53.428 -38.21,51.608 -35.788,51.608 C-34.346,51.608 -33.24,52.28 -33.24,53.568 C-33.24,54.646 -33.94,55.906 -38.35,56.046 C-38.364,56.172 -38.364,56.284 -38.364,56.326 C-38.364,57.236 -38.014,57.964 -36.726,57.964 C-35.788,57.964 -35.256,57.586 -34.472,56.522 L-33.492,57.152 C-34.276,58.37 -35.242,59.168 -36.894,59.168 Z M-35.928,52.742 C-37.146,52.742 -37.972,53.47 -38.21,54.954 L-38.238,55.108 C-35.102,54.982 -34.724,54.268 -34.724,53.666 C-34.724,53.134 -35.06,52.742 -35.928,52.742 Z M-20.43,59.168 C-21.326,59.168 -21.774,58.65 -21.774,57.81 C-21.774,57.642 -21.732,57.39 -21.69,57.138 L-21.004,52.994 L-22.992,52.994 L-22.796,51.776 L-21.452,51.776 C-20.92,51.776 -20.682,51.594 -20.584,51.048 L-20.276,49.228 L-18.876,49.228 L-19.296,51.776 L-16.384,51.776 L-16.58,52.994 L-19.506,52.994 L-20.304,57.782 L-20.024,57.922 L-17.28,55.976 L-16.538,56.872 L-17.812,57.824 C-19.072,58.79 -19.674,59.168 -20.43,59.168 Z M-14.97,59 L-13.248,48.64 L-11.75,48.64 L-12.562,53.484 L-12.492,53.484 C-11.96,52.336 -11.274,51.608 -10.112,51.608 C-8.824,51.608 -8.152,52.462 -8.152,53.694 C-8.152,54.03 -8.18,54.366 -8.264,54.856 L-8.95,59 L-10.448,59 L-9.748,54.8 C-9.706,54.548 -9.664,54.226 -9.664,53.988 C-9.664,53.33 -9.972,52.826 -10.714,52.826 C-11.274,52.826 -11.708,53.106 -12.072,53.554 C-12.254,53.778 -12.702,54.38 -12.828,55.136 L-13.472,59 L-14.97,59 Z M-0.564,59 L-2.062,59 L-1.782,57.292 L-1.838,57.292 C-2.384,58.412 -3.07,59.168 -4.33,59.168 C-5.814,59.168 -6.528,58.146 -6.528,56.368 C-6.528,54.044 -5.464,51.608 -3.14,51.608 C-2.048,51.608 -1.404,52.126 -1.138,53.078 L-1.068,53.078 L-0.858,51.776 L0.64,51.776 L-0.564,59 Z M-3.728,57.95 C-3.168,57.95 -2.678,57.698 -2.244,57.194 C-1.936,56.844 -1.614,56.312 -1.502,55.64 L-1.264,54.198 C-1.124,53.358 -1.67,52.826 -2.678,52.826 C-3.924,52.826 -4.596,53.666 -4.792,54.842 L-4.96,55.836 C-4.988,56.004 -5.016,56.228 -5.016,56.438 C-5.016,57.348 -4.61,57.95 -3.728,57.95 Z M3.328,59 L1.83,59 L3.034,51.776 L4.532,51.776 L4.238,53.484 L4.308,53.484 C4.84,52.336 5.526,51.608 6.688,51.608 C7.976,51.608 8.648,52.462 8.648,53.694 C8.648,54.03 8.62,54.366 8.536,54.856 L7.85,59 L6.352,59 L7.052,54.8 C7.094,54.548 7.136,54.226 7.136,53.988 C7.136,53.33 6.828,52.826 6.086,52.826 C5.526,52.826 5.092,53.106 4.728,53.554 C4.546,53.778 4.098,54.38 3.972,55.136 L3.328,59 Z M21.71,59.168 C19.82,59.168 18.77,57.936 18.77,56.088 C18.77,53.33 20.436,51.608 22.69,51.608 C24.58,51.608 25.63,52.84 25.63,54.688 C25.63,57.446 23.964,59.168 21.71,59.168 Z M21.808,57.978 C22.97,57.978 23.698,57.208 23.908,55.948 L24.062,55.024 C24.104,54.758 24.132,54.534 24.132,54.366 C24.132,53.302 23.53,52.798 22.592,52.798 C21.43,52.798 20.702,53.568 20.492,54.828 L20.338,55.752 C20.296,56.018 20.268,56.242 20.268,56.41 C20.268,57.474 20.87,57.978 21.808,57.978 Z M28.528,59 L27.03,59 L28.234,51.776 L29.732,51.776 L29.438,53.484 L29.508,53.484 C30.04,52.336 30.726,51.608 31.888,51.608 C33.176,51.608 33.848,52.462 33.848,53.694 C33.848,54.03 33.82,54.366 33.736,54.856 L33.05,59 L31.552,59 L32.252,54.8 C32.294,54.548 32.336,54.226 32.336,53.988 C32.336,53.33 32.028,52.826 31.286,52.826 C30.726,52.826 30.292,53.106 29.928,53.554 C29.746,53.778 29.298,54.38 29.172,55.136 L28.528,59 Z M38.706,59.168 C36.746,59.168 35.724,58.09 35.724,56.074 C35.724,53.428 37.39,51.608 39.812,51.608 C41.254,51.608 42.36,52.28 42.36,53.568 C42.36,54.646 41.66,55.906 37.25,56.046 C37.236,56.172 37.236,56.284 37.236,56.326 C37.236,57.236 37.586,57.964 38.874,57.964 C39.812,57.964 40.344,57.586 41.128,56.522 L42.108,57.152 C41.324,58.37 40.358,59.168 38.706,59.168 Z M39.672,52.742 C38.454,52.742 37.628,53.47 37.39,54.954 L37.362,55.108 C40.498,54.982 40.876,54.268 40.876,53.666 C40.876,53.134 40.54,52.742 39.672,52.742 Z M55.31,59.168 C53.42,59.168 52.37,57.936 52.37,56.088 C52.37,53.33 54.036,51.608 56.29,51.608 C58.18,51.608 59.23,52.84 59.23,54.688 C59.23,57.446 57.564,59.168 55.31,59.168 Z M55.408,57.978 C56.57,57.978 57.298,57.208 57.508,55.948 L57.662,55.024 C57.704,54.758 57.732,54.534 57.732,54.366 C57.732,53.302 57.13,52.798 56.192,52.798 C55.03,52.798 54.302,53.568 54.092,54.828 L53.938,55.752 C53.896,56.018 53.868,56.242 53.868,56.41 C53.868,57.474 54.47,57.978 55.408,57.978 Z M60.098,61.8 L61.764,51.776 L63.262,51.776 L62.982,53.484 L63.038,53.484 C63.584,52.364 64.27,51.608 65.53,51.608 C67.014,51.608 67.728,52.63 67.728,54.408 C67.728,56.732 66.664,59.168 64.34,59.168 C63.248,59.168 62.604,58.65 62.338,57.698 L62.268,57.698 L61.596,61.8 L60.098,61.8 Z M63.878,57.95 C65.124,57.95 65.796,57.11 65.992,55.934 L66.16,54.94 C66.188,54.772 66.216,54.548 66.216,54.338 C66.216,53.428 65.81,52.826 64.928,52.826 C64.368,52.826 63.878,53.078 63.444,53.582 C63.136,53.932 62.814,54.464 62.702,55.136 L62.464,56.578 C62.324,57.418 62.87,57.95 63.878,57.95 Z M72.306,59.168 C70.346,59.168 69.324,58.09 69.324,56.074 C69.324,53.428 70.99,51.608 73.412,51.608 C74.854,51.608 75.96,52.28 75.96,53.568 C75.96,54.646 75.26,55.906 70.85,56.046 C70.836,56.172 70.836,56.284 70.836,56.326 C70.836,57.236 71.186,57.964 72.474,57.964 C73.412,57.964 73.944,57.586 74.728,56.522 L75.708,57.152 C74.924,58.37 73.958,59.168 72.306,59.168 Z M73.272,52.742 C72.054,52.742 71.228,53.47 70.99,54.954 L70.962,55.108 C74.098,54.982 74.476,54.268 74.476,53.666 C74.476,53.134 74.14,52.742 73.272,52.742 Z M80.608,59 L79.11,59 L80.104,52.994 L78.242,52.994 L78.452,51.776 L81.812,51.776 L81.462,53.82 L81.546,53.82 C82.092,52.574 82.862,51.776 84.262,51.776 L85.102,51.776 L84.85,53.274 L83.59,53.274 C82.792,53.274 82.316,53.484 81.924,53.96 C81.742,54.184 81.322,54.716 81.21,55.388 L80.608,59 Z M91.836,59 L90.338,59 L90.618,57.292 L90.562,57.292 C90.016,58.412 89.33,59.168 88.07,59.168 C86.586,59.168 85.872,58.146 85.872,56.368 C85.872,54.044 86.936,51.608 89.26,51.608 C90.352,51.608 90.996,52.126 91.262,53.078 L91.332,53.078 L91.542,51.776 L93.04,51.776 L91.836,59 Z M88.672,57.95 C89.232,57.95 89.722,57.698 90.156,57.194 C90.464,56.844 90.786,56.312 90.898,55.64 L91.136,54.198 C91.276,53.358 90.73,52.826 89.722,52.826 C88.476,52.826 87.804,53.666 87.608,54.842 L87.44,55.836 C87.412,56.004 87.384,56.228 87.384,56.438 C87.384,57.348 87.79,57.95 88.672,57.95 Z M97.17,59.168 C96.274,59.168 95.826,58.65 95.826,57.81 C95.826,57.642 95.868,57.39 95.91,57.138 L96.596,52.994 L94.608,52.994 L94.804,51.776 L96.148,51.776 C96.68,51.776 96.918,51.594 97.016,51.048 L97.324,49.228 L98.724,49.228 L98.304,51.776 L101.216,51.776 L101.02,52.994 L98.094,52.994 L97.296,57.782 L97.576,57.922 L100.32,55.976 L101.062,56.872 L99.788,57.824 C98.528,58.79 97.926,59.168 97.17,59.168 Z M106.76,50.446 C106.046,50.446 105.808,50.138 105.808,49.76 C105.808,49.648 105.836,49.494 105.864,49.326 C105.948,48.822 106.242,48.514 106.956,48.514 C107.67,48.514 107.908,48.822 107.908,49.2 C107.908,49.312 107.88,49.466 107.852,49.634 C107.768,50.138 107.474,50.446 106.76,50.446 Z M105.948,59.168 C105.066,59.168 104.604,58.65 104.604,57.908 C104.604,57.67 104.646,57.446 104.702,57.11 L105.5,52.994 L103.064,52.994 L103.26,51.776 L107.222,51.776 L106.046,57.838 L106.326,57.95 L108.748,55.724 L109.602,56.494 L108.51,57.586 C107.348,58.748 106.718,59.168 105.948,59.168 Z M114.11,59.168 C112.22,59.168 111.17,57.936 111.17,56.088 C111.17,53.33 112.836,51.608 115.09,51.608 C116.98,51.608 118.03,52.84 118.03,54.688 C118.03,57.446 116.364,59.168 114.11,59.168 Z M114.208,57.978 C115.37,57.978 116.098,57.208 116.308,55.948 L116.462,55.024 C116.504,54.758 116.532,54.534 116.532,54.366 C116.532,53.302 115.93,52.798 114.992,52.798 C113.83,52.798 113.102,53.568 112.892,54.828 L112.738,55.752 C112.696,56.018 112.668,56.242 112.668,56.41 C112.668,57.474 113.27,57.978 114.208,57.978 Z M120.928,59 L119.43,59 L120.634,51.776 L122.132,51.776 L121.838,53.484 L121.908,53.484 C122.44,52.336 123.126,51.608 124.288,51.608 C125.576,51.608 126.248,52.462 126.248,53.694 C126.248,54.03 126.22,54.366 126.136,54.856 L125.45,59 L123.952,59 L124.652,54.8 C124.694,54.548 124.736,54.226 124.736,53.988 C124.736,53.33 124.428,52.826 123.686,52.826 C123.126,52.826 122.692,53.106 122.328,53.554 C122.146,53.778 121.698,54.38 121.572,55.136 L120.928,59 Z M130.798,59.14 C130.014,59.14 129.72,58.804 129.72,58.384 C129.72,58.244 129.748,58.076 129.79,57.824 C129.888,57.236 130.322,56.872 131.106,56.872 C131.89,56.872 132.184,57.208 132.184,57.628 C132.184,57.768 132.156,57.936 132.114,58.188 C132.016,58.776 131.582,59.14 130.798,59.14 Z" id="There-are-several-ty" fill="#0000FF" mask="url(#mask-4)"></path>
                </g>
            </g>
        </g>
    </g>
</svg>