<?xml version="1.0" encoding="UTF-8"?>
<svg width="401px" height="350px" viewBox="0 0 401 350" version="1.1" xmlns="http://www.w3.org/2000/svg" xmlns:xlink="http://www.w3.org/1999/xlink">
    <!-- Generator: Sketch 50.2 (55047) - http://www.bohemiancoding.com/sketch -->
    <title>doctor</title>
    <desc>Created with Sketch.</desc>
    <defs>
        <path d="M0.431533973,17.9558013 C7.24392083,63.0643113 14.3916971,85.6185663 21.8748628,85.6185663 C29.3580284,85.6185663 47.8599683,57.2749174 77.3806825,0.587619558 L0.431533973,17.9558013 Z" id="path-1"></path>
    </defs>
    <g id="Page-1" stroke="none" stroke-width="1" fill="none" fill-rule="evenodd">
        <g id="illustrations" transform="translate(-1729.000000, -192.000000)">
            <g id="doctor" transform="translate(1729.000000, 175.000000)">
                <rect id="Rectangle-37" stroke="#000000" stroke-width="2" fill="#C2ECE3" x="1" y="39.4615385" width="378.769231" height="326.538462"></rect>
                <path d="M117.516442,179.037487 C106.436482,213.002704 76.7921177,251.372089 28.6000327,294.192308 L84.8532701,294.192308 C94.3466161,291.516553 107.743673,282.418291 124.961523,266.902961 C124.959597,240.147485 124.781825,228.891939 123.897367,215.954907 C122.843113,200.53425 120.837637,188.483539 117.516442,179.037487 Z" id="Path-133" stroke="#000000" stroke-width="2" fill="#FFFFFF"></path>
                <rect id="Rectangle-38" stroke="#000000" stroke-width="2" fill="#CCCCCC" x="1" y="287" width="378.769231" height="79"></rect>
                <path d="M190.313927,322.027471 C282.674003,319.014357 391.586269,322.098724 399.481399,281.377054 C406.253755,246.446455 344.827014,123.319114 324.273765,111.692351 C243.572701,66.0405849 142.712943,99.1212184 125.256139,134.692509 C113.618269,158.406702 114.760256,209.160433 128.682099,286.953702 L282.398129,286.953702 C252.045617,293.488033 221.319765,299.67402 190.220572,305.511663 L190.313927,322.027471 Z" id="Path-134" fill="#FFFFFF"></path>
                <path d="M290.933547,182.692308 C327.735152,228.700253 340.928453,257.718631 330.513451,269.74744 C323.061309,278.354295 276.297016,290.275702 190.220572,305.511663" id="Path-134" stroke="#000000" stroke-width="2" stroke-linecap="round" stroke-linejoin="round"></path>
                <path d="M137.285422,349.971538 C131.437321,341.173787 141.795406,313.526799 146.041151,305.141194 C153.189212,291.02334 158.819747,284.700022 161.805601,283.9064 C167.099193,282.499394 152.01086,303.541926 152.491745,307.526449 C158.070756,297.94328 164.822122,283.881214 171.030482,282.253545 C177.238842,280.625876 159.311439,299.263066 157.19896,313.657664 C160.714394,303.845108 178.375791,279.905676 179.706427,285.461674 C181.037063,291.017671 160.774641,313.152043 161.461587,328.777844 C160.991409,335.33427 164.735644,327.732345 169.962509,319.235461 C175.189374,310.738576 173.42216,337.127713 156.1949,351.088905 C146.579652,358.881225 139.975986,354.019161 137.285422,349.971538 Z" id="Path-4-Copy-3" fill="#0000FF" transform="translate(157.653846, 318.692308) scale(-1, 1) rotate(75.000000) translate(-157.653846, -318.692308) "></path>
                <path d="M191.812574,321.787974 C284.17265,318.77486 391.586269,322.098724 399.481399,281.377054 C406.253755,246.446455 344.827014,123.319114 324.273765,111.692351 C243.572701,66.0405849 142.712943,99.1212184 125.256139,134.692509 C113.618269,158.406702 114.760256,209.160433 128.682099,286.953702 L282.215006,286.953702 L283.057951,286.831702 C267.815154,290.528545 236.869361,296.755198 190.220572,305.511663" id="Path-134" stroke="#000000" stroke-width="2" stroke-linecap="round" stroke-linejoin="round"></path>
                <path d="M175.961538,185.587736 C206.770086,161.703145 234.184187,90.8306981 237.675104,89.892284 C240.002383,89.2666746 243.469656,89.2666746 248.076923,89.892284 C247.952177,104.289152 242.160799,118.612787 230.702789,132.863187 C225.707788,139.075502 231.519523,136.954566 234.856856,148.654359 C231.088541,157.819428 211.456768,170.130553 175.961538,185.587736 C176.799106,218.323863 179.209192,252.00581 183.191798,286.633577" id="Path-139" stroke="#000000" stroke-width="2" fill="#FFFFFF" stroke-linecap="round" stroke-linejoin="round"></path>
                <path d="M162.096059,105.996074 L160.919843,106.210814 C168.392131,152.033041 175.872452,175.242067 183.360804,175.837892 C183.821201,176.995906 184.239394,177.974161 184.615385,178.772658 C181.192654,188.458041 154.970388,160.855233 151.923077,140.050218 C156.803534,135.492761 156.803534,136.654439 160.095992,132.812767 C156.706322,127.958811 155.733997,119.580193 157.179019,107.676912 L161.76457,104.807692 C161.87543,105.205369 161.985927,105.601499 162.09606,105.99608 L162.096059,105.996074 Z" id="Combined-Shape" stroke="#000000" stroke-width="2" fill="#FFFFFF"></path>
                <path d="M160.576923,107.434189 C168.600404,152.478063 176.386913,175 183.936447,175 C191.485982,175 210.302038,146.153846 240.384615,88.4615385 L160.576923,107.434189 Z" id="Path-137" fill="#D8D8D8"></path>
                <g id="Group-7" transform="translate(161.538462, 89.423077)">
                    <mask id="mask-2" fill="white">
                        <use xlink:href="#path-1"></use>
                    </mask>
                    <path stroke="#000000" stroke-width="2" d="M-0.696186099,17.1851828 L79.2633067,-0.862463356 L78.2676217,1.04950573 C48.3644439,58.4712312 29.9906522,86.6185663 21.8748628,86.6185663 C13.5354281,86.6185663 6.37991803,64.039908 -0.557253609,18.1051302 L-0.696186099,17.1851828 Z"></path>
                    <path d="M16.8607844,24.1555923 C16.2247613,37.1405429 16.9027762,45.4270852 18.894829,49.0152191 C17.0424865,60.794361 14.3893655,76.2843535 10.935466,95.4851964 L30.5801431,95.4851964 C29.5898579,70.4862167 28.7030898,55.4764567 27.9198389,50.4559162 C30.8240668,46.399606 33.7009888,37.6328314 36.5506048,24.1555923 L16.8607844,24.1555923 Z" id="Path-2" fill="#000000" mask="url(#mask-2)"></path>
                    <path d="M5.33718802,54.9939808 C12.0387259,41.778967 18.5004997,33.364782 24.7225096,29.7514259 C30.7821022,33.4886869 43.0518747,49.7941165 54.0726878,54.9939808 C68.0094396,47.9053024 78.6419491,28.6281119 85.9702162,-2.83759066 L-7.10913796,9.83874946 L5.33718802,54.9939808 Z" id="Path-138" stroke="#000000" stroke-width="2" fill="#FFFFFF" mask="url(#mask-2)"></path>
                </g>
                <g id="Group-6" transform="translate(132.692308, 76.923077)">
                    <ellipse id="Oval-12" fill="#000000" transform="translate(14.147956, 123.626363) rotate(20.000000) translate(-14.147956, -123.626363) " cx="14.1479557" cy="123.626363" rx="7.96370595" ry="12.8846176"></ellipse>
                    <ellipse id="Oval-12" fill="#CCCCCC" transform="translate(12.632114, 122.073109) rotate(20.000000) translate(-12.632114, -122.073109) " cx="12.6321137" cy="122.073109" rx="7.96370595" ry="12.8846176"></ellipse>
                    <path d="M73.7680441,154.809058 C68.4152329,151.25414 70.7111233,122.826559 78.3293783,97.2304128 C85.4095679,73.442082 97.0868514,52.0993499 111.493814,55.4410565 C126.079426,58.8242008 123.520846,84.1121913 115.496609,108.701701 C107.066599,134.534666 92.6041749,159.596722 85.6506728,157.679167" id="Path-136" stroke="#CCCCCC" stroke-width="5" stroke-linecap="round"></path>
                    <path d="M79.9705199,92.158551 C89.0270929,68.9155824 97.8644698,52.2085165 111.493814,55.4410565 C125.123159,58.6735966 123.817224,79.4932995 117.06523,103.748317" id="Path-136" stroke="#000000" stroke-width="10" stroke-linecap="round"></path>
                    <path d="M11.4589176,119.070931 C16.2200558,39.6903102 37.8171751,-3.1189826e-14 76.2502754,0 C114.683376,3.08111415e-14 126.892631,17.6217815 112.878042,52.8653446" id="Path-135" stroke="#000000" stroke-width="10" stroke-linecap="round" stroke-linejoin="round"></path>
                    <rect id="Rectangle-39" fill="#CCCCCC" transform="translate(75.569681, 155.563389) rotate(10.000000) translate(-75.569681, -155.563389) " x="71.0802453" y="152.18988" width="8.97887204" height="6.74701804" rx="3.37350902"></rect>
                    <rect id="Rectangle-39-Copy" fill="#CCCCCC" transform="translate(83.500673, 156.185744) rotate(20.000000) translate(-83.500673, -156.185744) " x="79.011237" y="152.812235" width="8.97887204" height="6.74701804" rx="3.37350902"></rect>
                </g>
                <path d="M164.24553,109.12313 C155.332717,89.2928775 147.604522,29.8706607 182.901665,18.61684 C218.198808,7.36301929 244.398409,71.7971802 238.622966,92.0963511 C234.473913,106.679188 204.198624,120.035665 182.901665,119.192908 C174.553458,118.862556 166.5208,114.185412 164.24553,109.12313 Z" id="Path-130" fill="#0000FF"></path>
            </g>
        </g>
    </g>
</svg>