<svg height="667" viewBox="0 0 375 667" width="375" xmlns="http://www.w3.org/2000/svg"><g fill="none" fill-rule="evenodd"><path d="m0 0h375v667h-375z" fill="#fdd13a"/><path d="m0 0h375v667h-375z" fill="#252525" fill-opacity=".6"/><path d="m16 10h343c8.836556 0 16 7.163444 16 16v641h-375v-641c0-8.836556 7.163444-16 16-16z" fill="#fdd13a"/><path d="m357 341.23881c0 1.390338-1.119288 2.5-2.5 2.5-1.390338 0-2.5-1.119288-2.5-2.5 0-1.390338 1.119288-2.5 2.5-2.5 1.390338 0 2.5 1.119288 2.5 2.5zm-96.804397-12.803701v23.809743c0 1.441153-1.170813 2.615558-2.615084 2.615558-1.441332 0-2.615084-1.171026-2.615084-2.615558v-23.809743c0-1.441153 1.170813-2.615558 2.615084-2.615558 1.441332 0 2.615084 1.171025 2.615084 2.615558zm86.252947 13.193973v.061875c0 1.437303-1.170813 2.609141-2.615084 2.609141-1.441333 0-2.615084-1.168152-2.615084-2.609141v-.061875c0-1.437303 1.170813-2.609141 2.615084-2.609141 1.441332 0 2.615084 1.168152 2.615084 2.609141zm-172.505893-18.467631v35.677098c0 1.441495-1.170813 2.622056-2.615084 2.622056-1.441333 0-2.615085-1.173935-2.615085-2.622056v-35.677098c0-1.441495 1.170813-2.622056 2.615085-2.622056 1.441332 0 2.615084 1.173935 2.615084 2.622056zm140.161038 13.194066v10.609005c0 1.450944-1.170813 2.615732-2.615084 2.615732-1.441332 0-2.615084-1.171103-2.615084-2.615732v-10.609005c0-1.450944 1.170813-2.615732 2.615084-2.615732 1.441332 0 2.615084 1.171103 2.615084 2.615732zm21.563237 5.273565v.061875c0 1.437303-1.170814 2.609141-2.615085 2.609141-1.441332 0-2.615084-1.168152-2.615084-2.609141v-.061875c0-1.437303 1.170813-2.609141 2.615084-2.609141 1.441333 0 2.615085 1.168152 2.615085 2.609141zm-43.126474-13.193973v23.809743c0 1.441153-1.170813 2.615558-2.615084 2.615558-1.441332 0-2.615084-1.171026-2.615084-2.615558v-23.809743c0-1.441153 1.170813-2.615558 2.615084-2.615558 1.441332 0 2.615084 1.171025 2.615084 2.615558zm-194.0691297 0v23.809743c0 1.441153-1.170813 2.615558-2.6150841 2.615558-1.4413322 0-2.6150841-1.171026-2.6150841-2.615558v-23.809743c0-1.441153 1.170813-2.615558 2.6150841-2.615558 1.4413323 0 2.6150841 1.171025 2.6150841 2.615558zm226.4139847 13.193973v.061875c0 1.437303-1.170813 2.609141-2.615084 2.609141-1.441332 0-2.615084-1.168152-2.615084-2.609141v-.061875c0-1.437303 1.170813-2.609141 2.615084-2.609141 1.441332 0 2.615084 1.168152 2.615084 2.609141zm-53.908091-1.313848v2.689571c0 1.446674-1.170813 2.615332-2.615085 2.615332-1.441332 0-2.615084-1.170924-2.615084-2.615332v-2.689571c0-1.446674 1.170813-2.615332 2.615084-2.615332 1.441333 0 2.615085 1.170924 2.615085 2.615332zm-183.287512-3.959717v10.609005c0 1.450944-1.1708131 2.615732-2.6150841 2.615732-1.4413323 0-2.6150841-1.171103-2.6150841-2.615732v-10.609005c0-1.450944 1.170813-2.615732 2.6150841-2.615732 1.4413322 0 2.6150841 1.171103 2.6150841 2.615732zm194.06913 5.273565v.061875c0 1.437303-1.170813 2.609141-2.615084 2.609141-1.441332 0-2.615084-1.168152-2.615084-2.609141v-.061875c0-1.437303 1.170813-2.609141 2.615084-2.609141 1.441332 0 2.615084 1.168152 2.615084 2.609141zm-64.68971-6.603024v11.947884c0 1.4268-1.170813 2.606312-2.615084 2.606312-1.441332 0-2.615084-1.166886-2.615084-2.606312v-11.947884c0-1.4268 1.170813-2.606312 2.615084-2.606312 1.441332 0 2.615084 1.166886 2.615084 2.606312zm-107.816183-6.590949v23.809743c0 1.441153-1.170813 2.615558-2.615084 2.615558-1.441333 0-2.615085-1.171026-2.615085-2.615558v-23.809743c0-1.441153 1.170813-2.615558 2.615085-2.615558 1.441332 0 2.615084 1.171025 2.615084 2.615558zm118.597801 11.880125v2.689571c0 1.446674-1.170813 2.615332-2.615084 2.615332-1.441332 0-2.615084-1.170924-2.615084-2.615332v-2.689571c0-1.446674 1.170813-2.615332 2.615084-2.615332 1.441332 0 2.615084 1.170924 2.615084 2.615332zm-32.344855-11.880125v23.809743c0 1.441153-1.170813 2.615558-2.615084 2.615558-1.441332 0-2.615084-1.171026-2.615084-2.615558v-23.809743c0-1.441153 1.170813-2.615558 2.615084-2.615558 1.441332 0 2.615084 1.171025 2.615084 2.615558zm-75.471328-5.074243v35.677097c0 1.441496-1.170813 2.622057-2.615084 2.622057-1.441332 0-2.615084-1.173935-2.615084-2.622057v-35.677097c0-1.441496 1.170813-2.622056 2.615084-2.622056 1.441332 0 2.615084 1.173934 2.615084 2.622056zm64.68971 0v35.677097c0 1.441496-1.170813 2.622057-2.615084 2.622057-1.441332 0-2.615084-1.173935-2.615084-2.622057v-35.677097c0-1.441496 1.170813-2.622056 2.615084-2.622056 1.441332 0 2.615084 1.173934 2.615084 2.622056zm64.68971 12.994651v10.609005c0 1.450944-1.170813 2.615732-2.615084 2.615732-1.441332 0-2.615084-1.171103-2.615084-2.615732v-10.609005c0-1.450944 1.170813-2.615732 2.615084-2.615732 1.441332 0 2.615084 1.171103 2.615084 2.615732zm-43.126473-9.001149v23.809742c0 1.441154-1.170813 2.615558-2.615085 2.615558-1.441332 0-2.615084-1.171025-2.615084-2.615558v-23.809742c0-1.441154 1.170813-2.615558 2.615084-2.615558 1.441333 0 2.615085 1.171025 2.615085 2.615558zm-43.126474 1.080741v23.809743c0 1.441153-1.170813 2.615558-2.615084 2.615558-1.441332 0-2.615084-1.171026-2.615084-2.615558v-23.809743c0-1.441153 1.170813-2.615558 2.615084-2.615558 1.441332 0 2.615084 1.171025 2.615084 2.615558zm75.471329 11.880125v2.689571c0 1.446674-1.170813 2.615332-2.615085 2.615332-1.441332 0-2.615084-1.170924-2.615084-2.615332v-2.689571c0-1.446674 1.170813-2.615332 2.615084-2.615332 1.441333 0 2.615085 1.170924 2.615085 2.615332zm64.68971-12.960866v23.809742c0 1.441154-1.170813 2.615558-2.615085 2.615558-1.441332 0-2.615084-1.171025-2.615084-2.615558v-23.809742c0-1.441154 1.170813-2.615558 2.615084-2.615558 1.441333 0 2.615085 1.171025 2.615085 2.615558zm-150.942657 7.67169v11.947884c0 1.4268-1.170813 2.606312-2.615084 2.606312-1.441332 0-2.615084-1.166886-2.615084-2.606312v-11.947884c0-1.4268 1.170813-2.606312 2.615084-2.606312 1.441332 0 2.615084 1.166886 2.615084 2.606312zm-10.781618 5.289176v2.689571c0 1.446674-1.170813 2.615332-2.615084 2.615332-1.441333 0-2.615085-1.170924-2.615085-2.615332v-2.689571c0-1.446674 1.170813-2.615332 2.615085-2.615332 1.441332 0 2.615084 1.170924 2.615084 2.615332zm-10.781619-29.954509v58.118042c0 1.454351-1.170813 2.621916-2.615084 2.621916-1.441332 0-2.615084-1.173872-2.615084-2.621916v-58.118042c0-1.45435 1.170813-2.621915 2.615084-2.621915 1.441332 0 2.615084 1.173871 2.615084 2.621915zm-75.471328 31.268357v.061875c0 1.437303-1.170813 2.609141-2.6150841 2.609141-1.4413323 0-2.6150841-1.168152-2.6150841-2.609141v-.061875c0-1.437303 1.170813-2.609141 2.6150841-2.609141 1.4413323 0 2.6150841 1.168152 2.6150841 2.609141zm-10.7816183 0v.061875c0 1.437303-1.1708131 2.609141-2.6150841 2.609141-1.4413323 0-2.6150841-1.168152-2.6150841-2.609141v-.061875c0-1.437303 1.170813-2.609141 2.6150841-2.609141 1.4413322 0 2.6150841 1.168152 2.6150841 2.609141zm32.3448549 0v.061875c0 1.437303-1.170813 2.609141-2.615084 2.609141-1.4413323 0-2.6150841-1.168152-2.6150841-2.609141v-.061875c0-1.437303 1.170813-2.609141 2.6150841-2.609141 1.4413322 0 2.615084 1.168152 2.615084 2.609141zm-43.1264733 0v.061875c0 1.437303-1.170813 2.609141-2.6150841 2.609141-1.4413322 0-2.615084-1.168152-2.615084-2.609141v-.061875c0-1.437303 1.170813-2.609141 2.615084-2.609141 1.4413323 0 2.6150841 1.168152 2.6150841 2.609141zm32.344855 0v.061875c0 1.437303-1.170813 2.609141-2.6150841 2.609141-1.4413322 0-2.6150841-1.168152-2.6150841-2.609141v-.061875c0-1.437303 1.1708131-2.609141 2.6150841-2.609141 1.4413323 0 2.6150841 1.168152 2.6150841 2.609141zm-43.1264733-.390272c0 1.390338-1.1192881 2.5-2.5 2.5-1.3903379 0-2.5-1.119288-2.5-2.5 0-1.390338 1.1192881-2.5 2.5-2.5 1.3903379 0 2.5 1.119288 2.5 2.5z" fill="#252525"/><circle cx="188" cy="593" fill="#f3f3f3" r="50"/><path d="m178.5 577.390244v31.219512" stroke="#0062ff" stroke-linecap="round" stroke-linejoin="round" stroke-width="10"/><path d="m197.5 577.390244v31.219512" stroke="#0062ff" stroke-linecap="round" stroke-linejoin="round" stroke-width="10"/><path d="m166.786143 423.216c-3.204 0-4.68-2.394-4.68-6.498s1.476-6.498 4.68-6.498 4.68 2.394 4.68 6.498-1.476 6.498-4.68 6.498zm0-1.998c1.602 0 2.16-1.296 2.16-3.366v-2.268c0-2.07-.558-3.366-2.16-3.366s-2.16 1.296-2.16 3.366v2.268c0 2.07.558 3.366 2.16 3.366zm11.657143 1.998c-3.204 0-4.68-2.394-4.68-6.498s1.476-6.498 4.68-6.498 4.68 2.394 4.68 6.498-1.476 6.498-4.68 6.498zm0-1.998c1.602 0 2.16-1.296 2.16-3.366v-2.268c0-2.07-.558-3.366-2.16-3.366s-2.16 1.296-2.16 3.366v2.268c0 2.07.558 3.366 2.16 3.366zm9.119143-4.824c-.972 0-1.44-.558-1.44-1.314v-.324c0-.774.468-1.332 1.44-1.332.99 0 1.44.558 1.44 1.332v.324c0 .756-.45 1.314-1.44 1.314zm0 6.804c-.972 0-1.44-.558-1.44-1.314v-.324c0-.774.468-1.332 1.44-1.332.99 0 1.44.558 1.44 1.332v.324c0 .756-.45 1.314-1.44 1.314zm9.137142.018c-3.204 0-4.68-2.394-4.68-6.498s1.476-6.498 4.68-6.498 4.68 2.394 4.68 6.498-1.476 6.498-4.68 6.498zm0-1.998c1.602 0 2.16-1.296 2.16-3.366v-2.268c0-2.07-.558-3.366-2.16-3.366s-2.16 1.296-2.16 3.366v2.268c0 2.07.558 3.366 2.16 3.366zm16.085143-.216v1.998h-8.712v-2.196l3.942-3.456c1.332-1.17 1.944-2.034 1.944-3.132v-.234c0-1.098-.828-1.71-1.854-1.71-1.296 0-1.908.846-2.196 1.872l-2.052-.792c.54-1.674 1.89-3.132 4.446-3.132 2.646 0 4.158 1.584 4.158 3.744 0 2.088-1.422 3.42-3.168 4.86l-2.646 2.178z" fill="#252525"/><circle cx="282" cy="615" fill="#da1e28" r="28"/><rect fill="#fff" height="20" rx="3" width="20" x="272" y="606"/><circle cx="94" cy="615" fill="#f3f3f3" r="28"/><path d="m94.4285714 612.142857c-2.3664285 0-4.2857143 1.919286-4.2857143 4.285714 0 2.366429 1.9192858 4.285715 4.2857143 4.285715 2.3664286 0 4.2857143-1.919286 4.2857143-4.285715 0-2.366428-1.9192857-4.285714-4.2857143-4.285714zm0 10c-3.1557143 0-5.7142857-2.558571-5.7142857-5.714286 0-3.155714 2.5585714-5.714285 5.7142857-5.714285s5.7142856 2.558571 5.7142856 5.714285c0 3.155715-2.5585713 5.714286-5.7142856 5.714286zm8.5714286-14.285714h-2.142857l-.714286-1.428572c-.4207141-.830714-.6399999-1.428571-1.4285713-1.428571h-8.5714286c-.7885714 0-1.05.681429-1.4285714 1.428571l-.7142857 1.428572h-2.1428571c-1.5778572 0-2.8571429 1.279286-2.8571429 2.857143v11.428571c0 1.577857 1.2792857 2.857143 2.8571429 2.857143h17.1428571c1.577857 0 2.857143-1.279286 2.857143-2.857143v-11.428571c0-1.577857-1.279286-2.857143-2.857143-2.857143z" fill="#565656"/><path d="m33.392 128-6.112-10.56-2.144-4.48h-.096v15.04h-4.576v-22.336h5.312l6.112 10.56 2.144 4.48h.096v-15.04h4.576v22.336zm17.8491429.384c-5.152 0-8.064-3.424-8.064-8.8 0-5.312 2.816-8.768 7.872-8.768 5.568 0 7.808 4.032 7.808 8.576v1.408h-10.784v.256c0 2.208 1.184 3.616 3.712 3.616 1.984 0 3.072-.928 4.128-2.016l2.368 2.944c-1.504 1.728-3.968 2.784-7.04 2.784zm-.096-14.08c-1.888 0-3.072 1.376-3.072 3.456v.256h5.888v-.288c0-2.048-.928-3.424-2.816-3.424zm14.8731429 13.696-4.704-16.8h4.576l1.632 6.784 1.152 5.12h.128l1.344-5.12 1.92-6.784h4.32l1.952 6.784 1.376 5.12h.128l1.152-5.12 1.632-6.784h4.384l-4.64 16.8h-4.96l-2.048-7.104-1.184-4.352h-.096l-1.152 4.352-2.048 7.104zm38.1942862-8.192v8.192h-4.8640004v-22.336h10.5920004c4.128 0 6.752 2.88 6.752 7.136 0 3.008-1.344 5.408-4.064 6.432l4.384 8.768h-5.408l-3.904-8.192zm0-4.096h5.12c1.44 0 2.336-.768 2.336-2.208v-1.408c0-1.44-.896-2.208-2.336-2.208h-5.12zm23.833143 12.672c-5.152 0-8.064-3.424-8.064-8.8 0-5.312 2.816-8.768 7.872-8.768 5.568 0 7.808 4.032 7.808 8.576v1.408h-10.784v.256c0 2.208 1.184 3.616 3.712 3.616 1.983999 0 3.072-.928 4.127999-2.016l2.368 2.944c-1.503999 1.728-3.967999 2.784-7.039999 2.784zm-.096-14.08c-1.888 0-3.072 1.376-3.072 3.456v.256h5.888v-.288c0-2.048-.928-3.424-2.816-3.424zm18.713142 14.08c-5.056 0-7.84-3.424-7.84-8.8s2.784-8.768 7.84-8.768c3.392 0 5.728 1.632 6.72 4.384l-3.84 1.664c-.288-1.28-1.216-2.304-2.88-2.304-1.92 0-2.912 1.376-2.912 3.488v3.136c0 2.112.992 3.488 2.912 3.488 1.888 0 2.656-1.184 3.136-2.528l3.68 1.6c-1.12 3.2-3.52 4.64-6.816 4.64zm17.273143 0c-4.928 0-7.872-3.392-7.872-8.8s2.944-8.768 7.872-8.768 7.872 3.36 7.872 8.768-2.944 8.8-7.872 8.8zm0-3.744c1.856 0 2.944-1.216 2.944-3.328v-3.424c0-2.112-1.088-3.328-2.944-3.328s-2.944 1.216-2.944 3.328v3.424c0 2.112 1.088 3.328 2.944 3.328zm16.825143 3.36h-4.736v-16.8h4.736v3.648h.16c.384-1.856 1.664-3.648 4.288-3.648h.832v4.416h-1.184c-2.752 0-4.096.608-4.096 2.56zm19.225143 0v-2.816h-.16c-.48 1.824-2.336 3.2-4.512 3.2-4.256 0-6.464-3.104-6.464-8.8s2.208-8.768 6.464-8.768c2.176 0 4.032 1.344 4.512 3.2h.16v-9.696h4.736v23.68zm-3.104-3.456c1.792 0 3.104-.928 3.104-2.464v-4.96c0-1.536-1.312-2.464-3.104-2.464s-3.104 1.376-3.104 3.488v2.912c0 2.112 1.312 3.488 3.104 3.488zm15.481143-15.136c-1.92 0-2.752-.992-2.752-2.336v-.704c0-1.344.832-2.336 2.752-2.336s2.752.992 2.752 2.336v.704c0 1.344-.832 2.336-2.752 2.336zm-2.368 18.592v-16.8h4.736v16.8zm14.745143 0h-4.736v-16.8h4.736v2.848h.192c.608-1.76 2.016-3.232 4.672-3.232 3.424 0 5.248 2.432 5.248 6.656v10.528h-4.736v-10.144c0-2.144-.608-3.2-2.336-3.2-1.536 0-3.04.8-3.04 2.464zm30.745143 1.216c0 3.552-2.24 5.568-9.088 5.568-5.824 0-7.968-1.472-7.968-3.904 0-1.856 1.184-2.944 3.136-3.2v-.352c-1.6-.288-2.432-1.504-2.432-2.944 0-1.76 1.568-2.656 3.136-2.976v-.128c-2.016-.928-3.008-2.624-3.008-4.8 0-3.392 2.368-5.664 7.2-5.664 1.056 0 2.016.096 2.848.32v-.64c0-1.76.928-2.528 2.528-2.528h2.656v3.52h-3.712v.192c1.952.928 2.88 2.656 2.88 4.8 0 3.36-2.336 5.568-7.2 5.568-1.12 0-2.112-.128-2.976-.352-.448.288-.736.768-.736 1.344 0 .8.576 1.28 2.016 1.28h4.864c4.096 0 5.856 1.792 5.856 4.896zm-4.448.64c0-.96-.704-1.504-2.592-1.504h-5.76c-.416.416-.608.992-.608 1.504 0 1.216.96 1.792 3.52 1.792h1.92c2.56 0 3.52-.576 3.52-1.792zm-4.576-10.912c1.856 0 2.784-.832 2.784-2.304v-.384c0-1.472-.928-2.304-2.784-2.304s-2.784.832-2.784 2.304v.384c0 1.472.928 2.304 2.784 2.304z" fill="#785d03"/><path d="m190 24-5 5 5 5" stroke="#785d03" stroke-linecap="round" stroke-linejoin="round" stroke-width="2" transform="matrix(0 1 -1 0 216.5 -158.5)"/><path d="m137.871 55h-2.1l-3.192-9.772h1.89l1.498 4.76.868 3.248h.042l.854-3.248 1.498-4.76h1.834zm6.014666-8.372c-.742 0-1.05-.378-1.05-.896v-.28c0-.518.308-.896 1.05-.896.728 0 1.05.378 1.05.896v.28c0 .518-.322.896-1.05.896zm-.896 8.372v-7.308h1.792v7.308zm7.484667.168c-2.156 0-3.444-1.498-3.444-3.836 0-2.31 1.246-3.808 3.388-3.808 2.282 0 3.332 1.68 3.332 3.682v.588h-4.858v.182c0 1.05.602 1.764 1.778 1.764.882 0 1.414-.42 1.862-.994l.966 1.078c-.602.826-1.666 1.344-3.024 1.344zm-.028-6.3c-.938 0-1.554.7-1.554 1.708v.112h2.996v-.126c0-1.008-.518-1.694-1.442-1.694zm6.784667 6.132-2.016-7.308h1.722l.742 3.01.574 2.506h.056l.672-2.506.854-3.01h1.624l.882 3.01.686 2.506h.056l.574-2.506.728-3.01h1.666l-2.002 7.308h-1.932l-.938-3.22-.546-1.988h-.042l-.532 1.988-.924 3.22zm21.521333-8.134h-2.772v8.134h-1.848v-8.134h-2.772v-1.638h7.392zm3.228667 8.134h-1.792v-7.308h1.792v1.512h.07c.182-.77.77-1.512 1.932-1.512h.392v1.694h-.56c-1.204 0-1.834.336-1.834 1.134zm6.028667.168c-1.484 0-2.324-.854-2.324-2.156 0-1.498 1.134-2.24 3.122-2.24h1.246v-.532c0-.812-.406-1.288-1.358-1.288-.84 0-1.316.42-1.666.924l-1.064-.952c.532-.84 1.386-1.4 2.856-1.4 1.974 0 3.024.938 3.024 2.604v3.444h.728v1.428h-.994c-.77 0-1.246-.504-1.358-1.26h-.084c-.238.938-1.036 1.428-2.128 1.428zm.602-1.302c.798 0 1.442-.364 1.442-1.05v-.966h-1.148c-.938 0-1.4.322-1.4.896v.238c0 .588.406.882 1.106.882zm7.876666 1.134h-1.792v-7.308h1.792v1.218h.07c.294-.784.91-1.386 2.044-1.386 1.498 0 2.338 1.036 2.338 2.856v4.62h-1.792v-4.438c0-1.036-.35-1.568-1.204-1.568-.742 0-1.456.392-1.456 1.176zm9.500667.168c-1.386 0-2.296-.504-3.024-1.344l1.092-1.064c.532.616 1.176.994 2.002.994.854 0 1.218-.322 1.218-.84 0-.42-.252-.686-.896-.77l-.728-.098c-1.568-.196-2.436-.882-2.436-2.212 0-1.414 1.106-2.31 2.772-2.31 1.428 0 2.156.42 2.856 1.148l-1.05 1.05c-.42-.448-1.036-.784-1.75-.784-.77 0-1.106.308-1.106.756 0 .49.266.714.952.826l.742.098c1.596.224 2.366.938 2.366 2.156 0 1.414-1.19 2.394-3.01 2.394zm8.142667 0c-2.156 0-3.374-1.484-3.374-3.836 0-2.338 1.218-3.808 3.374-3.808 1.47 0 2.436.7 2.87 1.848l-1.47.658c-.168-.616-.63-1.064-1.4-1.064-.994 0-1.498.7-1.498 1.722v1.33c0 1.022.504 1.708 1.498 1.708.854 0 1.274-.49 1.54-1.148l1.372.658c-.476 1.288-1.498 1.932-2.912 1.932zm6.756666-.168h-1.792v-7.308h1.792v1.512h.07c.182-.77.77-1.512 1.932-1.512h.392v1.694h-.56c-1.204 0-1.834.336-1.834 1.134zm5.272667-8.372c-.742 0-1.05-.378-1.05-.896v-.28c0-.518.308-.896 1.05-.896.728 0 1.05.378 1.05.896v.28c0 .518-.322.896-1.05.896zm-.896 8.372v-7.308h1.792v7.308zm4.530667 2.8v-10.108h1.792v1.204h.056c.266-.84 1.05-1.372 2.016-1.372 1.848 0 2.87 1.372 2.87 3.808 0 2.45-1.022 3.836-2.87 3.836-.966 0-1.736-.56-2.016-1.386h-.056v4.018zm3.29-4.116c.924 0 1.568-.672 1.568-1.708v-1.26c0-1.036-.644-1.722-1.568-1.722-.854 0-1.498.462-1.498 1.176v2.324c0 .756.644 1.19 1.498 1.19zm7.974667 1.316c-1.232 0-1.89-.672-1.89-1.862v-4.018h-1.078v-1.428h.56c.532 0 .7-.252.7-.756v-1.246h1.61v2.002h1.498v1.428h-1.498v4.452h1.386v1.428z" fill="#785d03"/><path d="m48.72 161.192c-1.872 0-3.152-.736-4.08-1.888l1.248-1.168c.784.96 1.712 1.456 2.928 1.456 1.424 0 2.16-.704 2.16-1.776 0-.864-.448-1.36-1.744-1.616l-.992-.176c-2.16-.4-3.264-1.408-3.264-3.184 0-1.984 1.536-3.2 3.904-3.2 1.68 0 2.912.608 3.776 1.712l-1.264 1.12c-.576-.752-1.376-1.232-2.608-1.232-1.28 0-2.016.528-2.016 1.504 0 .928.576 1.328 1.776 1.568l.992.208c2.224.432 3.232 1.424 3.232 3.2 0 2.08-1.488 3.472-4.048 3.472zm11.7074286-.192v-1.376h-.064c-.304.816-.96 1.568-2.336 1.568-1.712 0-2.72-1.168-2.72-3.216v-5.296h1.744v5.072c0 1.264.528 1.936 1.6 1.936.896 0 1.776-.464 1.776-1.44v-5.568h1.744v8.32zm6.5554286 0h-1.744v-8.32h1.744v1.6h.08c.24-.848.96-1.6 2.288-1.6h.464v1.68h-.688c-1.376 0-2.144.464-2.144 1.328zm11.9474286.784c0 1.728-1.232 2.608-4.224 2.608-2.72 0-3.776-.736-3.776-2 0-.912.544-1.408 1.424-1.6v-.176c-.608-.192-.944-.656-.944-1.28 0-.864.672-1.28 1.472-1.472v-.064c-.976-.464-1.52-1.344-1.52-2.464 0-1.696 1.2-2.848 3.312-2.848.56 0 1.072.08 1.504.256v-.224c0-.736.352-1.184 1.088-1.184h1.28v1.408h-1.696v.336c.752.496 1.168 1.296 1.168 2.256 0 1.68-1.216 2.816-3.328 2.816-.4 0-.784-.048-1.088-.128-.416.144-.8.416-.8.832 0 .448.432.624 1.168.624h2.048c2.048 0 2.912.864 2.912 2.304zm-1.632.192c0-.576-.384-.944-1.52-.944h-2.816c-.384.224-.576.56-.576.96 0 .672.496 1.136 1.792 1.136h1.088c1.36 0 2.032-.384 2.032-1.152zm-2.608-5.088c1.024 0 1.616-.464 1.616-1.408v-.32c0-.944-.592-1.408-1.616-1.408s-1.616.464-1.616 1.408v.32c0 .944.592 1.408 1.616 1.408zm9.2754286 4.304c-2.368 0-3.824-1.696-3.824-4.352s1.456-4.352 3.824-4.352c2.448 0 3.696 1.84 3.696 4.144v.656h-5.712v.272c0 1.28.784 2.192 2.192 2.192 1.024 0 1.712-.48 2.192-1.248l1.024 1.008c-.624 1.008-1.84 1.68-3.392 1.68zm0-7.344c-1.2 0-2.016.896-2.016 2.176v.112h3.872v-.16c0-1.28-.704-2.128-1.856-2.128zm7.9474286 7.152h-1.744v-8.32h1.744v1.6h.08c.24-.848.96-1.6 2.288-1.6h.464v1.68h-.688c-1.376 0-2.144.464-2.144 1.328zm8.539429-3.424 1.664-4.896h1.68l-3.504 9.968c-.4000004 1.12-.8960004 1.552-2.1920004 1.552h-1.008v-1.424h1.408l.48-1.408-3.024-8.688h1.744l1.664 4.896.48 1.808h.08zm14.022857 3.616c-2.912 0-4.688-2.032-4.688-5.776s1.776-5.776 4.688-5.776c1.936 0 3.232.864 3.984 2.528l-1.52.832c-.384-1.056-1.168-1.744-2.464-1.744-1.712 0-2.768 1.248-2.768 3.312v1.696c0 2.064 1.056 3.312 2.768 3.312 1.328 0 2.176-.768 2.576-1.856l1.456.88c-.752 1.616-2.096 2.592-4.032 2.592zm9.659428 0c-2.32 0-3.824-1.696-3.824-4.352s1.504-4.352 3.824-4.352 3.824 1.696 3.824 4.352-1.504 4.352-3.824 4.352zm0-1.44c1.184 0 1.984-.736 1.984-2.208v-1.408c0-1.472-.8-2.208-1.984-2.208s-1.984.736-1.984 2.208v1.408c0 1.472.8 2.208 1.984 2.208zm8.075429 1.248h-1.744v-8.32h1.744v1.376h.08c.352-.896 1.056-1.568 2.336-1.568 1.696 0 2.704 1.184 2.704 3.232v5.28h-1.744v-5.056c0-1.296-.496-1.952-1.568-1.952-.912 0-1.808.464-1.808 1.44zm10.747429.192c-1.568 0-2.592-.592-3.376-1.568l1.12-1.024c.608.736 1.36 1.184 2.352 1.184 1.008 0 1.52-.416 1.52-1.12 0-.528-.32-.928-1.184-1.04l-.768-.096c-1.696-.208-2.736-.944-2.736-2.48 0-1.616 1.264-2.56 3.088-2.56 1.504 0 2.352.496 3.104 1.328l-1.072 1.024c-.432-.512-1.136-.944-2.032-.944-.96 0-1.408.416-1.408 1.04 0 .64.4.928 1.28 1.072l.768.096c1.824.272 2.64 1.072 2.64 2.416 0 1.6-1.296 2.672-3.296 2.672zm10.875428-.192v-1.376h-.064c-.304.816-.96 1.568-2.336 1.568-1.712 0-2.72-1.168-2.72-3.216v-5.296h1.744v5.072c0 1.264.528 1.936 1.6 1.936.896 0 1.776-.464 1.776-1.44v-5.568h1.744v8.32zm7.707429 0h-1.12c-1.184 0-1.776-.656-1.776-1.728v-10.112h1.744v10.416h1.152zm5.979428 0h-1.52c-1.2 0-1.84-.672-1.84-1.808v-5.088h-1.296v-1.424h.704c.576 0 .768-.24.768-.816v-1.456h1.568v2.272h1.744v1.424h-1.744v5.472h1.616zm9.659429 0h-.976c-.912 0-1.392-.576-1.504-1.392h-.08c-.32 1.04-1.216 1.584-2.432 1.584-1.712 0-2.688-.976-2.688-2.48 0-1.648 1.232-2.496 3.552-2.496h1.504v-.704c0-1.008-.544-1.6-1.712-1.6-.976 0-1.568.48-1.984 1.136l-1.04-.944c.544-.928 1.52-1.616 3.136-1.616 2.144 0 3.344 1.056 3.344 2.912v4.176h.88zm-4.496-1.136c1.072 0 1.872-.512 1.872-1.328v-1.2h-1.472c-1.216 0-1.808.4-1.808 1.12v.288c0 .736.544 1.12 1.408 1.12zm10.555429 1.136h-1.52c-1.2 0-1.84-.672-1.84-1.808v-5.088h-1.296v-1.424h.704c.576 0 .768-.24.768-.816v-1.456h1.568v2.272h1.744v1.424h-1.744v5.472h1.616zm3.467428-9.808c-.72 0-1.04-.384-1.04-.912v-.272c0-.528.32-.912 1.04-.912s1.024.384 1.024.912v.272c0 .528-.304.912-1.024.912zm-.88 9.808v-8.32h1.744v8.32zm8.075429.192c-2.32 0-3.824-1.696-3.824-4.352s1.504-4.352 3.824-4.352 3.824 1.696 3.824 4.352-1.504 4.352-3.824 4.352zm0-1.44c1.184 0 1.984-.736 1.984-2.208v-1.408c0-1.472-.8-2.208-1.984-2.208s-1.984.736-1.984 2.208v1.408c0 1.472.8 2.208 1.984 2.208zm8.075428 1.248h-1.744v-8.32h1.744v1.376h.08c.352-.896 1.056-1.568 2.336-1.568 1.696 0 2.704 1.184 2.704 3.232v5.28h-1.744v-5.056c0-1.296-.496-1.952-1.568-1.952-.912 0-1.808.464-1.808 1.44zm9.179429-2.224c.784 0 1.168.448 1.168 1.088v.256c0 1.04-.608 2.304-1.568 3.088h-1.296c.688-.688 1.136-1.28 1.36-2.064-.56-.112-.832-.512-.832-1.024v-.256c0-.64.384-1.088 1.168-1.088zm10.934857 2.224v-9.568h-3.328v-1.6h8.464v1.6h-3.328v9.568zm9.563429.192c-2.32 0-3.824-1.696-3.824-4.352s1.504-4.352 3.824-4.352 3.824 1.696 3.824 4.352-1.504 4.352-3.824 4.352zm0-1.44c1.184 0 1.984-.736 1.984-2.208v-1.408c0-1.472-.8-2.208-1.984-2.208s-1.984.736-1.984 2.208v1.408c0 1.472.8 2.208 1.984 2.208zm11.563428 1.248v-1.376h-.08c-.352.976-1.232 1.568-2.336 1.568-2.096 0-3.312-1.616-3.312-4.352s1.216-4.352 3.312-4.352c1.104 0 1.984.576 2.336 1.568h.08v-4.896h1.744v11.84zm-1.888-1.312c1.056 0 1.888-.576 1.888-1.424v-2.848c0-.848-.832-1.424-1.888-1.424-1.2 0-2 .848-2 2.128v1.44c0 1.28.8 2.128 2 2.128zm13.771429 1.312h-.976c-.912 0-1.392-.576-1.504-1.392h-.08c-.32 1.04-1.216 1.584-2.432 1.584-1.712 0-2.688-.976-2.688-2.48 0-1.648 1.232-2.496 3.552-2.496h1.504v-.704c0-1.008-.544-1.6-1.712-1.6-.976 0-1.568.48-1.984 1.136l-1.04-.944c.544-.928 1.52-1.616 3.136-1.616 2.144 0 3.344 1.056 3.344 2.912v4.176h.88zm-4.496-1.136c1.072 0 1.872-.512 1.872-1.328v-1.2h-1.472c-1.216 0-1.808.4-1.808 1.12v.288c0 .736.544 1.12 1.408 1.12zm10.107429-2.288 1.664-4.896h1.68l-3.504 9.968c-.4 1.12-.896 1.552-2.192 1.552h-1.008v-1.424h1.408l.48-1.408-3.024-8.688h1.744l1.664 4.896.48 1.808h.08zm17.110857 1.888v1.536h-7.584v-1.728l3.568-3.184c1.12-1.008 1.76-1.904 1.76-2.928v-.208c0-1.072-.704-1.744-1.808-1.744-1.232 0-1.824.784-2.096 1.76l-1.584-.608c.464-1.408 1.584-2.72 3.824-2.72 2.272 0 3.584 1.376 3.584 3.312 0 1.808-1.2 2.992-2.672 4.256l-2.624 2.256zm9.046857 1.536h-1.808v-11.168h4.8c2.048 0 3.248 1.328 3.248 3.36s-1.2 3.36-3.248 3.36h-2.992zm0-9.584v3.552h2.88c.912 0 1.456-.496 1.456-1.392v-.768c0-.896-.544-1.392-1.456-1.392zm8.795429 9.584v-11.168h2.144l2.992 5.68h.096l2.992-5.68h2.048v11.168h-1.728v-8.544h-.08l-.88 1.808-2.448 4.464-2.448-4.464-.88-1.808h-.08v8.544z" fill="#785d03"/><g stroke="#785d03" stroke-width="2"><path d="m34.1250424 149.032388h-14.1042424c-.3510303 0-.6361212.284606-.6361212.636121v12.379636c0 .351031.2850909.636122.6361212.636122h14.1042424c.3515152 0 .6361212-.285091.6361212-.636122v-12.379636c0-.351515-.284606-.636121-.6361212-.636121z" stroke-linecap="round" stroke-linejoin="round"/><path d="m32.116897 147.307006v3.242182" stroke-linecap="round" stroke-linejoin="round"/><path d="m22.0187636 147.307006v3.242182" stroke-linecap="round" stroke-linejoin="round"/><path d="m19.3636364 153.181818h15.2727272" stroke-linecap="square"/></g></g></svg>