<?xml version="1.0" encoding="UTF-8"?>
<svg width="375px" height="667px" viewBox="0 0 375 667" version="1.1" xmlns="http://www.w3.org/2000/svg" xmlns:xlink="http://www.w3.org/1999/xlink">
    <!-- Generator: Sketch 50.2 (55047) - http://www.bohemiancoding.com/sketch -->
    <title>New Recording</title>
    <desc>Created with Sketch.</desc>
    <defs></defs>
    <g id="New-Recording" stroke="none" stroke-width="1" fill="none" fill-rule="evenodd">
        <rect id="newrecording23" fill="#FDD13A" x="0" y="0" width="375" height="667"></rect>
        <rect id="newrecording22" fill-opacity="0.6" fill="#252525" x="0" y="0" width="375" height="667"></rect>
        <path d="M16,10 L359,10 C367.836556,10 375,17.163444 375,26 L375,667 L0,667 L0,26 C-1.082166e-15,17.163444 7.163444,10 16,10 Z" id="newrecording21" fill="#FDD13A"></path>
        <path d="M357,341.23881 C357,342.629148 355.880712,343.73881 354.5,343.73881 C353.109662,343.73881 352,342.619522 352,341.23881 C352,339.848472 353.119288,338.73881 354.5,338.73881 C355.890338,338.73881 357,339.858098 357,341.23881 Z M260.195603,328.435109 L260.195603,352.244852 C260.195603,353.686005 259.02479,354.86041 257.580519,354.86041 C256.139187,354.86041 254.965435,353.689384 254.965435,352.244852 L254.965435,328.435109 C254.965435,326.993956 256.136248,325.819551 257.580519,325.819551 C259.021851,325.819551 260.195603,326.990576 260.195603,328.435109 Z M346.44855,341.629082 L346.44855,341.690957 C346.44855,343.12826 345.277737,344.300098 343.833466,344.300098 C342.392133,344.300098 341.218382,343.131946 341.218382,341.690957 L341.218382,341.629082 C341.218382,340.191779 342.389195,339.019941 343.833466,339.019941 C345.274798,339.019941 346.44855,340.188093 346.44855,341.629082 Z M173.942657,323.161451 L173.942657,358.838549 C173.942657,360.280044 172.771844,361.460605 171.327573,361.460605 C169.88624,361.460605 168.712488,360.28667 168.712488,358.838549 L168.712488,323.161451 C168.712488,321.719956 169.883301,320.539395 171.327573,320.539395 C172.768905,320.539395 173.942657,321.71333 173.942657,323.161451 Z M314.103695,336.355517 L314.103695,346.964522 C314.103695,348.415466 312.932882,349.580254 311.488611,349.580254 C310.047279,349.580254 308.873527,348.409151 308.873527,346.964522 L308.873527,336.355517 C308.873527,334.904573 310.04434,333.739785 311.488611,333.739785 C312.929943,333.739785 314.103695,334.910888 314.103695,336.355517 Z M335.666932,341.629082 L335.666932,341.690957 C335.666932,343.12826 334.496118,344.300098 333.051847,344.300098 C331.610515,344.300098 330.436763,343.131946 330.436763,341.690957 L330.436763,341.629082 C330.436763,340.191779 331.607576,339.019941 333.051847,339.019941 C334.49318,339.019941 335.666932,340.188093 335.666932,341.629082 Z M292.540458,328.435109 L292.540458,352.244852 C292.540458,353.686005 291.369645,354.86041 289.925374,354.86041 C288.484042,354.86041 287.31029,353.689384 287.31029,352.244852 L287.31029,328.435109 C287.31029,326.993956 288.481103,325.819551 289.925374,325.819551 C291.366706,325.819551 292.540458,326.990576 292.540458,328.435109 Z M98.4713283,328.435109 L98.4713283,352.244852 C98.4713283,353.686005 97.3005153,354.86041 95.8562442,354.86041 C94.414912,354.86041 93.2411601,353.689384 93.2411601,352.244852 L93.2411601,328.435109 C93.2411601,326.993956 94.4119731,325.819551 95.8562442,325.819551 C97.2975765,325.819551 98.4713283,326.990576 98.4713283,328.435109 Z M324.885313,341.629082 L324.885313,341.690957 C324.885313,343.12826 323.7145,344.300098 322.270229,344.300098 C320.828897,344.300098 319.655145,343.131946 319.655145,341.690957 L319.655145,341.629082 C319.655145,340.191779 320.825958,339.019941 322.270229,339.019941 C323.711561,339.019941 324.885313,340.188093 324.885313,341.629082 Z M270.977222,340.315234 L270.977222,343.004805 C270.977222,344.451479 269.806409,345.620137 268.362137,345.620137 C266.920805,345.620137 265.747053,344.449213 265.747053,343.004805 L265.747053,340.315234 C265.747053,338.86856 266.917866,337.699902 268.362137,337.699902 C269.80347,337.699902 270.977222,338.870826 270.977222,340.315234 Z M87.68971,336.355517 L87.68971,346.964522 C87.68971,348.415466 86.5188969,349.580254 85.0746259,349.580254 C83.6332936,349.580254 82.4595418,348.409151 82.4595418,346.964522 L82.4595418,336.355517 C82.4595418,334.904573 83.6303548,333.739785 85.0746259,333.739785 C86.5159581,333.739785 87.68971,334.910888 87.68971,336.355517 Z M281.75884,341.629082 L281.75884,341.690957 C281.75884,343.12826 280.588027,344.300098 279.143756,344.300098 C277.702424,344.300098 276.528672,343.131946 276.528672,341.690957 L276.528672,341.629082 C276.528672,340.191779 277.699485,339.019941 279.143756,339.019941 C280.585088,339.019941 281.75884,340.188093 281.75884,341.629082 Z M217.06913,335.026058 L217.06913,346.973942 C217.06913,348.400742 215.898317,349.580254 214.454046,349.580254 C213.012714,349.580254 211.838962,348.413368 211.838962,346.973942 L211.838962,335.026058 C211.838962,333.599258 213.009775,332.419746 214.454046,332.419746 C215.895378,332.419746 217.06913,333.586632 217.06913,335.026058 Z M109.252947,328.435109 L109.252947,352.244852 C109.252947,353.686005 108.082134,354.86041 106.637863,354.86041 C105.19653,354.86041 104.022778,353.689384 104.022778,352.244852 L104.022778,328.435109 C104.022778,326.993956 105.193591,325.819551 106.637863,325.819551 C108.079195,325.819551 109.252947,326.990576 109.252947,328.435109 Z M227.850748,340.315234 L227.850748,343.004805 C227.850748,344.451479 226.679935,345.620137 225.235664,345.620137 C223.794332,345.620137 222.62058,344.449213 222.62058,343.004805 L222.62058,340.315234 C222.62058,338.86856 223.791393,337.699902 225.235664,337.699902 C226.676996,337.699902 227.850748,338.870826 227.850748,340.315234 Z M195.505893,328.435109 L195.505893,352.244852 C195.505893,353.686005 194.33508,354.86041 192.890809,354.86041 C191.449477,354.86041 190.275725,353.689384 190.275725,352.244852 L190.275725,328.435109 C190.275725,326.993956 191.446538,325.819551 192.890809,325.819551 C194.332141,325.819551 195.505893,326.990576 195.505893,328.435109 Z M120.034565,323.360866 L120.034565,359.037963 C120.034565,360.479459 118.863752,361.66002 117.419481,361.66002 C115.978149,361.66002 114.804397,360.486085 114.804397,359.037963 L114.804397,323.360866 C114.804397,321.91937 115.97521,320.73881 117.419481,320.73881 C118.860813,320.73881 120.034565,321.912744 120.034565,323.360866 Z M184.724275,323.360866 L184.724275,359.037963 C184.724275,360.479459 183.553462,361.66002 182.109191,361.66002 C180.667859,361.66002 179.494107,360.486085 179.494107,359.037963 L179.494107,323.360866 C179.494107,321.91937 180.66492,320.73881 182.109191,320.73881 C183.550523,320.73881 184.724275,321.912744 184.724275,323.360866 Z M249.413985,336.355517 L249.413985,346.964522 C249.413985,348.415466 248.243172,349.580254 246.798901,349.580254 C245.357569,349.580254 244.183817,348.409151 244.183817,346.964522 L244.183817,336.355517 C244.183817,334.904573 245.35463,333.739785 246.798901,333.739785 C248.240233,333.739785 249.413985,334.910888 249.413985,336.355517 Z M206.287512,327.354368 L206.287512,351.16411 C206.287512,352.605264 205.116699,353.779668 203.672427,353.779668 C202.231095,353.779668 201.057343,352.608643 201.057343,351.16411 L201.057343,327.354368 C201.057343,325.913214 202.228156,324.73881 203.672427,324.73881 C205.11376,324.73881 206.287512,325.909835 206.287512,327.354368 Z M163.161038,328.435109 L163.161038,352.244852 C163.161038,353.686005 161.990225,354.86041 160.545954,354.86041 C159.104622,354.86041 157.93087,353.689384 157.93087,352.244852 L157.93087,328.435109 C157.93087,326.993956 159.101683,325.819551 160.545954,325.819551 C161.987286,325.819551 163.161038,326.990576 163.161038,328.435109 Z M238.632367,340.315234 L238.632367,343.004805 C238.632367,344.451479 237.461554,345.620137 236.017282,345.620137 C234.57595,345.620137 233.402198,344.449213 233.402198,343.004805 L233.402198,340.315234 C233.402198,338.86856 234.573011,337.699902 236.017282,337.699902 C237.458615,337.699902 238.632367,338.870826 238.632367,340.315234 Z M303.322077,327.354368 L303.322077,351.16411 C303.322077,352.605264 302.151264,353.779668 300.706992,353.779668 C299.26566,353.779668 298.091908,352.608643 298.091908,351.16411 L298.091908,327.354368 C298.091908,325.913214 299.262721,324.73881 300.706992,324.73881 C302.148325,324.73881 303.322077,325.909835 303.322077,327.354368 Z M152.37942,335.026058 L152.37942,346.973942 C152.37942,348.400742 151.208607,349.580254 149.764336,349.580254 C148.323004,349.580254 147.149252,348.413368 147.149252,346.973942 L147.149252,335.026058 C147.149252,333.599258 148.320065,332.419746 149.764336,332.419746 C151.205668,332.419746 152.37942,333.586632 152.37942,335.026058 Z M141.597802,340.315234 L141.597802,343.004805 C141.597802,344.451479 140.426989,345.620137 138.982718,345.620137 C137.541385,345.620137 136.367633,344.449213 136.367633,343.004805 L136.367633,340.315234 C136.367633,338.86856 137.538446,337.699902 138.982718,337.699902 C140.42405,337.699902 141.597802,338.870826 141.597802,340.315234 Z M130.816183,310.360725 L130.816183,368.478767 C130.816183,369.933118 129.64537,371.100683 128.201099,371.100683 C126.759767,371.100683 125.586015,369.926811 125.586015,368.478767 L125.586015,310.360725 C125.586015,308.906375 126.756828,307.73881 128.201099,307.73881 C129.642431,307.73881 130.816183,308.912681 130.816183,310.360725 Z M55.344855,341.629082 L55.344855,341.690957 C55.344855,343.12826 54.174042,344.300098 52.7297709,344.300098 C51.2884386,344.300098 50.1146868,343.131946 50.1146868,341.690957 L50.1146868,341.629082 C50.1146868,340.191779 51.2854998,339.019941 52.7297709,339.019941 C54.1711032,339.019941 55.344855,340.188093 55.344855,341.629082 Z M44.5632367,341.629082 L44.5632367,341.690957 C44.5632367,343.12826 43.3924236,344.300098 41.9481526,344.300098 C40.5068203,344.300098 39.3330685,343.131946 39.3330685,341.690957 L39.3330685,341.629082 C39.3330685,340.191779 40.5038815,339.019941 41.9481526,339.019941 C43.3894848,339.019941 44.5632367,340.188093 44.5632367,341.629082 Z M76.9080916,341.629082 L76.9080916,341.690957 C76.9080916,343.12826 75.7372786,344.300098 74.2930076,344.300098 C72.8516753,344.300098 71.6779235,343.131946 71.6779235,341.690957 L71.6779235,341.629082 C71.6779235,340.191779 72.8487365,339.019941 74.2930076,339.019941 C75.7343398,339.019941 76.9080916,340.188093 76.9080916,341.629082 Z M33.7816183,341.629082 L33.7816183,341.690957 C33.7816183,343.12826 32.6108053,344.300098 31.1665342,344.300098 C29.725202,344.300098 28.5514502,343.131946 28.5514502,341.690957 L28.5514502,341.629082 C28.5514502,340.191779 29.7222632,339.019941 31.1665342,339.019941 C32.6078665,339.019941 33.7816183,340.188093 33.7816183,341.629082 Z M66.1264733,341.629082 L66.1264733,341.690957 C66.1264733,343.12826 64.9556603,344.300098 63.5113892,344.300098 C62.070057,344.300098 60.8963051,343.131946 60.8963051,341.690957 L60.8963051,341.629082 C60.8963051,340.191779 62.0671182,339.019941 63.5113892,339.019941 C64.9527215,339.019941 66.1264733,340.188093 66.1264733,341.629082 Z M23,341.23881 C23,342.629148 21.8807119,343.73881 20.5,343.73881 C19.1096621,343.73881 18,342.619522 18,341.23881 C18,339.848472 19.1192881,338.73881 20.5,338.73881 C21.8903379,338.73881 23,339.858098 23,341.23881 Z" id="newrecording20" fill="#252525"></path>
        <circle id="newrecording19" fill="#F3F3F3" cx="188" cy="593" r="50"></circle>
        <path d="M178.5,577.390244 L178.5,608.609756" id="newrecording18" stroke="#0062FF" stroke-width="10" stroke-linecap="round" stroke-linejoin="round"></path>
        <path d="M197.5,577.390244 L197.5,608.609756" id="newrecording17" stroke="#0062FF" stroke-width="10" stroke-linecap="round" stroke-linejoin="round"></path>
        <path d="M166.786143,423.216 C163.582143,423.216 162.106143,420.822 162.106143,416.718 C162.106143,412.614 163.582143,410.22 166.786143,410.22 C169.990143,410.22 171.466143,412.614 171.466143,416.718 C171.466143,420.822 169.990143,423.216 166.786143,423.216 Z M166.786143,421.218 C168.388143,421.218 168.946143,419.922 168.946143,417.852 L168.946143,415.584 C168.946143,413.514 168.388143,412.218 166.786143,412.218 C165.184143,412.218 164.626143,413.514 164.626143,415.584 L164.626143,417.852 C164.626143,419.922 165.184143,421.218 166.786143,421.218 Z M178.443286,423.216 C175.239286,423.216 173.763286,420.822 173.763286,416.718 C173.763286,412.614 175.239286,410.22 178.443286,410.22 C181.647286,410.22 183.123286,412.614 183.123286,416.718 C183.123286,420.822 181.647286,423.216 178.443286,423.216 Z M178.443286,421.218 C180.045286,421.218 180.603286,419.922 180.603286,417.852 L180.603286,415.584 C180.603286,413.514 180.045286,412.218 178.443286,412.218 C176.841286,412.218 176.283286,413.514 176.283286,415.584 L176.283286,417.852 C176.283286,419.922 176.841286,421.218 178.443286,421.218 Z M187.562429,416.394 C186.590429,416.394 186.122429,415.836 186.122429,415.08 L186.122429,414.756 C186.122429,413.982 186.590429,413.424 187.562429,413.424 C188.552429,413.424 189.002429,413.982 189.002429,414.756 L189.002429,415.08 C189.002429,415.836 188.552429,416.394 187.562429,416.394 Z M187.562429,423.198 C186.590429,423.198 186.122429,422.64 186.122429,421.884 L186.122429,421.56 C186.122429,420.786 186.590429,420.228 187.562429,420.228 C188.552429,420.228 189.002429,420.786 189.002429,421.56 L189.002429,421.884 C189.002429,422.64 188.552429,423.198 187.562429,423.198 Z M196.699571,423.216 C193.495571,423.216 192.019571,420.822 192.019571,416.718 C192.019571,412.614 193.495571,410.22 196.699571,410.22 C199.903571,410.22 201.379571,412.614 201.379571,416.718 C201.379571,420.822 199.903571,423.216 196.699571,423.216 Z M196.699571,421.218 C198.301571,421.218 198.859571,419.922 198.859571,417.852 L198.859571,415.584 C198.859571,413.514 198.301571,412.218 196.699571,412.218 C195.097571,412.218 194.539571,413.514 194.539571,415.584 L194.539571,417.852 C194.539571,419.922 195.097571,421.218 196.699571,421.218 Z M212.784714,421.002 L212.784714,423 L204.072714,423 L204.072714,420.804 L208.014714,417.348 C209.346714,416.178 209.958714,415.314 209.958714,414.216 L209.958714,413.982 C209.958714,412.884 209.130714,412.272 208.104714,412.272 C206.808714,412.272 206.196714,413.118 205.908714,414.144 L203.856714,413.352 C204.396714,411.678 205.746714,410.22 208.302714,410.22 C210.948714,410.22 212.460714,411.804 212.460714,413.964 C212.460714,416.052 211.038714,417.384 209.292714,418.824 L206.646714,421.002 L212.784714,421.002 Z" id="00:02" fill="#252525"></path>
        <circle id="newrecording15" fill="#DA1E28" cx="282" cy="615" r="28"></circle>
        <rect id="newrecording14" fill="#FFFFFF" x="272" y="606" width="20" height="20" rx="3"></rect>
        <circle id="newrecording13" fill="#F3F3F3" cx="94" cy="615" r="28"></circle>
        <path d="M94.4285714,612.142857 C92.0621429,612.142857 90.1428571,614.062143 90.1428571,616.428571 C90.1428571,618.795 92.0621429,620.714286 94.4285714,620.714286 C96.795,620.714286 98.7142857,618.795 98.7142857,616.428571 C98.7142857,614.062143 96.795,612.142857 94.4285714,612.142857 L94.4285714,612.142857 Z M94.4285714,622.142857 C91.2728571,622.142857 88.7142857,619.584286 88.7142857,616.428571 C88.7142857,613.272857 91.2728571,610.714286 94.4285714,610.714286 C97.5842857,610.714286 100.142857,613.272857 100.142857,616.428571 C100.142857,619.584286 97.5842857,622.142857 94.4285714,622.142857 L94.4285714,622.142857 Z M103,607.857143 L100.857143,607.857143 L100.142857,606.428571 C99.7221429,605.597857 99.5028571,605 98.7142857,605 L90.1428571,605 C89.3542857,605 89.0928571,605.681429 88.7142857,606.428571 L88,607.857143 L85.8571429,607.857143 C84.2792857,607.857143 83,609.136429 83,610.714286 L83,622.142857 C83,623.720714 84.2792857,625 85.8571429,625 L103,625 C104.577857,625 105.857143,623.720714 105.857143,622.142857 L105.857143,610.714286 C105.857143,609.136429 104.577857,607.857143 103,607.857143 L103,607.857143 Z" id="newrecording12" fill="#565656"></path>
        <path d="M33.392,128 L27.28,117.44 L25.136,112.96 L25.04,112.96 L25.04,128 L20.464,128 L20.464,105.664 L25.776,105.664 L31.888,116.224 L34.032,120.704 L34.128,120.704 L34.128,105.664 L38.704,105.664 L38.704,128 L33.392,128 Z M51.2411429,128.384 C46.0891429,128.384 43.1771429,124.96 43.1771429,119.584 C43.1771429,114.272 45.9931429,110.816 51.0491429,110.816 C56.6171429,110.816 58.8571429,114.848 58.8571429,119.392 L58.8571429,120.8 L48.0731429,120.8 L48.0731429,121.056 C48.0731429,123.264 49.2571429,124.672 51.7851429,124.672 C53.7691429,124.672 54.8571429,123.744 55.9131429,122.656 L58.2811429,125.6 C56.7771429,127.328 54.3131429,128.384 51.2411429,128.384 Z M51.1451429,114.304 C49.2571429,114.304 48.0731429,115.68 48.0731429,117.76 L48.0731429,118.016 L53.9611429,118.016 L53.9611429,117.728 C53.9611429,115.68 53.0331429,114.304 51.1451429,114.304 Z M66.0182858,128 L61.3142858,111.2 L65.8902858,111.2 L67.5222858,117.984 L68.6742858,123.104 L68.8022858,123.104 L70.1462858,117.984 L72.0662858,111.2 L76.3862858,111.2 L78.3382858,117.984 L79.7142858,123.104 L79.8422858,123.104 L80.9942858,117.984 L82.6262858,111.2 L87.0102858,111.2 L82.3702858,128 L77.4102858,128 L75.3622858,120.896 L74.1782858,116.544 L74.0822858,116.544 L72.9302858,120.896 L70.8822858,128 L66.0182858,128 Z M104.212572,119.808 L104.212572,128 L99.3485716,128 L99.3485716,105.664 L109.940572,105.664 C114.068572,105.664 116.692572,108.544 116.692572,112.8 C116.692572,115.808 115.348572,118.208 112.628572,119.232 L117.012572,128 L111.604572,128 L107.700572,119.808 L104.212572,119.808 Z M104.212572,115.712 L109.332572,115.712 C110.772572,115.712 111.668572,114.944 111.668572,113.504 L111.668572,112.096 C111.668572,110.656 110.772572,109.888 109.332572,109.888 L104.212572,109.888 L104.212572,115.712 Z M128.045715,128.384 C122.893715,128.384 119.981715,124.96 119.981715,119.584 C119.981715,114.272 122.797715,110.816 127.853715,110.816 C133.421715,110.816 135.661715,114.848 135.661715,119.392 L135.661715,120.8 L124.877715,120.8 L124.877715,121.056 C124.877715,123.264 126.061715,124.672 128.589715,124.672 C130.573714,124.672 131.661715,123.744 132.717714,122.656 L135.085714,125.6 C133.581715,127.328 131.117715,128.384 128.045715,128.384 Z M127.949715,114.304 C126.061715,114.304 124.877715,115.68 124.877715,117.76 L124.877715,118.016 L130.765715,118.016 L130.765715,117.728 C130.765715,115.68 129.837715,114.304 127.949715,114.304 Z M146.662857,128.384 C141.606857,128.384 138.822857,124.96 138.822857,119.584 C138.822857,114.208 141.606857,110.816 146.662857,110.816 C150.054857,110.816 152.390857,112.448 153.382857,115.2 L149.542857,116.864 C149.254857,115.584 148.326857,114.56 146.662857,114.56 C144.742857,114.56 143.750857,115.936 143.750857,118.048 L143.750857,121.184 C143.750857,123.296 144.742857,124.672 146.662857,124.672 C148.550857,124.672 149.318857,123.488 149.798857,122.144 L153.478857,123.744 C152.358857,126.944 149.958857,128.384 146.662857,128.384 Z M163.936,128.384 C159.008,128.384 156.064,124.992 156.064,119.584 C156.064,114.176 159.008,110.816 163.936,110.816 C168.864,110.816 171.808,114.176 171.808,119.584 C171.808,124.992 168.864,128.384 163.936,128.384 Z M163.936,124.64 C165.792,124.64 166.88,123.424 166.88,121.312 L166.88,117.888 C166.88,115.776 165.792,114.56 163.936,114.56 C162.08,114.56 160.992,115.776 160.992,117.888 L160.992,121.312 C160.992,123.424 162.08,124.64 163.936,124.64 Z M180.761143,128 L176.025143,128 L176.025143,111.2 L180.761143,111.2 L180.761143,114.848 L180.921143,114.848 C181.305143,112.992 182.585143,111.2 185.209143,111.2 L186.041143,111.2 L186.041143,115.616 L184.857143,115.616 C182.105143,115.616 180.761143,116.224 180.761143,118.176 L180.761143,128 Z M199.986286,128 L199.986286,125.184 L199.826286,125.184 C199.346286,127.008 197.490286,128.384 195.314286,128.384 C191.058286,128.384 188.850286,125.28 188.850286,119.584 C188.850286,113.888 191.058286,110.816 195.314286,110.816 C197.490286,110.816 199.346286,112.16 199.826286,114.016 L199.986286,114.016 L199.986286,104.32 L204.722286,104.32 L204.722286,128 L199.986286,128 Z M196.882286,124.544 C198.674286,124.544 199.986286,123.616 199.986286,122.08 L199.986286,117.12 C199.986286,115.584 198.674286,114.656 196.882286,114.656 C195.090286,114.656 193.778286,116.032 193.778286,118.144 L193.778286,121.056 C193.778286,123.168 195.090286,124.544 196.882286,124.544 Z M212.363429,109.408 C210.443429,109.408 209.611429,108.416 209.611429,107.072 L209.611429,106.368 C209.611429,105.024 210.443429,104.032 212.363429,104.032 C214.283429,104.032 215.115429,105.024 215.115429,106.368 L215.115429,107.072 C215.115429,108.416 214.283429,109.408 212.363429,109.408 Z M209.995429,128 L209.995429,111.2 L214.731429,111.2 L214.731429,128 L209.995429,128 Z M224.740572,128 L220.004572,128 L220.004572,111.2 L224.740572,111.2 L224.740572,114.048 L224.932572,114.048 C225.540572,112.288 226.948572,110.816 229.604572,110.816 C233.028572,110.816 234.852572,113.248 234.852572,117.472 L234.852572,128 L230.116572,128 L230.116572,117.856 C230.116572,115.712 229.508572,114.656 227.780572,114.656 C226.244572,114.656 224.740572,115.456 224.740572,117.12 L224.740572,128 Z M255.485715,129.216 C255.485715,132.768 253.245715,134.784 246.397715,134.784 C240.573715,134.784 238.429715,133.312 238.429715,130.88 C238.429715,129.024 239.613715,127.936 241.565715,127.68 L241.565715,127.328 C239.965715,127.04 239.133715,125.824 239.133715,124.384 C239.133715,122.624 240.701715,121.728 242.269715,121.408 L242.269715,121.28 C240.253715,120.352 239.261715,118.656 239.261715,116.48 C239.261715,113.088 241.629715,110.816 246.461715,110.816 C247.517715,110.816 248.477715,110.912 249.309715,111.136 L249.309715,110.496 C249.309715,108.736 250.237715,107.968 251.837715,107.968 L254.493715,107.968 L254.493715,111.488 L250.781715,111.488 L250.781715,111.68 C252.733715,112.608 253.661715,114.336 253.661715,116.48 C253.661715,119.84 251.325715,122.048 246.461715,122.048 C245.341715,122.048 244.349715,121.92 243.485715,121.696 C243.037715,121.984 242.749715,122.464 242.749715,123.04 C242.749715,123.84 243.325715,124.32 244.765715,124.32 L249.629715,124.32 C253.725715,124.32 255.485715,126.112 255.485715,129.216 Z M251.037715,129.856 C251.037715,128.896 250.333715,128.352 248.445715,128.352 L242.685715,128.352 C242.269715,128.768 242.077715,129.344 242.077715,129.856 C242.077715,131.072 243.037715,131.648 245.597715,131.648 L247.517715,131.648 C250.077715,131.648 251.037715,131.072 251.037715,129.856 Z M246.461715,118.944 C248.317715,118.944 249.245715,118.112 249.245715,116.64 L249.245715,116.256 C249.245715,114.784 248.317715,113.952 246.461715,113.952 C244.605715,113.952 243.677715,114.784 243.677715,116.256 L243.677715,116.64 C243.677715,118.112 244.605715,118.944 246.461715,118.944 Z" id="newrecording8" fill="#785D03"></path>
        <polyline id="newrecording7" stroke="#785D03" stroke-width="2" stroke-linecap="round" stroke-linejoin="round" transform="translate(187.500000, 29.000000) rotate(90.000000) translate(-187.500000, -29.000000) " points="190 24 185 29 190 34"></polyline>
        <path d="M137.871,55 L135.771,55 L132.579,45.228 L134.469,45.228 L135.967,49.988 L136.835,53.236 L136.877,53.236 L137.731,49.988 L139.229,45.228 L141.063,45.228 L137.871,55 Z M143.885666,46.628 C143.143666,46.628 142.835666,46.25 142.835666,45.732 L142.835666,45.452 C142.835666,44.934 143.143666,44.556 143.885666,44.556 C144.613666,44.556 144.935666,44.934 144.935666,45.452 L144.935666,45.732 C144.935666,46.25 144.613666,46.628 143.885666,46.628 Z M142.989666,55 L142.989666,47.692 L144.781666,47.692 L144.781666,55 L142.989666,55 Z M150.474333,55.168 C148.318333,55.168 147.030333,53.67 147.030333,51.332 C147.030333,49.022 148.276333,47.524 150.418333,47.524 C152.700333,47.524 153.750333,49.204 153.750333,51.206 L153.750333,51.794 L148.892333,51.794 L148.892333,51.976 C148.892333,53.026 149.494333,53.74 150.670333,53.74 C151.552333,53.74 152.084333,53.32 152.532333,52.746 L153.498333,53.824 C152.896333,54.65 151.832333,55.168 150.474333,55.168 Z M150.446333,48.868 C149.508333,48.868 148.892333,49.568 148.892333,50.576 L148.892333,50.688 L151.888333,50.688 L151.888333,50.562 C151.888333,49.554 151.370333,48.868 150.446333,48.868 Z M157.231,55 L155.215,47.692 L156.937,47.692 L157.679,50.702 L158.253,53.208 L158.309,53.208 L158.981,50.702 L159.835,47.692 L161.459,47.692 L162.341,50.702 L163.027,53.208 L163.083,53.208 L163.657,50.702 L164.385,47.692 L166.051,47.692 L164.049,55 L162.117,55 L161.179,51.78 L160.633,49.792 L160.591,49.792 L160.059,51.78 L159.135,55 L157.231,55 Z M178.752333,46.866 L175.980333,46.866 L175.980333,55 L174.132333,55 L174.132333,46.866 L171.360333,46.866 L171.360333,45.228 L178.752333,45.228 L178.752333,46.866 Z M181.981,55 L180.189,55 L180.189,47.692 L181.981,47.692 L181.981,49.204 L182.051,49.204 C182.233,48.434 182.821,47.692 183.983,47.692 L184.375,47.692 L184.375,49.386 L183.815,49.386 C182.611,49.386 181.981,49.722 181.981,50.52 L181.981,55 Z M188.009667,55.168 C186.525667,55.168 185.685667,54.314 185.685667,53.012 C185.685667,51.514 186.819667,50.772 188.807667,50.772 L190.053667,50.772 L190.053667,50.24 C190.053667,49.428 189.647667,48.952 188.695667,48.952 C187.855667,48.952 187.379667,49.372 187.029667,49.876 L185.965667,48.924 C186.497667,48.084 187.351667,47.524 188.821667,47.524 C190.795667,47.524 191.845667,48.462 191.845667,50.128 L191.845667,53.572 L192.573667,53.572 L192.573667,55 L191.579667,55 C190.809667,55 190.333667,54.496 190.221667,53.74 L190.137667,53.74 C189.899667,54.678 189.101667,55.168 188.009667,55.168 Z M188.611667,53.866 C189.409667,53.866 190.053667,53.502 190.053667,52.816 L190.053667,51.85 L188.905667,51.85 C187.967667,51.85 187.505667,52.172 187.505667,52.746 L187.505667,52.984 C187.505667,53.572 187.911667,53.866 188.611667,53.866 Z M196.488333,55 L194.696333,55 L194.696333,47.692 L196.488333,47.692 L196.488333,48.91 L196.558333,48.91 C196.852333,48.126 197.468333,47.524 198.602333,47.524 C200.100333,47.524 200.940333,48.56 200.940333,50.38 L200.940333,55 L199.148333,55 L199.148333,50.562 C199.148333,49.526 198.798333,48.994 197.944333,48.994 C197.202333,48.994 196.488333,49.386 196.488333,50.17 L196.488333,55 Z M205.989,55.168 C204.603,55.168 203.693,54.664 202.965,53.824 L204.057,52.76 C204.589,53.376 205.233,53.754 206.059,53.754 C206.913,53.754 207.277,53.432 207.277,52.914 C207.277,52.494 207.025,52.228 206.381,52.144 L205.653,52.046 C204.085,51.85 203.217,51.164 203.217,49.834 C203.217,48.42 204.323,47.524 205.989,47.524 C207.417,47.524 208.145,47.944 208.845,48.672 L207.795,49.722 C207.375,49.274 206.759,48.938 206.045,48.938 C205.275,48.938 204.939,49.246 204.939,49.694 C204.939,50.184 205.205,50.408 205.891,50.52 L206.633,50.618 C208.229,50.842 208.999,51.556 208.999,52.774 C208.999,54.188 207.809,55.168 205.989,55.168 Z M214.131667,55.168 C211.975667,55.168 210.757667,53.684 210.757667,51.332 C210.757667,48.994 211.975667,47.524 214.131667,47.524 C215.601667,47.524 216.567667,48.224 217.001667,49.372 L215.531667,50.03 C215.363667,49.414 214.901667,48.966 214.131667,48.966 C213.137667,48.966 212.633667,49.666 212.633667,50.688 L212.633667,52.018 C212.633667,53.04 213.137667,53.726 214.131667,53.726 C214.985667,53.726 215.405667,53.236 215.671667,52.578 L217.043667,53.236 C216.567667,54.524 215.545667,55.168 214.131667,55.168 Z M220.888333,55 L219.096333,55 L219.096333,47.692 L220.888333,47.692 L220.888333,49.204 L220.958333,49.204 C221.140333,48.434 221.728333,47.692 222.890333,47.692 L223.282333,47.692 L223.282333,49.386 L222.722333,49.386 C221.518333,49.386 220.888333,49.722 220.888333,50.52 L220.888333,55 Z M226.161,46.628 C225.419,46.628 225.111,46.25 225.111,45.732 L225.111,45.452 C225.111,44.934 225.419,44.556 226.161,44.556 C226.889,44.556 227.211,44.934 227.211,45.452 L227.211,45.732 C227.211,46.25 226.889,46.628 226.161,46.628 Z M225.265,55 L225.265,47.692 L227.057,47.692 L227.057,55 L225.265,55 Z M229.795667,57.8 L229.795667,47.692 L231.587667,47.692 L231.587667,48.896 L231.643667,48.896 C231.909667,48.056 232.693667,47.524 233.659667,47.524 C235.507667,47.524 236.529667,48.896 236.529667,51.332 C236.529667,53.782 235.507667,55.168 233.659667,55.168 C232.693667,55.168 231.923667,54.608 231.643667,53.782 L231.587667,53.782 L231.587667,57.8 L229.795667,57.8 Z M233.085667,53.684 C234.009667,53.684 234.653667,53.012 234.653667,51.976 L234.653667,50.716 C234.653667,49.68 234.009667,48.994 233.085667,48.994 C232.231667,48.994 231.587667,49.456 231.587667,50.17 L231.587667,52.494 C231.587667,53.25 232.231667,53.684 233.085667,53.684 Z M241.060334,55 C239.828334,55 239.170334,54.328 239.170334,53.138 L239.170334,49.12 L238.092334,49.12 L238.092334,47.692 L238.652334,47.692 C239.184334,47.692 239.352334,47.44 239.352334,46.936 L239.352334,45.69 L240.962334,45.69 L240.962334,47.692 L242.460334,47.692 L242.460334,49.12 L240.962334,49.12 L240.962334,53.572 L242.348334,53.572 L242.348334,55 L241.060334,55 Z" id="newrecording6" fill="#785D03"></path>
        <path d="M48.72,161.192 C46.848,161.192 45.568,160.456 44.64,159.304 L45.888,158.136 C46.672,159.096 47.6,159.592 48.816,159.592 C50.24,159.592 50.976,158.888 50.976,157.816 C50.976,156.952 50.528,156.456 49.232,156.2 L48.24,156.024 C46.08,155.624 44.976,154.616 44.976,152.84 C44.976,150.856 46.512,149.64 48.88,149.64 C50.56,149.64 51.792,150.248 52.656,151.352 L51.392,152.472 C50.816,151.72 50.016,151.24 48.784,151.24 C47.504,151.24 46.768,151.768 46.768,152.744 C46.768,153.672 47.344,154.072 48.544,154.312 L49.536,154.52 C51.76,154.952 52.768,155.944 52.768,157.72 C52.768,159.8 51.28,161.192 48.72,161.192 Z M60.4274286,161 L60.4274286,159.624 L60.3634286,159.624 C60.0594286,160.44 59.4034286,161.192 58.0274286,161.192 C56.3154286,161.192 55.3074286,160.024 55.3074286,157.976 L55.3074286,152.68 L57.0514286,152.68 L57.0514286,157.752 C57.0514286,159.016 57.5794286,159.688 58.6514286,159.688 C59.5474286,159.688 60.4274286,159.224 60.4274286,158.248 L60.4274286,152.68 L62.1714286,152.68 L62.1714286,161 L60.4274286,161 Z M66.9828572,161 L65.2388572,161 L65.2388572,152.68 L66.9828572,152.68 L66.9828572,154.28 L67.0628572,154.28 C67.3028572,153.432 68.0228572,152.68 69.3508572,152.68 L69.8148572,152.68 L69.8148572,154.36 L69.1268572,154.36 C67.7508572,154.36 66.9828572,154.824 66.9828572,155.688 L66.9828572,161 Z M78.9302858,161.784 C78.9302858,163.512 77.6982858,164.392 74.7062858,164.392 C71.9862858,164.392 70.9302858,163.656 70.9302858,162.392 C70.9302858,161.48 71.4742858,160.984 72.3542858,160.792 L72.3542858,160.616 C71.7462858,160.424 71.4102858,159.96 71.4102858,159.336 C71.4102858,158.472 72.0822858,158.056 72.8822858,157.864 L72.8822858,157.8 C71.9062858,157.336 71.3622858,156.456 71.3622858,155.336 C71.3622858,153.64 72.5622858,152.488 74.6742858,152.488 C75.2342858,152.488 75.7462858,152.568 76.1782858,152.744 L76.1782858,152.52 C76.1782858,151.784 76.5302858,151.336 77.2662858,151.336 L78.5462858,151.336 L78.5462858,152.744 L76.8502858,152.744 L76.8502858,153.08 C77.6022858,153.576 78.0182858,154.376 78.0182858,155.336 C78.0182858,157.016 76.8022858,158.152 74.6902858,158.152 C74.2902858,158.152 73.9062858,158.104 73.6022858,158.024 C73.1862858,158.168 72.8022858,158.44 72.8022858,158.856 C72.8022858,159.304 73.2342858,159.48 73.9702858,159.48 L76.0182858,159.48 C78.0662858,159.48 78.9302858,160.344 78.9302858,161.784 Z M77.2982858,161.976 C77.2982858,161.4 76.9142858,161.032 75.7782858,161.032 L72.9622858,161.032 C72.5782858,161.256 72.3862858,161.592 72.3862858,161.992 C72.3862858,162.664 72.8822858,163.128 74.1782858,163.128 L75.2662858,163.128 C76.6262858,163.128 77.2982858,162.744 77.2982858,161.976 Z M74.6902858,156.888 C75.7142858,156.888 76.3062858,156.424 76.3062858,155.48 L76.3062858,155.16 C76.3062858,154.216 75.7142858,153.752 74.6902858,153.752 C73.6662858,153.752 73.0742858,154.216 73.0742858,155.16 L73.0742858,155.48 C73.0742858,156.424 73.6662858,156.888 74.6902858,156.888 Z M83.9657144,161.192 C81.5977144,161.192 80.1417144,159.496 80.1417144,156.84 C80.1417144,154.184 81.5977144,152.488 83.9657144,152.488 C86.4137144,152.488 87.6617144,154.328 87.6617144,156.632 L87.6617144,157.288 L81.9497144,157.288 L81.9497144,157.56 C81.9497144,158.84 82.7337144,159.752 84.1417144,159.752 C85.1657144,159.752 85.8537144,159.272 86.3337144,158.504 L87.3577144,159.512 C86.7337144,160.52 85.5177144,161.192 83.9657144,161.192 Z M83.9657144,153.848 C82.7657144,153.848 81.9497144,154.744 81.9497144,156.024 L81.9497144,156.136 L85.8217144,156.136 L85.8217144,155.976 C85.8217144,154.696 85.1177144,153.848 83.9657144,153.848 Z M91.913143,161 L90.169143,161 L90.169143,152.68 L91.913143,152.68 L91.913143,154.28 L91.993143,154.28 C92.233143,153.432 92.953143,152.68 94.281143,152.68 L94.745143,152.68 L94.745143,154.36 L94.057143,154.36 C92.681143,154.36 91.913143,154.824 91.913143,155.688 L91.913143,161 Z M100.452572,157.576 L102.116572,152.68 L103.796572,152.68 L100.292572,162.648 C99.8925716,163.768 99.3965716,164.2 98.1005716,164.2 L97.0925716,164.2 L97.0925716,162.776 L98.5005716,162.776 L98.9805716,161.368 L95.9565716,152.68 L97.7005716,152.68 L99.3645716,157.576 L99.8445716,159.384 L99.9245716,159.384 L100.452572,157.576 Z M114.475429,161.192 C111.563429,161.192 109.787429,159.16 109.787429,155.416 C109.787429,151.672 111.563429,149.64 114.475429,149.64 C116.411429,149.64 117.707429,150.504 118.459429,152.168 L116.939429,153 C116.555429,151.944 115.771429,151.256 114.475429,151.256 C112.763429,151.256 111.707429,152.504 111.707429,154.568 L111.707429,156.264 C111.707429,158.328 112.763429,159.576 114.475429,159.576 C115.803429,159.576 116.651429,158.808 117.051429,157.72 L118.507429,158.6 C117.755429,160.216 116.411429,161.192 114.475429,161.192 Z M124.134857,161.192 C121.814857,161.192 120.310857,159.496 120.310857,156.84 C120.310857,154.184 121.814857,152.488 124.134857,152.488 C126.454857,152.488 127.958857,154.184 127.958857,156.84 C127.958857,159.496 126.454857,161.192 124.134857,161.192 Z M124.134857,159.752 C125.318857,159.752 126.118857,159.016 126.118857,157.544 L126.118857,156.136 C126.118857,154.664 125.318857,153.928 124.134857,153.928 C122.950857,153.928 122.150857,154.664 122.150857,156.136 L122.150857,157.544 C122.150857,159.016 122.950857,159.752 124.134857,159.752 Z M132.210286,161 L130.466286,161 L130.466286,152.68 L132.210286,152.68 L132.210286,154.056 L132.290286,154.056 C132.642286,153.16 133.346286,152.488 134.626286,152.488 C136.322286,152.488 137.330286,153.672 137.330286,155.72 L137.330286,161 L135.586286,161 L135.586286,155.944 C135.586286,154.648 135.090286,153.992 134.018286,153.992 C133.106286,153.992 132.210286,154.456 132.210286,155.432 L132.210286,161 Z M142.957715,161.192 C141.389715,161.192 140.365715,160.6 139.581715,159.624 L140.701715,158.6 C141.309715,159.336 142.061715,159.784 143.053715,159.784 C144.061715,159.784 144.573715,159.368 144.573715,158.664 C144.573715,158.136 144.253715,157.736 143.389715,157.624 L142.621715,157.528 C140.925715,157.32 139.885715,156.584 139.885715,155.048 C139.885715,153.432 141.149715,152.488 142.973715,152.488 C144.477715,152.488 145.325715,152.984 146.077715,153.816 L145.005715,154.84 C144.573715,154.328 143.869715,153.896 142.973715,153.896 C142.013715,153.896 141.565715,154.312 141.565715,154.936 C141.565715,155.576 141.965715,155.864 142.845715,156.008 L143.613715,156.104 C145.437715,156.376 146.253715,157.176 146.253715,158.52 C146.253715,160.12 144.957715,161.192 142.957715,161.192 Z M153.833143,161 L153.833143,159.624 L153.769143,159.624 C153.465143,160.44 152.809143,161.192 151.433143,161.192 C149.721143,161.192 148.713143,160.024 148.713143,157.976 L148.713143,152.68 L150.457143,152.68 L150.457143,157.752 C150.457143,159.016 150.985143,159.688 152.057143,159.688 C152.953143,159.688 153.833143,159.224 153.833143,158.248 L153.833143,152.68 L155.577143,152.68 L155.577143,161 L153.833143,161 Z M161.540572,161 L160.420572,161 C159.236572,161 158.644572,160.344 158.644572,159.272 L158.644572,149.16 L160.388572,149.16 L160.388572,159.576 L161.540572,159.576 L161.540572,161 Z M167.52,161 L166,161 C164.8,161 164.16,160.328 164.16,159.192 L164.16,154.104 L162.864,154.104 L162.864,152.68 L163.568,152.68 C164.144,152.68 164.336,152.44 164.336,151.864 L164.336,150.408 L165.904,150.408 L165.904,152.68 L167.648,152.68 L167.648,154.104 L165.904,154.104 L165.904,159.576 L167.52,159.576 L167.52,161 Z M177.179429,161 L176.203429,161 C175.291429,161 174.811429,160.424 174.699429,159.608 L174.619429,159.608 C174.299429,160.648 173.403429,161.192 172.187429,161.192 C170.475429,161.192 169.499429,160.216 169.499429,158.712 C169.499429,157.064 170.731429,156.216 173.051429,156.216 L174.555429,156.216 L174.555429,155.512 C174.555429,154.504 174.011429,153.912 172.843429,153.912 C171.867429,153.912 171.275429,154.392 170.859429,155.048 L169.819429,154.104 C170.363429,153.176 171.339429,152.488 172.955429,152.488 C175.099429,152.488 176.299429,153.544 176.299429,155.4 L176.299429,159.576 L177.179429,159.576 L177.179429,161 Z M172.683429,159.864 C173.755429,159.864 174.555429,159.352 174.555429,158.536 L174.555429,157.336 L173.083429,157.336 C171.867429,157.336 171.275429,157.736 171.275429,158.456 L171.275429,158.744 C171.275429,159.48 171.819429,159.864 172.683429,159.864 Z M183.238858,161 L181.718858,161 C180.518858,161 179.878858,160.328 179.878858,159.192 L179.878858,154.104 L178.582858,154.104 L178.582858,152.68 L179.286858,152.68 C179.862858,152.68 180.054858,152.44 180.054858,151.864 L180.054858,150.408 L181.622858,150.408 L181.622858,152.68 L183.366858,152.68 L183.366858,154.104 L181.622858,154.104 L181.622858,159.576 L183.238858,159.576 L183.238858,161 Z M186.706286,151.192 C185.986286,151.192 185.666286,150.808 185.666286,150.28 L185.666286,150.008 C185.666286,149.48 185.986286,149.096 186.706286,149.096 C187.426286,149.096 187.730286,149.48 187.730286,150.008 L187.730286,150.28 C187.730286,150.808 187.426286,151.192 186.706286,151.192 Z M185.826286,161 L185.826286,152.68 L187.570286,152.68 L187.570286,161 L185.826286,161 Z M193.901715,161.192 C191.581715,161.192 190.077715,159.496 190.077715,156.84 C190.077715,154.184 191.581715,152.488 193.901715,152.488 C196.221715,152.488 197.725715,154.184 197.725715,156.84 C197.725715,159.496 196.221715,161.192 193.901715,161.192 Z M193.901715,159.752 C195.085715,159.752 195.885715,159.016 195.885715,157.544 L195.885715,156.136 C195.885715,154.664 195.085715,153.928 193.901715,153.928 C192.717715,153.928 191.917715,154.664 191.917715,156.136 L191.917715,157.544 C191.917715,159.016 192.717715,159.752 193.901715,159.752 Z M201.977143,161 L200.233143,161 L200.233143,152.68 L201.977143,152.68 L201.977143,154.056 L202.057143,154.056 C202.409143,153.16 203.113143,152.488 204.393143,152.488 C206.089143,152.488 207.097143,153.672 207.097143,155.72 L207.097143,161 L205.353143,161 L205.353143,155.944 C205.353143,154.648 204.857143,153.992 203.785143,153.992 C202.873143,153.992 201.977143,154.456 201.977143,155.432 L201.977143,161 Z M211.156572,158.776 C211.940572,158.776 212.324572,159.224 212.324572,159.864 L212.324572,160.12 C212.324572,161.16 211.716572,162.424 210.756572,163.208 L209.460572,163.208 C210.148572,162.52 210.596572,161.928 210.820572,161.144 C210.260572,161.032 209.988572,160.632 209.988572,160.12 L209.988572,159.864 C209.988572,159.224 210.372572,158.776 211.156572,158.776 Z M222.091429,161 L222.091429,151.432 L218.763429,151.432 L218.763429,149.832 L227.227429,149.832 L227.227429,151.432 L223.899429,151.432 L223.899429,161 L222.091429,161 Z M231.654858,161.192 C229.334858,161.192 227.830858,159.496 227.830858,156.84 C227.830858,154.184 229.334858,152.488 231.654858,152.488 C233.974858,152.488 235.478858,154.184 235.478858,156.84 C235.478858,159.496 233.974858,161.192 231.654858,161.192 Z M231.654858,159.752 C232.838858,159.752 233.638858,159.016 233.638858,157.544 L233.638858,156.136 C233.638858,154.664 232.838858,153.928 231.654858,153.928 C230.470858,153.928 229.670858,154.664 229.670858,156.136 L229.670858,157.544 C229.670858,159.016 230.470858,159.752 231.654858,159.752 Z M243.218286,161 L243.218286,159.624 L243.138286,159.624 C242.786286,160.6 241.906286,161.192 240.802286,161.192 C238.706286,161.192 237.490286,159.576 237.490286,156.84 C237.490286,154.104 238.706286,152.488 240.802286,152.488 C241.906286,152.488 242.786286,153.064 243.138286,154.056 L243.218286,154.056 L243.218286,149.16 L244.962286,149.16 L244.962286,161 L243.218286,161 Z M241.330286,159.688 C242.386286,159.688 243.218286,159.112 243.218286,158.264 L243.218286,155.416 C243.218286,154.568 242.386286,153.992 241.330286,153.992 C240.130286,153.992 239.330286,154.84 239.330286,156.12 L239.330286,157.56 C239.330286,158.84 240.130286,159.688 241.330286,159.688 Z M255.101715,161 L254.125715,161 C253.213715,161 252.733715,160.424 252.621715,159.608 L252.541715,159.608 C252.221715,160.648 251.325715,161.192 250.109715,161.192 C248.397715,161.192 247.421715,160.216 247.421715,158.712 C247.421715,157.064 248.653715,156.216 250.973715,156.216 L252.477715,156.216 L252.477715,155.512 C252.477715,154.504 251.933715,153.912 250.765715,153.912 C249.789715,153.912 249.197715,154.392 248.781715,155.048 L247.741715,154.104 C248.285715,153.176 249.261715,152.488 250.877715,152.488 C253.021715,152.488 254.221715,153.544 254.221715,155.4 L254.221715,159.576 L255.101715,159.576 L255.101715,161 Z M250.605715,159.864 C251.677715,159.864 252.477715,159.352 252.477715,158.536 L252.477715,157.336 L251.005715,157.336 C249.789715,157.336 249.197715,157.736 249.197715,158.456 L249.197715,158.744 C249.197715,159.48 249.741715,159.864 250.605715,159.864 Z M260.713144,157.576 L262.377144,152.68 L264.057144,152.68 L260.553144,162.648 C260.153144,163.768 259.657144,164.2 258.361144,164.2 L257.353144,164.2 L257.353144,162.776 L258.761144,162.776 L259.241144,161.368 L256.217144,152.68 L257.961144,152.68 L259.625144,157.576 L260.105144,159.384 L260.185144,159.384 L260.713144,157.576 Z M277.824001,159.464 L277.824001,161 L270.240001,161 L270.240001,159.272 L273.808001,156.088 C274.928001,155.08 275.568001,154.184 275.568001,153.16 L275.568001,152.952 C275.568001,151.88 274.864001,151.208 273.760001,151.208 C272.528001,151.208 271.936001,151.992 271.664001,152.968 L270.080001,152.36 C270.544001,150.952 271.664001,149.64 273.904001,149.64 C276.176001,149.64 277.488001,151.016 277.488001,152.952 C277.488001,154.76 276.288001,155.944 274.816001,157.208 L272.192001,159.464 L277.824001,159.464 Z M286.870858,161 L285.062858,161 L285.062858,149.832 L289.862858,149.832 C291.910858,149.832 293.110858,151.16 293.110858,153.192 C293.110858,155.224 291.910858,156.552 289.862858,156.552 L286.870858,156.552 L286.870858,161 Z M286.870858,151.416 L286.870858,154.968 L289.750858,154.968 C290.662858,154.968 291.206858,154.472 291.206858,153.576 L291.206858,152.808 C291.206858,151.912 290.662858,151.416 289.750858,151.416 L286.870858,151.416 Z M295.666287,161 L295.666287,149.832 L297.810287,149.832 L300.802287,155.512 L300.898287,155.512 L303.890287,149.832 L305.938287,149.832 L305.938287,161 L304.210287,161 L304.210287,152.456 L304.130287,152.456 L303.250287,154.264 L300.802287,158.728 L298.354287,154.264 L297.474287,152.456 L297.394287,152.456 L297.394287,161 L295.666287,161 Z" id="newrecording5" fill="#785D03"></path>
        <path d="M34.1250424,149.032388 L20.0208,149.032388 C19.6697697,149.032388 19.3846788,149.316994 19.3846788,149.668509 L19.3846788,162.048145 C19.3846788,162.399176 19.6697697,162.684267 20.0208,162.684267 L34.1250424,162.684267 C34.4765576,162.684267 34.7611636,162.399176 34.7611636,162.048145 L34.7611636,149.668509 C34.7611636,149.316994 34.4765576,149.032388 34.1250424,149.032388 Z" id="newrecording4" stroke="#785D03" stroke-width="2" stroke-linecap="round" stroke-linejoin="round"></path>
        <path d="M32.116897,147.307006 L32.116897,150.549188" id="newrecording3" stroke="#785D03" stroke-width="2" stroke-linecap="round" stroke-linejoin="round"></path>
        <path d="M22.0187636,147.307006 L22.0187636,150.549188" id="newrecording2" stroke="#785D03" stroke-width="2" stroke-linecap="round" stroke-linejoin="round"></path>
        <path d="M19.3636364,153.181818 L34.6363636,153.181818" id="newrecording1" stroke="#785D03" stroke-width="2" stroke-linecap="square"></path>
    </g>
</svg>