<?xml version="1.0" encoding="UTF-8"?>
<svg width="591px" height="281px" viewBox="0 0 591 281" version="1.1" xmlns="http://www.w3.org/2000/svg" xmlns:xlink="http://www.w3.org/1999/xlink">
    <!-- Generator: Sketch 50.2 (55047) - http://www.bohemiancoding.com/sketch -->
    <title>casualvspower</title>
    <desc>Created with Sketch.</desc>
    <defs></defs>
    <g id="Page-1" stroke="none" stroke-width="1" fill="none" fill-rule="evenodd">
        <g id="sketches" transform="translate(-1644.000000, -462.000000)">
            <g id="casualvspower" transform="translate(1644.000000, 426.000000)">
                <g id="Group-20" transform="translate(0.000000, 51.000000)">
                    <g id="chair" transform="translate(0.000000, 38.000000)" fill="#CCCCCC">
                        <path d="M13.315591,1.38896386 C9.45882734,-0.724457945 5.62636637,1.08709925 1.81820811,6.82363544 C-3.8940293,15.4284397 16.4053758,78.1537541 20.9639531,88.295006 C24.0030047,95.0558405 30.6512442,95.0558405 40.9086718,88.295006 C37.6598531,82.6438432 35.0144456,78.4172967 32.9724496,75.6153665 C30.1797019,71.7832905 24.9651092,72.9381143 22.9564298,65.1322992 C16.9522758,41.7998968 12.4686181,25.3138903 11.8383243,19.5778185 C10.9784919,11.7528006 11.4709142,5.68984905 13.315591,1.38896386 Z" id="Path-108"></path>
                        <path d="M44.0668369,92.4905244 C39.8232477,93.6560408 37.7014532,95.986078 37.7014532,99.4806361 C37.7014532,104.722473 37.8877957,108.677687 57.3154676,112.405537 C76.7431395,116.133388 92.7774208,115.355541 112.713554,112.405537 C126.00431,110.438868 131.097125,106.130567 127.991998,99.4806361 L44.0668369,92.4905244 Z" id="Path-109"></path>
                        <path d="M74.7501175,109.317627 L84.2012818,109.317627 L84.2012818,153.286213 C84.2012818,155.99754 82.6260877,157.353204 79.4756996,157.353204 C76.3253116,157.353204 74.7501175,155.99754 74.7501175,153.286213 L74.7501175,109.317627 Z" id="Rectangle-24"></path>
                        <path d="M73.031724,96.5584642 L85.9196753,96.5584642 L85.9196753,140.527051 C85.9196753,143.238378 83.7716834,144.594041 79.4756996,144.594041 C75.1797159,144.594041 73.031724,143.238378 73.031724,140.527051 L73.031724,96.5584642 Z" id="Rectangle-24-Copy"></path>
                        <path d="M25.5658247,90.5279296 C24.0165623,101.228662 25.6078288,107.230273 30.3396243,108.532762 C35.0714197,109.835251 41.5097119,110.486495 49.654501,110.486495 L49.654501,104.377941 C42.7485013,103.401911 37.931039,102.593066 35.2021139,101.951405 C32.4731888,101.309745 31.6408667,97.5019194 32.7051475,90.5279296 L25.5658247,90.5279296 Z" id="Path-110"></path>
                        <path d="M82,145.046618 C62.4245846,145.046618 48.5024652,145.046618 45.5233805,156.621953 C45.5233805,157.75978 47.8531601,157.234505 48.6124217,156.621953 C50.2433601,150.566183 61.3725528,149.376785 82,153.053758 C82,148.86604 82,146.196993 82,145.046618 Z" id="Path-111"></path>
                        <path d="M115.895577,145.046618 C96.3201614,145.046618 81.9488693,145.046618 80,156.621953 C80,157.75978 82.3589487,157.234505 83.1182103,156.621953 C83.1182103,149.836981 94.0439992,148.647582 115.895577,153.053758 C115.895577,148.86604 115.895577,146.196993 115.895577,145.046618 Z" id="Path-111-Copy" transform="translate(97.947788, 151.169568) scale(-1, 1) translate(-97.947788, -151.169568) "></path>
                        <g id="Group-18" transform="translate(46.985184, 160.741687) rotate(2.000000) translate(-46.985184, -160.741687) translate(42.485184, 155.741687)">
                            <path d="M1,0 L2.57759026,0 L2.57759026,8.48342059 C2.57759026,9.03570534 2.12987501,9.48342059 1.57759026,9.48342059 L1,9.48342059 C0.44771525,9.48342059 6.76353751e-17,9.03570534 0,8.48342059 L0,1 C-6.76353751e-17,0.44771525 0.44771525,1.01453063e-16 1,0 Z" id="Rectangle-25"></path>
                            <rect id="Rectangle-8" x="1.71839351" y="0" width="5.15518052" height="7.7591623"></rect>
                            <path d="M6.01437727,0 L7.59196753,-1.11022302e-16 C8.14425228,-2.12475365e-16 8.59196753,0.44771525 8.59196753,1 L8.59196753,8.48342059 C8.59196753,9.03570534 8.14425228,9.48342059 7.59196753,9.48342059 L7.01437727,9.48342059 C6.46209252,9.48342059 6.01437727,9.03570534 6.01437727,8.48342059 L6.01437727,0 Z" id="Rectangle-9"></path>
                        </g>
                        <g id="Group-18-Copy" transform="translate(47.241444, 168.115183)">
                            <ellipse id="Oval-6" cx="62.3277078" cy="5.89703316" rx="5.15518052" ry="5.17277487"></ellipse>
                            <ellipse id="Oval-6-Copy" cx="59.6093143" cy="5.17277487" rx="5.15518052" ry="5.17277487"></ellipse>
                            <ellipse id="Oval-6-Copy-2" cx="5.15518052" cy="7.7591623" rx="5.15518052" ry="5.17277487"></ellipse>
                            <ellipse id="Oval-6-Copy-3" cx="8.59196753" cy="6.89703316" rx="5.15518052" ry="5.17277487"></ellipse>
                        </g>
                        <g id="Group-19" transform="translate(109.583529, 154.734729)">
                            <path d="M1,0 L2.57759026,0 L2.57759026,8.48342059 C2.57759026,9.03570534 2.12987501,9.48342059 1.57759026,9.48342059 L1,9.48342059 C0.44771525,9.48342059 6.76353751e-17,9.03570534 0,8.48342059 L0,1 C-6.76353751e-17,0.44771525 0.44771525,1.01453063e-16 1,0 Z" id="Rectangle-25"></path>
                            <rect id="Rectangle-8" x="1.71839351" y="0" width="5.15518052" height="7.7591623"></rect>
                            <path d="M6.01437727,0 L7.59196753,0 C8.14425228,-1.01453063e-16 8.59196753,0.44771525 8.59196753,1 L8.59196753,8.48342059 C8.59196753,9.03570534 8.14425228,9.48342059 7.59196753,9.48342059 L7.01437727,9.48342059 C6.46209252,9.48342059 6.01437727,9.03570534 6.01437727,8.48342059 L6.01437727,0 Z" id="Rectangle-9"></path>
                        </g>
                    </g>
                    <path d="M21,29.3342508 C29.4003633,27.941927 38.8276308,31.2221387 45.0449269,36 C53.2099423,16.2796573 51.0636856,1.80401868 40.2320244,0.110776431 C29.4003633,-1.58246581 22.0006821,16.5010704 21,29.3342508 Z" id="Path-3" fill="#0000FF"></path>
                    <path d="M55,71 C71.3533708,86.8027789 80.212257,96.1404286 85,100.449361 M75.1516946,101 C72.7190445,99.4574309 66.5153958,95.2401483 59.1476112,90.2394191 C59.0746732,90.189914 58.9844677,90.1515404 58.902249,90.1074145 L75.1516946,101 Z" id="Path-104" stroke="#000000" stroke-width="2" stroke-linecap="round" stroke-linejoin="round"></path>
                    <path d="M11.3001397,52.9531547 C9.35690183,35.9482043 17.3063685,31.8560208 22.0086915,28.614135 C24.1484193,27.1389591 40.8642253,27.5816834 47.4235889,38.4338063 C55.2792581,51.4305991 56.9236138,74.3541677 61,100" id="Path-102" stroke="#000000" stroke-width="2" fill="#FFFFFF"></path>
                    <path d="M184.076056,178.010667 C175.747377,178.617966 164.791717,180.995854 167.388896,183.377823 C167.388896,183.771846 182.976603,184.554977 188.981917,183.377823 C191.959488,182.794163 187.821533,177.73756 184.076056,178.010667 Z" id="Path-6-Copy" fill="#0000FF" transform="translate(178.500000, 181.000000) scale(-1, 1) rotate(30.000000) translate(-178.500000, -181.000000) "></path>
                    <path d="M155.076056,212.010667 C146.747377,212.617966 135.791717,214.995854 138.388896,217.377823 C138.388896,217.771846 153.976603,218.554977 159.981917,217.377823 C162.959488,216.794163 158.821533,211.73756 155.076056,212.010667 Z" id="Path-6-Copy-5" fill="#0000FF" transform="translate(149.500000, 215.000000) scale(-1, 1) translate(-149.500000, -215.000000) "></path>
                    <path d="M36,120.66384 C42.975635,134.695206 51.0706561,141.710888 60.2850633,141.710888 C74.1066741,141.710888 123.054279,125.66647 131.631424,125.66647 C140.208569,125.66647 164.062889,186 168.590308,186 C173.117726,186 172.516761,182.278193 173,180.229229 C170.606097,173.588906 156.306854,105.549026 143.068855,103.147577 C135.509843,101.776329 101.623772,110.436644 72.9011831,109.495756 C68.0894407,109.338134 65.2281631,109.97644 56.5325389,110.727702 C46.0300636,115.729244 39.1858839,119.04129 36,120.66384 Z" id="Path-105" fill="#000000"></path>
                    <rect id="Rectangle-23" stroke="#000000" stroke-width="2" fill="#CCCCCC" transform="translate(112.500000, 106.500000) rotate(-10.000000) translate(-112.500000, -106.500000) " x="88" y="103" width="49" height="7" rx="1"></rect>
                    <rect id="Rectangle-23-Copy" stroke="#000000" stroke-width="2" fill="#CCCCCC" transform="translate(139.000000, 78.500000) rotate(110.000000) translate(-139.000000, -78.500000) " x="112" y="75" width="54" height="7" rx="1"></rect>
                    <rect id="Rectangle-23" fill="#CCCCCC" transform="translate(112.500000, 106.500000) rotate(-10.000000) translate(-112.500000, -106.500000) " x="89" y="104" width="47" height="5" rx="1"></rect>
                    <path d="M92.6793193,112.062264 C90.9542731,110.582592 90.8509377,109.319195 91.1021806,108.253374 C92.8608778,100.792642 101.764564,94.3945237 102.439365,95.1463211 C102.669856,95.4031117 102.309656,95.9009362 102.47871,95.8148518 C103.326564,95.3831134 104.002419,93.8037965 104.837366,94.0202684 C106.106247,94.3492437 99.5215033,102.265728 99.9106519,106.206841 C100.241659,106.969823 101.713052,100.555714 102.430315,101.839805 C103.147578,103.123897 102.979263,108.073 98.3291022,111.784837 C95.5471019,113.13484 94.4043655,113.541935 92.6793193,112.062264 Z" id="Path-4-Copy-7" fill="#0000FF" transform="translate(98.000000, 103.500000) rotate(60.000000) translate(-98.000000, -103.500000) "></path>
                    <path d="M89,100.280534 C66.5162389,101.509683 51.2976858,100.829321 43.3443405,98.2394494 C34.5018103,95.3600296 34.5236077,88.4897374 30.5435941,62.6062178 M11.2656537,52.6081304 C17.6112144,87.4700731 21.1121901,106.318195 31.3560641,110.652443 C41.5999382,114.986692 83.2090021,107.615616 88.7617318,106.051507" id="Path-103" stroke="#000000" stroke-width="2" stroke-linecap="round" stroke-linejoin="round"></path>
                    <path d="M32,111 L38,121" id="Path-106" stroke="#000000" stroke-width="2"></path>
                    <path d="M52.1611317,137.188202 C48.80343,144.866358 98.816447,141.142823 118.702987,137.188202 C138.589527,133.233581 128.588434,194.38892 136.866831,216.352859 C137.823302,218.796703 144.695931,213.606524 144.963488,212.558564 C149.560577,179.559482 149.357807,149.405999 148.543053,134.879015 C147.999884,125.19436 144.823668,117.901355 139.014405,113 C83.3506906,124.006698 54.3995996,132.069432 52.1611317,137.188202 Z" id="Path-107" fill="#000000"></path>
                    <path d="M82.003584,196.380859 C63.6495252,183.475907 55.1605604,186.374513 45.8423629,198.180892 C45.8423629,199.364432 47.2294646,200.761057 48.1579453,200.123896 C55.5411582,191.809972 65.3580895,192.30815 77.6087391,201.618431 C80.5386357,199.323308 82.003584,197.577451 82.003584,196.380859 Z" id="Path-111-Copy-3" fill="#CCCCCC" transform="translate(63.922973, 194.774763) rotate(-40.000000) translate(-63.922973, -194.774763) "></path>
                    <path d="M116.002883,197.26173 C97.6488242,184.356778 89.4878639,187.530613 80.1696663,199.336991 C80.1696663,200.520532 81.2287637,201.641929 82.1572444,201.004767 C89.5404573,192.690843 99.3573886,193.189022 111.608038,202.499302 C114.537935,200.204179 116.002883,198.458322 116.002883,197.26173 Z" id="Path-111-Copy-4" fill="#CCCCCC" transform="translate(98.086275, 195.714236) scale(-1, 1) rotate(-40.000000) translate(-98.086275, -195.714236) "></path>
                </g>
                <path d="M17.268,316.312 C12.536,316.312 10.3,312.906 10.3,306.926 C10.3,300.946 12.536,297.54 17.268,297.54 C20.882,297.54 22.676,299.568 23.456,302.402 L20.336,303.286 C19.868,301.596 19.166,300.322 17.216,300.322 C14.876,300.322 13.914,302.246 13.914,305.366 L13.914,308.486 C13.914,311.606 14.876,313.53 17.216,313.53 C19.166,313.53 19.868,312.256 20.336,310.566 L23.456,311.45 C22.676,314.284 20.882,316.312 17.268,316.312 Z M39.29,316 L37.34,316 C35.728,316 34.818,315.116 34.662,313.686 L34.532,313.686 C34.038,315.35 32.556,316.312 30.476,316.312 C27.798,316.312 26.056,314.804 26.056,312.282 C26.056,309.578 28.058,308.226 32.01,308.226 L34.376,308.226 L34.376,307.342 C34.376,305.652 33.57,304.768 31.724,304.768 C30.034,304.768 29.072,305.496 28.344,306.536 L26.446,304.924 C27.278,303.442 29.15,302.272 32.062,302.272 C35.572,302.272 37.704,303.962 37.704,307.186 L37.704,313.504 L39.29,313.504 L39.29,316 Z M31.594,314.024 C33.18,314.024 34.376,313.218 34.376,311.944 L34.376,310.15 L32.088,310.15 C30.268,310.15 29.358,310.748 29.358,311.866 L29.358,312.386 C29.358,313.452 30.216,314.024 31.594,314.024 Z M47.948,316.312 C45.01,316.312 42.8,315.324 41.604,313.764 L43.554,311.996 C44.646,313.192 46.076,313.894 47.974,313.894 C49.638,313.894 50.73,313.348 50.73,312.204 C50.73,311.242 49.976,310.982 48.884,310.826 L46.726,310.488 C44.49,310.15 42.358,309.266 42.358,306.614 C42.358,303.832 44.62,302.272 48.26,302.272 C50.834,302.272 52.654,303.052 53.824,304.352 L52.082,306.276 C51.328,305.444 50.08,304.69 48.156,304.69 C46.492,304.69 45.608,305.236 45.608,306.276 C45.608,307.238 46.388,307.524 47.48,307.68 L49.612,308.018 C51.874,308.356 54.006,309.214 54.006,311.866 C54.006,314.622 51.744,316.312 47.948,316.312 Z M66.122,316 L66.122,313.634 L65.992,313.634 C65.394,315.09 64.25,316.312 62.066,316.312 C59.44,316.312 57.62,314.492 57.62,311.242 L57.62,302.584 L60.948,302.584 L60.948,310.774 C60.948,312.698 61.806,313.686 63.47,313.686 C64.822,313.686 66.122,312.984 66.122,311.554 L66.122,302.584 L69.45,302.584 L69.45,316 L66.122,316 Z M86.09,316 L84.14,316 C82.528,316 81.618,315.116 81.462,313.686 L81.332,313.686 C80.838,315.35 79.356,316.312 77.276,316.312 C74.598,316.312 72.856,314.804 72.856,312.282 C72.856,309.578 74.858,308.226 78.81,308.226 L81.176,308.226 L81.176,307.342 C81.176,305.652 80.37,304.768 78.524,304.768 C76.834,304.768 75.872,305.496 75.144,306.536 L73.246,304.924 C74.078,303.442 75.95,302.272 78.862,302.272 C82.372,302.272 84.504,303.962 84.504,307.186 L84.504,313.504 L86.09,313.504 L86.09,316 Z M78.394,314.024 C79.98,314.024 81.176,313.218 81.176,311.944 L81.176,310.15 L78.888,310.15 C77.068,310.15 76.158,310.748 76.158,311.866 L76.158,312.386 C76.158,313.452 77.016,314.024 78.394,314.024 Z M88.872,316 L88.872,313.374 L93.136,313.374 L93.136,299.386 L88.872,299.386 L88.872,296.76 L96.464,296.76 L96.464,313.374 L100.754,313.374 L100.754,316 L88.872,316 Z M119.812,297.852 L123.218,297.852 L123.218,309.162 C123.218,311.84 123.374,313.53 126,313.53 C128.626,313.53 128.782,311.84 128.782,309.162 L128.782,297.852 L132.188,297.852 L132.188,308.642 C132.188,313.738 131.174,316.312 126,316.312 C120.826,316.312 119.812,313.738 119.812,308.642 L119.812,297.852 Z M141.548,316.312 C138.61,316.312 136.4,315.324 135.204,313.764 L137.154,311.996 C138.246,313.192 139.676,313.894 141.574,313.894 C143.238,313.894 144.33,313.348 144.33,312.204 C144.33,311.242 143.576,310.982 142.484,310.826 L140.326,310.488 C138.09,310.15 135.958,309.266 135.958,306.614 C135.958,303.832 138.22,302.272 141.86,302.272 C144.434,302.272 146.254,303.052 147.424,304.352 L145.682,306.276 C144.928,305.444 143.68,304.69 141.756,304.69 C140.092,304.69 139.208,305.236 139.208,306.276 C139.208,307.238 139.988,307.524 141.08,307.68 L143.212,308.018 C145.474,308.356 147.606,309.214 147.606,311.866 C147.606,314.622 145.344,316.312 141.548,316.312 Z M157.512,316.312 C153.222,316.312 150.83,313.608 150.83,309.318 C150.83,304.976 153.326,302.272 157.252,302.272 C161.126,302.272 163.57,304.95 163.57,309.006 L163.57,310.098 L154.158,310.098 L154.158,310.436 C154.158,312.36 155.432,313.686 157.616,313.686 C159.254,313.686 160.45,312.958 161.256,311.84 L163.154,313.738 C162.192,315.142 160.346,316.312 157.512,316.312 Z M157.278,304.716 C155.406,304.716 154.158,306.016 154.158,307.94 L154.158,308.122 L160.242,308.122 L160.242,307.888 C160.242,305.964 159.098,304.716 157.278,304.716 Z M166.95,316 L166.95,313.374 L170.278,313.374 L170.278,305.21 L166.95,305.21 L166.95,302.584 L173.606,302.584 L173.606,306.25 L173.814,306.25 C174.308,304.352 175.452,302.584 178.13,302.584 L179.586,302.584 L179.586,305.704 L176.83,305.704 C174.724,305.704 173.606,307.134 173.606,308.85 L173.606,313.374 L178.26,313.374 L178.26,316 L166.95,316 Z" id="Casual-User" fill="#000000"></path>
                <path d="M373.406,316.148 L370,316.148 L370,298 L376.89,298 C380.4,298 382.35,300.158 382.35,303.616 C382.35,307.048 380.4,309.232 376.89,309.232 L373.406,309.232 L373.406,316.148 Z M373.406,300.782 L373.406,306.45 L376.188,306.45 C378.008,306.45 378.762,305.722 378.762,304.11 L378.762,303.122 C378.762,301.51 378.008,300.782 376.188,300.782 L373.406,300.782 Z M391.32,316.46 C387.264,316.46 384.768,313.756 384.768,309.44 C384.768,305.124 387.264,302.42 391.32,302.42 C395.376,302.42 397.872,305.124 397.872,309.44 C397.872,313.756 395.376,316.46 391.32,316.46 Z M391.32,313.912 C393.218,313.912 394.414,312.716 394.414,310.48 L394.414,308.4 C394.414,306.164 393.218,304.968 391.32,304.968 C389.422,304.968 388.226,306.164 388.226,308.4 L388.226,310.48 C388.226,312.716 389.422,313.912 391.32,313.912 Z M401.2,316.148 L399.484,302.732 L402.266,302.732 L403.41,313.808 L403.644,313.808 L405.464,302.732 L408.506,302.732 L410.3,313.808 L410.534,313.808 L411.704,302.732 L414.356,302.732 L412.64,316.148 L408.61,316.148 L407.05,306.294 L406.816,306.294 L405.23,316.148 L401.2,316.148 Z M422.832,316.46 C418.542,316.46 416.15,313.756 416.15,309.466 C416.15,305.124 418.646,302.42 422.572,302.42 C426.446,302.42 428.89,305.098 428.89,309.154 L428.89,310.246 L419.478,310.246 L419.478,310.584 C419.478,312.508 420.752,313.834 422.936,313.834 C424.574,313.834 425.77,313.106 426.576,311.988 L428.474,313.886 C427.512,315.29 425.666,316.46 422.832,316.46 Z M422.598,304.864 C420.726,304.864 419.478,306.164 419.478,308.088 L419.478,308.27 L425.562,308.27 L425.562,308.036 C425.562,306.112 424.418,304.864 422.598,304.864 Z M432.27,316.148 L432.27,313.522 L435.598,313.522 L435.598,305.358 L432.27,305.358 L432.27,302.732 L438.926,302.732 L438.926,306.398 L439.134,306.398 C439.628,304.5 440.772,302.732 443.45,302.732 L444.906,302.732 L444.906,305.852 L442.15,305.852 C440.044,305.852 438.926,307.282 438.926,308.998 L438.926,313.522 L443.58,313.522 L443.58,316.148 L432.27,316.148 Z M463.132,298 L466.538,298 L466.538,309.31 C466.538,311.988 466.694,313.678 469.32,313.678 C471.946,313.678 472.102,311.988 472.102,309.31 L472.102,298 L475.508,298 L475.508,308.79 C475.508,313.886 474.494,316.46 469.32,316.46 C464.146,316.46 463.132,313.886 463.132,308.79 L463.132,298 Z M484.868,316.46 C481.93,316.46 479.72,315.472 478.524,313.912 L480.474,312.144 C481.566,313.34 482.996,314.042 484.894,314.042 C486.558,314.042 487.65,313.496 487.65,312.352 C487.65,311.39 486.896,311.13 485.804,310.974 L483.646,310.636 C481.41,310.298 479.278,309.414 479.278,306.762 C479.278,303.98 481.54,302.42 485.18,302.42 C487.754,302.42 489.574,303.2 490.744,304.5 L489.002,306.424 C488.248,305.592 487,304.838 485.076,304.838 C483.412,304.838 482.528,305.384 482.528,306.424 C482.528,307.386 483.308,307.672 484.4,307.828 L486.532,308.166 C488.794,308.504 490.926,309.362 490.926,312.014 C490.926,314.77 488.664,316.46 484.868,316.46 Z M500.832,316.46 C496.542,316.46 494.15,313.756 494.15,309.466 C494.15,305.124 496.646,302.42 500.572,302.42 C504.446,302.42 506.89,305.098 506.89,309.154 L506.89,310.246 L497.478,310.246 L497.478,310.584 C497.478,312.508 498.752,313.834 500.936,313.834 C502.574,313.834 503.77,313.106 504.576,311.988 L506.474,313.886 C505.512,315.29 503.666,316.46 500.832,316.46 Z M500.598,304.864 C498.726,304.864 497.478,306.164 497.478,308.088 L497.478,308.27 L503.562,308.27 L503.562,308.036 C503.562,306.112 502.418,304.864 500.598,304.864 Z M510.27,316.148 L510.27,313.522 L513.598,313.522 L513.598,305.358 L510.27,305.358 L510.27,302.732 L516.926,302.732 L516.926,306.398 L517.134,306.398 C517.628,304.5 518.772,302.732 521.45,302.732 L522.906,302.732 L522.906,305.852 L520.15,305.852 C518.044,305.852 516.926,307.282 516.926,308.998 L516.926,313.522 L521.58,313.522 L521.58,316.148 L510.27,316.148 Z" id="Power-User" fill="#000000"></path>
                <g id="Group-23" transform="translate(446.500000, 135.500000) scale(-1, 1) translate(-446.500000, -135.500000) translate(302.000000, 0.000000)">
                    <path d="M55.8876786,259.045579 C63.9119692,249.68186 75.5791714,245 90.8892852,245 C106.197243,245 117.863315,249.680541 125.887501,259.041623 L125.887475,259.041645 C126.716596,260.008904 126.604613,261.465158 125.637354,262.294278 C125.219265,262.652658 124.686765,262.84965 124.136098,262.84965 L120.954127,262.849644 C120.059019,262.849644 119.210669,262.449945 118.640765,261.759708 C112.768864,254.647968 103.518371,251.092099 90.8892852,251.092099 C78.2595917,251.092099 69.0058491,254.648311 63.1280575,261.760735 L63.1280623,261.760739 C62.5581468,262.450365 61.7101854,262.84965 60.8155412,262.84965 L57.6375682,262.84965 C56.3648315,262.84965 55.3330746,261.817893 55.3330746,260.545156 C55.3330746,259.995133 55.5297991,259.463248 55.8877042,259.045601 Z" id="Path-119" fill="#CCCCCC"></path>
                    <rect id="Rectangle-31" fill="#CCCCCC" x="87" y="249" width="5.5" height="14" rx="2"></rect>
                    <path d="M26.9232328,82.3132679 C29.1060028,63.6168358 41.225124,54.2686197 63.2805963,54.2686197 C64.0805065,61.1299765 63.6663287,65.1508942 62.0380628,66.331373 C58.2379841,69.0863973 52.0623395,73.4271308 49.5557031,77.2589301 C43.8230433,86.0222283 43.8431091,94.3337186 44.2721942,98.1071139 C44.6315782,101.267554 44.8351783,119.540477 49.5557031,123.555776 C51.1345147,124.89872 56.0961533,129.173811 56.8147561,134.185674 C57.4546377,138.648498 55.4710897,145.6095 56.8147561,148.832702 C58.7734907,153.531336 62.1405302,159.127465 66.9158747,165.62109 C100.695217,164.163692 119.842317,164.163692 124.357173,165.62109 C132.047507,168.103535 133.212599,187.488468 124.357173,187.488468 C104.054082,187.488468 55.3500009,195.073994 44.2721942,181.18981 C25.5221942,157.68981 23.6490777,110.357916 26.9232328,82.3132679 Z" id="Rectangle-30" fill="#CCCCCC"></path>
                    <rect id="Rectangle-14" fill="#CCCCCC" x="82" y="183" width="11" height="63"></rect>
                    <path d="M53.7884383,155.119954 L111,155.119954 L111,166.207619 C103.155786,171.315344 95.8563187,173.869207 89.1015995,173.869207 C78.9695206,173.869207 64.0571517,176.268104 58.112815,173.869207 C54.1499239,172.269942 52.708465,166.020191 53.7884383,155.119954 Z" id="Rectangle-29" fill="#000000"></path>
                    <g id="Group-21" transform="translate(74.802463, 211.536576) rotate(-10.000000) translate(-74.802463, -211.536576) translate(63.802463, 154.036576)">
                        <path d="M14.691185,101.026962 C8.1869813,101.792213 -0.675513677,104.379802 1.35272835,107.381297 C1.35272835,107.877801 14.805914,109.509943 19.4957079,108.026623 C20.4293741,107.731317 22.0953405,106.546456 21.4289818,105.187723 C20.435767,103.162515 16.4417242,100.821002 14.691185,101.026962 Z" id="Path-6-Copy-6" fill="#0000FF" transform="translate(11.319985, 104.824749) rotate(-40.000000) translate(-11.319985, -104.824749) "></path>
                        <path d="M13.0102169,98.0045698 C9.5593639,94.2375102 -1.60179597,44.0087656 1.13702263,6.84986784 C1.86859987,-3.07580004 14.152459,0.188210318 17.7826213,5.43147011 C21.4127836,10.6747299 20.0722647,93.0691938 20.0722647,97.4204116 C20.0722647,101.771629 16.4610699,101.771629 13.0102169,98.0045698 Z" id="Path-117" fill="#000000"></path>
                    </g>
                    <g id="Group-22" transform="translate(109.539505, 209.552410) rotate(10.000000) translate(-109.539505, -209.552410) translate(93.039505, 156.052410)">
                        <path d="M26.8184932,100.011556 C18.1276978,100.669463 6.69570497,103.245508 9.40580407,105.825975 C9.40580407,106.252833 25.6712379,107.101225 31.9376529,105.825975 C35.0446827,105.193677 30.7268171,99.7156895 26.8184932,100.011556 Z" id="Path-6-Copy" fill="#0000FF" transform="translate(21.000000, 103.250000) scale(-1, 1) translate(-21.000000, -103.250000) "></path>
                        <path d="M19.5714663,99.3724881 C17.5022231,92.6933333 3.15837456,38.4280434 5.015294,8.14306228 C5.62176433,-1.74801985 18.1787941,-0.0200069152 21.8089564,5.27516634 C25.4391187,10.5703396 26.2866035,94.3906906 26.2866035,98.7849897 C26.2866035,103.179289 21.6407094,106.051643 19.5714663,99.3724881 Z" id="Path-117-Copy" fill="#000000" transform="translate(15.568229, 52.167644) scale(-1, 1) rotate(5.000000) translate(-15.568229, -52.167644) "></path>
                    </g>
                    <path d="M127.78842,154.078336 C125.11311,145.464465 131.746197,138.408834 134.886553,136.143476 C135.235898,135.891469 135.612054,135.853975 135.711054,136.071923 C135.827378,136.328011 135.641886,136.863891 135.775221,136.741808 C136.925305,135.688781 137.846831,133.103517 138.693729,134.078385 C139.540626,135.053253 134.723252,141.258594 134.888964,141.630859 C136.229044,139.663282 140.986446,132.447516 141.654481,134.286977 C142.322516,136.126438 135.345644,143.245351 135.996698,148.09964 C135.85521,150.041664 141.191655,145.016531 140.734055,146.920489 C140.276455,148.824447 139.583031,149.943009 134.39894,154.078336 C131.297511,155.582363 130.116602,155.103922 127.78842,154.078336 Z" id="Path-4-Copy-8" fill="#0000FF" transform="translate(134.433144, 144.448986) rotate(70.000000) translate(-134.433144, -144.448986) "></path>
                    <path d="M115.050692,148 L141,148 L141,142 L117.05603,142 C116.671624,142 116.321245,142.220347 116.154725,142.566811 C115.564409,143.795047 115.212171,144.689234 115.102644,145.206969 C114.987919,145.749276 114.967324,146.690266 115.050692,148 Z" id="Rectangle-12" stroke="#000000" stroke-width="2" fill="#CCCCCC"></path>
                    <path d="M184,127 L184,148 L248,148 C248.552285,148 249,147.552285 249,147 L249,128 C249,127.447715 248.552285,127 248,127 L184,127 Z" id="Rectangle-17" stroke="#000000" stroke-width="2" fill="#000000"></path>
                    <path d="M184,148 L184,127 L141,127 C140.447715,127 140,127.447715 140,128 L140,147 C140,147.552285 140.447715,148 141,148 L184,148 Z" id="Rectangle-17-Copy" stroke="#000000" stroke-width="2" fill="#FFFFFF"></path>
                    <path d="M56.6365004,148.95726 L56.6365004,132" id="Path-118" stroke="#000000" stroke-width="2" stroke-linecap="round"></path>
                    <polygon id="Rectangle-15" stroke="#000000" stroke-width="2" fill="#000000" points="165 122 179.117997 119.724443 212.974203 119.724443 227 122 227 126 165 126"></polygon>
                    <path d="M153,44 L215,44 L215,115 L153,115 C151.895431,115 151,114.104569 151,113 L151,46 C151,44.8954305 151.895431,44 153,44 Z" id="Rectangle-10-Copy" stroke="#000000" stroke-width="2" fill="#FFFFFF"></path>
                    <path d="M155,101 L165.163729,101" id="Line-3" stroke="#000000" stroke-width="2" stroke-linecap="round"></path>
                    <path d="M155,97 L165.163729,97" id="Line-3-Copy-3" stroke="#000000" stroke-width="2" stroke-linecap="round"></path>
                    <path d="M155,105 L165.163729,105" id="Line-3-Copy" stroke="#000000" stroke-width="2" stroke-linecap="round"></path>
                    <path d="M155,109 L165.163729,109" id="Line-3-Copy-2" stroke="#000000" stroke-width="2" stroke-linecap="round"></path>
                    <rect id="Rectangle-13" stroke="#000000" stroke-width="2" fill="#000000" x="180" y="115" width="32" height="4.5"></rect>
                    <path d="M169,44 L231,44 C232.104569,44 233,44.8954305 233,46 L233,113 C233,114.104569 232.104569,115 231,115 L169,115 L169,44 Z" id="Rectangle-10" stroke="#000000" stroke-width="2" fill="#000000"></path>
                    <path d="M180,101.166006 L235.219161,101.166006 C233.73972,101.637249 233,102.520645 233,103.816193 C233,106.877462 233,109.938731 233,113 L233,113 C233,114.104569 232.104569,115 231,115 L180,115 L180,101.166006 Z" id="Rectangle-10" stroke="#000000" stroke-width="2" fill="#000000"></path>
                    <path d="M224.779191,108.483826 C250.164263,110.051238 261.247713,124.329089 258.029541,151.317377" id="Path-115" stroke="#000000" stroke-width="2"></path>
                    <rect id="Rectangle-26" fill="#CCCCCC" x="0" y="149" width="289" height="11" rx="2"></rect>
                    <path d="M10,158 L21,158 L21,266 C21,267.656854 19.6568542,269 18,269 L13,269 C11.3431458,269 10,267.656854 10,266 L10,158 Z" id="Rectangle-27" fill="#CCCCCC"></path>
                    <path d="M183,158 L278,158 L278,266 C278,267.656854 276.656854,269 275,269 L186,269 C184.343146,269 183,267.656854 183,266 L183,158 Z" id="Rectangle-28" fill="#CCCCCC"></path>
                    <path d="M62.5697883,65.7253769 C72.3188788,63.0753354 83.9156423,63.8597572 92.1945941,65.7253769 C91.1539387,56.359804 91.0217222,36 76.4834756,36 C61.9452289,36 63.4401922,56.5707081 62.5697883,65.7253769 Z" id="Path-3" fill="#0000FF" transform="translate(77.382191, 50.862688) scale(-1, 1) translate(-77.382191, -50.862688) "></path>
                    <ellipse id="Oval-4" stroke="#000000" stroke-width="2" cx="76" cy="53" rx="3" ry="4"></ellipse>
                    <ellipse id="Oval-4-Copy" stroke="#000000" stroke-width="2" cx="86" cy="53" rx="3" ry="4"></ellipse>
                    <path d="M79.5,52.5 L82.5,52.5" id="Line-2" stroke="#000000" stroke-width="2" stroke-linecap="square"></path>
                    <path d="M89,52 C91.036452,51.241489 91.861515,50.6530723 91.475189,50.2347502" id="Path-26" stroke="#000000" stroke-width="2" stroke-linecap="round" stroke-linejoin="round"></path>
                    <path d="M64.7731715,52 C67.9808245,50.1191865 69.9385962,49.123678 70.6464865,49.0134745 C71.7083219,48.8481693 72.7423058,50.7514613 71.2649798,51.5501624" id="Path-26-Copy" stroke="#000000" stroke-width="2" stroke-linecap="round" stroke-linejoin="round" transform="translate(68.386586, 50.501677) scale(-1, 1) translate(-68.386586, -50.501677) "></path>
                    <path d="M95.956544,141.553995 C124.870215,127.861941 116.895459,112.717085 123.986584,93.1576334 C123.986584,115.363405 122.306386,125.796471 120.518679,138.674052" id="Path" stroke="#000000" stroke-width="2" stroke-linecap="round" stroke-linejoin="round" transform="translate(109.971564, 117.355814) scale(-1, 1) translate(-109.971564, -117.355814) "></path>
                    <path d="M207,73 L246,73 C246.552285,73 247,73.4477153 247,74 L247,99.0262931 C247,100.120541 246.120618,101.011638 245.026466,101.026118 L205,101.555834 L205,75 C205,73.8954305 205.895431,73 207,73 Z" id="Rectangle-11" stroke="#000000" stroke-width="2" fill="#000000"></path>
                    <path d="M176.035008,50.0183483 L228.042173,50.0183483 C228.666158,50.0183483 229.254389,50.3095798 229.632692,50.8058103 L246.658194,73.1386266 C246.825611,73.3582315 246.783304,73.6719744 246.563699,73.8393909 C246.476594,73.9057955 246.370095,73.9417611 246.260565,73.9417611 L206.300874,73.9417611 L206.300874,101.572308 L193.452559,101.572308 L193.452559,115.018348 L174.035008,115.018348 L174.035008,52.0183483 C174.035008,50.9137788 174.930438,50.0183483 176.035008,50.0183483 Z" id="Path-113" fill="#FFFFFF"></path>
                    <path d="M174.208236,50.0183483 L227.512692,50.0183483 C228.125436,50.0183483 228.704369,50.2992322 229.083607,50.7805172 L246.844033,73.3200397 C247.004517,73.523708 246.944065,73.8015396 246.709009,73.940594 C246.623381,73.9912499 246.522109,74.0183483 246.418427,74.0183483 L206.045923,74.0183483" id="Path-113" fill="#CCCCCC"></path>
                    <path d="M176.035008,50.0183483 L228.042173,50.0183483 C228.666158,50.0183483 229.254389,50.3095798 229.632692,50.8058103 L246.658194,73.1386266 C246.825611,73.3582315 246.783304,73.6719744 246.563699,73.8393909 C246.476594,73.9057955 246.370095,73.9417611 246.260565,73.9417611 L208.300874,73.9417611 C207.196305,73.9417611 206.300874,74.8371916 206.300874,75.9417611 L206.300874,101.572308 L193.452559,101.572308 L193.452559,115.018348 L174.035008,115.018348 L174.035008,52.0183483 C174.035008,50.9137788 174.930438,50.0183483 176.035008,50.0183483 Z" id="Path-113" stroke="#000000" stroke-width="2"></path>
                    <path d="M110.78842,153.078336 C108.11311,144.464465 114.746197,137.408834 117.886553,135.143476 C118.235898,134.891469 118.612054,134.853975 118.711054,135.071923 C118.827378,135.328011 118.641886,135.863891 118.775221,135.741808 C119.925305,134.688781 120.846831,132.103517 121.693729,133.078385 C122.540626,134.053253 117.723252,140.258594 117.888964,140.630859 C119.229044,138.663282 123.986446,131.447516 124.654481,133.286977 C125.322516,135.126438 118.345644,142.245351 118.996698,147.09964 C118.85521,149.041664 121.258534,144.033989 122.280983,143.767834 C123.303432,143.50168 122.583031,148.943009 117.39894,153.078336 C114.297511,154.582363 113.116602,154.103922 110.78842,153.078336 Z" id="Path-4-Copy-3" fill="#0000FF" transform="translate(117.433144, 143.448986) rotate(70.000000) translate(-117.433144, -143.448986) "></path>
                    <path d="M44.9015172,69.6081649 C55.548213,78.4564705 57.70659,84.2373187 61.3982231,97.1454491 C67.4799133,118.410632 63.3995462,145.349353 96.2484047,145.349353 C132.55293,145.349353 132.35486,101.541264 122.450297,84.7733584 C115.71141,73.3647754 102.185867,61.0686831 66.1185244,63.4184228" id="Path" stroke="#000000" stroke-width="2" stroke-linecap="round" stroke-linejoin="round" transform="translate(86.518379, 104.238229) scale(-1, -1) translate(-86.518379, -104.238229) "></path>
                    <path d="M58.4280577,94.2345282 C58.4280577,111.910733 54.1621511,134.107181 106.324059,140.285977" id="Path-116" stroke="#000000" stroke-width="2" stroke-linecap="round"></path>
                    <path d="M174.5,50.5 L208.5,75.5" id="Line-9" stroke="#000000" stroke-width="2" stroke-linecap="square"></path>
                </g>
            </g>
        </g>
    </g>
</svg>