<svg height="281" viewBox="0 0 591 281" width="591" xmlns="http://www.w3.org/2000/svg"><g fill="none" fill-rule="evenodd" transform="translate(0 -36)"><g transform="translate(0 51)"><g fill="#ccc" transform="translate(0 38)"><path d="m13.315591 1.38896386c-3.85676366-2.11342181-7.68922463-.30186461-11.49738289 5.43467158-5.71223741 8.60480426 14.58716769 71.33011866 19.14574499 81.47137056 3.0390516 6.7608345 9.6872911 6.7608345 19.9447187 0-3.2488187-5.6511628-5.8942262-9.8777093-7.9362222-12.6796395-2.7927477-3.832076-8.0073404-2.6772522-10.0160198-10.4830673-6.004154-23.3324024-10.4878117-39.8184089-11.1181055-45.5544807-.8598324-7.8250179-.3674101-13.88796945 1.4772667-18.18885464z"/><path d="m44.0668369 92.4905244c-4.2435892 1.1655164-6.3653837 3.4955536-6.3653837 6.9901117 0 5.2418369.1863425 9.1970509 19.6140144 12.9249009 19.4276719 3.727851 35.4619532 2.950004 55.3980864 0 13.290756-1.966669 18.383571-6.27497 15.278444-12.9249009z"/><path d="m74.7501175 109.317627h9.4511643v43.968586c0 2.711327-1.5751941 4.066991-4.7255822 4.066991-3.150388 0-4.7255821-1.355664-4.7255821-4.066991z"/><path d="m73.031724 96.5584642h12.8879513v43.9685868c0 2.711327-2.1479919 4.06699-6.4439757 4.06699-4.2959837 0-6.4439756-1.355663-6.4439756-4.06699z"/><path d="m25.5658247 90.5279296c-1.5492624 10.7007324.0420041 16.7023434 4.7737996 18.0048324 4.7317954 1.302489 11.1700876 1.953733 19.3148767 1.953733v-6.108554c-6.9059997-.97603-11.723462-1.784875-14.4523871-2.426536-2.7289251-.64166-3.5612472-4.4494856-2.4969664-11.4234754z"/><path d="m82 145.046618c-19.5754154 0-33.4975348 0-36.4766195 11.575335 0 1.137827 2.3297796.612552 3.0890412 0 1.6309384-6.05577 12.7601311-7.245168 33.3875783-3.568195 0-4.187718 0-6.856765 0-8.00714z"/><path d="m115.895577 145.046618c-19.5754156 0-33.9467077 0-35.895577 11.575335 0 1.137827 2.3589487.612552 3.1182103 0 0-6.784972 10.9257889-7.974371 32.7773667-3.568195 0-4.187718 0-6.856765 0-8.00714z" transform="matrix(-1 0 0 1 195.895576 0)"/><g transform="matrix(.99939083 .0348995 -.0348995 .99939083 42.662423 155.587685)"><path d="m1 0h1.57759026v8.48342059c0 .55228475-.44771525 1-1 1h-.57759026c-.55228475 0-1-.44771525-1-1v-7.48342059c0-.55228475.44771525-1 1-1z"/><path d="m1.718394 0h5.155181v7.759162h-5.155181z"/><path d="m6.01437727 0h1.57759026c.55228475 0 1 .44771525 1 1v7.48342059c0 .55228475-.44771525 1-1 1h-.57759026c-.55228475 0-1-.44771525-1-1z"/></g><ellipse cx="109.569152" cy="174.012216" rx="5.155181" ry="5.172775"/><ellipse cx="106.850758" cy="173.287958" rx="5.155181" ry="5.172775"/><ellipse cx="52.396625" cy="175.874345" rx="5.155181" ry="5.172775"/><ellipse cx="55.833412" cy="175.012216" rx="5.155181" ry="5.172775"/><g transform="translate(109.583529 154.734729)"><path d="m1 0h1.57759026v8.48342059c0 .55228475-.44771525 1-1 1h-.57759026c-.55228475 0-1-.44771525-1-1v-7.48342059c0-.55228475.44771525-1 1-1z"/><path d="m1.718394 0h5.155181v7.759162h-5.155181z"/><path d="m6.01437727 0h1.57759026c.55228475 0 1 .44771525 1 1v7.48342059c0 .55228475-.44771525 1-1 1h-.57759026c-.55228475 0-1-.44771525-1-1z"/></g></g><path d="m21 29.3342508c8.4003633-1.3923238 17.8276308 1.8878879 24.0449269 6.6657492 8.1650154-19.7203427 6.0187587-34.19598132-4.8129025-35.88922357-10.8316611-1.69324224-18.2313423 16.39029397-19.2320244 29.22347437z" fill="#00f"/><path d="m55 71c16.3533708 15.8027789 25.212257 25.1404286 30 29.449361m-9.8483054.550639c-2.4326501-1.5425691-8.6362988-5.7598517-16.0040834-10.7605809-.072938-.0495051-.1631435-.0878787-.2453622-.1320046z" stroke="#000" stroke-linecap="round" stroke-linejoin="round" stroke-width="2"/><path d="m11.3001397 52.9531547c-1.94323787-17.0049504 6.0062288-21.0971339 10.7085518-24.3390197 2.1397278-1.4751759 18.8555338-1.0324516 25.4148974 9.8196713 7.8556692 12.9967928 9.5000249 35.9203614 13.5764111 61.5661937" fill="#fff" stroke="#000" stroke-width="2"/><path d="m184.076056 178.010667c-8.328679.607299-19.284339 2.985187-16.68716 5.367156 0 .394023 15.587707 1.177154 21.593021 0 2.977571-.58366-1.160384-5.640263-4.905861-5.367156z" fill="#00f" transform="matrix(-.8660254 .5 .5 .8660254 242.585535 -65.000598)"/><path d="m155.076056 212.010667c-8.328679.607299-19.284339 2.985187-16.68716 5.367156 0 .394023 15.587707 1.177154 21.593021 0 2.977571-.58366-1.160384-5.640263-4.905861-5.367156z" fill="#00f" transform="matrix(-1 0 0 1 299 0)"/><path d="m36 120.66384c6.975635 14.031366 15.0706561 21.047048 24.2850633 21.047048 13.8216108 0 62.7692157-16.044418 71.3463607-16.044418s32.431465 60.33353 36.958884 60.33353c4.527418 0 3.926453-3.721807 4.409692-5.770771-2.393903-6.640323-16.693146-74.680203-29.931145-77.081652-7.559012-1.371248-41.445083 7.289067-70.1676719 6.348179-4.8117424-.157622-7.67302.480684-16.3686442 1.231946-10.5024753 5.001542-17.346655 8.313588-20.5325389 9.936138z" fill="#000"/><g fill="#ccc"><rect height="7" rx="1" stroke="#000" stroke-width="2" transform="matrix(.98480775 -.17364818 .17364818 .98480775 -16.784403 21.153394)" width="49" x="88" y="103"/><rect height="7" rx="1" stroke="#000" stroke-width="2" transform="matrix(-.34202014 .93969262 -.93969262 -.34202014 260.306671 -25.268693)" width="54" x="112" y="75"/><rect height="5" rx="1" transform="matrix(.98480775 -.17364818 .17364818 .98480775 -16.784403 21.153394)" width="47" x="89" y="104"/></g><path d="m92.6793193 112.062264c-1.7250462-1.479672-1.8283816-2.743069-1.5771387-3.80889 1.7586972-7.460732 10.6623834-13.8588503 11.3371844-13.1070529.230491.2567906-.129709.7546151.039345.6685307.847854-.4317384 1.523709-2.0110553 2.358656-1.7945834 1.268881.3289753-5.3158627 8.2454596-4.9267141 12.1865726.3310071.762982 1.8024001-5.651127 2.5196631-4.367036.717263 1.284092.548948 6.233195-4.1012128 9.945032-2.7820003 1.350003-3.9247367 1.757098-5.6497829.277427z" fill="#00f" transform="matrix(.5 .8660254 -.8660254 .5 138.633629 -33.12049)"/><path d="m89 100.280534c-22.4837611 1.229149-37.7023142.548787-45.6556595-2.0410846-8.8425302-2.8794198-8.8207328-9.749712-12.8007464-35.6332316m-19.2779404-9.9980874c6.3455607 34.8619427 9.8465364 53.7100646 20.0904104 58.0443126 10.2438741 4.334249 51.852938-3.036827 57.4056677-4.600936" stroke="#000" stroke-linecap="round" stroke-linejoin="round" stroke-width="2"/><path d="m32 111 6 10" stroke="#000" stroke-width="2"/><path d="m52.1611317 137.188202c-3.3577017 7.678156 46.6553153 3.954621 66.5418553 0s9.885447 57.200718 18.163844 79.164657c.956471 2.443844 7.8291-2.746335 8.096657-3.794295 4.597089-32.999082 4.394319-63.152565 3.579565-77.679549-.543169-9.684655-3.719385-16.97766-9.528648-21.879015-55.6637144 11.006698-84.6148054 19.069432-86.8532733 24.188202z" fill="#000"/><path d="m82.003584 196.380859c-18.3540588-12.904952-26.8430236-10.006346-36.1612211 1.800033 0 1.18354 1.3871017 2.580165 2.3155824 1.943004 7.3832129-8.313924 17.2001442-7.815746 29.4507938 1.494535 2.9298966-2.295123 4.3948449-4.04098 4.3948449-5.237572z" fill="#ccc" transform="matrix(.76604444 -.64278761 .64278761 .76604444 -110.24367 86.657533)"/><path d="m116.002883 197.26173c-18.3540588-12.904952-26.5150191-9.731117-35.8332167 2.075261 0 1.183541 1.0590974 2.304938 1.9875781 1.667776 7.3832129-8.313924 17.2001442-7.815745 29.4507936 1.494535 2.929897-2.295123 4.394845-4.04098 4.394845-5.237572z" fill="#ccc" transform="matrix(-.76604444 -.64278761 -.64278761 .76604444 299.027407 108.837075)"/></g><path d="m17.268 316.312c-4.732 0-6.968-3.406-6.968-9.386s2.236-9.386 6.968-9.386c3.614 0 5.408 2.028 6.188 4.862l-3.12.884c-.468-1.69-1.17-2.964-3.12-2.964-2.34 0-3.302 1.924-3.302 5.044v3.12c0 3.12.962 5.044 3.302 5.044 1.95 0 2.652-1.274 3.12-2.964l3.12.884c-.78 2.834-2.574 4.862-6.188 4.862zm22.022-.312h-1.95c-1.612 0-2.522-.884-2.678-2.314h-.13c-.494 1.664-1.976 2.626-4.056 2.626-2.678 0-4.42-1.508-4.42-4.03 0-2.704 2.002-4.056 5.954-4.056h2.366v-.884c0-1.69-.806-2.574-2.652-2.574-1.69 0-2.652.728-3.38 1.768l-1.898-1.612c.832-1.482 2.704-2.652 5.616-2.652 3.51 0 5.642 1.69 5.642 4.914v6.318h1.586zm-7.696-1.976c1.586 0 2.782-.806 2.782-2.08v-1.794h-2.288c-1.82 0-2.73.598-2.73 1.716v.52c0 1.066.858 1.638 2.236 1.638zm16.354 2.288c-2.938 0-5.148-.988-6.344-2.548l1.95-1.768c1.092 1.196 2.522 1.898 4.42 1.898 1.664 0 2.756-.546 2.756-1.69 0-.962-.754-1.222-1.846-1.378l-2.158-.338c-2.236-.338-4.368-1.222-4.368-3.874 0-2.782 2.262-4.342 5.902-4.342 2.574 0 4.394.78 5.564 2.08l-1.742 1.924c-.754-.832-2.002-1.586-3.926-1.586-1.664 0-2.548.546-2.548 1.586 0 .962.78 1.248 1.872 1.404l2.132.338c2.262.338 4.394 1.196 4.394 3.848 0 2.756-2.262 4.446-6.058 4.446zm18.174-.312v-2.366h-.13c-.598 1.456-1.742 2.678-3.926 2.678-2.626 0-4.446-1.82-4.446-5.07v-8.658h3.328v8.19c0 1.924.858 2.912 2.522 2.912 1.352 0 2.652-.702 2.652-2.132v-8.97h3.328v13.416zm19.968 0h-1.95c-1.612 0-2.522-.884-2.678-2.314h-.13c-.494 1.664-1.976 2.626-4.056 2.626-2.678 0-4.42-1.508-4.42-4.03 0-2.704 2.002-4.056 5.954-4.056h2.366v-.884c0-1.69-.806-2.574-2.652-2.574-1.69 0-2.652.728-3.38 1.768l-1.898-1.612c.832-1.482 2.704-2.652 5.616-2.652 3.51 0 5.642 1.69 5.642 4.914v6.318h1.586zm-7.696-1.976c1.586 0 2.782-.806 2.782-2.08v-1.794h-2.288c-1.82 0-2.73.598-2.73 1.716v.52c0 1.066.858 1.638 2.236 1.638zm10.478 1.976v-2.626h4.264v-13.988h-4.264v-2.626h7.592v16.614h4.29v2.626zm30.94-18.148h3.406v11.31c0 2.678.156 4.368 2.782 4.368s2.782-1.69 2.782-4.368v-11.31h3.406v10.79c0 5.096-1.014 7.67-6.188 7.67s-6.188-2.574-6.188-7.67zm21.736 18.46c-2.938 0-5.148-.988-6.344-2.548l1.95-1.768c1.092 1.196 2.522 1.898 4.42 1.898 1.664 0 2.756-.546 2.756-1.69 0-.962-.754-1.222-1.846-1.378l-2.158-.338c-2.236-.338-4.368-1.222-4.368-3.874 0-2.782 2.262-4.342 5.902-4.342 2.574 0 4.394.78 5.564 2.08l-1.742 1.924c-.754-.832-2.002-1.586-3.926-1.586-1.664 0-2.548.546-2.548 1.586 0 .962.78 1.248 1.872 1.404l2.132.338c2.262.338 4.394 1.196 4.394 3.848 0 2.756-2.262 4.446-6.058 4.446zm15.964 0c-4.29 0-6.682-2.704-6.682-6.994 0-4.342 2.496-7.046 6.422-7.046 3.874 0 6.318 2.678 6.318 6.734v1.092h-9.412v.338c0 1.924 1.274 3.25 3.458 3.25 1.638 0 2.834-.728 3.64-1.846l1.898 1.898c-.962 1.404-2.808 2.574-5.642 2.574zm-.234-11.596c-1.872 0-3.12 1.3-3.12 3.224v.182h6.084v-.234c0-1.924-1.144-3.172-2.964-3.172zm9.672 11.284v-2.626h3.328v-8.164h-3.328v-2.626h6.656v3.666h.208c.494-1.898 1.638-3.666 4.316-3.666h1.456v3.12h-2.756c-2.106 0-3.224 1.43-3.224 3.146v4.524h4.654v2.626z" fill="#000"/><path d="m373.406 316.148h-3.406v-18.148h6.89c3.51 0 5.46 2.158 5.46 5.616 0 3.432-1.95 5.616-5.46 5.616h-3.484zm0-15.366v5.668h2.782c1.82 0 2.574-.728 2.574-2.34v-.988c0-1.612-.754-2.34-2.574-2.34zm17.914 15.678c-4.056 0-6.552-2.704-6.552-7.02s2.496-7.02 6.552-7.02 6.552 2.704 6.552 7.02-2.496 7.02-6.552 7.02zm0-2.548c1.898 0 3.094-1.196 3.094-3.432v-2.08c0-2.236-1.196-3.432-3.094-3.432s-3.094 1.196-3.094 3.432v2.08c0 2.236 1.196 3.432 3.094 3.432zm9.88 2.236-1.716-13.416h2.782l1.144 11.076h.234l1.82-11.076h3.042l1.794 11.076h.234l1.17-11.076h2.652l-1.716 13.416h-4.03l-1.56-9.854h-.234l-1.586 9.854zm21.632.312c-4.29 0-6.682-2.704-6.682-6.994 0-4.342 2.496-7.046 6.422-7.046 3.874 0 6.318 2.678 6.318 6.734v1.092h-9.412v.338c0 1.924 1.274 3.25 3.458 3.25 1.638 0 2.834-.728 3.64-1.846l1.898 1.898c-.962 1.404-2.808 2.574-5.642 2.574zm-.234-11.596c-1.872 0-3.12 1.3-3.12 3.224v.182h6.084v-.234c0-1.924-1.144-3.172-2.964-3.172zm9.672 11.284v-2.626h3.328v-8.164h-3.328v-2.626h6.656v3.666h.208c.494-1.898 1.638-3.666 4.316-3.666h1.456v3.12h-2.756c-2.106 0-3.224 1.43-3.224 3.146v4.524h4.654v2.626zm30.862-18.148h3.406v11.31c0 2.678.156 4.368 2.782 4.368s2.782-1.69 2.782-4.368v-11.31h3.406v10.79c0 5.096-1.014 7.67-6.188 7.67s-6.188-2.574-6.188-7.67zm21.736 18.46c-2.938 0-5.148-.988-6.344-2.548l1.95-1.768c1.092 1.196 2.522 1.898 4.42 1.898 1.664 0 2.756-.546 2.756-1.69 0-.962-.754-1.222-1.846-1.378l-2.158-.338c-2.236-.338-4.368-1.222-4.368-3.874 0-2.782 2.262-4.342 5.902-4.342 2.574 0 4.394.78 5.564 2.08l-1.742 1.924c-.754-.832-2.002-1.586-3.926-1.586-1.664 0-2.548.546-2.548 1.586 0 .962.78 1.248 1.872 1.404l2.132.338c2.262.338 4.394 1.196 4.394 3.848 0 2.756-2.262 4.446-6.058 4.446zm15.964 0c-4.29 0-6.682-2.704-6.682-6.994 0-4.342 2.496-7.046 6.422-7.046 3.874 0 6.318 2.678 6.318 6.734v1.092h-9.412v.338c0 1.924 1.274 3.25 3.458 3.25 1.638 0 2.834-.728 3.64-1.846l1.898 1.898c-.962 1.404-2.808 2.574-5.642 2.574zm-.234-11.596c-1.872 0-3.12 1.3-3.12 3.224v.182h6.084v-.234c0-1.924-1.144-3.172-2.964-3.172zm9.672 11.284v-2.626h3.328v-8.164h-3.328v-2.626h6.656v3.666h.208c.494-1.898 1.638-3.666 4.316-3.666h1.456v3.12h-2.756c-2.106 0-3.224 1.43-3.224 3.146v4.524h4.654v2.626z" fill="#000"/><g transform="matrix(-1 0 0 1 591 0)"><path d="m55.8876786 259.045579c8.0242906-9.363719 19.6914928-14.045579 35.0016066-14.045579 15.3079578 0 26.9740298 4.680541 34.9982158 14.041623l-.000026.000022c.829121.967259.717138 2.423513-.250121 3.252633-.418089.35838-.950589.555372-1.501256.555372l-3.181971-.000006c-.895108 0-1.743458-.399699-2.313362-1.089936-5.871901-7.11174-15.122394-10.667609-27.7514798-10.667609-12.6296935 0-21.8834361 3.556212-27.7612277 10.668636l.0000048.000004c-.5699155.689626-1.4178769 1.088911-2.3125211 1.088911h-3.177973c-1.2727367 0-2.3044936-1.031757-2.3044936-2.304494 0-.550023.1967245-1.081908.5546296-1.499555z" fill="#ccc"/><rect fill="#ccc" height="14" rx="2" width="5.5" x="87" y="249"/><path d="m26.9232328 82.3132679c2.18277-18.6964321 14.3018912-28.0446482 36.3573635-28.0446482.7999102 6.8613568.3857324 10.8822745-1.2425335 12.0627533-3.8000787 2.7550243-9.9757233 7.0957578-12.4823597 10.9275571-5.7326598 8.7632982-5.712594 17.0747885-5.2835089 20.8481838.359384 3.1604401.5629841 21.4333631 5.2835089 25.4486621 1.5788116 1.342944 6.5404502 5.618035 7.259053 10.629898.6398816 4.462824-1.3436664 11.423826 0 14.647028 1.9587346 4.698634 5.3257741 10.294763 10.1011186 16.788388 33.7793423-1.457398 52.9264423-1.457398 57.4412983 0 7.690334 2.482445 8.855426 21.867378 0 21.867378-20.303091 0-69.0071721 7.585526-80.0849788-6.298658-18.75-23.5-20.6231165-70.831894-17.3489614-98.8765421z" fill="#ccc"/><path d="m82 183h11v63h-11z" fill="#ccc"/><path d="m53.7884383 155.119954h57.2115617v11.087665c-7.844214 5.107725-15.1436813 7.661588-21.8984005 7.661588-10.1320789 0-25.0444478 2.398897-30.9887845 0-3.9628911-1.599265-5.40435-7.849016-4.3243767-18.749253z" fill="#000"/><g transform="matrix(.98480775 -.17364818 .17364818 .98480775 53.984808 156.82026)"><path d="m14.691185 101.026962c-6.5042037.765251-15.36669868 3.35284-13.33845665 6.354335 0 .496504 13.45318565 2.128646 18.14297955.645326.9336662-.295306 2.5996326-1.480167 1.9332739-2.8389-.9932148-2.025208-4.9872576-4.366721-6.7377968-4.160761z" fill="#00f" transform="matrix(.76604444 -.64278761 .64278761 .76604444 -64.731676 31.800679)"/><path d="m13.0102169 98.0045698c-3.450853-3.7670596-14.61201287-53.9958042-11.87319427-91.15470196.73157724-9.92566788 13.01543637-6.66165752 16.64559867-1.41839773s2.2896434 87.63772369 2.2896434 91.98894149c0 4.3512174-3.6111948 4.3512174-7.0620478.5841582z" fill="#000"/></g><path d="m26.8184932 100.011556c-8.6907954.657907-20.12278823 3.233952-17.41268913 5.814419 0 .426858 16.26543383 1.27525 22.53184883 0 3.1070298-.632298-1.2108358-6.1102855-5.1191597-5.814419z" fill="#00f" transform="matrix(-.98480775 -.17364818 -.17364818 .98480775 143.9422805 161.29322356)"/><path d="m19.5714663 99.3724881c-2.0692432-6.6791548-16.41309174-60.9444447-14.5561723-91.22942582.60647033-9.89108213 13.1635001-8.1630692 16.7936624-2.86789594s4.4776471 89.11552426 4.4776471 93.50982336c0 4.3942993-4.6458941 7.2666533-6.7151372.5874984z" fill="#000" transform="matrix(-.9961946967 -.08715574837 -.08715574837 .9961946967 128.90894776858 157.46622497859)"/><path d="m127.78842 154.078336c-2.67531-8.613871 3.957777-15.669502 7.098133-17.93486.349345-.252007.725501-.289501.824501-.071553.116324.256088-.069168.791968.064167.669885 1.150084-1.053027 2.07161-3.638291 2.918508-2.663423.846897.974868-3.970477 7.180209-3.804765 7.552474 1.34008-1.967577 6.097482-9.183343 6.765517-7.343882s-6.308837 8.958374-5.657783 13.812663c-.141488 1.942024 5.194957-3.083109 4.737357-1.179151s-1.151024 3.02252-6.335115 7.157847c-3.101429 1.504027-4.282338 1.025586-6.61052 0z" fill="#00f" transform="matrix(.34202014 .93969262 -.93969262 .34202014 224.191947 -31.28131)"/><g stroke="#000" stroke-width="2"><path d="m115.050692 148h25.949308v-6h-23.94397c-.384406 0-.734785.220347-.901305.566811-.590316 1.228236-.942554 2.122423-1.052081 2.640158-.114725.542307-.13532 1.483297-.051952 2.793031z" fill="#ccc"/><path d="m184 127v21h64c.552285 0 1-.447715 1-1v-19c0-.552285-.447715-1-1-1z" fill="#000"/><path d="m184 148v-21h-43c-.552285 0-1 .447715-1 1v19c0 .552285.447715 1 1 1z" fill="#fff"/><path d="m56.6365004 148.95726v-16.95726" stroke-linecap="round"/><path d="m165 122 14.117997-2.275557h33.856206l14.025797 2.275557v4h-62z" fill="#000"/><path d="m153 44h62v71h-62c-1.104569 0-2-.895431-2-2v-67c0-1.1045695.895431-2 2-2z" fill="#fff"/><path d="m155 101h10.163729" stroke-linecap="round"/><path d="m155 97h10.163729" stroke-linecap="round"/><path d="m155 105h10.163729" stroke-linecap="round"/><path d="m155 109h10.163729" stroke-linecap="round"/><path d="m180 115h32v4.5h-32z" fill="#000"/><path d="m169 44h62c1.104569 0 2 .8954305 2 2v67c0 1.104569-.895431 2-2 2h-62z" fill="#000"/><path d="m180 101.166006h55.219161c-1.479441.471243-2.219161 1.354639-2.219161 2.650187v9.183807c0 1.104569-.895431 2-2 2h-51z" fill="#000"/><path d="m224.779191 108.483826c25.385072 1.567412 36.468522 15.845263 33.25035 42.833551"/></g><rect fill="#ccc" height="11" rx="2" width="289" y="149"/><path d="m10 158h11v108c0 1.656854-1.3431458 3-3 3h-5c-1.6568542 0-3-1.343146-3-3z" fill="#ccc"/><path d="m183 158h95v108c0 1.656854-1.343146 3-3 3h-89c-1.656854 0-3-1.343146-3-3z" fill="#ccc"/><path d="m62.5697883 65.7253769c9.7490905-2.6500415 21.345854-1.8656197 29.6248058 0-1.0406554-9.3655729-1.1728719-29.7253769-15.7111185-29.7253769-14.5382467 0-13.0432834 20.5707081-13.9136873 29.7253769z" fill="#00f" transform="matrix(-1 0 0 1 154.764382 0)"/><ellipse cx="76" cy="53" rx="3" ry="4" stroke="#000" stroke-width="2"/><ellipse cx="86" cy="53" rx="3" ry="4" stroke="#000" stroke-width="2"/><path d="m79.5 52.5h3" stroke="#000" stroke-linecap="square" stroke-width="2"/><path d="m89 52c2.036452-.758511 2.861515-1.3469277 2.475189-1.7652498" stroke="#000" stroke-linecap="round" stroke-linejoin="round" stroke-width="2"/><path d="m64.7731715 52c3.207653-1.8808135 5.1654247-2.876322 5.873315-2.9865255 1.0618354-.1653052 2.0958193 1.7379868.6184933 2.5366879" stroke="#000" stroke-linecap="round" stroke-linejoin="round" stroke-width="2" transform="matrix(-1 0 0 1 136.773172 0)"/><path d="m95.956544 141.553995c28.913671-13.692054 20.938915-28.83691 28.03004-48.3963616 0 22.2057716-1.680198 32.6388376-3.467905 45.5164186" stroke="#000" stroke-linecap="round" stroke-linejoin="round" stroke-width="2" transform="matrix(-1 0 0 1 219.943128 0)"/><path d="m207 73h39c.552285 0 1 .4477153 1 1v25.0262931c0 1.0942479-.879382 1.9853449-1.973534 1.9998249l-40.026466.529716v-26.555834c0-1.1045695.895431-2 2-2z" fill="#000" stroke="#000" stroke-width="2"/><path d="m176.035008 50.0183483h52.007165c.623985 0 1.212216.2912315 1.590519.787462l17.025502 22.3328163c.167417.2196049.12511.5333478-.094495.7007643-.087105.0664046-.193604.1023702-.303134.1023702h-39.959691v27.6305469h-12.848315v13.44604h-19.417551v-62.9999997c0-1.1045695.89543-2 2-2z" fill="#fff"/><path d="m174.208236 50.0183483h53.304456c.612744 0 1.191677.2808839 1.570915.7621689l17.760426 22.5395225c.160484.2036683.100032.4814999-.135024.6205543-.085628.0506559-.1869.0777543-.290582.0777543h-40.372504" fill="#ccc"/><path d="m176.035008 50.0183483h52.007165c.623985 0 1.212216.2912315 1.590519.787462l17.025502 22.3328163c.167417.2196049.12511.5333478-.094495.7007643-.087105.0664046-.193604.1023702-.303134.1023702h-37.959691c-1.104569 0-2 .8954305-2 2v25.6305469h-12.848315v13.44604h-19.417551v-62.9999997c0-1.1045695.89543-2 2-2z" stroke="#000" stroke-width="2"/><path d="m110.78842 153.078336c-2.67531-8.613871 3.957777-15.669502 7.098133-17.93486.349345-.252007.725501-.289501.824501-.071553.116324.256088-.069168.791968.064167.669885 1.150084-1.053027 2.07161-3.638291 2.918508-2.663423.846897.974868-3.970477 7.180209-3.804765 7.552474 1.34008-1.967577 6.097482-9.183343 6.765517-7.343882s-6.308837 8.958374-5.657783 13.812663c-.141488 1.942024 2.261836-3.065651 3.284285-3.331806 1.022449-.266154.302048 5.175175-4.882043 9.310502-3.101429 1.504027-4.282338 1.025586-6.61052 0z" fill="#00f" transform="matrix(.34202014 .93969262 -.93969262 .34202014 212.066597 -15.964516)"/><path d="m44.9015172 69.6081649c10.6466958 8.8483056 12.8050728 14.6291538 16.4967059 27.5372842 6.0816902 21.2651829 2.0013231 48.2039039 34.8501816 48.2039039 36.3045253 0 36.1064553-43.808089 26.2018923-60.5759946-6.738887-11.408583-20.26443-23.7046753-56.3317726-21.3549356" stroke="#000" stroke-linecap="round" stroke-linejoin="round" stroke-width="2" transform="matrix(-1 0 0 -1 173.036758 208.476458)"/><path d="m58.4280577 94.2345282c0 17.6762048-4.2659066 39.8726528 47.8960013 46.0514488" stroke="#000" stroke-linecap="round" stroke-width="2"/><path d="m174.5 50.5 34 25" stroke="#000" stroke-linecap="square" stroke-width="2"/></g></g></svg>