<?xml version="1.0" encoding="UTF-8"?>
<svg width="602px" height="212px" viewBox="0 0 602 212" version="1.1" xmlns="http://www.w3.org/2000/svg" xmlns:xlink="http://www.w3.org/1999/xlink">
    <!-- Generator: Sketch 50.2 (55047) - http://www.bohemiancoding.com/sketch -->
    <title>datatypes</title>
    <desc>Created with Sketch.</desc>
    <defs></defs>
    <g id="Page-1" stroke="none" stroke-width="1" fill="none" fill-rule="evenodd">
        <g id="charts" transform="translate(-699.000000, -1314.000000)">
            <g id="datatypes" transform="translate(699.000000, 1314.000000)">
                <rect id="Rectangle-17" fill="#CCCCCC" x="2" y="60" width="600" height="30"></rect>
                <rect id="Rectangle-17-Copy-10" fill="#000000" x="2" y="0" width="600" height="30"></rect>
                <path d="M26.16,19.156 C23.859,19.156 22.754,17.466 22.754,14.463 C22.754,11.46 23.859,9.77 26.16,9.77 C27.915,9.77 28.721,10.784 29.137,12.019 L27.824,12.461 C27.551,11.629 27.174,10.979 26.147,10.979 C24.86,10.979 24.301,12.032 24.301,13.696 L24.301,15.23 C24.301,16.894 24.86,17.947 26.147,17.947 C27.174,17.947 27.551,17.297 27.824,16.465 L29.137,16.907 C28.721,18.142 27.915,19.156 26.16,19.156 Z M37.067,19 L36.196,19 C35.39,19 34.987,18.545 34.909,17.869 L34.844,17.869 C34.584,18.675 33.882,19.156 32.829,19.156 C31.464,19.156 30.58,18.389 30.58,17.128 C30.58,15.828 31.529,15.126 33.518,15.126 L34.805,15.126 L34.805,14.606 C34.805,13.709 34.324,13.241 33.362,13.241 C32.504,13.241 31.997,13.605 31.633,14.164 L30.788,13.475 C31.165,12.747 32.075,12.136 33.492,12.136 C35.182,12.136 36.222,12.981 36.222,14.515 L36.222,17.882 L37.067,17.882 L37.067,19 Z M33.232,18.116 C34.142,18.116 34.805,17.661 34.805,16.998 L34.805,16.023 L33.544,16.023 C32.504,16.023 32.01,16.348 32.01,16.946 L32.01,17.206 C32.01,17.804 32.478,18.116 33.232,18.116 Z M44.464,19 L41.903,19 C40.733,19 40.187,18.298 40.187,17.297 L40.187,13.436 L38.12,13.436 L38.12,12.292 L39.589,12.292 C40.083,12.292 40.278,12.123 40.278,11.603 L40.278,9.926 L41.604,9.926 L41.604,12.292 L44.464,12.292 L44.464,13.436 L41.604,13.436 L41.604,17.856 L44.464,17.856 L44.464,19 Z M49.443,19.156 C47.389,19.156 46.18,17.791 46.18,15.659 C46.18,13.501 47.428,12.136 49.339,12.136 C51.224,12.136 52.42,13.488 52.42,15.464 L52.42,15.997 L47.61,15.997 L47.61,16.218 C47.61,17.271 48.312,18.012 49.469,18.012 C50.327,18.012 50.951,17.609 51.328,16.985 L52.212,17.765 C51.757,18.545 50.821,19.156 49.443,19.156 Z M49.339,13.215 C48.325,13.215 47.61,13.956 47.61,14.996 L47.61,15.087 L50.977,15.087 L50.977,14.957 C50.977,13.904 50.327,13.215 49.339,13.215 Z M60.61,19.728 C60.61,21.106 59.453,21.756 57.087,21.756 C54.773,21.756 53.967,21.145 53.967,20.144 C53.967,19.416 54.396,19.039 55.137,18.844 L55.137,18.714 C54.682,18.545 54.396,18.246 54.396,17.739 C54.396,17.076 54.903,16.777 55.605,16.608 L55.605,16.543 C54.799,16.166 54.318,15.451 54.318,14.489 C54.318,13.059 55.397,12.136 57.048,12.136 C57.516,12.136 57.945,12.214 58.309,12.357 L58.309,12.136 C58.309,11.616 58.608,11.226 59.206,11.226 L60.428,11.226 L60.428,12.344 L58.868,12.344 L58.868,12.656 C59.453,13.059 59.778,13.683 59.778,14.489 C59.778,15.919 58.699,16.829 57.048,16.829 C56.749,16.829 56.476,16.803 56.216,16.751 C55.904,16.829 55.514,17.037 55.514,17.401 C55.514,17.817 55.969,17.869 56.554,17.869 L58.062,17.869 C59.869,17.869 60.61,18.623 60.61,19.728 Z M59.284,19.819 C59.284,19.364 58.972,19.078 58.023,19.078 L55.696,19.078 C55.371,19.234 55.202,19.481 55.202,19.832 C55.202,20.339 55.592,20.755 56.58,20.755 L57.633,20.755 C58.699,20.755 59.284,20.43 59.284,19.819 Z M57.048,15.854 C57.958,15.854 58.387,15.373 58.387,14.658 L58.387,14.307 C58.387,13.592 57.958,13.111 57.048,13.111 C56.138,13.111 55.709,13.592 55.709,14.307 L55.709,14.658 C55.709,15.373 56.138,15.854 57.048,15.854 Z M64.9,19.156 C62.924,19.156 61.715,17.791 61.715,15.646 C61.715,13.501 62.924,12.136 64.9,12.136 C66.876,12.136 68.085,13.501 68.085,15.646 C68.085,17.791 66.876,19.156 64.9,19.156 Z M64.9,18.038 C65.927,18.038 66.603,17.401 66.603,16.153 L66.603,15.139 C66.603,13.891 65.927,13.254 64.9,13.254 C63.873,13.254 63.197,13.891 63.197,15.139 L63.197,16.153 C63.197,17.401 63.873,18.038 64.9,18.038 Z M69.788,19 L69.788,17.856 L71.569,17.856 L71.569,13.436 L69.788,13.436 L69.788,12.292 L72.986,12.292 L72.986,14.073 L73.064,14.073 C73.324,13.137 73.909,12.292 75.274,12.292 L76.08,12.292 L76.08,13.644 L74.754,13.644 C73.597,13.644 72.986,14.411 72.986,15.347 L72.986,17.856 L75.417,17.856 L75.417,19 L69.788,19 Z M81.397,15.1 L82.463,12.292 L83.893,12.292 L80.643,20.3 C80.292,21.158 79.811,21.6 78.745,21.6 L77.614,21.6 L77.614,20.456 L79.2,20.456 L79.811,18.909 L77.107,12.292 L78.589,12.292 L79.655,15.1 L80.487,17.401 L80.565,17.401 L81.397,15.1 Z" id="Category" fill="#FFFFFF"></path>
                <path d="M215.9,19.156 C213.599,19.156 212.572,17.427 212.572,14.463 C212.572,11.499 213.599,9.77 215.9,9.77 C218.201,9.77 219.228,11.499 219.228,14.463 C219.228,17.427 218.201,19.156 215.9,19.156 Z M215.9,17.947 C217.2,17.947 217.681,16.894 217.681,15.217 L217.681,13.696 C217.681,12.032 217.2,10.979 215.9,10.979 C214.6,10.979 214.119,12.032 214.119,13.696 L214.119,15.23 C214.119,16.894 214.6,17.947 215.9,17.947 Z M220.827,21.6 L220.827,12.292 L222.244,12.292 L222.244,13.436 L222.322,13.436 C222.712,12.63 223.362,12.136 224.35,12.136 C225.923,12.136 226.937,13.345 226.937,15.646 C226.937,17.947 225.923,19.156 224.35,19.156 C223.362,19.156 222.712,18.662 222.322,17.856 L222.244,17.856 L222.244,21.6 L220.827,21.6 Z M223.765,17.999 C224.831,17.999 225.442,17.284 225.442,16.192 L225.442,15.1 C225.442,14.008 224.831,13.293 223.765,13.293 C222.946,13.293 222.244,13.709 222.244,14.528 L222.244,16.764 C222.244,17.583 222.946,17.999 223.765,17.999 Z M231.643,19.156 C229.589,19.156 228.38,17.791 228.38,15.659 C228.38,13.501 229.628,12.136 231.539,12.136 C233.424,12.136 234.62,13.488 234.62,15.464 L234.62,15.997 L229.81,15.997 L229.81,16.218 C229.81,17.271 230.512,18.012 231.669,18.012 C232.527,18.012 233.151,17.609 233.528,16.985 L234.412,17.765 C233.957,18.545 233.021,19.156 231.643,19.156 Z M231.539,13.215 C230.525,13.215 229.81,13.956 229.81,14.996 L229.81,15.087 L233.177,15.087 L233.177,14.957 C233.177,13.904 232.527,13.215 231.539,13.215 Z M236.388,19 L236.388,17.856 L238.169,17.856 L238.169,13.436 L236.388,13.436 L236.388,12.292 L239.586,12.292 L239.586,14.073 L239.664,14.073 C239.924,13.137 240.509,12.292 241.874,12.292 L242.68,12.292 L242.68,13.644 L241.354,13.644 C240.197,13.644 239.586,14.411 239.586,15.347 L239.586,17.856 L242.017,17.856 L242.017,19 L236.388,19 Z M250.467,19 L249.596,19 C248.79,19 248.387,18.545 248.309,17.869 L248.244,17.869 C247.984,18.675 247.282,19.156 246.229,19.156 C244.864,19.156 243.98,18.389 243.98,17.128 C243.98,15.828 244.929,15.126 246.918,15.126 L248.205,15.126 L248.205,14.606 C248.205,13.709 247.724,13.241 246.762,13.241 C245.904,13.241 245.397,13.605 245.033,14.164 L244.188,13.475 C244.565,12.747 245.475,12.136 246.892,12.136 C248.582,12.136 249.622,12.981 249.622,14.515 L249.622,17.882 L250.467,17.882 L250.467,19 Z M246.632,18.116 C247.542,18.116 248.205,17.661 248.205,16.998 L248.205,16.023 L246.944,16.023 C245.904,16.023 245.41,16.348 245.41,16.946 L245.41,17.206 C245.41,17.804 245.878,18.116 246.632,18.116 Z M257.864,19 L255.303,19 C254.133,19 253.587,18.298 253.587,17.297 L253.587,13.436 L251.52,13.436 L251.52,12.292 L252.989,12.292 C253.483,12.292 253.678,12.123 253.678,11.603 L253.678,9.926 L255.004,9.926 L255.004,12.292 L257.864,12.292 L257.864,13.436 L255.004,13.436 L255.004,17.856 L257.864,17.856 L257.864,19 Z M263.116,11.07 C262.401,11.07 262.141,10.732 262.141,10.303 L262.141,10.03 C262.141,9.601 262.401,9.263 263.103,9.263 C263.818,9.263 264.078,9.601 264.078,10.03 L264.078,10.303 C264.078,10.732 263.818,11.07 263.116,11.07 Z M260.113,19 L260.113,17.856 L262.401,17.856 L262.401,13.436 L260.113,13.436 L260.113,12.292 L263.818,12.292 L263.818,17.856 L265.963,17.856 L265.963,19 L260.113,19 Z M270.5,19.156 C268.524,19.156 267.315,17.791 267.315,15.646 C267.315,13.501 268.524,12.136 270.5,12.136 C272.476,12.136 273.685,13.501 273.685,15.646 C273.685,17.791 272.476,19.156 270.5,19.156 Z M270.5,18.038 C271.527,18.038 272.203,17.401 272.203,16.153 L272.203,15.139 C272.203,13.891 271.527,13.254 270.5,13.254 C269.473,13.254 268.797,13.891 268.797,15.139 L268.797,16.153 C268.797,17.401 269.473,18.038 270.5,18.038 Z M276.909,19 L275.492,19 L275.492,12.292 L276.909,12.292 L276.909,13.436 L276.974,13.436 C277.26,12.734 277.806,12.136 278.911,12.136 C280.263,12.136 281.173,13.059 281.173,14.684 L281.173,19 L279.756,19 L279.756,14.892 C279.756,13.826 279.275,13.293 278.365,13.293 C277.637,13.293 276.909,13.67 276.909,14.45 L276.909,19 Z" id="Operation" fill="#FFFFFF"></path>
                <path d="M411.066,19 L411.066,9.926 L413.77,9.926 C416.071,9.926 417.189,11.512 417.189,14.463 C417.189,17.414 416.071,19 413.77,19 L411.066,19 Z M412.509,17.804 L413.679,17.804 C415.005,17.804 415.655,16.868 415.655,15.217 L415.655,13.709 C415.655,12.058 415.005,11.122 413.679,11.122 L412.509,11.122 L412.509,17.804 Z M425.067,19 L424.196,19 C423.39,19 422.987,18.545 422.909,17.869 L422.844,17.869 C422.584,18.675 421.882,19.156 420.829,19.156 C419.464,19.156 418.58,18.389 418.58,17.128 C418.58,15.828 419.529,15.126 421.518,15.126 L422.805,15.126 L422.805,14.606 C422.805,13.709 422.324,13.241 421.362,13.241 C420.504,13.241 419.997,13.605 419.633,14.164 L418.788,13.475 C419.165,12.747 420.075,12.136 421.492,12.136 C423.182,12.136 424.222,12.981 424.222,14.515 L424.222,17.882 L425.067,17.882 L425.067,19 Z M421.232,18.116 C422.142,18.116 422.805,17.661 422.805,16.998 L422.805,16.023 L421.544,16.023 C420.504,16.023 420.01,16.348 420.01,16.946 L420.01,17.206 C420.01,17.804 420.478,18.116 421.232,18.116 Z M432.464,19 L429.903,19 C428.733,19 428.187,18.298 428.187,17.297 L428.187,13.436 L426.12,13.436 L426.12,12.292 L427.589,12.292 C428.083,12.292 428.278,12.123 428.278,11.603 L428.278,9.926 L429.604,9.926 L429.604,12.292 L432.464,12.292 L432.464,13.436 L429.604,13.436 L429.604,17.856 L432.464,17.856 L432.464,19 Z M440.667,19 L439.796,19 C438.99,19 438.587,18.545 438.509,17.869 L438.444,17.869 C438.184,18.675 437.482,19.156 436.429,19.156 C435.064,19.156 434.18,18.389 434.18,17.128 C434.18,15.828 435.129,15.126 437.118,15.126 L438.405,15.126 L438.405,14.606 C438.405,13.709 437.924,13.241 436.962,13.241 C436.104,13.241 435.597,13.605 435.233,14.164 L434.388,13.475 C434.765,12.747 435.675,12.136 437.092,12.136 C438.782,12.136 439.822,12.981 439.822,14.515 L439.822,17.882 L440.667,17.882 L440.667,19 Z M436.832,18.116 C437.742,18.116 438.405,17.661 438.405,16.998 L438.405,16.023 L437.144,16.023 C436.104,16.023 435.61,16.348 435.61,16.946 L435.61,17.206 C435.61,17.804 436.078,18.116 436.832,18.116 Z M456.475,11.148 L453.628,11.148 L453.628,19 L452.172,19 L452.172,11.148 L449.325,11.148 L449.325,9.926 L456.475,9.926 L456.475,11.148 Z M461.597,15.1 L462.663,12.292 L464.093,12.292 L460.843,20.3 C460.492,21.158 460.011,21.6 458.945,21.6 L457.814,21.6 L457.814,20.456 L459.4,20.456 L460.011,18.909 L457.307,12.292 L458.789,12.292 L459.855,15.1 L460.687,17.401 L460.765,17.401 L461.597,15.1 Z M465.627,21.6 L465.627,12.292 L467.044,12.292 L467.044,13.436 L467.122,13.436 C467.512,12.63 468.162,12.136 469.15,12.136 C470.723,12.136 471.737,13.345 471.737,15.646 C471.737,17.947 470.723,19.156 469.15,19.156 C468.162,19.156 467.512,18.662 467.122,17.856 L467.044,17.856 L467.044,21.6 L465.627,21.6 Z M468.565,17.999 C469.631,17.999 470.242,17.284 470.242,16.192 L470.242,15.1 C470.242,14.008 469.631,13.293 468.565,13.293 C467.746,13.293 467.044,13.709 467.044,14.528 L467.044,16.764 C467.044,17.583 467.746,17.999 468.565,17.999 Z M476.443,19.156 C474.389,19.156 473.18,17.791 473.18,15.659 C473.18,13.501 474.428,12.136 476.339,12.136 C478.224,12.136 479.42,13.488 479.42,15.464 L479.42,15.997 L474.61,15.997 L474.61,16.218 C474.61,17.271 475.312,18.012 476.469,18.012 C477.327,18.012 477.951,17.609 478.328,16.985 L479.212,17.765 C478.757,18.545 477.821,19.156 476.443,19.156 Z M476.339,13.215 C475.325,13.215 474.61,13.956 474.61,14.996 L474.61,15.087 L477.977,15.087 L477.977,14.957 C477.977,13.904 477.327,13.215 476.339,13.215 Z" id="Data-Type" fill="#FFFFFF"></path>
                <rect id="Rectangle-17-Copy-3" fill="#CCCCCC" x="2" y="120" width="600" height="30"></rect>
                <rect id="Rectangle-17-Copy-11" fill="#CCCCCC" x="2" y="180" width="600" height="30"></rect>
                <rect id="Rectangle-17-Copy" fill="#FFFFFF" x="2" y="30" width="600" height="30"></rect>
                <rect id="Rectangle-17-Copy-2" fill="#FFFFFF" x="2" y="90" width="600" height="30"></rect>
                <rect id="Rectangle-17-Copy-7" fill="#FFFFFF" x="0" y="150" width="600" height="30"></rect>
                <rect id="Rectangle-17-Copy-4" fill="#FFFFFF" x="2" y="150" width="600" height="30"></rect>
                <rect id="Rectangle-17-Copy" stroke="#000000" stroke-width="2" x="3" y="29" width="598" height="182"></rect>
                <path d="M24.262,50 L23.17,50 L23.17,40.926 L26.472,40.926 C28.149,40.926 29.059,41.901 29.059,43.539 C29.059,45.177 28.149,46.152 26.472,46.152 L24.262,46.152 L24.262,50 Z M24.262,41.875 L24.262,45.203 L26.446,45.203 C27.356,45.203 27.902,44.722 27.902,43.877 L27.902,43.201 C27.902,42.356 27.356,41.875 26.446,41.875 L24.262,41.875 Z M36.95,50 L36.235,50 C35.429,50 35.117,49.532 35.039,48.908 L34.974,48.908 C34.688,49.675 34.051,50.156 32.959,50.156 C31.555,50.156 30.658,49.376 30.658,48.115 C30.658,46.88 31.529,46.165 33.544,46.165 L34.974,46.165 L34.974,45.502 C34.974,44.527 34.389,44.02 33.375,44.02 C32.478,44.02 31.932,44.397 31.581,45.008 L30.879,44.488 C31.217,43.786 32.075,43.136 33.44,43.136 C35.013,43.136 36.014,43.981 36.014,45.398 L36.014,49.09 L36.95,49.09 L36.95,50 Z M33.141,49.285 C34.207,49.285 34.974,48.739 34.974,48.05 L34.974,46.945 L33.544,46.945 C32.309,46.945 31.75,47.309 31.75,47.959 L31.75,48.232 C31.75,48.921 32.283,49.285 33.141,49.285 Z M44.438,50 L41.825,50 C40.811,50 40.343,49.363 40.343,48.466 L40.343,44.176 L38.107,44.176 L38.107,43.292 L39.771,43.292 C40.213,43.292 40.382,43.136 40.382,42.681 L40.382,40.926 L41.383,40.926 L41.383,43.292 L44.438,43.292 L44.438,44.176 L41.383,44.176 L41.383,49.116 L44.438,49.116 L44.438,50 Z M49.716,41.81 C49.118,41.81 48.897,41.524 48.897,41.147 L48.897,40.939 C48.897,40.562 49.118,40.276 49.716,40.276 C50.314,40.276 50.535,40.562 50.535,40.939 L50.535,41.147 C50.535,41.524 50.314,41.81 49.716,41.81 Z M46.778,50 L46.778,49.116 L49.196,49.116 L49.196,44.176 L46.778,44.176 L46.778,43.292 L50.236,43.292 L50.236,49.116 L52.498,49.116 L52.498,50 L46.778,50 Z M57.217,50.156 C55.293,50.156 54.071,48.778 54.071,46.659 C54.071,44.514 55.332,43.136 57.152,43.136 C58.959,43.136 60.129,44.514 60.129,46.412 L60.129,46.906 L55.163,46.906 L55.163,47.218 C55.163,48.401 55.956,49.259 57.217,49.259 C58.114,49.259 58.79,48.817 59.141,48.089 L59.908,48.609 C59.505,49.506 58.543,50.156 57.217,50.156 Z M57.152,43.994 C56.008,43.994 55.163,44.865 55.163,46.035 L55.163,46.126 L59.011,46.126 L59.011,45.983 C59.011,44.8 58.257,43.994 57.152,43.994 Z M63.314,50 L62.274,50 L62.274,43.292 L63.314,43.292 L63.314,44.384 L63.366,44.384 C63.652,43.721 64.172,43.136 65.277,43.136 C66.681,43.136 67.604,44.072 67.604,45.697 L67.604,50 L66.564,50 L66.564,45.879 C66.564,44.657 66.005,44.059 64.978,44.059 C64.146,44.059 63.314,44.462 63.314,45.346 L63.314,50 Z M75.638,50 L73.025,50 C72.011,50 71.543,49.363 71.543,48.466 L71.543,44.176 L69.307,44.176 L69.307,43.292 L70.971,43.292 C71.413,43.292 71.582,43.136 71.582,42.681 L71.582,40.926 L72.583,40.926 L72.583,43.292 L75.638,43.292 L75.638,44.176 L72.583,44.176 L72.583,49.116 L75.638,49.116 L75.638,50 Z M89.613,50 L86.519,42.317 L86.428,42.317 L86.428,50 L85.44,50 L85.44,40.926 L86.987,40.926 L90.081,48.531 L90.172,48.531 L90.172,40.926 L91.16,40.926 L91.16,50 L89.613,50 Z M99.35,50 L98.635,50 C97.829,50 97.517,49.532 97.439,48.908 L97.374,48.908 C97.088,49.675 96.451,50.156 95.359,50.156 C93.955,50.156 93.058,49.376 93.058,48.115 C93.058,46.88 93.929,46.165 95.944,46.165 L97.374,46.165 L97.374,45.502 C97.374,44.527 96.789,44.02 95.775,44.02 C94.878,44.02 94.332,44.397 93.981,45.008 L93.279,44.488 C93.617,43.786 94.475,43.136 95.84,43.136 C97.413,43.136 98.414,43.981 98.414,45.398 L98.414,49.09 L99.35,49.09 L99.35,50 Z M95.541,49.285 C96.607,49.285 97.374,48.739 97.374,48.05 L97.374,46.945 L95.944,46.945 C94.709,46.945 94.15,47.309 94.15,47.959 L94.15,48.232 C94.15,48.921 94.683,49.285 95.541,49.285 Z M101.664,50 L100.702,50 L100.702,43.292 L101.664,43.292 L101.664,44.072 L101.716,44.072 C101.924,43.552 102.262,43.136 103.003,43.136 C103.77,43.136 104.147,43.565 104.225,44.189 L104.264,44.189 C104.511,43.578 104.927,43.136 105.72,43.136 C106.812,43.136 107.098,43.929 107.098,45.346 L107.098,50 L106.136,50 L106.136,45.515 C106.136,44.371 105.941,43.994 105.317,43.994 C104.771,43.994 104.381,44.358 104.381,45.073 L104.381,50 L103.419,50 L103.419,45.515 C103.419,44.371 103.224,43.994 102.613,43.994 C102.054,43.994 101.664,44.358 101.664,45.073 L101.664,50 Z M111.817,50.156 C109.893,50.156 108.671,48.778 108.671,46.659 C108.671,44.514 109.932,43.136 111.752,43.136 C113.559,43.136 114.729,44.514 114.729,46.412 L114.729,46.906 L109.763,46.906 L109.763,47.218 C109.763,48.401 110.556,49.259 111.817,49.259 C112.714,49.259 113.39,48.817 113.741,48.089 L114.508,48.609 C114.105,49.506 113.143,50.156 111.817,50.156 Z M111.752,43.994 C110.608,43.994 109.763,44.865 109.763,46.035 L109.763,46.126 L113.611,46.126 L113.611,45.983 C113.611,44.8 112.857,43.994 111.752,43.994 Z M23.235,80 L23.235,70.926 L25.77,70.926 C27.98,70.926 29.072,72.486 29.072,75.463 C29.072,78.44 27.98,80 25.77,80 L23.235,80 Z M24.327,79.051 L25.718,79.051 C27.161,79.051 27.915,77.985 27.915,76.165 L27.915,74.761 C27.915,72.941 27.161,71.875 25.718,71.875 L24.327,71.875 L24.327,79.051 Z M34.116,71.81 C33.518,71.81 33.297,71.524 33.297,71.147 L33.297,70.939 C33.297,70.562 33.518,70.276 34.116,70.276 C34.714,70.276 34.935,70.562 34.935,70.939 L34.935,71.147 C34.935,71.524 34.714,71.81 34.116,71.81 Z M31.178,80 L31.178,79.116 L33.596,79.116 L33.596,74.176 L31.178,74.176 L31.178,73.292 L34.636,73.292 L34.636,79.116 L36.898,79.116 L36.898,80 L31.178,80 Z M41.578,80.156 C40.174,80.156 39.173,79.636 38.471,78.843 L39.173,78.232 C39.81,78.908 40.538,79.285 41.604,79.285 C42.644,79.285 43.385,78.921 43.385,78.128 C43.385,77.426 42.813,77.244 42.202,77.153 L41.149,76.997 C40.2,76.854 38.848,76.594 38.848,75.138 C38.848,73.799 39.992,73.136 41.552,73.136 C42.761,73.136 43.645,73.539 44.282,74.215 L43.606,74.852 C43.294,74.475 42.696,74.007 41.513,74.007 C40.46,74.007 39.875,74.384 39.875,75.073 C39.875,75.775 40.46,75.957 41.058,76.048 L42.111,76.204 C43.073,76.347 44.412,76.607 44.412,78.063 C44.412,79.389 43.294,80.156 41.578,80.156 Z M49.534,80.156 C47.61,80.156 46.492,78.765 46.492,76.646 C46.492,74.514 47.623,73.136 49.521,73.136 C50.821,73.136 51.627,73.773 52.004,74.683 L51.172,75.125 C50.925,74.436 50.353,74.033 49.521,74.033 C48.299,74.033 47.61,74.891 47.61,76.074 L47.61,77.218 C47.61,78.401 48.286,79.259 49.547,79.259 C50.444,79.259 51.029,78.817 51.367,78.089 L52.108,78.596 C51.718,79.493 50.873,80.156 49.534,80.156 Z M54.435,82.6 L54.435,73.292 L55.475,73.292 L55.475,74.384 L55.527,74.384 C55.956,73.565 56.658,73.136 57.594,73.136 C59.232,73.136 60.22,74.449 60.22,76.646 C60.22,78.843 59.232,80.156 57.594,80.156 C56.658,80.156 55.956,79.727 55.527,78.908 L55.475,78.908 L55.475,82.6 L54.435,82.6 Z M57.191,79.233 C58.4,79.233 59.102,78.427 59.102,77.218 L59.102,76.074 C59.102,74.865 58.4,74.059 57.191,74.059 C56.268,74.059 55.475,74.54 55.475,75.437 L55.475,77.855 C55.475,78.752 56.268,79.233 57.191,79.233 Z M62.001,80 L62.001,79.116 L63.964,79.116 L63.964,74.176 L62.001,74.176 L62.001,73.292 L65.004,73.292 L65.004,74.982 L65.069,74.982 C65.329,74.098 65.927,73.292 67.331,73.292 L68.267,73.292 L68.267,74.332 L67.006,74.332 C65.693,74.332 65.004,75.177 65.004,76.217 L65.004,79.116 L67.604,79.116 L67.604,80 L62.001,80 Z M72.817,80.156 C70.893,80.156 69.671,78.778 69.671,76.659 C69.671,74.514 70.932,73.136 72.752,73.136 C74.559,73.136 75.729,74.514 75.729,76.412 L75.729,76.906 L70.763,76.906 L70.763,77.218 C70.763,78.401 71.556,79.259 72.817,79.259 C73.714,79.259 74.39,78.817 74.741,78.089 L75.508,78.609 C75.105,79.506 74.143,80.156 72.817,80.156 Z M72.752,73.994 C71.608,73.994 70.763,74.865 70.763,76.035 L70.763,76.126 L74.611,76.126 L74.611,75.983 C74.611,74.8 73.857,73.994 72.752,73.994 Z M83.75,80 L83.035,80 C82.229,80 81.917,79.532 81.839,78.908 L81.774,78.908 C81.488,79.675 80.851,80.156 79.759,80.156 C78.355,80.156 77.458,79.376 77.458,78.115 C77.458,76.88 78.329,76.165 80.344,76.165 L81.774,76.165 L81.774,75.502 C81.774,74.527 81.189,74.02 80.175,74.02 C79.278,74.02 78.732,74.397 78.381,75.008 L77.679,74.488 C78.017,73.786 78.875,73.136 80.24,73.136 C81.813,73.136 82.814,73.981 82.814,75.398 L82.814,79.09 L83.75,79.09 L83.75,80 Z M79.941,79.285 C81.007,79.285 81.774,78.739 81.774,78.05 L81.774,76.945 L80.344,76.945 C79.109,76.945 78.55,77.309 78.55,77.959 L78.55,78.232 C78.55,78.921 79.083,79.285 79.941,79.285 Z M86.714,80 L85.674,80 L85.674,73.292 L86.714,73.292 L86.714,74.384 L86.766,74.384 C87.052,73.721 87.572,73.136 88.677,73.136 C90.081,73.136 91.004,74.072 91.004,75.697 L91.004,80 L89.964,80 L89.964,75.879 C89.964,74.657 89.405,74.059 88.378,74.059 C87.546,74.059 86.714,74.462 86.714,75.346 L86.714,80 Z M96.334,80.156 C94.41,80.156 93.292,78.765 93.292,76.646 C93.292,74.514 94.423,73.136 96.321,73.136 C97.621,73.136 98.427,73.773 98.804,74.683 L97.972,75.125 C97.725,74.436 97.153,74.033 96.321,74.033 C95.099,74.033 94.41,74.891 94.41,76.074 L94.41,77.218 C94.41,78.401 95.086,79.259 96.347,79.259 C97.244,79.259 97.829,78.817 98.167,78.089 L98.908,78.596 C98.518,79.493 97.673,80.156 96.334,80.156 Z M104.94,76.1 L106.071,73.292 L107.111,73.292 L103.783,81.469 C103.471,82.236 103.081,82.6 102.067,82.6 L101.079,82.6 L101.079,81.716 L102.639,81.716 L103.393,79.87 L100.689,73.292 L101.755,73.292 L102.886,76.1 L103.887,78.648 L103.939,78.648 L104.94,76.1 Z M123.075,71.875 L120.046,71.875 L120.046,80 L118.954,80 L118.954,71.875 L115.925,71.875 L115.925,70.926 L123.075,70.926 L123.075,71.875 Z M128.34,76.1 L129.471,73.292 L130.511,73.292 L127.183,81.469 C126.871,82.236 126.481,82.6 125.467,82.6 L124.479,82.6 L124.479,81.716 L126.039,81.716 L126.793,79.87 L124.089,73.292 L125.155,73.292 L126.286,76.1 L127.287,78.648 L127.339,78.648 L128.34,76.1 Z M132.435,82.6 L132.435,73.292 L133.475,73.292 L133.475,74.384 L133.527,74.384 C133.956,73.565 134.658,73.136 135.594,73.136 C137.232,73.136 138.22,74.449 138.22,76.646 C138.22,78.843 137.232,80.156 135.594,80.156 C134.658,80.156 133.956,79.727 133.527,78.908 L133.475,78.908 L133.475,82.6 L132.435,82.6 Z M135.191,79.233 C136.4,79.233 137.102,78.427 137.102,77.218 L137.102,76.074 C137.102,74.865 136.4,74.059 135.191,74.059 C134.268,74.059 133.475,74.54 133.475,75.437 L133.475,77.855 C133.475,78.752 134.268,79.233 135.191,79.233 Z M143.017,80.156 C141.093,80.156 139.871,78.778 139.871,76.659 C139.871,74.514 141.132,73.136 142.952,73.136 C144.759,73.136 145.929,74.514 145.929,76.412 L145.929,76.906 L140.963,76.906 L140.963,77.218 C140.963,78.401 141.756,79.259 143.017,79.259 C143.914,79.259 144.59,78.817 144.941,78.089 L145.708,78.609 C145.305,79.506 144.343,80.156 143.017,80.156 Z M142.952,73.994 C141.808,73.994 140.963,74.865 140.963,76.035 L140.963,76.126 L144.811,76.126 L144.811,75.983 C144.811,74.8 144.057,73.994 142.952,73.994 Z M23.235,110 L23.235,100.926 L25.77,100.926 C27.98,100.926 29.072,102.486 29.072,105.463 C29.072,108.44 27.98,110 25.77,110 L23.235,110 Z M24.327,109.051 L25.718,109.051 C27.161,109.051 27.915,107.985 27.915,106.165 L27.915,104.761 C27.915,102.941 27.161,101.875 25.718,101.875 L24.327,101.875 L24.327,109.051 Z M36.95,110 L36.235,110 C35.429,110 35.117,109.532 35.039,108.908 L34.974,108.908 C34.688,109.675 34.051,110.156 32.959,110.156 C31.555,110.156 30.658,109.376 30.658,108.115 C30.658,106.88 31.529,106.165 33.544,106.165 L34.974,106.165 L34.974,105.502 C34.974,104.527 34.389,104.02 33.375,104.02 C32.478,104.02 31.932,104.397 31.581,105.008 L30.879,104.488 C31.217,103.786 32.075,103.136 33.44,103.136 C35.013,103.136 36.014,103.981 36.014,105.398 L36.014,109.09 L36.95,109.09 L36.95,110 Z M33.141,109.285 C34.207,109.285 34.974,108.739 34.974,108.05 L34.974,106.945 L33.544,106.945 C32.309,106.945 31.75,107.309 31.75,107.959 L31.75,108.232 C31.75,108.921 32.283,109.285 33.141,109.285 Z M42.54,106.1 L43.671,103.292 L44.711,103.292 L41.383,111.469 C41.071,112.236 40.681,112.6 39.667,112.6 L38.679,112.6 L38.679,111.716 L40.239,111.716 L40.993,109.87 L38.289,103.292 L39.355,103.292 L40.486,106.1 L41.487,108.648 L41.539,108.648 L42.54,106.1 Z M49.378,110.156 C47.974,110.156 46.973,109.636 46.271,108.843 L46.973,108.232 C47.61,108.908 48.338,109.285 49.404,109.285 C50.444,109.285 51.185,108.921 51.185,108.128 C51.185,107.426 50.613,107.244 50.002,107.153 L48.949,106.997 C48,106.854 46.648,106.594 46.648,105.138 C46.648,103.799 47.792,103.136 49.352,103.136 C50.561,103.136 51.445,103.539 52.082,104.215 L51.406,104.852 C51.094,104.475 50.496,104.007 49.313,104.007 C48.26,104.007 47.675,104.384 47.675,105.073 C47.675,105.775 48.26,105.957 48.858,106.048 L49.911,106.204 C50.873,106.347 52.212,106.607 52.212,108.063 C52.212,109.389 51.094,110.156 49.378,110.156 Z M64.9,110.156 C62.69,110.156 61.728,108.427 61.728,105.463 C61.728,102.499 62.69,100.77 64.9,100.77 C67.11,100.77 68.072,102.499 68.072,105.463 C68.072,108.427 67.11,110.156 64.9,110.156 Z M64.9,109.207 C66.343,109.207 66.915,108.024 66.915,106.204 L66.915,104.722 C66.915,102.902 66.343,101.719 64.9,101.719 C63.457,101.719 62.885,102.902 62.885,104.722 L62.885,106.204 C62.885,108.024 63.457,109.207 64.9,109.207 Z M70.035,112.6 L70.035,103.292 L71.075,103.292 L71.075,104.384 L71.127,104.384 C71.556,103.565 72.258,103.136 73.194,103.136 C74.832,103.136 75.82,104.449 75.82,106.646 C75.82,108.843 74.832,110.156 73.194,110.156 C72.258,110.156 71.556,109.727 71.127,108.908 L71.075,108.908 L71.075,112.6 L70.035,112.6 Z M72.791,109.233 C74,109.233 74.702,108.427 74.702,107.218 L74.702,106.074 C74.702,104.865 74,104.059 72.791,104.059 C71.868,104.059 71.075,104.54 71.075,105.437 L71.075,107.855 C71.075,108.752 71.868,109.233 72.791,109.233 Z M80.617,110.156 C78.693,110.156 77.471,108.778 77.471,106.659 C77.471,104.514 78.732,103.136 80.552,103.136 C82.359,103.136 83.529,104.514 83.529,106.412 L83.529,106.906 L78.563,106.906 L78.563,107.218 C78.563,108.401 79.356,109.259 80.617,109.259 C81.514,109.259 82.19,108.817 82.541,108.089 L83.308,108.609 C82.905,109.506 81.943,110.156 80.617,110.156 Z M80.552,103.994 C79.408,103.994 78.563,104.865 78.563,106.035 L78.563,106.126 L82.411,106.126 L82.411,105.983 C82.411,104.8 81.657,103.994 80.552,103.994 Z M86.714,110 L85.674,110 L85.674,103.292 L86.714,103.292 L86.714,104.384 L86.766,104.384 C87.052,103.721 87.572,103.136 88.677,103.136 C90.081,103.136 91.004,104.072 91.004,105.697 L91.004,110 L89.964,110 L89.964,105.879 C89.964,104.657 89.405,104.059 88.378,104.059 C87.546,104.059 86.714,104.462 86.714,105.346 L86.714,110 Z M25.9,140.156 C23.69,140.156 22.728,138.427 22.728,135.463 C22.728,132.499 23.69,130.77 25.9,130.77 C28.11,130.77 29.072,132.499 29.072,135.463 C29.072,138.427 28.11,140.156 25.9,140.156 Z M25.9,139.207 C27.343,139.207 27.915,138.024 27.915,136.204 L27.915,134.722 C27.915,132.902 27.343,131.719 25.9,131.719 C24.457,131.719 23.885,132.902 23.885,134.722 L23.885,136.204 C23.885,138.024 24.457,139.207 25.9,139.207 Z M34.363,140 L33.037,140 L30.632,133.292 L31.685,133.292 L32.647,136.1 L33.687,139.129 L33.739,139.129 L34.779,136.1 L35.741,133.292 L36.768,133.292 L34.363,140 Z M41.617,140.156 C39.693,140.156 38.471,138.778 38.471,136.659 C38.471,134.514 39.732,133.136 41.552,133.136 C43.359,133.136 44.529,134.514 44.529,136.412 L44.529,136.906 L39.563,136.906 L39.563,137.218 C39.563,138.401 40.356,139.259 41.617,139.259 C42.514,139.259 43.19,138.817 43.541,138.089 L44.308,138.609 C43.905,139.506 42.943,140.156 41.617,140.156 Z M41.552,133.994 C40.408,133.994 39.563,134.865 39.563,136.035 L39.563,136.126 L43.411,136.126 L43.411,135.983 C43.411,134.8 42.657,133.994 41.552,133.994 Z M46.401,140 L46.401,139.116 L48.364,139.116 L48.364,134.176 L46.401,134.176 L46.401,133.292 L49.404,133.292 L49.404,134.982 L49.469,134.982 C49.729,134.098 50.327,133.292 51.731,133.292 L52.667,133.292 L52.667,134.332 L51.406,134.332 C50.093,134.332 49.404,135.177 49.404,136.217 L49.404,139.116 L52.004,139.116 L52.004,140 L46.401,140 Z M58.725,140 L58.725,138.908 L58.673,138.908 C58.244,139.727 57.542,140.156 56.606,140.156 C54.968,140.156 53.98,138.843 53.98,136.646 C53.98,134.449 54.968,133.136 56.606,133.136 C57.542,133.136 58.244,133.565 58.673,134.384 L58.725,134.384 L58.725,130.38 L59.765,130.38 L59.765,140 L58.725,140 Z M57.009,139.233 C57.932,139.233 58.725,138.752 58.725,137.855 L58.725,135.437 C58.725,134.54 57.932,134.059 57.009,134.059 C55.8,134.059 55.098,134.865 55.098,136.074 L55.098,137.218 C55.098,138.427 55.8,139.233 57.009,139.233 Z M66.486,140 L66.486,138.908 L66.434,138.908 C66.148,139.571 65.628,140.156 64.523,140.156 C63.119,140.156 62.196,139.22 62.196,137.595 L62.196,133.292 L63.236,133.292 L63.236,137.413 C63.236,138.635 63.795,139.233 64.822,139.233 C65.654,139.233 66.486,138.83 66.486,137.946 L66.486,133.292 L67.526,133.292 L67.526,140 L66.486,140 Z M72.817,140.156 C70.893,140.156 69.671,138.778 69.671,136.659 C69.671,134.514 70.932,133.136 72.752,133.136 C74.559,133.136 75.729,134.514 75.729,136.412 L75.729,136.906 L70.763,136.906 L70.763,137.218 C70.763,138.401 71.556,139.259 72.817,139.259 C73.714,139.259 74.39,138.817 74.741,138.089 L75.508,138.609 C75.105,139.506 74.143,140.156 72.817,140.156 Z M72.752,133.994 C71.608,133.994 70.763,134.865 70.763,136.035 L70.763,136.126 L74.611,136.126 L74.611,135.983 C74.611,134.8 73.857,133.994 72.752,133.994 Z M23.235,170 L23.235,160.926 L25.77,160.926 C27.98,160.926 29.072,162.486 29.072,165.463 C29.072,168.44 27.98,170 25.77,170 L23.235,170 Z M24.327,169.051 L25.718,169.051 C27.161,169.051 27.915,167.985 27.915,166.165 L27.915,164.761 C27.915,162.941 27.161,161.875 25.718,161.875 L24.327,161.875 L24.327,169.051 Z M34.116,161.81 C33.518,161.81 33.297,161.524 33.297,161.147 L33.297,160.939 C33.297,160.562 33.518,160.276 34.116,160.276 C34.714,160.276 34.935,160.562 34.935,160.939 L34.935,161.147 C34.935,161.524 34.714,161.81 34.116,161.81 Z M31.178,170 L31.178,169.116 L33.596,169.116 L33.596,164.176 L31.178,164.176 L31.178,163.292 L34.636,163.292 L34.636,169.116 L36.898,169.116 L36.898,170 L31.178,170 Z M41.578,170.156 C40.174,170.156 39.173,169.636 38.471,168.843 L39.173,168.232 C39.81,168.908 40.538,169.285 41.604,169.285 C42.644,169.285 43.385,168.921 43.385,168.128 C43.385,167.426 42.813,167.244 42.202,167.153 L41.149,166.997 C40.2,166.854 38.848,166.594 38.848,165.138 C38.848,163.799 39.992,163.136 41.552,163.136 C42.761,163.136 43.645,163.539 44.282,164.215 L43.606,164.852 C43.294,164.475 42.696,164.007 41.513,164.007 C40.46,164.007 39.875,164.384 39.875,165.073 C39.875,165.775 40.46,165.957 41.058,166.048 L42.111,166.204 C43.073,166.347 44.412,166.607 44.412,168.063 C44.412,169.389 43.294,170.156 41.578,170.156 Z M49.534,170.156 C47.61,170.156 46.492,168.765 46.492,166.646 C46.492,164.514 47.623,163.136 49.521,163.136 C50.821,163.136 51.627,163.773 52.004,164.683 L51.172,165.125 C50.925,164.436 50.353,164.033 49.521,164.033 C48.299,164.033 47.61,164.891 47.61,166.074 L47.61,167.218 C47.61,168.401 48.286,169.259 49.547,169.259 C50.444,169.259 51.029,168.817 51.367,168.089 L52.108,168.596 C51.718,169.493 50.873,170.156 49.534,170.156 Z M57.1,170.156 C55.215,170.156 54.058,168.778 54.058,166.646 C54.058,164.514 55.215,163.136 57.1,163.136 C58.985,163.136 60.142,164.514 60.142,166.646 C60.142,168.778 58.985,170.156 57.1,170.156 Z M57.1,169.259 C58.257,169.259 59.037,168.57 59.037,167.127 L59.037,166.165 C59.037,164.722 58.257,164.033 57.1,164.033 C55.943,164.033 55.163,164.722 55.163,166.165 L55.163,167.127 C55.163,168.57 55.943,169.259 57.1,169.259 Z M65.563,170 L64.237,170 L61.832,163.292 L62.885,163.292 L63.847,166.1 L64.887,169.129 L64.939,169.129 L65.979,166.1 L66.941,163.292 L67.968,163.292 L65.563,170 Z M72.817,170.156 C70.893,170.156 69.671,168.778 69.671,166.659 C69.671,164.514 70.932,163.136 72.752,163.136 C74.559,163.136 75.729,164.514 75.729,166.412 L75.729,166.906 L70.763,166.906 L70.763,167.218 C70.763,168.401 71.556,169.259 72.817,169.259 C73.714,169.259 74.39,168.817 74.741,168.089 L75.508,168.609 C75.105,169.506 74.143,170.156 72.817,170.156 Z M72.752,163.994 C71.608,163.994 70.763,164.865 70.763,166.035 L70.763,166.126 L74.611,166.126 L74.611,165.983 C74.611,164.8 73.857,163.994 72.752,163.994 Z M77.601,170 L77.601,169.116 L79.564,169.116 L79.564,164.176 L77.601,164.176 L77.601,163.292 L80.604,163.292 L80.604,164.982 L80.669,164.982 C80.929,164.098 81.527,163.292 82.931,163.292 L83.867,163.292 L83.867,164.332 L82.606,164.332 C81.293,164.332 80.604,165.177 80.604,166.217 L80.604,169.116 L83.204,169.116 L83.204,170 L77.601,170 Z M88.417,170.156 C86.493,170.156 85.271,168.778 85.271,166.659 C85.271,164.514 86.532,163.136 88.352,163.136 C90.159,163.136 91.329,164.514 91.329,166.412 L91.329,166.906 L86.363,166.906 L86.363,167.218 C86.363,168.401 87.156,169.259 88.417,169.259 C89.314,169.259 89.99,168.817 90.341,168.089 L91.108,168.609 C90.705,169.506 89.743,170.156 88.417,170.156 Z M88.352,163.994 C87.208,163.994 86.363,164.865 86.363,166.035 L86.363,166.126 L90.211,166.126 L90.211,165.983 C90.211,164.8 89.457,163.994 88.352,163.994 Z M97.725,170 L97.725,168.908 L97.673,168.908 C97.244,169.727 96.542,170.156 95.606,170.156 C93.968,170.156 92.98,168.843 92.98,166.646 C92.98,164.449 93.968,163.136 95.606,163.136 C96.542,163.136 97.244,163.565 97.673,164.384 L97.725,164.384 L97.725,160.38 L98.765,160.38 L98.765,170 L97.725,170 Z M96.009,169.233 C96.932,169.233 97.725,168.752 97.725,167.855 L97.725,165.437 C97.725,164.54 96.932,164.059 96.009,164.059 C94.8,164.059 94.098,164.865 94.098,166.074 L94.098,167.218 C94.098,168.427 94.8,169.233 96.009,169.233 Z M109.035,170 L109.035,160.926 L111.57,160.926 C113.78,160.926 114.872,162.486 114.872,165.463 C114.872,168.44 113.78,170 111.57,170 L109.035,170 Z M110.127,169.051 L111.518,169.051 C112.961,169.051 113.715,167.985 113.715,166.165 L113.715,164.761 C113.715,162.941 112.961,161.875 111.518,161.875 L110.127,161.875 L110.127,169.051 Z M122.75,170 L122.035,170 C121.229,170 120.917,169.532 120.839,168.908 L120.774,168.908 C120.488,169.675 119.851,170.156 118.759,170.156 C117.355,170.156 116.458,169.376 116.458,168.115 C116.458,166.88 117.329,166.165 119.344,166.165 L120.774,166.165 L120.774,165.502 C120.774,164.527 120.189,164.02 119.175,164.02 C118.278,164.02 117.732,164.397 117.381,165.008 L116.679,164.488 C117.017,163.786 117.875,163.136 119.24,163.136 C120.813,163.136 121.814,163.981 121.814,165.398 L121.814,169.09 L122.75,169.09 L122.75,170 Z M118.941,169.285 C120.007,169.285 120.774,168.739 120.774,168.05 L120.774,166.945 L119.344,166.945 C118.109,166.945 117.55,167.309 117.55,167.959 L117.55,168.232 C117.55,168.921 118.083,169.285 118.941,169.285 Z M130.238,170 L127.625,170 C126.611,170 126.143,169.363 126.143,168.466 L126.143,164.176 L123.907,164.176 L123.907,163.292 L125.571,163.292 C126.013,163.292 126.182,163.136 126.182,162.681 L126.182,160.926 L127.183,160.926 L127.183,163.292 L130.238,163.292 L130.238,164.176 L127.183,164.176 L127.183,169.116 L130.238,169.116 L130.238,170 Z M135.217,170.156 C133.293,170.156 132.071,168.778 132.071,166.659 C132.071,164.514 133.332,163.136 135.152,163.136 C136.959,163.136 138.129,164.514 138.129,166.412 L138.129,166.906 L133.163,166.906 L133.163,167.218 C133.163,168.401 133.956,169.259 135.217,169.259 C136.114,169.259 136.79,168.817 137.141,168.089 L137.908,168.609 C137.505,169.506 136.543,170.156 135.217,170.156 Z M135.152,163.994 C134.008,163.994 133.163,164.865 133.163,166.035 L133.163,166.126 L137.011,166.126 L137.011,165.983 C137.011,164.8 136.257,163.994 135.152,163.994 Z" id="Patient-Name-Discpre" fill="#000000"></path>
                <path d="M216.134,50.156 C214.21,50.156 213.092,48.765 213.092,46.646 C213.092,44.514 214.223,43.136 216.121,43.136 C217.421,43.136 218.227,43.773 218.604,44.683 L217.772,45.125 C217.525,44.436 216.953,44.033 216.121,44.033 C214.899,44.033 214.21,44.891 214.21,46.074 L214.21,47.218 C214.21,48.401 214.886,49.259 216.147,49.259 C217.044,49.259 217.629,48.817 217.967,48.089 L218.708,48.596 C218.318,49.493 217.473,50.156 216.134,50.156 Z M223.7,50.156 C221.815,50.156 220.658,48.778 220.658,46.646 C220.658,44.514 221.815,43.136 223.7,43.136 C225.585,43.136 226.742,44.514 226.742,46.646 C226.742,48.778 225.585,50.156 223.7,50.156 Z M223.7,49.259 C224.857,49.259 225.637,48.57 225.637,47.127 L225.637,46.165 C225.637,44.722 224.857,44.033 223.7,44.033 C222.543,44.033 221.763,44.722 221.763,46.165 L221.763,47.127 C221.763,48.57 222.543,49.259 223.7,49.259 Z M229.914,50 L228.874,50 L228.874,43.292 L229.914,43.292 L229.914,44.384 L229.966,44.384 C230.252,43.721 230.772,43.136 231.877,43.136 C233.281,43.136 234.204,44.072 234.204,45.697 L234.204,50 L233.164,50 L233.164,45.879 C233.164,44.657 232.605,44.059 231.578,44.059 C230.746,44.059 229.914,44.462 229.914,45.346 L229.914,50 Z M242.238,50 L239.625,50 C238.611,50 238.143,49.363 238.143,48.466 L238.143,44.176 L235.907,44.176 L235.907,43.292 L237.571,43.292 C238.013,43.292 238.182,43.136 238.182,42.681 L238.182,40.926 L239.183,40.926 L239.183,43.292 L242.238,43.292 L242.238,44.176 L239.183,44.176 L239.183,49.116 L242.238,49.116 L242.238,50 Z M250.35,50 L249.635,50 C248.829,50 248.517,49.532 248.439,48.908 L248.374,48.908 C248.088,49.675 247.451,50.156 246.359,50.156 C244.955,50.156 244.058,49.376 244.058,48.115 C244.058,46.88 244.929,46.165 246.944,46.165 L248.374,46.165 L248.374,45.502 C248.374,44.527 247.789,44.02 246.775,44.02 C245.878,44.02 245.332,44.397 244.981,45.008 L244.279,44.488 C244.617,43.786 245.475,43.136 246.84,43.136 C248.413,43.136 249.414,43.981 249.414,45.398 L249.414,49.09 L250.35,49.09 L250.35,50 Z M246.541,49.285 C247.607,49.285 248.374,48.739 248.374,48.05 L248.374,46.945 L246.944,46.945 C245.709,46.945 245.15,47.309 245.15,47.959 L245.15,48.232 C245.15,48.921 245.683,49.285 246.541,49.285 Z M255.316,41.81 C254.718,41.81 254.497,41.524 254.497,41.147 L254.497,40.939 C254.497,40.562 254.718,40.276 255.316,40.276 C255.914,40.276 256.135,40.562 256.135,40.939 L256.135,41.147 C256.135,41.524 255.914,41.81 255.316,41.81 Z M252.378,50 L252.378,49.116 L254.796,49.116 L254.796,44.176 L252.378,44.176 L252.378,43.292 L255.836,43.292 L255.836,49.116 L258.098,49.116 L258.098,50 L252.378,50 Z M261.114,50 L260.074,50 L260.074,43.292 L261.114,43.292 L261.114,44.384 L261.166,44.384 C261.452,43.721 261.972,43.136 263.077,43.136 C264.481,43.136 265.404,44.072 265.404,45.697 L265.404,50 L264.364,50 L264.364,45.879 C264.364,44.657 263.805,44.059 262.778,44.059 C261.946,44.059 261.114,44.462 261.114,45.346 L261.114,50 Z M270.578,50.156 C269.174,50.156 268.173,49.636 267.471,48.843 L268.173,48.232 C268.81,48.908 269.538,49.285 270.604,49.285 C271.644,49.285 272.385,48.921 272.385,48.128 C272.385,47.426 271.813,47.244 271.202,47.153 L270.149,46.997 C269.2,46.854 267.848,46.594 267.848,45.138 C267.848,43.799 268.992,43.136 270.552,43.136 C271.761,43.136 272.645,43.539 273.282,44.215 L272.606,44.852 C272.294,44.475 271.696,44.007 270.513,44.007 C269.46,44.007 268.875,44.384 268.875,45.073 C268.875,45.775 269.46,45.957 270.058,46.048 L271.111,46.204 C272.073,46.347 273.412,46.607 273.412,48.063 C273.412,49.389 272.294,50.156 270.578,50.156 Z M216.316,71.81 C215.718,71.81 215.497,71.524 215.497,71.147 L215.497,70.939 C215.497,70.562 215.718,70.276 216.316,70.276 C216.914,70.276 217.135,70.562 217.135,70.939 L217.135,71.147 C217.135,71.524 216.914,71.81 216.316,71.81 Z M213.378,80 L213.378,79.116 L215.796,79.116 L215.796,74.176 L213.378,74.176 L213.378,73.292 L216.836,73.292 L216.836,79.116 L219.098,79.116 L219.098,80 L213.378,80 Z M223.778,80.156 C222.374,80.156 221.373,79.636 220.671,78.843 L221.373,78.232 C222.01,78.908 222.738,79.285 223.804,79.285 C224.844,79.285 225.585,78.921 225.585,78.128 C225.585,77.426 225.013,77.244 224.402,77.153 L223.349,76.997 C222.4,76.854 221.048,76.594 221.048,75.138 C221.048,73.799 222.192,73.136 223.752,73.136 C224.961,73.136 225.845,73.539 226.482,74.215 L225.806,74.852 C225.494,74.475 224.896,74.007 223.713,74.007 C222.66,74.007 222.075,74.384 222.075,75.073 C222.075,75.775 222.66,75.957 223.258,76.048 L224.311,76.204 C225.273,76.347 226.612,76.607 226.612,78.063 C226.612,79.389 225.494,80.156 223.778,80.156 Z M218.994,105.164 L212.806,105.164 L212.806,104.28 L218.994,104.28 L218.994,105.164 Z M218.994,107.764 L212.806,107.764 L212.806,106.88 L218.994,106.88 L218.994,107.764 Z M222.452,111.833 L223.141,108.232 L224.818,108.232 L223.323,111.833 L222.452,111.833 Z M242.095,109.792 L236.505,106.555 L236.505,105.515 L242.095,102.278 L242.095,103.357 L237.48,105.97 L237.48,106.074 L242.095,108.687 L242.095,109.792 Z M245.852,111.833 L246.541,108.232 L248.218,108.232 L246.723,111.833 L245.852,111.833 Z M259.905,109.792 L259.905,108.713 L264.52,106.1 L264.52,105.996 L259.905,103.383 L259.905,102.278 L265.495,105.515 L265.495,106.555 L259.905,109.792 Z M216.316,131.81 C215.718,131.81 215.497,131.524 215.497,131.147 L215.497,130.939 C215.497,130.562 215.718,130.276 216.316,130.276 C216.914,130.276 217.135,130.562 217.135,130.939 L217.135,131.147 C217.135,131.524 216.914,131.81 216.316,131.81 Z M213.378,140 L213.378,139.116 L215.796,139.116 L215.796,134.176 L213.378,134.176 L213.378,133.292 L216.836,133.292 L216.836,139.116 L219.098,139.116 L219.098,140 L213.378,140 Z M223.778,140.156 C222.374,140.156 221.373,139.636 220.671,138.843 L221.373,138.232 C222.01,138.908 222.738,139.285 223.804,139.285 C224.844,139.285 225.585,138.921 225.585,138.128 C225.585,137.426 225.013,137.244 224.402,137.153 L223.349,136.997 C222.4,136.854 221.048,136.594 221.048,135.138 C221.048,133.799 222.192,133.136 223.752,133.136 C224.961,133.136 225.845,133.539 226.482,134.215 L225.806,134.852 C225.494,134.475 224.896,134.007 223.713,134.007 C222.66,134.007 222.075,134.384 222.075,135.073 C222.075,135.775 222.66,135.957 223.258,136.048 L224.311,136.204 C225.273,136.347 226.612,136.607 226.612,138.063 C226.612,139.389 225.494,140.156 223.778,140.156 Z M216.316,161.81 C215.718,161.81 215.497,161.524 215.497,161.147 L215.497,160.939 C215.497,160.562 215.718,160.276 216.316,160.276 C216.914,160.276 217.135,160.562 217.135,160.939 L217.135,161.147 C217.135,161.524 216.914,161.81 216.316,161.81 Z M213.378,170 L213.378,169.116 L215.796,169.116 L215.796,164.176 L213.378,164.176 L213.378,163.292 L216.836,163.292 L216.836,169.116 L219.098,169.116 L219.098,170 L213.378,170 Z M223.778,170.156 C222.374,170.156 221.373,169.636 220.671,168.843 L221.373,168.232 C222.01,168.908 222.738,169.285 223.804,169.285 C224.844,169.285 225.585,168.921 225.585,168.128 C225.585,167.426 225.013,167.244 224.402,167.153 L223.349,166.997 C222.4,166.854 221.048,166.594 221.048,165.138 C221.048,163.799 222.192,163.136 223.752,163.136 C224.961,163.136 225.845,163.539 226.482,164.215 L225.806,164.852 C225.494,164.475 224.896,164.007 223.713,164.007 C222.66,164.007 222.075,164.384 222.075,165.073 C222.075,165.775 222.66,165.957 223.258,166.048 L224.311,166.204 C225.273,166.347 226.612,166.607 226.612,168.063 C226.612,169.389 225.494,170.156 223.778,170.156 Z M230.252,171.833 L230.941,168.232 L232.618,168.232 L231.123,171.833 L230.252,171.833 Z M244.435,170 L244.435,160.38 L245.475,160.38 L245.475,164.384 L245.527,164.384 C245.956,163.565 246.658,163.136 247.594,163.136 C249.232,163.136 250.22,164.449 250.22,166.646 C250.22,168.843 249.232,170.156 247.594,170.156 C246.658,170.156 245.956,169.727 245.527,168.908 L245.475,168.908 L245.475,170 L244.435,170 Z M247.191,169.233 C248.4,169.233 249.102,168.427 249.102,167.218 L249.102,166.074 C249.102,164.865 248.4,164.059 247.191,164.059 C246.268,164.059 245.475,164.54 245.475,165.437 L245.475,167.855 C245.475,168.752 246.268,169.233 247.191,169.233 Z M255.017,170.156 C253.093,170.156 251.871,168.778 251.871,166.659 C251.871,164.514 253.132,163.136 254.952,163.136 C256.759,163.136 257.929,164.514 257.929,166.412 L257.929,166.906 L252.963,166.906 L252.963,167.218 C252.963,168.401 253.756,169.259 255.017,169.259 C255.914,169.259 256.59,168.817 256.941,168.089 L257.708,168.609 C257.305,169.506 256.343,170.156 255.017,170.156 Z M254.952,163.994 C253.808,163.994 252.963,164.865 252.963,166.035 L252.963,166.126 L256.811,166.126 L256.811,165.983 C256.811,164.8 256.057,163.994 254.952,163.994 Z M259.879,170 L259.879,169.116 L262.141,169.116 L262.141,164.176 L259.749,164.176 L259.749,163.292 L262.141,163.292 L262.141,161.914 C262.141,161.017 262.609,160.38 263.623,160.38 L265.872,160.38 L265.872,161.264 L263.181,161.264 L263.181,163.292 L265.872,163.292 L265.872,164.176 L263.181,164.176 L263.181,169.116 L265.573,169.116 L265.573,170 L259.879,170 Z M270.5,170.156 C268.615,170.156 267.458,168.778 267.458,166.646 C267.458,164.514 268.615,163.136 270.5,163.136 C272.385,163.136 273.542,164.514 273.542,166.646 C273.542,168.778 272.385,170.156 270.5,170.156 Z M270.5,169.259 C271.657,169.259 272.437,168.57 272.437,167.127 L272.437,166.165 C272.437,164.722 271.657,164.033 270.5,164.033 C269.343,164.033 268.563,164.722 268.563,166.165 L268.563,167.127 C268.563,168.57 269.343,169.259 270.5,169.259 Z M275.401,170 L275.401,169.116 L277.364,169.116 L277.364,164.176 L275.401,164.176 L275.401,163.292 L278.404,163.292 L278.404,164.982 L278.469,164.982 C278.729,164.098 279.327,163.292 280.731,163.292 L281.667,163.292 L281.667,164.332 L280.406,164.332 C279.093,164.332 278.404,165.177 278.404,166.217 L278.404,169.116 L281.004,169.116 L281.004,170 L275.401,170 Z M286.217,170.156 C284.293,170.156 283.071,168.778 283.071,166.659 C283.071,164.514 284.332,163.136 286.152,163.136 C287.959,163.136 289.129,164.514 289.129,166.412 L289.129,166.906 L284.163,166.906 L284.163,167.218 C284.163,168.401 284.956,169.259 286.217,169.259 C287.114,169.259 287.79,168.817 288.141,168.089 L288.908,168.609 C288.505,169.506 287.543,170.156 286.217,170.156 Z M286.152,163.994 C285.008,163.994 284.163,164.865 284.163,166.035 L284.163,166.126 L288.011,166.126 L288.011,165.983 C288.011,164.8 287.257,163.994 286.152,163.994 Z M292.652,171.833 L293.341,168.232 L295.018,168.232 L293.523,171.833 L292.652,171.833 Z M312.75,170 L312.035,170 C311.229,170 310.917,169.532 310.839,168.908 L310.774,168.908 C310.488,169.675 309.851,170.156 308.759,170.156 C307.355,170.156 306.458,169.376 306.458,168.115 C306.458,166.88 307.329,166.165 309.344,166.165 L310.774,166.165 L310.774,165.502 C310.774,164.527 310.189,164.02 309.175,164.02 C308.278,164.02 307.732,164.397 307.381,165.008 L306.679,164.488 C307.017,163.786 307.875,163.136 309.24,163.136 C310.813,163.136 311.814,163.981 311.814,165.398 L311.814,169.09 L312.75,169.09 L312.75,170 Z M308.941,169.285 C310.007,169.285 310.774,168.739 310.774,168.05 L310.774,166.945 L309.344,166.945 C308.109,166.945 307.55,167.309 307.55,167.959 L307.55,168.232 C307.55,168.921 308.083,169.285 308.941,169.285 Z M314.479,170 L314.479,169.116 L316.741,169.116 L316.741,164.176 L314.349,164.176 L314.349,163.292 L316.741,163.292 L316.741,161.914 C316.741,161.017 317.209,160.38 318.223,160.38 L320.472,160.38 L320.472,161.264 L317.781,161.264 L317.781,163.292 L320.472,163.292 L320.472,164.176 L317.781,164.176 L317.781,169.116 L320.173,169.116 L320.173,170 L314.479,170 Z M328.038,170 L325.425,170 C324.411,170 323.943,169.363 323.943,168.466 L323.943,164.176 L321.707,164.176 L321.707,163.292 L323.371,163.292 C323.813,163.292 323.982,163.136 323.982,162.681 L323.982,160.926 L324.983,160.926 L324.983,163.292 L328.038,163.292 L328.038,164.176 L324.983,164.176 L324.983,169.116 L328.038,169.116 L328.038,170 Z M333.017,170.156 C331.093,170.156 329.871,168.778 329.871,166.659 C329.871,164.514 331.132,163.136 332.952,163.136 C334.759,163.136 335.929,164.514 335.929,166.412 L335.929,166.906 L330.963,166.906 L330.963,167.218 C330.963,168.401 331.756,169.259 333.017,169.259 C333.914,169.259 334.59,168.817 334.941,168.089 L335.708,168.609 C335.305,169.506 334.343,170.156 333.017,170.156 Z M332.952,163.994 C331.808,163.994 330.963,164.865 330.963,166.035 L330.963,166.126 L334.811,166.126 L334.811,165.983 C334.811,164.8 334.057,163.994 332.952,163.994 Z M337.801,170 L337.801,169.116 L339.764,169.116 L339.764,164.176 L337.801,164.176 L337.801,163.292 L340.804,163.292 L340.804,164.982 L340.869,164.982 C341.129,164.098 341.727,163.292 343.131,163.292 L344.067,163.292 L344.067,164.332 L342.806,164.332 C341.493,164.332 340.804,165.177 340.804,166.217 L340.804,169.116 L343.404,169.116 L343.404,170 L337.801,170 Z" id="contains-is-=,-&lt;,-&gt;" fill="#000000"></path>
                <path d="M413.874,50.156 C412.249,50.156 411.261,49.493 410.585,48.557 L411.378,47.907 C412.08,48.791 412.821,49.22 413.913,49.22 C415.226,49.22 415.941,48.583 415.941,47.491 C415.941,46.607 415.486,46.139 414.251,45.931 L413.237,45.762 C411.456,45.463 410.897,44.436 410.897,43.292 C410.897,41.628 412.08,40.77 413.926,40.77 C415.369,40.77 416.357,41.29 416.968,42.161 L416.201,42.824 C415.694,42.161 415.044,41.706 413.913,41.706 C412.691,41.706 412.002,42.239 412.002,43.266 C412.002,44.072 412.418,44.592 413.705,44.813 L414.68,44.982 C416.461,45.294 417.046,46.282 417.046,47.465 C417.046,49.142 415.889,50.156 413.874,50.156 Z M424.638,50 L422.025,50 C421.011,50 420.543,49.363 420.543,48.466 L420.543,44.176 L418.307,44.176 L418.307,43.292 L419.971,43.292 C420.413,43.292 420.582,43.136 420.582,42.681 L420.582,40.926 L421.583,40.926 L421.583,43.292 L424.638,43.292 L424.638,44.176 L421.583,44.176 L421.583,49.116 L424.638,49.116 L424.638,50 Z M426.601,50 L426.601,49.116 L428.564,49.116 L428.564,44.176 L426.601,44.176 L426.601,43.292 L429.604,43.292 L429.604,44.982 L429.669,44.982 C429.929,44.098 430.527,43.292 431.931,43.292 L432.867,43.292 L432.867,44.332 L431.606,44.332 C430.293,44.332 429.604,45.177 429.604,46.217 L429.604,49.116 L432.204,49.116 L432.204,50 L426.601,50 Z M437.716,41.81 C437.118,41.81 436.897,41.524 436.897,41.147 L436.897,40.939 C436.897,40.562 437.118,40.276 437.716,40.276 C438.314,40.276 438.535,40.562 438.535,40.939 L438.535,41.147 C438.535,41.524 438.314,41.81 437.716,41.81 Z M434.778,50 L434.778,49.116 L437.196,49.116 L437.196,44.176 L434.778,44.176 L434.778,43.292 L438.236,43.292 L438.236,49.116 L440.498,49.116 L440.498,50 L434.778,50 Z M443.514,50 L442.474,50 L442.474,43.292 L443.514,43.292 L443.514,44.384 L443.566,44.384 C443.852,43.721 444.372,43.136 445.477,43.136 C446.881,43.136 447.804,44.072 447.804,45.697 L447.804,50 L446.764,50 L446.764,45.879 C446.764,44.657 446.205,44.059 445.178,44.059 C444.346,44.059 443.514,44.462 443.514,45.346 L443.514,50 Z M456.293,50.767 C456.293,52.119 455.149,52.756 452.913,52.756 C450.755,52.756 449.871,52.158 449.871,51.092 C449.871,50.377 450.274,49.987 450.963,49.805 L450.963,49.649 C450.586,49.467 450.365,49.181 450.365,48.726 C450.365,48.037 450.885,47.725 451.574,47.556 L451.574,47.504 C450.755,47.14 450.261,46.399 450.261,45.45 C450.261,44.085 451.288,43.136 452.861,43.136 C453.368,43.136 453.81,43.227 454.187,43.409 L454.187,43.292 C454.187,42.772 454.408,42.382 454.993,42.382 L456.228,42.382 L456.228,43.292 L454.72,43.292 L454.72,43.747 C455.201,44.163 455.474,44.748 455.474,45.45 C455.474,46.815 454.434,47.764 452.861,47.764 C452.64,47.764 452.432,47.751 452.224,47.712 C451.821,47.79 451.262,48.024 451.262,48.479 C451.262,48.882 451.704,48.973 452.341,48.973 L453.823,48.973 C455.552,48.973 456.293,49.675 456.293,50.767 Z M455.318,50.819 C455.318,50.286 454.941,49.935 453.862,49.935 L451.535,49.935 C451.093,50.117 450.859,50.416 450.859,50.845 C450.859,51.43 451.288,51.924 452.38,51.924 L453.394,51.924 C454.603,51.924 455.318,51.547 455.318,50.819 Z M452.861,46.958 C453.901,46.958 454.382,46.425 454.382,45.632 L454.382,45.255 C454.382,44.462 453.901,43.942 452.861,43.942 C451.834,43.942 451.353,44.462 451.353,45.255 L451.353,45.632 C451.353,46.425 451.834,46.958 452.861,46.958 Z M465.679,50 L465.679,49.116 L467.941,49.116 L467.941,44.176 L465.549,44.176 L465.549,43.292 L467.941,43.292 L467.941,41.914 C467.941,41.017 468.409,40.38 469.423,40.38 L471.672,40.38 L471.672,41.264 L468.981,41.264 L468.981,43.292 L471.672,43.292 L471.672,44.176 L468.981,44.176 L468.981,49.116 L471.373,49.116 L471.373,50 L465.679,50 Z M473.401,50 L473.401,49.116 L475.364,49.116 L475.364,44.176 L473.401,44.176 L473.401,43.292 L476.404,43.292 L476.404,44.982 L476.469,44.982 C476.729,44.098 477.327,43.292 478.731,43.292 L479.667,43.292 L479.667,44.332 L478.406,44.332 C477.093,44.332 476.404,45.177 476.404,46.217 L476.404,49.116 L479.004,49.116 L479.004,50 L473.401,50 Z M484.217,50.156 C482.293,50.156 481.071,48.778 481.071,46.659 C481.071,44.514 482.332,43.136 484.152,43.136 C485.959,43.136 487.129,44.514 487.129,46.412 L487.129,46.906 L482.163,46.906 L482.163,47.218 C482.163,48.401 482.956,49.259 484.217,49.259 C485.114,49.259 485.79,48.817 486.141,48.089 L486.908,48.609 C486.505,49.506 485.543,50.156 484.217,50.156 Z M484.152,43.994 C483.008,43.994 482.163,44.865 482.163,46.035 L482.163,46.126 L486.011,46.126 L486.011,45.983 C486.011,44.8 485.257,43.994 484.152,43.994 Z M492.017,50.156 C490.093,50.156 488.871,48.778 488.871,46.659 C488.871,44.514 490.132,43.136 491.952,43.136 C493.759,43.136 494.929,44.514 494.929,46.412 L494.929,46.906 L489.963,46.906 L489.963,47.218 C489.963,48.401 490.756,49.259 492.017,49.259 C492.914,49.259 493.59,48.817 493.941,48.089 L494.708,48.609 C494.305,49.506 493.343,50.156 492.017,50.156 Z M491.952,43.994 C490.808,43.994 489.963,44.865 489.963,46.035 L489.963,46.126 L493.811,46.126 L493.811,45.983 C493.811,44.8 493.057,43.994 491.952,43.994 Z M507.916,41.81 C507.318,41.81 507.097,41.524 507.097,41.147 L507.097,40.939 C507.097,40.562 507.318,40.276 507.916,40.276 C508.514,40.276 508.735,40.562 508.735,40.939 L508.735,41.147 C508.735,41.524 508.514,41.81 507.916,41.81 Z M504.978,50 L504.978,49.116 L507.396,49.116 L507.396,44.176 L504.978,44.176 L504.978,43.292 L508.436,43.292 L508.436,49.116 L510.698,49.116 L510.698,50 L504.978,50 Z M513.714,50 L512.674,50 L512.674,43.292 L513.714,43.292 L513.714,44.384 L513.766,44.384 C514.052,43.721 514.572,43.136 515.677,43.136 C517.081,43.136 518.004,44.072 518.004,45.697 L518.004,50 L516.964,50 L516.964,45.879 C516.964,44.657 516.405,44.059 515.378,44.059 C514.546,44.059 513.714,44.462 513.714,45.346 L513.714,50 Z M520.435,52.6 L520.435,43.292 L521.475,43.292 L521.475,44.384 L521.527,44.384 C521.956,43.565 522.658,43.136 523.594,43.136 C525.232,43.136 526.22,44.449 526.22,46.646 C526.22,48.843 525.232,50.156 523.594,50.156 C522.658,50.156 521.956,49.727 521.527,48.908 L521.475,48.908 L521.475,52.6 L520.435,52.6 Z M523.191,49.233 C524.4,49.233 525.102,48.427 525.102,47.218 L525.102,46.074 C525.102,44.865 524.4,44.059 523.191,44.059 C522.268,44.059 521.475,44.54 521.475,45.437 L521.475,47.855 C521.475,48.752 522.268,49.233 523.191,49.233 Z M532.486,50 L532.486,48.908 L532.434,48.908 C532.148,49.571 531.628,50.156 530.523,50.156 C529.119,50.156 528.196,49.22 528.196,47.595 L528.196,43.292 L529.236,43.292 L529.236,47.413 C529.236,48.635 529.795,49.233 530.822,49.233 C531.654,49.233 532.486,48.83 532.486,47.946 L532.486,43.292 L533.526,43.292 L533.526,50 L532.486,50 Z M541.638,50 L539.025,50 C538.011,50 537.543,49.363 537.543,48.466 L537.543,44.176 L535.307,44.176 L535.307,43.292 L536.971,43.292 C537.413,43.292 537.582,43.136 537.582,42.681 L537.582,40.926 L538.583,40.926 L538.583,43.292 L541.638,43.292 L541.638,44.176 L538.583,44.176 L538.583,49.116 L541.638,49.116 L541.638,50 Z M413.874,80.156 C412.249,80.156 411.261,79.493 410.585,78.557 L411.378,77.907 C412.08,78.791 412.821,79.22 413.913,79.22 C415.226,79.22 415.941,78.583 415.941,77.491 C415.941,76.607 415.486,76.139 414.251,75.931 L413.237,75.762 C411.456,75.463 410.897,74.436 410.897,73.292 C410.897,71.628 412.08,70.77 413.926,70.77 C415.369,70.77 416.357,71.29 416.968,72.161 L416.201,72.824 C415.694,72.161 415.044,71.706 413.913,71.706 C412.691,71.706 412.002,72.239 412.002,73.266 C412.002,74.072 412.418,74.592 413.705,74.813 L414.68,74.982 C416.461,75.294 417.046,76.282 417.046,77.465 C417.046,79.142 415.889,80.156 413.874,80.156 Z M424.638,80 L422.025,80 C421.011,80 420.543,79.363 420.543,78.466 L420.543,74.176 L418.307,74.176 L418.307,73.292 L419.971,73.292 C420.413,73.292 420.582,73.136 420.582,72.681 L420.582,70.926 L421.583,70.926 L421.583,73.292 L424.638,73.292 L424.638,74.176 L421.583,74.176 L421.583,79.116 L424.638,79.116 L424.638,80 Z M426.601,80 L426.601,79.116 L428.564,79.116 L428.564,74.176 L426.601,74.176 L426.601,73.292 L429.604,73.292 L429.604,74.982 L429.669,74.982 C429.929,74.098 430.527,73.292 431.931,73.292 L432.867,73.292 L432.867,74.332 L431.606,74.332 C430.293,74.332 429.604,75.177 429.604,76.217 L429.604,79.116 L432.204,79.116 L432.204,80 L426.601,80 Z M437.716,71.81 C437.118,71.81 436.897,71.524 436.897,71.147 L436.897,70.939 C436.897,70.562 437.118,70.276 437.716,70.276 C438.314,70.276 438.535,70.562 438.535,70.939 L438.535,71.147 C438.535,71.524 438.314,71.81 437.716,71.81 Z M434.778,80 L434.778,79.116 L437.196,79.116 L437.196,74.176 L434.778,74.176 L434.778,73.292 L438.236,73.292 L438.236,79.116 L440.498,79.116 L440.498,80 L434.778,80 Z M443.514,80 L442.474,80 L442.474,73.292 L443.514,73.292 L443.514,74.384 L443.566,74.384 C443.852,73.721 444.372,73.136 445.477,73.136 C446.881,73.136 447.804,74.072 447.804,75.697 L447.804,80 L446.764,80 L446.764,75.879 C446.764,74.657 446.205,74.059 445.178,74.059 C444.346,74.059 443.514,74.462 443.514,75.346 L443.514,80 Z M456.293,80.767 C456.293,82.119 455.149,82.756 452.913,82.756 C450.755,82.756 449.871,82.158 449.871,81.092 C449.871,80.377 450.274,79.987 450.963,79.805 L450.963,79.649 C450.586,79.467 450.365,79.181 450.365,78.726 C450.365,78.037 450.885,77.725 451.574,77.556 L451.574,77.504 C450.755,77.14 450.261,76.399 450.261,75.45 C450.261,74.085 451.288,73.136 452.861,73.136 C453.368,73.136 453.81,73.227 454.187,73.409 L454.187,73.292 C454.187,72.772 454.408,72.382 454.993,72.382 L456.228,72.382 L456.228,73.292 L454.72,73.292 L454.72,73.747 C455.201,74.163 455.474,74.748 455.474,75.45 C455.474,76.815 454.434,77.764 452.861,77.764 C452.64,77.764 452.432,77.751 452.224,77.712 C451.821,77.79 451.262,78.024 451.262,78.479 C451.262,78.882 451.704,78.973 452.341,78.973 L453.823,78.973 C455.552,78.973 456.293,79.675 456.293,80.767 Z M455.318,80.819 C455.318,80.286 454.941,79.935 453.862,79.935 L451.535,79.935 C451.093,80.117 450.859,80.416 450.859,80.845 C450.859,81.43 451.288,81.924 452.38,81.924 L453.394,81.924 C454.603,81.924 455.318,81.547 455.318,80.819 Z M452.861,76.958 C453.901,76.958 454.382,76.425 454.382,75.632 L454.382,75.255 C454.382,74.462 453.901,73.942 452.861,73.942 C451.834,73.942 451.353,74.462 451.353,75.255 L451.353,75.632 C451.353,76.425 451.834,76.958 452.861,76.958 Z M466.264,80 L465.302,80 L465.302,73.292 L466.264,73.292 L466.264,74.072 L466.316,74.072 C466.524,73.552 466.862,73.136 467.603,73.136 C468.37,73.136 468.747,73.565 468.825,74.189 L468.864,74.189 C469.111,73.578 469.527,73.136 470.32,73.136 C471.412,73.136 471.698,73.929 471.698,75.346 L471.698,80 L470.736,80 L470.736,75.515 C470.736,74.371 470.541,73.994 469.917,73.994 C469.371,73.994 468.981,74.358 468.981,75.073 L468.981,80 L468.019,80 L468.019,75.515 C468.019,74.371 467.824,73.994 467.213,73.994 C466.654,73.994 466.264,74.358 466.264,75.073 L466.264,80 Z M477.886,80 L477.886,78.908 L477.834,78.908 C477.548,79.571 477.028,80.156 475.923,80.156 C474.519,80.156 473.596,79.22 473.596,77.595 L473.596,73.292 L474.636,73.292 L474.636,77.413 C474.636,78.635 475.195,79.233 476.222,79.233 C477.054,79.233 477.886,78.83 477.886,77.946 L477.886,73.292 L478.926,73.292 L478.926,80 L477.886,80 Z M481.24,80 L481.24,79.116 L483.58,79.116 L483.58,71.264 L481.24,71.264 L481.24,70.38 L484.62,70.38 L484.62,79.116 L486.96,79.116 L486.96,80 L481.24,80 Z M494.838,80 L492.225,80 C491.211,80 490.743,79.363 490.743,78.466 L490.743,74.176 L488.507,74.176 L488.507,73.292 L490.171,73.292 C490.613,73.292 490.782,73.136 490.782,72.681 L490.782,70.926 L491.783,70.926 L491.783,73.292 L494.838,73.292 L494.838,74.176 L491.783,74.176 L491.783,79.116 L494.838,79.116 L494.838,80 Z M500.116,71.81 C499.518,71.81 499.297,71.524 499.297,71.147 L499.297,70.939 C499.297,70.562 499.518,70.276 500.116,70.276 C500.714,70.276 500.935,70.562 500.935,70.939 L500.935,71.147 C500.935,71.524 500.714,71.81 500.116,71.81 Z M497.178,80 L497.178,79.116 L499.596,79.116 L499.596,74.176 L497.178,74.176 L497.178,73.292 L500.636,73.292 L500.636,79.116 L502.898,79.116 L502.898,80 L497.178,80 Z M504.835,82.6 L504.835,73.292 L505.875,73.292 L505.875,74.384 L505.927,74.384 C506.356,73.565 507.058,73.136 507.994,73.136 C509.632,73.136 510.62,74.449 510.62,76.646 C510.62,78.843 509.632,80.156 507.994,80.156 C507.058,80.156 506.356,79.727 505.927,78.908 L505.875,78.908 L505.875,82.6 L504.835,82.6 Z M507.591,79.233 C508.8,79.233 509.502,78.427 509.502,77.218 L509.502,76.074 C509.502,74.865 508.8,74.059 507.591,74.059 C506.668,74.059 505.875,74.54 505.875,75.437 L505.875,77.855 C505.875,78.752 506.668,79.233 507.591,79.233 Z M512.44,80 L512.44,79.116 L514.78,79.116 L514.78,71.264 L512.44,71.264 L512.44,70.38 L515.82,70.38 L515.82,79.116 L518.16,79.116 L518.16,80 L512.44,80 Z M523.217,80.156 C521.293,80.156 520.071,78.778 520.071,76.659 C520.071,74.514 521.332,73.136 523.152,73.136 C524.959,73.136 526.129,74.514 526.129,76.412 L526.129,76.906 L521.163,76.906 L521.163,77.218 C521.163,78.401 521.956,79.259 523.217,79.259 C524.114,79.259 524.79,78.817 525.141,78.089 L525.908,78.609 C525.505,79.506 524.543,80.156 523.217,80.156 Z M523.152,73.994 C522.008,73.994 521.163,74.865 521.163,76.035 L521.163,76.126 L525.011,76.126 L525.011,75.983 C525.011,74.8 524.257,73.994 523.152,73.994 Z M538.934,80.156 C537.01,80.156 535.892,78.765 535.892,76.646 C535.892,74.514 537.023,73.136 538.921,73.136 C540.221,73.136 541.027,73.773 541.404,74.683 L540.572,75.125 C540.325,74.436 539.753,74.033 538.921,74.033 C537.699,74.033 537.01,74.891 537.01,76.074 L537.01,77.218 C537.01,78.401 537.686,79.259 538.947,79.259 C539.844,79.259 540.429,78.817 540.767,78.089 L541.508,78.596 C541.118,79.493 540.273,80.156 538.934,80.156 Z M543.874,80 L543.874,70.38 L544.914,70.38 L544.914,74.384 L544.966,74.384 C545.252,73.721 545.772,73.136 546.877,73.136 C548.281,73.136 549.204,74.072 549.204,75.697 L549.204,80 L548.164,80 L548.164,75.879 C548.164,74.657 547.605,74.059 546.578,74.059 C545.746,74.059 544.914,74.462 544.914,75.346 L544.914,80 L543.874,80 Z M554.3,80.156 C552.415,80.156 551.258,78.778 551.258,76.646 C551.258,74.514 552.415,73.136 554.3,73.136 C556.185,73.136 557.342,74.514 557.342,76.646 C557.342,78.778 556.185,80.156 554.3,80.156 Z M554.3,79.259 C555.457,79.259 556.237,78.57 556.237,77.127 L556.237,76.165 C556.237,74.722 555.457,74.033 554.3,74.033 C553.143,74.033 552.363,74.722 552.363,76.165 L552.363,77.127 C552.363,78.57 553.143,79.259 554.3,79.259 Z M562.516,71.81 C561.918,71.81 561.697,71.524 561.697,71.147 L561.697,70.939 C561.697,70.562 561.918,70.276 562.516,70.276 C563.114,70.276 563.335,70.562 563.335,70.939 L563.335,71.147 C563.335,71.524 563.114,71.81 562.516,71.81 Z M559.578,80 L559.578,79.116 L561.996,79.116 L561.996,74.176 L559.578,74.176 L559.578,73.292 L563.036,73.292 L563.036,79.116 L565.298,79.116 L565.298,80 L559.578,80 Z M570.134,80.156 C568.21,80.156 567.092,78.765 567.092,76.646 C567.092,74.514 568.223,73.136 570.121,73.136 C571.421,73.136 572.227,73.773 572.604,74.683 L571.772,75.125 C571.525,74.436 570.953,74.033 570.121,74.033 C568.899,74.033 568.21,74.891 568.21,76.074 L568.21,77.218 C568.21,78.401 568.886,79.259 570.147,79.259 C571.044,79.259 571.629,78.817 571.967,78.089 L572.708,78.596 C572.318,79.493 571.473,80.156 570.134,80.156 Z M577.817,80.156 C575.893,80.156 574.671,78.778 574.671,76.659 C574.671,74.514 575.932,73.136 577.752,73.136 C579.559,73.136 580.729,74.514 580.729,76.412 L580.729,76.906 L575.763,76.906 L575.763,77.218 C575.763,78.401 576.556,79.259 577.817,79.259 C578.714,79.259 579.39,78.817 579.741,78.089 L580.508,78.609 C580.105,79.506 579.143,80.156 577.817,80.156 Z M577.752,73.994 C576.608,73.994 575.763,74.865 575.763,76.035 L575.763,76.126 L579.611,76.126 L579.611,75.983 C579.611,74.8 578.857,73.994 577.752,73.994 Z M416.708,110 L411.092,110 L411.092,109.129 L413.354,109.129 L413.354,101.797 L411.092,101.797 L411.092,100.926 L416.708,100.926 L416.708,101.797 L414.446,101.797 L414.446,109.129 L416.708,109.129 L416.708,110 Z M420.114,110 L419.074,110 L419.074,103.292 L420.114,103.292 L420.114,104.384 L420.166,104.384 C420.452,103.721 420.972,103.136 422.077,103.136 C423.481,103.136 424.404,104.072 424.404,105.697 L424.404,110 L423.364,110 L423.364,105.879 C423.364,104.657 422.805,104.059 421.778,104.059 C420.946,104.059 420.114,104.462 420.114,105.346 L420.114,110 Z M432.438,110 L429.825,110 C428.811,110 428.343,109.363 428.343,108.466 L428.343,104.176 L426.107,104.176 L426.107,103.292 L427.771,103.292 C428.213,103.292 428.382,103.136 428.382,102.681 L428.382,100.926 L429.383,100.926 L429.383,103.292 L432.438,103.292 L432.438,104.176 L429.383,104.176 L429.383,109.116 L432.438,109.116 L432.438,110 Z M437.417,110.156 C435.493,110.156 434.271,108.778 434.271,106.659 C434.271,104.514 435.532,103.136 437.352,103.136 C439.159,103.136 440.329,104.514 440.329,106.412 L440.329,106.906 L435.363,106.906 L435.363,107.218 C435.363,108.401 436.156,109.259 437.417,109.259 C438.314,109.259 438.99,108.817 439.341,108.089 L440.108,108.609 C439.705,109.506 438.743,110.156 437.417,110.156 Z M437.352,103.994 C436.208,103.994 435.363,104.865 435.363,106.035 L435.363,106.126 L439.211,106.126 L439.211,105.983 C439.211,104.8 438.457,103.994 437.352,103.994 Z M448.493,110.767 C448.493,112.119 447.349,112.756 445.113,112.756 C442.955,112.756 442.071,112.158 442.071,111.092 C442.071,110.377 442.474,109.987 443.163,109.805 L443.163,109.649 C442.786,109.467 442.565,109.181 442.565,108.726 C442.565,108.037 443.085,107.725 443.774,107.556 L443.774,107.504 C442.955,107.14 442.461,106.399 442.461,105.45 C442.461,104.085 443.488,103.136 445.061,103.136 C445.568,103.136 446.01,103.227 446.387,103.409 L446.387,103.292 C446.387,102.772 446.608,102.382 447.193,102.382 L448.428,102.382 L448.428,103.292 L446.92,103.292 L446.92,103.747 C447.401,104.163 447.674,104.748 447.674,105.45 C447.674,106.815 446.634,107.764 445.061,107.764 C444.84,107.764 444.632,107.751 444.424,107.712 C444.021,107.79 443.462,108.024 443.462,108.479 C443.462,108.882 443.904,108.973 444.541,108.973 L446.023,108.973 C447.752,108.973 448.493,109.675 448.493,110.767 Z M447.518,110.819 C447.518,110.286 447.141,109.935 446.062,109.935 L443.735,109.935 C443.293,110.117 443.059,110.416 443.059,110.845 C443.059,111.43 443.488,111.924 444.58,111.924 L445.594,111.924 C446.803,111.924 447.518,111.547 447.518,110.819 Z M445.061,106.958 C446.101,106.958 446.582,106.425 446.582,105.632 L446.582,105.255 C446.582,104.462 446.101,103.942 445.061,103.942 C444.034,103.942 443.553,104.462 443.553,105.255 L443.553,105.632 C443.553,106.425 444.034,106.958 445.061,106.958 Z M453.017,110.156 C451.093,110.156 449.871,108.778 449.871,106.659 C449.871,104.514 451.132,103.136 452.952,103.136 C454.759,103.136 455.929,104.514 455.929,106.412 L455.929,106.906 L450.963,106.906 L450.963,107.218 C450.963,108.401 451.756,109.259 453.017,109.259 C453.914,109.259 454.59,108.817 454.941,108.089 L455.708,108.609 C455.305,109.506 454.343,110.156 453.017,110.156 Z M452.952,103.994 C451.808,103.994 450.963,104.865 450.963,106.035 L450.963,106.126 L454.811,106.126 L454.811,105.983 C454.811,104.8 454.057,103.994 452.952,103.994 Z M457.801,110 L457.801,109.116 L459.764,109.116 L459.764,104.176 L457.801,104.176 L457.801,103.292 L460.804,103.292 L460.804,104.982 L460.869,104.982 C461.129,104.098 461.727,103.292 463.131,103.292 L464.067,103.292 L464.067,104.332 L462.806,104.332 C461.493,104.332 460.804,105.177 460.804,106.217 L460.804,109.116 L463.404,109.116 L463.404,110 L457.801,110 Z M411.144,140 L411.144,130.926 L414.225,130.926 C415.772,130.926 416.721,131.849 416.721,133.266 C416.721,134.345 416.136,134.956 415.304,135.216 L415.304,135.255 C416.318,135.489 417.059,136.126 417.059,137.387 C417.059,138.856 416.019,140 414.615,140 L411.144,140 Z M412.236,139.051 L414.29,139.051 C415.291,139.051 415.902,138.596 415.902,137.673 L415.902,137.14 C415.902,136.23 415.291,135.762 414.29,135.762 L412.236,135.762 L412.236,139.051 Z M412.236,134.865 L414.108,134.865 C415.018,134.865 415.577,134.462 415.577,133.63 L415.577,133.123 C415.577,132.291 415.018,131.875 414.108,131.875 L412.236,131.875 L412.236,134.865 Z M421.7,140.156 C419.815,140.156 418.658,138.778 418.658,136.646 C418.658,134.514 419.815,133.136 421.7,133.136 C423.585,133.136 424.742,134.514 424.742,136.646 C424.742,138.778 423.585,140.156 421.7,140.156 Z M421.7,139.259 C422.857,139.259 423.637,138.57 423.637,137.127 L423.637,136.165 C423.637,134.722 422.857,134.033 421.7,134.033 C420.543,134.033 419.763,134.722 419.763,136.165 L419.763,137.127 C419.763,138.57 420.543,139.259 421.7,139.259 Z M429.5,140.156 C427.615,140.156 426.458,138.778 426.458,136.646 C426.458,134.514 427.615,133.136 429.5,133.136 C431.385,133.136 432.542,134.514 432.542,136.646 C432.542,138.778 431.385,140.156 429.5,140.156 Z M429.5,139.259 C430.657,139.259 431.437,138.57 431.437,137.127 L431.437,136.165 C431.437,134.722 430.657,134.033 429.5,134.033 C428.343,134.033 427.563,134.722 427.563,136.165 L427.563,137.127 C427.563,138.57 428.343,139.259 429.5,139.259 Z M434.44,140 L434.44,139.116 L436.78,139.116 L436.78,131.264 L434.44,131.264 L434.44,130.38 L437.82,130.38 L437.82,139.116 L440.16,139.116 L440.16,140 L434.44,140 Z M445.217,140.156 C443.293,140.156 442.071,138.778 442.071,136.659 C442.071,134.514 443.332,133.136 445.152,133.136 C446.959,133.136 448.129,134.514 448.129,136.412 L448.129,136.906 L443.163,136.906 L443.163,137.218 C443.163,138.401 443.956,139.259 445.217,139.259 C446.114,139.259 446.79,138.817 447.141,138.089 L447.908,138.609 C447.505,139.506 446.543,140.156 445.217,140.156 Z M445.152,133.994 C444.008,133.994 443.163,134.865 443.163,136.035 L443.163,136.126 L447.011,136.126 L447.011,135.983 C447.011,134.8 446.257,133.994 445.152,133.994 Z M456.15,140 L455.435,140 C454.629,140 454.317,139.532 454.239,138.908 L454.174,138.908 C453.888,139.675 453.251,140.156 452.159,140.156 C450.755,140.156 449.858,139.376 449.858,138.115 C449.858,136.88 450.729,136.165 452.744,136.165 L454.174,136.165 L454.174,135.502 C454.174,134.527 453.589,134.02 452.575,134.02 C451.678,134.02 451.132,134.397 450.781,135.008 L450.079,134.488 C450.417,133.786 451.275,133.136 452.64,133.136 C454.213,133.136 455.214,133.981 455.214,135.398 L455.214,139.09 L456.15,139.09 L456.15,140 Z M452.341,139.285 C453.407,139.285 454.174,138.739 454.174,138.05 L454.174,136.945 L452.744,136.945 C451.509,136.945 450.95,137.309 450.95,137.959 L450.95,138.232 C450.95,138.921 451.483,139.285 452.341,139.285 Z M459.114,140 L458.074,140 L458.074,133.292 L459.114,133.292 L459.114,134.384 L459.166,134.384 C459.452,133.721 459.972,133.136 461.077,133.136 C462.481,133.136 463.404,134.072 463.404,135.697 L463.404,140 L462.364,140 L462.364,135.879 C462.364,134.657 461.805,134.059 460.778,134.059 C459.946,134.059 459.114,134.462 459.114,135.346 L459.114,140 Z M411.235,170 L411.235,160.926 L413.77,160.926 C415.98,160.926 417.072,162.486 417.072,165.463 C417.072,168.44 415.98,170 413.77,170 L411.235,170 Z M412.327,169.051 L413.718,169.051 C415.161,169.051 415.915,167.985 415.915,166.165 L415.915,164.761 C415.915,162.941 415.161,161.875 413.718,161.875 L412.327,161.875 L412.327,169.051 Z M424.95,170 L424.235,170 C423.429,170 423.117,169.532 423.039,168.908 L422.974,168.908 C422.688,169.675 422.051,170.156 420.959,170.156 C419.555,170.156 418.658,169.376 418.658,168.115 C418.658,166.88 419.529,166.165 421.544,166.165 L422.974,166.165 L422.974,165.502 C422.974,164.527 422.389,164.02 421.375,164.02 C420.478,164.02 419.932,164.397 419.581,165.008 L418.879,164.488 C419.217,163.786 420.075,163.136 421.44,163.136 C423.013,163.136 424.014,163.981 424.014,165.398 L424.014,169.09 L424.95,169.09 L424.95,170 Z M421.141,169.285 C422.207,169.285 422.974,168.739 422.974,168.05 L422.974,166.945 L421.544,166.945 C420.309,166.945 419.75,167.309 419.75,167.959 L419.75,168.232 C419.75,168.921 420.283,169.285 421.141,169.285 Z M432.438,170 L429.825,170 C428.811,170 428.343,169.363 428.343,168.466 L428.343,164.176 L426.107,164.176 L426.107,163.292 L427.771,163.292 C428.213,163.292 428.382,163.136 428.382,162.681 L428.382,160.926 L429.383,160.926 L429.383,163.292 L432.438,163.292 L432.438,164.176 L429.383,164.176 L429.383,169.116 L432.438,169.116 L432.438,170 Z M437.417,170.156 C435.493,170.156 434.271,168.778 434.271,166.659 C434.271,164.514 435.532,163.136 437.352,163.136 C439.159,163.136 440.329,164.514 440.329,166.412 L440.329,166.906 L435.363,166.906 L435.363,167.218 C435.363,168.401 436.156,169.259 437.417,169.259 C438.314,169.259 438.99,168.817 439.341,168.089 L440.108,168.609 C439.705,169.506 438.743,170.156 437.417,170.156 Z M437.352,163.994 C436.208,163.994 435.363,164.865 435.363,166.035 L435.363,166.126 L439.211,166.126 L439.211,165.983 C439.211,164.8 438.457,163.994 437.352,163.994 Z" id="String-free-input-St" fill="#000000"></path>
                <path d="M293.9,198.13 C293.081,198.13 292.769,197.727 292.769,197.233 L292.769,196.895 C292.769,196.401 293.081,195.998 293.9,195.998 C294.719,195.998 295.031,196.401 295.031,196.895 L295.031,197.233 C295.031,197.727 294.719,198.13 293.9,198.13 Z M301.7,198.13 C300.881,198.13 300.569,197.727 300.569,197.233 L300.569,196.895 C300.569,196.401 300.881,195.998 301.7,195.998 C302.519,195.998 302.831,196.401 302.831,196.895 L302.831,197.233 C302.831,197.727 302.519,198.13 301.7,198.13 Z M309.5,198.13 C308.681,198.13 308.369,197.727 308.369,197.233 L308.369,196.895 C308.369,196.401 308.681,195.998 309.5,195.998 C310.319,195.998 310.631,196.401 310.631,196.895 L310.631,197.233 C310.631,197.727 310.319,198.13 309.5,198.13 Z" id="..." fill="#000000"></path>
            </g>
        </g>
    </g>
</svg>