<?xml version="1.0" encoding="UTF-8"?>
<svg width="178px" height="123px" viewBox="0 0 178 123" version="1.1" xmlns="http://www.w3.org/2000/svg" xmlns:xlink="http://www.w3.org/1999/xlink">
    <!-- Generator: Sketch 50.2 (55047) - http://www.bohemiancoding.com/sketch -->
    <title>formula2</title>
    <desc>Created with Sketch.</desc>
    <defs></defs>
    <g id="Page-1" stroke="none" stroke-width="1" fill="none" fill-rule="evenodd">
        <g id="wireframes" transform="translate(-1457.000000, -319.000000)">
            <g id="formula2" transform="translate(1247.000000, 312.000000)">
                <rect id="Rectangle-19" x="0" y="0" width="600" height="131"></rect>
                <g id="Group-2" transform="translate(272.500000, 102.000000) rotate(270.000000) translate(-272.500000, -102.000000) translate(261.500000, 55.500000)" stroke="#000000" stroke-linecap="round" stroke-linejoin="round" stroke-width="2">
                    <path d="M22,0.370517928 L12,0.370517928" id="Line-6"></path>
                    <path d="M10.7705882,47.0557769 L0.770588235,47.0557769" id="Line-6-Copy-3"></path>
                    <path d="M11.5,92.6294821 L11.5,0.496651691" id="Line-6-Copy-2"></path>
                    <path d="M22,92.6294821 L12,92.6294821" id="Line-6-Copy"></path>
                </g>
                <g id="Group-2-Copy-2" transform="translate(353.500000, 34.500000) rotate(90.000000) translate(-353.500000, -34.500000) translate(343.000000, 12.000000)" stroke="#000000" stroke-linecap="round" stroke-linejoin="round" stroke-width="2">
                    <path d="M21,0.75 L11,0.75" id="Line-6"></path>
                    <path d="M10,23.25 L0,23.25" id="Line-6-Copy-3"></path>
                    <path d="M10.5,43.5 L10.5,1.5" id="Line-6-Copy-2"></path>
                    <path d="M21,44.25 L11,44.25" id="Line-6-Copy"></path>
                </g>
                <path d="M213.466,127.168 C211.31,127.168 210.036,125.698 210.036,123.388 C210.036,121.078 211.324,119.608 213.452,119.608 C214.936,119.608 215.818,120.308 216.266,121.316 L215.076,121.96 C214.824,121.288 214.292,120.868 213.452,120.868 C212.304,120.868 211.632,121.638 211.632,122.786 L211.632,123.99 C211.632,125.124 212.29,125.908 213.48,125.908 C214.376,125.908 214.922,125.46 215.258,124.76 L216.378,125.446 C215.916,126.454 214.978,127.168 213.466,127.168 Z M221.6,127.168 C219.472,127.168 218.17,125.698 218.17,123.388 C218.17,121.078 219.472,119.608 221.6,119.608 C223.728,119.608 225.03,121.078 225.03,123.388 C225.03,125.698 223.728,127.168 221.6,127.168 Z M221.6,125.964 C222.706,125.964 223.434,125.278 223.434,123.934 L223.434,122.842 C223.434,121.498 222.706,120.812 221.6,120.812 C220.494,120.812 219.766,121.498 219.766,122.842 L219.766,123.934 C219.766,125.278 220.494,125.964 221.6,125.964 Z M226.85,127 L226.85,125.768 L229.244,125.768 L229.244,117.872 L226.85,117.872 L226.85,116.64 L230.77,116.64 L230.77,125.768 L233.164,125.768 L233.164,127 L226.85,127 Z M239.898,127 L239.898,125.768 L239.828,125.768 C239.52,126.524 238.932,127.168 237.742,127.168 C236.286,127.168 235.306,126.174 235.306,124.424 L235.306,119.776 L236.832,119.776 L236.832,124.2 C236.832,125.348 237.35,125.922 238.33,125.922 C239.114,125.922 239.898,125.516 239.898,124.676 L239.898,119.776 L241.424,119.776 L241.424,127 L239.898,127 Z M244.518,127 L243.216,127 L243.216,119.776 L244.518,119.776 L244.518,120.714 L244.588,120.714 C244.812,120.098 245.19,119.608 245.974,119.608 C246.73,119.608 247.15,120.056 247.262,120.784 L247.318,120.784 C247.57,120.126 248.004,119.608 248.872,119.608 C249.978,119.608 250.37,120.42 250.37,121.918 L250.37,127 L249.068,127 L249.068,122.114 C249.068,121.12 248.844,120.784 248.298,120.784 C247.808,120.784 247.444,121.106 247.444,121.764 L247.444,127 L246.142,127 L246.142,122.114 C246.142,121.12 245.932,120.784 245.386,120.784 C244.882,120.784 244.518,121.106 244.518,121.764 L244.518,127 Z M253.702,127 L252.176,127 L252.176,119.776 L253.702,119.776 L253.702,121.008 L253.772,121.008 C254.08,120.252 254.668,119.608 255.858,119.608 C257.314,119.608 258.294,120.602 258.294,122.352 L258.294,127 L256.768,127 L256.768,122.576 C256.768,121.428 256.25,120.854 255.27,120.854 C254.486,120.854 253.702,121.26 253.702,122.1 L253.702,127 Z M272.266,127.168 C270.11,127.168 268.836,125.698 268.836,123.388 C268.836,121.078 270.124,119.608 272.252,119.608 C273.736,119.608 274.618,120.308 275.066,121.316 L273.876,121.96 C273.624,121.288 273.092,120.868 272.252,120.868 C271.104,120.868 270.432,121.638 270.432,122.786 L270.432,123.99 C270.432,125.124 271.09,125.908 272.28,125.908 C273.176,125.908 273.722,125.46 274.058,124.76 L275.178,125.446 C274.716,126.454 273.778,127.168 272.266,127.168 Z M284.026,127 L283.088,127 C282.22,127 281.786,126.51 281.702,125.782 L281.632,125.782 C281.352,126.65 280.596,127.168 279.462,127.168 C277.992,127.168 277.04,126.342 277.04,124.984 C277.04,123.584 278.062,122.828 280.204,122.828 L281.59,122.828 L281.59,122.268 C281.59,121.302 281.072,120.798 280.036,120.798 C279.112,120.798 278.566,121.19 278.174,121.792 L277.264,121.05 C277.67,120.266 278.65,119.608 280.176,119.608 C281.996,119.608 283.116,120.518 283.116,122.17 L283.116,125.796 L284.026,125.796 L284.026,127 Z M279.896,126.048 C280.876,126.048 281.59,125.558 281.59,124.844 L281.59,123.794 L280.232,123.794 C279.112,123.794 278.58,124.144 278.58,124.788 L278.58,125.068 C278.58,125.712 279.084,126.048 279.896,126.048 Z M291.992,127 L289.234,127 C287.974,127 287.386,126.244 287.386,125.166 L287.386,121.008 L285.16,121.008 L285.16,119.776 L286.742,119.776 C287.274,119.776 287.484,119.594 287.484,119.034 L287.484,117.228 L288.912,117.228 L288.912,119.776 L291.992,119.776 L291.992,121.008 L288.912,121.008 L288.912,125.768 L291.992,125.768 L291.992,127 Z M297.354,127.168 C295.142,127.168 293.84,125.698 293.84,123.402 C293.84,121.078 295.184,119.608 297.242,119.608 C299.272,119.608 300.56,121.064 300.56,123.192 L300.56,123.766 L295.38,123.766 L295.38,124.004 C295.38,125.138 296.136,125.936 297.382,125.936 C298.306,125.936 298.978,125.502 299.384,124.83 L300.336,125.67 C299.846,126.51 298.838,127.168 297.354,127.168 Z M297.242,120.77 C296.15,120.77 295.38,121.568 295.38,122.688 L295.38,122.786 L299.006,122.786 L299.006,122.646 C299.006,121.512 298.306,120.77 297.242,120.77 Z M309.38,127.784 C309.38,129.268 308.134,129.968 305.586,129.968 C303.094,129.968 302.226,129.31 302.226,128.232 C302.226,127.448 302.688,127.042 303.486,126.832 L303.486,126.692 C302.996,126.51 302.688,126.188 302.688,125.642 C302.688,124.928 303.234,124.606 303.99,124.424 L303.99,124.354 C303.122,123.948 302.604,123.178 302.604,122.142 C302.604,120.602 303.766,119.608 305.544,119.608 C306.048,119.608 306.51,119.692 306.902,119.846 L306.902,119.608 C306.902,119.048 307.224,118.628 307.868,118.628 L309.184,118.628 L309.184,119.832 L307.504,119.832 L307.504,120.168 C308.134,120.602 308.484,121.274 308.484,122.142 C308.484,123.682 307.322,124.662 305.544,124.662 C305.222,124.662 304.928,124.634 304.648,124.578 C304.312,124.662 303.892,124.886 303.892,125.278 C303.892,125.726 304.382,125.782 305.012,125.782 L306.636,125.782 C308.582,125.782 309.38,126.594 309.38,127.784 Z M307.952,127.882 C307.952,127.392 307.616,127.084 306.594,127.084 L304.088,127.084 C303.738,127.252 303.556,127.518 303.556,127.896 C303.556,128.442 303.976,128.89 305.04,128.89 L306.174,128.89 C307.322,128.89 307.952,128.54 307.952,127.882 Z M305.544,123.612 C306.524,123.612 306.986,123.094 306.986,122.324 L306.986,121.946 C306.986,121.176 306.524,120.658 305.544,120.658 C304.564,120.658 304.102,121.176 304.102,121.946 L304.102,122.324 C304.102,123.094 304.564,123.612 305.544,123.612 Z M314,127.168 C311.872,127.168 310.57,125.698 310.57,123.388 C310.57,121.078 311.872,119.608 314,119.608 C316.128,119.608 317.43,121.078 317.43,123.388 C317.43,125.698 316.128,127.168 314,127.168 Z M314,125.964 C315.106,125.964 315.834,125.278 315.834,123.934 L315.834,122.842 C315.834,121.498 315.106,120.812 314,120.812 C312.894,120.812 312.166,121.498 312.166,122.842 L312.166,123.934 C312.166,125.278 312.894,125.964 314,125.964 Z M319.264,127 L319.264,125.768 L321.182,125.768 L321.182,121.008 L319.264,121.008 L319.264,119.776 L322.708,119.776 L322.708,121.694 L322.792,121.694 C323.072,120.686 323.702,119.776 325.172,119.776 L326.04,119.776 L326.04,121.232 L324.612,121.232 C323.366,121.232 322.708,122.058 322.708,123.066 L322.708,125.768 L325.326,125.768 L325.326,127 L319.264,127 Z M331.766,122.8 L332.914,119.776 L334.454,119.776 L330.954,128.4 C330.576,129.324 330.058,129.8 328.91,129.8 L327.692,129.8 L327.692,128.568 L329.4,128.568 L330.058,126.902 L327.146,119.776 L328.742,119.776 L329.89,122.8 L330.786,125.278 L330.87,125.278 L331.766,122.8 Z" id="column-category" fill="#000000"></path>
                <path d="M337.138,18 L335.262,18 L332.672,10.776 L334.254,10.776 L335.248,13.828 L336.186,16.726 L336.27,16.726 L337.208,13.828 L338.202,10.776 L339.728,10.776 L337.138,18 Z M348.226,18 L347.288,18 C346.42,18 345.986,17.51 345.902,16.782 L345.832,16.782 C345.552,17.65 344.796,18.168 343.662,18.168 C342.192,18.168 341.24,17.342 341.24,15.984 C341.24,14.584 342.262,13.828 344.404,13.828 L345.79,13.828 L345.79,13.268 C345.79,12.302 345.272,11.798 344.236,11.798 C343.312,11.798 342.766,12.19 342.374,12.792 L341.464,12.05 C341.87,11.266 342.85,10.608 344.376,10.608 C346.196,10.608 347.316,11.518 347.316,13.17 L347.316,16.796 L348.226,16.796 L348.226,18 Z M344.096,17.048 C345.076,17.048 345.79,16.558 345.79,15.844 L345.79,14.794 L344.432,14.794 C343.312,14.794 342.78,15.144 342.78,15.788 L342.78,16.068 C342.78,16.712 343.284,17.048 344.096,17.048 Z M349.85,18 L349.85,16.768 L352.244,16.768 L352.244,8.872 L349.85,8.872 L349.85,7.64 L353.77,7.64 L353.77,16.768 L356.164,16.768 L356.164,18 L349.85,18 Z M362.898,18 L362.898,16.768 L362.828,16.768 C362.52,17.524 361.932,18.168 360.742,18.168 C359.286,18.168 358.306,17.174 358.306,15.424 L358.306,10.776 L359.832,10.776 L359.832,15.2 C359.832,16.348 360.35,16.922 361.33,16.922 C362.114,16.922 362.898,16.516 362.898,15.676 L362.898,10.776 L364.424,10.776 L364.424,18 L362.898,18 Z M369.954,18.168 C367.742,18.168 366.44,16.698 366.44,14.402 C366.44,12.078 367.784,10.608 369.842,10.608 C371.872,10.608 373.16,12.064 373.16,14.192 L373.16,14.766 L367.98,14.766 L367.98,15.004 C367.98,16.138 368.736,16.936 369.982,16.936 C370.906,16.936 371.578,16.502 371.984,15.83 L372.936,16.67 C372.446,17.51 371.438,18.168 369.954,18.168 Z M369.842,11.77 C368.75,11.77 367.98,12.568 367.98,13.688 L367.98,13.786 L371.606,13.786 L371.606,13.646 C371.606,12.512 370.906,11.77 369.842,11.77 Z" id="value" fill="#000000"></path>
                <g id="pill2" transform="translate(213.000000, 46.000000)">
                    <g id="value" transform="translate(110.400000, 0.000000)">
                        <path d="M63.5,39.5 L63.5,0.5 L20,0.5 C9.23044738,0.5 0.5,9.23044738 0.5,20 C0.5,30.7695526 9.23044738,39.5 20,39.5 L63.5,39.5 Z" id="Rectangle-2" stroke="#D8D8D8" fill="#EAEAEA" transform="translate(32.000000, 20.000000) scale(-1, 1) translate(-32.000000, -20.000000) "></path>
                        <path d="M14.4864,12.3488 L17.96,18.2144 L21.4128,12.3488 L25.0528,12.3488 L19.5408,21.5008 L19.5408,27.2 L16.2752,27.2 L16.2752,21.4176 L10.8048,12.3488 L14.4864,12.3488 Z M30.648,16.1552 C31.6602717,16.1552 32.561596,16.390931 33.352,16.8624 C34.142404,17.333869 34.7629311,18.0167955 35.2136,18.9112 C35.6642689,19.8056045 35.8896,20.8351942 35.8896,22 C35.8896,22.1109339 35.8826667,22.2911988 35.8688,22.5408 L28.1104,22.5408 C28.1381335,23.4005376 28.3634646,24.0695976 28.7864,24.548 C29.2093354,25.0264024 29.8575956,25.2656 30.7312,25.2656 C31.2720027,25.2656 31.7677311,25.1304014 32.2184,24.86 C32.6690689,24.5895986 32.9567994,24.2602686 33.0816,23.872 L35.6816,23.872 C34.9189295,26.2848121 33.2410796,27.4912 30.648,27.4912 C29.6634617,27.4773333 28.7517375,27.2624021 27.9128,26.8464 C27.0738625,26.4303979 26.4048025,25.7821377 25.9056,24.9016 C25.4063975,24.0210623 25.1568,22.9984058 25.1568,21.8336 C25.1568,20.7381279 25.4098641,19.7397378 25.916,18.8384 C26.4221359,17.9370622 27.0946625,17.2645356 27.9336,16.8208 C28.7725375,16.3770644 29.6773285,16.1552 30.648,16.1552 Z M32.9152,20.6688 C32.7765326,19.8645293 32.5200019,19.2821351 32.1456,18.9216 C31.7711981,18.5610649 31.2373368,18.3808 30.544,18.3808 C29.8229297,18.3808 29.2544021,18.5853313 28.8384,18.9944 C28.4223979,19.4034687 28.1797337,19.9615965 28.1104,20.6688 L32.9152,20.6688 Z M41.8176,16.1552 C43.2597405,16.1552 44.3863959,16.4463971 45.1976,17.0288 C46.0088041,17.6112029 46.4629328,18.4639944 46.56,19.5872 L43.752,19.5872 C43.7103998,19.0741308 43.5232017,18.7032011 43.1904,18.4744 C42.8575983,18.2455989 42.3722699,18.1312 41.7344,18.1312 C41.1797306,18.1312 40.7672014,18.2143992 40.4968,18.3808 C40.2263986,18.5472008 40.0912,18.7967983 40.0912,19.1296 C40.0912,19.3792012 40.1813324,19.5871992 40.3616,19.7536 C40.5418676,19.9200008 40.8157315,20.0655994 41.1832,20.1904 C41.5506685,20.3152006 41.9562644,20.4191996 42.4,20.5024 C43.7450734,20.765868 44.6949306,21.0362653 45.2496,21.3136 C45.8042694,21.5909347 46.2098654,21.9237314 46.4664,22.312 C46.7229346,22.7002686 46.8512,23.1786638 46.8512,23.7472 C46.8512,24.953606 46.4109377,25.8791968 45.5304,26.524 C44.6498623,27.1688032 43.4538742,27.4912 41.9424,27.4912 C40.3615921,27.4912 39.1309377,27.1514701 38.2504,26.472 C37.3698623,25.7925299 36.9157335,24.8704058 36.888,23.7056 L39.696,23.7056 C39.696,24.2602694 39.9109312,24.7005317 40.3408,25.0264 C40.7706688,25.3522683 41.3114634,25.5152 41.9632,25.5152 C42.5178694,25.5152 42.9789315,25.3938679 43.3464,25.1512 C43.7138685,24.9085321 43.8976,24.5722688 43.8976,24.1424 C43.8976,23.8650653 43.7832011,23.6362676 43.5544,23.456 C43.3255989,23.2757324 43.0032021,23.1162674 42.5872,22.9776 C42.1711979,22.8389326 41.5264044,22.6794676 40.6528,22.4992 C39.9594632,22.3605326 39.3424027,22.1733345 38.8016,21.9376 C38.2607973,21.7018655 37.8482681,21.3933352 37.564,21.012 C37.2797319,20.6306648 37.1376,20.1626694 37.1376,19.608 C37.1376,18.9007965 37.307465,18.283736 37.6472,17.7568 C37.986935,17.229864 38.5069298,16.8312014 39.2072,16.5608 C39.9074702,16.2903986 40.7775948,16.1552 41.8176,16.1552 Z" id="Yes" fill="#464646"></path>
                    </g>
                    <g id="col">
                        <path d="M111.5,39.5 L111.5,0.5 L20,0.5 C9.23044738,0.5 0.5,9.23044738 0.5,20 C0.5,30.7695526 9.23044738,39.5 20,39.5 L111.5,39.5 Z" id="Rectangle-2" stroke="#D8D8D8" fill="#E1EBF7"></path>
                        <path d="M23.8832,11.9952 C26.0741443,11.9952 27.83866,12.7231927 29.1768,14.1792 C30.51494,15.6352073 31.184,17.5210551 31.184,19.8368 C31.184,22.097078 30.5114734,23.9482595 29.1664,25.3904 C27.8213266,26.8325405 26.0602776,27.5536 23.8832,27.5536 C21.6922557,27.5536 19.92774,26.8325405 18.5896,25.3904 C17.25146,23.9482595 16.5824,22.097078 16.5824,19.8368 C16.5824,17.5349218 17.2549266,15.6525406 18.6,14.1896 C19.9450734,12.7266594 21.7061224,11.9952 23.8832,11.9952 Z M19.848,19.8368 C19.848,21.3344075 20.2015965,22.5373288 20.9088,23.4456 C21.6160035,24.3538712 22.6074603,24.808 23.8832,24.808 C25.1312062,24.808 26.1157297,24.3608045 26.8368,23.4664 C27.5578703,22.5719955 27.9184,21.362141 27.9184,19.8368 C27.9184,18.2421254 27.5613369,16.9941378 26.8472,16.0928 C26.1330631,15.1914622 25.1381397,14.7408 23.8624,14.7408 C22.6143938,14.7408 21.6333369,15.1914622 20.9192,16.0928 C20.2050631,16.9941378 19.848,18.2421254 19.848,19.8368 Z M34.8032,16.4464 L37.0704,23.7888 L37.112,23.7888 L39.3792,16.4464 L42.312,16.4464 L38.672,27.2 L35.3856,27.2 L31.704,16.4464 L34.8032,16.4464 Z M48.24,16.1552 C49.2522717,16.1552 50.153596,16.390931 50.944,16.8624 C51.734404,17.333869 52.3549311,18.0167955 52.8056,18.9112 C53.2562689,19.8056045 53.4816,20.8351942 53.4816,22 C53.4816,22.1109339 53.4746667,22.2911988 53.4608,22.5408 L45.7024,22.5408 C45.7301335,23.4005376 45.9554646,24.0695976 46.3784,24.548 C46.8013354,25.0264024 47.4495956,25.2656 48.3232,25.2656 C48.8640027,25.2656 49.3597311,25.1304014 49.8104,24.86 C50.2610689,24.5895986 50.5487994,24.2602686 50.6736,23.872 L53.2736,23.872 C52.5109295,26.2848121 50.8330796,27.4912 48.24,27.4912 C47.2554617,27.4773333 46.3437375,27.2624021 45.5048,26.8464 C44.6658625,26.4303979 43.9968025,25.7821377 43.4976,24.9016 C42.9983975,24.0210623 42.7488,22.9984058 42.7488,21.8336 C42.7488,20.7381279 43.0018641,19.7397378 43.508,18.8384 C44.0141359,17.9370622 44.6866625,17.2645356 45.5256,16.8208 C46.3645375,16.3770644 47.2693285,16.1552 48.24,16.1552 Z M50.5072,20.6688 C50.3685326,19.8645293 50.1120019,19.2821351 49.7376,18.9216 C49.3631981,18.5610649 48.8293368,18.3808 48.136,18.3808 C47.4149297,18.3808 46.8464021,18.5853313 46.4304,18.9944 C46.0143979,19.4034687 45.7717337,19.9615965 45.7024,20.6688 L50.5072,20.6688 Z M61.2816,16.1552 C61.5312012,16.1552 61.7461324,16.1898663 61.9264,16.2592 L61.9264,19.0048 C61.6074651,18.9354663 61.2538686,18.9008 60.8656,18.9008 C58.924257,18.9008 57.9536,20.0517218 57.9536,22.3536 L57.9536,27.2 L55,27.2 L55,16.4464 L57.808,16.4464 L57.808,18.4432 L57.8496,18.4432 C58.1408015,17.7498632 58.6018635,17.1952021 59.2328,16.7792 C59.8637365,16.3631979 60.546663,16.1552 61.2816,16.1552 Z M73.2416,12.3488 L73.2416,27.2 L70.4336,27.2 L70.4336,25.8272 L70.392,25.8272 C69.7541301,26.9365389 68.6656077,27.4912 67.1264,27.4912 C65.6426592,27.4912 64.467471,26.9504054 63.6008,25.8688 C62.734129,24.7871946 62.3008,23.4074751 62.3008,21.7296 C62.3008,20.0933252 62.7410623,18.7552052 63.6216,17.7152 C64.5021377,16.6751948 65.6495929,16.1552 67.064,16.1552 C67.7157366,16.1552 68.3293305,16.2903986 68.9048,16.5608 C69.4802695,16.8312014 69.9274651,17.229864 70.2464,17.7568 L70.288,17.7568 L70.288,12.3488 L73.2416,12.3488 Z M65.2544,21.8128 C65.2544,22.7973383 65.4866643,23.61893 65.9512,24.2776 C66.4157357,24.93627 67.0501293,25.2656 67.8544,25.2656 C68.7002709,25.2656 69.3346646,24.9570698 69.7576,24.34 C70.1805354,23.7229302 70.392,22.8736054 70.392,21.792 C70.392,20.7103946 70.1701356,19.8714696 69.7264,19.2752 C69.2826644,18.6789304 68.6517374,18.3808 67.8336,18.3808 C66.9877291,18.3808 66.3464022,18.6927969 65.9096,19.3168 C65.4727978,19.9408031 65.2544,20.7727948 65.2544,21.8128 Z M78.088,16.4464 L78.088,22.5408 C78.088,23.3728042 78.219732,24.0175977 78.4832,24.4752 C78.746668,24.9328023 79.245863,25.1616 79.9808,25.1616 C80.7989374,25.1616 81.3847982,24.9189358 81.7384,24.4336 C82.0920018,23.9482642 82.2688,23.1717387 82.2688,22.104 L82.2688,16.4464 L85.2224,16.4464 L85.2224,27.2 L82.4144,27.2 L82.4144,25.7024 L82.352,25.7024 C81.617063,26.8949393 80.514674,27.4912 79.0448,27.4912 C77.6442597,27.4912 76.642403,27.1341369 76.0392,26.42 C75.435997,25.7058631 75.1344,24.6069408 75.1344,23.1232 L75.1344,16.4464 L78.088,16.4464 Z M92.1696,16.1552 C93.1818717,16.1552 94.083196,16.390931 94.8736,16.8624 C95.664004,17.333869 96.2845311,18.0167955 96.7352,18.9112 C97.1858689,19.8056045 97.4112,20.8351942 97.4112,22 C97.4112,22.1109339 97.4042667,22.2911988 97.3904,22.5408 L89.632,22.5408 C89.6597335,23.4005376 89.8850646,24.0695976 90.308,24.548 C90.7309354,25.0264024 91.3791956,25.2656 92.2528,25.2656 C92.7936027,25.2656 93.2893311,25.1304014 93.74,24.86 C94.1906689,24.5895986 94.4783994,24.2602686 94.6032,23.872 L97.2032,23.872 C96.4405295,26.2848121 94.7626796,27.4912 92.1696,27.4912 C91.1850617,27.4773333 90.2733375,27.2624021 89.4344,26.8464 C88.5954625,26.4303979 87.9264025,25.7821377 87.4272,24.9016 C86.9279975,24.0210623 86.6784,22.9984058 86.6784,21.8336 C86.6784,20.7381279 86.9314641,19.7397378 87.4376,18.8384 C87.9437359,17.9370622 88.6162625,17.2645356 89.4552,16.8208 C90.2941375,16.3770644 91.1989285,16.1552 92.1696,16.1552 Z M94.4368,20.6688 C94.2981326,19.8645293 94.0416019,19.2821351 93.6672,18.9216 C93.2927981,18.5610649 92.7589368,18.3808 92.0656,18.3808 C91.3445297,18.3808 90.7760021,18.5853313 90.36,18.9944 C89.9439979,19.4034687 89.7013337,19.9615965 89.632,20.6688 L94.4368,20.6688 Z M102.3408,16.6336 L102.3408,19.8368 L99.0752,19.8368 L99.0752,16.6336 L102.3408,16.6336 Z M102.3408,23.9968 L102.3408,27.2 L99.0752,27.2 L99.0752,23.9968 L102.3408,23.9968 Z" id="Overdue:" fill="#2D74DA"></path>
                    </g>
                </g>
            </g>
        </g>
    </g>
</svg>