<svg height="123" viewBox="0 0 178 123" width="178" xmlns="http://www.w3.org/2000/svg"><g fill="none" fill-rule="evenodd" transform="translate(-210 -7)"><path d="m0 0h600v131h-600z"/><g stroke="#000" stroke-linecap="round" stroke-linejoin="round" stroke-width="2" transform="matrix(0 -1 1 0 226 113)"><path d="m22 .37051793h-10"/><path d="m10.7705882 47.0557769h-9.99999996"/><path d="m11.5 92.6294821v-92.13283041"/><path d="m22 92.6294821h-10"/></g><g stroke="#000" stroke-linecap="round" stroke-linejoin="round" stroke-width="2" transform="matrix(0 1 -1 0 376 24)"><path d="m21 .75h-10"/><path d="m10 23.25h-10"/><path d="m10.5 43.5v-42"/><path d="m21 44.25h-10"/></g><path d="m213.466 127.168c-2.156 0-3.43-1.47-3.43-3.78s1.288-3.78 3.416-3.78c1.484 0 2.366.7 2.814 1.708l-1.19.644c-.252-.672-.784-1.092-1.624-1.092-1.148 0-1.82.77-1.82 1.918v1.204c0 1.134.658 1.918 1.848 1.918.896 0 1.442-.448 1.778-1.148l1.12.686c-.462 1.008-1.4 1.722-2.912 1.722zm8.134 0c-2.128 0-3.43-1.47-3.43-3.78s1.302-3.78 3.43-3.78 3.43 1.47 3.43 3.78-1.302 3.78-3.43 3.78zm0-1.204c1.106 0 1.834-.686 1.834-2.03v-1.092c0-1.344-.728-2.03-1.834-2.03s-1.834.686-1.834 2.03v1.092c0 1.344.728 2.03 1.834 2.03zm5.25 1.036v-1.232h2.394v-7.896h-2.394v-1.232h3.92v9.128h2.394v1.232zm13.048 0v-1.232h-.07c-.308.756-.896 1.4-2.086 1.4-1.456 0-2.436-.994-2.436-2.744v-4.648h1.526v4.424c0 1.148.518 1.722 1.498 1.722.784 0 1.568-.406 1.568-1.246v-4.9h1.526v7.224zm4.62 0h-1.302v-7.224h1.302v.938h.07c.224-.616.602-1.106 1.386-1.106.756 0 1.176.448 1.288 1.176h.056c.252-.658.686-1.176 1.554-1.176 1.106 0 1.498.812 1.498 2.31v5.082h-1.302v-4.886c0-.994-.224-1.33-.77-1.33-.49 0-.854.322-.854.98v5.236h-1.302v-4.886c0-.994-.21-1.33-.756-1.33-.504 0-.868.322-.868.98zm9.184 0h-1.526v-7.224h1.526v1.232h.07c.308-.756.896-1.4 2.086-1.4 1.456 0 2.436.994 2.436 2.744v4.648h-1.526v-4.424c0-1.148-.518-1.722-1.498-1.722-.784 0-1.568.406-1.568 1.246zm18.564.168c-2.156 0-3.43-1.47-3.43-3.78s1.288-3.78 3.416-3.78c1.484 0 2.366.7 2.814 1.708l-1.19.644c-.252-.672-.784-1.092-1.624-1.092-1.148 0-1.82.77-1.82 1.918v1.204c0 1.134.658 1.918 1.848 1.918.896 0 1.442-.448 1.778-1.148l1.12.686c-.462 1.008-1.4 1.722-2.912 1.722zm11.76-.168h-.938c-.868 0-1.302-.49-1.386-1.218h-.07c-.28.868-1.036 1.386-2.17 1.386-1.47 0-2.422-.826-2.422-2.184 0-1.4 1.022-2.156 3.164-2.156h1.386v-.56c0-.966-.518-1.47-1.554-1.47-.924 0-1.47.392-1.862.994l-.91-.742c.406-.784 1.386-1.442 2.912-1.442 1.82 0 2.94.91 2.94 2.562v3.626h.91zm-4.13-.952c.98 0 1.694-.49 1.694-1.204v-1.05h-1.358c-1.12 0-1.652.35-1.652.994v.28c0 .644.504.98 1.316.98zm12.096.952h-2.758c-1.26 0-1.848-.756-1.848-1.834v-4.158h-2.226v-1.232h1.582c.532 0 .742-.182.742-.742v-1.806h1.428v2.548h3.08v1.232h-3.08v4.76h3.08zm5.362.168c-2.212 0-3.514-1.47-3.514-3.766 0-2.324 1.344-3.794 3.402-3.794 2.03 0 3.318 1.456 3.318 3.584v.574h-5.18v.238c0 1.134.756 1.932 2.002 1.932.924 0 1.596-.434 2.002-1.106l.952.84c-.49.84-1.498 1.498-2.982 1.498zm-.112-6.398c-1.092 0-1.862.798-1.862 1.918v.098h3.626v-.14c0-1.134-.7-1.876-1.764-1.876zm12.138 7.014c0 1.484-1.246 2.184-3.794 2.184-2.492 0-3.36-.658-3.36-1.736 0-.784.462-1.19 1.26-1.4v-.14c-.49-.182-.798-.504-.798-1.05 0-.714.546-1.036 1.302-1.218v-.07c-.868-.406-1.386-1.176-1.386-2.212 0-1.54 1.162-2.534 2.94-2.534.504 0 .966.084 1.358.238v-.238c0-.56.322-.98.966-.98h1.316v1.204h-1.68v.336c.63.434.98 1.106.98 1.974 0 1.54-1.162 2.52-2.94 2.52-.322 0-.616-.028-.896-.084-.336.084-.756.308-.756.7 0 .448.49.504 1.12.504h1.624c1.946 0 2.744.812 2.744 2.002zm-1.428.098c0-.49-.336-.798-1.358-.798h-2.506c-.35.168-.532.434-.532.812 0 .546.42.994 1.484.994h1.134c1.148 0 1.778-.35 1.778-1.008zm-2.408-4.27c.98 0 1.442-.518 1.442-1.288v-.378c0-.77-.462-1.288-1.442-1.288s-1.442.518-1.442 1.288v.378c0 .77.462 1.288 1.442 1.288zm8.456 3.556c-2.128 0-3.43-1.47-3.43-3.78s1.302-3.78 3.43-3.78 3.43 1.47 3.43 3.78-1.302 3.78-3.43 3.78zm0-1.204c1.106 0 1.834-.686 1.834-2.03v-1.092c0-1.344-.728-2.03-1.834-2.03s-1.834.686-1.834 2.03v1.092c0 1.344.728 2.03 1.834 2.03zm5.264 1.036v-1.232h1.918v-4.76h-1.918v-1.232h3.444v1.918h.084c.28-1.008.91-1.918 2.38-1.918h.868v1.456h-1.428c-1.246 0-1.904.826-1.904 1.834v2.702h2.618v1.232zm12.502-4.2 1.148-3.024h1.54l-3.5 8.624c-.378.924-.896 1.4-2.044 1.4h-1.218v-1.232h1.708l.658-1.666-2.912-7.126h1.596l1.148 3.024.896 2.478h.084z" fill="#000"/><path d="m337.138 18h-1.876l-2.59-7.224h1.582l.994 3.052.938 2.898h.084l.938-2.898.994-3.052h1.526zm11.088 0h-.938c-.868 0-1.302-.49-1.386-1.218h-.07c-.28.868-1.036 1.386-2.17 1.386-1.47 0-2.422-.826-2.422-2.184 0-1.4 1.022-2.156 3.164-2.156h1.386v-.56c0-.966-.518-1.47-1.554-1.47-.924 0-1.47.392-1.862.994l-.91-.742c.406-.784 1.386-1.442 2.912-1.442 1.82 0 2.94.91 2.94 2.562v3.626h.91zm-4.13-.952c.98 0 1.694-.49 1.694-1.204v-1.05h-1.358c-1.12 0-1.652.35-1.652.994v.28c0 .644.504.98 1.316.98zm5.754.952v-1.232h2.394v-7.896h-2.394v-1.232h3.92v9.128h2.394v1.232zm13.048 0v-1.232h-.07c-.308.756-.896 1.4-2.086 1.4-1.456 0-2.436-.994-2.436-2.744v-4.648h1.526v4.424c0 1.148.518 1.722 1.498 1.722.784 0 1.568-.406 1.568-1.246v-4.9h1.526v7.224zm7.056.168c-2.212 0-3.514-1.47-3.514-3.766 0-2.324 1.344-3.794 3.402-3.794 2.03 0 3.318 1.456 3.318 3.584v.574h-5.18v.238c0 1.134.756 1.932 2.002 1.932.924 0 1.596-.434 2.002-1.106l.952.84c-.49.84-1.498 1.498-2.982 1.498zm-.112-6.398c-1.092 0-1.862.798-1.862 1.918v.098h3.626v-.14c0-1.134-.7-1.876-1.764-1.876z" fill="#000"/><g transform="translate(323.4 46)"><path d="m63.5 39.5v-39h-43.5c-10.76955262 0-19.5 8.73044738-19.5 19.5 0 10.7695526 8.73044738 19.5 19.5 19.5z" fill="#eaeaea" stroke="#d8d8d8" transform="matrix(-1 0 0 1 64 0)"/><path d="m14.4864 12.3488 3.4736 5.8656 3.4528-5.8656h3.64l-5.512 9.152v5.6992h-3.2656v-5.7824l-5.4704-9.0688zm16.1616 3.8064c1.0122717 0 1.913596.235731 2.704.7072s1.4109311 1.1543955 1.8616 2.0488.676 1.9239942.676 3.0888c0 .1109339-.0069333.2911988-.0208.5408h-7.7584c.0277335.8597376.2530646 1.5287976.676 2.0072s1.0711956.7176 1.9448.7176c.5408027 0 1.0365311-.1351986 1.4872-.4056s.7383994-.5997314.8632-.988h2.6c-.7626705 2.4128121-2.4405204 3.6192-5.0336 3.6192-.9845383-.0138667-1.8962625-.2287979-2.7352-.6448s-1.5079975-1.0642623-2.0072-1.9448-.7488-1.9031942-.7488-3.068c0-1.0954721.2530641-2.0938622.7592-2.9952s1.1786625-1.5738644 2.0176-2.0176 1.7437285-.6656 2.7144-.6656zm2.2672 4.5136c-.1386674-.8042707-.3951981-1.3866649-.7696-1.7472s-.9082632-.5408-1.6016-.5408c-.7210703 0-1.2895979.2045313-1.7056.6136s-.6586663.9671965-.728 1.6744zm8.9024-4.5136c1.4421405 0 2.5687959.2911971 3.38.8736s1.2653328 1.4351944 1.3624 2.5584h-2.808c-.0416002-.5130692-.2287983-.8839989-.5616-1.1128s-.8181301-.3432-1.456-.3432c-.5546694 0-.9671986.0831992-1.2376.2496s-.4056.4159983-.4056.7488c0 .2496012.0901324.4575992.2704.624s.4541315.3119994.8216.4368.7730644.2287996 1.2168.312c1.3450734.263468 2.2949306.5338653 2.8496.8112s.9602654.6101314 1.2168.9984.3848.8666638.3848 1.4352c0 1.206406-.4402623 2.1319968-1.3208 2.7768s-2.0765258.9672-3.588.9672c-1.5808079 0-2.8114623-.3397299-3.692-1.0192s-1.3346665-1.6015942-1.3624-2.7664h2.808c0 .5546694.2149312.9949317.6448 1.3208s.9706634.4888 1.6224.4888c.5546694 0 1.0157315-.1213321 1.3832-.364s.5512-.5789312.5512-1.0088c0-.2773347-.1143989-.5061324-.3432-.6864s-.5511979-.3397326-.9672-.4784-1.0607956-.2981324-1.9344-.4784c-.6933368-.1386674-1.3103973-.3258655-1.8512-.5616s-.9533319-.5442648-1.2376-.9256-.4264-.8493306-.4264-1.404c0-.7072035.169865-1.324264.5096-1.8512s.8597298-.9255986 1.56-1.196 1.5703948-.4056 2.6104-.4056z" fill="#464646"/></g><g transform="translate(213 46)"><path d="m111.5 39.5v-39h-91.5c-10.76955262 0-19.5 8.73044738-19.5 19.5 0 10.7695526 8.73044738 19.5 19.5 19.5z" fill="#e1ebf7" stroke="#d8d8d8"/><path d="m23.8832 11.9952c2.1909443 0 3.95546.7279927 5.2936 2.184s2.0072 3.3418551 2.0072 5.6576c0 2.260278-.6725266 4.1114595-2.0176 5.5536s-3.1061224 2.1632-5.2832 2.1632c-2.1909443 0-3.95546-.7210595-5.2936-2.1632s-2.0072-3.293322-2.0072-5.5536c0-2.3018782.6725266-4.1842594 2.0176-5.6472s3.1061224-2.1944 5.2832-2.1944zm-4.0352 7.8416c0 1.4976075.3535965 2.7005288 1.0608 3.6088s1.6986603 1.3624 2.9744 1.3624c1.2480062 0 2.2325297-.4471955 2.9536-1.3416s1.0816-2.104259 1.0816-3.6296c0-1.5946746-.3570631-2.8426622-1.0712-3.744s-1.7090603-1.352-2.9848-1.352c-1.2480062 0-2.2290631.4506622-2.9432 1.352s-1.0712 2.1493254-1.0712 3.744zm14.9552-3.3904 2.2672 7.3424h.0416l2.2672-7.3424h2.9328l-3.64 10.7536h-3.2864l-3.6816-10.7536zm13.4368-.2912c1.0122717 0 1.913596.235731 2.704.7072s1.4109311 1.1543955 1.8616 2.0488.676 1.9239942.676 3.0888c0 .1109339-.0069333.2911988-.0208.5408h-7.7584c.0277335.8597376.2530646 1.5287976.676 2.0072s1.0711956.7176 1.9448.7176c.5408027 0 1.0365311-.1351986 1.4872-.4056s.7383994-.5997314.8632-.988h2.6c-.7626705 2.4128121-2.4405204 3.6192-5.0336 3.6192-.9845383-.0138667-1.8962625-.2287979-2.7352-.6448s-1.5079975-1.0642623-2.0072-1.9448-.7488-1.9031942-.7488-3.068c0-1.0954721.2530641-2.0938622.7592-2.9952s1.1786625-1.5738644 2.0176-2.0176 1.7437285-.6656 2.7144-.6656zm2.2672 4.5136c-.1386674-.8042707-.3951981-1.3866649-.7696-1.7472s-.9082632-.5408-1.6016-.5408c-.7210703 0-1.2895979.2045313-1.7056.6136s-.6586663.9671965-.728 1.6744zm10.7744-4.5136c.2496012 0 .4645324.0346663.6448.104v2.7456c-.3189349-.0693337-.6725314-.104-1.0608-.104-1.941343 0-2.912 1.1509218-2.912 3.4528v4.8464h-2.9536v-10.7536h2.808v1.9968h.0416c.2912015-.6933368.7522635-1.2479979 1.3832-1.664s1.313863-.624 2.0488-.624zm11.96-3.8064v14.8512h-2.808v-1.3728h-.0416c-.6378699 1.1093389-1.7263923 1.664-3.2656 1.664-1.4837408 0-2.658929-.5407946-3.5256-1.6224s-1.3-2.4613249-1.3-4.1392c0-1.6362748.4402623-2.9743948 1.3208-4.0144s2.0279929-1.56 3.4424-1.56c.6517366 0 1.2653305.1351986 1.8408.4056s1.0226651.669064 1.3416 1.196h.0416v-5.408zm-7.9872 9.464c0 .9845383.2322643 1.80613.6968 2.4648s1.0989293.988 1.9032.988c.8458709 0 1.4802646-.3085302 1.9032-.9256s.6344-1.4663946.6344-2.548-.2218644-1.9205304-.6656-2.5168-1.0746626-.8944-1.8928-.8944c-.8458709 0-1.4871978.3119969-1.924.936s-.6552 1.4559948-.6552 2.496zm12.8336-5.3664v6.0944c0 .8320042.131732 1.4767977.3952 1.9344s.762663.6864 1.4976.6864c.8181374 0 1.4039982-.2426642 1.7576-.728s.5304-1.2618613.5304-2.3296v-5.6576h2.9536v10.7536h-2.808v-1.4976h-.0624c-.734937 1.1925393-1.837326 1.7888-3.3072 1.7888-1.4005403 0-2.402397-.3570631-3.0056-1.0712s-.9048-1.8130592-.9048-3.2968v-6.6768zm14.0816-.2912c1.0122717 0 1.913596.235731 2.704.7072s1.4109311 1.1543955 1.8616 2.0488.676 1.9239942.676 3.0888c0 .1109339-.0069333.2911988-.0208.5408h-7.7584c.0277335.8597376.2530646 1.5287976.676 2.0072s1.0711956.7176 1.9448.7176c.5408027 0 1.0365311-.1351986 1.4872-.4056s.7383994-.5997314.8632-.988h2.6c-.7626705 2.4128121-2.4405204 3.6192-5.0336 3.6192-.9845383-.0138667-1.8962625-.2287979-2.7352-.6448s-1.5079975-1.0642623-2.0072-1.9448-.7488-1.9031942-.7488-3.068c0-1.0954721.2530641-2.0938622.7592-2.9952s1.1786625-1.5738644 2.0176-2.0176 1.7437285-.6656 2.7144-.6656zm2.2672 4.5136c-.1386674-.8042707-.3951981-1.3866649-.7696-1.7472s-.9082632-.5408-1.6016-.5408c-.7210703 0-1.2895979.2045313-1.7056.6136s-.6586663.9671965-.728 1.6744zm7.904-4.0352v3.2032h-3.2656v-3.2032zm0 7.3632v3.2032h-3.2656v-3.2032z" fill="#2d74da"/></g></g></svg>