<svg height="126" viewBox="0 0 330 126" width="330" xmlns="http://www.w3.org/2000/svg"><g fill="none" fill-rule="evenodd" transform="translate(-135 -4)"><path d="m0 0h600v131h-600z"/><g transform="translate(425 46)"><path d="m39.5 39.5v-39h-19.5c-10.76955262 0-19.5 8.73044738-19.5 19.5 0 10.7695526 8.73044738 19.5 19.5 19.5z" fill="#eaeaea" stroke="#d8d8d8" transform="matrix(-1 0 0 1 40 0)"/><path d="m17.336 12.3488c1.4282738 0 2.6173286.4263957 3.5672 1.2792s1.4248 1.9447933 1.4248 3.276c0 .6101364-.0901324 1.1682641-.2704 1.6744s-.4887978 1.0087975-.9256 1.508-1.1959946 1.1023965-2.2776 1.8096c-1.6224081 1.0122717-2.7317304 1.9343958-3.328 2.7664h6.8848v2.5376h-10.6912c0-1.261873.301597-2.3538621.9048-3.276s1.7298584-1.9309279 3.38-3.0264c1.3173399-.8736044 2.1493316-1.4837316 2.496-1.8304s.5789327-.6725318.6968-.9776.1768-.6239983.1768-.9568c0-.6656033-.1941314-1.2063979-.5824-1.6224s-.9221299-.624-1.6016-.624c-.734937 0-1.299998.2981304-1.6952.8944s-.5997333 1.4143948-.6136 2.4544h-2.8288v-.2704c0-1.7056085.4783952-3.0679949 1.4352-4.0872s2.2394586-1.5288 3.848-1.5288z" fill="#464646"/></g><g transform="translate(393 46)"><path d="m.5.5h32v39h-32z" fill="#e1ebf7" stroke="#d8d8d8"/><path d="m12.1331429 14.9088 10.6921904 4.2016v2.4544l-10.6921904 4.2016v-2.392l7.7244761-3.0368-7.7244761-3.0368z" fill="#2d74da"/></g><g transform="translate(135 46)"><path d="m258.5 39.5v-39h-238.5c-10.76955262 0-19.5 8.73044738-19.5 19.5 0 10.7695526 8.73044738 19.5 19.5 19.5z" fill="#e1ebf7" stroke="#d8d8d8"/><path d="m20.5832609 12.3488 6.2320869 9.9632h.0418261v-9.9632h3.0742174v14.8512h-3.2833478l-6.2111739-9.9424h-.0418261v9.9424h-3.0742174v-14.8512zm14.5136521 4.0976v6.0944c0 .8320042.132448 1.4767977.3973479 1.9344.2648998.4576023.7668079.6864 1.5057391.6864.8225838 0 1.4116287-.2426642 1.7671522-.728s.5332826-1.2618613.5332826-2.3296v-5.6576h2.9696522v10.7536h-2.8232609v-1.4976h-.0627391c-.7389313 1.1925393-1.8473115 1.7888-3.325174 1.7888-1.4081519 0-2.4154534-.3570631-3.0219347-1.0712s-.9097174-1.8130592-.9097174-3.2968v-6.6768zm15.3292609-.2912c1.5754572 0 2.6280698.5962607 3.1578696 1.7888.8225838-1.1925393 1.9170221-1.7888 3.2833478-1.7888 1.3523836 0 2.3457432.3397299 2.9801087 1.0192s.9515435 1.6154607.9515435 2.808v7.2176h-2.9696522v-6.2192c0-.942938-.1429044-1.5946649-.4287174-1.9552s-.7493808-.5408-1.3907174-.5408c-1.3244994 0-1.9867391.9013243-1.9867391 2.704v6.0112h-2.9696522v-6.344c0-.9152046-.1463898-1.5391983-.4391739-1.872s-.7458955-.4992-1.3593478-.4992c-.5716261 0-1.0491358.2253311-1.4325435.676s-.5751087 1.043463-.5751087 1.7784v6.2608h-2.9696522v-10.7536h2.8023479v1.456h.041826c.8225839-1.1648058 1.9239931-1.7472 3.3042609-1.7472zm22.5442609 0c1.7288202 0 3.0951254.5234614 4.0989565 1.5704s1.5057391 2.4162582 1.5057391 4.108c0 1.7056085-.5123644 3.0749282-1.5371087 4.108-1.0247442 1.0330718-2.380593 1.5496-4.0675869 1.5496-1.7148782 0-3.0742124-.5234614-4.0780435-1.5704s-1.5057391-2.4093249-1.5057391-4.0872c0-1.733342.5123644-3.1130615 1.5371087-4.1392 1.0247442-1.0261385 2.373622-1.5392 4.0466739-1.5392zm-2.6141305 5.6784c0 1.0954721.2230703 1.9413304.6692174 2.5376.4461472.5962696 1.0944451.8944 1.9449131.8944.8783522 0 1.5371065-.3050636 1.9762826-.9152s.6587609-1.4490613.6587609-2.5168c0-1.1093389-.2265557-1.9621304-.679674-2.5584-.4531182-.5962696-1.1118724-.8944-1.9762826-.8944-.8365259 0-1.4778528.2981304-1.924.8944-.4461471.5962696-.6692174 1.4490611-.6692174 2.5584zm14.0117392-9.4848c.2509578 0 .7737786.0277331 1.5684782.0832v2.2048c-.3903787-.0416002-.7458969-.0624-1.0665652-.0624-.432205 0-.7319557.0935991-.8992608.2808-.1673052.1872009-.2509566.5095977-.2509566.9672v.624h2.0494783v1.976h-2.0494783v8.7776h-2.9696521v-8.7776h-1.7776087v-1.976h1.7776087v-.7904c0-1.0538719.3171779-1.8685305.9515434-2.444s1.523161-.8632 2.6664131-.8632zm15.7684345 0c1.254789 0 2.296945.3847962 3.1265 1.1544s1.244326 1.7506607 1.244326 2.9432c0 1.8581426-.787716 3.0991969-2.363174 3.7232v.0416c.5298.1525341.944571.4055982 1.244327.7592.299755.3536018.52631.766131.679673 1.2376.153364.471469.250957 1.2271948.292783 2.2672.055768 1.3589401.250955 2.2671977.585565 2.7248h-3.283348c-.181247-.4576023-.320666-1.317327-.41826-2.5792-.111537-1.3312067-.35552-2.2013313-.731957-2.6104s-.9898798-.6136-1.8403478-.6136h-3.3042609v5.8032h-3.2833478v-14.8512zm-1.1502171 6.7184c.6971049 0 1.2443241-.1559984 1.6416741-.468s.596022-.863196.596022-1.6536c0-.7488037-.195187-1.2791984-.585566-1.5912-.390378-.3120016-.948054-.468-1.6730432-.468h-3.5970435v4.1808zm12.3805221-2.912c1.017773 0 1.923996.235731 2.718695.7072.7947.471469 1.418599 1.1543955 1.871718 2.0488.453118.8944045.679674 1.9239942.679674 3.0888 0 .1109339-.006971.2911988-.020913.5408h-7.800566c.027885.8597376.25444 1.5287976.679674 2.0072s1.077018.7176 1.95537.7176c.543742 0 1.042164-.1351986 1.495282-.4056.453119-.2704014.742413-.5997314.867892-.988h2.61413c-.766815 2.4128121-2.453784 3.6192-5.060956 3.6192-.989889-.0138667-1.906569-.2287979-2.750066-.6448s-1.516193-1.0642623-2.018108-1.9448c-.501916-.8805377-.75287-1.9031942-.75287-3.068 0-1.0954721.25444-2.0938622.763326-2.9952.508887-.9013378 1.185068-1.5738644 2.028565-2.0176s1.753206-.6656 2.729153-.6656zm2.279521 4.5136c-.139421-.8042707-.397346-1.3866649-.773782-1.7472-.376437-.3605351-.9132-.5408-1.610305-.5408-.724989 0-1.296606.2045313-1.714869.6136s-.662246.9671965-.731957 1.6744zm10.749305-4.5136c1.575457 0 2.62807.5962607 3.157869 1.7888.822584-1.1925393 1.917022-1.7888 3.283348-1.7888 1.352384 0 2.345743.3397299 2.980109 1.0192.634365.6794701.951543 1.6154607.951543 2.808v7.2176h-2.969652v-6.2192c0-.942938-.142904-1.5946649-.428717-1.9552s-.749381-.5408-1.390718-.5408c-1.324499 0-1.986739.9013243-1.986739 2.704v6.0112h-2.969652v-6.344c0-.9152046-.14639-1.5391983-.439174-1.872s-.745895-.4992-1.359348-.4992c-.571626 0-1.049136.2253311-1.432543.676-.383408.4506689-.575109 1.043463-.575109 1.7784v6.2608h-2.969652v-10.7536h2.802348v1.456h.041826c.822584-1.1648058 1.923993-1.7472 3.304261-1.7472zm15.433826-3.8064v2.4336h-2.969652v-2.4336zm0 4.0976v10.7536h-2.969652v-10.7536zm8.218826-.2912c1.380268 0 2.380598.3466632 3.001022 1.04.620423.6933368.93063 1.7957258.93063 3.3072v6.6976h-2.969652v-6.0944c0-.8874711-.142904-1.5461312-.428718-1.976-.285813-.4298688-.777264-.6448-1.474369-.6448-.808642 0-1.394201.2426642-1.756696.728-.362494.4853358-.543739 1.2826611-.543739 2.392v5.5952h-2.969652v-10.7536h2.823261v1.4976h.062739c.738931-1.1925393 1.847311-1.7888 3.325174-1.7888zm16.395826-3.8064v14.8512h-2.823261v-1.3728h-.041826c-.641337 1.1093389-1.735775 1.664-3.283348 1.664-1.491804 0-2.67338-.5407946-3.544761-1.6224s-1.307065-2.4613249-1.307065-4.1392c0-1.6362748.442655-2.9743948 1.327978-4.0144.885324-1.0400052 2.039015-1.56 3.461109-1.56.655279 0 1.272207.1351986 1.850804.4056s1.028223.669064 1.348892 1.196h.041826v-5.408zm-8.030609 9.464c0 .9845383.233527 1.80613.700587 2.4648.467061.65867 1.104902.988 1.913544.988.850468 0 1.488309-.3085302 1.913543-.9256s.637848-1.4663946.637848-2.548-.22307-1.9205304-.669217-2.5168c-.446148-.5962696-1.080504-.8944-1.903087-.8944-.850468 0-1.495281.3119969-1.934457.936s-.658761 1.4559948-.658761 2.496zm14.994652-5.6576c1.017774 0 1.923996.235731 2.718696.7072s1.418599 1.1543955 1.871717 2.0488c.453119.8944045.679674 1.9239942.679674 3.0888 0 .1109339-.006971.2911988-.020913.5408h-7.800565c.027884.8597376.25444 1.5287976.679674 2.0072s1.077017.7176 1.95537.7176c.543741 0 1.042164-.1351986 1.495282-.4056s.742413-.5997314.867892-.988h2.61413c-.766815 2.4128121-2.453784 3.6192-5.060957 3.6192-.989889-.0138667-1.906568-.2287979-2.750065-.6448s-1.516193-1.0642623-2.018108-1.9448c-.501916-.8805377-.75287-1.9031942-.75287-3.068 0-1.0954721.254439-2.0938622.763326-2.9952s1.185068-1.5738644 2.028565-2.0176 1.753206-.6656 2.729152-.6656zm2.279522 4.5136c-.139421-.8042707-.397346-1.3866649-.773782-1.7472-.376437-.3605351-.9132-.5408-1.610305-.5408-.724989 0-1.296606.2045313-1.714869.6136s-.662246.9671965-.731957 1.6744zm10.832957-4.5136c.250957 0 .467057.0346663.648304.104v2.7456c-.320668-.0693337-.676186-.104-1.066565-.104-1.951894 0-2.927826 1.1509218-2.927826 3.4528v4.8464h-2.969652v-10.7536h2.82326v1.9968h.041827c.292784-.6933368.756351-1.2479979 1.390717-1.664.634365-.4160021 1.321003-.624 2.059935-.624zm5.918391 0c1.449978 0 2.582757.2911971 3.39837.8736.815612.5824029 1.272209 1.4351944 1.369804 2.5584h-2.823261c-.041826-.5130692-.230042-.8839989-.564652-1.1128s-.822577-.3432-1.463913-.3432c-.557684 0-.972455.0831992-1.244326.2496s-.407805.4159983-.407805.7488c0 .2496012.090623.4575992.27187.624s.4566.3119994.826065.4368c.369466.1248006.777266.2287996 1.223413.312 1.352384.263468 2.307403.5338653 2.865087.8112s.965484.6101314 1.223413.9984.386892.8666638.386892 1.4352c0 1.206406-.442655 2.1319968-1.327979 2.7768-.885323.6448032-2.087811.9672-3.6075.9672-1.589399 0-2.826742-.3397299-3.712065-1.0192s-1.34192-1.6015942-1.369804-2.7664h2.823261c0 .5546694.216099.9949317.648304 1.3208s.975939.4888 1.631217.4888c.557684 0 1.021252-.1213321 1.390718-.364.369465-.2426679.554195-.5789312.554195-1.0088 0-.2773347-.11502-.5061324-.345065-.6864-.230044-.1802676-.554193-.3397326-.972456-.4784s-1.066561-.2981324-1.944913-.4784c-.697105-.1386674-1.317519-.3258655-1.861261-.5616s-.958513-.5442648-1.244326-.9256-.428718-.8493306-.428718-1.404c0-.7072035.170788-1.324264.51237-1.8512.341581-.526936.864402-.9255986 1.568478-1.196s1.57893-.4056 2.624587-.4056zm16.835-4.16c1.826415 0 3.279857.4159958 4.36037 1.248 1.080512.8320042 1.62076 2.010659 1.62076 3.536h-3.178782c-.041826-.7488037-.296266-1.3103981-.763326-1.6848-.467061-.3744019-1.188553-.5616-2.1645-.5616-.683163 0-1.233868.1490652-1.652131.4472s-.627391.710664-.627391 1.2376c0 .4298688.128962.7418657.386891.936s.623904.3674659 1.097935.52 1.303574.3743985 2.488652.6656c1.240847.3050682 2.195866.6378649 2.865087.9984s1.1781.8215972 1.526652 1.3832c.348553.5616028.522826 1.2514626.522826 2.0696 0 .942938-.250954 1.781863-.752869 2.5168-.501916.734937-1.233865 1.2930648-2.19587 1.6744-.962004.3813352-2.049472.572-3.262434.572-1.8543 0-3.377451-.4610621-4.5695-1.3832-1.19205-.9221379-1.788066-2.1874586-1.788066-3.796v-.104h3.178783c0 .8736044.299751 1.5495976.899261 2.028s1.394198.7176 2.384087.7176c.878352 0 1.585903-.1559984 2.122674-.468.53677-.3120016.805152-.7730636.805152-1.3832 0-.4021353-.14639-.7418653-.439174-1.0192s-.683157-.5026658-1.17113-.676c-.487974-.1733342-1.310545-.391732-2.46774-.6552-1.338441-.3328017-2.314373-.6863981-2.927826-1.0608-.613452-.3744019-1.080505-.8285307-1.401174-1.3624-.320668-.5338693-.481-1.1751963-.481-1.924 0-.9290713.268382-1.7402632.805153-2.4336.53677-.6933368 1.23735-1.2063983 2.10176-1.5392.864411-.3328017 1.756691-.4992 2.67687-.4992zm12.819696 4.16c1.017773 0 1.923996.235731 2.718695.7072.7947.471469 1.418599 1.1543955 1.871718 2.0488.453118.8944045.679674 1.9239942.679674 3.0888 0 .1109339-.006971.2911988-.020913.5408h-7.800566c.027885.8597376.25444 1.5287976.679674 2.0072s1.077018.7176 1.95537.7176c.543742 0 1.042164-.1351986 1.495282-.4056.453119-.2704014.742413-.5997314.867892-.988h2.61413c-.766815 2.4128121-2.453784 3.6192-5.060956 3.6192-.989889-.0138667-1.906569-.2287979-2.750066-.6448s-1.516193-1.0642623-2.018108-1.9448c-.501916-.8805377-.75287-1.9031942-.75287-3.068 0-1.0954721.25444-2.0938622.763326-2.9952.508887-.9013378 1.185069-1.5738644 2.028565-2.0176.843497-.4437356 1.753206-.6656 2.729153-.6656zm2.279521 4.5136c-.139421-.8042707-.397346-1.3866649-.773782-1.7472-.376437-.3605351-.9132-.5408-1.610305-.5408-.724989 0-1.296606.2045313-1.714869.6136s-.662246.9671965-.731957 1.6744zm10.728392-4.5136c1.380267 0 2.380598.3466632 3.001021 1.04.620424.6933368.930631 1.7957258.930631 3.3072v6.6976h-2.969652v-6.0944c0-.8874711-.142905-1.5461312-.428718-1.976s-.777264-.6448-1.474369-.6448c-.808642 0-1.394201.2426642-1.756696.728-.362494.4853358-.543739 1.2826611-.543739 2.392v5.5952h-2.969652v-10.7536h2.823261v1.4976h.062739c.738931-1.1925393 1.847311-1.7888 3.325174-1.7888zm9.62-2.9328v3.224h2.174956v1.976h-2.174956v5.3248c0 .4992025.083651.8319992.250956.9984s.501911.2496 1.003826.2496c.362495 0 .669216-.0277331.920174-.0832v2.3088c-.418263.0693337-1.003822.104-1.756695.104-1.143253 0-1.993708-.1941314-2.551392-.5824s-.836521-1.0607952-.836521-2.0176v-6.3024h-1.798522v-1.976h1.798522v-3.224zm7.131348 3.4112v3.2032h-3.283348v-3.2032zm0 7.3632v3.2032h-3.283348v-3.2032z" fill="#2d74da"/></g><g stroke="#000" stroke-linecap="round" stroke-linejoin="round" stroke-width="2"><g transform="matrix(0 -1 1 0 147 113)"><path d="m22 .96015936h-10"/><path d="m10.7705882 121.940239h-9.99999996"/><path d="m11.5 240.039841v-238.75281888"/><path d="m22 240.039841h-10"/></g><g transform="matrix(0 -1 1 0 428 112)"><path d="m21 .5h-10"/><path d="m10 15.5h-10"/><path d="m10.5 29v-28"/><path d="m21 29.5h-10"/></g><g transform="matrix(0 1 -1 0 426 20)"><path d="m21 .5h-10"/><path d="m10 15.5h-10"/><path d="m10.5 29v-28"/><path d="m21 29.5h-10"/></g></g><path d="m209.466 127.168c-2.156 0-3.43-1.47-3.43-3.78s1.288-3.78 3.416-3.78c1.484 0 2.366.7 2.814 1.708l-1.19.644c-.252-.672-.784-1.092-1.624-1.092-1.148 0-1.82.77-1.82 1.918v1.204c0 1.134.658 1.918 1.848 1.918.896 0 1.442-.448 1.778-1.148l1.12.686c-.462 1.008-1.4 1.722-2.912 1.722zm8.134 0c-2.128 0-3.43-1.47-3.43-3.78s1.302-3.78 3.43-3.78 3.43 1.47 3.43 3.78-1.302 3.78-3.43 3.78zm0-1.204c1.106 0 1.834-.686 1.834-2.03v-1.092c0-1.344-.728-2.03-1.834-2.03s-1.834.686-1.834 2.03v1.092c0 1.344.728 2.03 1.834 2.03zm5.25 1.036v-1.232h2.394v-7.896h-2.394v-1.232h3.92v9.128h2.394v1.232zm13.048 0v-1.232h-.07c-.308.756-.896 1.4-2.086 1.4-1.456 0-2.436-.994-2.436-2.744v-4.648h1.526v4.424c0 1.148.518 1.722 1.498 1.722.784 0 1.568-.406 1.568-1.246v-4.9h1.526v7.224zm4.62 0h-1.302v-7.224h1.302v.938h.07c.224-.616.602-1.106 1.386-1.106.756 0 1.176.448 1.288 1.176h.056c.252-.658.686-1.176 1.554-1.176 1.106 0 1.498.812 1.498 2.31v5.082h-1.302v-4.886c0-.994-.224-1.33-.77-1.33-.49 0-.854.322-.854.98v5.236h-1.302v-4.886c0-.994-.21-1.33-.756-1.33-.504 0-.868.322-.868.98zm9.184 0h-1.526v-7.224h1.526v1.232h.07c.308-.756.896-1.4 2.086-1.4 1.456 0 2.436.994 2.436 2.744v4.648h-1.526v-4.424c0-1.148-.518-1.722-1.498-1.722-.784 0-1.568.406-1.568 1.246zm18.564.168c-2.156 0-3.43-1.47-3.43-3.78s1.288-3.78 3.416-3.78c1.484 0 2.366.7 2.814 1.708l-1.19.644c-.252-.672-.784-1.092-1.624-1.092-1.148 0-1.82.77-1.82 1.918v1.204c0 1.134.658 1.918 1.848 1.918.896 0 1.442-.448 1.778-1.148l1.12.686c-.462 1.008-1.4 1.722-2.912 1.722zm11.76-.168h-.938c-.868 0-1.302-.49-1.386-1.218h-.07c-.28.868-1.036 1.386-2.17 1.386-1.47 0-2.422-.826-2.422-2.184 0-1.4 1.022-2.156 3.164-2.156h1.386v-.56c0-.966-.518-1.47-1.554-1.47-.924 0-1.47.392-1.862.994l-.91-.742c.406-.784 1.386-1.442 2.912-1.442 1.82 0 2.94.91 2.94 2.562v3.626h.91zm-4.13-.952c.98 0 1.694-.49 1.694-1.204v-1.05h-1.358c-1.12 0-1.652.35-1.652.994v.28c0 .644.504.98 1.316.98zm12.096.952h-2.758c-1.26 0-1.848-.756-1.848-1.834v-4.158h-2.226v-1.232h1.582c.532 0 .742-.182.742-.742v-1.806h1.428v2.548h3.08v1.232h-3.08v4.76h3.08zm5.362.168c-2.212 0-3.514-1.47-3.514-3.766 0-2.324 1.344-3.794 3.402-3.794 2.03 0 3.318 1.456 3.318 3.584v.574h-5.18v.238c0 1.134.756 1.932 2.002 1.932.924 0 1.596-.434 2.002-1.106l.952.84c-.49.84-1.498 1.498-2.982 1.498zm-.112-6.398c-1.092 0-1.862.798-1.862 1.918v.098h3.626v-.14c0-1.134-.7-1.876-1.764-1.876zm12.138 7.014c0 1.484-1.246 2.184-3.794 2.184-2.492 0-3.36-.658-3.36-1.736 0-.784.462-1.19 1.26-1.4v-.14c-.49-.182-.798-.504-.798-1.05 0-.714.546-1.036 1.302-1.218v-.07c-.868-.406-1.386-1.176-1.386-2.212 0-1.54 1.162-2.534 2.94-2.534.504 0 .966.084 1.358.238v-.238c0-.56.322-.98.966-.98h1.316v1.204h-1.68v.336c.63.434.98 1.106.98 1.974 0 1.54-1.162 2.52-2.94 2.52-.322 0-.616-.028-.896-.084-.336.084-.756.308-.756.7 0 .448.49.504 1.12.504h1.624c1.946 0 2.744.812 2.744 2.002zm-1.428.098c0-.49-.336-.798-1.358-.798h-2.506c-.35.168-.532.434-.532.812 0 .546.42.994 1.484.994h1.134c1.148 0 1.778-.35 1.778-1.008zm-2.408-4.27c.98 0 1.442-.518 1.442-1.288v-.378c0-.77-.462-1.288-1.442-1.288s-1.442.518-1.442 1.288v.378c0 .77.462 1.288 1.442 1.288zm8.456 3.556c-2.128 0-3.43-1.47-3.43-3.78s1.302-3.78 3.43-3.78 3.43 1.47 3.43 3.78-1.302 3.78-3.43 3.78zm0-1.204c1.106 0 1.834-.686 1.834-2.03v-1.092c0-1.344-.728-2.03-1.834-2.03s-1.834.686-1.834 2.03v1.092c0 1.344.728 2.03 1.834 2.03zm5.264 1.036v-1.232h1.918v-4.76h-1.918v-1.232h3.444v1.918h.084c.28-1.008.91-1.918 2.38-1.918h.868v1.456h-1.428c-1.246 0-1.904.826-1.904 1.834v2.702h2.618v1.232zm12.502-4.2 1.148-3.024h1.54l-3.5 8.624c-.378.924-.896 1.4-2.044 1.4h-1.218v-1.232h1.708l.658-1.666-2.912-7.126h1.596l1.148 3.024.896 2.478h.084z" fill="#000"/><path d="m428.138 127h-1.876l-2.59-7.224h1.582l.994 3.052.938 2.898h.084l.938-2.898.994-3.052h1.526zm11.088 0h-.938c-.868 0-1.302-.49-1.386-1.218h-.07c-.28.868-1.036 1.386-2.17 1.386-1.47 0-2.422-.826-2.422-2.184 0-1.4 1.022-2.156 3.164-2.156h1.386v-.56c0-.966-.518-1.47-1.554-1.47-.924 0-1.47.392-1.862.994l-.91-.742c.406-.784 1.386-1.442 2.912-1.442 1.82 0 2.94.91 2.94 2.562v3.626h.91zm-4.13-.952c.98 0 1.694-.49 1.694-1.204v-1.05h-1.358c-1.12 0-1.652.35-1.652.994v.28c0 .644.504.98 1.316.98zm5.754.952v-1.232h2.394v-7.896h-2.394v-1.232h3.92v9.128h2.394v1.232zm13.048 0v-1.232h-.07c-.308.756-.896 1.4-2.086 1.4-1.456 0-2.436-.994-2.436-2.744v-4.648h1.526v4.424c0 1.148.518 1.722 1.498 1.722.784 0 1.568-.406 1.568-1.246v-4.9h1.526v7.224zm7.056.168c-2.212 0-3.514-1.47-3.514-3.766 0-2.324 1.344-3.794 3.402-3.794 2.03 0 3.318 1.456 3.318 3.584v.574h-5.18v.238c0 1.134.756 1.932 2.002 1.932.924 0 1.596-.434 2.002-1.106l.952.84c-.49.84-1.498 1.498-2.982 1.498zm-.112-6.398c-1.092 0-1.862.798-1.862 1.918v.098h3.626v-.14c0-1.134-.7-1.876-1.764-1.876z" fill="#000"/><path d="m381.6 14.168c-2.128 0-3.43-1.47-3.43-3.78s1.302-3.78 3.43-3.78 3.43 1.47 3.43 3.78-1.302 3.78-3.43 3.78zm0-1.204c1.106 0 1.834-.686 1.834-2.03v-1.092c0-1.344-.728-2.03-1.834-2.03s-1.834.686-1.834 2.03v1.092c0 1.344.728 2.03 1.834 2.03zm5.306 3.836v-10.024h1.526v1.232h.084c.42-.868 1.12-1.4 2.184-1.4 1.694 0 2.786 1.302 2.786 3.78s-1.092 3.78-2.786 3.78c-1.064 0-1.764-.532-2.184-1.4h-.084v4.032zm3.164-3.878c1.148 0 1.806-.77 1.806-1.946v-1.176c0-1.176-.658-1.946-1.806-1.946-.882 0-1.638.448-1.638 1.33v2.408c0 .882.756 1.33 1.638 1.33zm8.484 1.246c-2.212 0-3.514-1.47-3.514-3.766 0-2.324 1.344-3.794 3.402-3.794 2.03 0 3.318 1.456 3.318 3.584v.574h-5.18v.238c0 1.134.756 1.932 2.002 1.932.924 0 1.596-.434 2.002-1.106l.952.84c-.49.84-1.498 1.498-2.982 1.498zm-.112-6.398c-1.092 0-1.862.798-1.862 1.918v.098h3.626v-.14c0-1.134-.7-1.876-1.764-1.876zm5.222 6.23v-1.232h1.918v-4.76h-1.918v-1.232h3.444v1.918h.084c.28-1.008.91-1.918 2.38-1.918h.868v1.456h-1.428c-1.246 0-1.904.826-1.904 1.834v2.702h2.618v1.232zm15.162 0h-.938c-.868 0-1.302-.49-1.386-1.218h-.07c-.28.868-1.036 1.386-2.17 1.386-1.47 0-2.422-.826-2.422-2.184 0-1.4 1.022-2.156 3.164-2.156h1.386v-.56c0-.966-.518-1.47-1.554-1.47-.924 0-1.47.392-1.862.994l-.91-.742c.406-.784 1.386-1.442 2.912-1.442 1.82 0 2.94.91 2.94 2.562v3.626h.91zm-4.13-.952c.98 0 1.694-.49 1.694-1.204v-1.05h-1.358c-1.12 0-1.652.35-1.652.994v.28c0 .644.504.98 1.316.98zm12.096.952h-2.758c-1.26 0-1.848-.756-1.848-1.834v-4.158h-2.226v-1.232h1.582c.532 0 .742-.182.742-.742v-1.806h1.428v2.548h3.08v1.232h-3.08v4.76h3.08zm5.208.168c-2.128 0-3.43-1.47-3.43-3.78s1.302-3.78 3.43-3.78 3.43 1.47 3.43 3.78-1.302 3.78-3.43 3.78zm0-1.204c1.106 0 1.834-.686 1.834-2.03v-1.092c0-1.344-.728-2.03-1.834-2.03s-1.834.686-1.834 2.03v1.092c0 1.344.728 2.03 1.834 2.03zm5.264 1.036v-1.232h1.918v-4.76h-1.918v-1.232h3.444v1.918h.084c.28-1.008.91-1.918 2.38-1.918h.868v1.456h-1.428c-1.246 0-1.904.826-1.904 1.834v2.702h2.618v1.232z" fill="#000"/></g></svg>