<?xml version="1.0" encoding="UTF-8"?>
<svg width="330px" height="126px" viewBox="0 0 330 126" version="1.1" xmlns="http://www.w3.org/2000/svg" xmlns:xlink="http://www.w3.org/1999/xlink">
    <!-- Generator: Sketch 50.2 (55047) - http://www.bohemiancoding.com/sketch -->
    <title>formula</title>
    <desc>Created with Sketch.</desc>
    <defs></defs>
    <g id="Page-1" stroke="none" stroke-width="1" fill="none" fill-rule="evenodd">
        <g id="wireframes" transform="translate(-746.000000, -316.000000)">
            <g id="formula" transform="translate(611.000000, 312.000000)">
                <rect id="Rectangle-19" x="0" y="0" width="600" height="131"></rect>
                <g id="pill2" transform="translate(135.000000, 46.000000)">
                    <g id="value" transform="translate(290.000000, 0.000000)">
                        <path d="M39.5,39.5 L39.5,0.5 L20,0.5 C9.23044738,0.5 0.5,9.23044738 0.5,20 C0.5,30.7695526 9.23044738,39.5 20,39.5 L39.5,39.5 Z" id="Rectangle-2" stroke="#D8D8D8" fill="#EAEAEA" transform="translate(20.000000, 20.000000) scale(-1, 1) translate(-20.000000, -20.000000) "></path>
                        <path d="M17.336,12.3488 C18.7642738,12.3488 19.9533286,12.7751957 20.9032,13.628 C21.8530714,14.4808043 22.328,15.5727933 22.328,16.904 C22.328,17.5141364 22.2378676,18.0722641 22.0576,18.5784 C21.8773324,19.0845359 21.5688022,19.5871975 21.132,20.0864 C20.6951978,20.5856025 19.9360054,21.1887965 18.8544,21.896 C17.2319919,22.9082717 16.1226696,23.8303958 15.5264,24.6624 L22.4112,24.6624 L22.4112,27.2 L11.72,27.2 C11.72,25.938127 12.021597,24.8461379 12.6248,23.924 C13.228003,23.0018621 14.3546584,21.9930721 16.0048,20.8976 C17.3221399,20.0239956 18.1541316,19.4138684 18.5008,19.0672 C18.8474684,18.7205316 19.0797327,18.3946682 19.1976,18.0896 C19.3154673,17.7845318 19.3744,17.4656017 19.3744,17.1328 C19.3744,16.4671967 19.1802686,15.9264021 18.792,15.5104 C18.4037314,15.0943979 17.8698701,14.8864 17.1904,14.8864 C16.455463,14.8864 15.890402,15.1845304 15.4952,15.7808 C15.099998,16.3770696 14.8954667,17.1951948 14.8816,18.2352 L12.0528,18.2352 L12.0528,17.9648 C12.0528,16.2591915 12.5311952,14.8968051 13.488,13.8776 C14.4448048,12.8583949 15.7274586,12.3488 17.336,12.3488 Z" id="2" fill="#464646"></path>
                    </g>
                    <g id="filter" transform="translate(258.000000, 0.000000)">
                        <rect id="Rectangle-20" stroke="#D8D8D8" fill="#E1EBF7" x="0.5" y="0.5" width="32" height="39"></rect>
                        <polygon id="&gt;" fill="#2D74DA" points="12.1331429 14.9088 22.8253333 19.1104 22.8253333 21.5648 12.1331429 25.7664 12.1331429 23.3744 19.857619 20.3376 12.1331429 17.3008"></polygon>
                    </g>
                    <g id="col">
                        <path d="M258.5,39.5 L258.5,0.5 L20,0.5 C9.23044738,0.5 0.5,9.23044738 0.5,20 C0.5,30.7695526 9.23044738,39.5 20,39.5 L258.5,39.5 Z" id="Rectangle-2" stroke="#D8D8D8" fill="#E1EBF7"></path>
                        <path d="M20.5832609,12.3488 L26.8153478,22.312 L26.8571739,22.312 L26.8571739,12.3488 L29.9313913,12.3488 L29.9313913,27.2 L26.6480435,27.2 L20.4368696,17.2576 L20.3950435,17.2576 L20.3950435,27.2 L17.3208261,27.2 L17.3208261,12.3488 L20.5832609,12.3488 Z M35.096913,16.4464 L35.096913,22.5408 C35.096913,23.3728042 35.229361,24.0175977 35.4942609,24.4752 C35.7591607,24.9328023 36.2610688,25.1616 37,25.1616 C37.8225838,25.1616 38.4116287,24.9189358 38.7671522,24.4336 C39.1226757,23.9482642 39.3004348,23.1717387 39.3004348,22.104 L39.3004348,16.4464 L42.270087,16.4464 L42.270087,27.2 L39.4468261,27.2 L39.4468261,25.7024 L39.384087,25.7024 C38.6451557,26.8949393 37.5367755,27.4912 36.058913,27.4912 C34.6507611,27.4912 33.6434596,27.1341369 33.0369783,26.42 C32.430497,25.7058631 32.1272609,24.6069408 32.1272609,23.1232 L32.1272609,16.4464 L35.096913,16.4464 Z M50.4261739,16.1552 C52.0016311,16.1552 53.0542437,16.7514607 53.5840435,17.944 C54.4066273,16.7514607 55.5010656,16.1552 56.8673913,16.1552 C58.2197749,16.1552 59.2131345,16.4949299 59.8475,17.1744 C60.4818655,17.8538701 60.7990435,18.7898607 60.7990435,19.9824 L60.7990435,27.2 L57.8293913,27.2 L57.8293913,20.9808 C57.8293913,20.037862 57.6864869,19.3861351 57.4006739,19.0256 C57.1148609,18.6650649 56.6512931,18.4848 56.0099565,18.4848 C54.6854571,18.4848 54.0232174,19.3861243 54.0232174,21.1888 L54.0232174,27.2 L51.0535652,27.2 L51.0535652,20.856 C51.0535652,19.9407954 50.9071754,19.3168017 50.6143913,18.984 C50.3216072,18.6511983 49.8684958,18.4848 49.2550435,18.4848 C48.6834174,18.4848 48.2059077,18.7101311 47.8225,19.1608 C47.4390923,19.6114689 47.2473913,20.204263 47.2473913,20.9392 L47.2473913,27.2 L44.2777391,27.2 L44.2777391,16.4464 L47.080087,16.4464 L47.080087,17.9024 L47.121913,17.9024 C47.9444969,16.7375942 49.0459061,16.1552 50.4261739,16.1552 Z M72.9704348,16.1552 C74.699255,16.1552 76.0655602,16.6786614 77.0693913,17.7256 C78.0732224,18.7725386 78.5751304,20.1418582 78.5751304,21.8336 C78.5751304,23.5392085 78.062766,24.9085282 77.0380217,25.9416 C76.0132775,26.9746718 74.6574287,27.4912 72.9704348,27.4912 C71.2555566,27.4912 69.8962224,26.9677386 68.8923913,25.9208 C67.8885602,24.8738614 67.3866522,23.5114751 67.3866522,21.8336 C67.3866522,20.100258 67.8990166,18.7205385 68.9237609,17.6944 C69.9485051,16.6682615 71.2973829,16.1552 72.9704348,16.1552 Z M70.3563043,21.8336 C70.3563043,22.9290721 70.5793746,23.7749304 71.0255217,24.3712 C71.4716689,24.9674696 72.1199668,25.2656 72.9704348,25.2656 C73.848787,25.2656 74.5075413,24.9605364 74.9467174,24.3504 C75.3858935,23.7402636 75.6054783,22.9013387 75.6054783,21.8336 C75.6054783,20.7242611 75.3789226,19.8714696 74.9258043,19.2752 C74.4726861,18.6789304 73.8139319,18.3808 72.9495217,18.3808 C72.1129958,18.3808 71.4716689,18.6789304 71.0255217,19.2752 C70.5793746,19.8714696 70.3563043,20.7242611 70.3563043,21.8336 Z M84.3680435,12.3488 C84.6190013,12.3488 85.1418221,12.3765331 85.9365217,12.432 L85.9365217,14.6368 C85.546143,14.5951998 85.1906248,14.5744 84.8699565,14.5744 C84.4377515,14.5744 84.1380008,14.6679991 83.9706957,14.8552 C83.8033905,15.0424009 83.7197391,15.3647977 83.7197391,15.8224 L83.7197391,16.4464 L85.7692174,16.4464 L85.7692174,18.4224 L83.7197391,18.4224 L83.7197391,27.2 L80.750087,27.2 L80.750087,18.4224 L78.9724783,18.4224 L78.9724783,16.4464 L80.750087,16.4464 L80.750087,15.656 C80.750087,14.6021281 81.0672649,13.7874695 81.7016304,13.212 C82.3359959,12.6365305 83.2247914,12.3488 84.3680435,12.3488 Z M100.136478,12.3488 C101.391267,12.3488 102.433423,12.7335962 103.262978,13.5032 C104.092533,14.2728038 104.507304,15.2538607 104.507304,16.4464 C104.507304,18.3045426 103.719588,19.5455969 102.14413,20.1696 L102.14413,20.2112 C102.67393,20.3637341 103.088701,20.6167982 103.388457,20.9704 C103.688212,21.3240018 103.914767,21.736531 104.06813,22.208 C104.221494,22.679469 104.319087,23.4351948 104.360913,24.4752 C104.416681,25.8341401 104.611868,26.7423977 104.946478,27.2 L101.66313,27.2 C101.481883,26.7423977 101.342464,25.882673 101.24487,24.6208 C101.133333,23.2895933 100.88935,22.4194687 100.512913,22.0104 C100.136476,21.6013313 99.5230332,21.3968 98.6725652,21.3968 L95.3683043,21.3968 L95.3683043,27.2 L92.0849565,27.2 L92.0849565,12.3488 L100.136478,12.3488 Z M98.9862609,19.0672 C99.6833658,19.0672 100.230585,18.9112016 100.627935,18.5992 C101.025285,18.2871984 101.223957,17.736004 101.223957,16.9456 C101.223957,16.1967963 101.02877,15.6664016 100.638391,15.3544 C100.248013,15.0423984 99.690337,14.8864 98.9653478,14.8864 L95.3683043,14.8864 L95.3683043,19.0672 L98.9862609,19.0672 Z M111.366783,16.1552 C112.384556,16.1552 113.290779,16.390931 114.085478,16.8624 C114.880178,17.333869 115.504077,18.0167955 115.957196,18.9112 C116.410314,19.8056045 116.63687,20.8351942 116.63687,22 C116.63687,22.1109339 116.629899,22.2911988 116.615957,22.5408 L108.815391,22.5408 C108.843276,23.4005376 109.069831,24.0695976 109.495065,24.548 C109.920299,25.0264024 110.572083,25.2656 111.450435,25.2656 C111.994177,25.2656 112.492599,25.1304014 112.945717,24.86 C113.398836,24.5895986 113.68813,24.2602686 113.813609,23.872 L116.427739,23.872 C115.660924,26.2848121 113.973955,27.4912 111.366783,27.4912 C110.376894,27.4773333 109.460214,27.2624021 108.616717,26.8464 C107.77322,26.4303979 107.100524,25.7821377 106.598609,24.9016 C106.096693,24.0210623 105.845739,22.9984058 105.845739,21.8336 C105.845739,20.7381279 106.100179,19.7397378 106.609065,18.8384 C107.117952,17.9370622 107.794133,17.2645356 108.63763,16.8208 C109.481127,16.3770644 110.390836,16.1552 111.366783,16.1552 Z M113.646304,20.6688 C113.506883,19.8645293 113.248958,19.2821351 112.872522,18.9216 C112.496085,18.5610649 111.959322,18.3808 111.262217,18.3808 C110.537228,18.3808 109.965611,18.5853313 109.547348,18.9944 C109.129085,19.4034687 108.885102,19.9615965 108.815391,20.6688 L113.646304,20.6688 Z M124.395609,16.1552 C125.971066,16.1552 127.023679,16.7514607 127.553478,17.944 C128.376062,16.7514607 129.4705,16.1552 130.836826,16.1552 C132.18921,16.1552 133.182569,16.4949299 133.816935,17.1744 C134.4513,17.8538701 134.768478,18.7898607 134.768478,19.9824 L134.768478,27.2 L131.798826,27.2 L131.798826,20.9808 C131.798826,20.037862 131.655922,19.3861351 131.370109,19.0256 C131.084296,18.6650649 130.620728,18.4848 129.979391,18.4848 C128.654892,18.4848 127.992652,19.3861243 127.992652,21.1888 L127.992652,27.2 L125.023,27.2 L125.023,20.856 C125.023,19.9407954 124.87661,19.3168017 124.583826,18.984 C124.291042,18.6511983 123.837931,18.4848 123.224478,18.4848 C122.652852,18.4848 122.175342,18.7101311 121.791935,19.1608 C121.408527,19.6114689 121.216826,20.204263 121.216826,20.9392 L121.216826,27.2 L118.247174,27.2 L118.247174,16.4464 L121.049522,16.4464 L121.049522,17.9024 L121.091348,17.9024 C121.913932,16.7375942 123.015341,16.1552 124.395609,16.1552 Z M139.829435,12.3488 L139.829435,14.7824 L136.859783,14.7824 L136.859783,12.3488 L139.829435,12.3488 Z M139.829435,16.4464 L139.829435,27.2 L136.859783,27.2 L136.859783,16.4464 L139.829435,16.4464 Z M148.048261,16.1552 C149.428529,16.1552 150.428859,16.5018632 151.049283,17.1952 C151.669706,17.8885368 151.979913,18.9909258 151.979913,20.5024 L151.979913,27.2 L149.010261,27.2 L149.010261,21.1056 C149.010261,20.2181289 148.867357,19.5594688 148.581543,19.1296 C148.29573,18.6997312 147.804279,18.4848 147.107174,18.4848 C146.298532,18.4848 145.712973,18.7274642 145.350478,19.2128 C144.987984,19.6981358 144.806739,20.4954611 144.806739,21.6048 L144.806739,27.2 L141.837087,27.2 L141.837087,16.4464 L144.660348,16.4464 L144.660348,17.944 L144.723087,17.944 C145.462018,16.7514607 146.570398,16.1552 148.048261,16.1552 Z M164.444087,12.3488 L164.444087,27.2 L161.620826,27.2 L161.620826,25.8272 L161.579,25.8272 C160.937663,26.9365389 159.843225,27.4912 158.295652,27.4912 C156.803848,27.4912 155.622272,26.9504054 154.750891,25.8688 C153.87951,24.7871946 153.443826,23.4074751 153.443826,21.7296 C153.443826,20.0933252 153.886481,18.7552052 154.771804,17.7152 C155.657128,16.6751948 156.810819,16.1552 158.232913,16.1552 C158.888192,16.1552 159.50512,16.2903986 160.083717,16.5608 C160.662314,16.8312014 161.11194,17.229864 161.432609,17.7568 L161.474435,17.7568 L161.474435,12.3488 L164.444087,12.3488 Z M156.413478,21.8128 C156.413478,22.7973383 156.647005,23.61893 157.114065,24.2776 C157.581126,24.93627 158.218967,25.2656 159.027609,25.2656 C159.878077,25.2656 160.515918,24.9570698 160.941152,24.34 C161.366386,23.7229302 161.579,22.8736054 161.579,21.792 C161.579,20.7103946 161.35593,19.8714696 160.909783,19.2752 C160.463635,18.6789304 159.829279,18.3808 159.006696,18.3808 C158.156228,18.3808 157.511415,18.6927969 157.072239,19.3168 C156.633063,19.9408031 156.413478,20.7727948 156.413478,21.8128 Z M171.40813,16.1552 C172.425904,16.1552 173.332126,16.390931 174.126826,16.8624 C174.921526,17.333869 175.545425,18.0167955 175.998543,18.9112 C176.451662,19.8056045 176.678217,20.8351942 176.678217,22 C176.678217,22.1109339 176.671246,22.2911988 176.657304,22.5408 L168.856739,22.5408 C168.884623,23.4005376 169.111179,24.0695976 169.536413,24.548 C169.961647,25.0264024 170.61343,25.2656 171.491783,25.2656 C172.035524,25.2656 172.533947,25.1304014 172.987065,24.86 C173.440183,24.5895986 173.729478,24.2602686 173.854957,23.872 L176.469087,23.872 C175.702272,26.2848121 174.015303,27.4912 171.40813,27.4912 C170.418241,27.4773333 169.501562,27.2624021 168.658065,26.8464 C167.814568,26.4303979 167.141872,25.7821377 166.639957,24.9016 C166.138041,24.0210623 165.887087,22.9984058 165.887087,21.8336 C165.887087,20.7381279 166.141526,19.7397378 166.650413,18.8384 C167.1593,17.9370622 167.835481,17.2645356 168.678978,16.8208 C169.522475,16.3770644 170.432184,16.1552 171.40813,16.1552 Z M173.687652,20.6688 C173.548231,19.8645293 173.290306,19.2821351 172.91387,18.9216 C172.537433,18.5610649 172.00067,18.3808 171.303565,18.3808 C170.578576,18.3808 170.006959,18.5853313 169.588696,18.9944 C169.170433,19.4034687 168.92645,19.9615965 168.856739,20.6688 L173.687652,20.6688 Z M184.520609,16.1552 C184.771566,16.1552 184.987666,16.1898663 185.168913,16.2592 L185.168913,19.0048 C184.848245,18.9354663 184.492727,18.9008 184.102348,18.9008 C182.150454,18.9008 181.174522,20.0517218 181.174522,22.3536 L181.174522,27.2 L178.20487,27.2 L178.20487,16.4464 L181.02813,16.4464 L181.02813,18.4432 L181.069957,18.4432 C181.362741,17.7498632 181.826308,17.1952021 182.460674,16.7792 C183.095039,16.3631979 183.781677,16.1552 184.520609,16.1552 Z M190.439,16.1552 C191.888978,16.1552 193.021757,16.4463971 193.83737,17.0288 C194.652982,17.6112029 195.109579,18.4639944 195.207174,19.5872 L192.383913,19.5872 C192.342087,19.0741308 192.153871,18.7032011 191.819261,18.4744 C191.484651,18.2455989 190.996684,18.1312 190.355348,18.1312 C189.797664,18.1312 189.382893,18.2143992 189.111022,18.3808 C188.839151,18.5472008 188.703217,18.7967983 188.703217,19.1296 C188.703217,19.3792012 188.79384,19.5871992 188.975087,19.7536 C189.156334,19.9200008 189.431687,20.0655994 189.801152,20.1904 C190.170618,20.3152006 190.578418,20.4191996 191.024565,20.5024 C192.376949,20.765868 193.331968,21.0362653 193.889652,21.3136 C194.447336,21.5909347 194.855136,21.9237314 195.113065,22.312 C195.370994,22.7002686 195.499957,23.1786638 195.499957,23.7472 C195.499957,24.953606 195.057302,25.8791968 194.171978,26.524 C193.286655,27.1688032 192.084167,27.4912 190.564478,27.4912 C188.975079,27.4912 187.737736,27.1514701 186.852413,26.472 C185.96709,25.7925299 185.510493,24.8704058 185.482609,23.7056 L188.30587,23.7056 C188.30587,24.2602694 188.521969,24.7005317 188.954174,25.0264 C189.386379,25.3522683 189.930113,25.5152 190.585391,25.5152 C191.143075,25.5152 191.606643,25.3938679 191.976109,25.1512 C192.345574,24.9085321 192.530304,24.5722688 192.530304,24.1424 C192.530304,23.8650653 192.415284,23.6362676 192.185239,23.456 C191.955195,23.2757324 191.631046,23.1162674 191.212783,22.9776 C190.79452,22.8389326 190.146222,22.6794676 189.26787,22.4992 C188.570765,22.3605326 187.950351,22.1733345 187.406609,21.9376 C186.862867,21.7018655 186.448096,21.3933352 186.162283,21.012 C185.87647,20.6306648 185.733565,20.1626694 185.733565,19.608 C185.733565,18.9007965 185.904353,18.283736 186.245935,17.7568 C186.587516,17.229864 187.110337,16.8312014 187.814413,16.5608 C188.518489,16.2903986 189.393343,16.1552 190.439,16.1552 Z M207.274,11.9952 C209.100415,11.9952 210.553857,12.4111958 211.63437,13.2432 C212.714882,14.0752042 213.25513,15.253859 213.25513,16.7792 L210.076348,16.7792 C210.034522,16.0303963 209.780082,15.4688019 209.313022,15.0944 C208.845961,14.7199981 208.124469,14.5328 207.148522,14.5328 C206.465359,14.5328 205.914654,14.6818652 205.496391,14.98 C205.078128,15.2781348 204.869,15.690664 204.869,16.2176 C204.869,16.6474688 204.997962,16.9594657 205.255891,17.1536 C205.51382,17.3477343 205.879795,17.5210659 206.353826,17.6736 C206.827857,17.8261341 207.6574,18.0479985 208.842478,18.3392 C210.083325,18.6442682 211.038344,18.9770649 211.707565,19.3376 C212.376786,19.6981351 212.885665,20.1591972 213.234217,20.7208 C213.58277,21.2824028 213.757043,21.9722626 213.757043,22.7904 C213.757043,23.733338 213.506089,24.572263 213.004174,25.3072 C212.502258,26.042137 211.770309,26.6002648 210.808304,26.9816 C209.8463,27.3629352 208.758832,27.5536 207.54587,27.5536 C205.69157,27.5536 204.168419,27.0925379 202.97637,26.1704 C201.78432,25.2482621 201.188304,23.9829414 201.188304,22.3744 L201.188304,22.2704 L204.367087,22.2704 C204.367087,23.1440044 204.666838,23.8199976 205.266348,24.2984 C205.865858,24.7768024 206.660546,25.016 207.650435,25.016 C208.528787,25.016 209.236338,24.8600016 209.773109,24.548 C210.309879,24.2359984 210.578261,23.7749364 210.578261,23.1648 C210.578261,22.7626647 210.431871,22.4229347 210.139087,22.1456 C209.846303,21.8682653 209.45593,21.6429342 208.967957,21.4696 C208.479983,21.2962658 207.657412,21.077868 206.500217,20.8144 C205.161776,20.4815983 204.185844,20.1280019 203.572391,19.7536 C202.958939,19.3791981 202.491886,18.9250693 202.171217,18.3912 C201.850549,17.8573307 201.690217,17.2160037 201.690217,16.4672 C201.690217,15.5381287 201.958599,14.7269368 202.49537,14.0336 C203.03214,13.3402632 203.73272,12.8272017 204.59713,12.4944 C205.461541,12.1615983 206.353821,11.9952 207.274,11.9952 Z M220.093696,16.1552 C221.111469,16.1552 222.017692,16.390931 222.812391,16.8624 C223.607091,17.333869 224.23099,18.0167955 224.684109,18.9112 C225.137227,19.8056045 225.363783,20.8351942 225.363783,22 C225.363783,22.1109339 225.356812,22.2911988 225.34287,22.5408 L217.542304,22.5408 C217.570189,23.4005376 217.796744,24.0695976 218.221978,24.548 C218.647212,25.0264024 219.298996,25.2656 220.177348,25.2656 C220.72109,25.2656 221.219512,25.1304014 221.67263,24.86 C222.125749,24.5895986 222.415043,24.2602686 222.540522,23.872 L225.154652,23.872 C224.387837,26.2848121 222.700868,27.4912 220.093696,27.4912 C219.103807,27.4773333 218.187127,27.2624021 217.34363,26.8464 C216.500133,26.4303979 215.827437,25.7821377 215.325522,24.9016 C214.823606,24.0210623 214.572652,22.9984058 214.572652,21.8336 C214.572652,20.7381279 214.827092,19.7397378 215.335978,18.8384 C215.844865,17.9370622 216.521047,17.2645356 217.364543,16.8208 C218.20804,16.3770644 219.117749,16.1552 220.093696,16.1552 Z M222.373217,20.6688 C222.233796,19.8645293 221.975871,19.2821351 221.599435,18.9216 C221.222998,18.5610649 220.686235,18.3808 219.98913,18.3808 C219.264141,18.3808 218.692524,18.5853313 218.274261,18.9944 C217.855998,19.4034687 217.612015,19.9615965 217.542304,20.6688 L222.373217,20.6688 Z M233.101609,16.1552 C234.481876,16.1552 235.482207,16.5018632 236.10263,17.1952 C236.723054,17.8885368 237.033261,18.9909258 237.033261,20.5024 L237.033261,27.2 L234.063609,27.2 L234.063609,21.1056 C234.063609,20.2181289 233.920704,19.5594688 233.634891,19.1296 C233.349078,18.6997312 232.857627,18.4848 232.160522,18.4848 C231.35188,18.4848 230.766321,18.7274642 230.403826,19.2128 C230.041332,19.6981358 229.860087,20.4954611 229.860087,21.6048 L229.860087,27.2 L226.890435,27.2 L226.890435,16.4464 L229.713696,16.4464 L229.713696,17.944 L229.776435,17.944 C230.515366,16.7514607 231.623746,16.1552 233.101609,16.1552 Z M242.721609,13.2224 L242.721609,16.4464 L244.896565,16.4464 L244.896565,18.4224 L242.721609,18.4224 L242.721609,23.7472 C242.721609,24.2464025 242.80526,24.5791992 242.972565,24.7456 C243.13987,24.9120008 243.474476,24.9952 243.976391,24.9952 C244.338886,24.9952 244.645607,24.9674669 244.896565,24.912 L244.896565,27.2208 C244.478302,27.2901337 243.892743,27.3248 243.13987,27.3248 C241.996617,27.3248 241.146162,27.1306686 240.588478,26.7424 C240.030794,26.3541314 239.751957,25.6816048 239.751957,24.7248 L239.751957,18.4224 L237.953435,18.4224 L237.953435,16.4464 L239.751957,16.4464 L239.751957,13.2224 L242.721609,13.2224 Z M249.852957,16.6336 L249.852957,19.8368 L246.569609,19.8368 L246.569609,16.6336 L249.852957,16.6336 Z M249.852957,23.9968 L249.852957,27.2 L246.569609,27.2 L246.569609,23.9968 L249.852957,23.9968 Z" id="Num-of-Reminders-Sen" fill="#2D74DA"></path>
                    </g>
                </g>
                <g id="Group-2" transform="translate(267.500000, 102.000000) rotate(270.000000) translate(-267.500000, -102.000000) translate(256.500000, -18.500000)" stroke="#000000" stroke-linecap="round" stroke-linejoin="round" stroke-width="2">
                    <path d="M22,0.960159363 L12,0.960159363" id="Line-6"></path>
                    <path d="M10.7705882,121.940239 L0.770588235,121.940239" id="Line-6-Copy-3"></path>
                    <path d="M11.5,240.039841 L11.5,1.28702212" id="Line-6-Copy-2"></path>
                    <path d="M22,240.039841 L12,240.039841" id="Line-6-Copy"></path>
                </g>
                <g id="Group-2-Copy" transform="translate(443.000000, 101.500000) rotate(270.000000) translate(-443.000000, -101.500000) translate(432.500000, 86.500000)" stroke="#000000" stroke-linecap="round" stroke-linejoin="round" stroke-width="2">
                    <path d="M21,0.5 L11,0.5" id="Line-6"></path>
                    <path d="M10,15.5 L0,15.5" id="Line-6-Copy-3"></path>
                    <path d="M10.5,29 L10.5,1" id="Line-6-Copy-2"></path>
                    <path d="M21,29.5 L11,29.5" id="Line-6-Copy"></path>
                </g>
                <g id="Group-2-Copy-2" transform="translate(411.000000, 30.500000) rotate(90.000000) translate(-411.000000, -30.500000) translate(400.500000, 15.500000)" stroke="#000000" stroke-linecap="round" stroke-linejoin="round" stroke-width="2">
                    <path d="M21,0.5 L11,0.5" id="Line-6"></path>
                    <path d="M10,15.5 L0,15.5" id="Line-6-Copy-3"></path>
                    <path d="M10.5,29 L10.5,1" id="Line-6-Copy-2"></path>
                    <path d="M21,29.5 L11,29.5" id="Line-6-Copy"></path>
                </g>
                <path d="M209.466,127.168 C207.31,127.168 206.036,125.698 206.036,123.388 C206.036,121.078 207.324,119.608 209.452,119.608 C210.936,119.608 211.818,120.308 212.266,121.316 L211.076,121.96 C210.824,121.288 210.292,120.868 209.452,120.868 C208.304,120.868 207.632,121.638 207.632,122.786 L207.632,123.99 C207.632,125.124 208.29,125.908 209.48,125.908 C210.376,125.908 210.922,125.46 211.258,124.76 L212.378,125.446 C211.916,126.454 210.978,127.168 209.466,127.168 Z M217.6,127.168 C215.472,127.168 214.17,125.698 214.17,123.388 C214.17,121.078 215.472,119.608 217.6,119.608 C219.728,119.608 221.03,121.078 221.03,123.388 C221.03,125.698 219.728,127.168 217.6,127.168 Z M217.6,125.964 C218.706,125.964 219.434,125.278 219.434,123.934 L219.434,122.842 C219.434,121.498 218.706,120.812 217.6,120.812 C216.494,120.812 215.766,121.498 215.766,122.842 L215.766,123.934 C215.766,125.278 216.494,125.964 217.6,125.964 Z M222.85,127 L222.85,125.768 L225.244,125.768 L225.244,117.872 L222.85,117.872 L222.85,116.64 L226.77,116.64 L226.77,125.768 L229.164,125.768 L229.164,127 L222.85,127 Z M235.898,127 L235.898,125.768 L235.828,125.768 C235.52,126.524 234.932,127.168 233.742,127.168 C232.286,127.168 231.306,126.174 231.306,124.424 L231.306,119.776 L232.832,119.776 L232.832,124.2 C232.832,125.348 233.35,125.922 234.33,125.922 C235.114,125.922 235.898,125.516 235.898,124.676 L235.898,119.776 L237.424,119.776 L237.424,127 L235.898,127 Z M240.518,127 L239.216,127 L239.216,119.776 L240.518,119.776 L240.518,120.714 L240.588,120.714 C240.812,120.098 241.19,119.608 241.974,119.608 C242.73,119.608 243.15,120.056 243.262,120.784 L243.318,120.784 C243.57,120.126 244.004,119.608 244.872,119.608 C245.978,119.608 246.37,120.42 246.37,121.918 L246.37,127 L245.068,127 L245.068,122.114 C245.068,121.12 244.844,120.784 244.298,120.784 C243.808,120.784 243.444,121.106 243.444,121.764 L243.444,127 L242.142,127 L242.142,122.114 C242.142,121.12 241.932,120.784 241.386,120.784 C240.882,120.784 240.518,121.106 240.518,121.764 L240.518,127 Z M249.702,127 L248.176,127 L248.176,119.776 L249.702,119.776 L249.702,121.008 L249.772,121.008 C250.08,120.252 250.668,119.608 251.858,119.608 C253.314,119.608 254.294,120.602 254.294,122.352 L254.294,127 L252.768,127 L252.768,122.576 C252.768,121.428 252.25,120.854 251.27,120.854 C250.486,120.854 249.702,121.26 249.702,122.1 L249.702,127 Z M268.266,127.168 C266.11,127.168 264.836,125.698 264.836,123.388 C264.836,121.078 266.124,119.608 268.252,119.608 C269.736,119.608 270.618,120.308 271.066,121.316 L269.876,121.96 C269.624,121.288 269.092,120.868 268.252,120.868 C267.104,120.868 266.432,121.638 266.432,122.786 L266.432,123.99 C266.432,125.124 267.09,125.908 268.28,125.908 C269.176,125.908 269.722,125.46 270.058,124.76 L271.178,125.446 C270.716,126.454 269.778,127.168 268.266,127.168 Z M280.026,127 L279.088,127 C278.22,127 277.786,126.51 277.702,125.782 L277.632,125.782 C277.352,126.65 276.596,127.168 275.462,127.168 C273.992,127.168 273.04,126.342 273.04,124.984 C273.04,123.584 274.062,122.828 276.204,122.828 L277.59,122.828 L277.59,122.268 C277.59,121.302 277.072,120.798 276.036,120.798 C275.112,120.798 274.566,121.19 274.174,121.792 L273.264,121.05 C273.67,120.266 274.65,119.608 276.176,119.608 C277.996,119.608 279.116,120.518 279.116,122.17 L279.116,125.796 L280.026,125.796 L280.026,127 Z M275.896,126.048 C276.876,126.048 277.59,125.558 277.59,124.844 L277.59,123.794 L276.232,123.794 C275.112,123.794 274.58,124.144 274.58,124.788 L274.58,125.068 C274.58,125.712 275.084,126.048 275.896,126.048 Z M287.992,127 L285.234,127 C283.974,127 283.386,126.244 283.386,125.166 L283.386,121.008 L281.16,121.008 L281.16,119.776 L282.742,119.776 C283.274,119.776 283.484,119.594 283.484,119.034 L283.484,117.228 L284.912,117.228 L284.912,119.776 L287.992,119.776 L287.992,121.008 L284.912,121.008 L284.912,125.768 L287.992,125.768 L287.992,127 Z M293.354,127.168 C291.142,127.168 289.84,125.698 289.84,123.402 C289.84,121.078 291.184,119.608 293.242,119.608 C295.272,119.608 296.56,121.064 296.56,123.192 L296.56,123.766 L291.38,123.766 L291.38,124.004 C291.38,125.138 292.136,125.936 293.382,125.936 C294.306,125.936 294.978,125.502 295.384,124.83 L296.336,125.67 C295.846,126.51 294.838,127.168 293.354,127.168 Z M293.242,120.77 C292.15,120.77 291.38,121.568 291.38,122.688 L291.38,122.786 L295.006,122.786 L295.006,122.646 C295.006,121.512 294.306,120.77 293.242,120.77 Z M305.38,127.784 C305.38,129.268 304.134,129.968 301.586,129.968 C299.094,129.968 298.226,129.31 298.226,128.232 C298.226,127.448 298.688,127.042 299.486,126.832 L299.486,126.692 C298.996,126.51 298.688,126.188 298.688,125.642 C298.688,124.928 299.234,124.606 299.99,124.424 L299.99,124.354 C299.122,123.948 298.604,123.178 298.604,122.142 C298.604,120.602 299.766,119.608 301.544,119.608 C302.048,119.608 302.51,119.692 302.902,119.846 L302.902,119.608 C302.902,119.048 303.224,118.628 303.868,118.628 L305.184,118.628 L305.184,119.832 L303.504,119.832 L303.504,120.168 C304.134,120.602 304.484,121.274 304.484,122.142 C304.484,123.682 303.322,124.662 301.544,124.662 C301.222,124.662 300.928,124.634 300.648,124.578 C300.312,124.662 299.892,124.886 299.892,125.278 C299.892,125.726 300.382,125.782 301.012,125.782 L302.636,125.782 C304.582,125.782 305.38,126.594 305.38,127.784 Z M303.952,127.882 C303.952,127.392 303.616,127.084 302.594,127.084 L300.088,127.084 C299.738,127.252 299.556,127.518 299.556,127.896 C299.556,128.442 299.976,128.89 301.04,128.89 L302.174,128.89 C303.322,128.89 303.952,128.54 303.952,127.882 Z M301.544,123.612 C302.524,123.612 302.986,123.094 302.986,122.324 L302.986,121.946 C302.986,121.176 302.524,120.658 301.544,120.658 C300.564,120.658 300.102,121.176 300.102,121.946 L300.102,122.324 C300.102,123.094 300.564,123.612 301.544,123.612 Z M310,127.168 C307.872,127.168 306.57,125.698 306.57,123.388 C306.57,121.078 307.872,119.608 310,119.608 C312.128,119.608 313.43,121.078 313.43,123.388 C313.43,125.698 312.128,127.168 310,127.168 Z M310,125.964 C311.106,125.964 311.834,125.278 311.834,123.934 L311.834,122.842 C311.834,121.498 311.106,120.812 310,120.812 C308.894,120.812 308.166,121.498 308.166,122.842 L308.166,123.934 C308.166,125.278 308.894,125.964 310,125.964 Z M315.264,127 L315.264,125.768 L317.182,125.768 L317.182,121.008 L315.264,121.008 L315.264,119.776 L318.708,119.776 L318.708,121.694 L318.792,121.694 C319.072,120.686 319.702,119.776 321.172,119.776 L322.04,119.776 L322.04,121.232 L320.612,121.232 C319.366,121.232 318.708,122.058 318.708,123.066 L318.708,125.768 L321.326,125.768 L321.326,127 L315.264,127 Z M327.766,122.8 L328.914,119.776 L330.454,119.776 L326.954,128.4 C326.576,129.324 326.058,129.8 324.91,129.8 L323.692,129.8 L323.692,128.568 L325.4,128.568 L326.058,126.902 L323.146,119.776 L324.742,119.776 L325.89,122.8 L326.786,125.278 L326.87,125.278 L327.766,122.8 Z" id="column-category" fill="#000000"></path>
                <path d="M428.138,127 L426.262,127 L423.672,119.776 L425.254,119.776 L426.248,122.828 L427.186,125.726 L427.27,125.726 L428.208,122.828 L429.202,119.776 L430.728,119.776 L428.138,127 Z M439.226,127 L438.288,127 C437.42,127 436.986,126.51 436.902,125.782 L436.832,125.782 C436.552,126.65 435.796,127.168 434.662,127.168 C433.192,127.168 432.24,126.342 432.24,124.984 C432.24,123.584 433.262,122.828 435.404,122.828 L436.79,122.828 L436.79,122.268 C436.79,121.302 436.272,120.798 435.236,120.798 C434.312,120.798 433.766,121.19 433.374,121.792 L432.464,121.05 C432.87,120.266 433.85,119.608 435.376,119.608 C437.196,119.608 438.316,120.518 438.316,122.17 L438.316,125.796 L439.226,125.796 L439.226,127 Z M435.096,126.048 C436.076,126.048 436.79,125.558 436.79,124.844 L436.79,123.794 L435.432,123.794 C434.312,123.794 433.78,124.144 433.78,124.788 L433.78,125.068 C433.78,125.712 434.284,126.048 435.096,126.048 Z M440.85,127 L440.85,125.768 L443.244,125.768 L443.244,117.872 L440.85,117.872 L440.85,116.64 L444.77,116.64 L444.77,125.768 L447.164,125.768 L447.164,127 L440.85,127 Z M453.898,127 L453.898,125.768 L453.828,125.768 C453.52,126.524 452.932,127.168 451.742,127.168 C450.286,127.168 449.306,126.174 449.306,124.424 L449.306,119.776 L450.832,119.776 L450.832,124.2 C450.832,125.348 451.35,125.922 452.33,125.922 C453.114,125.922 453.898,125.516 453.898,124.676 L453.898,119.776 L455.424,119.776 L455.424,127 L453.898,127 Z M460.954,127.168 C458.742,127.168 457.44,125.698 457.44,123.402 C457.44,121.078 458.784,119.608 460.842,119.608 C462.872,119.608 464.16,121.064 464.16,123.192 L464.16,123.766 L458.98,123.766 L458.98,124.004 C458.98,125.138 459.736,125.936 460.982,125.936 C461.906,125.936 462.578,125.502 462.984,124.83 L463.936,125.67 C463.446,126.51 462.438,127.168 460.954,127.168 Z M460.842,120.77 C459.75,120.77 458.98,121.568 458.98,122.688 L458.98,122.786 L462.606,122.786 L462.606,122.646 C462.606,121.512 461.906,120.77 460.842,120.77 Z" id="value" fill="#000000"></path>
                <path d="M381.6,14.168 C379.472,14.168 378.17,12.698 378.17,10.388 C378.17,8.078 379.472,6.608 381.6,6.608 C383.728,6.608 385.03,8.078 385.03,10.388 C385.03,12.698 383.728,14.168 381.6,14.168 Z M381.6,12.964 C382.706,12.964 383.434,12.278 383.434,10.934 L383.434,9.842 C383.434,8.498 382.706,7.812 381.6,7.812 C380.494,7.812 379.766,8.498 379.766,9.842 L379.766,10.934 C379.766,12.278 380.494,12.964 381.6,12.964 Z M386.906,16.8 L386.906,6.776 L388.432,6.776 L388.432,8.008 L388.516,8.008 C388.936,7.14 389.636,6.608 390.7,6.608 C392.394,6.608 393.486,7.91 393.486,10.388 C393.486,12.866 392.394,14.168 390.7,14.168 C389.636,14.168 388.936,13.636 388.516,12.768 L388.432,12.768 L388.432,16.8 L386.906,16.8 Z M390.07,12.922 C391.218,12.922 391.876,12.152 391.876,10.976 L391.876,9.8 C391.876,8.624 391.218,7.854 390.07,7.854 C389.188,7.854 388.432,8.302 388.432,9.184 L388.432,11.592 C388.432,12.474 389.188,12.922 390.07,12.922 Z M398.554,14.168 C396.342,14.168 395.04,12.698 395.04,10.402 C395.04,8.078 396.384,6.608 398.442,6.608 C400.472,6.608 401.76,8.064 401.76,10.192 L401.76,10.766 L396.58,10.766 L396.58,11.004 C396.58,12.138 397.336,12.936 398.582,12.936 C399.506,12.936 400.178,12.502 400.584,11.83 L401.536,12.67 C401.046,13.51 400.038,14.168 398.554,14.168 Z M398.442,7.77 C397.35,7.77 396.58,8.568 396.58,9.688 L396.58,9.786 L400.206,9.786 L400.206,9.646 C400.206,8.512 399.506,7.77 398.442,7.77 Z M403.664,14 L403.664,12.768 L405.582,12.768 L405.582,8.008 L403.664,8.008 L403.664,6.776 L407.108,6.776 L407.108,8.694 L407.192,8.694 C407.472,7.686 408.102,6.776 409.572,6.776 L410.44,6.776 L410.44,8.232 L409.012,8.232 C407.766,8.232 407.108,9.058 407.108,10.066 L407.108,12.768 L409.726,12.768 L409.726,14 L403.664,14 Z M418.826,14 L417.888,14 C417.02,14 416.586,13.51 416.502,12.782 L416.432,12.782 C416.152,13.65 415.396,14.168 414.262,14.168 C412.792,14.168 411.84,13.342 411.84,11.984 C411.84,10.584 412.862,9.828 415.004,9.828 L416.39,9.828 L416.39,9.268 C416.39,8.302 415.872,7.798 414.836,7.798 C413.912,7.798 413.366,8.19 412.974,8.792 L412.064,8.05 C412.47,7.266 413.45,6.608 414.976,6.608 C416.796,6.608 417.916,7.518 417.916,9.17 L417.916,12.796 L418.826,12.796 L418.826,14 Z M414.696,13.048 C415.676,13.048 416.39,12.558 416.39,11.844 L416.39,10.794 L415.032,10.794 C413.912,10.794 413.38,11.144 413.38,11.788 L413.38,12.068 C413.38,12.712 413.884,13.048 414.696,13.048 Z M426.792,14 L424.034,14 C422.774,14 422.186,13.244 422.186,12.166 L422.186,8.008 L419.96,8.008 L419.96,6.776 L421.542,6.776 C422.074,6.776 422.284,6.594 422.284,6.034 L422.284,4.228 L423.712,4.228 L423.712,6.776 L426.792,6.776 L426.792,8.008 L423.712,8.008 L423.712,12.768 L426.792,12.768 L426.792,14 Z M432,14.168 C429.872,14.168 428.57,12.698 428.57,10.388 C428.57,8.078 429.872,6.608 432,6.608 C434.128,6.608 435.43,8.078 435.43,10.388 C435.43,12.698 434.128,14.168 432,14.168 Z M432,12.964 C433.106,12.964 433.834,12.278 433.834,10.934 L433.834,9.842 C433.834,8.498 433.106,7.812 432,7.812 C430.894,7.812 430.166,8.498 430.166,9.842 L430.166,10.934 C430.166,12.278 430.894,12.964 432,12.964 Z M437.264,14 L437.264,12.768 L439.182,12.768 L439.182,8.008 L437.264,8.008 L437.264,6.776 L440.708,6.776 L440.708,8.694 L440.792,8.694 C441.072,7.686 441.702,6.776 443.172,6.776 L444.04,6.776 L444.04,8.232 L442.612,8.232 C441.366,8.232 440.708,9.058 440.708,10.066 L440.708,12.768 L443.326,12.768 L443.326,14 L437.264,14 Z" id="operator" fill="#000000"></path>
            </g>
        </g>
    </g>
</svg>