<?xml version="1.0" encoding="UTF-8"?>
<svg width="729px" height="690px" viewBox="0 0 729 690" version="1.1" xmlns="http://www.w3.org/2000/svg" xmlns:xlink="http://www.w3.org/1999/xlink">
    <!-- Generator: Sketch 50.2 (55047) - http://www.bohemiancoding.com/sketch -->
    <title>hospital</title>
    <desc>Created with Sketch.</desc>
    <defs></defs>
    <g id="Page-1" stroke="none" stroke-width="1" fill="none" fill-rule="evenodd">
        <g id="illustrations" transform="translate(-104.000000, -622.000000)">
            <g id="hospital" transform="translate(104.000000, 622.000000)">
                <path d="M83,36 L83,688.088259 L575,688.088259 L575,36 L83,36 Z" id="Rectangle-12" stroke="#000000" stroke-width="2" fill="#FFFFFF"></path>
                <path d="M466.13937,12.3238104 C672.825066,68.522324 799.37642,319.624103 685.744515,503.066907 C572.112609,686.509711 313.44487,717.133356 211.643428,651.705998 C109.841986,586.278639 -82.6407648,464.409735 39.6037037,288.449837 C161.848172,112.489939 259.453674,-43.8747032 466.13937,12.3238104 Z" id="Rectangle-12-Copy" fill="#0000FF"></path>
                <path d="M217.676374,517.274736 L112.05639,454.558348 C111.818952,454.417359 111.740765,454.110584 111.881754,453.873146 C111.949273,453.759437 112.059091,453.677108 112.187169,453.644178 L324.420177,399.077771 L404.457664,468.825514 L217.676374,517.274736 Z" id="Path-56" stroke="#000000" stroke-width="2" fill="#000000"></path>
                <path d="M325.822037,173.408827 L469.495401,329.481091 L465.695567,520.423322 L324.08631,400.317573 L324.08631,174.086105 C324.08631,173.533821 324.534025,173.086105 325.08631,173.086105 C325.365882,173.086105 325.632689,173.203138 325.822037,173.408827 Z" id="Path-57" stroke="#000000" stroke-width="2" fill="#FFFFFF"></path>
                <path d="M111.761071,240.514703 L111.761071,453.537398 L323.864018,399.579642 L323.864018,173.462138 L111.761071,240.514703 Z" id="Path-45" stroke="#000000" stroke-width="2" fill="#FFFFFF"></path>
                <polygon id="Path-65" fill="#CCCCCC" points="363.924498 432.861418 363.924498 359 396.017062 384.620055 396.017062 460.165018"></polygon>
                <polyline id="Path-74" stroke="#000000" stroke-width="2" points="111.5577 441.575391 323.920823 386.035406 414.237421 464.405134"></polyline>
                <polyline id="Path-62" stroke="#000000" stroke-width="2" points="112.291255 381.15465 324.028453 319.287795 414.703797 403.511594"></polyline>
                <polyline id="Path-75" stroke="#000000" stroke-width="2" points="111.976457 314.810512 324.320283 250.418152 414.090379 343.354448"></polyline>
                <polyline id="Path-76" stroke="#000000" stroke-width="2" points="112.402663 254.805334 324.57207 189.857361 452.999343 325.278795"></polyline>
                <path d="M126.092134,247.703971 L126.092134,437.572173 L308.557369,389.880391 L308.557369,189.944896 L126.092134,247.703971 Z" id="Path-45" stroke="#000000" stroke-width="2" fill="#CCCCCC"></path>
                <polygon id="Path-59" fill="#000000" points="141.39908 310.959078 141.39908 269.153874 308.872709 215.421445 308.872709 259.730251"></polygon>
                <path d="M476.532152,688.172131 L470.266664,308.069235 L390.658,341.40841 L390.658,688.172131 L476.532152,688.172131 Z" id="Path-55" stroke="#000000" stroke-width="2" fill="#CCCCCC"></path>
                <path d="M367.844293,688.226377 L444.512331,688.226377 L444.512331,519.647914 L367.844293,451.610711 L367.844293,688.226377 Z" id="Path-51" stroke="#000000" stroke-width="2" fill="#FFFFFF"></path>
                <path d="M575.260358,429.527466 L470.552466,307.965349 C470.516422,307.923504 470.453281,307.918801 470.411435,307.954844 C470.388972,307.974193 470.376253,308.002511 470.37671,308.032154 L476.235273,687.991161 L575.260358,687.991161" id="Path-58" stroke="#000000" stroke-width="2" fill="#FFFFFF"></path>
                <polygon id="Path-61" fill="#000000" points="142.073347 331.214869 142.073347 433.448602 308.162951 390.303621 308.162951 280.525506"></polygon>
                <polygon id="Path-63" fill="#CCCCCC" points="148.191989 271.498406 148.191989 309.374114 211.445432 289.878558 211.445432 251.373077"></polygon>
                <polygon id="Path-60" stroke="#000000" stroke-width="2" fill="#FFFFFF" points="126.117963 316.481886 126.117963 322.522358 308.584592 265.973133 308.584592 260.219625"></polygon>
                <polygon id="Path-66" fill="#FFFFFF" points="127.148088 436.229472 127.148088 330.689143 130.74541 348.15232 130.74541 435.282573"></polygon>
                <path d="M149.813169,272.363436 L151,271.2419 C151.356951,270.904588 151.919762,270.920507 152.257075,271.277458 C152.413081,271.442547 152.5,271.661077 152.5,271.888216 L152.5,305.063418 C152.5,305.346544 152.379983,305.616401 152.169733,305.80602 L151,306.86097 C150.631563,307.193254 150.063516,307.163945 149.731233,306.795508 C149.582385,306.630465 149.5,306.416105 149.5,306.193855 L149.5,273.090253 C149.5,272.815224 149.613273,272.552335 149.813169,272.363436 Z" id="Rectangle-13" fill="#FFFFFF"></path>
                <g id="Group-2" transform="translate(180.000000, 275.000000) rotate(0.400000) translate(-180.000000, -275.000000) translate(149.000000, 253.000000)" stroke="#000000" stroke-linecap="round" stroke-linejoin="round" stroke-width="2">
                    <path d="M0.0511905195,20.4381146 L61.4577316,0.273202085" id="Path-64"></path>
                    <path d="M0.0511905195,23.8792273 L61.4787022,3.86424238" id="Path-64"></path>
                    <path d="M0.0511905195,27.32034 L61.4495642,7.45969753" id="Path-64"></path>
                    <path d="M0.164579234,31.1728104 L61.5292522,11.1630958" id="Path-64"></path>
                    <path d="M0.0511905195,35.2025654 L61.6703076,15.2660288" id="Path-64"></path>
                    <path d="M0.196418471,39.2947873 L61.5493621,19.5880764" id="Path-64"></path>
                    <path d="M0.301758139,43.3722128 L61.3866102,24.0618463" id="Path-64"></path>
                </g>
                <polygon id="Path-63" fill="#CCCCCC" transform="translate(270.717963, 251.218954) rotate(-2.700000) translate(-270.717963, -251.218954) " points="234.40186 242.295245 232.600123 280.500986 306.978749 261.305 308.835301 221.936901"></polygon>
                <path d="M237.240619,245.029098 L238.457647,243.845736 C238.784616,243.527812 239.307405,243.535144 239.62533,243.862113 C239.784709,244.026026 239.868998,244.248681 239.858122,244.477047 L238.246009,278.328179 C238.232735,278.606911 238.103601,278.867418 237.889811,279.046753 L236.735119,280.015352 C236.374881,280.317533 235.837885,280.270469 235.535704,279.910231 C235.398129,279.746225 235.327387,279.53641 235.33757,279.322585 L236.938872,245.698482 C236.950936,245.445164 237.058796,245.205891 237.240619,245.029098 Z" id="Rectangle-13-Copy" fill="#FFFFFF" transform="translate(237.597832, 261.913239) rotate(-3.000000) translate(-237.597832, -261.913239) "></path>
                <g id="Group-2" transform="translate(271.552349, 247.499086) rotate(-2.200000) translate(-271.552349, -247.499086) translate(234.052349, 222.999086)" stroke="#000000" stroke-linecap="round" stroke-linejoin="round" stroke-width="2">
                    <path d="M1.06550869,21.4381237 L74.1207529,0.594513042" id="Path-64"></path>
                    <path d="M1.06550869,24.8792364 L73.5425465,4.67670216" id="Path-64"></path>
                    <path d="M1.06550869,28.3203491 L73.3571422,8.45970667" id="Path-64"></path>
                    <path d="M1.19901475,32.1728195 L73.4509685,12.1631049" id="Path-64"></path>
                    <path d="M1.06550869,36.2025745 L73.6170498,16.266038" id="Path-64"></path>
                    <path d="M0.905379644,40.3974851 L73.4746462,20.5880855" id="Path-64"></path>
                    <path d="M0.885484535,44.5099553 L73.5648416,25.0000122" id="Path-64"></path>
                    <path d="M0.682244102,48.5044671 L73.2278849,29.0169702" id="Path-64-Copy"></path>
                </g>
                <polygon id="Path-67" fill="#FFFFFF" points="127 315.170751 130.350093 313.448234 130.350093 277.949102 127 264"></polygon>
                <polygon id="Path-72" fill="#CCCCCC" points="236 354.27288 236 313.078406 307.597207 291 307.597207 334.039557"></polygon>
                <polygon id="Path-72-Copy" fill="#CCCCCC" points="236 407.586487 236 373.90742 307.597207 353.477985 307.597207 388.770574"></polygon>
                <polygon id="Path-69" fill="#CCCCCC" points="147.364476 339.619274 147.364476 380.301529 226.133661 358.552915 226.133661 316.180001"></polygon>
                <polygon id="Path-70" fill="#CCCCCC" points="146.698365 431.135968 146.698365 398.861626 226.674054 376.593891 226.674054 410.027843"></polygon>
                <path d="M149.30816,341.388404 L150.5,340.246433 C150.85356,339.907667 151.414802,339.919659 151.753568,340.273219 C151.911713,340.43827 152,340.658024 152,340.88661 L152,374.549795 C152,374.830522 151.882002,375.098321 151.674834,375.287765 L150.5,376.362087 C150.134976,376.695882 149.568472,376.670566 149.234677,376.305542 C149.083716,376.140457 149,375.924854 149,375.701153 L149,342.110455 C149,341.837828 149.111309,341.577019 149.30816,341.388404 Z" id="Rectangle-13-Copy-2" fill="#FFFFFF"></path>
                <path d="M239.294704,314.455027 L240.5,313.255882 C240.844388,312.913252 241.401326,312.914676 241.743956,313.259064 C241.907943,313.423892 242,313.646943 242,313.879451 L242,348.902591 C242,349.176792 241.887406,349.438964 241.688562,349.627769 L240.5,350.756319 C240.14422,351.094135 239.581949,351.079572 239.244133,350.723793 C239.08739,350.558714 239,350.339761 239,350.112122 L239,315.16394 C239,314.897837 239.10606,314.642709 239.294704,314.455027 Z" id="Rectangle-13-Copy-4" fill="#FFFFFF"></path>
                <path d="M149.375766,400.100365 L150.5,399.202065 C150.898463,398.883679 151.479584,398.948595 151.79797,399.347058 C151.928757,399.51074 152,399.71403 152,399.923546 L152,427.68097 C152,427.992912 151.854431,428.286986 151.606383,428.476142 L150.5,429.319849 C150.089922,429.632566 149.50398,429.55364 149.191263,429.143562 C149.067198,428.980871 149,428.781935 149,428.577336 L149,400.881602 C149,400.577612 149.138277,400.290127 149.375766,400.100365 Z" id="Rectangle-13-Copy-3" fill="#FFFFFF"></path>
                <path d="M239.357697,375.169201 L240.5,374.211925 C240.886621,373.887927 241.46269,373.938694 241.786687,374.325315 C241.924482,374.489743 242,374.69743 242,374.911963 L242,404.118962 C242,404.42279 241.86187,404.71014 241.624596,404.89991 L240.5,405.799353 C240.101773,406.117852 239.520751,406.053219 239.202252,405.654992 C239.071326,405.491292 239,405.287915 239,405.078298 L239,375.935652 C239,375.639838 239.13097,375.359204 239.357697,375.169201 Z" id="Rectangle-13-Copy-5" fill="#FFFFFF"></path>
                <polygon id="Path-71" stroke="#000000" stroke-width="2" fill="#FFFFFF" points="225.713164 306.726919 225.713164 411.342909 235.890885 408.515177 235.890885 303.679039"></polygon>
                <path d="M138,381.7581 L138,388.085156 C138,388.63744 138.447715,389.085156 139,389.085156 C139.090848,389.085156 139.181272,389.072776 139.268777,389.048358 L308.479587,341.830955 L308.479587,333.67626 L138,381.7581 Z" id="Path-68" stroke="#000000" stroke-width="2" fill="#FFFFFF"></path>
                <path d="M138.746245,389.409217 L143.839989,392.83775 L308.555079,346.53127 L308.555079,340.993477 L138.803442,389.050864 C138.697162,389.080952 138.635396,389.1915 138.665485,389.29778 C138.678374,389.34331 138.70699,389.382795 138.746245,389.409217 Z" id="Path-68-Copy" stroke="#000000" stroke-width="2" fill="#CCCCCC"></path>
                <path d="M83.2637087,520.514418 L366.974254,451.552966 C367.403581,451.44861 367.836216,451.712051 367.940573,452.141377 C367.950597,452.182617 367.958142,530.833955 367.963208,688.095391 L83.2637087,688.095391" id="Path-54" stroke="#000000" stroke-width="2" fill="#CCCCCC"></path>
                <polygon id="Path-73" fill="#000000" points="82.9397722 532.849936 347.052368 469.448791 347.052368 487.836829 82.9397722 548.524692"></polygon>
                <polygon id="Path-79" fill="#000000" points="83.0857634 561.615126 346.888888 502.628272 346.888888 537.643697 83.0857634 593.732773"></polygon>
                <path d="M201.637771,505.387403 L201.637771,567.394637 L225.082964,562.240942 L225.082964,499.753467 L201.637771,505.387403 Z" id="Path-3" stroke="#000000" stroke-width="2" fill="#CCCCCC"></path>
                <polyline id="Path-77" stroke="#000000" stroke-width="2" points="346.698096 539.431623 367.476608 535.155716 444.377404 594.350259"></polyline>
                <polyline id="Path-78" stroke="#000000" stroke-width="2" points="346.731664 617.397 367.33914 613.560672 444.295882 665.592471"></polyline>
                <path d="M225.856597,537.159157 L225.856597,562.351523 L257.913359,555.557977 L257.913359,529.955836 L225.856597,537.159157 Z" id="Path-80" stroke="#000000" stroke-width="2" fill="#FFFFFF"></path>
                <polyline id="Path-81" stroke="#000000" stroke-width="2" fill="#FFFFFF" points="346.812765 510.465239 265.594133 528.672425 265.594133 553.696702 346.812765 536.36995"></polyline>
                <polygon id="Path-4" stroke="#000000" stroke-width="2" fill="#FFFFFF" points="173.709128 547.909931 201.403479 542.152972 201.403479 567.647445 173.709128 573.412354"></polygon>
                <polygon id="Path-5" stroke="#000000" stroke-width="2" fill="#FFFFFF" points="83.2842828 567.450145 165.928329 549.699223 165.928329 574.974198 83.2842828 592.426048"></polygon>
                <polyline id="Path-82" stroke="#000000" stroke-width="2" fill="#FFFFFF" points="346.466831 620.939837 83.0325264 671.035955 83.0325264 601.302541 83.0325264 601.302541 346.466831 545.339495"></polyline>
                <polygon id="Combined-Shape" fill="#000000" points="83.0325264 613.341596 346.466831 558.446271 346.466831 620.939837 83.0325264 671.035955"></polygon>
                <polygon id="Combined-Shape" fill="#CCCCCC" points="84.1408897 620.628016 97.027693 618.487169 95.9206632 668.503894 84.1408897 670.664872"></polygon>
                <polygon id="Path-6" fill="#CCCCCC" points="121.511672 611.799684 120.145178 664.711686 214.849277 645.653639 215.582511 592.043571"></polygon>
                <polygon id="Path-7" fill="#CCCCCC" points="235.430084 588.417368 346.807335 565.171446 346.807335 620.509989 235.430084 641.807497"></polygon>
                <g id="Group-4" transform="translate(82.000000, 621.000000)" stroke="#FFFFFF" stroke-linecap="round" stroke-linejoin="round" stroke-width="2">
                    <path d="M1,2.20871333 L13.5297977,0" id="Line"></path>
                    <path d="M1,5.20871333 L13.5297977,3" id="Line-Copy-13"></path>
                    <path d="M1,8.20871333 L13.5297977,6" id="Line-Copy-14"></path>
                    <path d="M1,11.2087133 L13.5297977,9" id="Line-Copy-15"></path>
                    <path d="M0.97025321,14.6534726 L13.5294666,12.3682432" id="Line-Copy-16"></path>
                    <path d="M1,18.2087133 L13.2073157,15.9807266" id="Line-Copy-17"></path>
                    <path d="M1,22.2087133 L13.0591052,20.0255875" id="Line-Copy-18"></path>
                    <path d="M1,26.2087133 L12.9241209,23.9918696" id="Line-Copy-19"></path>
                    <path d="M1,30.2087133 L13.0077568,28.1911649" id="Line-Copy-20"></path>
                    <path d="M1,34.2087133 L12.9097278,32.2021824" id="Line-Copy-21"></path>
                </g>
                <polygon id="Combined-Shape" stroke="#000000" stroke-width="2" points="83.0325264 613.341596 346.466831 558.446271 346.466831 620.939837 83.0325264 671.035955"></polygon>
                <g id="Group-3" transform="translate(122.000000, 594.000000)" stroke="#FFFFFF" stroke-linecap="round" stroke-linejoin="round" stroke-width="2">
                    <path d="M0.964560508,20.14708 L91.7738043,0.330864267" id="Line"></path>
                    <path d="M0.82204191,24.0463888 L91.3973663,4" id="Line-Copy"></path>
                    <path d="M0.676102866,40.3653383 L91.3744921,20.1693206" id="Line-Copy-5"></path>
                    <path d="M0.723989115,32.1260532 L91.3973663,12" id="Line-Copy-3"></path>
                    <path d="M0.991354005,28.0950572 L91.3973663,8" id="Line-Copy-2"></path>
                    <path d="M0.633917361,44.3638401 L91.372462,24.4549303" id="Line-Copy-7"></path>
                    <path d="M0.574629625,36.2020851 L91.3973663,16" id="Line-Copy-4"></path>
                </g>
                <g id="Group-3-Copy" transform="translate(290.139695, 603.007508) rotate(-1.500000) translate(-290.139695, -603.007508) translate(235.139695, 568.007508)" stroke="#FFFFFF" stroke-linecap="round" stroke-linejoin="round" stroke-width="2">
                    <path d="M2.07417555,21.0090121 L109.733768,0.860507876" id="Line"></path>
                    <path d="M2.07417555,25.0090121 L109.389483,4.57997793" id="Line-Copy"></path>
                    <path d="M2.07417555,41.0090121 L109.151996,20.6342258" id="Line-Copy-5"></path>
                    <path d="M2.07417555,33.0090121 L109.267107,12.6263521" id="Line-Copy-3"></path>
                    <path d="M1.61563185,49.1144905 L108.968629,29.6069211" id="Line-Copy-6"></path>
                    <path d="M2.07417555,29.0090121 L109.179396,8.73913003" id="Line-Copy-2"></path>
                    <path d="M2.07417555,45.0090121 L108.87148,25.1625619" id="Line-Copy-7"></path>
                    <path d="M2.07417555,37.0090121 L109.115883,16.7869074" id="Line-Copy-4"></path>
                    <path d="M1.06979325,53.213107 L108.694262,34.0046679" id="Line-Copy-8"></path>
                    <path d="M1.05235921,57.2086676 L108.57085,38.0158041" id="Line-Copy-9"></path>
                    <path d="M1.03490614,61.2085914 L108.540589,42.6000145" id="Line-Copy-10"></path>
                    <path d="M1.01745307,65.2085153 L108.657231,47.1868418" id="Line-Copy-11"></path>
                    <path d="M0.978167281,69.2124787 L108.503978,51.5833491" id="Line-Copy-12"></path>
                </g>
                <path d="M121.59336,688.095391 L121.59336,683.431438 L214.574071,665.620444 L214.574071,688.095391 L121.59336,688.095391 Z" id="Combined-Shape" stroke="#000000" stroke-width="2" fill="#FFFFFF"></path>
                <polyline id="Combined-Shape" stroke="#000000" stroke-width="2" fill="#FFFFFF" points="346.942469 688.095391 237.540787 688.095391 237.540787 661.274153 346.942469 641.645054"></polyline>
                <path d="M83.2637087,520.514418 L366.974254,451.552966 C367.403581,451.44861 367.836216,451.712051 367.940573,452.141377 C367.955609,452.203237 367.963208,452.266671 367.963208,452.330331 L367.963208,688.095391 L83.2637087,688.095391 L83.2637087,520.514418 Z" id="Path-54" stroke="#000000" stroke-width="2"></path>
                <path d="M83.4438114,678.467901 L346.785255,629.350735" id="Path-84" stroke="#000000" stroke-width="2"></path>
                <path d="M346.456361,641.396185 L94.2936649,688.080669 L83.8520131,688.080669 C83.8520131,684.810257 83.8520131,683.175051 83.8520131,683.175051 C83.8520131,683.175051 171.386796,666.88819 346.456361,634.314468 L346.456361,641.396185 Z" id="Path-85" fill="#000000"></path>
                <polygon id="Path-86" stroke="#000000" stroke-width="2" fill="#000000" points="476.509953 324.848114 574.889632 437.006002 574.889632 465.440552 478.558648 358.065215"></polygon>
                <polyline id="Path-87" stroke="#000000" stroke-width="2" fill="#CCCCCC" points="575.179656 487.141636 479 387 479 417.728284 575.179656 518.353834"></polyline>
                <polygon id="Combined-Shape" fill="#FFFFFF" points="555.590592 468.245918 555.590592 496.407332 553.793898 494.525095 553.793898 466.418629"></polygon>
                <polygon id="Combined-Shape" fill="#FFFFFF" points="550.501773 462.898885 550.501773 491.069628 546.755785 487.163437 546.755785 458.944201"></polygon>
                <polyline id="Path-87-Copy" stroke="#000000" stroke-width="2" fill="#CCCCCC" points="575.312432 543.042773 480 447.829948 480 447.829948 480 484.330535 575.312432 574.637008"></polyline>
                <polyline id="Path-88" stroke="#000000" stroke-width="2" fill="#CCCCCC" points="575.579434 626.172097 480.49143 545.495902 480.49143 512.049388 480.49143 512.049388 575.579434 595.620007"></polyline>
                <polyline id="Path-90" stroke="#000000" stroke-width="2" fill="#CCCCCC" points="575.547873 685.911792 481.165784 610.708264 481.165784 572.331152 575.547873 649.479889"></polyline>
                <polygon id="Combined-Shape" fill="#FFFFFF" points="514.446711 543.17159 514.446711 572.990756 507.330112 566.946602 507.330112 536.900024"></polygon>
                <polygon id="Path-91" stroke="#000000" stroke-width="2" fill="#CCCCCC" points="482.290407 638.515722 549.605551 687.872207 482.290407 687.872207"></polygon>
                <path d="M505,595 L535.878834,620.615265" id="Line-2" stroke="#000000" stroke-width="2" stroke-linecap="round"></path>
                <path d="M505,599 L535.878834,624.615265" id="Line-2-Copy" stroke="#000000" stroke-width="2" stroke-linecap="round"></path>
                <path d="M505,603 L535.878834,628.615265" id="Line-2-Copy-2" stroke="#000000" stroke-width="2" stroke-linecap="round"></path>
                <path d="M544,571 L570.836156,594.765317" id="Line-2-Copy-3" stroke="#000000" stroke-width="2" stroke-linecap="round"></path>
                <path d="M542,514 L567.96289,539.555091" id="Line-2-Copy-15" stroke="#000000" stroke-width="2" stroke-linecap="round"></path>
                <path d="M542,518 L567.96289,543.555091" id="Line-2-Copy-16" stroke="#000000" stroke-width="2" stroke-linecap="round"></path>
                <path d="M542,522 L567.96289,547.555091" id="Line-2-Copy-17" stroke="#000000" stroke-width="2" stroke-linecap="round"></path>
                <path d="M504.214707,417.250648 L527.161167,441.115586" id="Line-2-Copy-24" stroke="#000000" stroke-width="2" stroke-linecap="round"></path>
                <path d="M504.603354,425.091016 L526.927429,449.099621" id="Line-2-Copy-26" stroke="#000000" stroke-width="2" stroke-linecap="round"></path>
                <path d="M504.850026,432.947247 L527.089828,457.099621" id="Line-2-Copy-28" stroke="#000000" stroke-width="2" stroke-linecap="round"></path>
                <path d="M504.515314,421.283064 L526.64877,444.642757" id="Line-2-Copy-25" stroke="#000000" stroke-width="2" stroke-linecap="round"></path>
                <path d="M504.693378,429.050858 L526.927429,453.099621" id="Line-2-Copy-27" stroke="#000000" stroke-width="2" stroke-linecap="round"></path>
                <path d="M504.656099,436.835704 L526.828473,460.73259" id="Line-2-Copy-29" stroke="#000000" stroke-width="2" stroke-linecap="round"></path>
                <path d="M504.810875,441.062614 L526.868083,464.560588" id="Line-2-Copy-30" stroke="#000000" stroke-width="2" stroke-linecap="round"></path>
                <path d="M478,450 L496.540665,468.624044" id="Line-2-Copy-18" stroke="#000000" stroke-width="2" stroke-linecap="round"></path>
                <path d="M478,454 L496.540665,472.624044" id="Line-2-Copy-19" stroke="#000000" stroke-width="2" stroke-linecap="round"></path>
                <path d="M478,458 L496.540665,476.624044" id="Line-2-Copy-20" stroke="#000000" stroke-width="2" stroke-linecap="round"></path>
                <path d="M478,462 L496.540665,480.624044" id="Line-2-Copy-21" stroke="#000000" stroke-width="2" stroke-linecap="round"></path>
                <path d="M477,465 L495.413834,483.83453" id="Line-2-Copy-22" stroke="#000000" stroke-width="2" stroke-linecap="round"></path>
                <path d="M477,469 L495.524273,488.33667" id="Line-2-Copy-23" stroke="#000000" stroke-width="2" stroke-linecap="round"></path>
                <path d="M544,575 L570.836156,598.765317" id="Line-2-Copy-4" stroke="#000000" stroke-width="2" stroke-linecap="round"></path>
                <path d="M544,579 L570.836156,602.765317" id="Line-2-Copy-5" stroke="#000000" stroke-width="2" stroke-linecap="round"></path>
                <path d="M544,583 L570.836156,606.765317" id="Line-2-Copy-6" stroke="#000000" stroke-width="2" stroke-linecap="round"></path>
                <path d="M544,587 L570.836156,610.765317" id="Line-2-Copy-7" stroke="#000000" stroke-width="2" stroke-linecap="round"></path>
                <path d="M506,659 L531.602291,678.138885" id="Line-2-Copy-8" stroke="#000000" stroke-width="2" stroke-linecap="round"></path>
                <path d="M506,663 L531.602291,682.138885" id="Line-2-Copy-9" stroke="#000000" stroke-width="2" stroke-linecap="round"></path>
                <path d="M506,667 L531.602291,686.138885" id="Line-2-Copy-10" stroke="#000000" stroke-width="2" stroke-linecap="round"></path>
                <path d="M506,671 L529,688" id="Line-2-Copy-11" stroke="#000000" stroke-width="2" stroke-linecap="round"></path>
                <path d="M506,675 L523.375757,687.731761" id="Line-2-Copy-12" stroke="#000000" stroke-width="2" stroke-linecap="round"></path>
                <path d="M506,679 L517.5,687.5" id="Line-2-Copy-13" stroke="#000000" stroke-width="2" stroke-linecap="round"></path>
                <path d="M505.080529,682.630041 L512.352078,687.636376" id="Line-2-Copy-14" stroke="#000000" stroke-width="2" stroke-linecap="round"></path>
                <path d="M490.347754,357.962404 L498.826218,353.965481 C499.825332,353.494478 501.017098,353.922596 501.488101,354.921711 C501.608741,355.177617 501.673714,355.456207 501.67873,355.739079 L507.568316,687.878341 L495.341146,687.878341 L489.200931,359.808886 C489.186189,359.021247 489.635186,358.298323 490.347754,357.962404 Z" id="Path-89" stroke="#000000" stroke-width="2" fill="#FFFFFF"></path>
                <path d="M527.026017,401.954557 L534.732251,397.355655 C535.680757,396.789608 536.908545,397.099653 537.474592,398.048159 C537.651902,398.345272 537.7491,398.683303 537.756688,399.029219 L544.092628,687.880803 L532.019122,687.880803 L526.051377,403.713973 C526.036276,402.994918 526.40842,402.323125 527.026017,401.954557 Z" id="Path-92" stroke="#000000" stroke-width="2" fill="#FFFFFF"></path>
                <path d="M567.24758,441.336461 L574.590225,438.133872 L574.590225,688.079786 L570.307237,688.079786 L566.047462,443.204461 C566.033408,442.396528 566.506911,441.659513 567.24758,441.336461 Z" id="Path-94" stroke="#000000" stroke-width="2" fill="#FFFFFF"></path>
                <path d="M575.260358,439.40601 L479.405234,330.499023 L485.187958,687.991161 L476.235273,687.991161 L470.37671,308.032048 C470.427757,307.956585 505.388973,348.455023 575.260358,429.527466" id="Combined-Shape" stroke="#000000" stroke-width="2" fill="#FFFFFF"></path>
                <path d="M83,36 L83,688.088259 L575,688.088259 L575,36 L83,36 Z" id="Rectangle-12" stroke="#000000" stroke-width="2"></path>
                <polygon id="Combined-Shape" fill="#FFFFFF" points="566.611871 643.450609 566.611871 677.555365 563 674.643997 563 640.5"></polygon>
                <polygon id="Combined-Shape-Copy" fill="#FFFFFF" points="561.611871 639.34772 561.611871 673.543188 560.418078 672.568363 560.418078 638.369995"></polygon>
                <path d="M347,458.190897 L347,688.027915" id="Line-3" stroke="#000000" stroke-width="2" stroke-linecap="square"></path>
            </g>
        </g>
    </g>
</svg>