<?xml version="1.0" encoding="UTF-8"?>
<svg width="729px" height="690px" viewBox="0 0 729 690" version="1.1" xmlns="http://www.w3.org/2000/svg" xmlns:xlink="http://www.w3.org/1999/xlink">
    <!-- Generator: Sketch 49.3 (51167) - http://www.bohemiancoding.com/sketch -->
    <title>hospital</title>
    <desc>Created with Sketch.</desc>
    <defs>
        <polygon id="path-1" points="82 35 576 35 576 689.091449 82 689.091449"></polygon>
        <path d="M90.7783007,237.829762 L300.864018,166.786299 L300.864018,400.357099 L87.2693269,454.694346 C87.0552321,454.74881 86.8375219,454.619404 86.7830574,454.405309 C86.7742469,454.370676 86.7701173,454.335019 86.7707788,454.299289 L90.7783007,237.829762 Z" id="path-2"></path>
        <polygon id="path-3" points="103.935238 245.237762 285.557369 184.823169 285.557369 390.652611 101.092134 438.867141"></polygon>
        <path d="M477.548771,689.172131 L389.658,689.172131 L389.658,340.743047 L470.561288,306.861699 C470.815997,306.75503 471.108951,306.87504 471.21562,307.129748 C471.240166,307.18836 471.253314,307.251113 471.254362,307.314648" id="path-4"></path>
        <path d="M366.844293,689.226377 L366.844293,451.16583 C366.844293,450.724002 367.202466,450.36583 367.644293,450.36583 C367.839999,450.36583 368.028917,450.437567 368.175295,450.567468 L445.512331,519.198357 L445.512331,689.226377 L366.844293,689.226377 Z" id="path-5"></path>
        <polygon id="path-6" points="200.637771 504.599238 200.637771 568.638331 226.082964 563.044998 226.082964 498.484697"></polygon>
        <polygon id="path-7" points="224.856597 536.358927 258.913359 528.706196 258.913359 556.368264 224.856597 563.585654"></polygon>
    </defs>
    <g id="Page-1" stroke="none" stroke-width="1" fill="none" fill-rule="evenodd">
        <g id="Artboard-2" transform="translate(-113.000000, -85.000000)">
            <g id="hospital" transform="translate(113.000000, 85.000000)">
                <g id="Rectangle-12">
                    <use fill="#FFFFFF" fill-rule="evenodd" xlink:href="#path-1"></use>
                    <path stroke="#000000" stroke-width="2" d="M83,36 L83,688.088259 L575,688.088259 L575,36 L83,36 Z"></path>
                </g>
                <path d="M466.13937,12.3238104 C672.825066,68.522324 799.37642,319.624103 685.744515,503.066907 C572.112609,686.509711 313.44487,717.133356 211.643428,651.705998 C109.841986,586.278639 -82.6407648,464.409735 39.6037037,288.449837 C161.848172,112.489939 259.453674,-43.8747032 466.13937,12.3238104 Z" id="Rectangle-12-Copy" fill="#0000FF"></path>
                <path d="M159.074189,499.510222 L87.9997703,454.562498 C87.7663819,454.414902 87.6968332,454.106054 87.8444288,453.872665 C87.9125176,453.764999 88.0191347,453.687381 88.142512,453.65566 L300.420177,399.077771 L360.198509,451.301227 L159.074189,499.510222 Z" id="Path-56" stroke="#000000" stroke-width="2" fill="#000000"></path>
                <path d="M301.833096,168.165934 L445.495401,329.481091 L441.695567,520.423322 L300.08631,400.317573 L300.08631,168.830999 C300.08631,168.278714 300.534025,167.830999 301.08631,167.830999 C301.371621,167.830999 301.643346,167.952868 301.833096,168.165934 Z" id="Path-57" stroke="#000000" stroke-width="2" fill="#FFFFFF"></path>
                <g id="Path-45">
                    <use fill="#FFFFFF" fill-rule="evenodd" xlink:href="#path-2"></use>
                    <path stroke="#000000" stroke-width="2" d="M91.7651069,238.551689 L87.7851686,453.531268 L299.864018,399.579642 L299.864018,168.180093 L91.7651069,238.551689 Z"></path>
                </g>
                <polygon id="Path-65" fill="#CCCCCC" points="363.924498 451.288719 363.924498 359 396.017062 391.119287 396.017062 487"></polygon>
                <polyline id="Path-74" stroke="#000000" stroke-width="2" points="87.5576995 441.575391 299.920823 386.035406 390.237421 464.405134"></polyline>
                <polyline id="Path-62" stroke="#000000" stroke-width="2" points="88.9532132 380.507579 300.028453 319.287795 390.703797 403.511594"></polyline>
                <polyline id="Path-75" stroke="#000000" stroke-width="2" points="91.1677724 315.564321 300.320283 250.418152 390.090379 343.354448"></polyline>
                <polyline id="Path-76" stroke="#000000" stroke-width="2" points="91.7132686 253.440433 300.452594 184.331874 428.999343 325.278795"></polyline>
                <g id="Path-45">
                    <use fill="#CCCCCC" fill-rule="evenodd" xlink:href="#path-3"></use>
                    <path stroke="#000000" stroke-width="2" d="M104.924704,245.9625 L102.11133,437.567155 L284.557369,389.880391 L284.557369,186.209681 L104.924704,245.9625 Z"></path>
                </g>
                <polygon id="Path-59" fill="#000000" points="117.39908 308.686169 117.39908 269.153874 284.872709 214.483092 284.872709 257.503446"></polygon>
                <g id="Path-55">
                    <use fill="#CCCCCC" fill-rule="evenodd" xlink:href="#path-4"></use>
                    <path stroke="#000000" stroke-width="2" d="M476.532152,688.172131 L470.266664,308.069235 L390.658,341.40841 L390.658,688.172131 L476.532152,688.172131 Z"></path>
                </g>
                <g id="Path-51">
                    <use fill="#FFFFFF" fill-rule="evenodd" xlink:href="#path-5"></use>
                    <path stroke="#000000" stroke-width="2" d="M367.844293,688.226377 L444.512331,688.226377 L444.512331,519.647914 L367.844293,451.610711 L367.844293,688.226377 Z"></path>
                </g>
                <path d="M575.260358,429.527466 L470.552466,307.965349 C470.516422,307.923504 470.453281,307.918801 470.411435,307.954844 C470.388972,307.974193 470.376253,308.002511 470.37671,308.032154 L476.235273,687.991161 L575.260358,687.991161" id="Path-58" stroke="#000000" stroke-width="2" fill="#FFFFFF"></path>
                <polygon id="Path-61" fill="#000000" points="118.073347 331.214869 118.073347 433.448602 284.162951 390.303621 284.162951 280.525506"></polygon>
                <polygon id="Path-63" fill="#CCCCCC" points="124.191989 271.498406 124.191989 306.688315 187.445432 287.397828 187.445432 251.373077"></polygon>
                <polygon id="Path-60" stroke="#000000" stroke-width="2" fill="#FFFFFF" points="103.881158 312.926165 103.881158 319.344926 284.584592 262.973133 284.584592 257.219625"></polygon>
                <polygon id="Path-66" fill="#FFFFFF" points="103.148088 436.229472 104.830327 330.321247 108.396919 347.818118 106.74541 435.282573"></polygon>
                <path d="M125.837863,272.253016 L127,271.226181 C127.373501,270.896164 127.943814,270.931416 128.27383,271.304916 C128.419565,271.469854 128.5,271.682365 128.5,271.902464 L128.5,302.800877 C128.5,303.095616 128.369976,303.375345 128.144655,303.56535 L127,304.530599 C126.614928,304.855317 126.039529,304.80639 125.714811,304.421318 C125.576088,304.256812 125.5,304.048553 125.5,303.833364 L125.5,273.002399 C125.5,272.715724 125.623034,272.442834 125.837863,272.253016 Z" id="Rectangle-13" fill="#FFFFFF"></path>
                <g id="Group-2" transform="translate(156.000000, 275.000000) rotate(0.400000) translate(-156.000000, -275.000000) translate(125.000000, 253.000000)" stroke="#000000" stroke-linecap="round" stroke-linejoin="round" stroke-width="2">
                    <path d="M0.0511905195,20.4381146 L61.4577316,0.273202085" id="Path-64"></path>
                    <path d="M0.0511905195,23.8792273 L61.4787022,3.86424238" id="Path-64"></path>
                    <path d="M0.0511905195,27.32034 L61.4495642,7.45969753" id="Path-64"></path>
                    <path d="M0.164579234,31.1728104 L61.5292522,11.1630958" id="Path-64"></path>
                    <path d="M0.0511905195,35.2025654 L61.6703076,15.2660288" id="Path-64"></path>
                    <path d="M0.196418471,39.2947873 L61.5493621,19.5880764" id="Path-64"></path>
                    <path d="M0.301758139,43.3722128 L61.3866102,24.0618463" id="Path-64"></path>
                </g>
                <polygon id="Path-63" fill="#CCCCCC" transform="translate(246.717518, 249.464977) rotate(-2.700000) translate(-246.717518, -249.464977) " points="210.319236 242.293319 208.679667 277.060296 283.043144 258.185528 284.755757 221.869674"></polygon>
                <path d="M213.184708,244.874322 L214.370181,243.826866 C214.717884,243.519645 215.248805,243.552461 215.556026,243.900164 C215.701754,244.065093 215.776942,244.280621 215.765423,244.500406 L214.161948,275.096531 C214.146579,275.389788 214.003087,275.661467 213.769542,275.83949 L212.647653,276.694664 C212.266677,276.985068 211.722415,276.911645 211.432011,276.530668 C211.307389,276.367179 211.244884,276.16474 211.255643,275.95945 L212.848215,245.571369 C212.862266,245.303271 212.983524,245.052083 213.184708,244.874322 Z" id="Rectangle-13-Copy" fill="#FFFFFF" transform="translate(213.510515, 260.244288) rotate(-3.000000) translate(-213.510515, -260.244288) "></path>
                <g id="Group-2" transform="translate(247.982246, 245.482855) rotate(-2.200000) translate(-247.982246, -245.482855) translate(210.982246, 222.982855)" stroke="#000000" stroke-linecap="round" stroke-linejoin="round" stroke-width="2">
                    <path d="M0.0585304289,21.4363662 L73.0244686,0.906573825" id="Path-64"></path>
                    <path d="M0.0585304289,24.8774789 L72.5355682,4.67494465" id="Path-64"></path>
                    <path d="M0.0585304289,28.3185916 L72.3501639,8.45794916" id="Path-64"></path>
                    <path d="M0.192036496,32.171062 L72.4439902,12.1613474" id="Path-64"></path>
                    <path d="M0.0585304289,36.200817 L72.6100716,16.2642805" id="Path-64"></path>
                    <path d="M0.22952463,40.293039 L72.4676679,20.586328" id="Path-64"></path>
                    <path d="M0.353553594,44.3704644 L72.2760408,25.0600979" id="Path-64"></path>
                </g>
                <polygon id="Path-67" fill="#FFFFFF" points="108.401253 310.440569 111.751346 309.228628 111.751346 288.985894 108.401253 275.531689"></polygon>
                <polygon id="Path-72" fill="#CCCCCC" points="212 354.27288 212 313.078406 283.597207 291 283.597207 334.039557"></polygon>
                <polygon id="Path-72-Copy" fill="#CCCCCC" points="212 407.586487 212 373.90742 283.597207 354.227529 283.597207 388.770574"></polygon>
                <polygon id="Path-69" fill="#CCCCCC" points="123.364476 339.619274 123.364476 380.301529 202.133661 358.552915 202.133661 316.180001"></polygon>
                <polygon id="Path-70" fill="#CCCCCC" points="122.698365 431.135968 122.698365 398.861626 202.674054 376.593891 202.674054 410.027843"></polygon>
                <path d="M125.30816,341.388404 L126.5,340.246433 C126.85356,339.907667 127.414802,339.919659 127.753568,340.273219 C127.911713,340.43827 128,340.658024 128,340.88661 L128,374.549795 C128,374.830522 127.882002,375.098321 127.674834,375.287765 L126.5,376.362087 C126.134976,376.695882 125.568472,376.670566 125.234677,376.305542 C125.083716,376.140457 125,375.924854 125,375.701153 L125,342.110455 C125,341.837828 125.111309,341.577019 125.30816,341.388404 Z" id="Rectangle-13-Copy-2" fill="#FFFFFF"></path>
                <path d="M215.294704,314.455027 L216.5,313.255882 C216.844388,312.913252 217.401326,312.914676 217.743956,313.259064 C217.907943,313.423892 218,313.646943 218,313.879451 L218,348.902591 C218,349.176792 217.887406,349.438964 217.688562,349.627769 L216.5,350.756319 C216.14422,351.094135 215.581949,351.079572 215.244133,350.723793 C215.08739,350.558714 215,350.339761 215,350.112122 L215,315.16394 C215,314.897837 215.10606,314.642709 215.294704,314.455027 Z" id="Rectangle-13-Copy-4" fill="#FFFFFF"></path>
                <path d="M125.375766,400.100365 L126.5,399.202065 C126.898463,398.883679 127.479584,398.948595 127.79797,399.347058 C127.928757,399.51074 128,399.71403 128,399.923546 L128,427.68097 C128,427.992912 127.854431,428.286986 127.606383,428.476142 L126.5,429.319849 C126.089922,429.632566 125.50398,429.55364 125.191263,429.143562 C125.067198,428.980871 125,428.781935 125,428.577336 L125,400.881602 C125,400.577612 125.138277,400.290127 125.375766,400.100365 Z" id="Rectangle-13-Copy-3" fill="#FFFFFF"></path>
                <path d="M215.357697,375.169201 L216.5,374.211925 C216.886621,373.887927 217.46269,373.938694 217.786687,374.325315 C217.924482,374.489743 218,374.69743 218,374.911963 L218,404.118962 C218,404.42279 217.86187,404.71014 217.624596,404.89991 L216.5,405.799353 C216.101773,406.117852 215.520751,406.053219 215.202252,405.654992 C215.071326,405.491292 215,405.287915 215,405.078298 L215,375.935652 C215,375.639838 215.13097,375.359204 215.357697,375.169201 Z" id="Rectangle-13-Copy-5" fill="#FFFFFF"></path>
                <polygon id="Path-71" stroke="#000000" stroke-width="2" fill="#FFFFFF" points="201.713164 315.262337 201.713164 411.342909 211.890885 408.725949 211.890885 312.001066"></polygon>
                <path d="M114,381.7581 L114,388.085156 C114,388.63744 114.447715,389.085156 115,389.085156 C115.090848,389.085156 115.181272,389.072776 115.268777,389.048358 L284.479587,341.830955 L284.479587,332.836892 L114,381.7581 Z" id="Path-68" stroke="#000000" stroke-width="2" fill="#FFFFFF"></path>
                <path d="M114.742265,389.406538 L119.839989,392.83775 L284.555079,344.81084 L284.555079,339.41484 L114.797815,389.048659 C114.691797,389.079656 114.630981,389.19073 114.661978,389.296748 C114.675092,389.341601 114.703498,389.380445 114.742265,389.406538 Z" id="Path-68-Copy" stroke="#000000" stroke-width="2" fill="#CCCCCC"></path>
                <path d="M83.2637087,520.514418 L366.974254,451.552966 C367.403581,451.44861 367.836216,451.712051 367.940573,452.141377 C367.950597,452.182617 367.958142,530.833955 367.963208,688.095391 L83.2637087,688.095391" id="Path-54" stroke="#000000" stroke-width="2" fill="#CCCCCC"></path>
                <polygon id="Path-73" fill="#000000" points="82.9397722 532.849936 347.052368 469.448791 347.052368 487.836829 82.9397722 548.524692"></polygon>
                <polygon id="Path-79" fill="#000000" points="83.0857634 561.615126 346.888888 502.628272 346.888888 537.643697 83.0857634 593.732773"></polygon>
                <g id="Path-3">
                    <use fill="#CCCCCC" fill-rule="evenodd" xlink:href="#path-6"></use>
                    <path stroke="#000000" stroke-width="2" d="M201.637771,505.387403 L201.637771,567.394637 L225.082964,562.240942 L225.082964,499.753467 L201.637771,505.387403 Z"></path>
                </g>
                <polyline id="Path-77" stroke="#000000" stroke-width="2" points="346.698096 539.431623 367.476608 535.155716 444.377404 594.350259"></polyline>
                <polyline id="Path-78" stroke="#000000" stroke-width="2" points="346.731664 617.397 367.33914 613.560672 444.295882 665.592471"></polyline>
                <g id="Path-80">
                    <use fill="#FFFFFF" fill-rule="evenodd" xlink:href="#path-7"></use>
                    <path stroke="#000000" stroke-width="2" d="M225.856597,537.159157 L225.856597,562.351523 L257.913359,555.557977 L257.913359,529.955836 L225.856597,537.159157 Z"></path>
                </g>
                <polyline id="Path-81" stroke="#000000" stroke-width="2" fill="#FFFFFF" points="346.812765 510.465239 265.594133 528.672425 265.594133 553.696702 346.812765 536.36995"></polyline>
                <polygon id="Path-4" stroke="#000000" stroke-width="2" fill="#FFFFFF" points="173.709128 547.909931 201.403479 542.152972 201.403479 567.647445 173.709128 573.412354"></polygon>
                <polygon id="Path-5" stroke="#000000" stroke-width="2" fill="#FFFFFF" points="83.2842828 567.450145 165.928329 549.699223 165.928329 574.974198 83.2842828 592.426048"></polygon>
                <polyline id="Path-82" stroke="#000000" stroke-width="2" fill="#FFFFFF" points="346.466831 620.939837 83.0325264 671.035955 83.0325264 601.302541 83.0325264 601.302541 346.466831 545.339495"></polyline>
                <polygon id="Combined-Shape" fill="#000000" points="83.0325264 613.341596 346.466831 558.446271 346.466831 620.939837 83.0325264 671.035955"></polygon>
                <polygon id="Combined-Shape" fill="#CCCCCC" points="84.1408897 620.628016 97.027693 618.487169 95.9206632 668.503894 84.1408897 670.664872"></polygon>
                <polygon id="Path-6" fill="#CCCCCC" points="121.511672 611.799684 120.145178 664.711686 214.849277 645.653639 215.582511 592.043571"></polygon>
                <polygon id="Path-7" fill="#CCCCCC" points="235.430084 588.417368 346.807335 565.171446 346.807335 620.509989 235.430084 641.807497"></polygon>
                <g id="Group-4" transform="translate(82.000000, 621.000000)" stroke="#FFFFFF" stroke-linecap="round" stroke-linejoin="round" stroke-width="2">
                    <path d="M1,2.20871333 L13.5297977,0" id="Line"></path>
                    <path d="M1,5.20871333 L13.5297977,3" id="Line-Copy-13"></path>
                    <path d="M1,8.20871333 L13.5297977,6" id="Line-Copy-14"></path>
                    <path d="M1,11.2087133 L13.5297977,9" id="Line-Copy-15"></path>
                    <path d="M0.97025321,14.6534726 L13.5294666,12.3682432" id="Line-Copy-16"></path>
                    <path d="M1,18.2087133 L13.2073157,15.9807266" id="Line-Copy-17"></path>
                    <path d="M1,22.2087133 L13.0591052,20.0255875" id="Line-Copy-18"></path>
                    <path d="M1,26.2087133 L12.9241209,23.9918696" id="Line-Copy-19"></path>
                    <path d="M1,30.2087133 L13.0077568,28.1911649" id="Line-Copy-20"></path>
                    <path d="M1,34.2087133 L12.9097278,32.2021824" id="Line-Copy-21"></path>
                </g>
                <polygon id="Combined-Shape" stroke="#000000" stroke-width="2" points="83.0325264 613.341596 346.466831 558.446271 346.466831 620.939837 83.0325264 671.035955"></polygon>
                <g id="Group-3" transform="translate(122.000000, 594.000000)" stroke="#FFFFFF" stroke-linecap="round" stroke-linejoin="round" stroke-width="2">
                    <path d="M0.964560508,20.14708 L91.7738043,0.330864267" id="Line"></path>
                    <path d="M0.82204191,24.0463888 L91.3973663,4" id="Line-Copy"></path>
                    <path d="M0.676102866,40.3653383 L91.3744921,20.1693206" id="Line-Copy-5"></path>
                    <path d="M0.723989115,32.1260532 L91.3973663,12" id="Line-Copy-3"></path>
                    <path d="M0.991354005,28.0950572 L91.3973663,8" id="Line-Copy-2"></path>
                    <path d="M0.633917361,44.3638401 L91.372462,24.4549303" id="Line-Copy-7"></path>
                    <path d="M0.574629625,36.2020851 L91.3973663,16" id="Line-Copy-4"></path>
                </g>
                <g id="Group-3-Copy" transform="translate(290.139695, 603.007508) rotate(-1.500000) translate(-290.139695, -603.007508) translate(235.139695, 568.007508)" stroke="#FFFFFF" stroke-linecap="round" stroke-linejoin="round" stroke-width="2">
                    <path d="M2.07417555,21.0090121 L109.733768,0.860507876" id="Line"></path>
                    <path d="M2.07417555,25.0090121 L109.389483,4.57997793" id="Line-Copy"></path>
                    <path d="M2.07417555,41.0090121 L109.151996,20.6342258" id="Line-Copy-5"></path>
                    <path d="M2.07417555,33.0090121 L109.267107,12.6263521" id="Line-Copy-3"></path>
                    <path d="M1.61563185,49.1144905 L108.968629,29.6069211" id="Line-Copy-6"></path>
                    <path d="M2.07417555,29.0090121 L109.179396,8.73913003" id="Line-Copy-2"></path>
                    <path d="M2.07417555,45.0090121 L108.87148,25.1625619" id="Line-Copy-7"></path>
                    <path d="M2.07417555,37.0090121 L109.115883,16.7869074" id="Line-Copy-4"></path>
                    <path d="M1.06979325,53.213107 L108.694262,34.0046679" id="Line-Copy-8"></path>
                    <path d="M1.05235921,57.2086676 L108.57085,38.0158041" id="Line-Copy-9"></path>
                    <path d="M1.03490614,61.2085914 L108.540589,42.6000145" id="Line-Copy-10"></path>
                    <path d="M1.01745307,65.2085153 L108.657231,47.1868418" id="Line-Copy-11"></path>
                    <path d="M0.978167281,69.2124787 L108.503978,51.5833491" id="Line-Copy-12"></path>
                </g>
                <path d="M121.59336,688.095391 L121.59336,683.431438 L214.574071,665.620444 L214.574071,688.095391 L121.59336,688.095391 Z" id="Combined-Shape" stroke="#000000" stroke-width="2" fill="#FFFFFF"></path>
                <polyline id="Combined-Shape" stroke="#000000" stroke-width="2" fill="#FFFFFF" points="346.942469 688.095391 237.540787 688.095391 237.540787 661.274153 346.942469 641.645054"></polyline>
                <path d="M83.2637087,520.514418 L366.974254,451.552966 C367.403581,451.44861 367.836216,451.712051 367.940573,452.141377 C367.955609,452.203237 367.963208,452.266671 367.963208,452.330331 L367.963208,688.095391 L83.2637087,688.095391 L83.2637087,520.514418 Z" id="Path-54" stroke="#000000" stroke-width="2"></path>
                <path d="M83.4438114,678.467901 L346.785255,629.350735" id="Path-84" stroke="#000000" stroke-width="2"></path>
                <path d="M346.456361,641.396185 L94.2936649,688.080669 L83.8520131,688.080669 C83.8520131,684.810257 83.8520131,683.175051 83.8520131,683.175051 C83.8520131,683.175051 171.386796,666.88819 346.456361,634.314468 L346.456361,641.396185 Z" id="Path-85" fill="#000000"></path>
                <polygon id="Path-86" stroke="#000000" stroke-width="2" fill="#000000" points="476.509953 324.848114 574.889632 437.006002 574.889632 465.440552 478.558648 358.065215"></polygon>
                <polyline id="Path-87" stroke="#000000" stroke-width="2" fill="#CCCCCC" points="575.179656 487.141636 479 387 479 387 479 417.728284 575.179656 518.353834"></polyline>
                <polygon id="Combined-Shape" fill="#FFFFFF" points="555.590592 468.245918 555.590592 496.407332 553.793898 494.525095 553.793898 466.418629"></polygon>
                <polygon id="Combined-Shape" fill="#FFFFFF" points="550.501773 462.898885 550.501773 491.069628 546.755785 487.163437 546.755785 458.944201"></polygon>
                <polyline id="Path-87-Copy" stroke="#000000" stroke-width="2" fill="#CCCCCC" points="575.312432 543.042773 480 447.829948 480 447.829948 480 484.330535 575.312432 574.637008"></polyline>
                <polyline id="Path-88" stroke="#000000" stroke-width="2" fill="#CCCCCC" points="575.579434 626.172097 480.49143 545.495902 480.49143 512.049388 480.49143 512.049388 575.579434 595.620007"></polyline>
                <polyline id="Path-90" stroke="#000000" stroke-width="2" fill="#CCCCCC" points="575.547873 685.911792 481.165784 610.708264 481.165784 572.331152 575.547873 649.479889"></polyline>
                <polygon id="Combined-Shape" fill="#FFFFFF" points="514.446711 543.17159 514.446711 572.990756 507.330112 566.946602 507.330112 536.900024"></polygon>
                <polygon id="Path-91" stroke="#000000" stroke-width="2" fill="#CCCCCC" points="482.290407 638.515722 549.605551 687.872207 482.290407 687.872207"></polygon>
                <path d="M505,595 L535.878834,620.615265" id="Line-2" stroke="#000000" stroke-width="2" stroke-linecap="round"></path>
                <path d="M505,599 L535.878834,624.615265" id="Line-2-Copy" stroke="#000000" stroke-width="2" stroke-linecap="round"></path>
                <path d="M505,603 L535.878834,628.615265" id="Line-2-Copy-2" stroke="#000000" stroke-width="2" stroke-linecap="round"></path>
                <path d="M544,571 L570.836156,594.765317" id="Line-2-Copy-3" stroke="#000000" stroke-width="2" stroke-linecap="round"></path>
                <path d="M542,514 L567.96289,539.555091" id="Line-2-Copy-15" stroke="#000000" stroke-width="2" stroke-linecap="round"></path>
                <path d="M542,518 L567.96289,543.555091" id="Line-2-Copy-16" stroke="#000000" stroke-width="2" stroke-linecap="round"></path>
                <path d="M542,522 L567.96289,547.555091" id="Line-2-Copy-17" stroke="#000000" stroke-width="2" stroke-linecap="round"></path>
                <path d="M502,415 L526.908782,441.099621" id="Line-2-Copy-24" stroke="#000000" stroke-width="2" stroke-linecap="round"></path>
                <path d="M502,423 L526.908782,449.099621" id="Line-2-Copy-26" stroke="#000000" stroke-width="2" stroke-linecap="round"></path>
                <path d="M502.181046,431 L527.089828,457.099621" id="Line-2-Copy-28" stroke="#000000" stroke-width="2" stroke-linecap="round"></path>
                <path d="M502,419 L526.908782,445.099621" id="Line-2-Copy-25" stroke="#000000" stroke-width="2" stroke-linecap="round"></path>
                <path d="M502,427 L526.908782,453.099621" id="Line-2-Copy-27" stroke="#000000" stroke-width="2" stroke-linecap="round"></path>
                <path d="M502,435 L526.908782,461.099621" id="Line-2-Copy-29" stroke="#000000" stroke-width="2" stroke-linecap="round"></path>
                <path d="M502.181046,439 L527.089828,465.099621" id="Line-2-Copy-30" stroke="#000000" stroke-width="2" stroke-linecap="round"></path>
                <path d="M478,450 L496.540665,468.624044" id="Line-2-Copy-18" stroke="#000000" stroke-width="2" stroke-linecap="round"></path>
                <path d="M478,454 L496.540665,472.624044" id="Line-2-Copy-19" stroke="#000000" stroke-width="2" stroke-linecap="round"></path>
                <path d="M478,458 L496.540665,476.624044" id="Line-2-Copy-20" stroke="#000000" stroke-width="2" stroke-linecap="round"></path>
                <path d="M478,462 L496.540665,480.624044" id="Line-2-Copy-21" stroke="#000000" stroke-width="2" stroke-linecap="round"></path>
                <path d="M477,465 L495.413834,483.83453" id="Line-2-Copy-22" stroke="#000000" stroke-width="2" stroke-linecap="round"></path>
                <path d="M477,469 L495.524273,488.33667" id="Line-2-Copy-23" stroke="#000000" stroke-width="2" stroke-linecap="round"></path>
                <path d="M544,575 L570.836156,598.765317" id="Line-2-Copy-4" stroke="#000000" stroke-width="2" stroke-linecap="round"></path>
                <path d="M544,579 L570.836156,602.765317" id="Line-2-Copy-5" stroke="#000000" stroke-width="2" stroke-linecap="round"></path>
                <path d="M544,583 L570.836156,606.765317" id="Line-2-Copy-6" stroke="#000000" stroke-width="2" stroke-linecap="round"></path>
                <path d="M544,587 L570.836156,610.765317" id="Line-2-Copy-7" stroke="#000000" stroke-width="2" stroke-linecap="round"></path>
                <path d="M506,659 L531.602291,678.138885" id="Line-2-Copy-8" stroke="#000000" stroke-width="2" stroke-linecap="round"></path>
                <path d="M506,663 L531.602291,682.138885" id="Line-2-Copy-9" stroke="#000000" stroke-width="2" stroke-linecap="round"></path>
                <path d="M506,667 L531.602291,686.138885" id="Line-2-Copy-10" stroke="#000000" stroke-width="2" stroke-linecap="round"></path>
                <path d="M506,671 L529,688" id="Line-2-Copy-11" stroke="#000000" stroke-width="2" stroke-linecap="round"></path>
                <path d="M506,675 L523.375757,687.731761" id="Line-2-Copy-12" stroke="#000000" stroke-width="2" stroke-linecap="round"></path>
                <path d="M506,679 L517.5,687.5" id="Line-2-Copy-13" stroke="#000000" stroke-width="2" stroke-linecap="round"></path>
                <path d="M505.080529,682.630041 L512.352078,687.636376" id="Line-2-Copy-14" stroke="#000000" stroke-width="2" stroke-linecap="round"></path>
                <path d="M487.347754,357.962404 L495.826218,353.965481 C496.825332,353.494478 498.017098,353.922596 498.488101,354.921711 C498.608741,355.177617 498.673714,355.456207 498.67873,355.739079 L504.568316,687.878341 L492.341146,687.878341 L486.200931,359.808886 C486.186189,359.021247 486.635186,358.298323 487.347754,357.962404 Z" id="Path-89" stroke="#000000" stroke-width="2" fill="#FFFFFF"></path>
                <path d="M527.026017,401.954557 L534.732251,397.355655 C535.680757,396.789608 536.908545,397.099653 537.474592,398.048159 C537.651902,398.345272 537.7491,398.683303 537.756688,399.029219 L544.092628,687.880803 L532.019122,687.880803 L526.051377,403.713973 C526.036276,402.994918 526.40842,402.323125 527.026017,401.954557 Z" id="Path-92" stroke="#000000" stroke-width="2" fill="#FFFFFF"></path>
                <path d="M567.24758,441.336461 L574.590225,438.133872 L574.590225,688.079786 L570.307237,688.079786 L566.047462,443.204461 C566.033408,442.396528 566.506911,441.659513 567.24758,441.336461 Z" id="Path-94" stroke="#000000" stroke-width="2" fill="#FFFFFF"></path>
                <path d="M575.260358,439.40601 L479.405234,330.499023 L485.187958,687.991161 L476.235273,687.991161 L470.37671,308.032048 C470.427757,307.956585 505.388973,348.455023 575.260358,429.527466" id="Combined-Shape" stroke="#000000" stroke-width="2" fill="#FFFFFF"></path>
                <path d="M83,36 L83,688.088259 L575,688.088259 L575,36 L83,36 Z" id="Rectangle-12" stroke="#000000" stroke-width="2"></path>
                <polygon id="Combined-Shape" fill="#FFFFFF" points="566.611871 643.450609 566.611871 677.555365 563 674.643997 563 640.5"></polygon>
                <polygon id="Combined-Shape-Copy" fill="#FFFFFF" points="561.611871 639.34772 561.611871 673.543188 560.418078 672.568363 560.418078 638.369995"></polygon>
                <path d="M347,458.190897 L347,688.027915" id="Line-3" stroke="#000000" stroke-width="2" stroke-linecap="square"></path>
            </g>
        </g>
    </g>
</svg>