<svg height="655" viewBox="0 0 495 655" width="495" xmlns="http://www.w3.org/2000/svg"><g fill="none" fill-rule="evenodd"><path d="m1 1v652.088259h492v-652.088259z" fill="#00f" stroke="#000" stroke-width="2"/><path d="m135.676374 482.274736-105.6199837-62.716388c-.2374379-.140989-.3156252-.447764-.1746363-.685202.0675195-.113709.1773365-.196038.3054154-.228968l212.2330076-54.566407 80.037487 69.747743z" fill="#000" stroke="#000" stroke-width="2"/><path d="m243.822037 138.408827 143.673364 156.072264-3.799834 190.942231-141.609257-120.105749v-226.231468c0-.552284.447715-1 1-1 .279572 0 .546379.117033.735727.322722z" fill="#fff" stroke="#000" stroke-width="2"/><path d="m29.7610714 205.514703v213.022695l212.1029466-53.957756v-226.117504z" fill="#fff" stroke="#000" stroke-width="2"/><path d="m281.924498 397.861418v-73.861418l32.092564 25.620055v75.544963z" fill="#ccc"/><path d="m29.5576995 406.575391 212.3631235-55.539985 90.316598 78.369728" stroke="#000" stroke-width="2"/><path d="m30.2912549 346.15465 211.7371981-61.866855 90.675344 84.223799" stroke="#000" stroke-width="2"/><path d="m29.9764575 279.810512 212.3438255-64.39236 89.770096 92.936296" stroke="#000" stroke-width="2"/><path d="m30.4026633 219.805334 212.1694067-64.947973 128.427273 135.421434" stroke="#000" stroke-width="2"/><path d="m44.0921339 212.703971v189.868202l182.4652351-47.691782v-199.935495z" fill="#ccc" stroke="#000" stroke-width="2"/><path d="m59.3990803 275.959078v-41.805204l167.4736287-53.732429v44.308806z" fill="#000"/><path d="m394.532152 653.172131-6.265488-380.102896-79.608664 33.339175v346.763721z" fill="#ccc" stroke="#000" stroke-width="2"/><path d="m285.844293 653.226377h76.668038v-168.578463l-76.668038-68.037203zm76.668038 0h1l-1 1z" fill="#fff" stroke="#000" stroke-width="2"/><path d="m493.260358 394.527466-104.707892-121.562117c-.036044-.041845-.099185-.046548-.141031-.010505-.022463.019349-.035182.047667-.034725.07731l5.858563 379.959007h99.025085" fill="#fff" stroke="#000" stroke-width="2"/><path d="m60.073347 296.214869v102.233733l166.089604-43.144981v-109.778115z" fill="#000"/><path d="m66.1919889 236.498406v37.875708l63.2534431-19.495556v-38.505481z" fill="#ccc"/><path d="m44.1179629 281.481886v6.040472l182.4666291-56.549225v-5.753508z" fill="#fff" stroke="#000" stroke-width="2"/><path d="m45.148088 401.229472v-105.540329l3.5973216 17.463177v87.130253z" fill="#fff"/><path d="m67.8131693 237.363436 1.1868307-1.121536c.3569506-.337312.9197621-.321393 1.2570747.035558.1560066.165089.2429253.383619.2429253.610758v33.175202c0 .283126-.120017.552983-.3302673.742602l-1.1697327 1.05495c-.3684373.332284-.9364838.302975-1.2687674-.065462-.1488478-.165043-.2312326-.379403-.2312326-.601653v-33.103602c0-.275029.113273-.537918.3131693-.726817z" fill="#fff"/><g stroke="#000" stroke-linecap="round" stroke-linejoin="round" stroke-width="2" transform="matrix(.99997563 .00698126 -.00698126 .99997563 67.154343 217.784117)"><path d="m.05119052 20.4381146 61.40654108-20.16491251"/><path d="m.05119052 23.8792273 61.42751168-20.01498492"/><path d="m.05119052 27.32034 61.39837368-19.86064247"/><path d="m.16457923 31.1728104 61.36467297-20.0097146"/><path d="m.05119052 35.2025654 61.61911708-19.9365366"/><path d="m.19641847 39.2947873 61.35294363-19.7067109"/><path d="m.30175814 43.3722128 61.08485206-19.3103665"/></g><path d="m152.40186 207.295245-1.801737 38.205741 74.378626-19.195986 1.856552-39.368099z" fill="#ccc" transform="matrix(.99888987 -.04710645 .04710645 .99888987 -9.975807 9.129863)"/><path d="m155.240619 210.029098 1.217028-1.183362c.326969-.317924.849758-.310592 1.167683.016377.159379.163913.243668.386568.232792.614934l-1.612113 33.851132c-.013274.278732-.142408.539239-.356198.718574l-1.154692.968599c-.360238.302181-.897234.255117-1.199415-.105121-.137575-.164006-.208317-.373821-.198134-.587646l1.601302-33.624103c.012064-.253318.119924-.492591.301747-.669384z" fill="#fff" transform="matrix(.99862953 -.05233596 .05233596 .99862953 -11.66248 8.454338)"/><g stroke="#000" stroke-linecap="round" stroke-linejoin="round" stroke-width="2" transform="matrix(.99926292 -.03838781 .03838781 .99926292 151.139488 189.456687)"><path d="m1.06550869 21.4381237 73.05524421-20.84361066"/><path d="m1.06550869 24.8792364 72.47703781-20.20253424"/><path d="m1.06550869 28.3203491 72.29163351-19.86064243"/><path d="m1.19901475 32.1728195 72.25195375-20.0097146"/><path d="m1.06550869 36.2025745 72.55154111-19.9365365"/><path d="m.90537964 40.3974851 72.56926656-19.8093996"/><path d="m.88548454 44.5099553 72.67935706-19.5099431"/><path d="m.6822441 48.5044671 72.5456408-19.4874969"/></g><path d="m45 280.170751 3.350093-1.722517v-35.499132l-3.350093-13.949102z" fill="#fff"/><path d="m154 319.27288v-41.194474l71.597207-22.078406v43.039557z" fill="#ccc"/><path d="m154 372.586487v-33.679067l71.597207-20.429435v35.292589z" fill="#ccc"/><path d="m65.3644765 304.619274v40.682255l78.7691845-21.748614v-42.372914z" fill="#ccc"/><path d="m64.6983649 396.135968v-32.274342l79.9756891-22.267735v33.433952z" fill="#ccc"/><path d="m67.3081605 306.388404 1.1918395-1.141971c.3535601-.338766.9148017-.326774 1.2535682.026786.1581451.165051.2464318.384805.2464318.613391v33.663185c0 .280727-.1179984.548526-.3251663.73797l-1.1748337 1.074322c-.3650238.333795-.9315282.308479-1.2653228-.056545-.1509611-.165085-.2346772-.380688-.2346772-.604389v-33.590698c0-.272627.1113093-.533436.3081605-.722051z" fill="#fff"/><path d="m157.294704 279.455027 1.205296-1.199145c.344388-.34263.901326-.341206 1.243956.003182.163987.164828.256044.387879.256044.620387v35.02314c0 .274201-.112594.536373-.311438.725178l-1.188562 1.12855c-.35578.337816-.918051.323253-1.255867-.032526-.156743-.165079-.244133-.384032-.244133-.611671v-34.948182c0-.266103.10606-.521231.294704-.708913z" fill="#fff"/><path d="m67.3757656 365.100365 1.1242344-.8983c.3984634-.318386.9795843-.25347 1.2979698.144993.1307874.163682.2020302.366972.2020302.576488v27.757424c0 .311942-.1455689.606016-.3936169.795172l-1.1063831.843707c-.4100781.312717-.9960198.233791-1.3087374-.176287-.124065-.162691-.1912626-.361627-.1912626-.566226v-27.695734c0-.30399.1382769-.591475.3757656-.781237z" fill="#fff"/><path d="m157.357697 340.169201 1.142303-.957276c.386621-.323998.96269-.273231 1.286687.11339.137795.164428.213313.372115.213313.586648v29.206999c0 .303828-.13813.591178-.375404.780948l-1.124596.899443c-.398227.318499-.979249.253866-1.297748-.144361-.130926-.1637-.202252-.367077-.202252-.576694v-29.142646c0-.295814.13097-.576448.357697-.766451z" fill="#fff"/><path d="m143.713164 271.726919v104.61599l10.177721-2.827732v-104.836138z" fill="#fff" stroke="#000" stroke-width="2"/><path d="m56 346.7581v6.327056c0 .552284.4477153 1 1 1 .0908478 0 .1812719-.01238.2687767-.036798l169.2108103-47.217403v-8.154695z" fill="#fff" stroke="#000" stroke-width="2"/><path d="m56.7462451 354.409217 5.0937438 3.428533 164.7150901-46.30648v-5.537793l-169.7516372 48.057387c-.1062799.030088-.1680455.140636-.1379572.246916.0128897.04553.0415052.085015.0807605.111437z" fill="#ccc" stroke="#000" stroke-width="2"/><path d="m1.26370868 485.514418 283.71054532-68.961452c.429327-.104356.861962.159085.966319.588411.010024.04124.017569 78.692578.022635 235.954014h-284.69949932" fill="#ccc" stroke="#000" stroke-width="2"/><path d="m.93977215 497.849936 264.11259585-63.401145v18.388038l-264.11259585 60.687863z" fill="#000"/><path d="m1.08576336 526.615126 263.80312464-58.986854v35.015425l-263.80312464 56.089076z" fill="#000"/><path d="m119.637771 470.387403v62.007234l23.445193-5.153695v-62.487475z" fill="#ccc" stroke="#000" stroke-width="2"/><path d="m264.698096 504.431623 20.778512-4.275907 76.900796 59.194543" stroke="#000" stroke-width="2"/><path d="m264.731664 582.397 20.607476-3.836328 76.956742 52.031799" stroke="#000" stroke-width="2"/><path d="m143.856597 502.159157v25.192366l32.056762-6.793546v-25.602141z" fill="#fff" stroke="#000" stroke-width="2"/><path d="m264.812765 475.465239-81.218632 18.207186v25.024277l81.218632-17.326752" fill="#fff" stroke="#000" stroke-width="2"/><path d="m91.7091275 512.909931 27.6943515-5.756959v25.494473l-27.6943515 5.764909z" fill="#fff" stroke="#000" stroke-width="2"/><path d="m1.2842828 532.450145 82.6440464-17.750922v25.274975l-82.6440464 17.45185z" fill="#fff" stroke="#000" stroke-width="2"/><path d="m264.466831 585.939837-263.43430464 50.096118v-69.733414l263.43430464-55.963046" fill="#fff" stroke="#000" stroke-width="2"/><path d="m1.03252636 578.341596 263.43430464-54.895325v62.493566l-263.43430464 50.096118z" fill="#000"/><path d="m2.1408897 585.628016 12.8868033-2.140847-1.1070298 50.016725-11.7797735 2.160978z" fill="#ccc"/><path d="m39.5116716 576.799684-1.366494 52.912002 94.7040994-19.058047.733234-53.610068z" fill="#ccc"/><path d="m153.430084 553.417368 111.377251-23.245922v55.338543l-111.377251 21.297508z" fill="#ccc"/><g stroke="#fff" stroke-linecap="round" stroke-linejoin="round" stroke-width="2" transform="translate(0 586)"><path d="m1 2.20871333 12.5297977-2.20871333"/><path d="m1 5.20871333 12.5297977-2.20871333"/><path d="m1 8.20871333 12.5297977-2.20871333"/><path d="m1 11.2087133 12.5297977-2.2087133"/><path d="m.97025321 14.6534726 12.55921339-2.2852294"/><path d="m1 18.2087133 12.2073157-2.2279867"/><path d="m1 22.2087133 12.0591052-2.1831258"/><path d="m1 26.2087133 11.9241209-2.2168437"/><path d="m1 30.2087133 12.0077568-2.0175484"/><path d="m1 34.2087133 11.9097278-2.0065309"/></g><path d="m1.03252636 578.341596 263.43430464-54.895325v62.493566l-263.43430464 50.096118z" stroke="#000" stroke-width="2"/><g stroke="#fff" stroke-linecap="round" stroke-linejoin="round" stroke-width="2" transform="translate(40 559)"><path d="m.96456051 20.14708 90.80924379-19.81621573"/><path d="m.82204191 24.0463888 90.57532439-20.0463888"/><path d="m.67610287 40.3653383 90.69838923-20.1960177"/><path d="m.72398912 32.1260532 90.67337718-20.1260532"/><path d="m.99135401 28.0950572 90.40601229-20.0950572"/><path d="m.63391736 44.3638401 90.73854464-19.9089098"/><path d="m.57462963 36.2020851 90.82273667-20.2020851"/></g><g stroke="#fff" stroke-linecap="round" stroke-linejoin="round" stroke-width="2" transform="matrix(.99965732 -.02617695 .02617695 .99965732 152.242349 534.459234)"><path d="m2.07417555 21.0090121 107.65959245-20.14850422"/><path d="m2.07417555 25.0090121 107.31530745-20.42903417"/><path d="m2.07417555 41.0090121 107.07782045-20.3747863"/><path d="m2.07417555 33.0090121 107.19293145-20.38266"/><path d="m1.61563185 49.1144905 107.35299715-19.5075694"/><path d="m2.07417555 29.0090121 107.10522045-20.26988207"/><path d="m2.07417555 45.0090121 106.79730445-19.8464502"/><path d="m2.07417555 37.0090121 107.04170745-20.2221047"/><path d="m1.06979325 53.213107 107.62446875-19.2084391"/><path d="m1.05235921 57.2086676 107.51849079-19.1928635"/><path d="m1.03490614 61.2085914 107.50568286-18.6085769"/><path d="m1.01745307 65.2085153 107.63977793-18.0216735"/><path d="m.97816728 69.2124787 107.52581072-17.6291296"/></g><path d="m39.5933595 653.095391v-4.663953l92.9807115-17.810994v22.474947z" fill="#fff" stroke="#000" stroke-width="2"/><path d="m264.942469 653.095391h-109.401682v-26.821238l109.401682-19.629099" fill="#fff" stroke="#000" stroke-width="2"/><path d="m1.26370868 485.514418 283.71054532-68.961452c.429327-.104356.861962.159085.966319.588411.015036.06186.022635.125294.022635.188954v235.76506h-284.69949932z" stroke="#000" stroke-width="2"/><path d="m1.44381138 643.467901 263.34144362-49.117166" stroke="#000" stroke-width="2"/><path d="m264.456361 606.396185-252.1626961 46.684484h-10.44165177c0-3.270412 0-4.905618 0-4.905618s87.53478247-16.286861 262.60434787-48.860583z" fill="#000"/><path d="m394.509953 289.848114 98.379679 112.157888v28.43455l-96.330984-107.375337z" fill="#000" stroke="#000" stroke-width="2"/><path d="m493.179656 452.141636-96.179656-100.141636v30.728284l96.179656 100.62555" fill="#ccc" stroke="#000" stroke-width="2"/><path d="m473.590592 433.245918v28.161414l-1.796694-1.882237v-28.106466z" fill="#fff"/><path d="m468.501773 427.898885v28.170743l-3.745988-3.906191v-28.219236z" fill="#fff"/><path d="m493.312432 508.042773-95.312432-95.212825v36.500587l95.312432 90.306473" fill="#ccc" stroke="#000" stroke-width="2"/><path d="m493.579434 591.172097-95.088004-80.676195v-33.446514l95.088004 83.570619" fill="#ccc" stroke="#000" stroke-width="2"/><path d="m493.547873 650.911792-94.382089-75.203528v-38.377112l94.382089 77.148737" fill="#ccc" stroke="#000" stroke-width="2"/><path d="m432.446711 508.17159v29.819166l-7.116599-6.044154v-30.046578z" fill="#fff"/><g stroke="#000"><path d="m400.290407 603.515722 67.315144 49.356485h-67.315144z" fill="#ccc" stroke-width="2"/><path d="m423 560 30.878834 25.615265" stroke-linecap="round" stroke-width="2"/><path d="m423 564 30.878834 25.615265" stroke-linecap="round" stroke-width="2"/><path d="m423 568 30.878834 25.615265" stroke-linecap="round" stroke-width="2"/><path d="m462 536 26.836156 23.765317" stroke-linecap="round" stroke-width="2"/><path d="m460 479 25.96289 25.555091" stroke-linecap="round" stroke-width="2"/><path d="m460 483 25.96289 25.555091" stroke-linecap="round" stroke-width="2"/><path d="m460 487 25.96289 25.555091" stroke-linecap="round" stroke-width="2"/><path d="m422.214707 382.250648 22.94646 23.864938" stroke-linecap="round" stroke-width="2"/><path d="m422.603354 390.091016 22.324075 24.008605" stroke-linecap="round" stroke-width="2"/><path d="m422.850026 397.947247 22.239802 24.152374" stroke-linecap="round" stroke-width="2"/><path d="m422.515314 386.283064 22.133456 23.359693" stroke-linecap="round" stroke-width="2"/><path d="m422.693378 394.050858 22.234051 24.048763" stroke-linecap="round" stroke-width="2"/><path d="m422.656099 401.835704 22.172374 23.896886" stroke-linecap="round" stroke-width="2"/><path d="m422.810875 406.062614 22.057208 23.497974" stroke-linecap="round" stroke-width="2"/><path d="m396 415 18.540665 18.624044" stroke-linecap="round" stroke-width="2"/><path d="m396 419 18.540665 18.624044" stroke-linecap="round" stroke-width="2"/><path d="m396 423 18.540665 18.624044" stroke-linecap="round" stroke-width="2"/><path d="m396 427 18.540665 18.624044" stroke-linecap="round" stroke-width="2"/><path d="m395 430 18.413834 18.83453" stroke-linecap="round" stroke-width="2"/><path d="m395 434 18.524273 19.33667" stroke-linecap="round" stroke-width="2"/><path d="m462 540 26.836156 23.765317" stroke-linecap="round" stroke-width="2"/><path d="m462 544 26.836156 23.765317" stroke-linecap="round" stroke-width="2"/><path d="m462 548 26.836156 23.765317" stroke-linecap="round" stroke-width="2"/><path d="m462 552 26.836156 23.765317" stroke-linecap="round" stroke-width="2"/><path d="m424 624 25.602291 19.138885" stroke-linecap="round" stroke-width="2"/><path d="m424 628 25.602291 19.138885" stroke-linecap="round" stroke-width="2"/><path d="m424 632 25.602291 19.138885" stroke-linecap="round" stroke-width="2"/><path d="m424 636 23 17" stroke-linecap="round" stroke-width="2"/><path d="m424 640 17.375757 12.731761" stroke-linecap="round" stroke-width="2"/><path d="m424 644 11.5 8.5" stroke-linecap="round" stroke-width="2"/><path d="m423.080529 647.630041 7.271549 5.006335" stroke-linecap="round" stroke-width="2"/><path d="m408.347754 322.962404 8.478464-3.996923c.999114-.471003 2.19088-.042885 2.661883.95623.12064.255906.185613.534496.190629.817368l5.889586 332.139262h-12.22717l-6.140215-328.069455c-.014742-.787639.434255-1.510563 1.146823-1.846482z" fill="#fff" stroke-width="2"/><path d="m445.026017 366.954557 7.706234-4.598902c.948506-.566047 2.176294-.256002 2.742341.692504.17731.297113.274508.635144.282096.98106l6.33594 288.851584h-12.073506l-5.967745-284.16683c-.015101-.719055.357043-1.390848.97464-1.759416z" fill="#fff" stroke-width="2"/><path d="m485.24758 406.336461 7.342645-3.202589v249.945914h-4.282988l-4.259775-244.875325c-.014054-.807933.459449-1.544948 1.200118-1.868z" fill="#fff" stroke-width="2"/><path d="m493.260358 404.40601-95.855124-108.906987 5.782724 357.492138h-8.952685l-5.858563-379.959113c.051047-.075463 35.012263 40.422975 104.883648 121.495418" fill="#fff" stroke-width="2"/><path d="m1 1v652.088259h492v-652.088259z" stroke-width="2"/></g><path d="m484.611871 608.450609v34.104756l-3.611871-2.911368v-34.143997z" fill="#fff"/><path d="m479.611871 604.34772v34.195468l-1.193793-.974825v-34.198368z" fill="#fff"/><path d="m265 423.190897v229.837018" stroke="#000" stroke-linecap="square" stroke-width="2"/></g></svg>