<?xml version="1.0" encoding="UTF-8"?>
<svg width="495px" height="655px" viewBox="0 0 495 655" version="1.1" xmlns="http://www.w3.org/2000/svg" xmlns:xlink="http://www.w3.org/1999/xlink">
    <!-- Generator: Sketch 50.2 (55047) - http://www.bohemiancoding.com/sketch -->
    <title>hospital</title>
    <desc>Created with Sketch.</desc>
    <defs></defs>
    <g id="Page-1" stroke="none" stroke-width="1" fill="none" fill-rule="evenodd">
        <g id="illustrations" transform="translate(-186.000000, -657.000000)">
            <g id="hospital" transform="translate(186.000000, 657.000000)">
                <path d="M1,1 L1,653.088259 L493,653.088259 L493,1 L1,1 Z" id="Rectangle-12" stroke="#000000" stroke-width="2" fill="#0000FF"></path>
                <path d="M135.676374,482.274736 L30.0563903,419.558348 C29.8189524,419.417359 29.7407651,419.110584 29.881754,418.873146 C29.9492735,418.759437 30.0590905,418.677108 30.1871694,418.644178 L242.420177,364.077771 L322.457664,433.825514 L135.676374,482.274736 Z" id="Path-56" stroke="#000000" stroke-width="2" fill="#000000"></path>
                <path d="M243.822037,138.408827 L387.495401,294.481091 L383.695567,485.423322 L242.08631,365.317573 L242.08631,139.086105 C242.08631,138.533821 242.534025,138.086105 243.08631,138.086105 C243.365882,138.086105 243.632689,138.203138 243.822037,138.408827 Z" id="Path-57" stroke="#000000" stroke-width="2" fill="#FFFFFF"></path>
                <path d="M29.7610714,205.514703 L29.7610714,418.537398 L241.864018,364.579642 L241.864018,138.462138 L29.7610714,205.514703 Z" id="Path-45" stroke="#000000" stroke-width="2" fill="#FFFFFF"></path>
                <polygon id="Path-65" fill="#CCCCCC" points="281.924498 397.861418 281.924498 324 314.017062 349.620055 314.017062 425.165018"></polygon>
                <polyline id="Path-74" stroke="#000000" stroke-width="2" points="29.5576995 406.575391 241.920823 351.035406 332.237421 429.405134"></polyline>
                <polyline id="Path-62" stroke="#000000" stroke-width="2" points="30.2912549 346.15465 242.028453 284.287795 332.703797 368.511594"></polyline>
                <polyline id="Path-75" stroke="#000000" stroke-width="2" points="29.9764575 279.810512 242.320283 215.418152 332.090379 308.354448"></polyline>
                <polyline id="Path-76" stroke="#000000" stroke-width="2" points="30.4026633 219.805334 242.57207 154.857361 370.999343 290.278795"></polyline>
                <path d="M44.0921339,212.703971 L44.0921339,402.572173 L226.557369,354.880391 L226.557369,154.944896 L44.0921339,212.703971 Z" id="Path-45" stroke="#000000" stroke-width="2" fill="#CCCCCC"></path>
                <polygon id="Path-59" fill="#000000" points="59.3990803 275.959078 59.3990803 234.153874 226.872709 180.421445 226.872709 224.730251"></polygon>
                <path d="M394.532152,653.172131 L388.266664,273.069235 L308.658,306.40841 L308.658,653.172131 L394.532152,653.172131 Z" id="Path-55" stroke="#000000" stroke-width="2" fill="#CCCCCC"></path>
                <path d="M285.844293,653.226377 L362.512331,653.226377 L362.512331,484.647914 L285.844293,416.610711 L285.844293,653.226377 Z M362.512331,653.226377 L363.512331,653.226377 L362.512331,654.226377 L362.512331,653.226377 Z" id="Path-51" stroke="#000000" stroke-width="2" fill="#FFFFFF"></path>
                <path d="M493.260358,394.527466 L388.552466,272.965349 C388.516422,272.923504 388.453281,272.918801 388.411435,272.954844 C388.388972,272.974193 388.376253,273.002511 388.37671,273.032154 L394.235273,652.991161 L493.260358,652.991161" id="Path-58" stroke="#000000" stroke-width="2" fill="#FFFFFF"></path>
                <polygon id="Path-61" fill="#000000" points="60.073347 296.214869 60.073347 398.448602 226.162951 355.303621 226.162951 245.525506"></polygon>
                <polygon id="Path-63" fill="#CCCCCC" points="66.1919889 236.498406 66.1919889 274.374114 129.445432 254.878558 129.445432 216.373077"></polygon>
                <polygon id="Path-60" stroke="#000000" stroke-width="2" fill="#FFFFFF" points="44.1179629 281.481886 44.1179629 287.522358 226.584592 230.973133 226.584592 225.219625"></polygon>
                <polygon id="Path-66" fill="#FFFFFF" points="45.148088 401.229472 45.148088 295.689143 48.7454096 313.15232 48.7454096 400.282573"></polygon>
                <path d="M67.8131693,237.363436 L69,236.2419 C69.3569506,235.904588 69.9197621,235.920507 70.2570747,236.277458 C70.4130813,236.442547 70.5,236.661077 70.5,236.888216 L70.5,270.063418 C70.5,270.346544 70.379983,270.616401 70.1697327,270.80602 L69,271.86097 C68.6315627,272.193254 68.0635162,272.163945 67.7312326,271.795508 C67.5823848,271.630465 67.5,271.416105 67.5,271.193855 L67.5,238.090253 C67.5,237.815224 67.613273,237.552335 67.8131693,237.363436 Z" id="Rectangle-13" fill="#FFFFFF"></path>
                <g id="Group-2" transform="translate(98.000000, 240.000000) rotate(0.400000) translate(-98.000000, -240.000000) translate(67.000000, 218.000000)" stroke="#000000" stroke-linecap="round" stroke-linejoin="round" stroke-width="2">
                    <path d="M0.0511905195,20.4381146 L61.4577316,0.273202085" id="Path-64"></path>
                    <path d="M0.0511905195,23.8792273 L61.4787022,3.86424238" id="Path-64"></path>
                    <path d="M0.0511905195,27.32034 L61.4495642,7.45969753" id="Path-64"></path>
                    <path d="M0.164579234,31.1728104 L61.5292522,11.1630958" id="Path-64"></path>
                    <path d="M0.0511905195,35.2025654 L61.6703076,15.2660288" id="Path-64"></path>
                    <path d="M0.196418471,39.2947873 L61.5493621,19.5880764" id="Path-64"></path>
                    <path d="M0.301758139,43.3722128 L61.3866102,24.0618463" id="Path-64"></path>
                </g>
                <polygon id="Path-63" fill="#CCCCCC" transform="translate(188.717963, 216.218954) rotate(-2.700000) translate(-188.717963, -216.218954) " points="152.40186 207.295245 150.600123 245.500986 224.978749 226.305 226.835301 186.936901"></polygon>
                <path d="M155.240619,210.029098 L156.457647,208.845736 C156.784616,208.527812 157.307405,208.535144 157.62533,208.862113 C157.784709,209.026026 157.868998,209.248681 157.858122,209.477047 L156.246009,243.328179 C156.232735,243.606911 156.103601,243.867418 155.889811,244.046753 L154.735119,245.015352 C154.374881,245.317533 153.837885,245.270469 153.535704,244.910231 C153.398129,244.746225 153.327387,244.53641 153.33757,244.322585 L154.938872,210.698482 C154.950936,210.445164 155.058796,210.205891 155.240619,210.029098 Z" id="Rectangle-13-Copy" fill="#FFFFFF" transform="translate(155.597832, 226.913239) rotate(-3.000000) translate(-155.597832, -226.913239) "></path>
                <g id="Group-2" transform="translate(189.552349, 212.499086) rotate(-2.200000) translate(-189.552349, -212.499086) translate(152.052349, 187.999086)" stroke="#000000" stroke-linecap="round" stroke-linejoin="round" stroke-width="2">
                    <path d="M1.06550869,21.4381237 L74.1207529,0.594513042" id="Path-64"></path>
                    <path d="M1.06550869,24.8792364 L73.5425465,4.67670216" id="Path-64"></path>
                    <path d="M1.06550869,28.3203491 L73.3571422,8.45970667" id="Path-64"></path>
                    <path d="M1.19901475,32.1728195 L73.4509685,12.1631049" id="Path-64"></path>
                    <path d="M1.06550869,36.2025745 L73.6170498,16.266038" id="Path-64"></path>
                    <path d="M0.905379644,40.3974851 L73.4746462,20.5880855" id="Path-64"></path>
                    <path d="M0.885484535,44.5099553 L73.5648416,25.0000122" id="Path-64"></path>
                    <path d="M0.682244102,48.5044671 L73.2278849,29.0169702" id="Path-64-Copy"></path>
                </g>
                <polygon id="Path-67" fill="#FFFFFF" points="45 280.170751 48.350093 278.448234 48.350093 242.949102 45 229"></polygon>
                <polygon id="Path-72" fill="#CCCCCC" points="154 319.27288 154 278.078406 225.597207 256 225.597207 299.039557"></polygon>
                <polygon id="Path-72-Copy" fill="#CCCCCC" points="154 372.586487 154 338.90742 225.597207 318.477985 225.597207 353.770574"></polygon>
                <polygon id="Path-69" fill="#CCCCCC" points="65.3644765 304.619274 65.3644765 345.301529 144.133661 323.552915 144.133661 281.180001"></polygon>
                <polygon id="Path-70" fill="#CCCCCC" points="64.6983649 396.135968 64.6983649 363.861626 144.674054 341.593891 144.674054 375.027843"></polygon>
                <path d="M67.3081605,306.388404 L68.5,305.246433 C68.8535601,304.907667 69.4148017,304.919659 69.7535682,305.273219 C69.9117133,305.43827 70,305.658024 70,305.88661 L70,339.549795 C70,339.830522 69.8820016,340.098321 69.6748337,340.287765 L68.5,341.362087 C68.1349762,341.695882 67.5684718,341.670566 67.2346772,341.305542 C67.0837161,341.140457 67,340.924854 67,340.701153 L67,307.110455 C67,306.837828 67.1113093,306.577019 67.3081605,306.388404 Z" id="Rectangle-13-Copy-2" fill="#FFFFFF"></path>
                <path d="M157.294704,279.455027 L158.5,278.255882 C158.844388,277.913252 159.401326,277.914676 159.743956,278.259064 C159.907943,278.423892 160,278.646943 160,278.879451 L160,313.902591 C160,314.176792 159.887406,314.438964 159.688562,314.627769 L158.5,315.756319 C158.14422,316.094135 157.581949,316.079572 157.244133,315.723793 C157.08739,315.558714 157,315.339761 157,315.112122 L157,280.16394 C157,279.897837 157.10606,279.642709 157.294704,279.455027 Z" id="Rectangle-13-Copy-4" fill="#FFFFFF"></path>
                <path d="M67.3757656,365.100365 L68.5,364.202065 C68.8984634,363.883679 69.4795843,363.948595 69.7979698,364.347058 C69.9287572,364.51074 70,364.71403 70,364.923546 L70,392.68097 C70,392.992912 69.8544311,393.286986 69.6063831,393.476142 L68.5,394.319849 C68.0899219,394.632566 67.5039802,394.55364 67.1912626,394.143562 C67.0671976,393.980871 67,393.781935 67,393.577336 L67,365.881602 C67,365.577612 67.1382769,365.290127 67.3757656,365.100365 Z" id="Rectangle-13-Copy-3" fill="#FFFFFF"></path>
                <path d="M157.357697,340.169201 L158.5,339.211925 C158.886621,338.887927 159.46269,338.938694 159.786687,339.325315 C159.924482,339.489743 160,339.69743 160,339.911963 L160,369.118962 C160,369.42279 159.86187,369.71014 159.624596,369.89991 L158.5,370.799353 C158.101773,371.117852 157.520751,371.053219 157.202252,370.654992 C157.071326,370.491292 157,370.287915 157,370.078298 L157,340.935652 C157,340.639838 157.13097,340.359204 157.357697,340.169201 Z" id="Rectangle-13-Copy-5" fill="#FFFFFF"></path>
                <polygon id="Path-71" stroke="#000000" stroke-width="2" fill="#FFFFFF" points="143.713164 271.726919 143.713164 376.342909 153.890885 373.515177 153.890885 268.679039"></polygon>
                <path d="M56,346.7581 L56,353.085156 C56,353.63744 56.4477153,354.085156 57,354.085156 C57.0908478,354.085156 57.1812719,354.072776 57.2687767,354.048358 L226.479587,306.830955 L226.479587,298.67626 L56,346.7581 Z" id="Path-68" stroke="#000000" stroke-width="2" fill="#FFFFFF"></path>
                <path d="M56.7462451,354.409217 L61.8399889,357.83775 L226.555079,311.53127 L226.555079,305.993477 L56.8034418,354.050864 C56.6971619,354.080952 56.6353963,354.1915 56.6654846,354.29778 C56.6783743,354.34331 56.7069898,354.382795 56.7462451,354.409217 Z" id="Path-68-Copy" stroke="#000000" stroke-width="2" fill="#CCCCCC"></path>
                <path d="M1.26370868,485.514418 L284.974254,416.552966 C285.403581,416.44861 285.836216,416.712051 285.940573,417.141377 C285.950597,417.182617 285.958142,495.833955 285.963208,653.095391 L1.26370868,653.095391" id="Path-54" stroke="#000000" stroke-width="2" fill="#CCCCCC"></path>
                <polygon id="Path-73" fill="#000000" points="0.939772153 497.849936 265.052368 434.448791 265.052368 452.836829 0.939772153 513.524692"></polygon>
                <polygon id="Path-79" fill="#000000" points="1.08576336 526.615126 264.888888 467.628272 264.888888 502.643697 1.08576336 558.732773"></polygon>
                <path d="M119.637771,470.387403 L119.637771,532.394637 L143.082964,527.240942 L143.082964,464.753467 L119.637771,470.387403 Z" id="Path-3" stroke="#000000" stroke-width="2" fill="#CCCCCC"></path>
                <polyline id="Path-77" stroke="#000000" stroke-width="2" points="264.698096 504.431623 285.476608 500.155716 362.377404 559.350259"></polyline>
                <polyline id="Path-78" stroke="#000000" stroke-width="2" points="264.731664 582.397 285.33914 578.560672 362.295882 630.592471"></polyline>
                <path d="M143.856597,502.159157 L143.856597,527.351523 L175.913359,520.557977 L175.913359,494.955836 L143.856597,502.159157 Z" id="Path-80" stroke="#000000" stroke-width="2" fill="#FFFFFF"></path>
                <polyline id="Path-81" stroke="#000000" stroke-width="2" fill="#FFFFFF" points="264.812765 475.465239 183.594133 493.672425 183.594133 518.696702 264.812765 501.36995"></polyline>
                <polygon id="Path-4" stroke="#000000" stroke-width="2" fill="#FFFFFF" points="91.7091275 512.909931 119.403479 507.152972 119.403479 532.647445 91.7091275 538.412354"></polygon>
                <polygon id="Path-5" stroke="#000000" stroke-width="2" fill="#FFFFFF" points="1.2842828 532.450145 83.9283292 514.699223 83.9283292 539.974198 1.2842828 557.426048"></polygon>
                <polyline id="Path-82" stroke="#000000" stroke-width="2" fill="#FFFFFF" points="264.466831 585.939837 1.03252636 636.035955 1.03252636 566.302541 1.03252636 566.302541 264.466831 510.339495"></polyline>
                <polygon id="Combined-Shape" fill="#000000" points="1.03252636 578.341596 264.466831 523.446271 264.466831 585.939837 1.03252636 636.035955"></polygon>
                <polygon id="Combined-Shape" fill="#CCCCCC" points="2.1408897 585.628016 15.027693 583.487169 13.9206632 633.503894 2.1408897 635.664872"></polygon>
                <polygon id="Path-6" fill="#CCCCCC" points="39.5116716 576.799684 38.1451776 629.711686 132.849277 610.653639 133.582511 557.043571"></polygon>
                <polygon id="Path-7" fill="#CCCCCC" points="153.430084 553.417368 264.807335 530.171446 264.807335 585.509989 153.430084 606.807497"></polygon>
                <g id="Group-4" transform="translate(0.000000, 586.000000)" stroke="#FFFFFF" stroke-linecap="round" stroke-linejoin="round" stroke-width="2">
                    <path d="M1,2.20871333 L13.5297977,0" id="Line"></path>
                    <path d="M1,5.20871333 L13.5297977,3" id="Line-Copy-13"></path>
                    <path d="M1,8.20871333 L13.5297977,6" id="Line-Copy-14"></path>
                    <path d="M1,11.2087133 L13.5297977,9" id="Line-Copy-15"></path>
                    <path d="M0.97025321,14.6534726 L13.5294666,12.3682432" id="Line-Copy-16"></path>
                    <path d="M1,18.2087133 L13.2073157,15.9807266" id="Line-Copy-17"></path>
                    <path d="M1,22.2087133 L13.0591052,20.0255875" id="Line-Copy-18"></path>
                    <path d="M1,26.2087133 L12.9241209,23.9918696" id="Line-Copy-19"></path>
                    <path d="M1,30.2087133 L13.0077568,28.1911649" id="Line-Copy-20"></path>
                    <path d="M1,34.2087133 L12.9097278,32.2021824" id="Line-Copy-21"></path>
                </g>
                <polygon id="Combined-Shape" stroke="#000000" stroke-width="2" points="1.03252636 578.341596 264.466831 523.446271 264.466831 585.939837 1.03252636 636.035955"></polygon>
                <g id="Group-3" transform="translate(40.000000, 559.000000)" stroke="#FFFFFF" stroke-linecap="round" stroke-linejoin="round" stroke-width="2">
                    <path d="M0.964560508,20.14708 L91.7738043,0.330864267" id="Line"></path>
                    <path d="M0.82204191,24.0463888 L91.3973663,4" id="Line-Copy"></path>
                    <path d="M0.676102866,40.3653383 L91.3744921,20.1693206" id="Line-Copy-5"></path>
                    <path d="M0.723989115,32.1260532 L91.3973663,12" id="Line-Copy-3"></path>
                    <path d="M0.991354005,28.0950572 L91.3973663,8" id="Line-Copy-2"></path>
                    <path d="M0.633917361,44.3638401 L91.372462,24.4549303" id="Line-Copy-7"></path>
                    <path d="M0.574629625,36.2020851 L91.3973663,16" id="Line-Copy-4"></path>
                </g>
                <g id="Group-3-Copy" transform="translate(208.139695, 568.007508) rotate(-1.500000) translate(-208.139695, -568.007508) translate(153.139695, 533.007508)" stroke="#FFFFFF" stroke-linecap="round" stroke-linejoin="round" stroke-width="2">
                    <path d="M2.07417555,21.0090121 L109.733768,0.860507876" id="Line"></path>
                    <path d="M2.07417555,25.0090121 L109.389483,4.57997793" id="Line-Copy"></path>
                    <path d="M2.07417555,41.0090121 L109.151996,20.6342258" id="Line-Copy-5"></path>
                    <path d="M2.07417555,33.0090121 L109.267107,12.6263521" id="Line-Copy-3"></path>
                    <path d="M1.61563185,49.1144905 L108.968629,29.6069211" id="Line-Copy-6"></path>
                    <path d="M2.07417555,29.0090121 L109.179396,8.73913003" id="Line-Copy-2"></path>
                    <path d="M2.07417555,45.0090121 L108.87148,25.1625619" id="Line-Copy-7"></path>
                    <path d="M2.07417555,37.0090121 L109.115883,16.7869074" id="Line-Copy-4"></path>
                    <path d="M1.06979325,53.213107 L108.694262,34.0046679" id="Line-Copy-8"></path>
                    <path d="M1.05235921,57.2086676 L108.57085,38.0158041" id="Line-Copy-9"></path>
                    <path d="M1.03490614,61.2085914 L108.540589,42.6000145" id="Line-Copy-10"></path>
                    <path d="M1.01745307,65.2085153 L108.657231,47.1868418" id="Line-Copy-11"></path>
                    <path d="M0.978167281,69.2124787 L108.503978,51.5833491" id="Line-Copy-12"></path>
                </g>
                <path d="M39.5933595,653.095391 L39.5933595,648.431438 L132.574071,630.620444 L132.574071,653.095391 L39.5933595,653.095391 Z" id="Combined-Shape" stroke="#000000" stroke-width="2" fill="#FFFFFF"></path>
                <polyline id="Combined-Shape" stroke="#000000" stroke-width="2" fill="#FFFFFF" points="264.942469 653.095391 155.540787 653.095391 155.540787 626.274153 264.942469 606.645054"></polyline>
                <path d="M1.26370868,485.514418 L284.974254,416.552966 C285.403581,416.44861 285.836216,416.712051 285.940573,417.141377 C285.955609,417.203237 285.963208,417.266671 285.963208,417.330331 L285.963208,653.095391 L1.26370868,653.095391 L1.26370868,485.514418 Z" id="Path-54" stroke="#000000" stroke-width="2"></path>
                <path d="M1.44381138,643.467901 L264.785255,594.350735" id="Path-84" stroke="#000000" stroke-width="2"></path>
                <path d="M264.456361,606.396185 L12.2936649,653.080669 L1.85201313,653.080669 C1.85201313,649.810257 1.85201313,648.175051 1.85201313,648.175051 C1.85201313,648.175051 89.3867956,631.88819 264.456361,599.314468 L264.456361,606.396185 Z" id="Path-85" fill="#000000"></path>
                <polygon id="Path-86" stroke="#000000" stroke-width="2" fill="#000000" points="394.509953 289.848114 492.889632 402.006002 492.889632 430.440552 396.558648 323.065215"></polygon>
                <polyline id="Path-87" stroke="#000000" stroke-width="2" fill="#CCCCCC" points="493.179656 452.141636 397 352 397 382.728284 493.179656 483.353834"></polyline>
                <polygon id="Combined-Shape" fill="#FFFFFF" points="473.590592 433.245918 473.590592 461.407332 471.793898 459.525095 471.793898 431.418629"></polygon>
                <polygon id="Combined-Shape" fill="#FFFFFF" points="468.501773 427.898885 468.501773 456.069628 464.755785 452.163437 464.755785 423.944201"></polygon>
                <polyline id="Path-87-Copy" stroke="#000000" stroke-width="2" fill="#CCCCCC" points="493.312432 508.042773 398 412.829948 398 412.829948 398 449.330535 493.312432 539.637008"></polyline>
                <polyline id="Path-88" stroke="#000000" stroke-width="2" fill="#CCCCCC" points="493.579434 591.172097 398.49143 510.495902 398.49143 477.049388 398.49143 477.049388 493.579434 560.620007"></polyline>
                <polyline id="Path-90" stroke="#000000" stroke-width="2" fill="#CCCCCC" points="493.547873 650.911792 399.165784 575.708264 399.165784 537.331152 493.547873 614.479889"></polyline>
                <polygon id="Combined-Shape" fill="#FFFFFF" points="432.446711 508.17159 432.446711 537.990756 425.330112 531.946602 425.330112 501.900024"></polygon>
                <polygon id="Path-91" stroke="#000000" stroke-width="2" fill="#CCCCCC" points="400.290407 603.515722 467.605551 652.872207 400.290407 652.872207"></polygon>
                <path d="M423,560 L453.878834,585.615265" id="Line-2" stroke="#000000" stroke-width="2" stroke-linecap="round"></path>
                <path d="M423,564 L453.878834,589.615265" id="Line-2-Copy" stroke="#000000" stroke-width="2" stroke-linecap="round"></path>
                <path d="M423,568 L453.878834,593.615265" id="Line-2-Copy-2" stroke="#000000" stroke-width="2" stroke-linecap="round"></path>
                <path d="M462,536 L488.836156,559.765317" id="Line-2-Copy-3" stroke="#000000" stroke-width="2" stroke-linecap="round"></path>
                <path d="M460,479 L485.96289,504.555091" id="Line-2-Copy-15" stroke="#000000" stroke-width="2" stroke-linecap="round"></path>
                <path d="M460,483 L485.96289,508.555091" id="Line-2-Copy-16" stroke="#000000" stroke-width="2" stroke-linecap="round"></path>
                <path d="M460,487 L485.96289,512.555091" id="Line-2-Copy-17" stroke="#000000" stroke-width="2" stroke-linecap="round"></path>
                <path d="M422.214707,382.250648 L445.161167,406.115586" id="Line-2-Copy-24" stroke="#000000" stroke-width="2" stroke-linecap="round"></path>
                <path d="M422.603354,390.091016 L444.927429,414.099621" id="Line-2-Copy-26" stroke="#000000" stroke-width="2" stroke-linecap="round"></path>
                <path d="M422.850026,397.947247 L445.089828,422.099621" id="Line-2-Copy-28" stroke="#000000" stroke-width="2" stroke-linecap="round"></path>
                <path d="M422.515314,386.283064 L444.64877,409.642757" id="Line-2-Copy-25" stroke="#000000" stroke-width="2" stroke-linecap="round"></path>
                <path d="M422.693378,394.050858 L444.927429,418.099621" id="Line-2-Copy-27" stroke="#000000" stroke-width="2" stroke-linecap="round"></path>
                <path d="M422.656099,401.835704 L444.828473,425.73259" id="Line-2-Copy-29" stroke="#000000" stroke-width="2" stroke-linecap="round"></path>
                <path d="M422.810875,406.062614 L444.868083,429.560588" id="Line-2-Copy-30" stroke="#000000" stroke-width="2" stroke-linecap="round"></path>
                <path d="M396,415 L414.540665,433.624044" id="Line-2-Copy-18" stroke="#000000" stroke-width="2" stroke-linecap="round"></path>
                <path d="M396,419 L414.540665,437.624044" id="Line-2-Copy-19" stroke="#000000" stroke-width="2" stroke-linecap="round"></path>
                <path d="M396,423 L414.540665,441.624044" id="Line-2-Copy-20" stroke="#000000" stroke-width="2" stroke-linecap="round"></path>
                <path d="M396,427 L414.540665,445.624044" id="Line-2-Copy-21" stroke="#000000" stroke-width="2" stroke-linecap="round"></path>
                <path d="M395,430 L413.413834,448.83453" id="Line-2-Copy-22" stroke="#000000" stroke-width="2" stroke-linecap="round"></path>
                <path d="M395,434 L413.524273,453.33667" id="Line-2-Copy-23" stroke="#000000" stroke-width="2" stroke-linecap="round"></path>
                <path d="M462,540 L488.836156,563.765317" id="Line-2-Copy-4" stroke="#000000" stroke-width="2" stroke-linecap="round"></path>
                <path d="M462,544 L488.836156,567.765317" id="Line-2-Copy-5" stroke="#000000" stroke-width="2" stroke-linecap="round"></path>
                <path d="M462,548 L488.836156,571.765317" id="Line-2-Copy-6" stroke="#000000" stroke-width="2" stroke-linecap="round"></path>
                <path d="M462,552 L488.836156,575.765317" id="Line-2-Copy-7" stroke="#000000" stroke-width="2" stroke-linecap="round"></path>
                <path d="M424,624 L449.602291,643.138885" id="Line-2-Copy-8" stroke="#000000" stroke-width="2" stroke-linecap="round"></path>
                <path d="M424,628 L449.602291,647.138885" id="Line-2-Copy-9" stroke="#000000" stroke-width="2" stroke-linecap="round"></path>
                <path d="M424,632 L449.602291,651.138885" id="Line-2-Copy-10" stroke="#000000" stroke-width="2" stroke-linecap="round"></path>
                <path d="M424,636 L447,653" id="Line-2-Copy-11" stroke="#000000" stroke-width="2" stroke-linecap="round"></path>
                <path d="M424,640 L441.375757,652.731761" id="Line-2-Copy-12" stroke="#000000" stroke-width="2" stroke-linecap="round"></path>
                <path d="M424,644 L435.5,652.5" id="Line-2-Copy-13" stroke="#000000" stroke-width="2" stroke-linecap="round"></path>
                <path d="M423.080529,647.630041 L430.352078,652.636376" id="Line-2-Copy-14" stroke="#000000" stroke-width="2" stroke-linecap="round"></path>
                <path d="M408.347754,322.962404 L416.826218,318.965481 C417.825332,318.494478 419.017098,318.922596 419.488101,319.921711 C419.608741,320.177617 419.673714,320.456207 419.67873,320.739079 L425.568316,652.878341 L413.341146,652.878341 L407.200931,324.808886 C407.186189,324.021247 407.635186,323.298323 408.347754,322.962404 Z" id="Path-89" stroke="#000000" stroke-width="2" fill="#FFFFFF"></path>
                <path d="M445.026017,366.954557 L452.732251,362.355655 C453.680757,361.789608 454.908545,362.099653 455.474592,363.048159 C455.651902,363.345272 455.7491,363.683303 455.756688,364.029219 L462.092628,652.880803 L450.019122,652.880803 L444.051377,368.713973 C444.036276,367.994918 444.40842,367.323125 445.026017,366.954557 Z" id="Path-92" stroke="#000000" stroke-width="2" fill="#FFFFFF"></path>
                <path d="M485.24758,406.336461 L492.590225,403.133872 L492.590225,653.079786 L488.307237,653.079786 L484.047462,408.204461 C484.033408,407.396528 484.506911,406.659513 485.24758,406.336461 Z" id="Path-94" stroke="#000000" stroke-width="2" fill="#FFFFFF"></path>
                <path d="M493.260358,404.40601 L397.405234,295.499023 L403.187958,652.991161 L394.235273,652.991161 L388.37671,273.032048 C388.427757,272.956585 423.388973,313.455023 493.260358,394.527466" id="Combined-Shape" stroke="#000000" stroke-width="2" fill="#FFFFFF"></path>
                <path d="M1,1 L1,653.088259 L493,653.088259 L493,1 L1,1 Z" id="Rectangle-12" stroke="#000000" stroke-width="2"></path>
                <polygon id="Combined-Shape" fill="#FFFFFF" points="484.611871 608.450609 484.611871 642.555365 481 639.643997 481 605.5"></polygon>
                <polygon id="Combined-Shape-Copy" fill="#FFFFFF" points="479.611871 604.34772 479.611871 638.543188 478.418078 637.568363 478.418078 603.369995"></polygon>
                <path d="M265,423.190897 L265,653.027915" id="Line-3" stroke="#000000" stroke-width="2" stroke-linecap="square"></path>
            </g>
        </g>
    </g>
</svg>