<?xml version="1.0" encoding="UTF-8"?>
<svg width="1040px" height="574px" viewBox="0 0 1040 574" version="1.1" xmlns="http://www.w3.org/2000/svg" xmlns:xlink="http://www.w3.org/1999/xlink">
    <!-- Generator: Sketch 50.2 (55047) - http://www.bohemiancoding.com/sketch -->
    <title>newcasetabs</title>
    <desc>Created with Sketch.</desc>
    <defs>
        <path d="M10,0 L440,0 C445.522847,-1.01453063e-15 450,4.4771525 450,10 L450,467 L0,467 L0,10 C-6.76353751e-16,4.4771525 4.4771525,1.01453063e-15 10,0 Z" id="path-1"></path>
        <filter x="-18.9%" y="-13.9%" width="137.8%" height="136.4%" filterUnits="objectBoundingBox" id="filter-3">
            <feOffset dx="0" dy="20" in="SourceAlpha" result="shadowOffsetOuter1"></feOffset>
            <feGaussianBlur stdDeviation="25" in="shadowOffsetOuter1" result="shadowBlurOuter1"></feGaussianBlur>
            <feComposite in="shadowBlurOuter1" in2="SourceAlpha" operator="out" result="shadowBlurOuter1"></feComposite>
            <feColorMatrix values="0 0 0 0 0   0 0 0 0 0   0 0 0 0 0  0 0 0 0.2 0" type="matrix" in="shadowBlurOuter1"></feColorMatrix>
        </filter>
        <path d="M10,0 L440,0 C445.522847,-1.01453063e-15 450,4.4771525 450,10 L450,297 L0,297 L0,10 C-6.76353751e-16,4.4771525 4.4771525,1.01453063e-15 10,0 Z" id="path-4"></path>
        <filter x="-18.9%" y="-21.9%" width="137.8%" height="157.2%" filterUnits="objectBoundingBox" id="filter-5">
            <feOffset dx="0" dy="20" in="SourceAlpha" result="shadowOffsetOuter1"></feOffset>
            <feGaussianBlur stdDeviation="25" in="shadowOffsetOuter1" result="shadowBlurOuter1"></feGaussianBlur>
            <feComposite in="shadowBlurOuter1" in2="SourceAlpha" operator="out" result="shadowBlurOuter1"></feComposite>
            <feColorMatrix values="0 0 0 0 0   0 0 0 0 0   0 0 0 0 0  0 0 0 0.2 0" type="matrix" in="shadowBlurOuter1"></feColorMatrix>
        </filter>
    </defs>
    <g id="Page-1" stroke="none" stroke-width="1" fill="none" fill-rule="evenodd">
        <g id="wireframes" transform="translate(-75.000000, -1715.000000)">
            <g id="newcasetabs" transform="translate(125.000000, 1715.000000)">
                <g id="Group-4" transform="translate(0.000000, 37.000000)">
                    <mask id="mask-2" fill="white">
                        <use xlink:href="#path-1"></use>
                    </mask>
                    <g id="Rectangle-34">
                        <use fill="black" fill-opacity="1" filter="url(#filter-3)" xlink:href="#path-1"></use>
                        <path stroke="#CCCCCC" stroke-width="2" d="M1,466 L449,466 L449,10 C449,5.02943725 444.970563,1 440,1 L10,1 C5.02943725,1 1,5.02943725 1,10 L1,466 Z" stroke-linejoin="square" fill="#FFFFFF" fill-rule="evenodd"></path>
                    </g>
                    <path d="M10,0 L440,0 C445.522847,-1.01453063e-15 450,4.4771525 450,10 L450,25 L0,25 L0,10 C-6.76353751e-16,4.4771525 4.4771525,1.01453063e-15 10,0 Z" id="Rectangle-21" fill="#CCCCCC" mask="url(#mask-2)"></path>
                    <path d="M501.62,-22 L499.24,-22 L498.18,-25.72 L493.74,-25.72 L492.68,-22 L490.4,-22 L494.48,-35.96 L497.54,-35.96 L501.62,-22 Z M497.76,-27.58 L496.04,-33.7 L495.88,-33.7 L494.16,-27.58 L497.76,-27.58 Z M503.56,-22 L503.56,-23.76 L506.86,-23.76 L506.86,-30.56 L503.36,-30.56 L503.36,-32.32 L506.86,-32.32 L506.86,-34.18 C506.86,-35.72 507.7,-36.8 509.5,-36.8 L512.98,-36.8 L512.98,-35.04 L509.04,-35.04 L509.04,-32.32 L512.98,-32.32 L512.98,-30.56 L509.04,-30.56 L509.04,-23.76 L512.52,-23.76 L512.52,-22 L503.56,-22 Z M524.56,-22 L520.62,-22 C518.82,-22 517.98,-23.08 517.98,-24.62 L517.98,-30.56 L514.8,-30.56 L514.8,-32.32 L517.06,-32.32 C517.82,-32.32 518.12,-32.58 518.12,-33.38 L518.12,-35.96 L520.16,-35.96 L520.16,-32.32 L524.56,-32.32 L524.56,-30.56 L520.16,-30.56 L520.16,-23.76 L524.56,-23.76 L524.56,-22 Z M532.22,-21.76 C529.06,-21.76 527.2,-23.86 527.2,-27.14 C527.2,-30.46 529.12,-32.56 532.06,-32.56 C534.96,-32.56 536.8,-30.48 536.8,-27.44 L536.8,-26.62 L529.4,-26.62 L529.4,-26.28 C529.4,-24.66 530.48,-23.52 532.26,-23.52 C533.58,-23.52 534.54,-24.14 535.12,-25.1 L536.48,-23.9 C535.78,-22.7 534.34,-21.76 532.22,-21.76 Z M532.06,-30.9 C530.5,-30.9 529.4,-29.76 529.4,-28.16 L529.4,-28.02 L534.58,-28.02 L534.58,-28.22 C534.58,-29.84 533.58,-30.9 532.06,-30.9 Z M539.52,-22 L539.52,-23.76 L542.26,-23.76 L542.26,-30.56 L539.52,-30.56 L539.52,-32.32 L544.44,-32.32 L544.44,-29.58 L544.56,-29.58 C544.96,-31.02 545.86,-32.32 547.96,-32.32 L549.2,-32.32 L549.2,-30.24 L547.16,-30.24 C545.38,-30.24 544.44,-29.06 544.44,-27.62 L544.44,-23.76 L548.18,-23.76 L548.18,-22 L539.52,-22 Z" id="After" fill="#000000" mask="url(#mask-2)"></path>
                    <path d="M1.66,-22 L1.66,-35.96 L6.48,-35.96 C9,-35.96 10.48,-34.54 10.48,-32.3 C10.48,-30.68 9.62,-29.74 8.26,-29.34 L8.26,-29.24 C9.88,-28.86 10.96,-27.86 10.96,-25.94 C10.96,-23.66 9.38,-22 7.02,-22 L1.66,-22 Z M3.86,-23.72 L6.34,-23.72 C7.82,-23.72 8.66,-24.32 8.66,-25.66 L8.66,-26.38 C8.66,-27.74 7.82,-28.32 6.34,-28.32 L3.86,-28.32 L3.86,-23.72 Z M3.86,-29.96 L6.02,-29.96 C7.42,-29.96 8.18,-30.48 8.18,-31.74 L8.18,-32.46 C8.18,-33.72 7.42,-34.24 6.02,-34.24 L3.86,-34.24 L3.86,-29.96 Z M18.22,-21.76 C15.06,-21.76 13.2,-23.86 13.2,-27.14 C13.2,-30.46 15.12,-32.56 18.06,-32.56 C20.96,-32.56 22.8,-30.48 22.8,-27.44 L22.8,-26.62 L15.4,-26.62 L15.4,-26.28 C15.4,-24.66 16.48,-23.52 18.26,-23.52 C19.58,-23.52 20.54,-24.14 21.12,-25.1 L22.48,-23.9 C21.78,-22.7 20.34,-21.76 18.22,-21.76 Z M18.06,-30.9 C16.5,-30.9 15.4,-29.76 15.4,-28.16 L15.4,-28.02 L20.58,-28.02 L20.58,-28.22 C20.58,-29.84 19.58,-30.9 18.06,-30.9 Z M25.56,-22 L25.56,-23.76 L28.86,-23.76 L28.86,-30.56 L25.36,-30.56 L25.36,-32.32 L28.86,-32.32 L28.86,-34.18 C28.86,-35.72 29.7,-36.8 31.5,-36.8 L34.98,-36.8 L34.98,-35.04 L31.04,-35.04 L31.04,-32.32 L34.98,-32.32 L34.98,-30.56 L31.04,-30.56 L31.04,-23.76 L34.52,-23.76 L34.52,-22 L25.56,-22 Z M42,-21.76 C38.96,-21.76 37.1,-23.86 37.1,-27.16 C37.1,-30.46 38.96,-32.56 42,-32.56 C45.04,-32.56 46.9,-30.46 46.9,-27.16 C46.9,-23.86 45.04,-21.76 42,-21.76 Z M42,-23.48 C43.58,-23.48 44.62,-24.46 44.62,-26.38 L44.62,-27.94 C44.62,-29.86 43.58,-30.84 42,-30.84 C40.42,-30.84 39.38,-29.86 39.38,-27.94 L39.38,-26.38 C39.38,-24.46 40.42,-23.48 42,-23.48 Z M49.52,-22 L49.52,-23.76 L52.26,-23.76 L52.26,-30.56 L49.52,-30.56 L49.52,-32.32 L54.44,-32.32 L54.44,-29.58 L54.56,-29.58 C54.96,-31.02 55.86,-32.32 57.96,-32.32 L59.2,-32.32 L59.2,-30.24 L57.16,-30.24 C55.38,-30.24 54.44,-29.06 54.44,-27.62 L54.44,-23.76 L58.18,-23.76 L58.18,-22 L49.52,-22 Z M66.22,-21.76 C63.06,-21.76 61.2,-23.86 61.2,-27.14 C61.2,-30.46 63.12,-32.56 66.06,-32.56 C68.96,-32.56 70.8,-30.48 70.8,-27.44 L70.8,-26.62 L63.4,-26.62 L63.4,-26.28 C63.4,-24.66 64.48,-23.52 66.26,-23.52 C67.58,-23.52 68.54,-24.14 69.12,-25.1 L70.48,-23.9 C69.78,-22.7 68.34,-21.76 66.22,-21.76 Z M66.06,-30.9 C64.5,-30.9 63.4,-29.76 63.4,-28.16 L63.4,-28.02 L68.58,-28.02 L68.58,-28.22 C68.58,-29.84 67.58,-30.9 66.06,-30.9 Z" id="Before" fill="#000000" mask="url(#mask-2)"></path>
                    <path d="M31.0675208,45 L38.9324792,45 C39.2086216,45 39.4324792,45.2238576 39.4324792,45.5 C39.4324792,45.6169683 39.3914711,45.7302347 39.3165898,45.8200922 L35.3841106,50.5390672 C35.2073286,50.7512057 34.8920462,50.7798677 34.6799078,50.6030857 C34.6566763,50.5837261 34.635249,50.5622988 34.6158894,50.5390672 L30.6834102,45.8200922 C30.5066281,45.6079538 30.5352902,45.2926714 30.7474286,45.1158894 C30.8372861,45.0410081 30.9505526,45 31.0675208,45 Z" id="Path-114" fill="#0000FF" mask="url(#mask-2)"></path>
                    <path d="M31.0675208,214 L38.9324792,214 C39.2086216,214 39.4324792,214.223858 39.4324792,214.5 C39.4324792,214.616968 39.3914711,214.730235 39.3165898,214.820092 L35.3841106,219.539067 C35.2073286,219.751206 34.8920462,219.779868 34.6799078,219.603086 C34.6566763,219.583726 34.635249,219.562299 34.6158894,219.539067 L30.6834102,214.820092 C30.5066281,214.607954 30.5352902,214.292671 30.7474286,214.115889 C30.8372861,214.041008 30.9505526,214 31.0675208,214 Z" id="Path-114-Copy" fill="#0000FF" mask="url(#mask-2)"></path>
                    <path d="M31.0675208,383 L38.9324792,383 C39.2086216,383 39.4324792,383.223858 39.4324792,383.5 C39.4324792,383.616968 39.3914711,383.730235 39.3165898,383.820092 L35.3841106,388.539067 C35.2073286,388.751206 34.8920462,388.779868 34.6799078,388.603086 C34.6566763,388.583726 34.635249,388.562299 34.6158894,388.539067 L30.6834102,383.820092 C30.5066281,383.607954 30.5352902,383.292671 30.7474286,383.115889 C30.8372861,383.041008 30.9505526,383 31.0675208,383 Z" id="Path-114-Copy-2" fill="#0000FF" mask="url(#mask-2)"></path>
                    <text id="Open-Cases" mask="url(#mask-2)" font-family="IBMPlexSans-Medium, IBM Plex Sans" font-size="12" font-weight="400" fill="#0000FF">
                        <tspan x="44" y="52">Open Cases</tspan>
                    </text>
                    <text id="Pending-Cases" mask="url(#mask-2)" font-family="IBMPlexSans-Medium, IBM Plex Sans" font-size="12" font-weight="400" fill="#0000FF">
                        <tspan x="44" y="221">Pending Cases</tspan>
                    </text>
                    <text id="Closed-Cases" mask="url(#mask-2)" font-family="IBMPlexSans-Medium, IBM Plex Sans" font-size="12" font-weight="400" fill="#0000FF">
                        <tspan x="44" y="390">Closed Cases</tspan>
                    </text>
                    <g id="Group" mask="url(#mask-2)">
                        <g transform="translate(30.000000, 63.000000)">
                            <rect id="Rectangle-4" stroke="none" fill="#CCCCCC" fill-rule="evenodd" x="0" y="0" width="389" height="16.870229"></rect>
                            <rect id="Rectangle-35" stroke="#CCCCCC" stroke-width="2" fill="none" x="1" y="1" width="388" height="128"></rect>
                            <path d="M1.50129199,32.7480916 L389,32.7480916" id="Line-Copy-3" stroke="#CCCCCC" stroke-width="2" fill="none"></path>
                            <path d="M1.50129199,49.6183206 L389,49.6183206" id="Line-Copy-4" stroke="#CCCCCC" stroke-width="2" fill="none"></path>
                            <path d="M1.50129199,65.4961832 L389,65.4961832" id="Line-Copy-5" stroke="#CCCCCC" stroke-width="2" fill="none"></path>
                            <path d="M1.50129199,81.3740458 L389,81.3740458" id="Line-Copy-6" stroke="#CCCCCC" stroke-width="2" fill="none"></path>
                            <path d="M1.50129199,97.2519084 L389,97.2519084" id="Line-Copy-7" stroke="#CCCCCC" stroke-width="2" fill="none"></path>
                            <path d="M1.50129199,114.122137 L389,114.122137" id="Line-Copy-8" stroke="#CCCCCC" stroke-width="2" fill="none"></path>
                            <path d="M78.5,3.96946565 L78.5,128.573473" id="Line-12" stroke="#CCCCCC" stroke-width="2" fill="none" stroke-linecap="square"></path>
                            <path d="M156.5,3.96946565 L156.5,128.573473" id="Line-12-Copy" stroke="#CCCCCC" stroke-width="2" fill="none" stroke-linecap="square"></path>
                            <path d="M233.5,3.96946565 L233.5,128.573473" id="Line-12-Copy-2" stroke="#CCCCCC" stroke-width="2" fill="none" stroke-linecap="square"></path>
                            <path d="M311.5,3.96946565 L311.5,128.573473" id="Line-12-Copy-3" stroke="#CCCCCC" stroke-width="2" fill="none" stroke-linecap="square"></path>
                        </g>
                    </g>
                    <g id="Group-Copy" mask="url(#mask-2)">
                        <g transform="translate(30.000000, 232.000000)">
                            <rect id="Rectangle-4" stroke="none" fill="#CCCCCC" fill-rule="evenodd" x="0" y="0" width="389" height="17.3333333"></rect>
                            <rect id="Rectangle-35" stroke="#CCCCCC" stroke-width="2" fill="none" x="1" y="1" width="388" height="128"></rect>
                            <path d="M1.50129199,32.9333333 L389,32.9333333" id="Line-Copy-3" stroke="#CCCCCC" stroke-width="2" fill="none"></path>
                            <path d="M1.50129199,49.4 L389,49.4" id="Line-Copy-4" stroke="#CCCCCC" stroke-width="2" fill="none"></path>
                            <path d="M1.50129199,65 L389,65" id="Line-Copy-5" stroke="#CCCCCC" stroke-width="2" fill="none"></path>
                            <path d="M1.50129199,81.4666667 L389,81.4666667" id="Line-Copy-6" stroke="#CCCCCC" stroke-width="2" fill="none"></path>
                            <path d="M1.50129199,97.0666667 L389,97.0666667" id="Line-Copy-7" stroke="#CCCCCC" stroke-width="2" fill="none"></path>
                            <path d="M1.50129199,113.533333 L389,113.533333" id="Line-Copy-8" stroke="#CCCCCC" stroke-width="2" fill="none"></path>
                            <path d="M78.9,4.33333333 L78.9,128.7" id="Line-12" stroke="#CCCCCC" stroke-width="2" fill="none" stroke-linecap="square"></path>
                            <path d="M156.3,4.33333333 L156.3,128.7" id="Line-12-Copy" stroke="#CCCCCC" stroke-width="2" fill="none" stroke-linecap="square"></path>
                            <path d="M233.7,4.33333333 L233.7,128.7" id="Line-12-Copy-2" stroke="#CCCCCC" stroke-width="2" fill="none" stroke-linecap="square"></path>
                            <path d="M311.1,4.33333333 L311.1,128.7" id="Line-12-Copy-3" stroke="#CCCCCC" stroke-width="2" fill="none" stroke-linecap="square"></path>
                        </g>
                    </g>
                    <g id="Group-Copy-2" mask="url(#mask-2)">
                        <g transform="translate(30.000000, 406.000000)">
                            <rect id="Rectangle-4" stroke="none" fill="#CCCCCC" fill-rule="evenodd" x="0" y="0" width="389" height="17.3333333"></rect>
                            <rect id="Rectangle-35" stroke="#CCCCCC" stroke-width="2" fill="none" x="1" y="1" width="388" height="128"></rect>
                            <path d="M1.50129199,32.9333333 L389,32.9333333" id="Line-Copy-3" stroke="#CCCCCC" stroke-width="2" fill="none"></path>
                            <path d="M1.50129199,49.4 L389,49.4" id="Line-Copy-4" stroke="#CCCCCC" stroke-width="2" fill="none"></path>
                            <path d="M1.50129199,65 L389,65" id="Line-Copy-5" stroke="#CCCCCC" stroke-width="2" fill="none"></path>
                            <path d="M1.50129199,81.4666667 L389,81.4666667" id="Line-Copy-6" stroke="#CCCCCC" stroke-width="2" fill="none"></path>
                            <path d="M1.50129199,97.0666667 L389,97.0666667" id="Line-Copy-7" stroke="#CCCCCC" stroke-width="2" fill="none"></path>
                            <path d="M1.50129199,113.533333 L389,113.533333" id="Line-Copy-8" stroke="#CCCCCC" stroke-width="2" fill="none"></path>
                            <path d="M78.9,4.33333333 L78.9,128.7" id="Line-12" stroke="#CCCCCC" stroke-width="2" fill="none" stroke-linecap="square"></path>
                            <path d="M156.3,4.33333333 L156.3,128.7" id="Line-12-Copy" stroke="#CCCCCC" stroke-width="2" fill="none" stroke-linecap="square"></path>
                            <path d="M233.7,4.33333333 L233.7,128.7" id="Line-12-Copy-2" stroke="#CCCCCC" stroke-width="2" fill="none" stroke-linecap="square"></path>
                            <path d="M311.1,4.33333333 L311.1,128.7" id="Line-12-Copy-3" stroke="#CCCCCC" stroke-width="2" fill="none" stroke-linecap="square"></path>
                        </g>
                    </g>
                </g>
                <g id="Group-5" transform="translate(490.000000, 37.000000)">
                    <g id="Rectangle-34-Copy">
                        <use fill="black" fill-opacity="1" filter="url(#filter-5)" xlink:href="#path-4"></use>
                        <path stroke="#CCCCCC" stroke-width="2" d="M1,296 L449,296 L449,10 C449,5.02943725 444.970563,1 440,1 L10,1 C5.02943725,1 1,5.02943725 1,10 L1,296 Z" stroke-linejoin="square" fill="#FFFFFF" fill-rule="evenodd"></path>
                    </g>
                    <path d="M10,0 L440,0 C445.522847,-1.01453063e-15 450,4.4771525 450,10 L450,25 L0,25 L0,10 C-6.76353751e-16,4.4771525 4.4771525,1.01453063e-15 10,0 Z" id="Rectangle-21-Copy-13" fill="#CCCCCC"></path>
                    <g id="Group-Copy-3" transform="translate(30.000000, 76.000000)">
                        <rect id="Rectangle-4" fill="#CCCCCC" x="0" y="0" width="389" height="16.870229"></rect>
                        <rect id="Rectangle-35" stroke="#CCCCCC" stroke-width="2" x="1" y="1" width="388" height="128"></rect>
                        <path d="M1.50129199,32.7480916 L389,32.7480916" id="Line-Copy-3" stroke="#CCCCCC" stroke-width="2"></path>
                        <path d="M1.50129199,49.6183206 L389,49.6183206" id="Line-Copy-4" stroke="#CCCCCC" stroke-width="2"></path>
                        <path d="M1.50129199,65.4961832 L389,65.4961832" id="Line-Copy-5" stroke="#CCCCCC" stroke-width="2"></path>
                        <path d="M1.50129199,81.3740458 L389,81.3740458" id="Line-Copy-6" stroke="#CCCCCC" stroke-width="2"></path>
                        <path d="M1.50129199,97.2519084 L389,97.2519084" id="Line-Copy-7" stroke="#CCCCCC" stroke-width="2"></path>
                        <path d="M1.50129199,114.122137 L389,114.122137" id="Line-Copy-8" stroke="#CCCCCC" stroke-width="2"></path>
                        <path d="M78.5,3.96946565 L78.5,218.969466" id="Line-12" stroke="#CCCCCC" stroke-width="2" stroke-linecap="square"></path>
                        <path d="M156.5,3.96946565 L156.5,218.969466" id="Line-12-Copy" stroke="#CCCCCC" stroke-width="2" stroke-linecap="square"></path>
                        <path d="M233.5,3.96946565 L233.5,218.969466" id="Line-12-Copy-2" stroke="#CCCCCC" stroke-width="2" stroke-linecap="square"></path>
                        <path d="M311.5,3.96946565 L311.5,218.969466" id="Line-12-Copy-3" stroke="#CCCCCC" stroke-width="2" stroke-linecap="square"></path>
                    </g>
                    <g id="Group-Copy-4" transform="translate(30.000000, 172.000000)" stroke="#CCCCCC" stroke-width="2">
                        <rect id="Rectangle-35" x="1" y="1" width="388" height="123"></rect>
                        <path d="M1.50129199,32.7480916 L389,32.7480916" id="Line-Copy-3"></path>
                        <path d="M1.50129199,49.6183206 L389,49.6183206" id="Line-Copy-4"></path>
                        <path d="M1.50129199,65.4961832 L389,65.4961832" id="Line-Copy-5"></path>
                        <path d="M1.50129199,81.3740458 L389,81.3740458" id="Line-Copy-6"></path>
                        <path d="M1.50129199,97.2519084 L389,97.2519084" id="Line-Copy-7"></path>
                        <path d="M1.50129199,114.122137 L389,114.122137" id="Line-Copy-8"></path>
                    </g>
                    <path d="M31,63.5 L419.000322,63.5" id="Line" stroke="#0000FF" stroke-width="2" stroke-linecap="square"></path>
                    <path d="M31,63 L90,63 L90,44 C90,43.4477153 89.5522847,43 89,43 L32,43 C31.4477153,43 31,43.4477153 31,44 L31,63 Z" id="Rectangle-5" stroke="#0000FF" stroke-width="2" fill="#0000FF"></path>
                    <path d="M99,64 L99,44 C99,42.8954305 99.8954305,42 101,42 L158,42 C159.104569,42 160,42.8954305 160,44 L160,64" id="Rectangle-5-Copy" stroke="#0000FF" stroke-width="2"></path>
                    <path d="M168,64 L168,44 C168,42.8954305 168.895431,42 170,42 L227,42 C228.104569,42 229,42.8954305 229,44 L229,64" id="Rectangle-5-Copy-2" stroke="#0000FF" stroke-width="2"></path>
                    <text id="Open" font-family="IBMPlexSans-Medium, IBM Plex Sans" font-size="12" font-weight="400" fill="#FFFFFF">
                        <tspan x="46" y="57">Open</tspan>
                    </text>
                    <text id="Pending" font-family="IBMPlexSans-Medium, IBM Plex Sans" font-size="12" font-weight="400" fill="#0000FF">
                        <tspan x="107" y="57">Pending</tspan>
                    </text>
                    <text id="Closed" font-family="IBMPlexSans-Medium, IBM Plex Sans" font-size="12" font-weight="400" fill="#0000FF">
                        <tspan x="180" y="57">Closed</tspan>
                    </text>
                </g>
                <path d="M501.62,15 L499.24,15 L498.18,11.28 L493.74,11.28 L492.68,15 L490.4,15 L494.48,1.04 L497.54,1.04 L501.62,15 Z M497.76,9.42 L496.04,3.3 L495.88,3.3 L494.16,9.42 L497.76,9.42 Z M503.56,15 L503.56,13.24 L506.86,13.24 L506.86,6.44 L503.36,6.44 L503.36,4.68 L506.86,4.68 L506.86,2.82 C506.86,1.28 507.7,0.2 509.5,0.2 L512.98,0.2 L512.98,1.96 L509.04,1.96 L509.04,4.68 L512.98,4.68 L512.98,6.44 L509.04,6.44 L509.04,13.24 L512.52,13.24 L512.52,15 L503.56,15 Z M524.56,15 L520.62,15 C518.82,15 517.98,13.92 517.98,12.38 L517.98,6.44 L514.8,6.44 L514.8,4.68 L517.06,4.68 C517.82,4.68 518.12,4.42 518.12,3.62 L518.12,1.04 L520.16,1.04 L520.16,4.68 L524.56,4.68 L524.56,6.44 L520.16,6.44 L520.16,13.24 L524.56,13.24 L524.56,15 Z M532.22,15.24 C529.06,15.24 527.2,13.14 527.2,9.86 C527.2,6.54 529.12,4.44 532.06,4.44 C534.96,4.44 536.8,6.52 536.8,9.56 L536.8,10.38 L529.4,10.38 L529.4,10.72 C529.4,12.34 530.48,13.48 532.26,13.48 C533.58,13.48 534.54,12.86 535.12,11.9 L536.48,13.1 C535.78,14.3 534.34,15.24 532.22,15.24 Z M532.06,6.1 C530.5,6.1 529.4,7.24 529.4,8.84 L529.4,8.98 L534.58,8.98 L534.58,8.78 C534.58,7.16 533.58,6.1 532.06,6.1 Z M539.52,15 L539.52,13.24 L542.26,13.24 L542.26,6.44 L539.52,6.44 L539.52,4.68 L544.44,4.68 L544.44,7.42 L544.56,7.42 C544.96,5.98 545.86,4.68 547.96,4.68 L549.2,4.68 L549.2,6.76 L547.16,6.76 C545.38,6.76 544.44,7.94 544.44,9.38 L544.44,13.24 L548.18,13.24 L548.18,15 L539.52,15 Z" id="After" fill="#000000"></path>
                <path d="M1.66,15 L1.66,1.04 L6.48,1.04 C9,1.04 10.48,2.46 10.48,4.7 C10.48,6.32 9.62,7.26 8.26,7.66 L8.26,7.76 C9.88,8.14 10.96,9.14 10.96,11.06 C10.96,13.34 9.38,15 7.02,15 L1.66,15 Z M3.86,13.28 L6.34,13.28 C7.82,13.28 8.66,12.68 8.66,11.34 L8.66,10.62 C8.66,9.26 7.82,8.68 6.34,8.68 L3.86,8.68 L3.86,13.28 Z M3.86,7.04 L6.02,7.04 C7.42,7.04 8.18,6.52 8.18,5.26 L8.18,4.54 C8.18,3.28 7.42,2.76 6.02,2.76 L3.86,2.76 L3.86,7.04 Z M18.22,15.24 C15.06,15.24 13.2,13.14 13.2,9.86 C13.2,6.54 15.12,4.44 18.06,4.44 C20.96,4.44 22.8,6.52 22.8,9.56 L22.8,10.38 L15.4,10.38 L15.4,10.72 C15.4,12.34 16.48,13.48 18.26,13.48 C19.58,13.48 20.54,12.86 21.12,11.9 L22.48,13.1 C21.78,14.3 20.34,15.24 18.22,15.24 Z M18.06,6.1 C16.5,6.1 15.4,7.24 15.4,8.84 L15.4,8.98 L20.58,8.98 L20.58,8.78 C20.58,7.16 19.58,6.1 18.06,6.1 Z M25.56,15 L25.56,13.24 L28.86,13.24 L28.86,6.44 L25.36,6.44 L25.36,4.68 L28.86,4.68 L28.86,2.82 C28.86,1.28 29.7,0.2 31.5,0.2 L34.98,0.2 L34.98,1.96 L31.04,1.96 L31.04,4.68 L34.98,4.68 L34.98,6.44 L31.04,6.44 L31.04,13.24 L34.52,13.24 L34.52,15 L25.56,15 Z M42,15.24 C38.96,15.24 37.1,13.14 37.1,9.84 C37.1,6.54 38.96,4.44 42,4.44 C45.04,4.44 46.9,6.54 46.9,9.84 C46.9,13.14 45.04,15.24 42,15.24 Z M42,13.52 C43.58,13.52 44.62,12.54 44.62,10.62 L44.62,9.06 C44.62,7.14 43.58,6.16 42,6.16 C40.42,6.16 39.38,7.14 39.38,9.06 L39.38,10.62 C39.38,12.54 40.42,13.52 42,13.52 Z M49.52,15 L49.52,13.24 L52.26,13.24 L52.26,6.44 L49.52,6.44 L49.52,4.68 L54.44,4.68 L54.44,7.42 L54.56,7.42 C54.96,5.98 55.86,4.68 57.96,4.68 L59.2,4.68 L59.2,6.76 L57.16,6.76 C55.38,6.76 54.44,7.94 54.44,9.38 L54.44,13.24 L58.18,13.24 L58.18,15 L49.52,15 Z M66.22,15.24 C63.06,15.24 61.2,13.14 61.2,9.86 C61.2,6.54 63.12,4.44 66.06,4.44 C68.96,4.44 70.8,6.52 70.8,9.56 L70.8,10.38 L63.4,10.38 L63.4,10.72 C63.4,12.34 64.48,13.48 66.26,13.48 C67.58,13.48 68.54,12.86 69.12,11.9 L70.48,13.1 C69.78,14.3 68.34,15.24 66.22,15.24 Z M66.06,6.1 C64.5,6.1 63.4,7.24 63.4,8.84 L63.4,8.98 L68.58,8.98 L68.58,8.78 C68.58,7.16 67.58,6.1 66.06,6.1 Z" id="Before" fill="#000000"></path>
            </g>
        </g>
    </g>
</svg>