<?xml version="1.0" encoding="UTF-8"?>
<svg width="1040px" height="222px" viewBox="0 0 1040 222" version="1.1" xmlns="http://www.w3.org/2000/svg" xmlns:xlink="http://www.w3.org/1999/xlink">
    <!-- Generator: Sketch 50.2 (55047) - http://www.bohemiancoding.com/sketch -->
    <title>newsearchbar</title>
    <desc>Created with Sketch.</desc>
    <defs>
        <path d="M10,37 L440,37 C445.522847,37 450,41.4771525 450,47 L450,152 L0,152 L0,47 C-6.76353751e-16,41.4771525 4.4771525,37 10,37 Z" id="path-1"></path>
        <filter x="-18.9%" y="-56.5%" width="137.8%" height="247.8%" filterUnits="objectBoundingBox" id="filter-2">
            <feOffset dx="0" dy="20" in="SourceAlpha" result="shadowOffsetOuter1"></feOffset>
            <feGaussianBlur stdDeviation="25" in="shadowOffsetOuter1" result="shadowBlurOuter1"></feGaussianBlur>
            <feComposite in="shadowBlurOuter1" in2="SourceAlpha" operator="out" result="shadowBlurOuter1"></feComposite>
            <feColorMatrix values="0 0 0 0 0   0 0 0 0 0   0 0 0 0 0  0 0 0 0.2 0" type="matrix" in="shadowBlurOuter1"></feColorMatrix>
        </filter>
        <path d="M500,37 L930,37 C935.522847,37 940,41.4771525 940,47 L940,152 L490,152 L490,47 C490,41.4771525 494.477153,37 500,37 Z" id="path-3"></path>
        <filter x="-18.9%" y="-56.5%" width="137.8%" height="247.8%" filterUnits="objectBoundingBox" id="filter-4">
            <feOffset dx="0" dy="20" in="SourceAlpha" result="shadowOffsetOuter1"></feOffset>
            <feGaussianBlur stdDeviation="25" in="shadowOffsetOuter1" result="shadowBlurOuter1"></feGaussianBlur>
            <feComposite in="shadowBlurOuter1" in2="SourceAlpha" operator="out" result="shadowBlurOuter1"></feComposite>
            <feColorMatrix values="0 0 0 0 0   0 0 0 0 0   0 0 0 0 0  0 0 0 0.2 0" type="matrix" in="shadowBlurOuter1"></feColorMatrix>
        </filter>
    </defs>
    <g id="Page-1" stroke="none" stroke-width="1" fill="none" fill-rule="evenodd">
        <g id="wireframes" transform="translate(-75.000000, -1403.000000)">
            <g id="newsearchbar" transform="translate(125.000000, 1403.000000)">
                <g id="Rectangle-34">
                    <use fill="black" fill-opacity="1" filter="url(#filter-2)" xlink:href="#path-1"></use>
                    <path stroke="#CCCCCC" stroke-width="2" d="M1,151 L449,151 L449,47 C449,42.0294373 444.970563,38 440,38 L10,38 C5.02943725,38 1,42.0294373 1,47 L1,151 Z" stroke-linejoin="square" fill="#FFFFFF" fill-rule="evenodd"></path>
                </g>
                <g id="Rectangle-34-Copy">
                    <use fill="black" fill-opacity="1" filter="url(#filter-4)" xlink:href="#path-3"></use>
                    <path stroke="#CCCCCC" stroke-width="2" d="M491,151 L939,151 L939,47 C939,42.0294373 934.970563,38 930,38 L500,38 C495.029437,38 491,42.0294373 491,47 L491,151 Z" stroke-linejoin="square" fill="#FFFFFF" fill-rule="evenodd"></path>
                </g>
                <rect id="Rectangle-Copy" stroke="#0000FF" stroke-width="2" fill="#0000FF" x="521" y="105" width="388" height="33"></rect>
                <g id="search_24-copy" transform="translate(532.000000, 111.000000)" fill="#FFFFFF" fill-rule="nonzero">
                    <path d="M7.5,1.875 C10.6021875,1.875 13.125,4.3978125 13.125,7.5 C13.125,10.6021875 10.6021875,13.125 7.5,13.125 C4.3978125,13.125 1.875,10.6021875 1.875,7.5 C1.875,4.3978125 4.3978125,1.875 7.5,1.875 L7.5,1.875 Z M7.5,0 C3.358125,0 0,3.358125 0,7.5 C0,11.6409375 3.358125,15 7.5,15 C11.641875,15 15,11.6409375 15,7.5 C15,3.358125 11.641875,0 7.5,0 L7.5,0 Z" id="Shape"></path>
                    <rect id="Rectangle-path" transform="translate(17.000000, 17.500000) rotate(-45.000000) translate(-17.000000, -17.500000) " x="15" y="14" width="4" height="7"></rect>
                    <path d="M7.5,1.875 C10.6021875,1.875 13.125,4.3978125 13.125,7.5 C13.125,10.6021875 10.6021875,13.125 7.5,13.125 C4.3978125,13.125 1.875,10.6021875 1.875,7.5 C1.875,4.3978125 4.3978125,1.875 7.5,1.875 L7.5,1.875 Z M7.5,0 C3.358125,0 0,3.358125 0,7.5 C0,11.6409375 3.358125,15 7.5,15 C11.641875,15 15,11.6409375 15,7.5 C15,3.358125 11.641875,0 7.5,0 L7.5,0 Z" id="Shape"></path>
                    <rect id="Rectangle-path" transform="translate(17.000000, 17.500000) rotate(-45.000000) translate(-17.000000, -17.500000) " x="15" y="14" width="4" height="7"></rect>
                </g>
                <rect id="Rectangle-21-Copy" fill="#DDDDDD" x="30" y="124" width="50" height="10"></rect>
                <rect id="Rectangle-21-Copy-4" fill="#DDDDDD" x="520" y="82" width="50" height="10"></rect>
                <rect id="Rectangle-21-Copy-2" fill="#DDDDDD" x="90" y="124" width="50" height="10"></rect>
                <rect id="Rectangle-21-Copy-5" fill="#DDDDDD" x="580" y="82" width="50" height="10"></rect>
                <rect id="Rectangle-21-Copy-3" fill="#DDDDDD" x="150" y="124" width="50" height="10"></rect>
                <rect id="Rectangle-21-Copy-11" fill="#DDDDDD" x="640" y="82" width="50" height="10"></rect>
                <rect id="Rectangle" stroke="#0000FF" stroke-width="2" fill="#0000FF" x="330" y="83" width="89" height="19"></rect>
                <g id="search_24" transform="translate(400.000000, 86.000000)" fill="#FFFFFF" fill-rule="nonzero">
                    <path d="M4.5,1.125 C6.3613125,1.125 7.875,2.6386875 7.875,4.5 C7.875,6.3613125 6.3613125,7.875 4.5,7.875 C2.6386875,7.875 1.125,6.3613125 1.125,4.5 C1.125,2.6386875 2.6386875,1.125 4.5,1.125 L4.5,1.125 Z M4.5,0 C2.014875,0 0,2.014875 0,4.5 C0,6.9845625 2.014875,9 4.5,9 C6.985125,9 9,6.9845625 9,4.5 C9,2.014875 6.985125,0 4.5,0 L4.5,0 Z" id="Shape"></path>
                    <rect id="Rectangle-path" transform="translate(10.500000, 10.000000) rotate(-45.000000) translate(-10.500000, -10.000000) " x="9" y="8" width="3" height="4"></rect>
                    <path d="M4.5,1.125 C6.3613125,1.125 7.875,2.6386875 7.875,4.5 C7.875,6.3613125 6.3613125,7.875 4.5,7.875 C2.6386875,7.875 1.125,6.3613125 1.125,4.5 C1.125,2.6386875 2.6386875,1.125 4.5,1.125 L4.5,1.125 Z M4.5,0 C2.014875,0 0,2.014875 0,4.5 C0,6.9845625 2.014875,9 4.5,9 C6.985125,9 9,6.9845625 9,4.5 C9,2.014875 6.985125,0 4.5,0 L4.5,0 Z" id="Shape"></path>
                    <rect id="Rectangle-path" transform="translate(10.500000, 10.000000) rotate(-45.000000) translate(-10.500000, -10.000000) " x="9" y="8" width="3" height="4"></rect>
                </g>
                <path d="M10,37 L440,37 C445.522847,37 450,41.4771525 450,47 L450,62 L0,62 L0,47 C-6.76353751e-16,41.4771525 4.4771525,37 10,37 Z" id="Rectangle-21" fill="#CCCCCC"></path>
                <path d="M500,37 L930,37 C935.522847,37 940,41.4771525 940,47 L940,62 L490,62 L490,47 C490,41.4771525 494.477153,37 500,37 Z" id="Rectangle-21-Copy-13" fill="#CCCCCC"></path>
                <path d="M501.62,15 L499.24,15 L498.18,11.28 L493.74,11.28 L492.68,15 L490.4,15 L494.48,1.04 L497.54,1.04 L501.62,15 Z M497.76,9.42 L496.04,3.3 L495.88,3.3 L494.16,9.42 L497.76,9.42 Z M503.56,15 L503.56,13.24 L506.86,13.24 L506.86,6.44 L503.36,6.44 L503.36,4.68 L506.86,4.68 L506.86,2.82 C506.86,1.28 507.7,0.2 509.5,0.2 L512.98,0.2 L512.98,1.96 L509.04,1.96 L509.04,4.68 L512.98,4.68 L512.98,6.44 L509.04,6.44 L509.04,13.24 L512.52,13.24 L512.52,15 L503.56,15 Z M524.56,15 L520.62,15 C518.82,15 517.98,13.92 517.98,12.38 L517.98,6.44 L514.8,6.44 L514.8,4.68 L517.06,4.68 C517.82,4.68 518.12,4.42 518.12,3.62 L518.12,1.04 L520.16,1.04 L520.16,4.68 L524.56,4.68 L524.56,6.44 L520.16,6.44 L520.16,13.24 L524.56,13.24 L524.56,15 Z M532.22,15.24 C529.06,15.24 527.2,13.14 527.2,9.86 C527.2,6.54 529.12,4.44 532.06,4.44 C534.96,4.44 536.8,6.52 536.8,9.56 L536.8,10.38 L529.4,10.38 L529.4,10.72 C529.4,12.34 530.48,13.48 532.26,13.48 C533.58,13.48 534.54,12.86 535.12,11.9 L536.48,13.1 C535.78,14.3 534.34,15.24 532.22,15.24 Z M532.06,6.1 C530.5,6.1 529.4,7.24 529.4,8.84 L529.4,8.98 L534.58,8.98 L534.58,8.78 C534.58,7.16 533.58,6.1 532.06,6.1 Z M539.52,15 L539.52,13.24 L542.26,13.24 L542.26,6.44 L539.52,6.44 L539.52,4.68 L544.44,4.68 L544.44,7.42 L544.56,7.42 C544.96,5.98 545.86,4.68 547.96,4.68 L549.2,4.68 L549.2,6.76 L547.16,6.76 C545.38,6.76 544.44,7.94 544.44,9.38 L544.44,13.24 L548.18,13.24 L548.18,15 L539.52,15 Z" id="After" fill="#000000"></path>
                <path d="M1.66,15 L1.66,1.04 L6.48,1.04 C9,1.04 10.48,2.46 10.48,4.7 C10.48,6.32 9.62,7.26 8.26,7.66 L8.26,7.76 C9.88,8.14 10.96,9.14 10.96,11.06 C10.96,13.34 9.38,15 7.02,15 L1.66,15 Z M3.86,13.28 L6.34,13.28 C7.82,13.28 8.66,12.68 8.66,11.34 L8.66,10.62 C8.66,9.26 7.82,8.68 6.34,8.68 L3.86,8.68 L3.86,13.28 Z M3.86,7.04 L6.02,7.04 C7.42,7.04 8.18,6.52 8.18,5.26 L8.18,4.54 C8.18,3.28 7.42,2.76 6.02,2.76 L3.86,2.76 L3.86,7.04 Z M18.22,15.24 C15.06,15.24 13.2,13.14 13.2,9.86 C13.2,6.54 15.12,4.44 18.06,4.44 C20.96,4.44 22.8,6.52 22.8,9.56 L22.8,10.38 L15.4,10.38 L15.4,10.72 C15.4,12.34 16.48,13.48 18.26,13.48 C19.58,13.48 20.54,12.86 21.12,11.9 L22.48,13.1 C21.78,14.3 20.34,15.24 18.22,15.24 Z M18.06,6.1 C16.5,6.1 15.4,7.24 15.4,8.84 L15.4,8.98 L20.58,8.98 L20.58,8.78 C20.58,7.16 19.58,6.1 18.06,6.1 Z M25.56,15 L25.56,13.24 L28.86,13.24 L28.86,6.44 L25.36,6.44 L25.36,4.68 L28.86,4.68 L28.86,2.82 C28.86,1.28 29.7,0.2 31.5,0.2 L34.98,0.2 L34.98,1.96 L31.04,1.96 L31.04,4.68 L34.98,4.68 L34.98,6.44 L31.04,6.44 L31.04,13.24 L34.52,13.24 L34.52,15 L25.56,15 Z M42,15.24 C38.96,15.24 37.1,13.14 37.1,9.84 C37.1,6.54 38.96,4.44 42,4.44 C45.04,4.44 46.9,6.54 46.9,9.84 C46.9,13.14 45.04,15.24 42,15.24 Z M42,13.52 C43.58,13.52 44.62,12.54 44.62,10.62 L44.62,9.06 C44.62,7.14 43.58,6.16 42,6.16 C40.42,6.16 39.38,7.14 39.38,9.06 L39.38,10.62 C39.38,12.54 40.42,13.52 42,13.52 Z M49.52,15 L49.52,13.24 L52.26,13.24 L52.26,6.44 L49.52,6.44 L49.52,4.68 L54.44,4.68 L54.44,7.42 L54.56,7.42 C54.96,5.98 55.86,4.68 57.96,4.68 L59.2,4.68 L59.2,6.76 L57.16,6.76 C55.38,6.76 54.44,7.94 54.44,9.38 L54.44,13.24 L58.18,13.24 L58.18,15 L49.52,15 Z M66.22,15.24 C63.06,15.24 61.2,13.14 61.2,9.86 C61.2,6.54 63.12,4.44 66.06,4.44 C68.96,4.44 70.8,6.52 70.8,9.56 L70.8,10.38 L63.4,10.38 L63.4,10.72 C63.4,12.34 64.48,13.48 66.26,13.48 C67.58,13.48 68.54,12.86 69.12,11.9 L70.48,13.1 C69.78,14.3 68.34,15.24 66.22,15.24 Z M66.06,6.1 C64.5,6.1 63.4,7.24 63.4,8.84 L63.4,8.98 L68.58,8.98 L68.58,8.78 C68.58,7.16 67.58,6.1 66.06,6.1 Z" id="Before" fill="#000000"></path>
            </g>
        </g>
    </g>
</svg>