<?xml version="1.0" encoding="UTF-8"?>
<svg width="528px" height="465px" viewBox="0 0 528 465" version="1.1" xmlns="http://www.w3.org/2000/svg" xmlns:xlink="http://www.w3.org/1999/xlink">
    <!-- Generator: Sketch 49.3 (51167) - http://www.bohemiancoding.com/sketch -->
    <title>acquisition</title>
    <desc>Created with Sketch.</desc>
    <defs>
        <rect id="path-1" x="87" y="63" width="441" height="400"></rect>
        <path d="M125.968985,29.9447328 L125.968985,309.944733 C125.968985,312.706157 123.730408,314.944733 120.968985,314.944733 L19.9689847,314.944733 C17.2075609,314.944733 14.9689847,312.706157 14.9689847,309.944733 L14.9689847,29.9447328 C-9.42898795,9.98157762 0.597152966,1.38294978e-14 45.0474074,0 C89.4976619,0 116.471521,9.98157762 125.968985,29.9447328 Z" id="path-2"></path>
        <path d="M87.1839918,30.491661 L87.1839918,205.192035 C87.1839918,206.915528 82.6182003,221 69.6032992,221 C56.588398,221 52.619432,206.915528 52.619432,205.192035 L52.619432,30.491661 C44.7184891,22.163887 46.9527044,18 59.322078,18 C71.6914516,18 80.9787562,22.163887 87.1839918,30.491661 Z" id="path-3"></path>
        <path d="M0.854110778,100.561542 L67.1188205,2.20680091 C68.5621449,0.0645173481 71.3997298,-0.625686195 73.6657567,0.614348595 L124.833988,28.6150693 C126.791586,29.6863231 127.802315,31.9251256 127.311083,34.1019276 L123.388261,51.4851859 C122.780386,54.1788727 120.103941,55.869757 117.410254,55.2618817 C116.910872,55.1491878 116.431759,54.9604689 115.989669,54.7023243 L80.7265404,34.1115248 C78.4263603,32.7684066 75.4770713,33.4642847 74.0198804,35.693946 L35.9280404,93.9786242 C34.4173357,96.2901675 35.0665437,99.3887117 37.378087,100.899416 C37.4431431,100.941934 37.5091816,100.982928 37.5761488,101.022367 L56.9857688,112.453197 C59.3652159,113.854515 60.158146,116.919431 58.7568278,119.298878 C58.5355668,119.67458 58.2661137,120.019728 57.9553251,120.325537 L47.9427769,130.177662 C46.3281096,131.766459 43.8470226,132.071223 41.8958393,130.920436 L2.46072101,107.662036 C0.0821720414,106.259194 -0.708794656,103.193771 0.694047439,100.815222 C0.744852878,100.72908 0.798231337,100.644482 0.854110778,100.561542 Z" id="path-4"></path>
        <path d="M117.085166,33.0050014 L136.847914,34.2555593 C138.501461,34.3601934 139.757103,35.7854807 139.652469,37.4390277 C139.649013,37.4936369 139.644064,37.5481412 139.637628,37.6024797 L137.567319,55.0795243 C137.379586,56.6643254 135.98398,57.8247593 134.39153,57.7201655 L115.000786,56.4465608 C113.347494,56.3379709 112.095266,54.9096834 112.203856,53.2563914 C112.205914,53.2250488 112.208465,53.1937404 112.211507,53.1624779 L113.909811,35.70848 C114.066446,34.0986927 115.471005,32.9028596 117.085166,33.0050014 Z" id="path-5"></path>
        <rect id="path-6" x="115" y="249" width="19" height="46"></rect>
        <rect id="path-7" x="132" y="249" width="7" height="46"></rect>
        <path d="M84.6220398,96.0386442 L172.665596,116.071722 C174.031109,116.382425 175,117.596539 175,118.996954 L175,268.419112 C175,269.769426 174.097867,270.953338 172.795946,271.311597 L170.294276,272 L80,245.796025 L80,97.7901397 L82.4515999,96.368603 C83.1074052,95.9883405 83.8828564,95.8704534 84.6220398,96.0386442 Z" id="path-8"></path>
        <path d="M78,97 L168.652047,117.185707 C170.024059,117.491216 171,118.708375 171,120.113989 L171,274 L78,249.239992 L78,97 Z" id="path-9"></path>
        <path d="M88.4849221,169.966739 L161.484922,188.210778 C162.375329,188.433307 163,189.233308 163,190.151101 L163,197.363505 C163,198.468074 162.104569,199.363505 161,199.363505 C160.833095,199.363505 160.666846,199.342612 160.505131,199.301314 L87.5051311,180.658906 C86.6195819,180.432758 86,179.635066 86,178.721097 L86,171.907061 C86,170.802492 86.8954305,169.907061 88,169.907061 C88.1634722,169.907061 88.3263278,169.927103 88.4849221,169.966739 Z" id="path-10"></path>
    </defs>
    <g id="Page-1" stroke="none" stroke-width="1" fill="none" fill-rule="evenodd">
        <g id="Artboard" transform="translate(-62.000000, -59.000000)">
            <g id="acquisition" transform="translate(62.000000, 61.000000)">
                <g id="Rectangle-8">
                    <use fill="#FFFFFF" fill-rule="evenodd" xlink:href="#path-1"></use>
                    <rect stroke="#000000" stroke-width="2" x="88" y="64" width="439" height="398"></rect>
                </g>
                <path d="M59.2813353,68.1134969 C155.234667,-15.9802599 341.73818,13.8123265 437.691511,97.9060832 C533.644843,181.99984 538.249009,308.005924 442.295677,392.09968 C346.342346,476.193437 186.790427,463.421146 89.1379767,377.838277 C-8.51447345,292.255408 -36.6719962,152.207254 59.2813353,68.1134969 Z" id="Rectangle-11" fill="#FFD5D5"></path>
                <rect id="Rectangle-8" stroke="#000000" stroke-width="2" x="88" y="64" width="439" height="398"></rect>
                <g id="Group" transform="translate(335.000000, 0.000000)">
                    <ellipse id="Oval-2" fill="#CCCCCC" cx="108.649485" cy="443.824742" rx="71.6494845" ry="10.8247423"></ellipse>
                    <polygon id="Path-34" fill="#CCCCCC" points="15.6681175 314.944733 0.156225428 305.606443 0.156225428 12.5417806 15.6681175 32.0364543"></polygon>
                    <g id="Rectangle-9">
                        <use fill="#CCCCCC" fill-rule="evenodd" xlink:href="#path-2"></use>
                        <path stroke="#000000" stroke-width="2" d="M13.9689847,30.4171968 C1.65737754,20.2489868 -2.07267484,12.3100585 3.48458081,6.77750325 C8.75770909,1.52781249 22.5537359,-1 45.0474074,-1 C89.8428454,-1 117.164381,9.11023402 126.872,29.5151238 L126.968985,29.7189811 L126.968985,309.944733 C126.968985,313.258441 124.282693,315.944733 120.968985,315.944733 L19.9689847,315.944733 C16.6552762,315.944733 13.9689847,313.258441 13.9689847,309.944733 L13.9689847,30.4171968 Z"></path>
                    </g>
                    <path d="M126.197787,30 L14.9929207,30 C-9.45008173,10 0.594563817,1.3855022e-14 45.1268574,0 C89.659151,0 116.682794,10 126.197787,30 Z" id="Rectangle-9" fill="#FFFFFF"></path>
                    <g id="Rectangle-9">
                        <use fill="#000000" fill-rule="evenodd" xlink:href="#path-3"></use>
                        <path stroke="#000000" stroke-width="2" d="M51.619432,30.8876878 C43.4105971,22.0615518 46.2683181,17 59.322078,17 C71.9926508,17 81.581424,21.299048 87.9858642,29.8941656 L88.1839918,30.160064 L88.1839918,205.192035 C88.1839918,206.858186 86.4627625,211.118415 84.07774,214.337623 C80.5372499,219.116435 75.7041663,222 69.6032992,222 C63.4954999,222 58.7722724,219.110383 55.4119079,214.316307 C53.170362,211.118397 51.619432,206.906428 51.619432,205.192035 L51.619432,30.8876878 Z"></path>
                    </g>
                    <path d="" id="Path-36" stroke="#979797"></path>
                    <g id="Group-3" transform="translate(29.000000, 63.000000)">
                        <path d="M84.0391128,37.600607 L44.4334487,97.4172715 C43.5187467,98.7987512 43.8971448,100.660174 45.2786245,101.574876 C45.3051752,101.592456 45.3320041,101.609612 45.3591011,101.626337 L95.0589989,132.303414 C96.4688998,133.17367 96.9063684,135.022102 96.0361123,136.432003 C95.43013,137.413754 94.3148483,137.961021 93.1675435,137.839606 L50.6394901,133.338997 C48.9918365,133.164631 47.7975009,131.687592 47.9718668,130.039938 C48.04055,129.390924 48.3190032,128.782009 48.7649985,128.305538 L56.6524257,119.879138 C57.7846747,118.669519 57.7219538,116.77106 56.5123347,115.638811 C56.377322,115.512434 56.230913,115.398812 56.0749774,115.299395 L30.3876153,98.9224336 C28.990542,98.0317304 28.5800479,96.1771211 29.4707511,94.7800478 C29.4943815,94.7429834 29.5188237,94.7064428 29.5440599,94.6704525 L73.2934119,32.2778746 C74.0565577,31.189524 75.444904,30.7331249 76.7049669,31.1563744 L82.4929613,33.1005362 C84.0635798,33.6281 84.9091426,35.3290128 84.3815788,36.8996313 C84.2984215,37.1472003 84.1832929,37.382851 84.0391128,37.600607 Z" id="Path-37" stroke="#000000" stroke-width="2" fill="#CCCCCC"></path>
                        <g id="Path-35">
                            <use fill="#FFFFFF" fill-rule="evenodd" xlink:href="#path-4"></use>
                            <path stroke="#000000" stroke-width="2" d="M1.68344689,101.120292 C1.63874333,101.186644 1.59604057,101.254322 1.55539621,101.323236 C0.433122538,103.226075 1.0658959,105.678413 2.96873507,106.800687 L42.4038533,130.059087 C43.9648,130.979716 45.9496696,130.735906 47.2414035,129.464868 L57.2539516,119.612743 C57.5025825,119.368095 57.718145,119.091978 57.8951538,118.791416 C59.0162083,116.887858 58.3818643,114.435925 56.4783066,113.314871 L37.0686865,101.884041 C36.9883259,101.836715 36.9090797,101.787521 36.8310124,101.7365 C34.0571605,99.9236547 33.2781109,96.2054016 35.0909566,93.4315497 L73.1827965,35.1468715 C74.9314256,32.4712779 78.4705724,31.6362242 81.2307885,33.247966 L116.493917,53.8387655 C116.847589,54.0452812 117.23088,54.1962563 117.630385,54.2864114 C119.785335,54.7727117 121.926491,53.4200042 122.412791,51.2650548 L126.335613,33.8817964 C126.728599,32.1403549 125.920015,30.3493128 124.353937,29.4923098 L73.1857055,1.49158911 C71.372884,0.499561278 69.1028162,1.05172411 67.9481566,2.76555096 L1.68344689,101.120292 Z"></path>
                        </g>
                        <g id="Rectangle" transform="translate(125.927928, 45.362815) rotate(28.000000) translate(-125.927928, -45.362815) ">
                            <use fill="#CCCCCC" fill-rule="evenodd" xlink:href="#path-5"></use>
                            <path stroke="#000000" stroke-width="2" d="M117.148319,32.0069975 L136.911066,33.2575554 C139.115796,33.3970675 140.789985,35.2974506 140.650473,37.50218 C140.645865,37.5749922 140.639267,37.6476647 140.630684,37.7201159 L138.560376,55.1971605 C138.310065,57.3102286 136.449257,58.8574739 134.32599,58.7180155 L114.935246,57.4444108 C112.730857,57.2996242 111.061219,55.3952408 111.206006,53.1908516 C111.210451,53.1281891 111.210451,53.1281891 111.216207,53.0656335 L112.914512,35.6116356 C113.123358,33.4652525 114.996104,31.8708085 117.148319,32.0069975 Z"></path>
                        </g>
                        <path d="M53.1801618,114.351449 L44.4941186,127.553638 C43.5834555,128.937784 43.9672888,130.798094 45.3514342,131.708757 C45.4592123,131.779667 45.5714523,131.84355 45.6874551,131.90001 L86.4868526,151.757407 C87.8349397,152.413532 89.4604455,151.973676 90.2937177,150.727282 L98.7282616,138.111047 C99.6491111,136.733657 99.2790121,134.870566 97.9016224,133.949717 C97.7999036,133.881713 97.6941197,133.819996 97.5848635,133.764911 L57.0369654,113.32156 C55.6763726,112.635579 54.0176606,113.078508 53.1801618,114.351449 Z" id="Path-38" stroke="#000000" stroke-width="2" fill="#CCCCCC"></path>
                    </g>
                    <path d="M94,135.999445 C104.360032,133.596052 116.658804,133.665206 126.561416,136.925439 C125.401924,125.446326 124.501021,98.2431309 111.378928,99.0161362 C98.2568358,99.7891415 94.9697991,124.77883 94,135.999445 Z" id="Path-3" fill="#0000FF"></path>
                    <path d="M68.1537215,124.19985 C64.9290069,114.076902 71.6711527,104.858737 73.0422575,104.178489 C74.4133624,103.49824 69.6480358,112.433162 70.3740549,113.086968 C72.0034454,110.401009 76.3843566,103.256027 77.2063011,104.178489 C78.0282455,105.100951 71.851195,113.507291 73.6486976,114.622847 C74.9492933,112.76104 80.9628766,103.731828 81.6112287,105.472406 C82.2595807,107.212984 75.4882769,113.949209 76.1201485,118.542548 C75.9828294,120.380175 81.1620392,115.625176 80.7179223,117.426784 C80.2738054,119.228392 79.6008129,120.286824 74.569467,124.19985 C71.5594196,125.623026 70.4133055,125.170304 68.1537215,124.19985 Z" id="Path-4-Copy" fill="#0000FF" transform="translate(74.472439, 114.601109) rotate(30.000000) translate(-74.472439, -114.601109) "></path>
                    <path d="M64.5948568,118.898083 C25.8818128,151.896422 25.4930875,165.632792 32.5759344,175.893085 C43.9940582,192.433509 74.2731402,157.79422 86.6954504,173.492127 C90.4636732,177.388811 87.9585225,178.543783 87.9585225,190.19004 C94.3642483,187.963031 113.245374,173.538844 144.601901,146.917481 C140.879298,138.334586 128.637377,134.043139 107.876139,134.043139 C76.7342806,134.043139 42.2600714,172.83049 42.2600714,161.536841 C42.2600714,155.038075 49.4744312,142.761063 69.5090311,122.747273" id="Path-39" fill="#0000FF"></path>
                    <path d="M93.280659,332.409878 C93.5739796,379.890273 95.4938976,416.426121 99.0404131,442.017424 C103.528264,445.12155 104.72121,449.504004 106.246432,445.160064 C112.304114,400.580685 112.320641,344.41451 113.556056,335.194669 C114.791471,325.974828 117.205317,323.397249 119.67431,332.409878 C122.143302,341.422508 123.424846,432.601477 125.280017,438.410318 C127.135189,444.219158 131.019858,443.855675 132.357576,442.017424 C133.974611,438.804089 136.691111,395.554999 140.507075,312.270156 L93.280659,332.409878 Z" id="Path-43" fill="#0000FF"></path>
                    <path d="M98.8018131,438.644373 C88.6559327,439.417803 75.3099008,442.446182 78.4737472,445.479758 C78.4737472,445.981569 97.4624748,446.978931 104.778065,445.479758 C108.226912,444.77299 106.636714,437.275474 102.27474,437.000092 C102.049121,436.985848 99.0262067,438.627267 98.8018131,438.644373 Z" id="Path-6-Copy-4" fill="#0000FF" transform="translate(92.325879, 441.636068) rotate(10.000000) translate(-92.325879, -441.636068) "></path>
                    <path d="M125.523486,434.264523 C115.377605,435.037953 102.031573,438.066332 105.19542,441.099908 C105.19542,441.601719 124.184147,442.599081 131.499737,441.099908 C134.948584,440.39314 133.358387,432.895624 128.996412,432.620242 C128.770794,432.605998 125.747879,434.247417 125.523486,434.264523 Z" id="Path-6-Copy-5" fill="#0000FF" transform="translate(119.047551, 437.256218) rotate(20.000000) translate(-119.047551, -437.256218) "></path>
                    <path d="M88.9608936,188.358881 C92.4625867,183.115601 145.347102,120.154224 145.347102,155.275188 C145.347102,194.735737 160.651739,276.82571 145.347102,320.856196 C127.754764,326.007089 103.462263,342.276465 86.1876763,325.473163 C79.8123237,297.583166 88.9608936,230.446346 88.9608936,188.358881 Z" id="Path-40" stroke="#000000" stroke-width="2" fill="#FFFFFF"></path>
                    <path d="M133.625382,175 C136.857116,196.647323 125.981989,234.031755 101,287.153297" id="Path-41" stroke="#000000" stroke-width="2"></path>
                    <path d="M139.599025,211 C135.890477,259.071861 127.690802,295.598787 115,320.580775" id="Path-42" stroke="#000000" stroke-width="2"></path>
                    <path d="M110.716153,96.6377119 C106.676478,98.4066623 98.8783257,103.285861 97.7933949,107.315526 C95.2416059,116.793415 105.180342,118.462723 104.729036,120.805167 C103.909622,125.058223 85.1164623,133.613797 94.4468143,139.99709 C99.6957068,143.588083 105.02746,144.590284 107.812845,155.4803 C110.708969,166.803269 141.528361,172.406769 147.697463,169.421152 C159.799781,163.564078 167.52562,150.859505 162.989619,126.988909 C158.453619,103.118312 119.708544,92.6999969 110.716153,96.6377119 Z" id="Path-44" fill="#000000"></path>
                </g>
                <g id="Group-2" transform="translate(74.000000, 106.000000)">
                    <path d="M176,116 C176,166.03416 176,216.06832 176,266.10248 L176,266.10248 C176,267.238645 175.358163,268.277323 174.342017,268.785573 L169.914718,271 L169,118.488772 C169.467067,118.488772 171.8004,117.659182 176,116 Z" id="Path-46-Copy" fill="#CCCCCC"></path>
                    <path d="M47,322.51122 C47,213.795149 47,133.699952 47,82.2256301 C47,47.3735377 79.9478631,-18.145546 147.435023,6.32306774 C192.426462,22.6354769 214.203533,59.5277274 212.766236,116.999819 L212.766236,355.620181" id="Path-47" stroke="#000000" stroke-width="2" fill="#FFFFFF" stroke-linecap="round" stroke-linejoin="round"></path>
                    <path d="M43,354.97947 C43,235.696807 43,147.601614 43,90.693891 C43,52.1629667 73.9551048,-16.7358568 143.435023,6.77939156 C189.754968,22.4562238 211.532039,63.2426563 208.766236,129.138689 L208.766236,354.97947" id="Path-47" stroke="#000000" stroke-width="2" fill="#FFFFFF" stroke-linecap="round" stroke-linejoin="round"></path>
                    <path d="M191.411516,354.97947 C191.411516,225.255077 191.411516,140.241901 191.411516,99.9399428 C191.411516,59.1187636 165.47148,17.8674981 142.435023,6.77939156 C188.754968,22.4562238 210.532039,63.2426563 207.766236,129.138689 L207.766236,354.97947" id="Path-47" fill="#CCCCCC"></path>
                    <g id="Rectangle-10">
                        <use fill="#FFFFFF" fill-rule="evenodd" xlink:href="#path-6"></use>
                        <rect stroke="#000000" stroke-width="2" x="116" y="250" width="17" height="44"></rect>
                    </g>
                    <g id="Rectangle-10">
                        <use fill="#D8D8D8" fill-rule="evenodd" xlink:href="#path-7"></use>
                        <rect stroke="#000000" stroke-width="2" x="133" y="250" width="5" height="44"></rect>
                    </g>
                    <g id="Path-46-Copy">
                        <use fill="#CCCCCC" fill-rule="evenodd" xlink:href="#path-8"></use>
                        <path stroke="#000000" stroke-width="2" d="M84.843905,95.0635669 L172.887461,115.096645 C174.708145,115.510916 176,117.129733 176,118.996954 L176,268.419112 C176,270.219531 174.797156,271.79808 173.061261,272.275759 L170.287045,273.03916 L79,246.547077 L79,97.2140325 L81.9499851,95.5035119 C82.8243922,94.9964953 83.8583272,94.8393124 84.843905,95.0635669 Z"></path>
                    </g>
                    <g id="Path-46">
                        <use fill="#FFFFFF" fill-rule="evenodd" xlink:href="#path-9"></use>
                        <path stroke="#000000" stroke-width="2" d="M79,98.247164 L79,248.471394 L170,272.698929 L170,120.113989 C170,119.176913 169.349373,118.365474 168.434698,118.161801 L79,98.247164 Z"></path>
                    </g>
                    <g id="Path-46">
                        <use fill="#FFFFFF" fill-rule="evenodd" xlink:href="#path-10"></use>
                        <path stroke="#000000" stroke-width="2" d="M88.2424611,170.9369 C88.1631639,170.917082 88.0817361,170.907061 88,170.907061 C87.4477153,170.907061 87,171.354776 87,171.907061 L87,178.721097 C87,179.178081 87.3097909,179.576928 87.7525655,179.690001 L160.752566,198.332409 C160.833423,198.353059 160.916547,198.363505 161,198.363505 C161.552285,198.363505 162,197.91579 162,197.363505 L162,190.151101 C162,189.692204 161.687664,189.292204 161.242461,189.18094 L88.2424611,170.9369 Z"></path>
                    </g>
                    <path d="M88.7566515,170.925408 L136.109997,183.005813 L136.109997,191.512186 L88.2616679,179.772645 C87.4358739,179.570038 86.8284618,178.867444 86.7473521,178.021036 L86.2713822,173.054122 C86.1660161,171.954589 86.9719472,170.977826 88.0714797,170.87246 C88.3012146,170.850445 88.5330265,170.868359 88.7566515,170.925408 Z" id="Path-46" fill="#000000"></path>
                    <path d="M25,327.340656 L25,321.254856 L56.0043535,277.212148 C56.7075341,276.213256 57.9461626,275.740487 59.136076,276.016807 L199.757418,308.67177 L199.757418,352.905125 C199.757418,354.561979 198.414272,355.905125 196.757418,355.905125 L187.722739,355.905125 L178.488472,355.905125 C178.320103,355.905125 178.152032,355.890951 177.98604,355.862753 L27.4975683,330.298284 C26.0552541,330.053269 25,328.803634 25,327.340656 Z" id="Path-48" stroke="#000000" stroke-width="2" fill="#000000"></path>
                    <path d="M25.42003,319.764234 L54.2445769,265.180321 C54.9136692,263.913287 56.3853579,263.296273 57.757988,263.707303 L197.668895,305.603199 C199.256115,306.078488 200.157513,307.750481 199.682225,309.337701 C199.64001,309.478677 199.587479,309.616357 199.525058,309.749624 L177.904513,355.908512 L134.430159,355.908512 C134.139606,355.908512 133.850594,355.866303 133.572178,355.783206 L27.214875,324.039827 C25.627225,323.565977 24.7243114,321.894802 25.1981611,320.307152 C25.2542073,320.119367 25.3285186,319.937526 25.42003,319.764234 Z" id="Path-48" stroke="#000000" stroke-width="2" fill="#FFFFFF"></path>
                    <path d="M25.7741421,324.29063 L51.1317063,279.999534 C51.8188443,278.799336 53.2374073,278.224389 54.566264,278.607499 L178.8452,314.437201 C180.437212,314.896179 181.355718,316.558836 180.89674,318.150849 C180.844426,318.332305 180.775095,318.508416 180.689671,318.676838 L162.312744,354.908512 L123.285541,354.908512 C123.016499,354.908512 122.74868,354.872321 122.489288,354.800912 L27.581393,328.67359 C25.9839643,328.233832 25.045487,326.582365 25.4852453,324.984937 C25.5520411,324.7423 25.6491024,324.509032 25.7741421,324.29063 Z" id="Path-48" fill="#CCCCCC"></path>
                    <path d="M28.3110321,319.85954 L51.1317063,279.999534 C51.8188443,278.799336 53.2374073,278.224389 54.566264,278.607499 L178.967498,314.47246 C180.559511,314.931438 181.478017,316.594095 181.019039,318.186108 C180.976493,318.333682 180.922678,318.47777 180.858068,318.617103 L180.049623,320.360523 L96.7491431,297.070818 C96.0896782,296.886441 95.3869826,296.933215 94.7577729,297.20337 L32.0981238,324.10675 C30.575668,324.760427 28.8115634,324.056144 28.1578858,322.533688 C27.7860803,321.66773 27.8427963,320.67739 28.3110321,319.85954 Z" id="Path-48" fill="#000000"></path>
                    <path d="" id="Path-49" stroke="#979797"></path>
                    <path d="" id="Path-50" stroke="#979797"></path>
                    <path d="M37,235.500606 C55.099752,235.500606 78.8520208,238.690382 97.0285976,245 C96.4450742,238.908969 97.6346575,228.033816 97.0285976,220.186927 C95.4241731,199.413827 93.12693,181.118494 74.2178286,177.622101 C48.1659495,172.804969 37,214.380938 37,235.500606 Z" id="Path-3" fill="#0000FF"></path>
                    <path d="M0.543493338,251.290604 C12.8954794,236.811277 32.5189581,231.29619 59.4139294,234.745343 C99.7563864,239.919072 108.098434,246.993374 119.72165,265.511706 C130.91366,283.343032 129.32289,335.253425 139.211388,355.949793 C111.054352,355.949793 64.8317202,355.949793 0.543493338,355.949793 L0.543493338,251.290604 Z" id="Path-52" stroke="#000000" stroke-width="2" fill="#FFFFFF"></path>
                    <path d="M95.245398,354.97947 C97.9960784,323.271263 100.64953,307.41716 103.205753,307.41716 C107.040087,307.41716 111.51538,345.157812 118.834777,354.97947" id="Path-53" stroke="#000000" stroke-width="2" fill="#D8D8D8" stroke-linecap="round" stroke-linejoin="round"></path>
                </g>
            </g>
        </g>
    </g>
</svg>