<svg height="465" viewBox="0 0 455 465" width="455" xmlns="http://www.w3.org/2000/svg"><g fill="none" fill-rule="evenodd"><path d="m15 66h439v398h-439z" fill="#fff" stroke="#000" stroke-width="2"/><path d="m15 66h439v398h-439z" fill="#ffd5d5" stroke="#000" stroke-width="2"/><g transform="translate(262 2)"><ellipse cx="108.649485" cy="443.824742" fill="#000" fill-opacity=".2" rx="71.649485" ry="10.824742"/><path d="m15.6681175 314.944733-15.51189207-9.33829v-293.0646624l15.51189207 19.4946737z" fill="#ccc"/><path d="m13.9689847 30.4171968c-12.31160716-10.16821-16.04165954-18.1071383-10.48440389-23.63969355 5.27312828-5.24969076 19.06915509-7.77750325 41.56282659-7.77750325 44.795438 0 72.1169736 10.11023402 81.8245926 30.5151238l.096985.2038573v280.2257519c0 3.313708-2.686292 6-6 6h-101.0000003c-3.3137085 0-6-2.686292-6-6z" fill="#ccc" stroke="#000" stroke-width="2"/><path d="m126.197787 30h-111.2048663c-24.44300243-20-14.39835688-30 30.1339367-30 44.5322936 0 71.5559366 10 81.0709296 30z" fill="#fff"/><path d="m51.619432 30.8876878c-8.2088349-8.826136-5.3511139-13.8876878 7.702646-13.8876878 12.6705728 0 22.259346 4.299048 28.6637862 12.8941656l.1981276.2658984v175.031971c0 1.666151-1.7212293 5.92638-4.1062518 9.145588-3.5404901 4.778812-8.3735737 7.662377-14.4744408 7.662377-6.1077993 0-10.8310268-2.889617-14.1913913-7.683693-2.2415459-3.19791-3.7924759-7.409879-3.7924759-9.124272z" fill="#000" stroke="#000" stroke-width="2"/><g stroke="#000" stroke-width="2" transform="translate(29 63)"><path d="m84.0391128 37.600607-39.6056641 59.8166645c-.914702 1.3814797-.5363039 3.2429025.8451758 4.1576045.0265507.01758.0533796.034736.0804766.051461l49.6998978 30.677077c1.4099009.870256 1.8473695 2.718688.9771134 4.128589-.6059823.981751-1.721264 1.529018-2.8685688 1.407603l-42.5280534-4.500609c-1.6476536-.174366-2.8419892-1.651405-2.6676233-3.299059.0686832-.649014.3471364-1.257929.7931317-1.7344l7.8874272-8.4264c1.132249-1.209619 1.0695281-3.108078-.140091-4.240327-.1350127-.126377-.2814217-.239999-.4373573-.339416l-25.6873621-16.3769614c-1.3970733-.8907032-1.8075674-2.7453125-.9168642-4.1423858.0236304-.0370644.0480726-.073605.0733088-.1095953l43.749352-62.3925779c.7631458-1.0883506 2.1514921-1.5447497 3.411555-1.1215002l5.7879944 1.9441618c1.5706185.5275638 2.4161813 2.2284766 1.8886175 3.7990951-.0831573.247569-.1982859.4832197-.342466.7009757z" fill="#ccc"/><path d="m1.68344689 101.120292c-.04470356.066352-.08740632.13403-.12805068.202944-1.12227367 1.902839-.48950031 4.355177 1.41333886 5.477451l39.43511823 23.2584c1.5609467.920629 3.5458163.676819 4.8375502-.594219l10.0125481-9.852125c.2486309-.244648.4641934-.520765.6412022-.821327 1.1210545-1.903558.4867105-4.355491-1.4168472-5.476545l-19.4096201-11.43083c-.0803606-.047326-.1596068-.09652-.2376741-.147541-2.7738519-1.8128453-3.5529015-5.5310984-1.7400558-8.3049503l38.0918399-58.2846782c1.7486291-2.6755936 5.2877759-3.5106473 8.047992-1.8989055l35.2631285 20.5907995c.353672.2065157.736963.3574908 1.136468.4476459 2.15495.4863003 4.296106-.8664072 4.782406-3.0213566l3.922822-17.3832584c.392986-1.7414415-.415598-3.5324836-1.981676-4.3894866l-51.1682315-28.00072069c-1.8128215-.99202783-4.0828893-.439865-5.2375489 1.27396185z" fill="#fff"/><g fill="#ccc"><path d="m117.148319 32.0069975 19.762747 1.2505579c2.20473.1395121 3.878919 2.0398952 3.739407 4.2446246-.004608.0728122-.011206.1454847-.019789.2179359l-2.070308 17.4770446c-.250311 2.1130681-2.111119 3.6603134-4.234386 3.520855l-19.390744-1.2736047c-2.204389-.1447866-3.874027-2.04917-3.72924-4.2535592.004445-.0626625.004445-.0626625.010201-.1252181l1.698305-17.4539979c.208846-2.1463831 2.081592-3.7408271 4.233807-3.6046381z" transform="matrix(.88294759 .46947156 -.46947156 .88294759 36.036719 -53.809754)"/><path d="m53.1801618 114.351449-8.6860432 13.202189c-.9106631 1.384146-.5268298 3.244456.8573156 4.155119.1077781.07091.2200181.134793.3360209.191253l40.7993975 19.857397c1.3480871.656125 2.9735929.216269 3.8068651-1.030125l8.4345439-12.616235c.9208495-1.37739.5507505-3.240481-.8266392-4.16133-.1017188-.068004-.2075027-.129721-.3167589-.184806l-40.5478981-20.443351c-1.3605928-.685981-3.0193048-.243052-3.8568036 1.029889z"/></g></g><g fill="#00f"><path d="m94 135.999445c10.360032-2.403393 22.658804-2.334239 32.561416.925994-1.159492-11.479113-2.060395-38.6823081-15.182488-37.9093028-13.1220922.7730053-16.4091289 25.7626938-17.378928 36.9833088z"/><path d="m68.1537215 124.19985c-3.2247146-10.122948 3.5174312-19.341113 4.888536-20.021361 1.3711049-.680249-3.3942217 8.254673-2.6682026 8.908479 1.6293905-2.685959 6.0103017-9.830941 6.8322462-8.908479.8219444.922462-5.3551061 9.328802-3.5576035 10.444358 1.3005957-1.861807 7.314179-10.891019 7.9625311-9.150441.648352 1.740578-6.1229518 8.476803-5.4910802 13.070142-.1373191 1.837627 5.0418907-2.917372 4.5977738-1.115764s-1.1171094 2.86004-6.1484553 6.773066c-3.0100474 1.423176-4.1561615.970454-6.4157455 0z" transform="matrix(.8660254 .5 -.5 .8660254 67.277969 -21.882582)"/><path d="m64.5948568 118.898083c-38.713044 32.998339-39.1017693 46.734709-32.0189224 56.995002 11.4181238 16.540424 41.6972058-18.098865 54.119516-2.400958 3.7682228 3.896684 1.2630721 5.051656 1.2630721 16.697913 6.4057258-2.227009 25.2868515-16.651196 56.6433785-43.272559-3.722603-8.582895-15.964524-12.874342-36.725762-12.874342-31.1418584 0-65.6160676 38.787351-65.6160676 27.493702 0-6.498766 7.2143598-18.775778 27.2489597-38.789568"/><path d="m93.280659 332.409878c.2933206 47.480395 2.2132386 84.016243 5.7597541 109.607546 4.4878509 3.104126 5.6807969 7.48658 7.2060189 3.14264 6.057682-44.579379 6.074209-100.745554 7.309624-109.965395s3.649261-11.79742 6.118254-2.784791c2.468992 9.01263 3.750536 100.191599 5.605707 106.00044 1.855172 5.80884 5.739841 5.445357 7.077559 3.607106 1.617035-3.213335 4.333535-46.462425 8.149499-129.747268z"/><path d="m98.8018131 438.644373c-10.1458804.77343-23.4919123 3.801809-20.3280659 6.835385 0 .501811 18.9887276 1.499173 26.3043178 0 3.448847-.706768 1.858649-8.204284-2.503325-8.479666-.225619-.014244-3.2485333 1.627175-3.4729269 1.644281z" transform="matrix(.98480775 .17364818 -.17364818 .98480775 78.091936 -9.322776)"/><path d="m125.523486 434.264523c-10.145881.77343-23.491913 3.801809-20.328066 6.835385 0 .501811 18.988727 1.499173 26.304317 0 3.448847-.706768 1.85865-8.204284-2.503325-8.479666-.225618-.014244-3.248533 1.627175-3.472926 1.644281z" transform="matrix(.93969262 .34202014 -.34202014 .93969262 156.72988 -14.346884)"/></g><path d="m88.9608936 188.358881c3.5016931-5.24328 56.3862084-68.204657 56.3862084-33.083693 0 39.460549 15.304637 121.550522 0 165.581008-17.592338 5.150893-41.884839 21.420269-59.1594257 4.616967-6.3753526-27.889997 2.7732173-95.026817 2.7732173-137.114282z" fill="#fff" stroke="#000" stroke-width="2"/><path d="m133.625382 175c3.231734 21.647323-7.643393 59.031755-32.625382 112.153297" stroke="#000" stroke-width="2"/><path d="m139.599025 211c-3.708548 48.071861-11.908223 84.598787-24.599025 109.580775" stroke="#000" stroke-width="2"/><path d="m110.716153 96.6377119c-4.039675 1.7689504-11.8378273 6.6481491-12.9227581 10.6778141-2.551789 9.477889 7.3869471 11.147197 6.9356411 13.489641-.819414 4.253056-19.6125737 12.80863-10.2822217 19.191923 5.2488925 3.590993 10.5806457 4.593194 13.3660307 15.48321 2.896124 11.322969 33.715516 16.926469 39.884618 13.940852 12.102318-5.857074 19.828157-18.561647 15.292156-42.432243-4.536-23.870597-43.281075-34.2889121-52.273466-30.3511971z" fill="#000"/></g><g transform="translate(1 108)"><path d="m176 116v150.10248c0 1.136165-.641837 2.174843-1.657983 2.683093l-4.427299 2.214427-.914718-152.511228c.467067 0 2.8004-.82959 7-2.488772z" fill="#ccc"/><path d="m47 322.51122c0-108.716071 0-188.811268 0-240.2855899 0-34.8520924 32.9478631-100.3711761 100.435023-75.90256236 44.991439 16.31240916 66.76851 53.20465966 65.331213 110.67675126v238.620362" fill="#fff" stroke="#000" stroke-linecap="round" stroke-linejoin="round" stroke-width="2"/><path d="m43 354.97947c0-119.282663 0-207.377856 0-264.285579 0-38.5309243 30.9551048-107.4297478 100.435023-83.91449944 46.319945 15.67683224 68.097016 56.46326474 65.331213 122.35929744v225.840781" fill="#fff" stroke="#000" stroke-linecap="round" stroke-linejoin="round" stroke-width="2"/><path d="m191.411516 354.97947c0-129.724393 0-214.737569 0-255.0395272 0-40.8211792-25.940036-82.0724447-48.976493-93.16055124 46.319945 15.67683224 68.097016 56.46326474 65.331213 122.35929744v225.840781" fill="#ccc"/><g stroke="#000" stroke-width="2"><path d="m116 250h17v44h-17z" fill="#fff"/><path d="m133 250h5v44h-5z" fill="#d8d8d8"/><path d="m84.843905 95.0635669 88.043556 20.0330781c1.820684.414271 3.112539 2.033088 3.112539 3.900309v149.422158c0 1.800419-1.202844 3.378968-2.938739 3.856647l-2.774216.763401-91.287045-26.492083v-149.3330445l2.9499851-1.7105206c.8744071-.5070166 1.9083421-.6641995 2.8939199-.439945z" fill="#ccc"/><path d="m79 98.247164v150.22423l91 24.227535v-152.58494c0-.937076-.650627-1.748515-1.565302-1.952188z" fill="#fff"/><path d="m88.2424611 170.9369c-.0792972-.019818-.160725-.029839-.2424611-.029839-.5522847 0-1 .447715-1 1v6.814036c0 .456984.3097909.855831.7525655.968904l73.0000005 18.642408c.080857.02065.163981.031096.247434.031096.552285 0 1-.447715 1-1v-7.212404c0-.458897-.312336-.858897-.757539-.970161z" fill="#fff"/></g><path d="m88.7566515 170.925408 47.3533455 12.080405v8.506373l-47.8483291-11.739541c-.825794-.202607-1.4332061-.905201-1.5143158-1.751609l-.4759699-4.966914c-.1053661-1.099533.700565-2.076296 1.8000975-2.181662.2297349-.022015.4615468-.004101.6851718.052948z" fill="#000"/><path d="m25 327.340656v-6.0858l31.0043535-44.042708c.7031806-.998892 1.9418091-1.471661 3.1317225-1.195341l140.621342 32.654963v44.233355c0 1.656854-1.343146 3-3 3h-9.034679-9.234267c-.168369 0-.33644-.014174-.502432-.042372l-150.4884717-25.564469c-1.4423142-.245015-2.4975683-1.49465-2.4975683-2.957628z" fill="#000" stroke="#000" stroke-width="2"/><path d="m25.42003 319.764234 28.8245469-54.583913c.6690923-1.267034 2.140781-1.884048 3.5134111-1.473018l139.910907 41.895896c1.58722.475289 2.488618 2.147282 2.01333 3.734502-.042215.140976-.094746.278656-.157167.411923l-21.620545 46.158888h-43.474354c-.290553 0-.579565-.042209-.857981-.125306l-106.357303-31.743379c-1.58765-.47385-2.4905636-2.145025-2.0167139-3.732675.0560462-.187785.1303575-.369626.2218689-.542918z" fill="#fff" stroke="#000" stroke-width="2"/><path d="m25.7741421 324.29063 25.3575642-44.291096c.687138-1.200198 2.105701-1.775145 3.4345577-1.392035l124.278936 35.829702c1.592012.458978 2.510518 2.121635 2.05154 3.713648-.052314.181456-.121645.357567-.207069.525989l-18.376927 36.231674h-39.027203c-.269042 0-.536861-.036191-.796253-.1076l-94.907895-26.127322c-1.5974287-.439758-2.535906-2.091225-2.0961477-3.688653.0667958-.242637.1638571-.475905.2888968-.694307z" fill="#ccc"/><path d="m28.3110321 319.85954 22.8206742-39.860006c.687138-1.200198 2.105701-1.775145 3.4345577-1.392035l124.401234 35.864961c1.592013.458978 2.510519 2.121635 2.051541 3.713648-.042546.147574-.096361.291662-.160971.430995l-.808445 1.74342-83.3004799-23.289705c-.6594649-.184377-1.3621605-.137603-1.9913702.132552l-62.6596491 26.90338c-1.5224558.653677-3.2865604-.050606-3.940238-1.573062-.3718055-.865958-.3150895-1.856298.1531463-2.674148z" fill="#000"/><path d="m37 235.500606c18.099752 0 41.8520208 3.189776 60.0285976 9.499394-.5835234-6.091031.6060599-16.966184 0-24.813073-1.6044245-20.7731-3.9016676-39.068433-22.810769-42.564826-26.0518791-4.817132-37.2178286 36.758837-37.2178286 57.878505z" fill="#00f"/><path d="m.54349334 251.290604c12.35198606-14.479327 31.97546476-19.994414 58.87043606-16.545261 40.342457 5.173729 48.6845046 12.248031 60.3077206 30.766363 11.19201 17.831326 9.60124 69.741719 19.489738 90.438087-28.157036 0-74.3796678 0-138.66789466 0z" fill="#fff" stroke="#000" stroke-width="2"/><path d="m95.245398 354.97947c2.7506804-31.708207 5.404132-47.56231 7.960355-47.56231 3.834334 0 8.309627 37.740652 15.629024 47.56231" fill="#d8d8d8" stroke="#000" stroke-linecap="round" stroke-linejoin="round" stroke-width="2"/></g></g></svg>