<?xml version="1.0" encoding="UTF-8"?>
<svg width="352px" height="163px" viewBox="0 0 352 163" version="1.1" xmlns="http://www.w3.org/2000/svg" xmlns:xlink="http://www.w3.org/1999/xlink">
    <!-- Generator: Sketch 49.3 (51167) - http://www.bohemiancoding.com/sketch -->
    <title>ai</title>
    <desc>Created with Sketch.</desc>
    <defs>
        <path d="M0,15 L121,15 L121,20 C121,21.1045695 120.104569,22 119,22 L0,22 L0,15 Z" id="path-1"></path>
        <path d="M178.736187,29.5057882 L255.371756,25.2901514 C258.129011,25.1384779 260.487164,27.2507192 260.638837,30.0079744 C260.643868,30.0994311 260.646385,30.1910087 260.646385,30.2826036 L260.646385,102.535277 C260.646385,105.296701 258.407809,107.535277 255.646385,107.535277 C255.578899,107.535277 255.511421,107.53391 255.44399,107.531179 L175.569041,104.295279 C172.809881,104.1835 170.663755,101.856143 170.775534,99.0969825 C170.776172,99.081232 170.776884,99.0654846 170.777672,99.0497408 L174.017052,34.2486043 C174.144803,31.6930493 176.181304,29.6463295 178.736187,29.5057882 Z" id="path-2"></path>
    </defs>
    <g id="Page-1" stroke="none" stroke-width="1" fill="none" fill-rule="evenodd">
        <g id="illustrations" transform="translate(-102.000000, -573.000000)">
            <g id="ai" transform="translate(102.000000, 567.000000)">
                <ellipse id="Oval-2" fill="#000000" opacity="0.204483696" cx="176" cy="146" rx="176" ry="22"></ellipse>
                <g id="Group-15" transform="translate(205.379028, 129.154387) rotate(3.000000) translate(-205.379028, -129.154387) translate(134.879028, 118.154387)">
                    <polyline id="Path-30" stroke="#000000" stroke-width="2" fill="#FFFFFF" points="0.587936104 15.7358938 20.7693313 2.46581735 140.491889 0.790534799 119.393175 16.1011975"></polyline>
                    <g id="Rectangle-5">
                        <use fill="#CCCCCC" fill-rule="evenodd" xlink:href="#path-1"></use>
                        <path stroke="#000000" stroke-width="2" d="M1,16 L1,21 L119,21 C119.552285,21 120,20.5522847 120,20 L120,16 L1,16 Z"></path>
                    </g>
                    <path d="M120.423786,15.7467413 L139.717815,1.53689459 L139.717815,7.56278922 C139.717815,9.4412859 138.664918,11.161279 136.99197,12.0156778 L120.665241,20.3539784 L120.423786,15.7467413 Z" id="Path-29" stroke="#000000" stroke-width="2" fill="#000000"></path>
                </g>
                <rect id="Rectangle-6" fill="#000000" x="275" y="121" width="29" height="18"></rect>
                <path d="M277.505985,130.125463 L311,130.125463 C313.761424,130.125463 316,132.364039 316,135.125463 L316,142.614457 L253.450915,142.667509 L277.505985,130.125463 Z" id="Rectangle-7" fill="#000000"></path>
                <path d="M308,18 L330,18 C332.761424,18 335,20.2385763 335,23 L335,110.870969 C335,113.632393 332.761424,115.870969 330,115.870969 L308,115.870969 L308,18 Z" id="Rectangle-3-Copy" stroke="#000000" stroke-width="2" fill="#CCCCCC"></path>
                <path d="M293,19.0039163 L329.142073,19.0039163 C331.316648,19.0039163 334.398965,19.5631467 333.990151,24.7066031 C325.215052,24.7066031 311.551668,24.7066031 293,24.7066031" id="Rectangle-3-Copy-2" fill="#FFFFFF"></path>
                <path d="M271,10.2999878 L315.488095,10.2999878 C318.808379,10.2999878 321.5,12.528587 321.5,15.2777034 L321.5,108.366841 C321.5,116.61419 313.425136,123.299988 303.464286,123.299988 L271,123.299988" id="Rectangle-3" stroke="#000000" stroke-width="2" fill="#CCCCCC"></path>
                <path d="M274.008721,11 L314.515086,11 C318.201857,11 320.508721,11.6887164 320.508721,16.7158035 C310.673995,16.7158035 295.173995,16.7158035 274.008721,16.7158035" id="Rectangle-3" fill="#FFFFFF"></path>
                <path d="M321.5,110 C318.883645,115.397874 313.447923,121.052747 303.827587,122.018118 L275,122.018118 L275,110 L321.5,110 Z" id="Rectangle-3" stroke="#000000" stroke-width="2" fill="#000000"></path>
                <path d="M333.092792,108 C333.092792,114.009059 333.219055,114.786733 330.143564,114.786733 L321.5,114.786733 L321.5,108 L333.092792,108 Z" id="Rectangle-3-Copy-3" stroke="#000000" stroke-width="2" fill="#000000"></path>
                <rect id="Rectangle-4" stroke="#FFFFFF" stroke-width="2" stroke-linecap="round" stroke-linejoin="round" x="282" y="86" width="27" height="1"></rect>
                <rect id="Rectangle-4-Copy-4" stroke="#000000" stroke-width="2" stroke-linecap="round" stroke-linejoin="round" x="288" y="86" width="27" height="1"></rect>
                <rect id="Rectangle-4-Copy-3" stroke="#FFFFFF" stroke-width="2" stroke-linecap="round" stroke-linejoin="round" x="282" y="80" width="27" height="1"></rect>
                <rect id="Rectangle-4-Copy-5" stroke="#000000" stroke-width="2" stroke-linecap="round" stroke-linejoin="round" x="288" y="80" width="27" height="1"></rect>
                <rect id="Rectangle-4-Copy" stroke="#FFFFFF" stroke-width="2" stroke-linecap="round" stroke-linejoin="round" x="282" y="93" width="27" height="1"></rect>
                <rect id="Rectangle-4-Copy-6" stroke="#000000" stroke-width="2" stroke-linecap="round" stroke-linejoin="round" x="288" y="93" width="27" height="1"></rect>
                <rect id="Rectangle-4-Copy-2" stroke="#FFFFFF" stroke-width="2" stroke-linecap="round" stroke-linejoin="round" x="282" y="100" width="27" height="1"></rect>
                <rect id="Rectangle-4-Copy-7" stroke="#000000" stroke-width="2" stroke-linecap="round" stroke-linejoin="round" x="288" y="100" width="27" height="1"></rect>
                <path d="M162.175002,14.5775242 L269.799517,10.2586771 C272.55872,10.1479535 274.885255,12.2949703 274.995979,15.0541733 C274.998659,15.1209674 275,15.1878084 275,15.2546562 L275,118.303087 C275,121.06451 272.761424,123.303087 270,123.303087 C269.917829,123.303087 269.83567,123.301061 269.753599,123.297012 L159.996419,117.881574 C157.289794,117.748028 155.182208,115.482616 155.244126,112.773405 L157.37679,19.4592597 C157.437094,16.8206719 159.537847,14.6833501 162.175002,14.5775242 Z" id="Rectangle-2-Copy" stroke="#000000" stroke-width="2" fill="#FFFFFF"></path>
                <g id="Rectangle-2">
                    <use fill="#FFFFFF" fill-rule="evenodd" xlink:href="#path-2"></use>
                    <path stroke="#000000" stroke-width="2" d="M178.791113,30.5042787 C176.747207,30.6167117 175.118006,32.2540875 175.015805,34.2985315 L171.776424,99.099668 C171.77551,99.118562 171.77551,99.118562 171.774714,99.1374614 C171.685291,101.34479 173.402192,103.206675 175.60952,103.296098 L255.484469,106.531998 C255.538414,106.534184 255.592396,106.535277 255.646385,106.535277 C257.855524,106.535277 259.646385,104.744416 259.646385,102.535277 L259.646385,30.2826036 C259.646385,30.2093277 259.644371,30.1360656 259.640347,30.0629003 C259.519008,27.8570961 257.632486,26.1673031 255.426681,26.2886419 L178.791113,30.5042787 Z"></path>
                </g>
                <path d="M176.673583,27.6806424 L180.167153,27.6806424 L178.018722,104.207618 L175.043479,104.207618 C172.282055,104.207618 170.043479,101.969042 170.043479,99.2076179 C170.043479,99.1667873 170.043979,99.1259583 170.044979,99.0851401 L171.675084,32.5581647 C171.741557,29.8452701 173.959874,27.6806424 176.673583,27.6806424 Z" id="Rectangle-2" fill="#000000"></path>
                <path d="M176.676688,27.552452 L255.492035,25.1182604 C258.252142,25.0330152 260.558757,27.2014196 260.644002,29.9615273 C260.64559,30.012962 260.646385,30.0644182 260.646385,30.1158774 L260.646385,31.2980901 L171.831038,34 L171.831038,32.550069 C171.831038,29.8487414 173.976647,27.635842 176.676688,27.552452 Z" id="Rectangle-2" fill="#000000"></path>
                <ellipse id="Oval-5" stroke="#000000" stroke-width="2" fill="#FFFFFF" cx="155.5" cy="70.5" rx="6.5" ry="11.5"></ellipse>
                <path d="M80.2762391,116.885739 C102.833772,121.499396 144.656378,125.334578 163.559031,116.885739 C160.851042,90.374075 151.458496,35.2600688 120.81191,37.0453684 C90.1653235,38.830668 82.5412003,90.9710933 80.2762391,116.885739 Z" id="Path-3" fill="#0000FF"></path>
                <path d="M44.8997445,160.15293 C10.1091585,153.904761 36.3619419,110 118.854075,110 C201.346208,110 255.780928,163.997118 231.078898,166.401099 C206.376869,168.80508 79.6903305,166.401099 44.8997445,160.15293 Z" id="Path-31" stroke="#000000" stroke-width="2" fill="#FFFFFF" stroke-linecap="round" stroke-linejoin="round"></path>
                <path d="M162.167775,69.8349801 C143.198455,69.8349801 129.870044,69.8349801 122.182545,69.8349801 C110.651295,69.8349801 110.471142,85.8912863 122.182545,85.8912863" id="Path-32" stroke="#000000" stroke-width="2"></path>
                <path d="M85.2295373,11 C71.1377061,18.7655808 66.1120385,23.0185429 70.1525347,23.7588863 C76.213279,24.8694015 94.339143,11.3894471 96.2007915,15.296755 C98.06244,19.2040629 75.971901,26.5140841 75.971901,29.7773536 C75.971901,33.0406231 88.6986898,24.8186307 94.1742764,24.8186307 C99.6498631,24.8186307 84.332065,31.3504078 85.2295373,34.6998567 C85.8278522,36.9328226 88.8094319,37.49705 94.1742764,36.3925387" id="Path-33" stroke="#000000" stroke-width="2" stroke-linecap="round" stroke-linejoin="round"></path>
                <path d="M85.7755364,8.19601118 C69.2245239,17.6367899 62.9692657,22.7273509 67.0097619,23.4676943 C73.0705062,24.5782095 93.7499165,8.65061025 95.611565,12.5579182 C97.4732136,16.4652261 70.6985338,27.5043445 70.6985338,30.7676139 C70.6985338,34.0308834 91.2712039,20.9548975 96.7467905,20.9548975 C102.222377,20.9548975 81.1217614,30.5452945 82.0192336,33.8947434" id="Path-33-Copy" stroke="#000000" stroke-width="2" stroke-linecap="round" stroke-linejoin="round" transform="translate(81.737924, 21.045377) scale(-1, 1) rotate(60.000000) translate(-81.737924, -21.045377) "></path>
                <path d="M215.164,78 L211.272,78 L209.9,73.044 L204.104,73.044 L202.76,78 L199.064,78 L204.552,58.456 L209.648,58.456 L215.164,78 Z M209.284,70.048 L207.128,62.068 L206.904,62.068 L204.748,70.048 L209.284,70.048 Z M230.116,78 L217.684,78 L217.684,75.256 L222.08,75.256 L222.08,61.2 L217.684,61.2 L217.684,58.456 L230.116,58.456 L230.116,61.2 L225.72,61.2 L225.72,75.256 L230.116,75.256 L230.116,78 Z" id="AI" fill="#000000"></path>
            </g>
        </g>
    </g>
</svg>