<svg height="386" viewBox="0 0 340 386" width="340" xmlns="http://www.w3.org/2000/svg" xmlns:xlink="http://www.w3.org/1999/xlink"><defs><path id="a" d="m0 0h340v317h-340z"/><mask id="b" fill="#fff"><use fill="#fff" fill-rule="evenodd" xlink:href="#a"/></mask></defs><g fill="none" fill-rule="evenodd"><g transform="translate(0 69)"><use fill="#ffd5d5" xlink:href="#a"/><path d="m122.278872 38.906523c3.694984 12.2542499 5.542476 21.6791754 5.542476 28.2747766-21.499277 16.9608216-37.5186378 37.3822994-50.2356154 45.8541384-12.7169775 8.471839-.7859179 80.839468 6.8352001 96.33727 7.6211181 15.497802 41.0561993 4.067687 43.4004153-11.683356 15.289298 39.768586-28.735345 52.257549-36.2930945 168.014546 0 11.475017 10.1106005 11.475017 17.3994095 17.373749 30.409656-23.749338 104.880565-42.495322 168.763073-67.515759-2.807411-11.235185-4.332185-46.888155-13.295034-70.575989 0-27.515361 2.288778-70.547799 0-85.543102-2.288779-14.995304 7.607243-84.4187394-8.191832-102.3790312-4.968405-1.8457187-16.084249.2511182-33.347533 6.2905106l-40.347777-8.8349565-9.772146-25.5193199z" fill="#eee" mask="url(#b)"/><g fill="#00f"><path d="m199 343.779023c13.138305-39.572546 20.892621-60.993512 23.262949-64.262897 3.575546-4.931738-1.671624 27.025749 1.456728 30.138728 3.128352 3.112978 17.957014-12.510898 10.7356-3.561544-9.314364 12.369761-13.578383 22.354196-12.792059 29.953307-7.654347 2.612785-15.237899 5.184239-22.663218 7.732406z" mask="url(#b)"/><path d="m264.789841 83c2.878564 27.61405-1.627093 65.626201-.00384 76.261205 2.288779 14.995303 0 58.027741 0 85.543102 8.86008 23.416224 10.549963 58.919414 13.29724 70.574583l-15.861755 6.019123c-1.76555-16.607676-6.425273-27.287867-13.979168-32.04057s10.955175-20.221875 6.380361-27.950051c-4.574815-7.728175-11.091076-4.9535-11.091076-22.294263s-2.78219 2.39264-12.539124 8.589449c-9.756935 6.196809-4.649023-8.589449-9.682369-21.732953s14.445893-21.503561 9.742766-48.12356c-19.386678 5.417645-43.546644 2.178496-47.052876-11.001491 6.487596 3.314208 27.517916.865137 34.910917-4.216616 7.393002-5.081753 23.14618-29.602783 24.620686-61.292932 5.800524-4.7558871 12.886603-10.8675625 21.258238-18.335026z" mask="url(#b)"/></g></g><path d="m1 70h338v315h-338z" stroke="#000" stroke-width="2"/><path d="m111.955092 96.3282008c-6.757053 1.0533597-11.679955.380523-14.7687058-2.0185099-9.7533629-7.5754376-18.6286602-26.8459435-16.7991534-39.9897954 3.7270463-26.7764745 6.6623753-28.0252964 16.7991534-34.9238817 6.8644108-4.6715757 14.6583318-4.4797687 16.9999238-5.4331735 1.798051-.7320964 9.115777-6.94094958 24.145884-6.94094958 17.83645 0 29.998905 8.92410608 35.098557 18.28938928 4.143907 7.6101009 5.447568 18.5765164 3.910982 32.8992466z" fill="#00f"/><path d="m112.202436 102.326151c-3.25435-.820395-5.317639-2.6752264-6.189868-5.5644939 1.002322 0 5.57853-.0455434 6.189868-.7457812s-.611338-18.0723785 3.131766-24.4997771c9.801621-16.8306653 22.165571-8.7138981 31.627037-25.5160988 7.930854 3.8777858 18.111218 7.7446761 30.541093 11.6006708-2.087031 41.8388492-8.301968 65.3175022-18.644812 70.4359572-5.513436 2.728484-21.065131-5.841676-46.655084-25.710477z" fill="#eee"/><g fill="#00f"><path d="m86.2212247 282.046615c1.4931775 4.096786 12.3259009 5.83007 24.7641243 1.268535 12.438224-4.561536 19.289662-12.836014 17.814421-16.883588s-11.426609-8.066138-24.71037-3.194515c-13.2837613 4.871623-19.3613529 14.712783-17.8681753 18.809568z"/><path d="m249.079534 177.28007c13.783122 4.158529 16.538514-10.952627 16.538514-26.097272s-4.481697-23.759366-9.74736-25.822323c-5.265662-2.062958-18.79586 5.008978-18.79586 14.054395s-1.778417 33.706671 12.004706 37.8652z"/><path d="m103 206v11.875491l9.541893 12.358987c8.344952 26.847203 17.541165 40.270804 27.588641 40.270804 22.051885 0 34.633991-18.526709 34.633991-31.036882-17.594479 18.60999-35.882263 22.897871-45.066035 18.412748-6.122514-2.990083-10.364103-8.808344-12.724765-17.454784"/><path d="m182.024005 279.626085c-2.355233-4.132391-2.995324 13.450825-6.018282 15.946083s-14.707149 4.478117-16.039061 5.705434c-5.179678 2.949689 12.019589.55738 14.642323 4.315726 2.622734 3.758345-4.168196 24.248721-4.168196 26.21248 0 1.96376 1.814616 4.487275 5.564934 5.139807s6.719268.326483 7.790304-1.979306c1.071035-2.30579-2.609377-6.85933-7.790304-5.12426 0-6.778708 14.463937-22.486944 6.018282-50.215964z"/><path d="m161.382566 211.30721c7.185863 0 12.409941-2.289567 15.672235-6.868701-2.289116 6.868701-2.289116 15.373558 0 26.528177-2.423943-6.316652-7.648021-12.869811-15.672235-19.659476z"/><path d="m196.398378 148.411368c-20.538367-3.021999-25.283194-1.014845-29.26049-4.036844-3.977296-3.022-7.03027-17.38904-9.885314-26.650063-4.728974 1.741013-11.230037.686075-19.503189-3.164815 19.173923.392286 27.809202-2.416764 25.90584-8.427149 1.566296-2.433771-13.496112.675462-13.496112-2.078739 0-2.907989 7.093461-.82925 7.093461-8.4390382s-7.802607-13.1415959-7.093461-25.4694235c7.22322-6.0653271 6.26538-14.0611-2.873521-23.9873188 8.19466 3.0471494 18.140626 7.1142685 30.253101 11.2998902-.830377 16.6466116-2.350578 30.5295314-4.487884 41.3631533l9.457751 24.698299 40.347777 8.834956c.319526-.111783.636947-.222216.952262-.331298-11.110126 4.456414-20.246866 9.919211-27.410221 16.38839z"/></g><path d="m47 221h243v50h-243z" fill="#000" stroke="#000" stroke-width="2"/><path d="m67.396 251h-1.904l-.848-2.976h-3.552l-.848 2.976h-1.824l3.264-11.168h2.448zm-3.088-4.464-1.376-4.896h-.128l-1.376 4.896zm4.608 4.464v-1.408h2.192v-5.44h-2.192v-1.408h3.936v2.192h.096c.32-1.152 1.04-2.192 2.72-2.192h.992v1.664h-1.632c-1.424 0-2.176.944-2.176 2.096v3.088h2.992v1.408zm16.832 0h-3.152c-1.44 0-2.112-.864-2.112-2.096v-4.752h-2.544v-1.408h1.808c.608 0 .848-.208.848-.848v-2.064h1.632v2.912h3.52v1.408h-3.52v5.44h3.52zm6.464-9.76c-.88 0-1.2-.416-1.2-.944v-.336c0-.528.32-.944 1.184-.944.88 0 1.2.416 1.2.944v.336c0 .528-.32.944-1.184.944zm-3.696 9.76v-1.408h2.816v-5.44h-2.816v-1.408h4.56v6.848h2.64v1.408zm9.232 0v-1.408h2.64v-5.44h-2.8v-1.408h2.8v-1.488c0-1.232.672-2.096 2.112-2.096h2.784v1.408h-3.152v2.176h3.152v1.408h-3.152v5.44h2.784v1.408zm13.664-9.76c-.88 0-1.2-.416-1.2-.944v-.336c0-.528.32-.944 1.184-.944.88 0 1.2.416 1.2.944v.336c0 .528-.32.944-1.184.944zm-3.696 9.76v-1.408h2.816v-5.44h-2.816v-1.408h4.56v6.848h2.64v1.408zm13.088.192c-2.464 0-3.92-1.68-3.92-4.32s1.472-4.32 3.904-4.32c1.696 0 2.704.8 3.216 1.952l-1.36.736c-.288-.768-.896-1.248-1.856-1.248-1.312 0-2.08.88-2.08 2.192v1.376c0 1.296.752 2.192 2.112 2.192 1.024 0 1.648-.512 2.032-1.312l1.28.784c-.528 1.152-1.6 1.968-3.328 1.968zm9.808-9.952c-.88 0-1.2-.416-1.2-.944v-.336c0-.528.32-.944 1.184-.944.88 0 1.2.416 1.2.944v.336c0 .528-.32.944-1.184.944zm-3.696 9.76v-1.408h2.816v-5.44h-2.816v-1.408h4.56v6.848h2.64v1.408zm16.928 0h-1.072c-.992 0-1.488-.56-1.584-1.392h-.08c-.32.992-1.184 1.584-2.48 1.584-1.68 0-2.768-.944-2.768-2.496 0-1.6 1.168-2.464 3.616-2.464h1.584v-.64c0-1.104-.592-1.68-1.776-1.68-1.056 0-1.68.448-2.128 1.136l-1.04-.848c.464-.896 1.584-1.648 3.328-1.648 2.08 0 3.36 1.04 3.36 2.928v4.144h1.04zm-4.72-1.088c1.12 0 1.936-.56 1.936-1.376v-1.2h-1.552c-1.28 0-1.888.4-1.888 1.136v.32c0 .736.576 1.12 1.504 1.12zm6.576 1.088v-1.408h2.736v-9.024h-2.736v-1.408h4.48v10.432h2.736v1.408zm26.32 0h-7.04v-1.36h2.624v-8.448h-2.624v-1.36h7.04v1.36h-2.624v8.448h2.624zm4.368 0h-1.744v-8.256h1.744v1.408h.08c.352-.864 1.024-1.6 2.384-1.6 1.664 0 2.784 1.136 2.784 3.136v5.312h-1.744v-5.056c0-1.312-.592-1.968-1.712-1.968-.896 0-1.792.464-1.792 1.424zm14.96 0h-3.152c-1.44 0-2.112-.864-2.112-2.096v-4.752h-2.544v-1.408h1.808c.608 0 .848-.208.848-.848v-2.064h1.632v2.912h3.52v1.408h-3.52v5.44h3.52zm6.128.192c-2.528 0-4.016-1.68-4.016-4.304 0-2.656 1.536-4.336 3.888-4.336 2.32 0 3.792 1.664 3.792 4.096v.656h-5.92v.272c0 1.296.864 2.208 2.288 2.208 1.056 0 1.824-.496 2.288-1.264l1.088.96c-.56.96-1.712 1.712-3.408 1.712zm-.128-7.312c-1.248 0-2.128.912-2.128 2.192v.112h4.144v-.16c0-1.296-.8-2.144-2.016-2.144zm5.952 7.12v-1.408h2.736v-9.024h-2.736v-1.408h4.48v10.432h2.736v1.408zm9.6 0v-1.408h2.736v-9.024h-2.736v-1.408h4.48v10.432h2.736v1.408zm13.712-9.76c-.88 0-1.2-.416-1.2-.944v-.336c0-.528.32-.944 1.184-.944.88 0 1.2.416 1.2.944v.336c0 .528-.32.944-1.184.944zm-3.696 9.76v-1.408h2.816v-5.44h-2.816v-1.408h4.56v6.848h2.64v1.408zm17.104.896c0 1.696-1.424 2.496-4.336 2.496-2.848 0-3.84-.752-3.84-1.984 0-.896.528-1.36 1.44-1.6v-.16c-.56-.208-.912-.576-.912-1.2 0-.816.624-1.184 1.488-1.392v-.08c-.992-.464-1.584-1.344-1.584-2.528 0-1.76 1.328-2.896 3.36-2.896.576 0 1.104.096 1.552.272v-.272c0-.64.368-1.12 1.104-1.12h1.504v1.376h-1.92v.384c.72.496 1.12 1.264 1.12 2.256 0 1.76-1.328 2.88-3.36 2.88-.368 0-.704-.032-1.024-.096-.384.096-.864.352-.864.8 0 .512.56.576 1.28.576h1.856c2.224 0 3.136.928 3.136 2.288zm-1.632.112c0-.56-.384-.912-1.552-.912h-2.864c-.4.192-.608.496-.608.928 0 .624.48 1.136 1.696 1.136h1.296c1.312 0 2.032-.4 2.032-1.152zm-2.752-4.88c1.12 0 1.648-.592 1.648-1.472v-.432c0-.88-.528-1.472-1.648-1.472s-1.648.592-1.648 1.472v.432c0 .88.528 1.472 1.648 1.472zm9.84 4.064c-2.528 0-4.016-1.68-4.016-4.304 0-2.656 1.536-4.336 3.888-4.336 2.32 0 3.792 1.664 3.792 4.096v.656h-5.92v.272c0 1.296.864 2.208 2.288 2.208 1.056 0 1.824-.496 2.288-1.264l1.088.96c-.56.96-1.712 1.712-3.408 1.712zm-.128-7.312c-1.248 0-2.128.912-2.128 2.192v.112h4.144v-.16c0-1.296-.8-2.144-2.016-2.144zm7.84 7.12h-1.744v-8.256h1.744v1.408h.08c.352-.864 1.024-1.6 2.384-1.6 1.664 0 2.784 1.136 2.784 3.136v5.312h-1.744v-5.056c0-1.312-.592-1.968-1.712-1.968-.896 0-1.792.464-1.792 1.424zm11.616.192c-2.464 0-3.92-1.68-3.92-4.32s1.472-4.32 3.904-4.32c1.696 0 2.704.8 3.216 1.952l-1.36.736c-.288-.768-.896-1.248-1.856-1.248-1.312 0-2.08.88-2.08 2.192v1.376c0 1.296.752 2.192 2.112 2.192 1.024 0 1.648-.512 2.032-1.312l1.28.784c-.528 1.152-1.6 1.968-3.328 1.968zm9.472 0c-2.528 0-4.016-1.68-4.016-4.304 0-2.656 1.536-4.336 3.888-4.336 2.32 0 3.792 1.664 3.792 4.096v.656h-5.92v.272c0 1.296.864 2.208 2.288 2.208 1.056 0 1.824-.496 2.288-1.264l1.088.96c-.56.96-1.712 1.712-3.408 1.712zm-.128-7.312c-1.248 0-2.128.912-2.128 2.192v.112h4.144v-.16c0-1.296-.8-2.144-2.016-2.144z" fill="#fff"/><path d="m101.862064 5.89500028c24.931908-12.75793931 45.45396-.39559319 44.014466 9.27085152-1.439493 9.6664448-39.901072 23.9196712-48.8185399 22.9893285-8.917468-.9303427-20.1278344-19.5022407 4.8040739-32.26018002z" fill="#00f"/></g></svg>