<?xml version="1.0" encoding="UTF-8"?>
<svg width="340px" height="386px" viewBox="0 0 340 386" version="1.1" xmlns="http://www.w3.org/2000/svg" xmlns:xlink="http://www.w3.org/1999/xlink">
    <!-- Generator: Sketch 50.2 (55047) - http://www.bohemiancoding.com/sketch -->
    <title>breastcancerai</title>
    <desc>Created with Sketch.</desc>
    <defs>
        <rect id="path-1" x="0" y="0" width="340" height="317"></rect>
    </defs>
    <g id="Page-1" stroke="none" stroke-width="1" fill="none" fill-rule="evenodd">
        <g id="illustrations" transform="translate(-1246.000000, -110.000000)">
            <g id="breastcancerai" transform="translate(1246.000000, 110.000000)">
                <g id="Group-5" transform="translate(0.000000, 69.000000)">
                    <mask id="mask-2" fill="white">
                        <use xlink:href="#path-1"></use>
                    </mask>
                    <use id="Rectangle-8" fill="#FFD5D5" xlink:href="#path-1"></use>
                    <path d="M122.278872,38.906523 C125.973856,51.1607729 127.821348,60.5856984 127.821348,67.1812996 C106.322071,84.1421212 90.3027102,104.563599 77.5857326,113.035438 C64.8687551,121.507277 76.7998147,193.874906 84.4209327,209.372708 C92.0420508,224.87051 125.477132,213.440395 127.821348,197.689352 C143.110646,237.457938 99.086003,249.946901 91.5282535,365.703898 C91.5282535,377.178915 101.638854,377.178915 108.927663,383.077647 C139.337319,359.328309 213.808228,340.582325 277.690736,315.561888 C274.883325,304.326703 273.358551,268.673733 264.395702,244.985899 C264.395702,217.470538 266.68448,174.4381 264.395702,159.442797 C262.106923,144.447493 272.002945,75.0240576 256.20387,57.0637658 C251.235465,55.2180471 240.119621,57.314884 222.856337,63.3542764 L182.50856,54.5193199 L172.736414,29 L122.278872,38.906523 Z" id="Path-123" fill="#EEEEEE" mask="url(#mask-2)"></path>
                    <path d="M199,343.779023 C212.138305,304.206477 219.892621,282.785511 222.262949,279.516126 C225.838495,274.584388 220.591325,306.541875 223.719677,309.654854 C226.848029,312.767832 241.676691,297.143956 234.455277,306.09331 C225.140913,318.463071 220.876894,328.447506 221.663218,336.046617 C214.008871,338.659402 206.425319,341.230856 199,343.779023 Z" id="Combined-Shape" fill="#0000FF" mask="url(#mask-2)"></path>
                    <path d="M264.789841,83 C267.668405,110.61405 263.162748,148.626201 264.786001,159.261205 C267.07478,174.256508 264.786001,217.288946 264.786001,244.804307 C273.646081,268.220531 275.335964,303.723721 278.083241,315.37889 L262.221486,321.398013 C260.455936,304.790337 255.796213,294.110146 248.242318,289.357443 C240.688423,284.60474 259.197493,269.135568 254.622679,261.407392 C250.047864,253.679217 243.531603,256.453892 243.531603,239.113129 C243.531603,221.772366 240.749413,241.505769 230.992479,247.702578 C221.235544,253.899387 226.343456,239.113129 221.31011,225.969625 C216.276764,212.826121 235.756003,204.466064 231.052876,177.846065 C211.666198,183.26371 187.506232,180.024561 184,166.844574 C190.487596,170.158782 211.517916,167.709711 218.910917,162.627958 C226.303919,157.546205 242.057097,133.025175 243.531603,101.335026 C249.332127,96.5791389 256.418206,90.4674635 264.789841,83 Z" id="Combined-Shape" fill="#0000FF" mask="url(#mask-2)"></path>
                </g>
                <rect id="Rectangle-8" stroke="#000000" stroke-width="2" x="1" y="70" width="338" height="315"></rect>
                <path d="M111.955092,96.3282008 C105.198039,97.3815605 100.275137,96.7087238 97.1863862,94.3096909 C87.4330233,86.7342533 78.557726,67.4637474 80.3872328,54.3198955 C84.1142791,27.543421 87.0496081,26.2945991 97.1863862,19.3960138 C104.050797,14.7244381 111.844718,14.9162451 114.18631,13.9628403 C115.984361,13.2307439 123.302087,7.02189072 138.332194,7.02189072 C156.168644,7.02189072 168.331099,15.9459968 173.430751,25.31128 C177.574658,32.9213809 178.878319,43.8877964 177.341733,58.2105266 L111.955092,96.3282008 Z" id="Path-122" fill="#0000FF"></path>
                <path d="M112.202436,102.326151 C108.948086,101.505756 106.884797,99.6509246 106.012568,96.7616571 C107.01489,96.7616571 111.591098,96.7161137 112.202436,96.0158759 C112.813774,95.3156381 111.591098,77.9434974 115.334202,71.5160988 C125.135823,54.6854335 137.499773,62.8022007 146.961239,46 C154.892093,49.8777858 165.072457,53.7446761 177.502332,57.6006708 C175.415301,99.43952 169.200364,122.918173 158.85752,128.036628 C153.344084,130.765112 137.792389,122.194952 112.202436,102.326151 Z" id="Path-120" fill="#EEEEEE"></path>
                <path d="M86.2212247,282.046615 C87.7144022,286.143401 98.5471256,287.876685 110.985349,283.31515 C123.423573,278.753614 130.275011,270.479136 128.79977,266.431562 C127.324529,262.383988 117.373161,258.365424 104.0894,263.237047 C90.8056387,268.10867 84.7280471,277.94983 86.2212247,282.046615 Z" id="Path-124" fill="#0000FF"></path>
                <path d="M249.079534,177.293272 C262.862656,181.373308 265.618048,166.547379 265.618048,151.688592 C265.618048,136.829805 261.136351,128.377689 255.870688,126.353671 C250.605026,124.329652 237.074828,131.268103 237.074828,140.142786 C237.074828,149.017469 235.296411,173.213236 249.079534,177.293272 Z" id="Path-124-Copy" fill="#0000FF"></path>
                <path d="M103,206 L103,217.875491 L112.541893,230.234478 C120.886845,257.081681 130.083058,270.505282 140.130534,270.505282 C162.182419,270.505282 174.764525,251.978573 174.764525,239.4684 C157.170046,258.07839 138.882262,262.366271 129.69849,257.881148 C123.575976,254.891065 119.334387,249.072804 116.973725,240.426364" id="Path-125" fill="#0000FF"></path>
                <path d="M182.024005,279.626085 C179.668772,275.493694 179.028681,293.07691 176.005723,295.572168 C172.982765,298.067426 161.298574,300.050285 159.966662,301.277602 C154.786984,304.227291 171.986251,301.834982 174.608985,305.593328 C177.231719,309.351673 170.440789,329.842049 170.440789,331.805808 C170.440789,333.769568 172.255405,336.293083 176.005723,336.945615 C179.756041,337.598147 182.724991,337.272098 183.796027,334.966309 C184.867062,332.660519 181.18665,328.106979 176.005723,329.842049 C176.005723,323.063341 190.46966,307.355105 182.024005,279.626085 Z" id="Path-126" fill="#0000FF"></path>
                <path d="M161.382566,211.30721 C168.568429,211.30721 173.792507,209.017643 177.054801,204.438509 C174.765685,211.30721 174.765685,219.812067 177.054801,230.966686 C174.630858,224.650034 169.40678,218.096875 161.382566,211.30721 Z" id="Path-129" fill="#0000FF"></path>
                <path d="M196.398378,148.411368 C175.860011,145.389369 171.115184,147.396523 167.137888,144.374524 C163.160592,141.352524 160.107618,126.985484 157.252574,117.724461 C152.5236,119.465474 146.022537,118.410536 137.749385,114.559646 C156.923308,114.951932 165.558587,112.142882 163.655225,106.132497 C165.221521,103.698726 150.159113,106.807959 150.159113,104.053758 C150.159113,101.145769 157.252574,103.224508 157.252574,95.6147198 C157.252574,88.0049316 149.449967,82.4731239 150.159113,70.1452963 C157.382333,64.0799692 156.424493,56.0841963 147.285592,46.1579775 C155.480252,49.2051269 165.426218,53.272246 177.538693,57.4578677 C176.708316,74.1044793 175.188115,87.9873991 173.050809,98.821021 L182.50856,123.51932 L222.856337,132.354276 C223.175863,132.242493 223.493284,132.13206 223.808599,132.022978 C212.698473,136.479392 203.561733,141.942189 196.398378,148.411368 Z" id="Combined-Shape" fill="#0000FF"></path>
                <rect id="Rectangle-36" stroke="#000000" stroke-width="2" fill="#000000" x="47" y="221" width="243" height="50"></rect>
                <path d="M67.396,251 L65.492,251 L64.644,248.024 L61.092,248.024 L60.244,251 L58.42,251 L61.684,239.832 L64.132,239.832 L67.396,251 Z M64.308,246.536 L62.932,241.64 L62.804,241.64 L61.428,246.536 L64.308,246.536 Z M68.916,251 L68.916,249.592 L71.108,249.592 L71.108,244.152 L68.916,244.152 L68.916,242.744 L72.852,242.744 L72.852,244.936 L72.948,244.936 C73.268,243.784 73.988,242.744 75.668,242.744 L76.66,242.744 L76.66,244.408 L75.028,244.408 C73.604,244.408 72.852,245.352 72.852,246.504 L72.852,249.592 L75.844,249.592 L75.844,251 L68.916,251 Z M85.748,251 L82.596,251 C81.156,251 80.484,250.136 80.484,248.904 L80.484,244.152 L77.94,244.152 L77.94,242.744 L79.748,242.744 C80.356,242.744 80.596,242.536 80.596,241.896 L80.596,239.832 L82.228,239.832 L82.228,242.744 L85.748,242.744 L85.748,244.152 L82.228,244.152 L82.228,249.592 L85.748,249.592 L85.748,251 Z M92.212,241.24 C91.332,241.24 91.012,240.824 91.012,240.296 L91.012,239.96 C91.012,239.432 91.332,239.016 92.196,239.016 C93.076,239.016 93.396,239.432 93.396,239.96 L93.396,240.296 C93.396,240.824 93.076,241.24 92.212,241.24 Z M88.516,251 L88.516,249.592 L91.332,249.592 L91.332,244.152 L88.516,244.152 L88.516,242.744 L93.076,242.744 L93.076,249.592 L95.716,249.592 L95.716,251 L88.516,251 Z M97.748,251 L97.748,249.592 L100.388,249.592 L100.388,244.152 L97.588,244.152 L97.588,242.744 L100.388,242.744 L100.388,241.256 C100.388,240.024 101.06,239.16 102.5,239.16 L105.284,239.16 L105.284,240.568 L102.132,240.568 L102.132,242.744 L105.284,242.744 L105.284,244.152 L102.132,244.152 L102.132,249.592 L104.916,249.592 L104.916,251 L97.748,251 Z M111.412,241.24 C110.532,241.24 110.212,240.824 110.212,240.296 L110.212,239.96 C110.212,239.432 110.532,239.016 111.396,239.016 C112.276,239.016 112.596,239.432 112.596,239.96 L112.596,240.296 C112.596,240.824 112.276,241.24 111.412,241.24 Z M107.716,251 L107.716,249.592 L110.532,249.592 L110.532,244.152 L107.716,244.152 L107.716,242.744 L112.276,242.744 L112.276,249.592 L114.916,249.592 L114.916,251 L107.716,251 Z M120.804,251.192 C118.34,251.192 116.884,249.512 116.884,246.872 C116.884,244.232 118.356,242.552 120.788,242.552 C122.484,242.552 123.492,243.352 124.004,244.504 L122.644,245.24 C122.356,244.472 121.748,243.992 120.788,243.992 C119.476,243.992 118.708,244.872 118.708,246.184 L118.708,247.56 C118.708,248.856 119.46,249.752 120.82,249.752 C121.844,249.752 122.468,249.24 122.852,248.44 L124.132,249.224 C123.604,250.376 122.532,251.192 120.804,251.192 Z M130.612,241.24 C129.732,241.24 129.412,240.824 129.412,240.296 L129.412,239.96 C129.412,239.432 129.732,239.016 130.596,239.016 C131.476,239.016 131.796,239.432 131.796,239.96 L131.796,240.296 C131.796,240.824 131.476,241.24 130.612,241.24 Z M126.916,251 L126.916,249.592 L129.732,249.592 L129.732,244.152 L126.916,244.152 L126.916,242.744 L131.476,242.744 L131.476,249.592 L134.116,249.592 L134.116,251 L126.916,251 Z M143.844,251 L142.772,251 C141.78,251 141.284,250.44 141.188,249.608 L141.108,249.608 C140.788,250.6 139.924,251.192 138.628,251.192 C136.948,251.192 135.86,250.248 135.86,248.696 C135.86,247.096 137.028,246.232 139.476,246.232 L141.06,246.232 L141.06,245.592 C141.06,244.488 140.468,243.912 139.284,243.912 C138.228,243.912 137.604,244.36 137.156,245.048 L136.116,244.2 C136.58,243.304 137.7,242.552 139.444,242.552 C141.524,242.552 142.804,243.592 142.804,245.48 L142.804,249.624 L143.844,249.624 L143.844,251 Z M139.124,249.912 C140.244,249.912 141.06,249.352 141.06,248.536 L141.06,247.336 L139.508,247.336 C138.228,247.336 137.62,247.736 137.62,248.472 L137.62,248.792 C137.62,249.528 138.196,249.912 139.124,249.912 Z M145.7,251 L145.7,249.592 L148.436,249.592 L148.436,240.568 L145.7,240.568 L145.7,239.16 L150.18,239.16 L150.18,249.592 L152.916,249.592 L152.916,251 L145.7,251 Z M172.02,251 L164.98,251 L164.98,249.64 L167.604,249.64 L167.604,241.192 L164.98,241.192 L164.98,239.832 L172.02,239.832 L172.02,241.192 L169.396,241.192 L169.396,249.64 L172.02,249.64 L172.02,251 Z M176.388,251 L174.644,251 L174.644,242.744 L176.388,242.744 L176.388,244.152 L176.468,244.152 C176.82,243.288 177.492,242.552 178.852,242.552 C180.516,242.552 181.636,243.688 181.636,245.688 L181.636,251 L179.892,251 L179.892,245.944 C179.892,244.632 179.3,243.976 178.18,243.976 C177.284,243.976 176.388,244.44 176.388,245.4 L176.388,251 Z M191.348,251 L188.196,251 C186.756,251 186.084,250.136 186.084,248.904 L186.084,244.152 L183.54,244.152 L183.54,242.744 L185.348,242.744 C185.956,242.744 186.196,242.536 186.196,241.896 L186.196,239.832 L187.828,239.832 L187.828,242.744 L191.348,242.744 L191.348,244.152 L187.828,244.152 L187.828,249.592 L191.348,249.592 L191.348,251 Z M197.476,251.192 C194.948,251.192 193.46,249.512 193.46,246.888 C193.46,244.232 194.996,242.552 197.348,242.552 C199.668,242.552 201.14,244.216 201.14,246.648 L201.14,247.304 L195.22,247.304 L195.22,247.576 C195.22,248.872 196.084,249.784 197.508,249.784 C198.564,249.784 199.332,249.288 199.796,248.52 L200.884,249.48 C200.324,250.44 199.172,251.192 197.476,251.192 Z M197.348,243.88 C196.1,243.88 195.22,244.792 195.22,246.072 L195.22,246.184 L199.364,246.184 L199.364,246.024 C199.364,244.728 198.564,243.88 197.348,243.88 Z M203.3,251 L203.3,249.592 L206.036,249.592 L206.036,240.568 L203.3,240.568 L203.3,239.16 L207.78,239.16 L207.78,249.592 L210.516,249.592 L210.516,251 L203.3,251 Z M212.9,251 L212.9,249.592 L215.636,249.592 L215.636,240.568 L212.9,240.568 L212.9,239.16 L217.38,239.16 L217.38,249.592 L220.116,249.592 L220.116,251 L212.9,251 Z M226.612,241.24 C225.732,241.24 225.412,240.824 225.412,240.296 L225.412,239.96 C225.412,239.432 225.732,239.016 226.596,239.016 C227.476,239.016 227.796,239.432 227.796,239.96 L227.796,240.296 C227.796,240.824 227.476,241.24 226.612,241.24 Z M222.916,251 L222.916,249.592 L225.732,249.592 L225.732,244.152 L222.916,244.152 L222.916,242.744 L227.476,242.744 L227.476,249.592 L230.116,249.592 L230.116,251 L222.916,251 Z M240.02,251.896 C240.02,253.592 238.596,254.392 235.684,254.392 C232.836,254.392 231.844,253.64 231.844,252.408 C231.844,251.512 232.372,251.048 233.284,250.808 L233.284,250.648 C232.724,250.44 232.372,250.072 232.372,249.448 C232.372,248.632 232.996,248.264 233.86,248.056 L233.86,247.976 C232.868,247.512 232.276,246.632 232.276,245.448 C232.276,243.688 233.604,242.552 235.636,242.552 C236.212,242.552 236.74,242.648 237.188,242.824 L237.188,242.552 C237.188,241.912 237.556,241.432 238.292,241.432 L239.796,241.432 L239.796,242.808 L237.876,242.808 L237.876,243.192 C238.596,243.688 238.996,244.456 238.996,245.448 C238.996,247.208 237.668,248.328 235.636,248.328 C235.268,248.328 234.932,248.296 234.612,248.232 C234.228,248.328 233.748,248.584 233.748,249.032 C233.748,249.544 234.308,249.608 235.028,249.608 L236.884,249.608 C239.108,249.608 240.02,250.536 240.02,251.896 Z M238.388,252.008 C238.388,251.448 238.004,251.096 236.836,251.096 L233.972,251.096 C233.572,251.288 233.364,251.592 233.364,252.024 C233.364,252.648 233.844,253.16 235.06,253.16 L236.356,253.16 C237.668,253.16 238.388,252.76 238.388,252.008 Z M235.636,247.128 C236.756,247.128 237.284,246.536 237.284,245.656 L237.284,245.224 C237.284,244.344 236.756,243.752 235.636,243.752 C234.516,243.752 233.988,244.344 233.988,245.224 L233.988,245.656 C233.988,246.536 234.516,247.128 235.636,247.128 Z M245.476,251.192 C242.948,251.192 241.46,249.512 241.46,246.888 C241.46,244.232 242.996,242.552 245.348,242.552 C247.668,242.552 249.14,244.216 249.14,246.648 L249.14,247.304 L243.22,247.304 L243.22,247.576 C243.22,248.872 244.084,249.784 245.508,249.784 C246.564,249.784 247.332,249.288 247.796,248.52 L248.884,249.48 C248.324,250.44 247.172,251.192 245.476,251.192 Z M245.348,243.88 C244.1,243.88 243.22,244.792 243.22,246.072 L243.22,246.184 L247.364,246.184 L247.364,246.024 C247.364,244.728 246.564,243.88 245.348,243.88 Z M253.188,251 L251.444,251 L251.444,242.744 L253.188,242.744 L253.188,244.152 L253.268,244.152 C253.62,243.288 254.292,242.552 255.652,242.552 C257.316,242.552 258.436,243.688 258.436,245.688 L258.436,251 L256.692,251 L256.692,245.944 C256.692,244.632 256.1,243.976 254.98,243.976 C254.084,243.976 253.188,244.44 253.188,245.4 L253.188,251 Z M264.804,251.192 C262.34,251.192 260.884,249.512 260.884,246.872 C260.884,244.232 262.356,242.552 264.788,242.552 C266.484,242.552 267.492,243.352 268.004,244.504 L266.644,245.24 C266.356,244.472 265.748,243.992 264.788,243.992 C263.476,243.992 262.708,244.872 262.708,246.184 L262.708,247.56 C262.708,248.856 263.46,249.752 264.82,249.752 C265.844,249.752 266.468,249.24 266.852,248.44 L268.132,249.224 C267.604,250.376 266.532,251.192 264.804,251.192 Z M274.276,251.192 C271.748,251.192 270.26,249.512 270.26,246.888 C270.26,244.232 271.796,242.552 274.148,242.552 C276.468,242.552 277.94,244.216 277.94,246.648 L277.94,247.304 L272.02,247.304 L272.02,247.576 C272.02,248.872 272.884,249.784 274.308,249.784 C275.364,249.784 276.132,249.288 276.596,248.52 L277.684,249.48 C277.124,250.44 275.972,251.192 274.276,251.192 Z M274.148,243.88 C272.9,243.88 272.02,244.792 272.02,246.072 L272.02,246.184 L276.164,246.184 L276.164,246.024 C276.164,244.728 275.364,243.88 274.148,243.88 Z" id="Artificial-Intellige" fill="#FFFFFF"></path>
                <path d="M101.862064,5.89500028 C126.793972,-6.86293903 147.316024,5.49940709 145.87653,15.1658518 C144.437037,24.8322966 105.975458,39.085523 97.0579901,38.1551803 C88.1405221,37.2248376 76.9301557,18.6529396 101.862064,5.89500028 Z" id="Path-8" fill="#0000FF"></path>
            </g>
        </g>
    </g>
</svg>