<?xml version="1.0" encoding="UTF-8"?>
<svg width="380px" height="380px" viewBox="0 0 380 380" version="1.1" xmlns="http://www.w3.org/2000/svg" xmlns:xlink="http://www.w3.org/1999/xlink">
    <!-- Generator: Sketch 50.2 (55047) - http://www.bohemiancoding.com/sketch -->
    <title>covers</title>
    <desc>Created with Sketch.</desc>
    <defs>
        <rect id="path-1" x="0" y="0" width="340" height="317"></rect>
    </defs>
    <g id="Page-1" stroke="none" stroke-width="1" fill="none" fill-rule="evenodd">
        <g id="illustrations" transform="translate(-823.000000, -116.000000)">
            <g id="covers" transform="translate(823.000000, 116.000000)">
                <rect id="Rectangle-8" stroke="#000000" stroke-width="2" fill="#FFD5D5" x="1" y="24" width="338" height="315"></rect>
                <rect id="Rectangle-8" stroke="#000000" stroke-width="2" fill="#FFD5D5" x="21" y="44" width="338" height="315"></rect>
                <g id="Group-5" transform="translate(40.000000, 63.000000)">
                    <mask id="mask-2" fill="white">
                        <use xlink:href="#path-1"></use>
                    </mask>
                    <use id="Rectangle-8" fill="#FFD5D5" xlink:href="#path-1"></use>
                    <path d="M122.278872,38.906523 C125.973856,51.1607729 127.821348,60.5856984 127.821348,67.1812996 C106.322071,84.1421212 90.3027102,104.563599 77.5857326,113.035438 C64.8687551,121.507277 76.7998147,193.874906 84.4209327,209.372708 C92.0420508,224.87051 125.477132,213.440395 127.821348,197.689352 C143.110646,237.457938 99.086003,249.946901 91.5282535,365.703898 C91.5282535,377.178915 101.638854,377.178915 108.927663,383.077647 C139.337319,359.328309 213.808228,340.582325 277.690736,315.561888 C274.883325,304.326703 273.358551,268.673733 264.395702,244.985899 C264.395702,217.470538 266.68448,174.4381 264.395702,159.442797 C262.106923,144.447493 272.002945,75.0240576 256.20387,57.0637658 C251.235465,55.2180471 240.119621,57.314884 222.856337,63.3542764 L182.50856,54.5193199 L172.736414,29 L122.278872,38.906523 Z" id="Path-123" fill="#0000FF" mask="url(#mask-2)"></path>
                    <path d="M199,343.779023 C212.138305,304.206477 219.892621,282.785511 222.262949,279.516126 C225.838495,274.584388 220.591325,306.541875 223.719677,309.654854 C226.848029,312.767832 241.676691,297.143956 234.455277,306.09331 C225.140913,318.463071 220.876894,328.447506 221.663218,336.046617 C214.008871,338.659402 206.425319,341.230856 199,343.779023 Z" id="Combined-Shape" fill="#0000A0" mask="url(#mask-2)"></path>
                    <path d="M264.789841,83 C267.668405,110.61405 263.162748,148.626201 264.786001,159.261205 C267.07478,174.256508 264.786001,217.288946 264.786001,244.804307 C273.646081,268.220531 275.335964,303.723721 278.083241,315.37889 L262.221486,321.398013 C260.455936,304.790337 255.796213,294.110146 248.242318,289.357443 C240.688423,284.60474 259.197493,269.135568 254.622679,261.407392 C250.047864,253.679217 243.531603,256.453892 243.531603,239.113129 C243.531603,221.772366 240.749413,241.505769 230.992479,247.702578 C221.235544,253.899387 226.343456,239.113129 221.31011,225.969625 C216.276764,212.826121 235.756003,204.466064 231.052876,177.846065 C211.666198,183.26371 187.506232,180.024561 184,166.844574 C190.487596,170.158782 211.517916,167.709711 218.910917,162.627958 C226.303919,157.546205 242.057097,133.025175 243.531603,101.335026 C249.332127,96.5791389 256.418206,90.4674635 264.789841,83 Z" id="Combined-Shape" fill="#0000A0" mask="url(#mask-2)"></path>
                </g>
                <rect id="Rectangle-8" stroke="#000000" stroke-width="2" x="41" y="64" width="338" height="315"></rect>
                <path d="M157.606578,99.2320919 C133.53556,88.8562449 122.021705,73.9040824 123.065012,54.3756045 C124.629973,25.0828875 141.884943,10.8358294 163.715445,2.8877878 C185.545946,-5.06025384 211.125872,11.4663878 217.341733,22.8815391 C221.485641,30.49164 221.485641,40.2679692 217.341733,52.2105266 L157.606578,99.2320919 Z" id="Path-122" fill="#000000"></path>
                <path d="M156.498997,92.3076546 L158.885106,67.7182472 C171.294884,60.4408829 180.653595,51.2014671 186.961239,40 C194.892093,43.8777858 205.072457,47.7446761 217.502332,51.6006708 C215.415301,93.43952 209.200364,116.918173 198.85752,122.036628 C190.587365,126.129353 176.805768,118.293655 161.791121,102.481372 C159.033998,103.126728 151,96.4197699 151,92.3076546 C151,89.5662444 152.832999,89.5662444 156.498997,92.3076546 Z" id="Path-120" fill="#0000FF"></path>
                <path d="M126.221225,276.046615 C127.714402,280.143401 138.547126,281.876685 150.985349,277.31515 C163.423573,272.753614 170.275011,264.479136 168.79977,260.431562 C167.324529,256.383988 157.373161,252.365424 144.0894,257.237047 C130.805639,262.10867 124.728047,271.94983 126.221225,276.046615 Z" id="Path-124" fill="#0000A0"></path>
                <path d="M289.079534,171.293272 C302.862656,175.373308 305.618048,160.547379 305.618048,145.688592 C305.618048,130.829805 301.136351,122.377689 295.870688,120.353671 C290.605026,118.329652 277.074828,125.268103 277.074828,134.142786 C277.074828,143.017469 275.296411,167.213236 289.079534,171.293272 Z" id="Path-124-Copy" fill="#0000A0"></path>
                <path d="M143,200 L143,211.875491 L152.541893,224.234478 C160.886845,251.081681 170.083058,264.505282 180.130534,264.505282 C202.182419,264.505282 214.764525,245.978573 214.764525,233.4684 C197.170046,252.07839 178.882262,256.366271 169.69849,251.881148 C163.575976,248.891065 159.334387,243.072804 156.973725,234.426364" id="Path-125" fill="#0000A0"></path>
                <path d="M222.024005,273.626085 C219.668772,269.493694 219.028681,287.07691 216.005723,289.572168 C212.982765,292.067426 201.298574,294.050285 199.966662,295.277602 C194.786984,298.227291 211.986251,295.834982 214.608985,299.593328 C217.231719,303.351673 210.440789,323.842049 210.440789,325.805808 C210.440789,327.769568 212.255405,330.293083 216.005723,330.945615 C219.756041,331.598147 222.724991,331.272098 223.796027,328.966309 C224.867062,326.660519 221.18665,322.106979 216.005723,323.842049 C216.005723,317.063341 230.46966,301.355105 222.024005,273.626085 Z" id="Path-126" fill="#0000A0"></path>
                <path d="M201.382566,205.30721 C208.568429,205.30721 213.792507,203.017643 217.054801,198.438509 C214.765685,205.30721 214.765685,213.812067 217.054801,224.966686 C214.630858,218.650034 209.40678,212.096875 201.382566,205.30721 Z" id="Path-129" fill="#0000A0"></path>
                <path d="M263.808599,126.022978 C252.698473,130.479392 243.561733,135.942189 236.398378,142.411368 C215.860011,139.389369 211.115184,141.396523 207.137888,138.374524 C203.160592,135.352524 200.107618,120.985484 197.252574,111.724461 C192.5236,113.465474 186.022537,112.410536 177.749385,108.559646 C196.923308,108.951932 205.558587,106.142882 203.655225,100.132497 C205.221521,97.698726 190.159113,100.807959 190.159113,98.0537581 C190.159113,95.1457694 197.252574,97.224508 197.252574,89.6147198 C197.252574,82.0049316 189.449967,76.4731239 190.159113,64.1452963 C197.382333,58.0799692 196.424493,50.0841963 187.285592,40.1579775 C195.169011,43.9828103 205.241257,47.7970414 217.502332,51.6006708 C216.671956,68.2472824 215.188115,81.9873991 213.050809,92.821021 L222.50856,117.51932 L262.856337,126.354276 C263.175863,126.242493 263.493284,126.13206 263.808599,126.022978 Z" id="Combined-Shape" fill="#0000A0"></path>
                <rect id="Rectangle-36" stroke="#000000" stroke-width="2" fill="#CCCCCC" x="87" y="215" width="243" height="50"></rect>
                <path d="M168.159209,245.470343 L161,245.470343 L161,233.849116 L162.864724,233.849116 L162.864724,243.905307 L168.159209,243.905307 L168.159209,245.470343 Z M174.186264,245.670135 C171.655567,245.670135 170.10718,243.921956 170.10718,241.174818 C170.10718,238.42768 171.655567,236.679501 174.186264,236.679501 C176.716961,236.679501 178.265349,238.42768 178.265349,241.174818 C178.265349,243.921956 176.716961,245.670135 174.186264,245.670135 Z M174.186264,244.238293 C175.501561,244.238293 176.367326,243.422477 176.367326,241.824142 L176.367326,240.525494 C176.367326,238.927159 175.501561,238.111342 174.186264,238.111342 C172.870968,238.111342 172.005203,238.927159 172.005203,240.525494 L172.005203,241.824142 C172.005203,243.422477 172.870968,244.238293 174.186264,244.238293 Z M188.488033,245.470343 L187.372529,245.470343 C186.340271,245.470343 185.824142,244.887617 185.724246,244.021852 L185.640999,244.021852 C185.308012,245.05411 184.408949,245.670135 183.060354,245.670135 C181.312175,245.670135 180.180021,244.687825 180.180021,243.072841 C180.180021,241.407908 181.395421,240.508845 183.942768,240.508845 L185.591051,240.508845 L185.591051,239.842872 C185.591051,238.694069 184.975026,238.094693 183.742976,238.094693 C182.644121,238.094693 181.994797,238.560874 181.528616,239.276795 L180.44641,238.394381 C180.92924,237.462019 182.094693,236.679501 183.909469,236.679501 C186.073881,236.679501 187.405827,237.761707 187.405827,239.726327 L187.405827,244.038502 L188.488033,244.038502 L188.488033,245.470343 Z M183.576483,244.338189 C184.741935,244.338189 185.591051,243.755463 185.591051,242.906348 L185.591051,241.657648 L183.976067,241.657648 C182.644121,241.657648 182.011446,242.073881 182.011446,242.83975 L182.011446,243.172737 C182.011446,243.938606 182.610822,244.338189 183.576483,244.338189 Z M196.030177,245.470343 L196.030177,244.005203 L195.930281,244.005203 C195.430801,245.037461 194.598335,245.670135 193.332986,245.670135 C191.318418,245.670135 190.019771,244.121748 190.019771,241.174818 C190.019771,238.227888 191.318418,236.679501 193.332986,236.679501 C194.598335,236.679501 195.430801,237.312175 195.930281,238.344433 L196.030177,238.344433 L196.030177,233.149844 L197.844953,233.149844 L197.844953,245.470343 L196.030177,245.470343 Z M194.082206,244.188345 C195.131113,244.188345 196.030177,243.655567 196.030177,242.60666 L196.030177,239.742976 C196.030177,238.694069 195.131113,238.16129 194.082206,238.16129 C192.716961,238.16129 191.934443,239.077003 191.934443,240.475546 L191.934443,241.874089 C191.934443,243.272633 192.716961,244.188345 194.082206,244.188345 Z M204.687825,235.314256 C203.772112,235.314256 203.439126,234.881374 203.439126,234.331946 L203.439126,233.98231 C203.439126,233.432882 203.772112,233 204.671176,233 C205.586889,233 205.919875,233.432882 205.919875,233.98231 L205.919875,234.331946 C205.919875,234.881374 205.586889,235.314256 204.687825,235.314256 Z M200.841831,245.470343 L200.841831,244.005203 L203.772112,244.005203 L203.772112,238.344433 L200.841831,238.344433 L200.841831,236.879292 L205.586889,236.879292 L205.586889,244.005203 L208.334027,244.005203 L208.334027,245.470343 L200.841831,245.470343 Z M212.363163,245.470343 L210.548387,245.470343 L210.548387,236.879292 L212.363163,236.879292 L212.363163,238.344433 L212.44641,238.344433 C212.812695,237.445369 213.511967,236.679501 214.927159,236.679501 C216.658689,236.679501 217.824142,237.861602 217.824142,239.942768 L217.824142,245.470343 L216.009365,245.470343 L216.009365,240.209157 C216.009365,238.843913 215.39334,238.16129 214.227888,238.16129 C213.295525,238.16129 212.363163,238.644121 212.363163,239.64308 L212.363163,245.470343 Z M228.629553,246.402706 C228.629553,248.167534 227.147763,249 224.117586,249 C221.154006,249 220.121748,248.217482 220.121748,246.935484 C220.121748,246.003122 220.671176,245.520291 221.620187,245.270552 L221.620187,245.104058 C221.037461,244.887617 220.671176,244.504683 220.671176,243.855359 C220.671176,243.006243 221.320499,242.623309 222.219563,242.406868 L222.219563,242.323621 C221.187305,241.840791 220.57128,240.925078 220.57128,239.693028 C220.57128,237.861602 221.953174,236.679501 224.067638,236.679501 C224.667014,236.679501 225.216441,236.779396 225.682622,236.962539 L225.682622,236.679501 C225.682622,236.013528 226.065557,235.514048 226.831426,235.514048 L228.396462,235.514048 L228.396462,236.94589 L226.398543,236.94589 L226.398543,237.345473 C227.147763,237.861602 227.563996,238.66077 227.563996,239.693028 C227.563996,241.524454 226.182102,242.689906 224.067638,242.689906 C223.684703,242.689906 223.335068,242.656608 223.002081,242.59001 C222.602497,242.689906 222.103018,242.956296 222.103018,243.422477 C222.103018,243.955255 222.685744,244.021852 223.434964,244.021852 L225.366285,244.021852 C227.680541,244.021852 228.629553,244.987513 228.629553,246.402706 Z M226.931322,246.519251 C226.931322,245.936524 226.531738,245.570239 225.316337,245.570239 L222.336108,245.570239 C221.919875,245.770031 221.703434,246.086368 221.703434,246.5359 C221.703434,247.185224 222.202914,247.718002 223.468262,247.718002 L224.816857,247.718002 C226.182102,247.718002 226.931322,247.301769 226.931322,246.519251 Z M224.067638,241.441207 C225.233091,241.441207 225.782518,240.825182 225.782518,239.909469 L225.782518,239.459938 C225.782518,238.544225 225.233091,237.9282 224.067638,237.9282 C222.902185,237.9282 222.352758,238.544225 222.352758,239.459938 L222.352758,239.909469 C222.352758,240.825182 222.902185,241.441207 224.067638,241.441207 Z M234.123829,245.636837 C233.074922,245.636837 232.675338,245.120708 232.675338,244.488033 L232.675338,244.055151 C232.675338,243.422477 233.074922,242.906348 234.123829,242.906348 C235.172737,242.906348 235.57232,243.422477 235.57232,244.055151 L235.57232,244.488033 C235.57232,245.120708 235.172737,245.636837 234.123829,245.636837 Z M244.113424,245.636837 C243.064516,245.636837 242.664932,245.120708 242.664932,244.488033 L242.664932,244.055151 C242.664932,243.422477 243.064516,242.906348 244.113424,242.906348 C245.162331,242.906348 245.561915,243.422477 245.561915,244.055151 L245.561915,244.488033 C245.561915,245.120708 245.162331,245.636837 244.113424,245.636837 Z M254.103018,245.636837 C253.05411,245.636837 252.654527,245.120708 252.654527,244.488033 L252.654527,244.055151 C252.654527,243.422477 253.05411,242.906348 254.103018,242.906348 C255.151925,242.906348 255.551509,243.422477 255.551509,244.055151 L255.551509,244.488033 C255.551509,245.120708 255.151925,245.636837 254.103018,245.636837 Z" id="Loading..." fill="#000000"></path>
            </g>
        </g>
    </g>
</svg>