<?xml version="1.0" encoding="UTF-8"?>
<svg width="976px" height="61px" viewBox="0 0 976 61" version="1.1" xmlns="http://www.w3.org/2000/svg" xmlns:xlink="http://www.w3.org/1999/xlink">
    <!-- Generator: Sketch 49.3 (51167) - http://www.bohemiancoding.com/sketch -->
    <title>fullread</title>
    <desc>Created with Sketch.</desc>
    <defs></defs>
    <g id="Page-1" stroke="none" stroke-width="1" fill="none" fill-rule="evenodd">
        <g id="Artboard" transform="translate(-753.000000, -128.000000)">
            <g id="fullread" transform="translate(753.000000, 128.000000)">
                <rect id="Rectangle-14-Copy" stroke="#000000" stroke-width="3" x="1.5" y="2.5" width="122" height="57" rx="5"></rect>
                <rect id="Rectangle-14-Copy-5" stroke="#000000" stroke-width="3" x="852.5" y="1.5" width="122" height="57" rx="5"></rect>
                <rect id="Rectangle-14-Copy-4" fill="#0000FF" x="388" y="1" width="200" height="60" rx="5"></rect>
                <path d="M39.384,41.112 L39.384,43.392 L36.144,43.392 C33.768,43.392 32.832,42.072 32.832,40.104 L32.832,39.168 C29.424,38.568 27.864,35.496 27.864,30.624 C27.864,25.152 29.832,21.96 34.2,21.96 C38.568,21.96 40.536,25.152 40.536,30.624 C40.536,35.496 38.976,38.568 35.568,39.168 L35.568,41.112 L39.384,41.112 Z M34.2,36.72 C36.432,36.72 37.2,34.944 37.2,32.04 L37.2,29.184 C37.2,26.304 36.432,24.528 34.2,24.528 C31.968,24.528 31.2,26.304 31.2,29.184 L31.2,32.064 C31.2,34.944 31.968,36.72 34.2,36.72 Z M50.928,39 L50.928,36.816 L50.808,36.816 C50.256,38.16 49.2,39.288 47.184,39.288 C44.76,39.288 43.08,37.608 43.08,34.608 L43.08,26.616 L46.152,26.616 L46.152,34.176 C46.152,35.952 46.944,36.864 48.48,36.864 C49.728,36.864 50.928,36.216 50.928,34.896 L50.928,26.616 L54,26.616 L54,39 L50.928,39 Z M63.288,39.288 C59.328,39.288 57.12,36.792 57.12,32.832 C57.12,28.824 59.424,26.328 63.048,26.328 C66.624,26.328 68.88,28.8 68.88,32.544 L68.88,33.552 L60.192,33.552 L60.192,33.864 C60.192,35.64 61.368,36.864 63.384,36.864 C64.896,36.864 66,36.192 66.744,35.16 L68.496,36.912 C67.608,38.208 65.904,39.288 63.288,39.288 Z M63.072,28.584 C61.344,28.584 60.192,29.784 60.192,31.56 L60.192,31.728 L65.808,31.728 L65.808,31.512 C65.808,29.736 64.752,28.584 63.072,28.584 Z M79.728,39 L79.728,36.816 L79.608,36.816 C79.056,38.16 78,39.288 75.984,39.288 C73.56,39.288 71.88,37.608 71.88,34.608 L71.88,26.616 L74.952,26.616 L74.952,34.176 C74.952,35.952 75.744,36.864 77.28,36.864 C78.528,36.864 79.728,36.216 79.728,34.896 L79.728,26.616 L82.8,26.616 L82.8,39 L79.728,39 Z M92.088,39.288 C88.128,39.288 85.92,36.792 85.92,32.832 C85.92,28.824 88.224,26.328 91.848,26.328 C95.424,26.328 97.68,28.8 97.68,32.544 L97.68,33.552 L88.992,33.552 L88.992,33.864 C88.992,35.64 90.168,36.864 92.184,36.864 C93.696,36.864 94.8,36.192 95.544,35.16 L97.296,36.912 C96.408,38.208 94.704,39.288 92.088,39.288 Z M91.872,28.584 C90.144,28.584 88.992,29.784 88.992,31.56 L88.992,31.728 L94.608,31.728 L94.608,31.512 C94.608,29.736 93.552,28.584 91.872,28.584 Z" id="Queue" fill="#000000"></path>
                <path d="M886.952,39 L886.952,22.248 L892.16,22.248 C896.504,22.248 898.616,25.2 898.616,30.624 C898.616,36.048 896.504,39 892.16,39 L886.952,39 Z M890.048,36.48 L891.944,36.48 C894.248,36.48 895.328,34.92 895.328,32.064 L895.328,29.16 C895.328,26.328 894.248,24.768 891.944,24.768 L890.048,24.768 L890.048,36.48 Z M906.8,39.288 C903.056,39.288 900.752,36.792 900.752,32.808 C900.752,28.824 903.056,26.328 906.8,26.328 C910.544,26.328 912.848,28.824 912.848,32.808 C912.848,36.792 910.544,39.288 906.8,39.288 Z M906.8,36.936 C908.552,36.936 909.656,35.832 909.656,33.768 L909.656,31.848 C909.656,29.784 908.552,28.68 906.8,28.68 C905.048,28.68 903.944,29.784 903.944,31.848 L903.944,33.768 C903.944,35.832 905.048,36.936 906.8,36.936 Z M918.872,39 L915.8,39 L915.8,26.616 L918.872,26.616 L918.872,28.8 L918.992,28.8 C919.544,27.456 920.6,26.328 922.616,26.328 C925.04,26.328 926.72,28.008 926.72,31.008 L926.72,39 L923.648,39 L923.648,31.44 C923.648,29.664 922.856,28.752 921.32,28.752 C920.072,28.752 918.872,29.4 918.872,30.72 L918.872,39 Z M935.888,39.288 C931.928,39.288 929.72,36.792 929.72,32.832 C929.72,28.824 932.024,26.328 935.648,26.328 C939.224,26.328 941.48,28.8 941.48,32.544 L941.48,33.552 L932.792,33.552 L932.792,33.864 C932.792,35.64 933.968,36.864 935.984,36.864 C937.496,36.864 938.6,36.192 939.344,35.16 L941.096,36.912 C940.208,38.208 938.504,39.288 935.888,39.288 Z M935.672,28.584 C933.944,28.584 932.792,29.784 932.792,31.56 L932.792,31.728 L938.408,31.728 L938.408,31.512 C938.408,29.736 937.352,28.584 935.672,28.584 Z" id="Done" fill="#000000"></path>
                <path d="M430.88,39.288 C426.632,39.288 424.592,36.168 424.592,30.624 C424.592,25.08 426.632,21.96 430.88,21.96 C434.12,21.96 435.608,23.832 436.376,26.112 L433.952,26.928 C433.448,25.392 432.752,24.192 430.856,24.192 C428.48,24.192 427.448,26.136 427.448,29.208 L427.448,32.04 C427.448,35.112 428.48,37.056 430.856,37.056 C432.752,37.056 433.448,35.856 433.952,34.32 L436.376,35.136 C435.608,37.416 434.12,39.288 430.88,39.288 Z M451.544,39 L448.688,39 L447.416,34.536 L442.088,34.536 L440.816,39 L438.08,39 L442.976,22.248 L446.648,22.248 L451.544,39 Z M446.912,32.304 L444.848,24.96 L444.656,24.96 L442.592,32.304 L446.912,32.304 Z M462.824,33 L455.576,33 L455.576,30.384 L462.824,30.384 L462.824,33 Z M468.392,39 L468.392,22.248 L474.176,22.248 C477.2,22.248 478.976,23.952 478.976,26.64 C478.976,28.584 477.944,29.712 476.312,30.192 L476.312,30.312 C478.256,30.768 479.552,31.968 479.552,34.272 C479.552,37.008 477.656,39 474.824,39 L468.392,39 Z M471.032,36.936 L474.008,36.936 C475.784,36.936 476.792,36.216 476.792,34.608 L476.792,33.744 C476.792,32.112 475.784,31.416 474.008,31.416 L471.032,31.416 L471.032,36.936 Z M471.032,29.448 L473.624,29.448 C475.304,29.448 476.216,28.824 476.216,27.312 L476.216,26.448 C476.216,24.936 475.304,24.312 473.624,24.312 L471.032,24.312 L471.032,29.448 Z M482.624,39 L482.624,36.888 L485.912,36.888 L485.912,28.728 L482.624,28.728 L482.624,26.616 L488.528,26.616 L488.528,29.904 L488.672,29.904 C489.152,28.176 490.232,26.616 492.752,26.616 L494.24,26.616 L494.24,29.112 L491.792,29.112 C489.656,29.112 488.528,30.528 488.528,32.256 L488.528,36.888 L493.016,36.888 L493.016,39 L482.624,39 Z M502.664,39.288 C498.872,39.288 496.64,36.768 496.64,32.832 C496.64,28.848 498.944,26.328 502.472,26.328 C505.952,26.328 508.16,28.824 508.16,32.472 L508.16,33.456 L499.28,33.456 L499.28,33.864 C499.28,35.808 500.576,37.176 502.712,37.176 C504.296,37.176 505.448,36.432 506.144,35.28 L507.776,36.72 C506.936,38.16 505.208,39.288 502.664,39.288 Z M502.472,28.32 C500.6,28.32 499.28,29.688 499.28,31.608 L499.28,31.776 L505.496,31.776 L505.496,31.536 C505.496,29.592 504.296,28.32 502.472,28.32 Z M523.016,39 L521.408,39 C519.92,39 519.176,38.16 519.032,36.912 L518.912,36.912 C518.432,38.4 517.136,39.288 515.192,39.288 C512.672,39.288 511.04,37.872 511.04,35.544 C511.04,33.144 512.792,31.848 516.464,31.848 L518.84,31.848 L518.84,30.888 C518.84,29.232 517.952,28.368 516.176,28.368 C514.592,28.368 513.656,29.04 512.984,30.072 L511.424,28.8 C512.12,27.456 513.8,26.328 516.416,26.328 C519.536,26.328 521.456,27.888 521.456,30.72 L521.456,36.936 L523.016,36.936 L523.016,39 Z M515.936,37.368 C517.616,37.368 518.84,36.528 518.84,35.304 L518.84,33.504 L516.512,33.504 C514.592,33.504 513.68,34.104 513.68,35.208 L513.68,35.688 C513.68,36.792 514.544,37.368 515.936,37.368 Z M531.224,39.288 C528.56,39.288 526.592,38.352 525.416,36.912 L527.024,35.472 C528.104,36.648 529.424,37.296 531.272,37.296 C532.952,37.296 534.104,36.744 534.104,35.52 C534.104,34.464 533.264,34.176 532.208,34.032 L530.24,33.72 C528.296,33.432 526.112,32.736 526.112,30.192 C526.112,27.672 528.224,26.328 531.392,26.328 C533.696,26.328 535.352,27.048 536.48,28.272 L535.016,29.808 C534.368,29.064 533.24,28.32 531.296,28.32 C529.592,28.32 528.68,28.896 528.68,29.976 C528.68,31.032 529.544,31.32 530.576,31.464 L532.544,31.776 C534.512,32.064 536.672,32.736 536.672,35.28 C536.672,37.776 534.608,39.288 531.224,39.288 Z M551.072,39 L546.344,39 C544.184,39 543.176,37.704 543.176,35.856 L543.176,28.728 L539.36,28.728 L539.36,26.616 L542.072,26.616 C542.984,26.616 543.344,26.304 543.344,25.344 L543.344,22.248 L545.792,22.248 L545.792,26.616 L551.072,26.616 L551.072,28.728 L545.792,28.728 L545.792,36.888 L551.072,36.888 L551.072,39 Z" id="CA-Breast" fill="#FFFFFF"></path>
                <path d="M589.5,31 L847.5,31" id="Line-Copy-6" stroke="#000000" stroke-width="3" stroke-linecap="square"></path>
                <path id="Line-Copy-6-decoration-1" d="M836.7,34 L847.5,31 L836.7,28" stroke="#000000" stroke-width="3" stroke-linecap="square"></path>
                <path d="M124.5,31 L383.5,31" id="Line-Copy-2" stroke="#000000" stroke-width="3" stroke-linecap="square"></path>
                <path id="Line-Copy-2-decoration-1" d="M372.7,34 L383.5,31 L372.7,28" stroke="#000000" stroke-width="3" stroke-linecap="square"></path>
                <path d="M192.512,18 L192.512,10.248 L192.656,5.4 L192.44,5.4 L189.2,14.016 L185.96,5.4 L185.744,5.4 L185.888,10.248 L185.888,18 L183.152,18 L183.152,1.248 L186.896,1.248 L189.224,7.416 L189.392,7.416 L191.744,1.248 L195.248,1.248 L195.248,18 L192.512,18 Z M209.96,18 L208.16,18 C206.672,18 205.832,17.184 205.688,15.864 L205.568,15.864 C205.112,17.4 203.744,18.288 201.824,18.288 C199.352,18.288 197.744,16.896 197.744,14.568 C197.744,12.072 199.592,10.824 203.24,10.824 L205.424,10.824 L205.424,10.008 C205.424,8.448 204.68,7.632 202.976,7.632 C201.416,7.632 200.528,8.304 199.856,9.264 L198.104,7.776 C198.872,6.408 200.6,5.328 203.288,5.328 C206.528,5.328 208.496,6.888 208.496,9.864 L208.496,15.696 L209.96,15.696 L209.96,18 Z M202.856,16.176 C204.32,16.176 205.424,15.432 205.424,14.256 L205.424,12.6 L203.312,12.6 C201.632,12.6 200.792,13.152 200.792,14.184 L200.792,14.664 C200.792,15.648 201.584,16.176 202.856,16.176 Z M214.232,18 L211.688,18 L211.688,5.616 L214.232,5.616 L214.232,7.32 L214.376,7.32 C214.76,6.216 215.408,5.328 216.728,5.328 C217.976,5.328 218.72,6.096 218.936,7.392 L219.056,7.392 C219.488,6.264 220.208,5.328 221.72,5.328 C223.52,5.328 224.288,6.672 224.288,9.216 L224.288,18 L221.768,18 L221.768,9.576 C221.768,8.136 221.36,7.632 220.568,7.632 C219.824,7.632 219.272,8.112 219.272,9.096 L219.272,18 L216.728,18 L216.728,9.576 C216.728,8.136 216.344,7.632 215.552,7.632 C214.784,7.632 214.232,8.112 214.232,9.096 L214.232,18 Z M228.632,18 L226.088,18 L226.088,5.616 L228.632,5.616 L228.632,7.32 L228.776,7.32 C229.16,6.216 229.808,5.328 231.128,5.328 C232.376,5.328 233.12,6.096 233.336,7.392 L233.456,7.392 C233.888,6.264 234.608,5.328 236.12,5.328 C237.92,5.328 238.688,6.672 238.688,9.216 L238.688,18 L236.168,18 L236.168,9.576 C236.168,8.136 235.76,7.632 234.968,7.632 C234.224,7.632 233.672,8.112 233.672,9.096 L233.672,18 L231.128,18 L231.128,9.576 C231.128,8.136 230.744,7.632 229.952,7.632 C229.184,7.632 228.632,8.112 228.632,9.096 L228.632,18 Z M246.8,18.288 C243.056,18.288 240.752,15.792 240.752,11.808 C240.752,7.824 243.056,5.328 246.8,5.328 C250.544,5.328 252.848,7.824 252.848,11.808 C252.848,15.792 250.544,18.288 246.8,18.288 Z M246.8,15.936 C248.552,15.936 249.656,14.832 249.656,12.768 L249.656,10.848 C249.656,8.784 248.552,7.68 246.8,7.68 C245.048,7.68 243.944,8.784 243.944,10.848 L243.944,12.768 C243.944,14.832 245.048,15.936 246.8,15.936 Z M267.824,19.296 C267.824,21.888 265.688,23.088 261.152,23.088 C256.664,23.088 255.272,21.936 255.272,20.16 C255.272,18.792 256.112,18.12 257.552,17.76 L257.552,17.568 C256.592,17.256 255.992,16.704 255.992,15.696 C255.992,14.472 256.904,13.944 258.224,13.632 L258.224,13.512 C256.76,12.816 255.872,11.496 255.872,9.696 C255.872,6.96 257.936,5.328 261.08,5.328 C261.92,5.328 262.688,5.448 263.336,5.664 L263.336,5.136 C263.336,4.176 263.984,3.456 265.112,3.456 L267.344,3.456 L267.344,5.76 L264.416,5.76 L264.416,6.168 C265.616,6.888 266.312,8.088 266.312,9.696 C266.312,12.456 264.224,14.064 261.08,14.064 C260.456,14.064 259.856,14.016 259.304,13.872 C258.848,14.04 258.344,14.376 258.344,14.952 C258.344,15.72 259.184,15.792 260.216,15.792 L263.024,15.792 C266.456,15.792 267.824,17.232 267.824,19.296 Z M264.944,19.512 C264.944,18.768 264.44,18.312 262.856,18.312 L258.584,18.312 C258.104,18.576 257.864,18.984 257.864,19.512 C257.864,20.376 258.536,21.024 260.24,21.024 L262.232,21.024 C264.032,21.024 264.944,20.496 264.944,19.512 Z M261.08,12.048 C262.64,12.048 263.36,11.208 263.36,10.008 L263.36,9.384 C263.36,8.184 262.64,7.344 261.08,7.344 C259.544,7.344 258.824,8.184 258.824,9.384 L258.824,10.008 C258.824,11.208 259.544,12.048 261.08,12.048 Z M270.2,18 L270.2,15.576 L273.272,15.576 L273.272,8.04 L270.2,8.04 L270.2,5.616 L276.344,5.616 L276.344,9 L276.536,9 C276.992,7.248 278.048,5.616 280.52,5.616 L281.864,5.616 L281.864,8.496 L279.32,8.496 C277.376,8.496 276.344,9.816 276.344,11.4 L276.344,15.576 L280.64,15.576 L280.64,18 L270.2,18 Z M296.36,18 L294.56,18 C293.072,18 292.232,17.184 292.088,15.864 L291.968,15.864 C291.512,17.4 290.144,18.288 288.224,18.288 C285.752,18.288 284.144,16.896 284.144,14.568 C284.144,12.072 285.992,10.824 289.64,10.824 L291.824,10.824 L291.824,10.008 C291.824,8.448 291.08,7.632 289.376,7.632 C287.816,7.632 286.928,8.304 286.256,9.264 L284.504,7.776 C285.272,6.408 287,5.328 289.688,5.328 C292.928,5.328 294.896,6.888 294.896,9.864 L294.896,15.696 L296.36,15.696 L296.36,18 Z M289.256,16.176 C290.72,16.176 291.824,15.432 291.824,14.256 L291.824,12.6 L289.712,12.6 C288.032,12.6 287.192,13.152 287.192,14.184 L287.192,14.664 C287.192,15.648 287.984,16.176 289.256,16.176 Z M300.632,18 L298.088,18 L298.088,5.616 L300.632,5.616 L300.632,7.32 L300.776,7.32 C301.16,6.216 301.808,5.328 303.128,5.328 C304.376,5.328 305.12,6.096 305.336,7.392 L305.456,7.392 C305.888,6.264 306.608,5.328 308.12,5.328 C309.92,5.328 310.688,6.672 310.688,9.216 L310.688,18 L308.168,18 L308.168,9.576 C308.168,8.136 307.76,7.632 306.968,7.632 C306.224,7.632 305.672,8.112 305.672,9.096 L305.672,18 L303.128,18 L303.128,9.576 C303.128,8.136 302.744,7.632 301.952,7.632 C301.184,7.632 300.632,8.112 300.632,9.096 L300.632,18 Z M318.752,18.288 C316.04,18.288 314,17.376 312.896,15.936 L314.696,14.304 C315.704,15.408 317.024,16.056 318.776,16.056 C320.312,16.056 321.32,15.552 321.32,14.496 C321.32,13.608 320.624,13.368 319.616,13.224 L317.624,12.912 C315.56,12.6 313.592,11.784 313.592,9.336 C313.592,6.768 315.68,5.328 319.04,5.328 C321.416,5.328 323.096,6.048 324.176,7.248 L322.568,9.024 C321.872,8.256 320.72,7.56 318.944,7.56 C317.408,7.56 316.592,8.064 316.592,9.024 C316.592,9.912 317.312,10.176 318.32,10.32 L320.288,10.632 C322.376,10.944 324.344,11.736 324.344,14.184 C324.344,16.728 322.256,18.288 318.752,18.288 Z" id="Mammograms" fill="#000000"></path>
                <path d="M675.164,11.496 L675.164,18 L672.02,18 L672.02,1.248 L678.38,1.248 C681.62,1.248 683.42,3.24 683.42,6.432 C683.42,8.88 682.22,10.68 680.132,11.136 L683.708,18 L680.252,18 L677.06,11.496 L675.164,11.496 Z M675.164,9.048 L677.732,9.048 C679.412,9.048 680.108,8.376 680.108,6.888 L680.108,5.976 C680.108,4.488 679.412,3.816 677.732,3.816 L675.164,3.816 L675.164,9.048 Z M691.988,18.288 C688.028,18.288 685.82,15.792 685.82,11.832 C685.82,7.824 688.124,5.328 691.748,5.328 C695.324,5.328 697.58,7.8 697.58,11.544 L697.58,12.552 L688.892,12.552 L688.892,12.864 C688.892,14.64 690.068,15.864 692.084,15.864 C693.596,15.864 694.7,15.192 695.444,14.16 L697.196,15.912 C696.308,17.208 694.604,18.288 691.988,18.288 Z M691.772,7.584 C690.044,7.584 688.892,8.784 688.892,10.56 L688.892,10.728 L694.508,10.728 L694.508,10.512 C694.508,8.736 693.452,7.584 691.772,7.584 Z M700.556,22.8 L700.556,5.616 L703.628,5.616 L703.628,7.8 L703.796,7.8 C704.468,6.312 705.596,5.328 707.492,5.328 C710.324,5.328 712.22,7.44 712.22,11.808 C712.22,16.176 710.324,18.288 707.492,18.288 C705.596,18.288 704.468,17.304 703.796,15.816 L703.628,15.816 L703.628,22.8 L700.556,22.8 Z M706.196,15.84 C707.972,15.84 709.004,14.664 709.004,12.792 L709.004,10.824 C709.004,8.952 707.972,7.776 706.196,7.776 C704.804,7.776 703.628,8.448 703.628,9.864 L703.628,13.752 C703.628,15.168 704.804,15.84 706.196,15.84 Z M720.5,18.288 C716.756,18.288 714.452,15.792 714.452,11.808 C714.452,7.824 716.756,5.328 720.5,5.328 C724.244,5.328 726.548,7.824 726.548,11.808 C726.548,15.792 724.244,18.288 720.5,18.288 Z M720.5,15.936 C722.252,15.936 723.356,14.832 723.356,12.768 L723.356,10.848 C723.356,8.784 722.252,7.68 720.5,7.68 C718.748,7.68 717.644,8.784 717.644,10.848 L717.644,12.768 C717.644,14.832 718.748,15.936 720.5,15.936 Z M729.5,18 L729.5,15.576 L732.572,15.576 L732.572,8.04 L729.5,8.04 L729.5,5.616 L735.644,5.616 L735.644,9 L735.836,9 C736.292,7.248 737.348,5.616 739.82,5.616 L741.164,5.616 L741.164,8.496 L738.62,8.496 C736.676,8.496 735.644,9.816 735.644,11.4 L735.644,15.576 L739.94,15.576 L739.94,18 L729.5,18 Z M754.796,18 L750.14,18 C747.788,18 746.684,16.608 746.684,14.64 L746.684,8.04 L743.084,8.04 L743.084,5.616 L745.532,5.616 C746.516,5.616 746.9,5.28 746.9,4.248 L746.9,1.248 L749.756,1.248 L749.756,5.616 L754.796,5.616 L754.796,8.04 L749.756,8.04 L749.756,15.576 L754.796,15.576 L754.796,18 Z M763.652,18.288 C760.94,18.288 758.9,17.376 757.796,15.936 L759.596,14.304 C760.604,15.408 761.924,16.056 763.676,16.056 C765.212,16.056 766.22,15.552 766.22,14.496 C766.22,13.608 765.524,13.368 764.516,13.224 L762.524,12.912 C760.46,12.6 758.492,11.784 758.492,9.336 C758.492,6.768 760.58,5.328 763.94,5.328 C766.316,5.328 767.996,6.048 769.076,7.248 L767.468,9.024 C766.772,8.256 765.62,7.56 763.844,7.56 C762.308,7.56 761.492,8.064 761.492,9.024 C761.492,9.912 762.212,10.176 763.22,10.32 L765.188,10.632 C767.276,10.944 769.244,11.736 769.244,14.184 C769.244,16.728 767.156,18.288 763.652,18.288 Z" id="Reports" fill="#000000"></path>
            </g>
        </g>
    </g>
</svg>