<?xml version="1.0" encoding="UTF-8"?>
<svg width="368px" height="413px" viewBox="0 0 368 413" version="1.1" xmlns="http://www.w3.org/2000/svg" xmlns:xlink="http://www.w3.org/1999/xlink">
    <!-- Generator: Sketch 49.3 (51167) - http://www.bohemiancoding.com/sketch -->
    <title>hourglass</title>
    <desc>Created with Sketch.</desc>
    <defs>
        <path d="M97.3748866,393.092775 C112.332595,389.051541 152.981444,366.349887 165.408507,363.894676 C177.83557,361.439465 193.798469,387.443918 203.678139,392.212802 C204.510683,392.614669 207.829907,389.292276 205.900013,388.347926 C194.78837,382.910698 195.185738,360.469918 166.407502,350.555427 C137.629266,340.640936 86.9073961,393.092775 97.3748866,393.092775 Z" id="path-1"></path>
        <rect id="path-2" x="0.424164524" y="0.583547558" width="42.159383" height="12.3393316"></rect>
        <rect id="path-3" x="-5.68434189e-14" y="0.539639331" width="42.159383" height="10.8922373"></rect>
        <rect id="path-4" x="0.141388175" y="0.159383033" width="42.159383" height="16.4524422"></rect>
        <rect id="path-5" x="-5.68434189e-14" y="0.479434447" width="42.159383" height="16.4524422"></rect>
        <rect id="path-6" x="0.424164524" y="0.424164524" width="42.159383" height="16.4524422"></rect>
        <rect id="path-7" x="0" y="0.848329049" width="42.159383" height="12.3393316"></rect>
        <rect id="path-8" x="-5.68434189e-14" y="0.979434447" width="42.159383" height="16.4524422"></rect>
    </defs>
    <g id="Page-1" stroke="none" stroke-width="1" fill="none" fill-rule="evenodd">
        <g id="Artboard" transform="translate(-454.000000, -50.000000)">
            <g id="hourglass" transform="translate(454.000000, 51.000000)">
                <ellipse id="Oval-2" fill="#000000" opacity="0.204483696" cx="184" cy="400.824742" rx="184" ry="10.8247423"></ellipse>
                <path d="M24.1696658,381.110888 C22.2990205,393.221993 103.861183,397.943445 183.552699,397.943445 C263.244216,397.943445 345.41253,389.527166 342.935733,381.110888 C303.295053,381.110888 64.558384,381.110888 24.1696658,381.110888 Z" id="Path-8-Copy" fill="#000000" transform="translate(183.564226, 389.527166) scale(1, -1) translate(-183.564226, -389.527166) "></path>
                <path d="M169.236955,397.943445 L169.236955,200.148688 C169.273389,199.76115 169.29181,199.368905 169.29181,198.971722 C169.29181,165.367231 33.9930349,155.14026 19.3301016,58.8186151 L348.559461,58.8186151 C333.854991,155.14026 198.559414,165.367231 198.559414,198.971722 C198.559414,199.060129 198.561462,265.384037 198.565559,397.943445 L169.236955,397.943445 Z M198.565559,199.367911 L198.565559,397.943445 M169.236955,200.148688 L169.236955,397.943445" id="Combined-Shape" stroke="#000000" stroke-width="2" fill="#000000" stroke-linecap="round" stroke-linejoin="round"></path>
                <path d="M51.8788311,290.139212 C51.8788311,276.609727 59.8665965,258.293399 70.6766092,263.157596 C81.486622,268.021794 74.0819069,286.003477 74.0819069,296.416449 C59.0073679,285.371039 55.3540031,290.139212 51.8788311,290.139212 Z" id="Path-10" fill="#0000FF"></path>
                <path d="M117.969354,299.479529 C115.114566,290.517847 121.083279,282.357155 122.297096,281.754942 C123.510913,281.152729 119.292246,289.062671 119.934979,289.641475 C121.377452,287.263639 125.255802,280.938302 125.983456,281.754942 C126.71111,282.571583 121.242667,290.01358 122.833967,291.001163 C123.985363,289.352936 129.309091,281.359521 129.883067,282.900426 C130.457042,284.441331 124.462517,290.404802 125.021903,294.471211 C124.900336,296.098033 129.485407,291.888509 129.092237,293.483443 C128.699068,295.078378 128.103278,296.01539 123.649109,299.479529 C120.984363,300.739443 119.969727,300.338656 117.969354,299.479529 Z" id="Path-4-Copy-2" fill="#0000FF" transform="translate(123.563213, 290.981919) rotate(20.000000) translate(-123.563213, -290.981919) "></path>
                <g id="Group-2" transform="translate(135.210981, 272.215213) rotate(25.000000) translate(-135.210981, -272.215213) translate(113.210981, 245.215213)" fill="#000000" stroke="#FFFFFF" stroke-width="2">
                    <path d="M4.33561514,11.6528982 L28.7169237,3.20648423 C33.6057911,15.7314643 36.6844083,27.6834735 37.9527753,39.0625117 C28.8874416,46.3436093 25.3947637,45.6472196 12.6733831,50.9047324 C12.6733831,42.6118424 9.89412709,29.5278976 4.33561514,11.6528982 Z" id="Path-12-Copy" transform="translate(21.144195, 27.055608) rotate(-10.000000) translate(-21.144195, -27.055608) "></path>
                    <path d="M9.60490291,14.2093557 L33.9862114,5.76294175 C38.8750789,18.2879218 41.9536961,30.239931 43.2220631,41.6189692 C34.1567294,48.9000668 30.6640514,48.2036772 17.9426708,53.4611899 C17.9426708,45.1682999 15.1634149,32.0843552 9.60490291,14.2093557 Z" id="Path-12"></path>
                </g>
                <path d="M137.868954,302.122396 C135.014166,293.160714 140.982879,285.000022 142.196696,284.397809 C143.410513,283.795596 139.191846,291.705538 139.834579,292.284342 C141.277052,289.906506 145.155402,283.581169 145.883056,284.397809 C146.61071,285.21445 141.142267,292.656447 142.733567,293.64403 C143.884963,291.995803 149.208691,284.002387 149.782667,285.543293 C150.356642,287.084198 144.362117,293.047669 144.921503,297.114078 C144.799936,298.740899 149.385007,294.531376 148.991837,296.12631 C148.598668,297.721244 148.002878,298.658257 143.548709,302.122396 C140.883963,303.38231 139.869327,302.981523 137.868954,302.122396 Z" id="Path-4-Copy" fill="#0000FF" transform="translate(143.462813, 293.624786) scale(-1, 1) rotate(-50.000000) translate(-143.462813, -293.624786) "></path>
                <g id="Path-11-Copy" stroke-linecap="round" stroke-linejoin="round">
                    <use fill="#000000" fill-rule="evenodd" xlink:href="#path-1"></use>
                    <path stroke="#FFFFFF" stroke-width="2" d="M97.3748866,394.092775 C95.3356184,394.092775 94.5656541,392.596725 95.2008294,390.560555 C95.6832683,389.014011 96.9618796,386.922276 98.9112742,384.435195 C102.915529,379.326477 109.366145,373.023003 116.552606,367.322706 C135.048649,352.651655 153.600423,345.085534 166.733227,349.609963 C177.755373,353.407241 185.261774,359.129821 191.187753,367.082746 C192.685224,369.092419 194.033413,371.161421 195.590674,373.765203 C195.836525,374.176272 198.435208,378.618737 199.162419,379.79382 C201.715729,383.919652 203.745424,386.180326 206.339541,387.449697 C207.968218,388.246653 207.768706,389.901844 206.616952,391.395766 C205.626275,392.680757 204.262032,393.605049 203.243435,393.113376 C199.678148,391.392424 198.639304,390.393737 187.710556,379.037571 C184.292244,375.485571 181.84503,373.093146 179.417705,371.014893 C173.854872,366.252047 169.365143,364.132295 165.60233,364.875713 C160.354022,365.912619 152.477682,369.389378 131.109152,379.595363 C130.983177,379.65553 130.983177,379.65553 130.857199,379.715697 C111.744489,388.84383 103.689068,392.422681 97.635712,394.058161 L97.5075961,394.092775 L97.3748866,394.092775 Z"></path>
                </g>
                <path d="M213.30012,383.059429 C205.503778,383.645239 196.994641,386.87005 199.425818,389.167732 C199.425818,389.547812 211.074643,390.554869 216.696121,389.419369 C221.122946,386.233363 216.806201,382.795986 213.30012,383.059429 Z" id="Path-6-Copy-2" fill="#0000FF" transform="translate(208.790349, 386.494288) scale(-1, 1) rotate(50.000000) translate(-208.790349, -386.494288) "></path>
                <path d="M244.170814,389.604423 C218.701963,346.431409 192.876787,333.149871 170.686315,334.068908 C138.851852,335.387359 110.340412,373.745114 96.3779728,361.725034 C91.5317091,374.723441 79.3370828,376.331758 68.8801253,380.292824 C71.0307641,386.73551 78.567575,396.291645 97.262064,395.387238 C136.840221,393.472514 147.437733,363.617311 165.831154,353.037285 C184.224574,342.457258 226.050325,374.061292 240.128333,395.387238" id="Path-11" stroke="#FFFFFF" stroke-width="2" fill="#000000" stroke-linecap="round" stroke-linejoin="round"></path>
                <path d="M142.099409,302.516647 C119.589159,329.693658 111.229242,344.35705 85.0988411,320.612471 C86.5377801,339.173569 86.1963599,354.2671 96.1275548,363.796561 C90.0830383,372.86162 87.9348258,375.039793 70.5540668,379.999185 C46.9096344,361.717311 43.7113833,334.440519 51.933162,290.630569 C53.2314225,287.727113 65.717502,286.855103 74.8004842,295.038534 C101.946668,319.496242 106.092044,335.756251 137.854983,301.415675" id="Path-9" stroke="#000000" stroke-width="2" stroke-linecap="round" stroke-linejoin="round"></path>
                <g id="pile" transform="translate(254.503856, 307.020566)">
                    <g id="Group-8" transform="translate(15.000000, 77.000000)">
                        <g id="Rectangle-Copy-8">
                            <use fill="#FFFFFF" fill-rule="evenodd" xlink:href="#path-2"></use>
                            <rect stroke="#000000" stroke-width="2" x="1.42416452" y="1.58354756" width="40.159383" height="10.3393316"></rect>
                        </g>
                        <rect id="Rectangle-Copy-9" fill="#000000" x="40.9997647" y="0.583547558" width="32.4321119" height="12.3393316"></rect>
                        <path d="M12.2493573,7.26735219 L41.0411311,7.26735219" id="Line-Copy-13" stroke="#000000" stroke-width="2" stroke-linecap="square"></path>
                        <path d="M42.0694087,7.35218509 L61.6066838,7.35218509" id="Line-Copy-27" stroke="#CCCCCC" stroke-width="2" stroke-linecap="square"></path>
                    </g>
                    <g id="Group-5" transform="translate(3.000000, 0.000000)">
                        <g id="Rectangle-Copy-12">
                            <use fill="#FFFFFF" fill-rule="evenodd" xlink:href="#path-3"></use>
                            <rect stroke="#000000" stroke-width="2" x="1" y="1.53963933" width="40.159383" height="8.89223728"></rect>
                        </g>
                        <rect id="Rectangle-Copy-13" fill="#000000" x="40.4162171" y="0.539639331" width="32.4321119" height="10.8922373"></rect>
                        <path d="M1.99614396,5.54241645 L23.3059126,5.54241645" id="Line-Copy-31" stroke="#000000" stroke-width="2" stroke-linecap="square"></path>
                        <path d="M55.4614329,6 L71.8521228,6" id="Line-Copy-41" stroke="#CCCCCC" stroke-width="2" stroke-linecap="square"></path>
                    </g>
                    <g id="Group" transform="translate(5.000000, 63.000000)">
                        <g id="Rectangle-Copy-6">
                            <use fill="#FFFFFF" fill-rule="evenodd" xlink:href="#path-4"></use>
                            <rect stroke="#000000" stroke-width="2" x="1.14138817" y="1.15938303" width="40.159383" height="14.4524422"></rect>
                        </g>
                        <rect id="Rectangle-Copy-7" fill="#000000" x="40.7169884" y="0.159383033" width="32.4321119" height="16.4524422"></rect>
                        <path d="M1.68380463,5.89974293 L30.4755784,5.89974293" id="Line-Copy-8" stroke="#000000" stroke-width="2" stroke-linecap="square"></path>
                        <path d="M52.0694087,10.9845758 L72.133738,10.9845758" id="Line-Copy-23" stroke="#CCCCCC" stroke-width="2" stroke-linecap="square"></path>
                        <path d="M1.68380463,9.9562982 L26.3624679,9.9562982" id="Line-Copy-9" stroke="#000000" stroke-width="2" stroke-linecap="square"></path>
                    </g>
                    <g id="Group-4" transform="translate(11.000000, 9.000000)">
                        <g id="Rectangle-Copy-10">
                            <use fill="#FFFFFF" fill-rule="evenodd" xlink:href="#path-5"></use>
                            <rect stroke="#000000" stroke-width="2" x="1" y="1.47943445" width="40.159383" height="14.4524422"></rect>
                        </g>
                        <rect id="Rectangle-Copy-11" fill="#000000" x="40.4162171" y="0.479434447" width="32.4321119" height="16.4524422"></rect>
                        <path d="M44,7 L68.4820051,7" id="Line-Copy-42" stroke="#CCCCCC" stroke-width="2" stroke-linecap="square"></path>
                        <path d="M16.5141388,10.5424165 L39.1660733,10.5424165" id="Line-Copy-34" stroke="#000000" stroke-width="2" stroke-linecap="square"></path>
                        <path d="M41.1792078,10.5424165 L55.1928021,10.5424165" id="Line-Copy-43" stroke="#CCCCCC" stroke-width="2" stroke-linecap="square"></path>
                    </g>
                    <g id="Group-7" transform="translate(16.000000, 38.000000)">
                        <g id="Rectangle-Copy-2">
                            <use fill="#FFFFFF" fill-rule="evenodd" xlink:href="#path-6"></use>
                            <rect stroke="#000000" stroke-width="2" x="1.42416452" y="1.42416452" width="40.159383" height="14.4524422"></rect>
                        </g>
                        <rect id="Rectangle-Copy-3" fill="#000000" x="40.9997647" y="0.424164524" width="32.4321119" height="16.4524422"></rect>
                        <path d="M1.96658098,9.13624679 L31.8099903,9.13624679" id="Line-Copy-30" stroke="#000000" stroke-width="2" stroke-linecap="square"></path>
                        <path d="M40.9997647,5.07969152 L51.3239075,5.07969152" id="Line-Copy-15" stroke="#CCCCCC" stroke-width="2" stroke-linecap="square"></path>
                        <path d="M57.4935733,12.2493573 L72.496144,12.2493573" id="Line-Copy-17" stroke="#CCCCCC" stroke-width="2" stroke-linecap="square"></path>
                        <path d="M17.3907455,5.07969152 L39.5764198,5.07969152" id="Line-Copy-5" stroke="#000000" stroke-width="2" stroke-linecap="square"></path>
                    </g>
                    <g id="Group-3" transform="translate(0.000000, 52.000000)">
                        <g id="Rectangle-Copy-4">
                            <use fill="#FFFFFF" fill-rule="evenodd" xlink:href="#path-7"></use>
                            <rect stroke="#000000" stroke-width="2" x="1" y="1.84832905" width="40.159383" height="10.3393316"></rect>
                        </g>
                        <rect id="Rectangle-Copy-5" fill="#000000" x="40.5756002" y="0.848329049" width="32.4321119" height="12.3393316"></rect>
                        <path d="M41.2067352,6.97943445 L46.7866324,6.97943445" id="Line-Copy-14" stroke="#CCCCCC" stroke-width="2" stroke-linecap="square"></path>
                        <path d="M20.2665579,6.97943445 L39.1501122,6.97943445" id="Line-Copy-7" stroke="#000000" stroke-width="2" stroke-linecap="square"></path>
                    </g>
                    <g id="Group-6" transform="translate(5.000000, 23.000000)">
                        <g id="Rectangle">
                            <use fill="#FFFFFF" fill-rule="evenodd" xlink:href="#path-8"></use>
                            <rect stroke="#000000" stroke-width="2" x="1" y="1.97943445" width="40.159383" height="14.4524422"></rect>
                        </g>
                        <rect id="Rectangle-Copy" fill="#000000" x="40.4162171" y="1" width="32.4321119" height="16.4524422"></rect>
                        <path d="M1.51413882,6.54241645 L30.3059126,6.54241645" id="Line" stroke="#000000" stroke-width="2" stroke-linecap="square"></path>
                        <path d="M56.2107969,10.7969152 L71.896144,10.7969152" id="Line-Copy-18" stroke="#CCCCCC" stroke-width="2" stroke-linecap="square"></path>
                        <path d="M46.5141388,6.54241645 L62.966581,6.54241645" id="Line-Copy-20" stroke="#CCCCCC" stroke-width="2" stroke-linecap="square"></path>
                        <path d="M17.5141388,11.5424165 L42.1928021,11.5424165" id="Line-Copy-3" stroke="#000000" stroke-width="2" stroke-linecap="square"></path>
                        <path d="M1.68380463,11.8534704 L4.76863753,11.8534704" id="Line-Copy-4" stroke="#000000" stroke-width="2" stroke-linecap="square"></path>
                    </g>
                </g>
                <path d="M254.847486,388.048492 C246.734365,388.658104 236.062253,391.045048 238.592212,393.436088 C238.592212,393.831612 253.776488,394.617725 259.626376,393.436088 C262.526883,392.850206 258.496024,387.774345 254.847486,388.048492 Z" id="Path-6-Copy" fill="#0000FF" transform="translate(249.415746, 391.049210) scale(-1, 1) rotate(20.000000) translate(-249.415746, -391.049210) "></path>
                <path d="M169.29181,198.971722 C169.29181,238.435683 -12.5673941,229.147104 23.9555647,397.943445 L343.895659,397.943445 C380.418618,229.147104 198.559414,238.435683 198.559414,198.971722 C198.559414,159.507762 385.15024,152.28455 343.895659,1.01285668e-13 L24.0228386,1.01285668e-13 C-17.299016,152.28455 169.29181,159.507762 169.29181,198.971722 Z" id="Path-7" stroke="#000000" stroke-width="2" stroke-linecap="round" stroke-linejoin="round"></path>
                <path d="M80.7364129,300.55014 C91.2091554,303.803603 102.838482,302.571124 115.624393,296.852705" id="Path-14" stroke="#000000" stroke-width="2" stroke-linecap="round" stroke-linejoin="round"></path>
                <path d="M90.114878,309.228406 C95.316615,310.391857 104.736966,307.060134 118.375932,299.233235" id="Path-15" stroke="#000000" stroke-width="2" stroke-linecap="round" stroke-linejoin="round"></path>
                <ellipse id="Oval-3" stroke="#000000" stroke-width="2" transform="translate(76.429475, 279.120805) rotate(10.000000) translate(-76.429475, -279.120805) " cx="76.4294747" cy="279.120805" rx="3.0848329" ry="5.14138817"></ellipse>
                <path d="M73.0585353,278.653173 C66.736575,276.982719 62.8867004,276.084285 61.5089114,275.957871 C59.442228,275.76825 58.6573593,276.14247 58.3704658,277.305522 C58.1792035,278.08089 58.9140269,278.893769 60.5749359,279.744161" id="Path-13" stroke="#000000" stroke-width="2" stroke-linecap="round" stroke-linejoin="round"></path>
            </g>
        </g>
    </g>
</svg>