<svg height="413" viewBox="0 0 368 413" width="368" xmlns="http://www.w3.org/2000/svg"><g fill="none" fill-rule="evenodd" transform="translate(0 1)"><ellipse cx="184" cy="400.824742" fill="#000" opacity=".204484" rx="184" ry="10.824742"/><path d="m24.1696658 381.110888c-1.8706453 12.111105 79.6915172 16.832557 159.3830332 16.832557 79.691517 0 161.859831-8.416279 159.383034-16.832557-39.64068 0-278.377349 0-318.7660672 0z" fill="#000" transform="matrix(1 0 0 -1 0 779.054332)"/><path d="m169.236955 397.943445v-197.794757c.036434-.387538.054855-.779783.054855-1.176966 0-33.604491-135.2987751-43.831462-149.9617084-140.1531069 49.810861-7.119724 104.6824214-7.119724 164.6146804 0 59.932258 7.119724 114.803818 7.119724 164.614679 0-14.70447 96.3216449-150.000047 106.5486159-150.000047 140.1531069 0 .088407.002048 66.412315.006145 198.971723zm29.328604-198.575534v198.575534m-29.328604-197.794757v197.794757" fill="#000" stroke="#000" stroke-linecap="round" stroke-linejoin="round" stroke-width="2"/><path d="m51.8788311 290.139212c0-13.529485 7.9877654-31.845813 18.7977781-26.981616 10.8100128 4.864198 3.4052977 22.845881 3.4052977 33.258853-15.074539-11.04541-18.7279038-6.277237-22.2030758-6.277237z" fill="#00f"/><path d="m117.969354 299.479529c-2.854788-8.961682 3.113925-17.122374 4.327742-17.724587s-3.00485 7.307729-2.362117 7.886533c1.442473-2.377836 5.320823-8.703173 6.048477-7.886533.727654.816641-4.740789 8.258638-3.149489 9.246221 1.151396-1.648227 6.475124-9.641642 7.0491-8.100737.573975 1.540905-5.42055 7.504376-4.861164 11.570785-.121567 1.626822 4.463504-2.582702 4.070334-.987768-.393169 1.594935-.988959 2.531947-5.443128 5.996086-2.664746 1.259914-3.679382.859127-5.679755 0z" fill="#00f" transform="matrix(.93969262 .34202014 -.34202014 .93969262 106.973451 -24.712751)"/><g fill="#000" stroke="#fff" stroke-width="2" transform="matrix(.90630779 .42261826 -.42261826 .90630779 126.682903 238.447301)"><path d="m4.33561514 11.6528982 24.38130856-8.44641397c4.8888674 12.52498007 7.9674846 24.47698927 9.2358516 35.85602747-9.0653337 7.2810976-12.5580116 6.5847079-25.2793922 11.8422207 0-8.29289-2.77925601-21.3768348-8.33776796-39.2518342z" transform="matrix(.98480775 -.17364818 .17364818 .98480775 -4.376929 4.082686)"/><path d="m9.60490291 14.2093557 24.38130849-8.44641395c4.8888675 12.52498005 7.9674847 24.47698925 9.2358517 35.85602745-9.0653337 7.2810976-12.5580117 6.584708-25.2793923 11.8422207 0-8.29289-2.7792559-21.3768347-8.33776789-39.2518342z"/></g><path d="m137.868954 302.122396c-2.854788-8.961682 3.113925-17.122374 4.327742-17.724587s-3.00485 7.307729-2.362117 7.886533c1.442473-2.377836 5.320823-8.703173 6.048477-7.886533.727654.816641-4.740789 8.258638-3.149489 9.246221 1.151396-1.648227 6.475124-9.641643 7.0491-8.100737.573975 1.540905-5.42055 7.504376-4.861164 11.570785-.121567 1.626821 4.463504-2.582702 4.070334-.987768-.393169 1.594934-.988959 2.531947-5.443128 5.996086-2.664746 1.259914-3.679382.859127-5.679755 0z" fill="#00f" transform="matrix(-.64278761 -.76604444 -.76604444 .64278761 460.608567 214.785302)"/><g stroke-linecap="round" stroke-linejoin="round"><path d="m97.3748866 393.092775c14.9577084-4.041234 55.6065574-26.742888 68.0336204-29.198099s28.389962 23.549242 38.269632 28.318126c.832544.401867 4.151768-2.920526 2.221874-3.864876-11.111643-5.437228-10.714275-27.878008-39.492511-37.792499s-79.5001059 42.537348-69.0326154 42.537348z" fill="#000" fill-rule="evenodd"/><path d="m97.3748866 394.092775c-2.0392682 0-2.8092325-1.49605-2.1740572-3.53222.4824389-1.546544 1.7610502-3.638279 3.7104448-6.12536 4.0042548-5.108718 10.4548708-11.412192 17.6413318-17.112489 18.496043-14.671051 37.047817-22.237172 50.180621-17.712743 11.022146 3.797278 18.528547 9.519858 24.454526 17.472783 1.497471 2.009673 2.84566 4.078675 4.402921 6.682457.245851.411069 2.844534 4.853534 3.571745 6.028617 2.55331 4.125832 4.583005 6.386506 7.177122 7.655877 1.628677.796956 1.429165 2.452147.277411 3.946069-.990677 1.284991-2.35492 2.209283-3.373517 1.71761-3.565287-1.720952-4.604131-2.719639-15.532879-14.075805-3.418312-3.552-5.865526-5.944425-8.292851-8.022678-5.562833-4.762846-10.052562-6.882598-13.815375-6.13918-5.248308 1.036906-13.124648 4.513665-34.493178 14.71965-.125975.060167-.125975.060167-.251953.120334-19.11271 9.128133-27.168131 12.706984-33.221487 14.342464l-.1281159.034614z" stroke="#fff" stroke-width="2"/></g><path d="m213.853624 382.167352c-8.325258.625552-17.411668 4.069139-14.815556 6.522699 0 .405865 12.439099 1.481242 18.441947.268709 4.727147-3.40215.117548-7.072724-3.626391-6.791408z" fill="#00f" transform="matrix(-.64278761 .76604444 .76604444 .64278761 47.837938 -22.307197)"/><path d="m244.170814 389.604423c-25.468851-43.173014-51.294027-56.454552-73.484499-55.535515-31.834463 1.318451-60.345903 39.676206-74.3083422 27.656126-4.8462637 12.998407-17.04089 14.606724-27.4978475 18.56779 2.1506388 6.442686 9.6874497 15.998821 28.3819387 15.094414 39.578157-1.914724 50.175669-31.769927 68.56909-42.349953 18.39342-10.580027 60.219171 21.024007 74.297179 42.349953" fill="#000" stroke="#fff" stroke-linecap="round" stroke-linejoin="round" stroke-width="2"/><path d="m142.099409 302.516647c-22.51025 27.177011-30.870167 41.840403-57.0005679 18.095824 1.438939 18.561098 1.0975188 33.654629 11.0287137 43.18409-6.0445165 9.065059-8.192729 11.243232-25.573488 16.202624-23.6444324-18.281874-26.8426835-45.558666-18.6209048-89.368616 1.2982605-2.903456 13.78434-3.775466 22.8673222 4.407965 27.1461838 24.457708 31.2915598 40.717717 63.0544988 6.377141" stroke="#000" stroke-linecap="round" stroke-linejoin="round" stroke-width="2"/><g transform="translate(269.503856 384.020566)"><path d="m.424165.583548h42.159383v12.339332h-42.159383z" fill="#fff" fill-rule="evenodd"/><path d="m1.424165 1.583548h40.159383v10.339332h-40.159383z" stroke="#000" stroke-width="2"/><path d="m40.999765.583548h32.432112v12.339332h-32.432112z" fill="#000"/><g stroke-linecap="square" stroke-width="2"><path d="m12.2493573 7.26735219h28.7917738" stroke="#000"/><path d="m42.0694087 7.35218509h19.5372751" stroke="#ccc"/></g></g><g transform="translate(257.503856 307.020566)"><path d="m0 .539639h42.159383v10.892237h-42.159383z" fill="#fff" fill-rule="evenodd"/><path d="m1 1.539639h40.159383v8.892237h-40.159383z" stroke="#000" stroke-width="2"/><path d="m40.416217.539639h32.432112v10.892237h-32.432112z" fill="#000"/><g stroke-linecap="square" stroke-width="2"><path d="m1.99614396 5.54241645h21.30976864" stroke="#000"/><path d="m55.4614329 6h16.3906899" stroke="#ccc"/></g></g><g transform="translate(259.503856 370.020566)"><path d="m.141388.159383h42.159383v16.452442h-42.159383z" fill="#fff" fill-rule="evenodd"/><path d="m1.141388 1.159383h40.159383v14.452442h-40.159383z" stroke="#000" stroke-width="2"/><path d="m40.716988.159383h32.432112v16.452442h-32.432112z" fill="#000"/><g stroke-linecap="square" stroke-width="2"><path d="m1.68380463 5.89974293h28.79177377" stroke="#000"/><path d="m52.0694087 10.9845758h20.0643293" stroke="#ccc"/><path d="m1.68380463 9.9562982h24.67866327" stroke="#000"/></g></g><g transform="translate(265.503856 316.020566)"><path d="m0 .479434h42.159383v16.452442h-42.159383z" fill="#fff" fill-rule="evenodd"/><path d="m1 1.479434h40.159383v14.452442h-40.159383z" stroke="#000" stroke-width="2"/><path d="m40.416217.479434h32.432112v16.452442h-32.432112z" fill="#000"/><g stroke-linecap="square" stroke-width="2"><path d="m44 7h24.4820051" stroke="#ccc"/><path d="m16.5141388 10.5424165h22.6519345" stroke="#000"/><path d="m41.1792078 10.5424165h14.0135943" stroke="#ccc"/></g></g><g transform="translate(270.503856 345.020566)"><path d="m.424165.424165h42.159383v16.452442h-42.159383z" fill="#fff" fill-rule="evenodd"/><path d="m1.424165 1.424165h40.159383v14.452442h-40.159383z" stroke="#000" stroke-width="2"/><path d="m40.999765.424165h32.432112v16.452442h-32.432112z" fill="#000"/><g stroke-linecap="square" stroke-width="2"><path d="m1.96658098 9.13624679h29.84340932" stroke="#000"/><path d="m40.9997647 5.07969152h10.3241428" stroke="#ccc"/><path d="m57.4935733 12.2493573h15.0025707" stroke="#ccc"/><path d="m17.3907455 5.07969152h22.1856743" stroke="#000"/></g></g><g transform="translate(254.503856 359.020566)"><path d="m0 .848329h42.159383v12.339332h-42.159383z" fill="#fff" fill-rule="evenodd"/><path d="m1 1.848329h40.159383v10.339332h-40.159383z" stroke="#000" stroke-width="2"/><path d="m40.5756.848329h32.432112v12.339332h-32.432112z" fill="#000"/><g stroke-linecap="square" stroke-width="2"><path d="m41.2067352 6.97943445h5.5798972" stroke="#ccc"/><path d="m20.2665579 6.97943445h18.8835543" stroke="#000"/></g></g><g transform="translate(259.503856 330.020566)"><path d="m0 .979434h42.159383v16.452442h-42.159383z" fill="#fff" fill-rule="evenodd"/><path d="m1 1.979434h40.159383v14.452442h-40.159383z" stroke="#000" stroke-width="2"/><path d="m40.416217 1h32.432112v16.452442h-32.432112z" fill="#000"/><g stroke-linecap="square" stroke-width="2"><path d="m1.51413882 6.54241645h28.79177378" stroke="#000"/><path d="m56.2107969 10.7969152h15.6853471" stroke="#ccc"/><path d="m46.5141388 6.54241645h16.4524422" stroke="#ccc"/><path d="m17.5141388 11.5424165h24.6786633" stroke="#000"/><path d="m1.68380463 11.8534704h3.0848329" stroke="#000"/></g></g><path d="m256.698693 386.850365c-9.119185.685207-21.114686 3.368142-18.271 6.055682 0 .444571 17.067193 1.328166 23.642494 0 3.260183-.658534-1.27052-6.363825-5.371494-6.055682z" fill="#00f" transform="matrix(-.93969262 .34202014 .34202014 .93969262 352.609966 -62.174651)"/><g stroke="#000" stroke-width="2"><path d="m169.29181 198.971722c0 39.463961-181.8592041 30.175382-145.3362453 198.971723h319.9400943c36.522959-168.796341-145.336245-159.507762-145.336245-198.971723 0-39.46396 186.590826-46.687172 145.336245-198.971722h-319.8728204c-41.3218546 152.28455 145.2689714 159.507762 145.2689714 198.971722z" stroke-linecap="round" stroke-linejoin="round"/><path d="m80.7364129 300.55014c10.4727425 3.253463 22.1020691 2.020984 34.8879801-3.697435" stroke-linecap="round" stroke-linejoin="round"/><path d="m90.114878 309.228406c5.201737 1.163451 14.622088-2.168272 28.261054-9.995171" stroke-linecap="round" stroke-linejoin="round"/><ellipse cx="76.429475" cy="279.120805" rx="3.084833" ry="5.141388" transform="matrix(.98480775 .17364818 -.17364818 .98480775 49.629955 -9.031367)"/><path d="m73.0585353 278.653173c-6.3219603-1.670454-10.1718349-2.568888-11.5496239-2.695302-2.0666834-.189621-2.8515521.184599-3.1384456 1.347651-.1912623.775368.5435611 1.588247 2.2044701 2.438639" stroke-linecap="round" stroke-linejoin="round"/></g></g></svg>