<?xml version="1.0" encoding="UTF-8"?>
<svg width="976px" height="224px" viewBox="0 0 976 224" version="1.1" xmlns="http://www.w3.org/2000/svg" xmlns:xlink="http://www.w3.org/1999/xlink">
    <!-- Generator: Sketch 50.2 (55047) - http://www.bohemiancoding.com/sketch -->
    <title>normalread</title>
    <desc>Created with Sketch.</desc>
    <defs></defs>
    <g id="Page-1" stroke="none" stroke-width="1" fill="none" fill-rule="evenodd">
        <g id="charts" transform="translate(-59.000000, -248.000000)">
            <g id="normalread" transform="translate(59.000000, 248.000000)">
                <rect id="Rectangle-14-Copy" stroke="#000000" stroke-width="3" x="1.5" y="86.5" width="122" height="57" rx="5"></rect>
                <rect id="Rectangle-14-Copy-5" stroke="#000000" stroke-width="3" x="852.5" y="85.5" width="122" height="57" rx="5"></rect>
                <rect id="Rectangle-14-Copy-3" fill="#000000" x="348" y="164" width="200" height="60" rx="5"></rect>
                <rect id="Rectangle-14-Copy-4" fill="#0000FF" x="348" y="4" width="200" height="60" rx="5"></rect>
                <path d="M39.384,125.112 L39.384,127.392 L36.144,127.392 C33.768,127.392 32.832,126.072 32.832,124.104 L32.832,123.168 C29.424,122.568 27.864,119.496 27.864,114.624 C27.864,109.152 29.832,105.96 34.2,105.96 C38.568,105.96 40.536,109.152 40.536,114.624 C40.536,119.496 38.976,122.568 35.568,123.168 L35.568,125.112 L39.384,125.112 Z M34.2,120.72 C36.432,120.72 37.2,118.944 37.2,116.04 L37.2,113.184 C37.2,110.304 36.432,108.528 34.2,108.528 C31.968,108.528 31.2,110.304 31.2,113.184 L31.2,116.064 C31.2,118.944 31.968,120.72 34.2,120.72 Z M50.928,123 L50.928,120.816 L50.808,120.816 C50.256,122.16 49.2,123.288 47.184,123.288 C44.76,123.288 43.08,121.608 43.08,118.608 L43.08,110.616 L46.152,110.616 L46.152,118.176 C46.152,119.952 46.944,120.864 48.48,120.864 C49.728,120.864 50.928,120.216 50.928,118.896 L50.928,110.616 L54,110.616 L54,123 L50.928,123 Z M63.288,123.288 C59.328,123.288 57.12,120.792 57.12,116.832 C57.12,112.824 59.424,110.328 63.048,110.328 C66.624,110.328 68.88,112.8 68.88,116.544 L68.88,117.552 L60.192,117.552 L60.192,117.864 C60.192,119.64 61.368,120.864 63.384,120.864 C64.896,120.864 66,120.192 66.744,119.16 L68.496,120.912 C67.608,122.208 65.904,123.288 63.288,123.288 Z M63.072,112.584 C61.344,112.584 60.192,113.784 60.192,115.56 L60.192,115.728 L65.808,115.728 L65.808,115.512 C65.808,113.736 64.752,112.584 63.072,112.584 Z M79.728,123 L79.728,120.816 L79.608,120.816 C79.056,122.16 78,123.288 75.984,123.288 C73.56,123.288 71.88,121.608 71.88,118.608 L71.88,110.616 L74.952,110.616 L74.952,118.176 C74.952,119.952 75.744,120.864 77.28,120.864 C78.528,120.864 79.728,120.216 79.728,118.896 L79.728,110.616 L82.8,110.616 L82.8,123 L79.728,123 Z M92.088,123.288 C88.128,123.288 85.92,120.792 85.92,116.832 C85.92,112.824 88.224,110.328 91.848,110.328 C95.424,110.328 97.68,112.8 97.68,116.544 L97.68,117.552 L88.992,117.552 L88.992,117.864 C88.992,119.64 90.168,120.864 92.184,120.864 C93.696,120.864 94.8,120.192 95.544,119.16 L97.296,120.912 C96.408,122.208 94.704,123.288 92.088,123.288 Z M91.872,112.584 C90.144,112.584 88.992,113.784 88.992,115.56 L88.992,115.728 L94.608,115.728 L94.608,115.512 C94.608,113.736 93.552,112.584 91.872,112.584 Z" id="Queue" fill="#000000"></path>
                <path d="M886.952,123 L886.952,106.248 L892.16,106.248 C896.504,106.248 898.616,109.2 898.616,114.624 C898.616,120.048 896.504,123 892.16,123 L886.952,123 Z M890.048,120.48 L891.944,120.48 C894.248,120.48 895.328,118.92 895.328,116.064 L895.328,113.16 C895.328,110.328 894.248,108.768 891.944,108.768 L890.048,108.768 L890.048,120.48 Z M906.8,123.288 C903.056,123.288 900.752,120.792 900.752,116.808 C900.752,112.824 903.056,110.328 906.8,110.328 C910.544,110.328 912.848,112.824 912.848,116.808 C912.848,120.792 910.544,123.288 906.8,123.288 Z M906.8,120.936 C908.552,120.936 909.656,119.832 909.656,117.768 L909.656,115.848 C909.656,113.784 908.552,112.68 906.8,112.68 C905.048,112.68 903.944,113.784 903.944,115.848 L903.944,117.768 C903.944,119.832 905.048,120.936 906.8,120.936 Z M918.872,123 L915.8,123 L915.8,110.616 L918.872,110.616 L918.872,112.8 L918.992,112.8 C919.544,111.456 920.6,110.328 922.616,110.328 C925.04,110.328 926.72,112.008 926.72,115.008 L926.72,123 L923.648,123 L923.648,115.44 C923.648,113.664 922.856,112.752 921.32,112.752 C920.072,112.752 918.872,113.4 918.872,114.72 L918.872,123 Z M935.888,123.288 C931.928,123.288 929.72,120.792 929.72,116.832 C929.72,112.824 932.024,110.328 935.648,110.328 C939.224,110.328 941.48,112.8 941.48,116.544 L941.48,117.552 L932.792,117.552 L932.792,117.864 C932.792,119.64 933.968,120.864 935.984,120.864 C937.496,120.864 938.6,120.192 939.344,119.16 L941.096,120.912 C940.208,122.208 938.504,123.288 935.888,123.288 Z M935.672,112.584 C933.944,112.584 932.792,113.784 932.792,115.56 L932.792,115.728 L938.408,115.728 L938.408,115.512 C938.408,113.736 937.352,112.584 935.672,112.584 Z" id="Done" fill="#000000"></path>
                <path d="M373.98,196.232 L373.98,203 L371.316,203 L371.316,186.248 L377.58,186.248 C380.748,186.248 382.5,188.168 382.5,191.288 C382.5,193.832 381.204,195.608 378.876,195.992 L382.74,203 L379.764,203 L376.212,196.232 L373.98,196.232 Z M373.98,194.072 L377.196,194.072 C378.876,194.072 379.692,193.328 379.692,191.792 L379.692,190.76 C379.692,189.224 378.876,188.48 377.196,188.48 L373.98,188.48 L373.98,194.072 Z M397.116,203 L395.508,203 C394.02,203 393.276,202.16 393.132,200.912 L393.012,200.912 C392.532,202.4 391.236,203.288 389.292,203.288 C386.772,203.288 385.14,201.872 385.14,199.544 C385.14,197.144 386.892,195.848 390.564,195.848 L392.94,195.848 L392.94,194.888 C392.94,193.232 392.052,192.368 390.276,192.368 C388.692,192.368 387.756,193.04 387.084,194.072 L385.524,192.8 C386.22,191.456 387.9,190.328 390.516,190.328 C393.636,190.328 395.556,191.888 395.556,194.72 L395.556,200.936 L397.116,200.936 L397.116,203 Z M390.036,201.368 C391.716,201.368 392.94,200.528 392.94,199.304 L392.94,197.504 L390.612,197.504 C388.692,197.504 387.78,198.104 387.78,199.208 L387.78,199.688 C387.78,200.792 388.644,201.368 390.036,201.368 Z M407.988,203 L407.988,200.888 L407.844,200.888 C407.124,202.376 405.924,203.288 404.1,203.288 C401.196,203.288 399.324,201.056 399.324,196.808 C399.324,192.56 401.196,190.328 404.1,190.328 C405.924,190.328 407.124,191.24 407.844,192.728 L407.988,192.728 L407.988,185.24 L410.604,185.24 L410.604,203 L407.988,203 Z M405.18,201.152 C406.692,201.152 407.988,200.384 407.988,198.872 L407.988,194.744 C407.988,193.232 406.692,192.464 405.18,192.464 C403.212,192.464 402.084,193.784 402.084,195.8 L402.084,197.816 C402.084,199.832 403.212,201.152 405.18,201.152 Z M420.468,188.36 C419.148,188.36 418.668,187.736 418.668,186.944 L418.668,186.44 C418.668,185.648 419.148,185.024 420.444,185.024 C421.764,185.024 422.244,185.648 422.244,186.44 L422.244,186.944 C422.244,187.736 421.764,188.36 420.468,188.36 Z M414.924,203 L414.924,200.888 L419.148,200.888 L419.148,192.728 L414.924,192.728 L414.924,190.616 L421.764,190.616 L421.764,200.888 L425.724,200.888 L425.724,203 L414.924,203 Z M434.1,203.288 C430.452,203.288 428.22,200.768 428.22,196.808 C428.22,192.848 430.452,190.328 434.1,190.328 C437.748,190.328 439.98,192.848 439.98,196.808 C439.98,200.768 437.748,203.288 434.1,203.288 Z M434.1,201.224 C435.996,201.224 437.244,200.048 437.244,197.744 L437.244,195.872 C437.244,193.568 435.996,192.392 434.1,192.392 C432.204,192.392 430.956,193.568 430.956,195.872 L430.956,197.744 C430.956,200.048 432.204,201.224 434.1,201.224 Z M443.1,203 L443.1,200.888 L447.204,200.888 L447.204,187.352 L443.1,187.352 L443.1,185.24 L449.82,185.24 L449.82,200.888 L453.924,200.888 L453.924,203 L443.1,203 Z M462.9,203.288 C459.252,203.288 457.02,200.768 457.02,196.808 C457.02,192.848 459.252,190.328 462.9,190.328 C466.548,190.328 468.78,192.848 468.78,196.808 C468.78,200.768 466.548,203.288 462.9,203.288 Z M462.9,201.224 C464.796,201.224 466.044,200.048 466.044,197.744 L466.044,195.872 C466.044,193.568 464.796,192.392 462.9,192.392 C461.004,192.392 459.756,193.568 459.756,195.872 L459.756,197.744 C459.756,200.048 461.004,201.224 462.9,201.224 Z M483.78,204.344 C483.78,206.888 481.644,208.088 477.276,208.088 C473.004,208.088 471.516,206.96 471.516,205.112 C471.516,203.768 472.308,203.072 473.676,202.712 L473.676,202.472 C472.836,202.16 472.308,201.608 472.308,200.672 C472.308,199.448 473.244,198.896 474.54,198.584 L474.54,198.464 C473.052,197.768 472.164,196.448 472.164,194.672 C472.164,192.032 474.156,190.328 477.204,190.328 C478.068,190.328 478.86,190.472 479.532,190.736 L479.532,190.328 C479.532,189.368 480.084,188.648 481.188,188.648 L483.444,188.648 L483.444,190.712 L480.564,190.712 L480.564,191.288 C481.644,192.032 482.244,193.184 482.244,194.672 C482.244,197.312 480.252,198.992 477.204,198.992 C476.652,198.992 476.148,198.944 475.668,198.848 C475.092,198.992 474.372,199.376 474.372,200.048 C474.372,200.816 475.212,200.912 476.292,200.912 L479.076,200.912 C482.412,200.912 483.78,202.304 483.78,204.344 Z M481.332,204.512 C481.332,203.672 480.756,203.144 479.004,203.144 L474.708,203.144 C474.108,203.432 473.796,203.888 473.796,204.536 C473.796,205.472 474.516,206.24 476.34,206.24 L478.284,206.24 C480.252,206.24 481.332,205.64 481.332,204.512 Z M477.204,197.192 C478.884,197.192 479.676,196.304 479.676,194.984 L479.676,194.336 C479.676,193.016 478.884,192.128 477.204,192.128 C475.524,192.128 474.732,193.016 474.732,194.336 L474.732,194.984 C474.732,196.304 475.524,197.192 477.204,197.192 Z M492.468,188.36 C491.148,188.36 490.668,187.736 490.668,186.944 L490.668,186.44 C490.668,185.648 491.148,185.024 492.444,185.024 C493.764,185.024 494.244,185.648 494.244,186.44 L494.244,186.944 C494.244,187.736 493.764,188.36 492.468,188.36 Z M486.924,203 L486.924,200.888 L491.148,200.888 L491.148,192.728 L486.924,192.728 L486.924,190.616 L493.764,190.616 L493.764,200.888 L497.724,200.888 L497.724,203 L486.924,203 Z M506.124,203.288 C503.46,203.288 501.492,202.352 500.316,200.912 L501.924,199.472 C503.004,200.648 504.324,201.296 506.172,201.296 C507.852,201.296 509.004,200.744 509.004,199.52 C509.004,198.464 508.164,198.176 507.108,198.032 L505.14,197.72 C503.196,197.432 501.012,196.736 501.012,194.192 C501.012,191.672 503.124,190.328 506.292,190.328 C508.596,190.328 510.252,191.048 511.38,192.272 L509.916,193.808 C509.268,193.064 508.14,192.32 506.196,192.32 C504.492,192.32 503.58,192.896 503.58,193.976 C503.58,195.032 504.444,195.32 505.476,195.464 L507.444,195.776 C509.412,196.064 511.572,196.736 511.572,199.28 C511.572,201.776 509.508,203.288 506.124,203.288 Z M525.972,203 L521.244,203 C519.084,203 518.076,201.704 518.076,199.856 L518.076,192.728 L514.26,192.728 L514.26,190.616 L516.972,190.616 C517.884,190.616 518.244,190.304 518.244,189.344 L518.244,186.248 L520.692,186.248 L520.692,190.616 L525.972,190.616 L525.972,192.728 L520.692,192.728 L520.692,200.888 L525.972,200.888 L525.972,203 Z" id="Radiologist" fill="#FFFFFF"></path>
                <path d="M390.88,41.288 C386.632,41.288 384.592,38.168 384.592,32.624 C384.592,27.08 386.632,23.96 390.88,23.96 C394.12,23.96 395.608,25.832 396.376,28.112 L393.952,28.928 C393.448,27.392 392.752,26.192 390.856,26.192 C388.48,26.192 387.448,28.136 387.448,31.208 L387.448,34.04 C387.448,37.112 388.48,39.056 390.856,39.056 C392.752,39.056 393.448,37.856 393.952,36.32 L396.376,37.136 C395.608,39.416 394.12,41.288 390.88,41.288 Z M411.544,41 L408.688,41 L407.416,36.536 L402.088,36.536 L400.816,41 L398.08,41 L402.976,24.248 L406.648,24.248 L411.544,41 Z M406.912,34.304 L404.848,26.96 L404.656,26.96 L402.592,34.304 L406.912,34.304 Z M422.824,35 L415.576,35 L415.576,32.384 L422.824,32.384 L422.824,35 Z M428.392,41 L428.392,24.248 L434.176,24.248 C437.2,24.248 438.976,25.952 438.976,28.64 C438.976,30.584 437.944,31.712 436.312,32.192 L436.312,32.312 C438.256,32.768 439.552,33.968 439.552,36.272 C439.552,39.008 437.656,41 434.824,41 L428.392,41 Z M431.032,38.936 L434.008,38.936 C435.784,38.936 436.792,38.216 436.792,36.608 L436.792,35.744 C436.792,34.112 435.784,33.416 434.008,33.416 L431.032,33.416 L431.032,38.936 Z M431.032,31.448 L433.624,31.448 C435.304,31.448 436.216,30.824 436.216,29.312 L436.216,28.448 C436.216,26.936 435.304,26.312 433.624,26.312 L431.032,26.312 L431.032,31.448 Z M442.624,41 L442.624,38.888 L445.912,38.888 L445.912,30.728 L442.624,30.728 L442.624,28.616 L448.528,28.616 L448.528,31.904 L448.672,31.904 C449.152,30.176 450.232,28.616 452.752,28.616 L454.24,28.616 L454.24,31.112 L451.792,31.112 C449.656,31.112 448.528,32.528 448.528,34.256 L448.528,38.888 L453.016,38.888 L453.016,41 L442.624,41 Z M462.664,41.288 C458.872,41.288 456.64,38.768 456.64,34.832 C456.64,30.848 458.944,28.328 462.472,28.328 C465.952,28.328 468.16,30.824 468.16,34.472 L468.16,35.456 L459.28,35.456 L459.28,35.864 C459.28,37.808 460.576,39.176 462.712,39.176 C464.296,39.176 465.448,38.432 466.144,37.28 L467.776,38.72 C466.936,40.16 465.208,41.288 462.664,41.288 Z M462.472,30.32 C460.6,30.32 459.28,31.688 459.28,33.608 L459.28,33.776 L465.496,33.776 L465.496,33.536 C465.496,31.592 464.296,30.32 462.472,30.32 Z M483.016,41 L481.408,41 C479.92,41 479.176,40.16 479.032,38.912 L478.912,38.912 C478.432,40.4 477.136,41.288 475.192,41.288 C472.672,41.288 471.04,39.872 471.04,37.544 C471.04,35.144 472.792,33.848 476.464,33.848 L478.84,33.848 L478.84,32.888 C478.84,31.232 477.952,30.368 476.176,30.368 C474.592,30.368 473.656,31.04 472.984,32.072 L471.424,30.8 C472.12,29.456 473.8,28.328 476.416,28.328 C479.536,28.328 481.456,29.888 481.456,32.72 L481.456,38.936 L483.016,38.936 L483.016,41 Z M475.936,39.368 C477.616,39.368 478.84,38.528 478.84,37.304 L478.84,35.504 L476.512,35.504 C474.592,35.504 473.68,36.104 473.68,37.208 L473.68,37.688 C473.68,38.792 474.544,39.368 475.936,39.368 Z M491.224,41.288 C488.56,41.288 486.592,40.352 485.416,38.912 L487.024,37.472 C488.104,38.648 489.424,39.296 491.272,39.296 C492.952,39.296 494.104,38.744 494.104,37.52 C494.104,36.464 493.264,36.176 492.208,36.032 L490.24,35.72 C488.296,35.432 486.112,34.736 486.112,32.192 C486.112,29.672 488.224,28.328 491.392,28.328 C493.696,28.328 495.352,29.048 496.48,30.272 L495.016,31.808 C494.368,31.064 493.24,30.32 491.296,30.32 C489.592,30.32 488.68,30.896 488.68,31.976 C488.68,33.032 489.544,33.32 490.576,33.464 L492.544,33.776 C494.512,34.064 496.672,34.736 496.672,37.28 C496.672,39.776 494.608,41.288 491.224,41.288 Z M511.072,41 L506.344,41 C504.184,41 503.176,39.704 503.176,37.856 L503.176,30.728 L499.36,30.728 L499.36,28.616 L502.072,28.616 C502.984,28.616 503.344,28.304 503.344,27.344 L503.344,24.248 L505.792,24.248 L505.792,28.616 L511.072,28.616 L511.072,30.728 L505.792,30.728 L505.792,38.888 L511.072,38.888 L511.072,41 Z" id="CA-Breast" fill="#FFFFFF"></path>
                <path d="M125.5,115 L295.5,115" id="Line" stroke="#000000" stroke-width="3" stroke-linecap="square"></path>
                <path d="M700.5,115 L847.5,115" id="Line-Copy-6" stroke="#000000" stroke-width="3" stroke-linecap="square"></path>
                <path id="Line-Copy-6-decoration-1" d="M836.7,118 L847.5,115 L836.7,112" stroke="#000000" stroke-width="3" stroke-linecap="square"></path>
                <path d="M297,34 L343.5,34" id="Line-Copy-2" stroke="#000000" stroke-width="3" stroke-linecap="square"></path>
                <path id="Line-Copy-2-decoration-1" d="M332.7,37 L343.5,34 L332.7,31" stroke="#000000" stroke-width="3" stroke-linecap="square"></path>
                <path d="M548,31.5 L698.855693,31.5" id="Line-Copy-4" stroke="#000000" stroke-width="3" stroke-linecap="square"></path>
                <path d="M297,196 L346.623583,196" id="Line-Copy-3" stroke="#000000" stroke-width="3" stroke-linecap="square"></path>
                <path id="Line-Copy-3-decoration-1" d="M335.823583,199 L346.623583,196 L335.823583,193" stroke="#000000" stroke-width="3" stroke-linecap="square"></path>
                <path d="M548,193.5 L698.855693,193.5" id="Line-Copy-5" stroke="#000000" stroke-width="3" stroke-linecap="square"></path>
                <path d="M552.5,178.5 L621.855693,178.5" id="Line-Copy-7" stroke="#000000" stroke-width="3" stroke-linecap="square"></path>
                <path id="Line-Copy-7-decoration-1" d="M563.3,181.5 L552.5,178.5 L563.3,175.5" stroke="#000000" stroke-width="3" stroke-linecap="square"></path>
                <path d="M296.5,34.5 L296.5,195.5" id="Line-2" stroke="#000000" stroke-width="3" stroke-linecap="square"></path>
                <path d="M699.5,31.5 L699.5,192.5" id="Line-2-Copy" stroke="#000000" stroke-width="3" stroke-linecap="square"></path>
                <path d="M622.5,60.5 L622.5,178.5" id="Line-2-Copy-2" stroke="#000000" stroke-width="3" stroke-linecap="square"></path>
                <rect id="Rectangle-14-Copy-2" stroke="#000000" stroke-width="3" fill="#FFFFFF" x="560.5" y="1.5" width="127" height="57" rx="28.5"></rect>
                <path d="M585.028,39 L580.636,26.976 L580.396,26.976 L580.396,39 L577.708,39 L577.708,22.248 L581.572,22.248 L585.964,34.272 L586.204,34.272 L586.204,22.248 L588.892,22.248 L588.892,39 L585.028,39 Z M597.7,39.288 C593.956,39.288 591.652,36.792 591.652,32.808 C591.652,28.824 593.956,26.328 597.7,26.328 C601.444,26.328 603.748,28.824 603.748,32.808 C603.748,36.792 601.444,39.288 597.7,39.288 Z M597.7,36.936 C599.452,36.936 600.556,35.832 600.556,33.768 L600.556,31.848 C600.556,29.784 599.452,28.68 597.7,28.68 C595.948,28.68 594.844,29.784 594.844,31.848 L594.844,33.768 C594.844,35.832 595.948,36.936 597.7,36.936 Z M606.7,39 L606.7,36.576 L609.772,36.576 L609.772,29.04 L606.7,29.04 L606.7,26.616 L612.844,26.616 L612.844,30 L613.036,30 C613.492,28.248 614.548,26.616 617.02,26.616 L618.364,26.616 L618.364,29.496 L615.82,29.496 C613.876,29.496 612.844,30.816 612.844,32.4 L612.844,36.576 L617.14,36.576 L617.14,39 L606.7,39 Z M622.732,39 L620.188,39 L620.188,26.616 L622.732,26.616 L622.732,28.32 L622.876,28.32 C623.26,27.216 623.908,26.328 625.228,26.328 C626.476,26.328 627.22,27.096 627.436,28.392 L627.556,28.392 C627.988,27.264 628.708,26.328 630.22,26.328 C632.02,26.328 632.788,27.672 632.788,30.216 L632.788,39 L630.268,39 L630.268,30.576 C630.268,29.136 629.86,28.632 629.068,28.632 C628.324,28.632 627.772,29.112 627.772,30.096 L627.772,39 L625.228,39 L625.228,30.576 C625.228,29.136 624.844,28.632 624.052,28.632 C623.284,28.632 622.732,29.112 622.732,30.096 L622.732,39 Z M647.26,39 L645.46,39 C643.972,39 643.132,38.184 642.988,36.864 L642.868,36.864 C642.412,38.4 641.044,39.288 639.124,39.288 C636.652,39.288 635.044,37.896 635.044,35.568 C635.044,33.072 636.892,31.824 640.54,31.824 L642.724,31.824 L642.724,31.008 C642.724,29.448 641.98,28.632 640.276,28.632 C638.716,28.632 637.828,29.304 637.156,30.264 L635.404,28.776 C636.172,27.408 637.9,26.328 640.588,26.328 C643.828,26.328 645.796,27.888 645.796,30.864 L645.796,36.696 L647.26,36.696 L647.26,39 Z M640.156,37.176 C641.62,37.176 642.724,36.432 642.724,35.256 L642.724,33.6 L640.612,33.6 C638.932,33.6 638.092,34.152 638.092,35.184 L638.092,35.664 C638.092,36.648 638.884,37.176 640.156,37.176 Z M649.828,39 L649.828,36.576 L653.764,36.576 L653.764,23.664 L649.828,23.664 L649.828,21.24 L656.836,21.24 L656.836,36.576 L660.796,36.576 L660.796,39 L649.828,39 Z M670.636,33.528 L667.708,33.528 L667.708,29.832 C670.204,29.736 671.764,28.968 671.764,27.048 L671.764,26.712 C671.764,25.272 670.804,24.6 669.46,24.6 C667.972,24.6 667.012,25.56 666.676,26.88 L664.084,25.824 C664.66,23.832 666.316,21.96 669.556,21.96 C672.844,21.96 675.028,23.904 675.028,26.76 C675.028,29.568 672.916,31.2 670.636,31.608 L670.636,33.528 Z M669.244,39.264 C667.66,39.264 667.06,38.496 667.06,37.536 L667.06,36.864 C667.06,35.904 667.66,35.136 669.244,35.136 C670.828,35.136 671.428,35.904 671.428,36.864 L671.428,37.536 C671.428,38.496 670.828,39.264 669.244,39.264 Z" id="Normal?" fill="#000000"></path>
                <path d="M593.028,87 L588.636,74.976 L588.396,74.976 L588.396,87 L585.708,87 L585.708,70.248 L589.572,70.248 L593.964,82.272 L594.204,82.272 L594.204,70.248 L596.892,70.248 L596.892,87 L593.028,87 Z M605.7,87.288 C601.956,87.288 599.652,84.792 599.652,80.808 C599.652,76.824 601.956,74.328 605.7,74.328 C609.444,74.328 611.748,76.824 611.748,80.808 C611.748,84.792 609.444,87.288 605.7,87.288 Z M605.7,84.936 C607.452,84.936 608.556,83.832 608.556,81.768 L608.556,79.848 C608.556,77.784 607.452,76.68 605.7,76.68 C603.948,76.68 602.844,77.784 602.844,79.848 L602.844,81.768 C602.844,83.832 603.948,84.936 605.7,84.936 Z" id="No" fill="#000000"></path>
                <path d="M697.66,21 L694.54,21 L694.54,14.88 L689.092,4.248 L692.596,4.248 L694.54,8.28 L696.052,11.712 L696.22,11.712 L697.756,8.28 L699.724,4.248 L703.108,4.248 L697.66,14.88 L697.66,21 Z M710.788,21.288 C706.828,21.288 704.62,18.792 704.62,14.832 C704.62,10.824 706.924,8.328 710.548,8.328 C714.124,8.328 716.38,10.8 716.38,14.544 L716.38,15.552 L707.692,15.552 L707.692,15.864 C707.692,17.64 708.868,18.864 710.884,18.864 C712.396,18.864 713.5,18.192 714.244,17.16 L715.996,18.912 C715.108,20.208 713.404,21.288 710.788,21.288 Z M710.572,10.584 C708.844,10.584 707.692,11.784 707.692,13.56 L707.692,13.728 L713.308,13.728 L713.308,13.512 C713.308,11.736 712.252,10.584 710.572,10.584 Z M724.852,21.288 C722.14,21.288 720.1,20.376 718.996,18.936 L720.796,17.304 C721.804,18.408 723.124,19.056 724.876,19.056 C726.412,19.056 727.42,18.552 727.42,17.496 C727.42,16.608 726.724,16.368 725.716,16.224 L723.724,15.912 C721.66,15.6 719.692,14.784 719.692,12.336 C719.692,9.768 721.78,8.328 725.14,8.328 C727.516,8.328 729.196,9.048 730.276,10.248 L728.668,12.024 C727.972,11.256 726.82,10.56 725.044,10.56 C723.508,10.56 722.692,11.064 722.692,12.024 C722.692,12.912 723.412,13.176 724.42,13.32 L726.388,13.632 C728.476,13.944 730.444,14.736 730.444,17.184 C730.444,19.728 728.356,21.288 724.852,21.288 Z" id="Yes" fill="#000000"></path>
                <path d="M150.012,102 L150.012,94.248 L150.156,89.4 L149.94,89.4 L146.7,98.016 L143.46,89.4 L143.244,89.4 L143.388,94.248 L143.388,102 L140.652,102 L140.652,85.248 L144.396,85.248 L146.724,91.416 L146.892,91.416 L149.244,85.248 L152.748,85.248 L152.748,102 L150.012,102 Z M167.46,102 L165.66,102 C164.172,102 163.332,101.184 163.188,99.864 L163.068,99.864 C162.612,101.4 161.244,102.288 159.324,102.288 C156.852,102.288 155.244,100.896 155.244,98.568 C155.244,96.072 157.092,94.824 160.74,94.824 L162.924,94.824 L162.924,94.008 C162.924,92.448 162.18,91.632 160.476,91.632 C158.916,91.632 158.028,92.304 157.356,93.264 L155.604,91.776 C156.372,90.408 158.1,89.328 160.788,89.328 C164.028,89.328 165.996,90.888 165.996,93.864 L165.996,99.696 L167.46,99.696 L167.46,102 Z M160.356,100.176 C161.82,100.176 162.924,99.432 162.924,98.256 L162.924,96.6 L160.812,96.6 C159.132,96.6 158.292,97.152 158.292,98.184 L158.292,98.664 C158.292,99.648 159.084,100.176 160.356,100.176 Z M171.732,102 L169.188,102 L169.188,89.616 L171.732,89.616 L171.732,91.32 L171.876,91.32 C172.26,90.216 172.908,89.328 174.228,89.328 C175.476,89.328 176.22,90.096 176.436,91.392 L176.556,91.392 C176.988,90.264 177.708,89.328 179.22,89.328 C181.02,89.328 181.788,90.672 181.788,93.216 L181.788,102 L179.268,102 L179.268,93.576 C179.268,92.136 178.86,91.632 178.068,91.632 C177.324,91.632 176.772,92.112 176.772,93.096 L176.772,102 L174.228,102 L174.228,93.576 C174.228,92.136 173.844,91.632 173.052,91.632 C172.284,91.632 171.732,92.112 171.732,93.096 L171.732,102 Z M186.132,102 L183.588,102 L183.588,89.616 L186.132,89.616 L186.132,91.32 L186.276,91.32 C186.66,90.216 187.308,89.328 188.628,89.328 C189.876,89.328 190.62,90.096 190.836,91.392 L190.956,91.392 C191.388,90.264 192.108,89.328 193.62,89.328 C195.42,89.328 196.188,90.672 196.188,93.216 L196.188,102 L193.668,102 L193.668,93.576 C193.668,92.136 193.26,91.632 192.468,91.632 C191.724,91.632 191.172,92.112 191.172,93.096 L191.172,102 L188.628,102 L188.628,93.576 C188.628,92.136 188.244,91.632 187.452,91.632 C186.684,91.632 186.132,92.112 186.132,93.096 L186.132,102 Z M204.3,102.288 C200.556,102.288 198.252,99.792 198.252,95.808 C198.252,91.824 200.556,89.328 204.3,89.328 C208.044,89.328 210.348,91.824 210.348,95.808 C210.348,99.792 208.044,102.288 204.3,102.288 Z M204.3,99.936 C206.052,99.936 207.156,98.832 207.156,96.768 L207.156,94.848 C207.156,92.784 206.052,91.68 204.3,91.68 C202.548,91.68 201.444,92.784 201.444,94.848 L201.444,96.768 C201.444,98.832 202.548,99.936 204.3,99.936 Z M225.324,103.296 C225.324,105.888 223.188,107.088 218.652,107.088 C214.164,107.088 212.772,105.936 212.772,104.16 C212.772,102.792 213.612,102.12 215.052,101.76 L215.052,101.568 C214.092,101.256 213.492,100.704 213.492,99.696 C213.492,98.472 214.404,97.944 215.724,97.632 L215.724,97.512 C214.26,96.816 213.372,95.496 213.372,93.696 C213.372,90.96 215.436,89.328 218.58,89.328 C219.42,89.328 220.188,89.448 220.836,89.664 L220.836,89.136 C220.836,88.176 221.484,87.456 222.612,87.456 L224.844,87.456 L224.844,89.76 L221.916,89.76 L221.916,90.168 C223.116,90.888 223.812,92.088 223.812,93.696 C223.812,96.456 221.724,98.064 218.58,98.064 C217.956,98.064 217.356,98.016 216.804,97.872 C216.348,98.04 215.844,98.376 215.844,98.952 C215.844,99.72 216.684,99.792 217.716,99.792 L220.524,99.792 C223.956,99.792 225.324,101.232 225.324,103.296 Z M222.444,103.512 C222.444,102.768 221.94,102.312 220.356,102.312 L216.084,102.312 C215.604,102.576 215.364,102.984 215.364,103.512 C215.364,104.376 216.036,105.024 217.74,105.024 L219.732,105.024 C221.532,105.024 222.444,104.496 222.444,103.512 Z M218.58,96.048 C220.14,96.048 220.86,95.208 220.86,94.008 L220.86,93.384 C220.86,92.184 220.14,91.344 218.58,91.344 C217.044,91.344 216.324,92.184 216.324,93.384 L216.324,94.008 C216.324,95.208 217.044,96.048 218.58,96.048 Z M227.7,102 L227.7,99.576 L230.772,99.576 L230.772,92.04 L227.7,92.04 L227.7,89.616 L233.844,89.616 L233.844,93 L234.036,93 C234.492,91.248 235.548,89.616 238.02,89.616 L239.364,89.616 L239.364,92.496 L236.82,92.496 C234.876,92.496 233.844,93.816 233.844,95.4 L233.844,99.576 L238.14,99.576 L238.14,102 L227.7,102 Z M253.86,102 L252.06,102 C250.572,102 249.732,101.184 249.588,99.864 L249.468,99.864 C249.012,101.4 247.644,102.288 245.724,102.288 C243.252,102.288 241.644,100.896 241.644,98.568 C241.644,96.072 243.492,94.824 247.14,94.824 L249.324,94.824 L249.324,94.008 C249.324,92.448 248.58,91.632 246.876,91.632 C245.316,91.632 244.428,92.304 243.756,93.264 L242.004,91.776 C242.772,90.408 244.5,89.328 247.188,89.328 C250.428,89.328 252.396,90.888 252.396,93.864 L252.396,99.696 L253.86,99.696 L253.86,102 Z M246.756,100.176 C248.22,100.176 249.324,99.432 249.324,98.256 L249.324,96.6 L247.212,96.6 C245.532,96.6 244.692,97.152 244.692,98.184 L244.692,98.664 C244.692,99.648 245.484,100.176 246.756,100.176 Z M258.132,102 L255.588,102 L255.588,89.616 L258.132,89.616 L258.132,91.32 L258.276,91.32 C258.66,90.216 259.308,89.328 260.628,89.328 C261.876,89.328 262.62,90.096 262.836,91.392 L262.956,91.392 C263.388,90.264 264.108,89.328 265.62,89.328 C267.42,89.328 268.188,90.672 268.188,93.216 L268.188,102 L265.668,102 L265.668,93.576 C265.668,92.136 265.26,91.632 264.468,91.632 C263.724,91.632 263.172,92.112 263.172,93.096 L263.172,102 L260.628,102 L260.628,93.576 C260.628,92.136 260.244,91.632 259.452,91.632 C258.684,91.632 258.132,92.112 258.132,93.096 L258.132,102 Z M276.252,102.288 C273.54,102.288 271.5,101.376 270.396,99.936 L272.196,98.304 C273.204,99.408 274.524,100.056 276.276,100.056 C277.812,100.056 278.82,99.552 278.82,98.496 C278.82,97.608 278.124,97.368 277.116,97.224 L275.124,96.912 C273.06,96.6 271.092,95.784 271.092,93.336 C271.092,90.768 273.18,89.328 276.54,89.328 C278.916,89.328 280.596,90.048 281.676,91.248 L280.068,93.024 C279.372,92.256 278.22,91.56 276.444,91.56 C274.908,91.56 274.092,92.064 274.092,93.024 C274.092,93.912 274.812,94.176 275.82,94.32 L277.788,94.632 C279.876,94.944 281.844,95.736 281.844,98.184 C281.844,100.728 279.756,102.288 276.252,102.288 Z" id="Mammograms" fill="#000000"></path>
                <path d="M730.164,95.496 L730.164,102 L727.02,102 L727.02,85.248 L733.38,85.248 C736.62,85.248 738.42,87.24 738.42,90.432 C738.42,92.88 737.22,94.68 735.132,95.136 L738.708,102 L735.252,102 L732.06,95.496 L730.164,95.496 Z M730.164,93.048 L732.732,93.048 C734.412,93.048 735.108,92.376 735.108,90.888 L735.108,89.976 C735.108,88.488 734.412,87.816 732.732,87.816 L730.164,87.816 L730.164,93.048 Z M746.988,102.288 C743.028,102.288 740.82,99.792 740.82,95.832 C740.82,91.824 743.124,89.328 746.748,89.328 C750.324,89.328 752.58,91.8 752.58,95.544 L752.58,96.552 L743.892,96.552 L743.892,96.864 C743.892,98.64 745.068,99.864 747.084,99.864 C748.596,99.864 749.7,99.192 750.444,98.16 L752.196,99.912 C751.308,101.208 749.604,102.288 746.988,102.288 Z M746.772,91.584 C745.044,91.584 743.892,92.784 743.892,94.56 L743.892,94.728 L749.508,94.728 L749.508,94.512 C749.508,92.736 748.452,91.584 746.772,91.584 Z M755.556,106.8 L755.556,89.616 L758.628,89.616 L758.628,91.8 L758.796,91.8 C759.468,90.312 760.596,89.328 762.492,89.328 C765.324,89.328 767.22,91.44 767.22,95.808 C767.22,100.176 765.324,102.288 762.492,102.288 C760.596,102.288 759.468,101.304 758.796,99.816 L758.628,99.816 L758.628,106.8 L755.556,106.8 Z M761.196,99.84 C762.972,99.84 764.004,98.664 764.004,96.792 L764.004,94.824 C764.004,92.952 762.972,91.776 761.196,91.776 C759.804,91.776 758.628,92.448 758.628,93.864 L758.628,97.752 C758.628,99.168 759.804,99.84 761.196,99.84 Z M775.5,102.288 C771.756,102.288 769.452,99.792 769.452,95.808 C769.452,91.824 771.756,89.328 775.5,89.328 C779.244,89.328 781.548,91.824 781.548,95.808 C781.548,99.792 779.244,102.288 775.5,102.288 Z M775.5,99.936 C777.252,99.936 778.356,98.832 778.356,96.768 L778.356,94.848 C778.356,92.784 777.252,91.68 775.5,91.68 C773.748,91.68 772.644,92.784 772.644,94.848 L772.644,96.768 C772.644,98.832 773.748,99.936 775.5,99.936 Z M784.5,102 L784.5,99.576 L787.572,99.576 L787.572,92.04 L784.5,92.04 L784.5,89.616 L790.644,89.616 L790.644,93 L790.836,93 C791.292,91.248 792.348,89.616 794.82,89.616 L796.164,89.616 L796.164,92.496 L793.62,92.496 C791.676,92.496 790.644,93.816 790.644,95.4 L790.644,99.576 L794.94,99.576 L794.94,102 L784.5,102 Z M809.796,102 L805.14,102 C802.788,102 801.684,100.608 801.684,98.64 L801.684,92.04 L798.084,92.04 L798.084,89.616 L800.532,89.616 C801.516,89.616 801.9,89.28 801.9,88.248 L801.9,85.248 L804.756,85.248 L804.756,89.616 L809.796,89.616 L809.796,92.04 L804.756,92.04 L804.756,99.576 L809.796,99.576 L809.796,102 Z M818.652,102.288 C815.94,102.288 813.9,101.376 812.796,99.936 L814.596,98.304 C815.604,99.408 816.924,100.056 818.676,100.056 C820.212,100.056 821.22,99.552 821.22,98.496 C821.22,97.608 820.524,97.368 819.516,97.224 L817.524,96.912 C815.46,96.6 813.492,95.784 813.492,93.336 C813.492,90.768 815.58,89.328 818.94,89.328 C821.316,89.328 822.996,90.048 824.076,91.248 L822.468,93.024 C821.772,92.256 820.62,91.56 818.844,91.56 C817.308,91.56 816.492,92.064 816.492,93.024 C816.492,93.912 817.212,94.176 818.22,94.32 L820.188,94.632 C822.276,94.944 824.244,95.736 824.244,98.184 C824.244,100.728 822.156,102.288 818.652,102.288 Z" id="Reports" fill="#000000"></path>
            </g>
        </g>
    </g>
</svg>