<?xml version="1.0" encoding="UTF-8"?>
<svg width="144px" height="351px" viewBox="0 0 144 351" version="1.1" xmlns="http://www.w3.org/2000/svg" xmlns:xlink="http://www.w3.org/1999/xlink">
    <!-- Generator: Sketch 49.3 (51167) - http://www.bohemiancoding.com/sketch -->
    <title>patient</title>
    <desc>Created with Sketch.</desc>
    <defs></defs>
    <g id="Page-1" stroke="none" stroke-width="1" fill="none" fill-rule="evenodd">
        <g id="Artboard" transform="translate(-142.000000, -559.000000)">
            <g id="patient" transform="translate(142.000000, 558.000000)">
                <ellipse id="Oval-2" fill="#000000" opacity="0.204483696" cx="71.6494845" cy="340.824742" rx="71.6494845" ry="10.8247423"></ellipse>
                <path d="M59.8671019,63.3549386 C48.8995249,67.213728 54.5368872,72.083074 55.4063123,76.6266455 C56.2757373,81.1702171 44.8602369,89.7177625 51.4496739,91.3801602 C73.2612465,94.158996 98.7131761,95.1573703 111.16305,110.985804 C114.245542,109.200205 118.145008,94.0245536 114.229275,85.5376109 C110.313541,77.0506682 95.8691146,69.0807766 88.6376352,63.3549386 C81.4061558,57.6291006 70.8346789,59.4961492 59.8671019,63.3549386 Z" id="Path-93" fill="#000000"></path>
                <path d="M49.4548203,161.209678 C69.4167005,159.515848 73.3690107,159.679781 93.4053284,161.209678 C99.0250843,168.791847 93.9347976,321.574571 98.9046383,336.801275 C99.3492158,338.163381 91.5980466,340.569376 91.197476,339.029715 C87.2838698,323.987111 84.9715919,198.38988 70.9615241,194.235526 C48.0427539,197.288655 54.2856281,324.369665 48.804303,339.029715 C48.2592436,340.487501 43.1069021,338.698202 43.1069021,336.05588 C43.1069021,306.945778 41.6547311,190.263813 49.4548203,161.209678 Z" id="Path-5" stroke="#0000FF" stroke-width="2" fill="#0000FF"></path>
                <path d="M48.8578807,161.209678 C69.0240656,159.570152 73.3690107,159.679781 93.4053284,161.209678 C99.0250843,168.791847 99.9665008,239.870071 97.8771129,256.546808 C97.6875964,258.05946 40.768401,255.830309 40.768401,253.187986 C40.768401,224.077885 44.3692432,190.381112 48.8578807,161.209678 Z" id="Path-5" stroke="#000000" stroke-width="2" fill="#000000"></path>
                <path d="M58.2555219,93.0663986 C67.0263672,93.707998 77.514464,95.4206469 84.4358502,95.4206469 C83.5276935,86.5296404 81.6233886,66.6011218 71.3456861,67.1998436 C61.0679835,67.7985653 59.015104,84.3756095 58.2555219,93.0663986 Z" id="Path-3" fill="#0000FF"></path>
                <path d="M19.094293,23.1932153 C15.7716798,12.4951783 22.7185092,2.7533254 24.1312393,2.03443156 C25.5439693,1.31553772 20.6339729,10.7580566 21.3820331,11.4490058 C23.06089,8.61045616 27.5748006,1.059564 28.4216984,2.03443156 C29.2685961,3.00929911 22.9040175,11.8932071 24.7560901,13.0721384 C26.0961704,11.1045615 32.2923192,1.5623954 32.9603544,3.40185641 C33.6283897,5.24131741 26.651517,12.3602302 27.3025714,17.2145192 C27.1610835,19.1565427 32.4975281,14.1314103 32.0399283,16.0353683 C31.5823285,17.9393263 30.8889047,19.0578883 25.704813,23.1932153 C22.6033841,24.6972421 21.4224753,24.2188009 19.094293,23.1932153 Z" id="Path-4-Copy-3" fill="#0000FF" transform="translate(25.604840, 13.049166) rotate(-20.000000) translate(-25.604840, -13.049166) "></path>
                <path d="M58.5785981,79.8432369 C61.0578971,81.0645003 60.7054984,67.4647999 68.9246494,68.3222852 C77.1438004,69.1797705 73.1400982,80.4731354 80.6466088,84.5863404 C83.0915286,85.0852043 85.2127295,90.4821412 83.3448901,95.6099984 C90.0166183,94.635224 89.2657467,85.3475727 81.0922753,67.7470446 L70.186711,64.2336592 L59.3518278,68.7659197 C57.1834754,75.3366222 56.9257322,79.0290613 58.5785981,79.8432369 Z" id="Path-95" fill="#000000"></path>
                <path d="M76,126.936764 C81.4955488,120.064375 84.2433231,115.276771 84.2433231,112.573952 C84.2433231,108.519723 82.6133355,107 80.2246936,107 C77.8360517,107 76.609027,108.832095 76.609027,112.573952 C76.609027,115.068523 79.2906902,119.856127 84.6540165,126.936764" id="Path-96" stroke="#FF0087" stroke-width="3" stroke-linecap="round" stroke-linejoin="round"></path>
                <path d="M27.069074,159.548574 C29.2791593,142.858909 33.5095768,121.212899 37.4115082,110.085303 C42.1088181,96.6894331 47.0618196,88.966514 69.4902332,88.6532399 C101.105167,88.211651 121.166115,66.1575544 126.073764,48.1234408 C128.734793,38.344971 113.982757,31.7987581 99.3176313,23.1046662" id="Path" stroke="#000000" stroke-width="2" stroke-linecap="round" stroke-linejoin="round" transform="translate(76.728061, 91.326620) scale(1, -1) translate(-76.728061, -91.326620) "></path>
                <path d="M21.862682,23.4455298 C21.8629339,30.4303713 23.7445335,55.3098748 26.3808577,73.8959292 C31.1093335,91.9868119 36.1185781,100.100014 50.5868048,109.09418 C50.5868048,128.567678 48.6729313,135.014797 48.6729313,162.165744 C55.1319292,164.910964 87.6489976,168.073158 93.2216132,162.165744 C93.2216132,146.578407 92.6441665,124.593705 91.4818358,115 C127.394739,134.68859 115.484324,138.794964 98.1114988,154.000364" id="Path" stroke="#000000" stroke-width="2" stroke-linecap="round" stroke-linejoin="round"></path>
                <path d="M84.7203968,168.881331 C81.8283723,159.569689 87.8749385,151.090316 89.104588,150.464586 C90.3342376,149.838856 86.0605443,158.057687 86.7116609,158.659094 C88.1729489,156.188401 92.1018865,149.616055 92.8390319,150.464586 C93.5761773,151.313117 88.0364061,159.045729 89.6484623,160.071879 C90.8148771,158.359287 96.2080458,150.053723 96.7895081,151.654802 C97.3709704,153.255881 91.2982543,159.452229 91.8649364,163.677434 C91.7417844,165.367784 91.8045214,164.781987 91.4062236,166.439205 C91.7603803,166.793361 91.9855605,167.018542 92.2611946,167.294176 C92.0651942,167.490176 91.3405056,168.368855 90.474237,168.881331 C87.7747328,170.190446 86.7468621,169.774007 84.7203968,168.881331 Z" id="Path-4" fill="#0000FF" transform="translate(90.387220, 160.051883) scale(-1, -1) rotate(45.000000) translate(-90.387220, -160.051883) "></path>
                <path d="M43.8387822,335.010997 C35.6258313,335.637078 24.8224016,338.088509 27.3834918,340.544147 C27.3834918,340.950356 42.7546062,341.757708 48.6764761,340.544147 C51.6126727,339.942437 47.5322154,334.729443 43.8387822,335.010997 Z" id="Path-6" fill="#0000FF"></path>
                <path d="M108.073383,335.010997 C100.233748,335.637078 89.9213833,338.088509 92.3660604,340.544147 C92.3660604,340.950356 107.038488,341.757708 112.691182,340.544147 C115.493915,339.942437 111.598933,334.729443 108.073383,335.010997 Z" id="Path-6-Copy" fill="#0000FF" transform="translate(102.824742, 338.092784) scale(-1, 1) translate(-102.824742, -338.092784) "></path>
                <path d="M92.6249095,125.175683 C94.8218045,124.533391 99.3580028,123.366356 101.305272,121.286242 C100.592231,120.183784 97.583232,118.609255 92.2782752,116.562656 C91.3032294,121.327645 91.4187742,124.198655 92.6249095,125.175683 Z" id="Path-97" fill="#000000"></path>
            </g>
        </g>
    </g>
</svg>