<?xml version="1.0" encoding="UTF-8"?>
<svg width="604px" height="86px" viewBox="0 0 604 86" version="1.1" xmlns="http://www.w3.org/2000/svg" xmlns:xlink="http://www.w3.org/1999/xlink">
    <!-- Generator: Sketch 50.2 (55047) - http://www.bohemiancoding.com/sketch -->
    <title>projtimeline</title>
    <desc>Created with Sketch.</desc>
    <defs></defs>
    <g id="Page-1" stroke="none" stroke-width="1" fill="none" fill-rule="evenodd">
        <g id="charts" transform="translate(-185.000000, -2272.000000)">
            <g id="projtimeline" transform="translate(185.000000, 2272.000000)">
                <path d="M1.232,75.228 L6.202,75.228 L6.202,82.382 C6.202,84.076 4.984,85.168 3.164,85.168 C1.456,85.168 0.42,84.244 0.126,82.746 L1.61,82.438 C1.778,83.236 2.184,83.852 3.178,83.852 C4.088,83.852 4.634,83.306 4.634,82.172 L4.634,76.544 L1.232,76.544 L1.232,75.228 Z M8.666,75.228 L10.234,75.228 L10.234,81.234 C10.234,82.844 10.318,83.866 11.9,83.866 C13.482,83.866 13.566,82.844 13.566,81.234 L13.566,75.228 L15.134,75.228 L15.134,80.954 C15.134,83.754 14.63,85.168 11.9,85.168 C9.17,85.168 8.666,83.754 8.666,80.954 L8.666,75.228 Z M23.632,85 L17.612,85 L17.612,75.228 L19.18,75.228 L19.18,83.684 L23.632,83.684 L23.632,85 Z M40.81,85 L34.132,85 L34.132,83.698 L36.876,83.698 L36.876,76.376 L36.764,76.376 L34.496,78.798 L33.53,77.93 L36.022,75.228 L38.444,75.228 L38.444,83.698 L40.81,83.698 L40.81,85 Z M45.332,85 L43.666,85 L47.292,76.53 L43.484,76.53 L43.484,78.336 L42.126,78.336 L42.126,75.228 L48.86,75.228 L48.86,76.6 L45.332,85 Z" id="JUL-17" fill="#888888"></path>
                <path d="M280.349,11.168 C277.801,11.168 276.247,9.39 276.247,6.114 C276.247,2.838 277.801,1.06 280.349,1.06 C282.043,1.06 283.177,1.816 283.835,3.272 L282.505,4 C282.169,3.076 281.483,2.474 280.349,2.474 C278.851,2.474 277.927,3.566 277.927,5.372 L277.927,6.856 C277.927,8.662 278.851,9.754 280.349,9.754 C281.511,9.754 282.253,9.082 282.603,8.13 L283.877,8.9 C283.219,10.314 282.043,11.168 280.349,11.168 Z M288.301,11.168 C286.271,11.168 284.955,9.684 284.955,7.36 C284.955,5.036 286.271,3.552 288.301,3.552 C290.331,3.552 291.647,5.036 291.647,7.36 C291.647,9.684 290.331,11.168 288.301,11.168 Z M288.301,9.908 C289.337,9.908 290.037,9.264 290.037,7.976 L290.037,6.744 C290.037,5.456 289.337,4.812 288.301,4.812 C287.265,4.812 286.565,5.456 286.565,6.744 L286.565,7.976 C286.565,9.264 287.265,9.908 288.301,9.908 Z M294.867,11 L293.341,11 L293.341,3.72 L294.867,3.72 L294.867,4.924 L294.937,4.924 C295.245,4.14 295.861,3.552 296.981,3.552 C298.465,3.552 299.347,4.588 299.347,6.38 L299.347,11 L297.821,11 L297.821,6.576 C297.821,5.442 297.387,4.868 296.449,4.868 C295.651,4.868 294.867,5.274 294.867,6.128 L294.867,11 Z M304.275,11.168 C302.175,11.168 300.971,9.684 300.971,7.36 C300.971,5.036 302.175,3.552 304.275,3.552 C305.731,3.552 306.655,4.266 307.089,5.344 L305.829,5.932 C305.619,5.26 305.101,4.826 304.275,4.826 C303.155,4.826 302.581,5.596 302.581,6.716 L302.581,8.018 C302.581,9.138 303.155,9.908 304.275,9.908 C305.157,9.908 305.675,9.432 305.983,8.704 L307.145,9.32 C306.669,10.51 305.675,11.168 304.275,11.168 Z M311.373,11.168 C309.301,11.168 308.027,9.684 308.027,7.36 C308.027,5.036 309.301,3.552 311.373,3.552 C313.515,3.552 314.607,5.162 314.607,7.178 L314.607,7.752 L309.609,7.752 L309.609,7.99 C309.609,9.11 310.295,9.908 311.527,9.908 C312.423,9.908 313.025,9.488 313.445,8.816 L314.341,9.698 C313.795,10.58 312.731,11.168 311.373,11.168 Z M311.373,4.742 C310.323,4.742 309.609,5.526 309.609,6.646 L309.609,6.744 L312.997,6.744 L312.997,6.604 C312.997,5.484 312.381,4.742 311.373,4.742 Z M316.301,13.8 L316.301,3.72 L317.827,3.72 L317.827,4.924 L317.897,4.924 C318.205,4.056 318.975,3.552 319.941,3.552 C321.775,3.552 322.839,4.966 322.839,7.36 C322.839,9.754 321.775,11.168 319.941,11.168 C318.975,11.168 318.205,10.65 317.897,9.796 L317.827,9.796 L317.827,13.8 L316.301,13.8 Z M319.479,9.852 C320.529,9.852 321.229,9.11 321.229,7.99 L321.229,6.73 C321.229,5.61 320.529,4.868 319.479,4.868 C318.555,4.868 317.827,5.372 317.827,6.114 L317.827,8.606 C317.827,9.348 318.555,9.852 319.479,9.852 Z M327.851,11 L326.521,11 C325.471,11 324.911,10.412 324.911,9.418 L324.911,4.966 L323.777,4.966 L323.777,3.72 L324.393,3.72 C324.897,3.72 325.065,3.51 325.065,3.006 L325.065,1.732 L326.437,1.732 L326.437,3.72 L327.963,3.72 L327.963,4.966 L326.437,4.966 L326.437,9.754 L327.851,9.754 L327.851,11 Z M271.991,29 L271.991,19.228 L275.449,19.228 C277.941,19.228 279.579,20.852 279.579,24.114 C279.579,27.376 277.941,29 275.449,29 L271.991,29 Z M273.573,27.6 L275.449,27.6 C276.905,27.6 277.885,26.662 277.885,24.898 L277.885,23.33 C277.885,21.566 276.905,20.628 275.449,20.628 L273.573,20.628 L273.573,27.6 Z M284.297,29.168 C282.225,29.168 280.951,27.684 280.951,25.36 C280.951,23.036 282.225,21.552 284.297,21.552 C286.439,21.552 287.531,23.162 287.531,25.178 L287.531,25.752 L282.533,25.752 L282.533,25.99 C282.533,27.11 283.219,27.908 284.451,27.908 C285.347,27.908 285.949,27.488 286.369,26.816 L287.265,27.698 C286.719,28.58 285.655,29.168 284.297,29.168 Z M284.297,22.742 C283.247,22.742 282.533,23.526 282.533,24.646 L282.533,24.744 L285.921,24.744 L285.921,24.604 C285.921,23.484 285.305,22.742 284.297,22.742 Z M289.603,29 L289.603,22.966 L288.497,22.966 L288.497,21.72 L289.603,21.72 L289.603,20.516 C289.603,19.34 290.233,18.64 291.451,18.64 L292.655,18.64 L292.655,19.886 L291.129,19.886 L291.129,21.72 L295.455,21.72 L295.455,29 L293.929,29 L293.929,22.966 L291.129,22.966 L291.129,29 L289.603,29 Z M294.699,20.418 C294.069,20.418 293.789,20.082 293.789,19.62 L293.789,19.382 C293.789,18.92 294.069,18.584 294.699,18.584 C295.329,18.584 295.595,18.92 295.595,19.382 L295.595,19.62 C295.595,20.082 295.329,20.418 294.699,20.418 Z M299.165,29 L297.639,29 L297.639,21.72 L299.165,21.72 L299.165,22.924 L299.235,22.924 C299.543,22.14 300.159,21.552 301.279,21.552 C302.763,21.552 303.645,22.588 303.645,24.38 L303.645,29 L302.119,29 L302.119,24.576 C302.119,23.442 301.685,22.868 300.747,22.868 C299.949,22.868 299.165,23.274 299.165,24.128 L299.165,29 Z M306.529,20.418 C305.899,20.418 305.619,20.082 305.619,19.62 L305.619,19.382 C305.619,18.92 305.899,18.584 306.529,18.584 C307.159,18.584 307.425,18.92 307.425,19.382 L307.425,19.62 C307.425,20.082 307.159,20.418 306.529,20.418 Z M305.759,29 L305.759,21.72 L307.285,21.72 L307.285,29 L305.759,29 Z M312.815,29 L311.485,29 C310.435,29 309.875,28.412 309.875,27.418 L309.875,22.966 L308.741,22.966 L308.741,21.72 L309.357,21.72 C309.861,21.72 310.029,21.51 310.029,21.006 L310.029,19.732 L311.401,19.732 L311.401,21.72 L312.927,21.72 L312.927,22.966 L311.401,22.966 L311.401,27.754 L312.815,27.754 L312.815,29 Z M315.349,20.418 C314.719,20.418 314.439,20.082 314.439,19.62 L314.439,19.382 C314.439,18.92 314.719,18.584 315.349,18.584 C315.979,18.584 316.245,18.92 316.245,19.382 L316.245,19.62 C316.245,20.082 315.979,20.418 315.349,20.418 Z M314.579,29 L314.579,21.72 L316.105,21.72 L316.105,29 L314.579,29 Z M321.145,29.168 C319.115,29.168 317.799,27.684 317.799,25.36 C317.799,23.036 319.115,21.552 321.145,21.552 C323.175,21.552 324.491,23.036 324.491,25.36 C324.491,27.684 323.175,29.168 321.145,29.168 Z M321.145,27.908 C322.181,27.908 322.881,27.264 322.881,25.976 L322.881,24.744 C322.881,23.456 322.181,22.812 321.145,22.812 C320.109,22.812 319.409,23.456 319.409,24.744 L319.409,25.976 C319.409,27.264 320.109,27.908 321.145,27.908 Z M327.711,29 L326.185,29 L326.185,21.72 L327.711,21.72 L327.711,22.924 L327.781,22.924 C328.089,22.14 328.705,21.552 329.825,21.552 C331.309,21.552 332.191,22.588 332.191,24.38 L332.191,29 L330.665,29 L330.665,24.576 C330.665,23.442 330.231,22.868 329.293,22.868 C328.495,22.868 327.711,23.274 327.711,24.128 L327.711,29 Z" id="Concept-Definition" fill="#000000"></path>
                <path d="M518.544,11 L516.962,11 L516.962,1.228 L521.162,1.228 C522.954,1.228 524.004,2.39 524.004,4.168 C524.004,5.946 522.954,7.108 521.162,7.108 L518.544,7.108 L518.544,11 Z M518.544,2.614 L518.544,5.722 L521.064,5.722 C521.862,5.722 522.338,5.288 522.338,4.504 L522.338,3.832 C522.338,3.048 521.862,2.614 521.064,2.614 L518.544,2.614 Z M527.014,11 L525.488,11 L525.488,3.72 L527.014,3.72 L527.014,5.12 L527.084,5.12 C527.294,4.378 527.924,3.72 529.086,3.72 L529.492,3.72 L529.492,5.19 L528.89,5.19 C527.686,5.19 527.014,5.596 527.014,6.352 L527.014,11 Z M533.636,11.168 C531.606,11.168 530.29,9.684 530.29,7.36 C530.29,5.036 531.606,3.552 533.636,3.552 C535.666,3.552 536.982,5.036 536.982,7.36 C536.982,9.684 535.666,11.168 533.636,11.168 Z M533.636,9.908 C534.672,9.908 535.372,9.264 535.372,7.976 L535.372,6.744 C535.372,5.456 534.672,4.812 533.636,4.812 C532.6,4.812 531.9,5.456 531.9,6.744 L531.9,7.976 C531.9,9.264 532.6,9.908 533.636,9.908 Z M543.254,11 L543.254,9.796 L543.184,9.796 C542.876,10.65 542.106,11.168 541.14,11.168 C539.306,11.168 538.242,9.754 538.242,7.36 C538.242,4.966 539.306,3.552 541.14,3.552 C542.106,3.552 542.876,4.056 543.184,4.924 L543.254,4.924 L543.254,0.64 L544.78,0.64 L544.78,11 L543.254,11 Z M541.602,9.852 C542.526,9.852 543.254,9.348 543.254,8.606 L543.254,6.114 C543.254,5.372 542.526,4.868 541.602,4.868 C540.552,4.868 539.852,5.61 539.852,6.73 L539.852,7.99 C539.852,9.11 540.552,9.852 541.602,9.852 Z M551.374,11 L551.374,9.796 L551.318,9.796 C551.052,10.51 550.478,11.168 549.274,11.168 C547.776,11.168 546.894,10.146 546.894,8.354 L546.894,3.72 L548.42,3.72 L548.42,8.158 C548.42,9.264 548.882,9.852 549.82,9.852 C550.604,9.852 551.374,9.446 551.374,8.592 L551.374,3.72 L552.9,3.72 L552.9,11 L551.374,11 Z M557.898,11.168 C555.798,11.168 554.594,9.684 554.594,7.36 C554.594,5.036 555.798,3.552 557.898,3.552 C559.354,3.552 560.278,4.266 560.712,5.344 L559.452,5.932 C559.242,5.26 558.724,4.826 557.898,4.826 C556.778,4.826 556.204,5.596 556.204,6.716 L556.204,8.018 C556.204,9.138 556.778,9.908 557.898,9.908 C558.78,9.908 559.298,9.432 559.606,8.704 L560.768,9.32 C560.292,10.51 559.298,11.168 557.898,11.168 Z M565.57,11 L564.24,11 C563.19,11 562.63,10.412 562.63,9.418 L562.63,4.966 L561.496,4.966 L561.496,3.72 L562.112,3.72 C562.616,3.72 562.784,3.51 562.784,3.006 L562.784,1.732 L564.156,1.732 L564.156,3.72 L565.682,3.72 L565.682,4.966 L564.156,4.966 L564.156,9.754 L565.57,9.754 L565.57,11 Z M510.991,29 L510.991,19.228 L514.449,19.228 C516.941,19.228 518.579,20.852 518.579,24.114 C518.579,27.376 516.941,29 514.449,29 L510.991,29 Z M512.573,27.6 L514.449,27.6 C515.905,27.6 516.885,26.662 516.885,24.898 L516.885,23.33 C516.885,21.566 515.905,20.628 514.449,20.628 L512.573,20.628 L512.573,27.6 Z M523.297,29.168 C521.225,29.168 519.951,27.684 519.951,25.36 C519.951,23.036 521.225,21.552 523.297,21.552 C525.439,21.552 526.531,23.162 526.531,25.178 L526.531,25.752 L521.533,25.752 L521.533,25.99 C521.533,27.11 522.219,27.908 523.451,27.908 C524.347,27.908 524.949,27.488 525.369,26.816 L526.265,27.698 C525.719,28.58 524.655,29.168 523.297,29.168 Z M523.297,22.742 C522.247,22.742 521.533,23.526 521.533,24.646 L521.533,24.744 L524.921,24.744 L524.921,24.604 C524.921,23.484 524.305,22.742 523.297,22.742 Z M528.603,29 L528.603,22.966 L527.497,22.966 L527.497,21.72 L528.603,21.72 L528.603,20.516 C528.603,19.34 529.233,18.64 530.451,18.64 L531.655,18.64 L531.655,19.886 L530.129,19.886 L530.129,21.72 L534.455,21.72 L534.455,29 L532.929,29 L532.929,22.966 L530.129,22.966 L530.129,29 L528.603,29 Z M533.699,20.418 C533.069,20.418 532.789,20.082 532.789,19.62 L532.789,19.382 C532.789,18.92 533.069,18.584 533.699,18.584 C534.329,18.584 534.595,18.92 534.595,19.382 L534.595,19.62 C534.595,20.082 534.329,20.418 533.699,20.418 Z M538.165,29 L536.639,29 L536.639,21.72 L538.165,21.72 L538.165,22.924 L538.235,22.924 C538.543,22.14 539.159,21.552 540.279,21.552 C541.763,21.552 542.645,22.588 542.645,24.38 L542.645,29 L541.119,29 L541.119,24.576 C541.119,23.442 540.685,22.868 539.747,22.868 C538.949,22.868 538.165,23.274 538.165,24.128 L538.165,29 Z M545.529,20.418 C544.899,20.418 544.619,20.082 544.619,19.62 L544.619,19.382 C544.619,18.92 544.899,18.584 545.529,18.584 C546.159,18.584 546.425,18.92 546.425,19.382 L546.425,19.62 C546.425,20.082 546.159,20.418 545.529,20.418 Z M544.759,29 L544.759,21.72 L546.285,21.72 L546.285,29 L544.759,29 Z M551.815,29 L550.485,29 C549.435,29 548.875,28.412 548.875,27.418 L548.875,22.966 L547.741,22.966 L547.741,21.72 L548.357,21.72 C548.861,21.72 549.029,21.51 549.029,21.006 L549.029,19.732 L550.401,19.732 L550.401,21.72 L551.927,21.72 L551.927,22.966 L550.401,22.966 L550.401,27.754 L551.815,27.754 L551.815,29 Z M554.349,20.418 C553.719,20.418 553.439,20.082 553.439,19.62 L553.439,19.382 C553.439,18.92 553.719,18.584 554.349,18.584 C554.979,18.584 555.245,18.92 555.245,19.382 L555.245,19.62 C555.245,20.082 554.979,20.418 554.349,20.418 Z M553.579,29 L553.579,21.72 L555.105,21.72 L555.105,29 L553.579,29 Z M560.145,29.168 C558.115,29.168 556.799,27.684 556.799,25.36 C556.799,23.036 558.115,21.552 560.145,21.552 C562.175,21.552 563.491,23.036 563.491,25.36 C563.491,27.684 562.175,29.168 560.145,29.168 Z M560.145,27.908 C561.181,27.908 561.881,27.264 561.881,25.976 L561.881,24.744 C561.881,23.456 561.181,22.812 560.145,22.812 C559.109,22.812 558.409,23.456 558.409,24.744 L558.409,25.976 C558.409,27.264 559.109,27.908 560.145,27.908 Z M566.711,29 L565.185,29 L565.185,21.72 L566.711,21.72 L566.711,22.924 L566.781,22.924 C567.089,22.14 567.705,21.552 568.825,21.552 C570.309,21.552 571.191,22.588 571.191,24.38 L571.191,29 L569.665,29 L569.665,24.576 C569.665,23.442 569.231,22.868 568.293,22.868 C567.495,22.868 566.711,23.274 566.711,24.128 L566.711,29 Z" id="Product-Definition" fill="#000000"></path>
                <path d="M132.666,85.168 C130.972,85.168 129.838,84.51 129.096,83.53 L130.104,82.564 C130.846,83.446 131.672,83.866 132.722,83.866 C133.954,83.866 134.64,83.278 134.64,82.242 C134.64,81.402 134.206,80.968 133.03,80.772 L131.966,80.604 C130.118,80.296 129.46,79.19 129.46,77.888 C129.46,76.054 130.748,75.06 132.82,75.06 C134.36,75.06 135.452,75.592 136.124,76.474 L135.144,77.454 C134.612,76.796 133.898,76.362 132.82,76.362 C131.672,76.362 131.042,76.866 131.042,77.818 C131.042,78.616 131.462,79.064 132.666,79.26 L133.702,79.442 C135.466,79.764 136.222,80.772 136.222,82.158 C136.222,83.964 134.962,85.168 132.666,85.168 Z M144.272,85 L138.154,85 L138.154,75.228 L144.272,75.228 L144.272,76.544 L139.722,76.544 L139.722,79.386 L144.104,79.386 L144.104,80.702 L139.722,80.702 L139.722,83.684 L144.272,83.684 L144.272,85 Z M148.094,85 L146.526,85 L146.526,75.228 L150.18,75.228 C152.028,75.228 153.05,76.348 153.05,78.168 C153.05,79.988 152.028,81.108 150.18,81.108 L148.094,81.108 L148.094,85 Z M148.094,76.53 L148.094,79.806 L149.942,79.806 C150.922,79.806 151.398,79.358 151.398,78.462 L151.398,77.86 C151.398,76.964 150.922,76.53 149.942,76.53 L148.094,76.53 Z M170.06,85 L163.382,85 L163.382,83.698 L166.126,83.698 L166.126,76.376 L166.014,76.376 L163.746,78.798 L162.78,77.93 L165.272,75.228 L167.694,75.228 L167.694,83.698 L170.06,83.698 L170.06,85 Z M174.582,85 L172.916,85 L176.542,76.53 L172.734,76.53 L172.734,78.336 L171.376,78.336 L171.376,75.228 L178.11,75.228 L178.11,76.6 L174.582,85 Z" id="SEP-17" fill="#888888"></path>
                <path d="M263.176,85 L260.306,77.482 L260.18,77.482 L260.18,85 L258.808,85 L258.808,75.228 L260.824,75.228 L263.694,82.746 L263.82,82.746 L263.82,75.228 L265.192,75.228 L265.192,85 L263.176,85 Z M270.4,85.168 C267.922,85.168 266.816,83.306 266.816,80.114 C266.816,76.922 267.922,75.06 270.4,75.06 C272.878,75.06 273.984,76.922 273.984,80.114 C273.984,83.306 272.878,85.168 270.4,85.168 Z M270.4,83.866 C271.8,83.866 272.318,82.732 272.318,80.926 L272.318,79.288 C272.318,77.496 271.8,76.362 270.4,76.362 C269,76.362 268.482,77.496 268.482,79.288 L268.482,80.94 C268.482,82.732 269,83.866 270.4,83.866 Z M279.892,85 L277.708,85 L274.95,75.228 L276.644,75.228 L277.932,80.156 L278.786,83.474 L278.87,83.474 L279.724,80.156 L281.026,75.228 L282.65,75.228 L279.892,85 Z M299.31,85 L292.632,85 L292.632,83.698 L295.376,83.698 L295.376,76.376 L295.264,76.376 L292.996,78.798 L292.03,77.93 L294.522,75.228 L296.944,75.228 L296.944,83.698 L299.31,83.698 L299.31,85 Z M303.832,85 L302.166,85 L305.792,76.53 L301.984,76.53 L301.984,78.336 L300.626,78.336 L300.626,75.228 L307.36,75.228 L307.36,76.6 L303.832,85 Z" id="NOV-17" fill="#888888"></path>
                <path d="M388.982,75.228 L393.952,75.228 L393.952,82.382 C393.952,84.076 392.734,85.168 390.914,85.168 C389.206,85.168 388.17,84.244 387.876,82.746 L389.36,82.438 C389.528,83.236 389.934,83.852 390.928,83.852 C391.838,83.852 392.384,83.306 392.384,82.172 L392.384,76.544 L388.982,76.544 L388.982,75.228 Z M403.584,85 L401.918,85 L401.176,82.396 L398.068,82.396 L397.326,85 L395.73,85 L398.586,75.228 L400.728,75.228 L403.584,85 Z M400.882,81.094 L399.678,76.81 L399.566,76.81 L398.362,81.094 L400.882,81.094 Z M409.226,85 L406.356,77.482 L406.23,77.482 L406.23,85 L404.858,85 L404.858,75.228 L406.874,75.228 L409.744,82.746 L409.87,82.746 L409.87,75.228 L411.242,75.228 L411.242,85 L409.226,85 Z M428.56,85 L421.882,85 L421.882,83.698 L424.626,83.698 L424.626,76.376 L424.514,76.376 L422.246,78.798 L421.28,77.93 L423.772,75.228 L426.194,75.228 L426.194,83.698 L428.56,83.698 L428.56,85 Z M433.25,85.168 C430.94,85.168 429.708,83.95 429.708,82.326 C429.708,81.024 430.506,80.254 431.682,79.932 L431.682,79.82 C430.674,79.47 430.002,78.686 430.002,77.566 C430.002,76.068 431.192,75.06 433.25,75.06 C435.308,75.06 436.498,76.068 436.498,77.566 C436.498,78.686 435.826,79.47 434.818,79.82 L434.818,79.932 C435.994,80.254 436.792,81.024 436.792,82.326 C436.792,83.95 435.56,85.168 433.25,85.168 Z M433.25,83.922 C434.468,83.922 435.168,83.348 435.168,82.368 L435.168,82.074 C435.168,81.094 434.468,80.52 433.25,80.52 C432.032,80.52 431.332,81.094 431.332,82.074 L431.332,82.368 C431.332,83.348 432.032,83.922 433.25,83.922 Z M433.25,79.316 C434.37,79.316 434.972,78.784 434.972,77.902 L434.972,77.72 C434.972,76.838 434.37,76.306 433.25,76.306 C432.13,76.306 431.528,76.838 431.528,77.72 L431.528,77.902 C431.528,78.784 432.13,79.316 433.25,79.316 Z" id="JAN-18" fill="#888888"></path>
                <path d="M522.53,85 L522.53,80.324 L522.572,77.384 L522.46,77.384 L520.5,82.41 L518.54,77.384 L518.428,77.384 L518.47,80.324 L518.47,85 L517.084,85 L517.084,75.228 L519.002,75.228 L520.5,79.106 L520.598,79.106 L522.11,75.228 L523.916,75.228 L523.916,85 L522.53,85 Z M532.834,85 L531.168,85 L530.426,82.396 L527.318,82.396 L526.576,85 L524.98,85 L527.836,75.228 L529.978,75.228 L532.834,85 Z M530.132,81.094 L528.928,76.81 L528.816,76.81 L527.612,81.094 L530.132,81.094 Z M535.83,81.052 L535.83,85 L534.276,85 L534.276,75.228 L537.93,75.228 C539.778,75.228 540.8,76.348 540.8,78.168 C540.8,79.652 540.044,80.688 538.686,80.912 L540.94,85 L539.204,85 L537.132,81.052 L535.83,81.052 Z M535.83,79.792 L537.706,79.792 C538.686,79.792 539.162,79.358 539.162,78.462 L539.162,77.86 C539.162,76.964 538.686,76.53 537.706,76.53 L535.83,76.53 L535.83,79.792 Z M557.81,85 L551.132,85 L551.132,83.698 L553.876,83.698 L553.876,76.376 L553.764,76.376 L551.496,78.798 L550.53,77.93 L553.022,75.228 L555.444,75.228 L555.444,83.698 L557.81,83.698 L557.81,85 Z M562.5,85.168 C560.19,85.168 558.958,83.95 558.958,82.326 C558.958,81.024 559.756,80.254 560.932,79.932 L560.932,79.82 C559.924,79.47 559.252,78.686 559.252,77.566 C559.252,76.068 560.442,75.06 562.5,75.06 C564.558,75.06 565.748,76.068 565.748,77.566 C565.748,78.686 565.076,79.47 564.068,79.82 L564.068,79.932 C565.244,80.254 566.042,81.024 566.042,82.326 C566.042,83.95 564.81,85.168 562.5,85.168 Z M562.5,83.922 C563.718,83.922 564.418,83.348 564.418,82.368 L564.418,82.074 C564.418,81.094 563.718,80.52 562.5,80.52 C561.282,80.52 560.582,81.094 560.582,82.074 L560.582,82.368 C560.582,83.348 561.282,83.922 562.5,83.922 Z M562.5,79.316 C563.62,79.316 564.222,78.784 564.222,77.902 L564.222,77.72 C564.222,76.838 563.62,76.306 562.5,76.306 C561.38,76.306 560.778,76.838 560.778,77.72 L560.778,77.902 C560.778,78.784 561.38,79.316 562.5,79.316 Z" id="MAR-18" fill="#888888"></path>
                <path d="M6.222,29 L1.966,29 L1.966,27.712 L3.296,27.712 L3.296,20.516 L1.966,20.516 L1.966,19.228 L6.222,19.228 L6.222,20.516 L4.878,20.516 L4.878,27.712 L6.222,27.712 L6.222,29 Z M11.402,30.554 L11.402,21.72 L12.928,21.72 L12.928,29.98 C12.928,31.1 12.382,31.8 11.15,31.8 L10.268,31.8 L10.268,30.554 L11.402,30.554 Z M12.172,20.418 C11.542,20.418 11.262,20.082 11.262,19.62 L11.262,19.382 C11.262,18.92 11.542,18.584 12.172,18.584 C12.802,18.584 13.068,18.92 13.068,19.382 L13.068,19.62 C13.068,20.082 12.802,20.418 12.172,20.418 Z M17.968,29.168 C15.938,29.168 14.622,27.684 14.622,25.36 C14.622,23.036 15.938,21.552 17.968,21.552 C19.998,21.552 21.314,23.036 21.314,25.36 C21.314,27.684 19.998,29.168 17.968,29.168 Z M17.968,27.908 C19.004,27.908 19.704,27.264 19.704,25.976 L19.704,24.744 C19.704,23.456 19.004,22.812 17.968,22.812 C16.932,22.812 16.232,23.456 16.232,24.744 L16.232,25.976 C16.232,27.264 16.932,27.908 17.968,27.908 Z M23.778,20.418 C23.148,20.418 22.868,20.082 22.868,19.62 L22.868,19.382 C22.868,18.92 23.148,18.584 23.778,18.584 C24.408,18.584 24.674,18.92 24.674,19.382 L24.674,19.62 C24.674,20.082 24.408,20.418 23.778,20.418 Z M23.008,29 L23.008,21.72 L24.534,21.72 L24.534,29 L23.008,29 Z M28.244,29 L26.718,29 L26.718,21.72 L28.244,21.72 L28.244,22.924 L28.314,22.924 C28.622,22.14 29.238,21.552 30.358,21.552 C31.842,21.552 32.724,22.588 32.724,24.38 L32.724,29 L31.198,29 L31.198,24.576 C31.198,23.442 30.764,22.868 29.826,22.868 C29.028,22.868 28.244,23.274 28.244,24.128 L28.244,29 Z M37.694,29.168 C35.622,29.168 34.348,27.684 34.348,25.36 C34.348,23.036 35.622,21.552 37.694,21.552 C39.836,21.552 40.928,23.162 40.928,25.178 L40.928,25.752 L35.93,25.752 L35.93,25.99 C35.93,27.11 36.616,27.908 37.848,27.908 C38.744,27.908 39.346,27.488 39.766,26.816 L40.662,27.698 C40.116,28.58 39.052,29.168 37.694,29.168 Z M37.694,22.742 C36.644,22.742 35.93,23.526 35.93,24.646 L35.93,24.744 L39.318,24.744 L39.318,24.604 C39.318,23.484 38.702,22.742 37.694,22.742 Z M47.2,29 L47.2,27.796 L47.13,27.796 C46.822,28.65 46.052,29.168 45.086,29.168 C43.252,29.168 42.188,27.754 42.188,25.36 C42.188,22.966 43.252,21.552 45.086,21.552 C46.052,21.552 46.822,22.056 47.13,22.924 L47.2,22.924 L47.2,18.64 L48.726,18.64 L48.726,29 L47.2,29 Z M45.548,27.852 C46.472,27.852 47.2,27.348 47.2,26.606 L47.2,24.114 C47.2,23.372 46.472,22.868 45.548,22.868 C44.498,22.868 43.798,23.61 43.798,24.73 L43.798,25.99 C43.798,27.11 44.498,27.852 45.548,27.852 Z" id="I-joined" fill="#000000"></path>
                <circle id="Oval-11" fill="#000000" cx="25" cy="51" r="10"></circle>
                <circle id="Oval-11-Copy" fill="#000000" cx="302" cy="51" r="10"></circle>
                <circle id="Oval-11-Copy-2" fill="#000000" cx="541" cy="51" r="10"></circle>
                <rect id="Rectangle-33" fill="#0000FF" x="43" y="41" width="241" height="20" rx="10"></rect>
                <rect id="Rectangle-33-Copy" fill="#0000FF" x="320" y="41" width="203" height="20" rx="10"></rect>
                <path d="M569,41 L604,41 L604,61 L569,61 C563.477153,61 559,56.5228475 559,51 L559,51 C559,45.4771525 563.477153,41 569,41 Z" id="Rectangle-33-Copy-2" fill="#CCCCCC"></path>
                <path d="M123.782,45.228 L125.336,45.228 L125.336,51.248 C125.336,52.9 125.91,53.754 127.436,53.754 C128.962,53.754 129.536,52.9 129.536,51.248 L129.536,45.228 L131.09,45.228 L131.09,50.996 C131.09,53.852 130.11,55.168 127.436,55.168 C124.762,55.168 123.782,53.852 123.782,50.996 L123.782,45.228 Z M135.64,55.168 C134.268,55.168 133.372,54.65 132.686,53.796 L133.666,52.9 C134.198,53.544 134.856,53.936 135.724,53.936 C136.606,53.936 137.054,53.572 137.054,52.956 C137.054,52.494 136.774,52.144 136.018,52.046 L135.346,51.962 C133.862,51.78 132.952,51.136 132.952,49.792 C132.952,48.378 134.058,47.552 135.654,47.552 C136.97,47.552 137.712,47.986 138.37,48.714 L137.432,49.61 C137.054,49.162 136.438,48.784 135.654,48.784 C134.814,48.784 134.422,49.148 134.422,49.694 C134.422,50.254 134.772,50.506 135.542,50.632 L136.214,50.716 C137.81,50.954 138.524,51.654 138.524,52.83 C138.524,54.23 137.39,55.168 135.64,55.168 Z M143.102,55.168 C141.03,55.168 139.756,53.684 139.756,51.36 C139.756,49.036 141.03,47.552 143.102,47.552 C145.244,47.552 146.336,49.162 146.336,51.178 L146.336,51.752 L141.338,51.752 L141.338,51.99 C141.338,53.11 142.024,53.908 143.256,53.908 C144.152,53.908 144.754,53.488 145.174,52.816 L146.07,53.698 C145.524,54.58 144.46,55.168 143.102,55.168 Z M143.102,48.742 C142.052,48.742 141.338,49.526 141.338,50.646 L141.338,50.744 L144.726,50.744 L144.726,50.604 C144.726,49.484 144.11,48.742 143.102,48.742 Z M149.556,55 L148.03,55 L148.03,47.72 L149.556,47.72 L149.556,49.12 L149.626,49.12 C149.836,48.378 150.466,47.72 151.628,47.72 L152.034,47.72 L152.034,49.19 L151.432,49.19 C150.228,49.19 149.556,49.596 149.556,50.352 L149.556,55 Z M159.734,55.168 C158.096,55.168 156.976,54.524 156.164,53.516 L157.256,52.494 C157.942,53.334 158.754,53.768 159.818,53.768 C161.064,53.768 161.708,53.152 161.708,52.214 C161.708,51.458 161.316,51.024 160.182,50.8 L159.314,50.646 C157.424,50.296 156.458,49.414 156.458,47.86 C156.458,46.124 157.802,45.06 159.874,45.06 C161.344,45.06 162.422,45.592 163.178,46.558 L162.072,47.538 C161.568,46.88 160.868,46.46 159.79,46.46 C158.67,46.46 158.026,46.922 158.026,47.776 C158.026,48.588 158.53,48.938 159.58,49.148 L160.448,49.33 C162.394,49.708 163.276,50.576 163.276,52.13 C163.276,53.95 161.974,55.168 159.734,55.168 Z M168.386,55 L167.056,55 C166.006,55 165.446,54.412 165.446,53.418 L165.446,48.966 L164.312,48.966 L164.312,47.72 L164.928,47.72 C165.432,47.72 165.6,47.51 165.6,47.006 L165.6,45.732 L166.972,45.732 L166.972,47.72 L168.498,47.72 L168.498,48.966 L166.972,48.966 L166.972,53.754 L168.386,53.754 L168.386,55 Z M174.56,55 L174.56,53.796 L174.504,53.796 C174.238,54.51 173.664,55.168 172.46,55.168 C170.962,55.168 170.08,54.146 170.08,52.354 L170.08,47.72 L171.606,47.72 L171.606,52.158 C171.606,53.264 172.068,53.852 173.006,53.852 C173.79,53.852 174.56,53.446 174.56,52.592 L174.56,47.72 L176.086,47.72 L176.086,55 L174.56,55 Z M182.848,55 L182.848,53.796 L182.778,53.796 C182.47,54.65 181.7,55.168 180.734,55.168 C178.9,55.168 177.836,53.754 177.836,51.36 C177.836,48.966 178.9,47.552 180.734,47.552 C181.7,47.552 182.47,48.056 182.778,48.924 L182.848,48.924 L182.848,44.64 L184.374,44.64 L184.374,55 L182.848,55 Z M181.196,53.852 C182.12,53.852 182.848,53.348 182.848,52.606 L182.848,50.114 C182.848,49.372 182.12,48.868 181.196,48.868 C180.146,48.868 179.446,49.61 179.446,50.73 L179.446,51.99 C179.446,53.11 180.146,53.852 181.196,53.852 Z M189.568,52.004 L191.024,47.72 L192.494,47.72 L189.428,56.442 C189.078,57.422 188.644,57.8 187.51,57.8 L186.628,57.8 L186.628,56.554 L187.86,56.554 L188.28,55.322 L185.634,47.72 L187.16,47.72 L188.616,52.004 L189.036,53.586 L189.106,53.586 L189.568,52.004 Z M203.876,55 L197.198,55 L197.198,53.684 L199.942,53.684 L199.942,46.376 L199.83,46.376 L197.562,48.798 L196.596,47.93 L199.088,45.228 L201.496,45.228 L201.496,53.684 L203.876,53.684 L203.876,55 Z" id="User-Study-1" fill="#FFFFFF"></path>
                <path d="M381.782,45.228 L383.336,45.228 L383.336,51.248 C383.336,52.9 383.91,53.754 385.436,53.754 C386.962,53.754 387.536,52.9 387.536,51.248 L387.536,45.228 L389.09,45.228 L389.09,50.996 C389.09,53.852 388.11,55.168 385.436,55.168 C382.762,55.168 381.782,53.852 381.782,50.996 L381.782,45.228 Z M393.64,55.168 C392.268,55.168 391.372,54.65 390.686,53.796 L391.666,52.9 C392.198,53.544 392.856,53.936 393.724,53.936 C394.606,53.936 395.054,53.572 395.054,52.956 C395.054,52.494 394.774,52.144 394.018,52.046 L393.346,51.962 C391.862,51.78 390.952,51.136 390.952,49.792 C390.952,48.378 392.058,47.552 393.654,47.552 C394.97,47.552 395.712,47.986 396.37,48.714 L395.432,49.61 C395.054,49.162 394.438,48.784 393.654,48.784 C392.814,48.784 392.422,49.148 392.422,49.694 C392.422,50.254 392.772,50.506 393.542,50.632 L394.214,50.716 C395.81,50.954 396.524,51.654 396.524,52.83 C396.524,54.23 395.39,55.168 393.64,55.168 Z M401.102,55.168 C399.03,55.168 397.756,53.684 397.756,51.36 C397.756,49.036 399.03,47.552 401.102,47.552 C403.244,47.552 404.336,49.162 404.336,51.178 L404.336,51.752 L399.338,51.752 L399.338,51.99 C399.338,53.11 400.024,53.908 401.256,53.908 C402.152,53.908 402.754,53.488 403.174,52.816 L404.07,53.698 C403.524,54.58 402.46,55.168 401.102,55.168 Z M401.102,48.742 C400.052,48.742 399.338,49.526 399.338,50.646 L399.338,50.744 L402.726,50.744 L402.726,50.604 C402.726,49.484 402.11,48.742 401.102,48.742 Z M407.556,55 L406.03,55 L406.03,47.72 L407.556,47.72 L407.556,49.12 L407.626,49.12 C407.836,48.378 408.466,47.72 409.628,47.72 L410.034,47.72 L410.034,49.19 L409.432,49.19 C408.228,49.19 407.556,49.596 407.556,50.352 L407.556,55 Z M417.734,55.168 C416.096,55.168 414.976,54.524 414.164,53.516 L415.256,52.494 C415.942,53.334 416.754,53.768 417.818,53.768 C419.064,53.768 419.708,53.152 419.708,52.214 C419.708,51.458 419.316,51.024 418.182,50.8 L417.314,50.646 C415.424,50.296 414.458,49.414 414.458,47.86 C414.458,46.124 415.802,45.06 417.874,45.06 C419.344,45.06 420.422,45.592 421.178,46.558 L420.072,47.538 C419.568,46.88 418.868,46.46 417.79,46.46 C416.67,46.46 416.026,46.922 416.026,47.776 C416.026,48.588 416.53,48.938 417.58,49.148 L418.448,49.33 C420.394,49.708 421.276,50.576 421.276,52.13 C421.276,53.95 419.974,55.168 417.734,55.168 Z M426.386,55 L425.056,55 C424.006,55 423.446,54.412 423.446,53.418 L423.446,48.966 L422.312,48.966 L422.312,47.72 L422.928,47.72 C423.432,47.72 423.6,47.51 423.6,47.006 L423.6,45.732 L424.972,45.732 L424.972,47.72 L426.498,47.72 L426.498,48.966 L424.972,48.966 L424.972,53.754 L426.386,53.754 L426.386,55 Z M432.56,55 L432.56,53.796 L432.504,53.796 C432.238,54.51 431.664,55.168 430.46,55.168 C428.962,55.168 428.08,54.146 428.08,52.354 L428.08,47.72 L429.606,47.72 L429.606,52.158 C429.606,53.264 430.068,53.852 431.006,53.852 C431.79,53.852 432.56,53.446 432.56,52.592 L432.56,47.72 L434.086,47.72 L434.086,55 L432.56,55 Z M440.848,55 L440.848,53.796 L440.778,53.796 C440.47,54.65 439.7,55.168 438.734,55.168 C436.9,55.168 435.836,53.754 435.836,51.36 C435.836,48.966 436.9,47.552 438.734,47.552 C439.7,47.552 440.47,48.056 440.778,48.924 L440.848,48.924 L440.848,44.64 L442.374,44.64 L442.374,55 L440.848,55 Z M439.196,53.852 C440.12,53.852 440.848,53.348 440.848,52.606 L440.848,50.114 C440.848,49.372 440.12,48.868 439.196,48.868 C438.146,48.868 437.446,49.61 437.446,50.73 L437.446,51.99 C437.446,53.11 438.146,53.852 439.196,53.852 Z M447.568,52.004 L449.024,47.72 L450.494,47.72 L447.428,56.442 C447.078,57.422 446.644,57.8 445.51,57.8 L444.628,57.8 L444.628,56.554 L445.86,56.554 L446.28,55.322 L443.634,47.72 L445.16,47.72 L446.616,52.004 L447.036,53.586 L447.106,53.586 L447.568,52.004 Z M461.54,53.656 L461.54,55 L454.904,55 L454.904,53.488 L458.026,50.702 C459.006,49.82 459.566,49.036 459.566,48.14 L459.566,47.958 C459.566,47.02 458.95,46.432 457.984,46.432 C456.906,46.432 456.388,47.118 456.15,47.972 L454.764,47.44 C455.17,46.208 456.15,45.06 458.11,45.06 C460.098,45.06 461.246,46.264 461.246,47.958 C461.246,49.54 460.196,50.576 458.908,51.682 L456.612,53.656 L461.54,53.656 Z" id="User-Study-2" fill="#FFFFFF"></path>
            </g>
        </g>
    </g>
</svg>