<?xml version="1.0" encoding="UTF-8"?>
<svg width="604px" height="86px" viewBox="0 0 604 86" version="1.1" xmlns="http://www.w3.org/2000/svg" xmlns:xlink="http://www.w3.org/1999/xlink">
    <!-- Generator: Sketch 50.2 (55047) - http://www.bohemiancoding.com/sketch -->
    <title>projtimeline</title>
    <desc>Created with Sketch.</desc>
    <defs></defs>
    <g id="Page-1" stroke="none" stroke-width="1" fill="none" fill-rule="evenodd">
        <g id="charts" transform="translate(-786.000000, -737.000000)">
            <g id="projtimeline" transform="translate(786.000000, 737.000000)">
                <path d="M1.232,75.228 L6.202,75.228 L6.202,82.382 C6.202,84.076 4.984,85.168 3.164,85.168 C1.456,85.168 0.42,84.244 0.126,82.746 L1.61,82.438 C1.778,83.236 2.184,83.852 3.178,83.852 C4.088,83.852 4.634,83.306 4.634,82.172 L4.634,76.544 L1.232,76.544 L1.232,75.228 Z M8.666,75.228 L10.234,75.228 L10.234,81.234 C10.234,82.844 10.318,83.866 11.9,83.866 C13.482,83.866 13.566,82.844 13.566,81.234 L13.566,75.228 L15.134,75.228 L15.134,80.954 C15.134,83.754 14.63,85.168 11.9,85.168 C9.17,85.168 8.666,83.754 8.666,80.954 L8.666,75.228 Z M23.632,85 L17.612,85 L17.612,75.228 L19.18,75.228 L19.18,83.684 L23.632,83.684 L23.632,85 Z M40.81,85 L34.132,85 L34.132,83.698 L36.876,83.698 L36.876,76.376 L36.764,76.376 L34.496,78.798 L33.53,77.93 L36.022,75.228 L38.444,75.228 L38.444,83.698 L40.81,83.698 L40.81,85 Z M45.332,85 L43.666,85 L47.292,76.53 L43.484,76.53 L43.484,78.336 L42.126,78.336 L42.126,75.228 L48.86,75.228 L48.86,76.6 L45.332,85 Z" id="JUL-17" fill="#888888"></path>
                <path d="M261.349,11.168 C258.801,11.168 257.247,9.39 257.247,6.114 C257.247,2.838 258.801,1.06 261.349,1.06 C263.043,1.06 264.177,1.816 264.835,3.272 L263.505,4 C263.169,3.076 262.483,2.474 261.349,2.474 C259.851,2.474 258.927,3.566 258.927,5.372 L258.927,6.856 C258.927,8.662 259.851,9.754 261.349,9.754 C262.511,9.754 263.253,9.082 263.603,8.13 L264.877,8.9 C264.219,10.314 263.043,11.168 261.349,11.168 Z M269.301,11.168 C267.271,11.168 265.955,9.684 265.955,7.36 C265.955,5.036 267.271,3.552 269.301,3.552 C271.331,3.552 272.647,5.036 272.647,7.36 C272.647,9.684 271.331,11.168 269.301,11.168 Z M269.301,9.908 C270.337,9.908 271.037,9.264 271.037,7.976 L271.037,6.744 C271.037,5.456 270.337,4.812 269.301,4.812 C268.265,4.812 267.565,5.456 267.565,6.744 L267.565,7.976 C267.565,9.264 268.265,9.908 269.301,9.908 Z M275.867,11 L274.341,11 L274.341,3.72 L275.867,3.72 L275.867,4.924 L275.937,4.924 C276.245,4.14 276.861,3.552 277.981,3.552 C279.465,3.552 280.347,4.588 280.347,6.38 L280.347,11 L278.821,11 L278.821,6.576 C278.821,5.442 278.387,4.868 277.449,4.868 C276.651,4.868 275.867,5.274 275.867,6.128 L275.867,11 Z M285.275,11.168 C283.175,11.168 281.971,9.684 281.971,7.36 C281.971,5.036 283.175,3.552 285.275,3.552 C286.731,3.552 287.655,4.266 288.089,5.344 L286.829,5.932 C286.619,5.26 286.101,4.826 285.275,4.826 C284.155,4.826 283.581,5.596 283.581,6.716 L283.581,8.018 C283.581,9.138 284.155,9.908 285.275,9.908 C286.157,9.908 286.675,9.432 286.983,8.704 L288.145,9.32 C287.669,10.51 286.675,11.168 285.275,11.168 Z M292.373,11.168 C290.301,11.168 289.027,9.684 289.027,7.36 C289.027,5.036 290.301,3.552 292.373,3.552 C294.515,3.552 295.607,5.162 295.607,7.178 L295.607,7.752 L290.609,7.752 L290.609,7.99 C290.609,9.11 291.295,9.908 292.527,9.908 C293.423,9.908 294.025,9.488 294.445,8.816 L295.341,9.698 C294.795,10.58 293.731,11.168 292.373,11.168 Z M292.373,4.742 C291.323,4.742 290.609,5.526 290.609,6.646 L290.609,6.744 L293.997,6.744 L293.997,6.604 C293.997,5.484 293.381,4.742 292.373,4.742 Z M297.301,13.8 L297.301,3.72 L298.827,3.72 L298.827,4.924 L298.897,4.924 C299.205,4.056 299.975,3.552 300.941,3.552 C302.775,3.552 303.839,4.966 303.839,7.36 C303.839,9.754 302.775,11.168 300.941,11.168 C299.975,11.168 299.205,10.65 298.897,9.796 L298.827,9.796 L298.827,13.8 L297.301,13.8 Z M300.479,9.852 C301.529,9.852 302.229,9.11 302.229,7.99 L302.229,6.73 C302.229,5.61 301.529,4.868 300.479,4.868 C299.555,4.868 298.827,5.372 298.827,6.114 L298.827,8.606 C298.827,9.348 299.555,9.852 300.479,9.852 Z M308.851,11 L307.521,11 C306.471,11 305.911,10.412 305.911,9.418 L305.911,4.966 L304.777,4.966 L304.777,3.72 L305.393,3.72 C305.897,3.72 306.065,3.51 306.065,3.006 L306.065,1.732 L307.437,1.732 L307.437,3.72 L308.963,3.72 L308.963,4.966 L307.437,4.966 L307.437,9.754 L308.851,9.754 L308.851,11 Z M252.991,29 L252.991,19.228 L256.449,19.228 C258.941,19.228 260.579,20.852 260.579,24.114 C260.579,27.376 258.941,29 256.449,29 L252.991,29 Z M254.573,27.6 L256.449,27.6 C257.905,27.6 258.885,26.662 258.885,24.898 L258.885,23.33 C258.885,21.566 257.905,20.628 256.449,20.628 L254.573,20.628 L254.573,27.6 Z M265.297,29.168 C263.225,29.168 261.951,27.684 261.951,25.36 C261.951,23.036 263.225,21.552 265.297,21.552 C267.439,21.552 268.531,23.162 268.531,25.178 L268.531,25.752 L263.533,25.752 L263.533,25.99 C263.533,27.11 264.219,27.908 265.451,27.908 C266.347,27.908 266.949,27.488 267.369,26.816 L268.265,27.698 C267.719,28.58 266.655,29.168 265.297,29.168 Z M265.297,22.742 C264.247,22.742 263.533,23.526 263.533,24.646 L263.533,24.744 L266.921,24.744 L266.921,24.604 C266.921,23.484 266.305,22.742 265.297,22.742 Z M270.603,29 L270.603,22.966 L269.497,22.966 L269.497,21.72 L270.603,21.72 L270.603,20.516 C270.603,19.34 271.233,18.64 272.451,18.64 L273.655,18.64 L273.655,19.886 L272.129,19.886 L272.129,21.72 L276.455,21.72 L276.455,29 L274.929,29 L274.929,22.966 L272.129,22.966 L272.129,29 L270.603,29 Z M275.699,20.418 C275.069,20.418 274.789,20.082 274.789,19.62 L274.789,19.382 C274.789,18.92 275.069,18.584 275.699,18.584 C276.329,18.584 276.595,18.92 276.595,19.382 L276.595,19.62 C276.595,20.082 276.329,20.418 275.699,20.418 Z M280.165,29 L278.639,29 L278.639,21.72 L280.165,21.72 L280.165,22.924 L280.235,22.924 C280.543,22.14 281.159,21.552 282.279,21.552 C283.763,21.552 284.645,22.588 284.645,24.38 L284.645,29 L283.119,29 L283.119,24.576 C283.119,23.442 282.685,22.868 281.747,22.868 C280.949,22.868 280.165,23.274 280.165,24.128 L280.165,29 Z M287.529,20.418 C286.899,20.418 286.619,20.082 286.619,19.62 L286.619,19.382 C286.619,18.92 286.899,18.584 287.529,18.584 C288.159,18.584 288.425,18.92 288.425,19.382 L288.425,19.62 C288.425,20.082 288.159,20.418 287.529,20.418 Z M286.759,29 L286.759,21.72 L288.285,21.72 L288.285,29 L286.759,29 Z M293.815,29 L292.485,29 C291.435,29 290.875,28.412 290.875,27.418 L290.875,22.966 L289.741,22.966 L289.741,21.72 L290.357,21.72 C290.861,21.72 291.029,21.51 291.029,21.006 L291.029,19.732 L292.401,19.732 L292.401,21.72 L293.927,21.72 L293.927,22.966 L292.401,22.966 L292.401,27.754 L293.815,27.754 L293.815,29 Z M296.349,20.418 C295.719,20.418 295.439,20.082 295.439,19.62 L295.439,19.382 C295.439,18.92 295.719,18.584 296.349,18.584 C296.979,18.584 297.245,18.92 297.245,19.382 L297.245,19.62 C297.245,20.082 296.979,20.418 296.349,20.418 Z M295.579,29 L295.579,21.72 L297.105,21.72 L297.105,29 L295.579,29 Z M302.145,29.168 C300.115,29.168 298.799,27.684 298.799,25.36 C298.799,23.036 300.115,21.552 302.145,21.552 C304.175,21.552 305.491,23.036 305.491,25.36 C305.491,27.684 304.175,29.168 302.145,29.168 Z M302.145,27.908 C303.181,27.908 303.881,27.264 303.881,25.976 L303.881,24.744 C303.881,23.456 303.181,22.812 302.145,22.812 C301.109,22.812 300.409,23.456 300.409,24.744 L300.409,25.976 C300.409,27.264 301.109,27.908 302.145,27.908 Z M308.711,29 L307.185,29 L307.185,21.72 L308.711,21.72 L308.711,22.924 L308.781,22.924 C309.089,22.14 309.705,21.552 310.825,21.552 C312.309,21.552 313.191,22.588 313.191,24.38 L313.191,29 L311.665,29 L311.665,24.576 C311.665,23.442 311.231,22.868 310.293,22.868 C309.495,22.868 308.711,23.274 308.711,24.128 L308.711,29 Z" id="Concept-Definition" fill="#000000"></path>
                <path d="M518.544,11 L516.962,11 L516.962,1.228 L521.162,1.228 C522.954,1.228 524.004,2.39 524.004,4.168 C524.004,5.946 522.954,7.108 521.162,7.108 L518.544,7.108 L518.544,11 Z M518.544,2.614 L518.544,5.722 L521.064,5.722 C521.862,5.722 522.338,5.288 522.338,4.504 L522.338,3.832 C522.338,3.048 521.862,2.614 521.064,2.614 L518.544,2.614 Z M527.014,11 L525.488,11 L525.488,3.72 L527.014,3.72 L527.014,5.12 L527.084,5.12 C527.294,4.378 527.924,3.72 529.086,3.72 L529.492,3.72 L529.492,5.19 L528.89,5.19 C527.686,5.19 527.014,5.596 527.014,6.352 L527.014,11 Z M533.636,11.168 C531.606,11.168 530.29,9.684 530.29,7.36 C530.29,5.036 531.606,3.552 533.636,3.552 C535.666,3.552 536.982,5.036 536.982,7.36 C536.982,9.684 535.666,11.168 533.636,11.168 Z M533.636,9.908 C534.672,9.908 535.372,9.264 535.372,7.976 L535.372,6.744 C535.372,5.456 534.672,4.812 533.636,4.812 C532.6,4.812 531.9,5.456 531.9,6.744 L531.9,7.976 C531.9,9.264 532.6,9.908 533.636,9.908 Z M543.254,11 L543.254,9.796 L543.184,9.796 C542.876,10.65 542.106,11.168 541.14,11.168 C539.306,11.168 538.242,9.754 538.242,7.36 C538.242,4.966 539.306,3.552 541.14,3.552 C542.106,3.552 542.876,4.056 543.184,4.924 L543.254,4.924 L543.254,0.64 L544.78,0.64 L544.78,11 L543.254,11 Z M541.602,9.852 C542.526,9.852 543.254,9.348 543.254,8.606 L543.254,6.114 C543.254,5.372 542.526,4.868 541.602,4.868 C540.552,4.868 539.852,5.61 539.852,6.73 L539.852,7.99 C539.852,9.11 540.552,9.852 541.602,9.852 Z M551.374,11 L551.374,9.796 L551.318,9.796 C551.052,10.51 550.478,11.168 549.274,11.168 C547.776,11.168 546.894,10.146 546.894,8.354 L546.894,3.72 L548.42,3.72 L548.42,8.158 C548.42,9.264 548.882,9.852 549.82,9.852 C550.604,9.852 551.374,9.446 551.374,8.592 L551.374,3.72 L552.9,3.72 L552.9,11 L551.374,11 Z M557.898,11.168 C555.798,11.168 554.594,9.684 554.594,7.36 C554.594,5.036 555.798,3.552 557.898,3.552 C559.354,3.552 560.278,4.266 560.712,5.344 L559.452,5.932 C559.242,5.26 558.724,4.826 557.898,4.826 C556.778,4.826 556.204,5.596 556.204,6.716 L556.204,8.018 C556.204,9.138 556.778,9.908 557.898,9.908 C558.78,9.908 559.298,9.432 559.606,8.704 L560.768,9.32 C560.292,10.51 559.298,11.168 557.898,11.168 Z M565.57,11 L564.24,11 C563.19,11 562.63,10.412 562.63,9.418 L562.63,4.966 L561.496,4.966 L561.496,3.72 L562.112,3.72 C562.616,3.72 562.784,3.51 562.784,3.006 L562.784,1.732 L564.156,1.732 L564.156,3.72 L565.682,3.72 L565.682,4.966 L564.156,4.966 L564.156,9.754 L565.57,9.754 L565.57,11 Z M510.991,29 L510.991,19.228 L514.449,19.228 C516.941,19.228 518.579,20.852 518.579,24.114 C518.579,27.376 516.941,29 514.449,29 L510.991,29 Z M512.573,27.6 L514.449,27.6 C515.905,27.6 516.885,26.662 516.885,24.898 L516.885,23.33 C516.885,21.566 515.905,20.628 514.449,20.628 L512.573,20.628 L512.573,27.6 Z M523.297,29.168 C521.225,29.168 519.951,27.684 519.951,25.36 C519.951,23.036 521.225,21.552 523.297,21.552 C525.439,21.552 526.531,23.162 526.531,25.178 L526.531,25.752 L521.533,25.752 L521.533,25.99 C521.533,27.11 522.219,27.908 523.451,27.908 C524.347,27.908 524.949,27.488 525.369,26.816 L526.265,27.698 C525.719,28.58 524.655,29.168 523.297,29.168 Z M523.297,22.742 C522.247,22.742 521.533,23.526 521.533,24.646 L521.533,24.744 L524.921,24.744 L524.921,24.604 C524.921,23.484 524.305,22.742 523.297,22.742 Z M528.603,29 L528.603,22.966 L527.497,22.966 L527.497,21.72 L528.603,21.72 L528.603,20.516 C528.603,19.34 529.233,18.64 530.451,18.64 L531.655,18.64 L531.655,19.886 L530.129,19.886 L530.129,21.72 L534.455,21.72 L534.455,29 L532.929,29 L532.929,22.966 L530.129,22.966 L530.129,29 L528.603,29 Z M533.699,20.418 C533.069,20.418 532.789,20.082 532.789,19.62 L532.789,19.382 C532.789,18.92 533.069,18.584 533.699,18.584 C534.329,18.584 534.595,18.92 534.595,19.382 L534.595,19.62 C534.595,20.082 534.329,20.418 533.699,20.418 Z M538.165,29 L536.639,29 L536.639,21.72 L538.165,21.72 L538.165,22.924 L538.235,22.924 C538.543,22.14 539.159,21.552 540.279,21.552 C541.763,21.552 542.645,22.588 542.645,24.38 L542.645,29 L541.119,29 L541.119,24.576 C541.119,23.442 540.685,22.868 539.747,22.868 C538.949,22.868 538.165,23.274 538.165,24.128 L538.165,29 Z M545.529,20.418 C544.899,20.418 544.619,20.082 544.619,19.62 L544.619,19.382 C544.619,18.92 544.899,18.584 545.529,18.584 C546.159,18.584 546.425,18.92 546.425,19.382 L546.425,19.62 C546.425,20.082 546.159,20.418 545.529,20.418 Z M544.759,29 L544.759,21.72 L546.285,21.72 L546.285,29 L544.759,29 Z M551.815,29 L550.485,29 C549.435,29 548.875,28.412 548.875,27.418 L548.875,22.966 L547.741,22.966 L547.741,21.72 L548.357,21.72 C548.861,21.72 549.029,21.51 549.029,21.006 L549.029,19.732 L550.401,19.732 L550.401,21.72 L551.927,21.72 L551.927,22.966 L550.401,22.966 L550.401,27.754 L551.815,27.754 L551.815,29 Z M554.349,20.418 C553.719,20.418 553.439,20.082 553.439,19.62 L553.439,19.382 C553.439,18.92 553.719,18.584 554.349,18.584 C554.979,18.584 555.245,18.92 555.245,19.382 L555.245,19.62 C555.245,20.082 554.979,20.418 554.349,20.418 Z M553.579,29 L553.579,21.72 L555.105,21.72 L555.105,29 L553.579,29 Z M560.145,29.168 C558.115,29.168 556.799,27.684 556.799,25.36 C556.799,23.036 558.115,21.552 560.145,21.552 C562.175,21.552 563.491,23.036 563.491,25.36 C563.491,27.684 562.175,29.168 560.145,29.168 Z M560.145,27.908 C561.181,27.908 561.881,27.264 561.881,25.976 L561.881,24.744 C561.881,23.456 561.181,22.812 560.145,22.812 C559.109,22.812 558.409,23.456 558.409,24.744 L558.409,25.976 C558.409,27.264 559.109,27.908 560.145,27.908 Z M566.711,29 L565.185,29 L565.185,21.72 L566.711,21.72 L566.711,22.924 L566.781,22.924 C567.089,22.14 567.705,21.552 568.825,21.552 C570.309,21.552 571.191,22.588 571.191,24.38 L571.191,29 L569.665,29 L569.665,24.576 C569.665,23.442 569.231,22.868 568.293,22.868 C567.495,22.868 566.711,23.274 566.711,24.128 L566.711,29 Z" id="Product-Definition" fill="#000000"></path>
                <path d="M132.666,85.168 C130.972,85.168 129.838,84.51 129.096,83.53 L130.104,82.564 C130.846,83.446 131.672,83.866 132.722,83.866 C133.954,83.866 134.64,83.278 134.64,82.242 C134.64,81.402 134.206,80.968 133.03,80.772 L131.966,80.604 C130.118,80.296 129.46,79.19 129.46,77.888 C129.46,76.054 130.748,75.06 132.82,75.06 C134.36,75.06 135.452,75.592 136.124,76.474 L135.144,77.454 C134.612,76.796 133.898,76.362 132.82,76.362 C131.672,76.362 131.042,76.866 131.042,77.818 C131.042,78.616 131.462,79.064 132.666,79.26 L133.702,79.442 C135.466,79.764 136.222,80.772 136.222,82.158 C136.222,83.964 134.962,85.168 132.666,85.168 Z M144.272,85 L138.154,85 L138.154,75.228 L144.272,75.228 L144.272,76.544 L139.722,76.544 L139.722,79.386 L144.104,79.386 L144.104,80.702 L139.722,80.702 L139.722,83.684 L144.272,83.684 L144.272,85 Z M148.094,85 L146.526,85 L146.526,75.228 L150.18,75.228 C152.028,75.228 153.05,76.348 153.05,78.168 C153.05,79.988 152.028,81.108 150.18,81.108 L148.094,81.108 L148.094,85 Z M148.094,76.53 L148.094,79.806 L149.942,79.806 C150.922,79.806 151.398,79.358 151.398,78.462 L151.398,77.86 C151.398,76.964 150.922,76.53 149.942,76.53 L148.094,76.53 Z M170.06,85 L163.382,85 L163.382,83.698 L166.126,83.698 L166.126,76.376 L166.014,76.376 L163.746,78.798 L162.78,77.93 L165.272,75.228 L167.694,75.228 L167.694,83.698 L170.06,83.698 L170.06,85 Z M174.582,85 L172.916,85 L176.542,76.53 L172.734,76.53 L172.734,78.336 L171.376,78.336 L171.376,75.228 L178.11,75.228 L178.11,76.6 L174.582,85 Z" id="SEP-17" fill="#888888"></path>
                <path d="M263.176,85 L260.306,77.482 L260.18,77.482 L260.18,85 L258.808,85 L258.808,75.228 L260.824,75.228 L263.694,82.746 L263.82,82.746 L263.82,75.228 L265.192,75.228 L265.192,85 L263.176,85 Z M270.4,85.168 C267.922,85.168 266.816,83.306 266.816,80.114 C266.816,76.922 267.922,75.06 270.4,75.06 C272.878,75.06 273.984,76.922 273.984,80.114 C273.984,83.306 272.878,85.168 270.4,85.168 Z M270.4,83.866 C271.8,83.866 272.318,82.732 272.318,80.926 L272.318,79.288 C272.318,77.496 271.8,76.362 270.4,76.362 C269,76.362 268.482,77.496 268.482,79.288 L268.482,80.94 C268.482,82.732 269,83.866 270.4,83.866 Z M279.892,85 L277.708,85 L274.95,75.228 L276.644,75.228 L277.932,80.156 L278.786,83.474 L278.87,83.474 L279.724,80.156 L281.026,75.228 L282.65,75.228 L279.892,85 Z M299.31,85 L292.632,85 L292.632,83.698 L295.376,83.698 L295.376,76.376 L295.264,76.376 L292.996,78.798 L292.03,77.93 L294.522,75.228 L296.944,75.228 L296.944,83.698 L299.31,83.698 L299.31,85 Z M303.832,85 L302.166,85 L305.792,76.53 L301.984,76.53 L301.984,78.336 L300.626,78.336 L300.626,75.228 L307.36,75.228 L307.36,76.6 L303.832,85 Z" id="NOV-17" fill="#888888"></path>
                <path d="M388.982,75.228 L393.952,75.228 L393.952,82.382 C393.952,84.076 392.734,85.168 390.914,85.168 C389.206,85.168 388.17,84.244 387.876,82.746 L389.36,82.438 C389.528,83.236 389.934,83.852 390.928,83.852 C391.838,83.852 392.384,83.306 392.384,82.172 L392.384,76.544 L388.982,76.544 L388.982,75.228 Z M403.584,85 L401.918,85 L401.176,82.396 L398.068,82.396 L397.326,85 L395.73,85 L398.586,75.228 L400.728,75.228 L403.584,85 Z M400.882,81.094 L399.678,76.81 L399.566,76.81 L398.362,81.094 L400.882,81.094 Z M409.226,85 L406.356,77.482 L406.23,77.482 L406.23,85 L404.858,85 L404.858,75.228 L406.874,75.228 L409.744,82.746 L409.87,82.746 L409.87,75.228 L411.242,75.228 L411.242,85 L409.226,85 Z M428.56,85 L421.882,85 L421.882,83.698 L424.626,83.698 L424.626,76.376 L424.514,76.376 L422.246,78.798 L421.28,77.93 L423.772,75.228 L426.194,75.228 L426.194,83.698 L428.56,83.698 L428.56,85 Z M433.25,85.168 C430.94,85.168 429.708,83.95 429.708,82.326 C429.708,81.024 430.506,80.254 431.682,79.932 L431.682,79.82 C430.674,79.47 430.002,78.686 430.002,77.566 C430.002,76.068 431.192,75.06 433.25,75.06 C435.308,75.06 436.498,76.068 436.498,77.566 C436.498,78.686 435.826,79.47 434.818,79.82 L434.818,79.932 C435.994,80.254 436.792,81.024 436.792,82.326 C436.792,83.95 435.56,85.168 433.25,85.168 Z M433.25,83.922 C434.468,83.922 435.168,83.348 435.168,82.368 L435.168,82.074 C435.168,81.094 434.468,80.52 433.25,80.52 C432.032,80.52 431.332,81.094 431.332,82.074 L431.332,82.368 C431.332,83.348 432.032,83.922 433.25,83.922 Z M433.25,79.316 C434.37,79.316 434.972,78.784 434.972,77.902 L434.972,77.72 C434.972,76.838 434.37,76.306 433.25,76.306 C432.13,76.306 431.528,76.838 431.528,77.72 L431.528,77.902 C431.528,78.784 432.13,79.316 433.25,79.316 Z" id="JAN-18" fill="#888888"></path>
                <path d="M522.53,85 L522.53,80.324 L522.572,77.384 L522.46,77.384 L520.5,82.41 L518.54,77.384 L518.428,77.384 L518.47,80.324 L518.47,85 L517.084,85 L517.084,75.228 L519.002,75.228 L520.5,79.106 L520.598,79.106 L522.11,75.228 L523.916,75.228 L523.916,85 L522.53,85 Z M532.834,85 L531.168,85 L530.426,82.396 L527.318,82.396 L526.576,85 L524.98,85 L527.836,75.228 L529.978,75.228 L532.834,85 Z M530.132,81.094 L528.928,76.81 L528.816,76.81 L527.612,81.094 L530.132,81.094 Z M535.83,81.052 L535.83,85 L534.276,85 L534.276,75.228 L537.93,75.228 C539.778,75.228 540.8,76.348 540.8,78.168 C540.8,79.652 540.044,80.688 538.686,80.912 L540.94,85 L539.204,85 L537.132,81.052 L535.83,81.052 Z M535.83,79.792 L537.706,79.792 C538.686,79.792 539.162,79.358 539.162,78.462 L539.162,77.86 C539.162,76.964 538.686,76.53 537.706,76.53 L535.83,76.53 L535.83,79.792 Z M557.81,85 L551.132,85 L551.132,83.698 L553.876,83.698 L553.876,76.376 L553.764,76.376 L551.496,78.798 L550.53,77.93 L553.022,75.228 L555.444,75.228 L555.444,83.698 L557.81,83.698 L557.81,85 Z M562.5,85.168 C560.19,85.168 558.958,83.95 558.958,82.326 C558.958,81.024 559.756,80.254 560.932,79.932 L560.932,79.82 C559.924,79.47 559.252,78.686 559.252,77.566 C559.252,76.068 560.442,75.06 562.5,75.06 C564.558,75.06 565.748,76.068 565.748,77.566 C565.748,78.686 565.076,79.47 564.068,79.82 L564.068,79.932 C565.244,80.254 566.042,81.024 566.042,82.326 C566.042,83.95 564.81,85.168 562.5,85.168 Z M562.5,83.922 C563.718,83.922 564.418,83.348 564.418,82.368 L564.418,82.074 C564.418,81.094 563.718,80.52 562.5,80.52 C561.282,80.52 560.582,81.094 560.582,82.074 L560.582,82.368 C560.582,83.348 561.282,83.922 562.5,83.922 Z M562.5,79.316 C563.62,79.316 564.222,78.784 564.222,77.902 L564.222,77.72 C564.222,76.838 563.62,76.306 562.5,76.306 C561.38,76.306 560.778,76.838 560.778,77.72 L560.778,77.902 C560.778,78.784 561.38,79.316 562.5,79.316 Z" id="MAR-18" fill="#888888"></path>
                <path d="M6.222,29 L1.966,29 L1.966,27.712 L3.296,27.712 L3.296,20.516 L1.966,20.516 L1.966,19.228 L6.222,19.228 L6.222,20.516 L4.878,20.516 L4.878,27.712 L6.222,27.712 L6.222,29 Z M11.402,30.554 L11.402,21.72 L12.928,21.72 L12.928,29.98 C12.928,31.1 12.382,31.8 11.15,31.8 L10.268,31.8 L10.268,30.554 L11.402,30.554 Z M12.172,20.418 C11.542,20.418 11.262,20.082 11.262,19.62 L11.262,19.382 C11.262,18.92 11.542,18.584 12.172,18.584 C12.802,18.584 13.068,18.92 13.068,19.382 L13.068,19.62 C13.068,20.082 12.802,20.418 12.172,20.418 Z M17.968,29.168 C15.938,29.168 14.622,27.684 14.622,25.36 C14.622,23.036 15.938,21.552 17.968,21.552 C19.998,21.552 21.314,23.036 21.314,25.36 C21.314,27.684 19.998,29.168 17.968,29.168 Z M17.968,27.908 C19.004,27.908 19.704,27.264 19.704,25.976 L19.704,24.744 C19.704,23.456 19.004,22.812 17.968,22.812 C16.932,22.812 16.232,23.456 16.232,24.744 L16.232,25.976 C16.232,27.264 16.932,27.908 17.968,27.908 Z M23.778,20.418 C23.148,20.418 22.868,20.082 22.868,19.62 L22.868,19.382 C22.868,18.92 23.148,18.584 23.778,18.584 C24.408,18.584 24.674,18.92 24.674,19.382 L24.674,19.62 C24.674,20.082 24.408,20.418 23.778,20.418 Z M23.008,29 L23.008,21.72 L24.534,21.72 L24.534,29 L23.008,29 Z M28.244,29 L26.718,29 L26.718,21.72 L28.244,21.72 L28.244,22.924 L28.314,22.924 C28.622,22.14 29.238,21.552 30.358,21.552 C31.842,21.552 32.724,22.588 32.724,24.38 L32.724,29 L31.198,29 L31.198,24.576 C31.198,23.442 30.764,22.868 29.826,22.868 C29.028,22.868 28.244,23.274 28.244,24.128 L28.244,29 Z M37.694,29.168 C35.622,29.168 34.348,27.684 34.348,25.36 C34.348,23.036 35.622,21.552 37.694,21.552 C39.836,21.552 40.928,23.162 40.928,25.178 L40.928,25.752 L35.93,25.752 L35.93,25.99 C35.93,27.11 36.616,27.908 37.848,27.908 C38.744,27.908 39.346,27.488 39.766,26.816 L40.662,27.698 C40.116,28.58 39.052,29.168 37.694,29.168 Z M37.694,22.742 C36.644,22.742 35.93,23.526 35.93,24.646 L35.93,24.744 L39.318,24.744 L39.318,24.604 C39.318,23.484 38.702,22.742 37.694,22.742 Z M47.2,29 L47.2,27.796 L47.13,27.796 C46.822,28.65 46.052,29.168 45.086,29.168 C43.252,29.168 42.188,27.754 42.188,25.36 C42.188,22.966 43.252,21.552 45.086,21.552 C46.052,21.552 46.822,22.056 47.13,22.924 L47.2,22.924 L47.2,18.64 L48.726,18.64 L48.726,29 L47.2,29 Z M45.548,27.852 C46.472,27.852 47.2,27.348 47.2,26.606 L47.2,24.114 C47.2,23.372 46.472,22.868 45.548,22.868 C44.498,22.868 43.798,23.61 43.798,24.73 L43.798,25.99 C43.798,27.11 44.498,27.852 45.548,27.852 Z" id="I-joined" fill="#000000"></path>
                <circle id="Oval-11" fill="#000000" cx="25" cy="51" r="10"></circle>
                <circle id="Oval-11-Copy" fill="#000000" cx="283" cy="51" r="10"></circle>
                <circle id="Oval-11-Copy-2" fill="#000000" cx="541" cy="51" r="10"></circle>
                <rect id="Rectangle-33" fill="#0000FF" x="43" y="41" width="222" height="20" rx="10"></rect>
                <rect id="Rectangle-33-Copy" fill="#0000FF" x="301" y="41" width="222" height="20" rx="10"></rect>
                <path d="M569,41 L604,41 L604,61 L569,61 C563.477153,61 559,56.5228475 559,51 L559,51 C559,45.4771525 563.477153,41 569,41 Z" id="Rectangle-33-Copy-2" fill="#CCCCCC"></path>
                <path d="M114,45.588 L115.554,45.588 L115.554,51.608 C115.554,53.26 116.128,54.114 117.654,54.114 C119.18,54.114 119.754,53.26 119.754,51.608 L119.754,45.588 L121.308,45.588 L121.308,51.356 C121.308,54.212 120.328,55.528 117.654,55.528 C114.98,55.528 114,54.212 114,51.356 L114,45.588 Z M125.858,55.528 C124.486,55.528 123.59,55.01 122.904,54.156 L123.884,53.26 C124.416,53.904 125.074,54.296 125.942,54.296 C126.824,54.296 127.272,53.932 127.272,53.316 C127.272,52.854 126.992,52.504 126.236,52.406 L125.564,52.322 C124.08,52.14 123.17,51.496 123.17,50.152 C123.17,48.738 124.276,47.912 125.872,47.912 C127.188,47.912 127.93,48.346 128.588,49.074 L127.65,49.97 C127.272,49.522 126.656,49.144 125.872,49.144 C125.032,49.144 124.64,49.508 124.64,50.054 C124.64,50.614 124.99,50.866 125.76,50.992 L126.432,51.076 C128.028,51.314 128.742,52.014 128.742,53.19 C128.742,54.59 127.608,55.528 125.858,55.528 Z M133.32,55.528 C131.248,55.528 129.974,54.044 129.974,51.72 C129.974,49.396 131.248,47.912 133.32,47.912 C135.462,47.912 136.554,49.522 136.554,51.538 L136.554,52.112 L131.556,52.112 L131.556,52.35 C131.556,53.47 132.242,54.268 133.474,54.268 C134.37,54.268 134.972,53.848 135.392,53.176 L136.288,54.058 C135.742,54.94 134.678,55.528 133.32,55.528 Z M133.32,49.102 C132.27,49.102 131.556,49.886 131.556,51.006 L131.556,51.104 L134.944,51.104 L134.944,50.964 C134.944,49.844 134.328,49.102 133.32,49.102 Z M139.774,55.36 L138.248,55.36 L138.248,48.08 L139.774,48.08 L139.774,49.48 L139.844,49.48 C140.054,48.738 140.684,48.08 141.846,48.08 L142.252,48.08 L142.252,49.55 L141.65,49.55 C140.446,49.55 139.774,49.956 139.774,50.712 L139.774,55.36 Z M149.952,55.528 C148.314,55.528 147.194,54.884 146.382,53.876 L147.474,52.854 C148.16,53.694 148.972,54.128 150.036,54.128 C151.282,54.128 151.926,53.512 151.926,52.574 C151.926,51.818 151.534,51.384 150.4,51.16 L149.532,51.006 C147.642,50.656 146.676,49.774 146.676,48.22 C146.676,46.484 148.02,45.42 150.092,45.42 C151.562,45.42 152.64,45.952 153.396,46.918 L152.29,47.898 C151.786,47.24 151.086,46.82 150.008,46.82 C148.888,46.82 148.244,47.282 148.244,48.136 C148.244,48.948 148.748,49.298 149.798,49.508 L150.666,49.69 C152.612,50.068 153.494,50.936 153.494,52.49 C153.494,54.31 152.192,55.528 149.952,55.528 Z M158.604,55.36 L157.274,55.36 C156.224,55.36 155.664,54.772 155.664,53.778 L155.664,49.326 L154.53,49.326 L154.53,48.08 L155.146,48.08 C155.65,48.08 155.818,47.87 155.818,47.366 L155.818,46.092 L157.19,46.092 L157.19,48.08 L158.716,48.08 L158.716,49.326 L157.19,49.326 L157.19,54.114 L158.604,54.114 L158.604,55.36 Z M164.778,55.36 L164.778,54.156 L164.722,54.156 C164.456,54.87 163.882,55.528 162.678,55.528 C161.18,55.528 160.298,54.506 160.298,52.714 L160.298,48.08 L161.824,48.08 L161.824,52.518 C161.824,53.624 162.286,54.212 163.224,54.212 C164.008,54.212 164.778,53.806 164.778,52.952 L164.778,48.08 L166.304,48.08 L166.304,55.36 L164.778,55.36 Z M173.066,55.36 L173.066,54.156 L172.996,54.156 C172.688,55.01 171.918,55.528 170.952,55.528 C169.118,55.528 168.054,54.114 168.054,51.72 C168.054,49.326 169.118,47.912 170.952,47.912 C171.918,47.912 172.688,48.416 172.996,49.284 L173.066,49.284 L173.066,45 L174.592,45 L174.592,55.36 L173.066,55.36 Z M171.414,54.212 C172.338,54.212 173.066,53.708 173.066,52.966 L173.066,50.474 C173.066,49.732 172.338,49.228 171.414,49.228 C170.364,49.228 169.664,49.97 169.664,51.09 L169.664,52.35 C169.664,53.47 170.364,54.212 171.414,54.212 Z M179.786,52.364 L181.242,48.08 L182.712,48.08 L179.646,56.802 C179.296,57.782 178.862,58.16 177.728,58.16 L176.846,58.16 L176.846,56.914 L178.078,56.914 L178.498,55.682 L175.852,48.08 L177.378,48.08 L178.834,52.364 L179.254,53.946 L179.324,53.946 L179.786,52.364 Z M194.094,55.36 L187.416,55.36 L187.416,54.044 L190.16,54.044 L190.16,46.736 L190.048,46.736 L187.78,49.158 L186.814,48.29 L189.306,45.588 L191.714,45.588 L191.714,54.044 L194.094,54.044 L194.094,55.36 Z" id="User-Study-1" fill="#FFFFFF"></path>
                <path d="M372,45.588 L373.554,45.588 L373.554,51.608 C373.554,53.26 374.128,54.114 375.654,54.114 C377.18,54.114 377.754,53.26 377.754,51.608 L377.754,45.588 L379.308,45.588 L379.308,51.356 C379.308,54.212 378.328,55.528 375.654,55.528 C372.98,55.528 372,54.212 372,51.356 L372,45.588 Z M383.858,55.528 C382.486,55.528 381.59,55.01 380.904,54.156 L381.884,53.26 C382.416,53.904 383.074,54.296 383.942,54.296 C384.824,54.296 385.272,53.932 385.272,53.316 C385.272,52.854 384.992,52.504 384.236,52.406 L383.564,52.322 C382.08,52.14 381.17,51.496 381.17,50.152 C381.17,48.738 382.276,47.912 383.872,47.912 C385.188,47.912 385.93,48.346 386.588,49.074 L385.65,49.97 C385.272,49.522 384.656,49.144 383.872,49.144 C383.032,49.144 382.64,49.508 382.64,50.054 C382.64,50.614 382.99,50.866 383.76,50.992 L384.432,51.076 C386.028,51.314 386.742,52.014 386.742,53.19 C386.742,54.59 385.608,55.528 383.858,55.528 Z M391.32,55.528 C389.248,55.528 387.974,54.044 387.974,51.72 C387.974,49.396 389.248,47.912 391.32,47.912 C393.462,47.912 394.554,49.522 394.554,51.538 L394.554,52.112 L389.556,52.112 L389.556,52.35 C389.556,53.47 390.242,54.268 391.474,54.268 C392.37,54.268 392.972,53.848 393.392,53.176 L394.288,54.058 C393.742,54.94 392.678,55.528 391.32,55.528 Z M391.32,49.102 C390.27,49.102 389.556,49.886 389.556,51.006 L389.556,51.104 L392.944,51.104 L392.944,50.964 C392.944,49.844 392.328,49.102 391.32,49.102 Z M397.774,55.36 L396.248,55.36 L396.248,48.08 L397.774,48.08 L397.774,49.48 L397.844,49.48 C398.054,48.738 398.684,48.08 399.846,48.08 L400.252,48.08 L400.252,49.55 L399.65,49.55 C398.446,49.55 397.774,49.956 397.774,50.712 L397.774,55.36 Z M407.952,55.528 C406.314,55.528 405.194,54.884 404.382,53.876 L405.474,52.854 C406.16,53.694 406.972,54.128 408.036,54.128 C409.282,54.128 409.926,53.512 409.926,52.574 C409.926,51.818 409.534,51.384 408.4,51.16 L407.532,51.006 C405.642,50.656 404.676,49.774 404.676,48.22 C404.676,46.484 406.02,45.42 408.092,45.42 C409.562,45.42 410.64,45.952 411.396,46.918 L410.29,47.898 C409.786,47.24 409.086,46.82 408.008,46.82 C406.888,46.82 406.244,47.282 406.244,48.136 C406.244,48.948 406.748,49.298 407.798,49.508 L408.666,49.69 C410.612,50.068 411.494,50.936 411.494,52.49 C411.494,54.31 410.192,55.528 407.952,55.528 Z M416.604,55.36 L415.274,55.36 C414.224,55.36 413.664,54.772 413.664,53.778 L413.664,49.326 L412.53,49.326 L412.53,48.08 L413.146,48.08 C413.65,48.08 413.818,47.87 413.818,47.366 L413.818,46.092 L415.19,46.092 L415.19,48.08 L416.716,48.08 L416.716,49.326 L415.19,49.326 L415.19,54.114 L416.604,54.114 L416.604,55.36 Z M422.778,55.36 L422.778,54.156 L422.722,54.156 C422.456,54.87 421.882,55.528 420.678,55.528 C419.18,55.528 418.298,54.506 418.298,52.714 L418.298,48.08 L419.824,48.08 L419.824,52.518 C419.824,53.624 420.286,54.212 421.224,54.212 C422.008,54.212 422.778,53.806 422.778,52.952 L422.778,48.08 L424.304,48.08 L424.304,55.36 L422.778,55.36 Z M431.066,55.36 L431.066,54.156 L430.996,54.156 C430.688,55.01 429.918,55.528 428.952,55.528 C427.118,55.528 426.054,54.114 426.054,51.72 C426.054,49.326 427.118,47.912 428.952,47.912 C429.918,47.912 430.688,48.416 430.996,49.284 L431.066,49.284 L431.066,45 L432.592,45 L432.592,55.36 L431.066,55.36 Z M429.414,54.212 C430.338,54.212 431.066,53.708 431.066,52.966 L431.066,50.474 C431.066,49.732 430.338,49.228 429.414,49.228 C428.364,49.228 427.664,49.97 427.664,51.09 L427.664,52.35 C427.664,53.47 428.364,54.212 429.414,54.212 Z M437.786,52.364 L439.242,48.08 L440.712,48.08 L437.646,56.802 C437.296,57.782 436.862,58.16 435.728,58.16 L434.846,58.16 L434.846,56.914 L436.078,56.914 L436.498,55.682 L433.852,48.08 L435.378,48.08 L436.834,52.364 L437.254,53.946 L437.324,53.946 L437.786,52.364 Z M451.758,54.016 L451.758,55.36 L445.122,55.36 L445.122,53.848 L448.244,51.062 C449.224,50.18 449.784,49.396 449.784,48.5 L449.784,48.318 C449.784,47.38 449.168,46.792 448.202,46.792 C447.124,46.792 446.606,47.478 446.368,48.332 L444.982,47.8 C445.388,46.568 446.368,45.42 448.328,45.42 C450.316,45.42 451.464,46.624 451.464,48.318 C451.464,49.9 450.414,50.936 449.126,52.042 L446.83,54.016 L451.758,54.016 Z" id="User-Study-2" fill="#FFFFFF"></path>
            </g>
        </g>
    </g>
</svg>