<svg height="86" viewBox="0 0 604 86" width="604" xmlns="http://www.w3.org/2000/svg"><g fill="none" fill-rule="evenodd"><path d="m1.232 75.228h4.97v7.154c0 1.694-1.218 2.786-3.038 2.786-1.708 0-2.744-.924-3.038-2.422l1.484-.308c.168.798.574 1.414 1.568 1.414.91 0 1.456-.546 1.456-1.68v-5.628h-3.402zm7.434 0h1.568v6.006c0 1.61.084 2.632 1.666 2.632s1.666-1.022 1.666-2.632v-6.006h1.568v5.726c0 2.8-.504 4.214-3.234 4.214s-3.234-1.414-3.234-4.214zm14.966 9.772h-6.02v-9.772h1.568v8.456h4.452zm17.178 0h-6.678v-1.302h2.744v-7.322h-.112l-2.268 2.422-.966-.868 2.492-2.702h2.422v8.47h2.366zm4.522 0h-1.666l3.626-8.47h-3.808v1.806h-1.358v-3.108h6.734v1.372z" fill="#888"/><path d="m261.349 11.168c-2.548 0-4.102-1.778-4.102-5.054s1.554-5.054 4.102-5.054c1.694 0 2.828.756 3.486 2.212l-1.33.728c-.336-.924-1.022-1.526-2.156-1.526-1.498 0-2.422 1.092-2.422 2.898v1.484c0 1.806.924 2.898 2.422 2.898 1.162 0 1.904-.672 2.254-1.624l1.274.77c-.658 1.414-1.834 2.268-3.528 2.268zm7.952 0c-2.03 0-3.346-1.484-3.346-3.808s1.316-3.808 3.346-3.808 3.346 1.484 3.346 3.808-1.316 3.808-3.346 3.808zm0-1.26c1.036 0 1.736-.644 1.736-1.932v-1.232c0-1.288-.7-1.932-1.736-1.932s-1.736.644-1.736 1.932v1.232c0 1.288.7 1.932 1.736 1.932zm6.566 1.092h-1.526v-7.28h1.526v1.204h.07c.308-.784.924-1.372 2.044-1.372 1.484 0 2.366 1.036 2.366 2.828v4.62h-1.526v-4.424c0-1.134-.434-1.708-1.372-1.708-.798 0-1.582.406-1.582 1.26zm9.408.168c-2.1 0-3.304-1.484-3.304-3.808s1.204-3.808 3.304-3.808c1.456 0 2.38.714 2.814 1.792l-1.26.588c-.21-.672-.728-1.106-1.554-1.106-1.12 0-1.694.77-1.694 1.89v1.302c0 1.12.574 1.89 1.694 1.89.882 0 1.4-.476 1.708-1.204l1.162.616c-.476 1.19-1.47 1.848-2.87 1.848zm7.098 0c-2.072 0-3.346-1.484-3.346-3.808s1.274-3.808 3.346-3.808c2.142 0 3.234 1.61 3.234 3.626v.574h-4.998v.238c0 1.12.686 1.918 1.918 1.918.896 0 1.498-.42 1.918-1.092l.896.882c-.546.882-1.61 1.47-2.968 1.47zm0-6.426c-1.05 0-1.764.784-1.764 1.904v.098h3.388v-.14c0-1.12-.616-1.862-1.624-1.862zm4.928 9.058v-10.08h1.526v1.204h.07c.308-.868 1.078-1.372 2.044-1.372 1.834 0 2.898 1.414 2.898 3.808s-1.064 3.808-2.898 3.808c-.966 0-1.736-.518-2.044-1.372h-.07v4.004zm3.178-3.948c1.05 0 1.75-.742 1.75-1.862v-1.26c0-1.12-.7-1.862-1.75-1.862-.924 0-1.652.504-1.652 1.246v2.492c0 .742.728 1.246 1.652 1.246zm8.372 1.148h-1.33c-1.05 0-1.61-.588-1.61-1.582v-4.452h-1.134v-1.246h.616c.504 0 .672-.21.672-.714v-1.274h1.372v1.988h1.526v1.246h-1.526v4.788h1.414zm-55.86 18v-9.772h3.458c2.492 0 4.13 1.624 4.13 4.886s-1.638 4.886-4.13 4.886zm1.582-1.4h1.876c1.456 0 2.436-.938 2.436-2.702v-1.568c0-1.764-.98-2.702-2.436-2.702h-1.876zm10.724 1.568c-2.072 0-3.346-1.484-3.346-3.808s1.274-3.808 3.346-3.808c2.142 0 3.234 1.61 3.234 3.626v.574h-4.998v.238c0 1.12.686 1.918 1.918 1.918.896 0 1.498-.42 1.918-1.092l.896.882c-.546.882-1.61 1.47-2.968 1.47zm0-6.426c-1.05 0-1.764.784-1.764 1.904v.098h3.388v-.14c0-1.12-.616-1.862-1.624-1.862zm5.306 6.258v-6.034h-1.106v-1.246h1.106v-1.204c0-1.176.63-1.876 1.848-1.876h1.204v1.246h-1.526v1.834h4.326v7.28h-1.526v-6.034h-2.8v6.034zm5.096-8.582c-.63 0-.91-.336-.91-.798v-.238c0-.462.28-.798.91-.798s.896.336.896.798v.238c0 .462-.266.798-.896.798zm4.466 8.582h-1.526v-7.28h1.526v1.204h.07c.308-.784.924-1.372 2.044-1.372 1.484 0 2.366 1.036 2.366 2.828v4.62h-1.526v-4.424c0-1.134-.434-1.708-1.372-1.708-.798 0-1.582.406-1.582 1.26zm7.364-8.582c-.63 0-.91-.336-.91-.798v-.238c0-.462.28-.798.91-.798s.896.336.896.798v.238c0 .462-.266.798-.896.798zm-.77 8.582v-7.28h1.526v7.28zm7.056 0h-1.33c-1.05 0-1.61-.588-1.61-1.582v-4.452h-1.134v-1.246h.616c.504 0 .672-.21.672-.714v-1.274h1.372v1.988h1.526v1.246h-1.526v4.788h1.414zm2.534-8.582c-.63 0-.91-.336-.91-.798v-.238c0-.462.28-.798.91-.798s.896.336.896.798v.238c0 .462-.266.798-.896.798zm-.77 8.582v-7.28h1.526v7.28zm6.566.168c-2.03 0-3.346-1.484-3.346-3.808s1.316-3.808 3.346-3.808 3.346 1.484 3.346 3.808-1.316 3.808-3.346 3.808zm0-1.26c1.036 0 1.736-.644 1.736-1.932v-1.232c0-1.288-.7-1.932-1.736-1.932s-1.736.644-1.736 1.932v1.232c0 1.288.7 1.932 1.736 1.932zm6.566 1.092h-1.526v-7.28h1.526v1.204h.07c.308-.784.924-1.372 2.044-1.372 1.484 0 2.366 1.036 2.366 2.828v4.62h-1.526v-4.424c0-1.134-.434-1.708-1.372-1.708-.798 0-1.582.406-1.582 1.26z" fill="#000"/><path d="m518.544 11h-1.582v-9.772h4.2c1.792 0 2.842 1.162 2.842 2.94s-1.05 2.94-2.842 2.94h-2.618zm0-8.386v3.108h2.52c.798 0 1.274-.434 1.274-1.218v-.672c0-.784-.476-1.218-1.274-1.218zm8.47 8.386h-1.526v-7.28h1.526v1.4h.07c.21-.742.84-1.4 2.002-1.4h.406v1.47h-.602c-1.204 0-1.876.406-1.876 1.162zm6.622.168c-2.03 0-3.346-1.484-3.346-3.808s1.316-3.808 3.346-3.808 3.346 1.484 3.346 3.808-1.316 3.808-3.346 3.808zm0-1.26c1.036 0 1.736-.644 1.736-1.932v-1.232c0-1.288-.7-1.932-1.736-1.932s-1.736.644-1.736 1.932v1.232c0 1.288.7 1.932 1.736 1.932zm9.618 1.092v-1.204h-.07c-.308.854-1.078 1.372-2.044 1.372-1.834 0-2.898-1.414-2.898-3.808s1.064-3.808 2.898-3.808c.966 0 1.736.504 2.044 1.372h.07v-4.284h1.526v10.36zm-1.652-1.148c.924 0 1.652-.504 1.652-1.246v-2.492c0-.742-.728-1.246-1.652-1.246-1.05 0-1.75.742-1.75 1.862v1.26c0 1.12.7 1.862 1.75 1.862zm9.772 1.148v-1.204h-.056c-.266.714-.84 1.372-2.044 1.372-1.498 0-2.38-1.022-2.38-2.814v-4.634h1.526v4.438c0 1.106.462 1.694 1.4 1.694.784 0 1.554-.406 1.554-1.26v-4.872h1.526v7.28zm6.524.168c-2.1 0-3.304-1.484-3.304-3.808s1.204-3.808 3.304-3.808c1.456 0 2.38.714 2.814 1.792l-1.26.588c-.21-.672-.728-1.106-1.554-1.106-1.12 0-1.694.77-1.694 1.89v1.302c0 1.12.574 1.89 1.694 1.89.882 0 1.4-.476 1.708-1.204l1.162.616c-.476 1.19-1.47 1.848-2.87 1.848zm7.672-.168h-1.33c-1.05 0-1.61-.588-1.61-1.582v-4.452h-1.134v-1.246h.616c.504 0 .672-.21.672-.714v-1.274h1.372v1.988h1.526v1.246h-1.526v4.788h1.414zm-54.579 18v-9.772h3.458c2.492 0 4.13 1.624 4.13 4.886s-1.638 4.886-4.13 4.886zm1.582-1.4h1.876c1.456 0 2.436-.938 2.436-2.702v-1.568c0-1.764-.98-2.702-2.436-2.702h-1.876zm10.724 1.568c-2.072 0-3.346-1.484-3.346-3.808s1.274-3.808 3.346-3.808c2.142 0 3.234 1.61 3.234 3.626v.574h-4.998v.238c0 1.12.686 1.918 1.918 1.918.896 0 1.498-.42 1.918-1.092l.896.882c-.546.882-1.61 1.47-2.968 1.47zm0-6.426c-1.05 0-1.764.784-1.764 1.904v.098h3.388v-.14c0-1.12-.616-1.862-1.624-1.862zm5.306 6.258v-6.034h-1.106v-1.246h1.106v-1.204c0-1.176.63-1.876 1.848-1.876h1.204v1.246h-1.526v1.834h4.326v7.28h-1.526v-6.034h-2.8v6.034zm5.096-8.582c-.63 0-.91-.336-.91-.798v-.238c0-.462.28-.798.91-.798s.896.336.896.798v.238c0 .462-.266.798-.896.798zm4.466 8.582h-1.526v-7.28h1.526v1.204h.07c.308-.784.924-1.372 2.044-1.372 1.484 0 2.366 1.036 2.366 2.828v4.62h-1.526v-4.424c0-1.134-.434-1.708-1.372-1.708-.798 0-1.582.406-1.582 1.26zm7.364-8.582c-.63 0-.91-.336-.91-.798v-.238c0-.462.28-.798.91-.798s.896.336.896.798v.238c0 .462-.266.798-.896.798zm-.77 8.582v-7.28h1.526v7.28zm7.056 0h-1.33c-1.05 0-1.61-.588-1.61-1.582v-4.452h-1.134v-1.246h.616c.504 0 .672-.21.672-.714v-1.274h1.372v1.988h1.526v1.246h-1.526v4.788h1.414zm2.534-8.582c-.63 0-.91-.336-.91-.798v-.238c0-.462.28-.798.91-.798s.896.336.896.798v.238c0 .462-.266.798-.896.798zm-.77 8.582v-7.28h1.526v7.28zm6.566.168c-2.03 0-3.346-1.484-3.346-3.808s1.316-3.808 3.346-3.808 3.346 1.484 3.346 3.808-1.316 3.808-3.346 3.808zm0-1.26c1.036 0 1.736-.644 1.736-1.932v-1.232c0-1.288-.7-1.932-1.736-1.932s-1.736.644-1.736 1.932v1.232c0 1.288.7 1.932 1.736 1.932zm6.566 1.092h-1.526v-7.28h1.526v1.204h.07c.308-.784.924-1.372 2.044-1.372 1.484 0 2.366 1.036 2.366 2.828v4.62h-1.526v-4.424c0-1.134-.434-1.708-1.372-1.708-.798 0-1.582.406-1.582 1.26z" fill="#000"/><g fill="#888"><path d="m132.666 85.168c-1.694 0-2.828-.658-3.57-1.638l1.008-.966c.742.882 1.568 1.302 2.618 1.302 1.232 0 1.918-.588 1.918-1.624 0-.84-.434-1.274-1.61-1.47l-1.064-.168c-1.848-.308-2.506-1.414-2.506-2.716 0-1.834 1.288-2.828 3.36-2.828 1.54 0 2.632.532 3.304 1.414l-.98.98c-.532-.658-1.246-1.092-2.324-1.092-1.148 0-1.778.504-1.778 1.456 0 .798.42 1.246 1.624 1.442l1.036.182c1.764.322 2.52 1.33 2.52 2.716 0 1.806-1.26 3.01-3.556 3.01zm11.606-.168h-6.118v-9.772h6.118v1.316h-4.55v2.842h4.382v1.316h-4.382v2.982h4.55zm3.822 0h-1.568v-9.772h3.654c1.848 0 2.87 1.12 2.87 2.94s-1.022 2.94-2.87 2.94h-2.086zm0-8.47v3.276h1.848c.98 0 1.456-.448 1.456-1.344v-.602c0-.896-.476-1.33-1.456-1.33zm21.966 8.47h-6.678v-1.302h2.744v-7.322h-.112l-2.268 2.422-.966-.868 2.492-2.702h2.422v8.47h2.366zm4.522 0h-1.666l3.626-8.47h-3.808v1.806h-1.358v-3.108h6.734v1.372z"/><path d="m263.176 85-2.87-7.518h-.126v7.518h-1.372v-9.772h2.016l2.87 7.518h.126v-7.518h1.372v9.772zm7.224.168c-2.478 0-3.584-1.862-3.584-5.054s1.106-5.054 3.584-5.054 3.584 1.862 3.584 5.054-1.106 5.054-3.584 5.054zm0-1.302c1.4 0 1.918-1.134 1.918-2.94v-1.638c0-1.792-.518-2.926-1.918-2.926s-1.918 1.134-1.918 2.926v1.652c0 1.792.518 2.926 1.918 2.926zm9.492 1.134h-2.184l-2.758-9.772h1.694l1.288 4.928.854 3.318h.084l.854-3.318 1.302-4.928h1.624zm19.418 0h-6.678v-1.302h2.744v-7.322h-.112l-2.268 2.422-.966-.868 2.492-2.702h2.422v8.47h2.366zm4.522 0h-1.666l3.626-8.47h-3.808v1.806h-1.358v-3.108h6.734v1.372z"/><path d="m388.982 75.228h4.97v7.154c0 1.694-1.218 2.786-3.038 2.786-1.708 0-2.744-.924-3.038-2.422l1.484-.308c.168.798.574 1.414 1.568 1.414.91 0 1.456-.546 1.456-1.68v-5.628h-3.402zm14.602 9.772h-1.666l-.742-2.604h-3.108l-.742 2.604h-1.596l2.856-9.772h2.142zm-2.702-3.906-1.204-4.284h-.112l-1.204 4.284zm8.344 3.906-2.87-7.518h-.126v7.518h-1.372v-9.772h2.016l2.87 7.518h.126v-7.518h1.372v9.772zm19.334 0h-6.678v-1.302h2.744v-7.322h-.112l-2.268 2.422-.966-.868 2.492-2.702h2.422v8.47h2.366zm4.69.168c-2.31 0-3.542-1.218-3.542-2.842 0-1.302.798-2.072 1.974-2.394v-.112c-1.008-.35-1.68-1.134-1.68-2.254 0-1.498 1.19-2.506 3.248-2.506s3.248 1.008 3.248 2.506c0 1.12-.672 1.904-1.68 2.254v.112c1.176.322 1.974 1.092 1.974 2.394 0 1.624-1.232 2.842-3.542 2.842zm0-1.246c1.218 0 1.918-.574 1.918-1.554v-.294c0-.98-.7-1.554-1.918-1.554s-1.918.574-1.918 1.554v.294c0 .98.7 1.554 1.918 1.554zm0-4.606c1.12 0 1.722-.532 1.722-1.414v-.182c0-.882-.602-1.414-1.722-1.414s-1.722.532-1.722 1.414v.182c0 .882.602 1.414 1.722 1.414z"/><path d="m522.53 85v-4.676l.042-2.94h-.112l-1.96 5.026-1.96-5.026h-.112l.042 2.94v4.676h-1.386v-9.772h1.918l1.498 3.878h.098l1.512-3.878h1.806v9.772zm10.304 0h-1.666l-.742-2.604h-3.108l-.742 2.604h-1.596l2.856-9.772h2.142zm-2.702-3.906-1.204-4.284h-.112l-1.204 4.284zm5.698-.042v3.948h-1.554v-9.772h3.654c1.848 0 2.87 1.12 2.87 2.94 0 1.484-.756 2.52-2.114 2.744l2.254 4.088h-1.736l-2.072-3.948zm0-1.26h1.876c.98 0 1.456-.434 1.456-1.33v-.602c0-.896-.476-1.33-1.456-1.33h-1.876zm21.98 5.208h-6.678v-1.302h2.744v-7.322h-.112l-2.268 2.422-.966-.868 2.492-2.702h2.422v8.47h2.366zm4.69.168c-2.31 0-3.542-1.218-3.542-2.842 0-1.302.798-2.072 1.974-2.394v-.112c-1.008-.35-1.68-1.134-1.68-2.254 0-1.498 1.19-2.506 3.248-2.506s3.248 1.008 3.248 2.506c0 1.12-.672 1.904-1.68 2.254v.112c1.176.322 1.974 1.092 1.974 2.394 0 1.624-1.232 2.842-3.542 2.842zm0-1.246c1.218 0 1.918-.574 1.918-1.554v-.294c0-.98-.7-1.554-1.918-1.554s-1.918.574-1.918 1.554v.294c0 .98.7 1.554 1.918 1.554zm0-4.606c1.12 0 1.722-.532 1.722-1.414v-.182c0-.882-.602-1.414-1.722-1.414s-1.722.532-1.722 1.414v.182c0 .882.602 1.414 1.722 1.414z"/></g><path d="m6.222 29h-4.256v-1.288h1.33v-7.196h-1.33v-1.288h4.256v1.288h-1.344v7.196h1.344zm5.18 1.554v-8.834h1.526v8.26c0 1.12-.546 1.82-1.778 1.82h-.882v-1.246zm.77-10.136c-.63 0-.91-.336-.91-.798v-.238c0-.462.28-.798.91-.798s.896.336.896.798v.238c0 .462-.266.798-.896.798zm5.796 8.75c-2.03 0-3.346-1.484-3.346-3.808s1.316-3.808 3.346-3.808 3.346 1.484 3.346 3.808-1.316 3.808-3.346 3.808zm0-1.26c1.036 0 1.736-.644 1.736-1.932v-1.232c0-1.288-.7-1.932-1.736-1.932s-1.736.644-1.736 1.932v1.232c0 1.288.7 1.932 1.736 1.932zm5.81-7.49c-.63 0-.91-.336-.91-.798v-.238c0-.462.28-.798.91-.798s.896.336.896.798v.238c0 .462-.266.798-.896.798zm-.77 8.582v-7.28h1.526v7.28zm5.236 0h-1.526v-7.28h1.526v1.204h.07c.308-.784.924-1.372 2.044-1.372 1.484 0 2.366 1.036 2.366 2.828v4.62h-1.526v-4.424c0-1.134-.434-1.708-1.372-1.708-.798 0-1.582.406-1.582 1.26zm9.45.168c-2.072 0-3.346-1.484-3.346-3.808s1.274-3.808 3.346-3.808c2.142 0 3.234 1.61 3.234 3.626v.574h-4.998v.238c0 1.12.686 1.918 1.918 1.918.896 0 1.498-.42 1.918-1.092l.896.882c-.546.882-1.61 1.47-2.968 1.47zm0-6.426c-1.05 0-1.764.784-1.764 1.904v.098h3.388v-.14c0-1.12-.616-1.862-1.624-1.862zm9.506 6.258v-1.204h-.07c-.308.854-1.078 1.372-2.044 1.372-1.834 0-2.898-1.414-2.898-3.808s1.064-3.808 2.898-3.808c.966 0 1.736.504 2.044 1.372h.07v-4.284h1.526v10.36zm-1.652-1.148c.924 0 1.652-.504 1.652-1.246v-2.492c0-.742-.728-1.246-1.652-1.246-1.05 0-1.75.742-1.75 1.862v1.26c0 1.12.7 1.862 1.75 1.862z" fill="#000"/><circle cx="25" cy="51" fill="#000" r="10"/><circle cx="283" cy="51" fill="#000" r="10"/><circle cx="541" cy="51" fill="#000" r="10"/><rect fill="#00f" height="20" rx="10" width="222" x="43" y="41"/><rect fill="#00f" height="20" rx="10" width="222" x="301" y="41"/><path d="m569 41h35v20h-35c-5.522847 0-10-4.4771525-10-10 0-5.5228475 4.477153-10 10-10z" fill="#ccc"/><path d="m114 45.588h1.554v6.02c0 1.652.574 2.506 2.1 2.506s2.1-.854 2.1-2.506v-6.02h1.554v5.768c0 2.856-.98 4.172-3.654 4.172s-3.654-1.316-3.654-4.172zm11.858 9.94c-1.372 0-2.268-.518-2.954-1.372l.98-.896c.532.644 1.19 1.036 2.058 1.036.882 0 1.33-.364 1.33-.98 0-.462-.28-.812-1.036-.91l-.672-.084c-1.484-.182-2.394-.826-2.394-2.17 0-1.414 1.106-2.24 2.702-2.24 1.316 0 2.058.434 2.716 1.162l-.938.896c-.378-.448-.994-.826-1.778-.826-.84 0-1.232.364-1.232.91 0 .56.35.812 1.12.938l.672.084c1.596.238 2.31.938 2.31 2.114 0 1.4-1.134 2.338-2.884 2.338zm7.462 0c-2.072 0-3.346-1.484-3.346-3.808s1.274-3.808 3.346-3.808c2.142 0 3.234 1.61 3.234 3.626v.574h-4.998v.238c0 1.12.686 1.918 1.918 1.918.896 0 1.498-.42 1.918-1.092l.896.882c-.546.882-1.61 1.47-2.968 1.47zm0-6.426c-1.05 0-1.764.784-1.764 1.904v.098h3.388v-.14c0-1.12-.616-1.862-1.624-1.862zm6.454 6.258h-1.526v-7.28h1.526v1.4h.07c.21-.742.84-1.4 2.002-1.4h.406v1.47h-.602c-1.204 0-1.876.406-1.876 1.162zm10.178.168c-1.638 0-2.758-.644-3.57-1.652l1.092-1.022c.686.84 1.498 1.274 2.562 1.274 1.246 0 1.89-.616 1.89-1.554 0-.756-.392-1.19-1.526-1.414l-.868-.154c-1.89-.35-2.856-1.232-2.856-2.786 0-1.736 1.344-2.8 3.416-2.8 1.47 0 2.548.532 3.304 1.498l-1.106.98c-.504-.658-1.204-1.078-2.282-1.078-1.12 0-1.764.462-1.764 1.316 0 .812.504 1.162 1.554 1.372l.868.182c1.946.378 2.828 1.246 2.828 2.8 0 1.82-1.302 3.038-3.542 3.038zm8.652-.168h-1.33c-1.05 0-1.61-.588-1.61-1.582v-4.452h-1.134v-1.246h.616c.504 0 .672-.21.672-.714v-1.274h1.372v1.988h1.526v1.246h-1.526v4.788h1.414zm6.174 0v-1.204h-.056c-.266.714-.84 1.372-2.044 1.372-1.498 0-2.38-1.022-2.38-2.814v-4.634h1.526v4.438c0 1.106.462 1.694 1.4 1.694.784 0 1.554-.406 1.554-1.26v-4.872h1.526v7.28zm8.288 0v-1.204h-.07c-.308.854-1.078 1.372-2.044 1.372-1.834 0-2.898-1.414-2.898-3.808s1.064-3.808 2.898-3.808c.966 0 1.736.504 2.044 1.372h.07v-4.284h1.526v10.36zm-1.652-1.148c.924 0 1.652-.504 1.652-1.246v-2.492c0-.742-.728-1.246-1.652-1.246-1.05 0-1.75.742-1.75 1.862v1.26c0 1.12.7 1.862 1.75 1.862zm8.372-1.848 1.456-4.284h1.47l-3.066 8.722c-.35.98-.784 1.358-1.918 1.358h-.882v-1.246h1.232l.42-1.232-2.646-7.602h1.526l1.456 4.284.42 1.582h.07zm14.308 2.996h-6.678v-1.316h2.744v-7.308h-.112l-2.268 2.422-.966-.868 2.492-2.702h2.408v8.456h2.38z" fill="#fff"/><path d="m372 45.588h1.554v6.02c0 1.652.574 2.506 2.1 2.506s2.1-.854 2.1-2.506v-6.02h1.554v5.768c0 2.856-.98 4.172-3.654 4.172s-3.654-1.316-3.654-4.172zm11.858 9.94c-1.372 0-2.268-.518-2.954-1.372l.98-.896c.532.644 1.19 1.036 2.058 1.036.882 0 1.33-.364 1.33-.98 0-.462-.28-.812-1.036-.91l-.672-.084c-1.484-.182-2.394-.826-2.394-2.17 0-1.414 1.106-2.24 2.702-2.24 1.316 0 2.058.434 2.716 1.162l-.938.896c-.378-.448-.994-.826-1.778-.826-.84 0-1.232.364-1.232.91 0 .56.35.812 1.12.938l.672.084c1.596.238 2.31.938 2.31 2.114 0 1.4-1.134 2.338-2.884 2.338zm7.462 0c-2.072 0-3.346-1.484-3.346-3.808s1.274-3.808 3.346-3.808c2.142 0 3.234 1.61 3.234 3.626v.574h-4.998v.238c0 1.12.686 1.918 1.918 1.918.896 0 1.498-.42 1.918-1.092l.896.882c-.546.882-1.61 1.47-2.968 1.47zm0-6.426c-1.05 0-1.764.784-1.764 1.904v.098h3.388v-.14c0-1.12-.616-1.862-1.624-1.862zm6.454 6.258h-1.526v-7.28h1.526v1.4h.07c.21-.742.84-1.4 2.002-1.4h.406v1.47h-.602c-1.204 0-1.876.406-1.876 1.162zm10.178.168c-1.638 0-2.758-.644-3.57-1.652l1.092-1.022c.686.84 1.498 1.274 2.562 1.274 1.246 0 1.89-.616 1.89-1.554 0-.756-.392-1.19-1.526-1.414l-.868-.154c-1.89-.35-2.856-1.232-2.856-2.786 0-1.736 1.344-2.8 3.416-2.8 1.47 0 2.548.532 3.304 1.498l-1.106.98c-.504-.658-1.204-1.078-2.282-1.078-1.12 0-1.764.462-1.764 1.316 0 .812.504 1.162 1.554 1.372l.868.182c1.946.378 2.828 1.246 2.828 2.8 0 1.82-1.302 3.038-3.542 3.038zm8.652-.168h-1.33c-1.05 0-1.61-.588-1.61-1.582v-4.452h-1.134v-1.246h.616c.504 0 .672-.21.672-.714v-1.274h1.372v1.988h1.526v1.246h-1.526v4.788h1.414zm6.174 0v-1.204h-.056c-.266.714-.84 1.372-2.044 1.372-1.498 0-2.38-1.022-2.38-2.814v-4.634h1.526v4.438c0 1.106.462 1.694 1.4 1.694.784 0 1.554-.406 1.554-1.26v-4.872h1.526v7.28zm8.288 0v-1.204h-.07c-.308.854-1.078 1.372-2.044 1.372-1.834 0-2.898-1.414-2.898-3.808s1.064-3.808 2.898-3.808c.966 0 1.736.504 2.044 1.372h.07v-4.284h1.526v10.36zm-1.652-1.148c.924 0 1.652-.504 1.652-1.246v-2.492c0-.742-.728-1.246-1.652-1.246-1.05 0-1.75.742-1.75 1.862v1.26c0 1.12.7 1.862 1.75 1.862zm8.372-1.848 1.456-4.284h1.47l-3.066 8.722c-.35.98-.784 1.358-1.918 1.358h-.882v-1.246h1.232l.42-1.232-2.646-7.602h1.526l1.456 4.284.42 1.582h.07zm13.972 1.652v1.344h-6.636v-1.512l3.122-2.786c.98-.882 1.54-1.666 1.54-2.562v-.182c0-.938-.616-1.526-1.582-1.526-1.078 0-1.596.686-1.834 1.54l-1.386-.532c.406-1.232 1.386-2.38 3.346-2.38 1.988 0 3.136 1.204 3.136 2.898 0 1.582-1.05 2.618-2.338 3.724l-2.296 1.974z" fill="#fff"/></g></svg>