<svg height="138" viewBox="0 0 594 138" width="594" xmlns="http://www.w3.org/2000/svg"><g fill="none" fill-rule="evenodd" transform="translate(1)"><path d="m.5 109h591" stroke="#000" stroke-linecap="round" stroke-linejoin="round" stroke-width="3"/><path d="m.5 109 10.8-3v6z" stroke="#000" stroke-linecap="round" stroke-linejoin="round" stroke-width="3"/><path d="m591.5 109-10.8-3v6z" stroke="#000" stroke-linecap="round" stroke-linejoin="round" stroke-width="3"/><path d="m3.6 135.168c-2.31 0-3.542-1.218-3.542-2.842 0-1.302.798-2.072 1.974-2.394v-.112c-1.008-.35-1.68-1.134-1.68-2.254 0-1.498 1.19-2.506 3.248-2.506s3.248 1.008 3.248 2.506c0 1.12-.672 1.904-1.68 2.254v.112c1.176.322 1.974 1.092 1.974 2.394 0 1.624-1.232 2.842-3.542 2.842zm0-1.246c1.218 0 1.918-.574 1.918-1.554v-.294c0-.98-.7-1.554-1.918-1.554s-1.918.574-1.918 1.554v.294c0 .98.7 1.554 1.918 1.554zm0-4.606c1.12 0 1.722-.532 1.722-1.414v-.182c0-.882-.602-1.414-1.722-1.414s-1.722.532-1.722 1.414v.182c0 .882.602 1.414 1.722 1.414zm12.026 5.684h-.938c-.868 0-1.302-.49-1.386-1.218h-.07c-.28.868-1.036 1.386-2.17 1.386-1.47 0-2.422-.826-2.422-2.184 0-1.4 1.022-2.156 3.164-2.156h1.386v-.56c0-.966-.518-1.47-1.554-1.47-.924 0-1.47.392-1.862.994l-.91-.742c.406-.784 1.386-1.442 2.912-1.442 1.82 0 2.94.91 2.94 2.562v3.626h.91zm-4.13-.952c.98 0 1.694-.49 1.694-1.204v-1.05h-1.358c-1.12 0-1.652.35-1.652.994v.28c0 .644.504.98 1.316.98zm6.622.952h-1.302v-7.224h1.302v.938h.07c.224-.616.602-1.106 1.386-1.106.756 0 1.176.448 1.288 1.176h.056c.252-.658.686-1.176 1.554-1.176 1.106 0 1.498.812 1.498 2.31v5.082h-1.302v-4.886c0-.994-.224-1.33-.77-1.33-.49 0-.854.322-.854.98v5.236h-1.302v-4.886c0-.994-.21-1.33-.756-1.33-.504 0-.868.322-.868.98z" fill="#000"/><path d="m571.628 135.168c-2.184 0-3.486-1.47-3.486-3.808 0-2.828 1.918-5.068 3.556-6.132h2.1c-2.254 1.596-3.542 2.884-4.032 4.998l.098.028c.42-.77 1.078-1.428 2.324-1.428 1.68 0 2.912 1.176 2.912 3.038 0 1.946-1.372 3.304-3.472 3.304zm-.014-1.26c1.19 0 1.876-.672 1.876-1.848v-.14c0-1.176-.686-1.848-1.876-1.848-1.176 0-1.862.672-1.862 1.848v.14c0 1.176.686 1.848 1.862 1.848zm5.292 3.892v-10.024h1.526v1.232h.084c.42-.868 1.12-1.4 2.184-1.4 1.694 0 2.786 1.302 2.786 3.78s-1.092 3.78-2.786 3.78c-1.064 0-1.764-.532-2.184-1.4h-.084v4.032zm3.164-3.878c1.148 0 1.806-.77 1.806-1.946v-1.176c0-1.176-.658-1.946-1.806-1.946-.882 0-1.638.448-1.638 1.33v2.408c0 .882.756 1.33 1.638 1.33zm6.048 1.078h-1.302v-7.224h1.302v.938h.07c.224-.616.602-1.106 1.386-1.106.756 0 1.176.448 1.288 1.176h.056c.252-.658.686-1.176 1.554-1.176 1.106 0 1.498.812 1.498 2.31v5.082h-1.302v-4.886c0-.994-.224-1.33-.77-1.33-.49 0-.854.322-.854.98v5.236h-1.302v-4.886c0-.994-.21-1.33-.756-1.33-.504 0-.868.322-.868.98z" fill="#000"/><path d="m282.402 135h-1.526v-7.224h1.526v1.232h.07c.308-.756.896-1.4 2.086-1.4 1.456 0 2.436.994 2.436 2.744v4.648h-1.526v-4.424c0-1.148-.518-1.722-1.498-1.722-.784 0-1.568.406-1.568 1.246zm9.898.168c-2.128 0-3.43-1.47-3.43-3.78s1.302-3.78 3.43-3.78 3.43 1.47 3.43 3.78-1.302 3.78-3.43 3.78zm0-1.204c1.106 0 1.834-.686 1.834-2.03v-1.092c0-1.344-.728-2.03-1.834-2.03s-1.834.686-1.834 2.03v1.092c0 1.344.728 2.03 1.834 2.03zm8.4 1.204c-2.128 0-3.43-1.47-3.43-3.78s1.302-3.78 3.43-3.78 3.43 1.47 3.43 3.78-1.302 3.78-3.43 3.78zm0-1.204c1.106 0 1.834-.686 1.834-2.03v-1.092c0-1.344-.728-2.03-1.834-2.03s-1.834.686-1.834 2.03v1.092c0 1.344.728 2.03 1.834 2.03zm6.902 1.036h-1.526v-7.224h1.526v1.232h.07c.308-.756.896-1.4 2.086-1.4 1.456 0 2.436.994 2.436 2.744v4.648h-1.526v-4.424c0-1.148-.518-1.722-1.498-1.722-.784 0-1.568.406-1.568 1.246z" fill="#000"/><path d="m296 109.5v8.5" stroke="#000" stroke-linecap="round" stroke-width="3"/><rect fill="#ccc" height="18" rx="9" width="88" x="29"/><rect fill="#ccc" height="18" rx="9" width="88" x="89" y="53"/><rect fill="#ccc" height="18" rx="9" width="88" x="203" y="1"/><rect fill="#ccc" height="18" rx="9" width="88" x="251" y="53"/><rect fill="#ccc" height="18" rx="9" width="88" x="411" y="53"/><rect fill="#ccc" height="18" rx="9" width="88" x="367" y="27"/><rect fill="#00f" height="18" rx="9" width="27" x="339" y="1"/><rect fill="#00f" height="18" rx="9" width="27" x="176" y="79"/><rect fill="#00f" height="18" rx="9" width="27" x="498" y="27"/><rect fill="#ccc" height="18" rx="9" width="88" x="56" y="27"/><circle cx="534" cy="88" fill="#ccc" r="9"/><circle cx="236" cy="37" fill="#ccc" r="9"/><g fill="#000"><path d="m50.748 13h-1.356v-8.376h3.6c1.536 0 2.436.996 2.436 2.52s-.9 2.52-2.436 2.52h-2.244zm0-7.188v2.664h2.16c.684 0 1.092-.372 1.092-1.044v-.576c0-.672-.408-1.044-1.092-1.044zm11.232 7.188h-.732c-.684 0-1.044-.432-1.128-1.044h-.06c-.24.78-.912 1.188-1.824 1.188-1.284 0-2.016-.732-2.016-1.86 0-1.236.924-1.872 2.664-1.872h1.128v-.528c0-.756-.408-1.2-1.284-1.2-.732 0-1.176.36-1.488.852l-.78-.708c.408-.696 1.14-1.212 2.352-1.212 1.608 0 2.508.792 2.508 2.184v3.132h.66zm-3.372-.852c.804 0 1.404-.384 1.404-.996v-.9h-1.104c-.912 0-1.356.3-1.356.84v.216c0 .552.408.84 1.056.84zm7.488.852h-1.14c-.9 0-1.38-.504-1.38-1.356v-3.816h-.972v-1.068h.528c.432 0 .576-.18.576-.612v-1.092h1.176v1.704h1.308v1.068h-1.308v4.104h1.212zm2.172-7.356c-.54 0-.78-.288-.78-.684v-.204c0-.396.24-.684.78-.684s.768.288.768.684v.204c0 .396-.228.684-.768.684zm-.66 7.356v-6.24h1.308v6.24zm5.628.144c-1.776 0-2.868-1.272-2.868-3.264s1.092-3.264 2.868-3.264c1.836 0 2.772 1.38 2.772 3.108v.492h-4.284v.204c0 .96.588 1.644 1.644 1.644.768 0 1.284-.36 1.644-.936l.768.756c-.468.756-1.38 1.26-2.544 1.26zm0-5.508c-.9 0-1.512.672-1.512 1.632v.084h2.904v-.12c0-.96-.528-1.596-1.392-1.596zm5.532 5.364h-1.308v-6.24h1.308v1.032h.06c.264-.672.792-1.176 1.752-1.176 1.272 0 2.028.888 2.028 2.424v3.96h-1.308v-3.792c0-.972-.372-1.464-1.176-1.464-.684 0-1.356.348-1.356 1.08zm8.52 0h-1.14c-.9 0-1.38-.504-1.38-1.356v-3.816h-.972v-1.068h.528c.432 0 .576-.18.576-.612v-1.092h1.176v1.704h1.308v1.068h-1.308v4.104h1.212zm11.088 0h-1.416l-.756-2.268h-3.132l-.732 2.268h-1.38l2.856-8.376h1.704zm-2.508-3.432-1.2-3.696h-.06l-1.212 3.696z"/><path d="m77.766 40h-1.356v-8.376h3.6c1.536 0 2.436.996 2.436 2.52s-.9 2.52-2.436 2.52h-2.244zm0-7.188v2.664h2.16c.684 0 1.092-.372 1.092-1.044v-.576c0-.672-.408-1.044-1.092-1.044zm11.232 7.188h-.732c-.684 0-1.044-.432-1.128-1.044h-.06c-.24.78-.912 1.188-1.824 1.188-1.284 0-2.016-.732-2.016-1.86 0-1.236.924-1.872 2.664-1.872h1.128v-.528c0-.756-.408-1.2-1.284-1.2-.732 0-1.176.36-1.488.852l-.78-.708c.408-.696 1.14-1.212 2.352-1.212 1.608 0 2.508.792 2.508 2.184v3.132h.66zm-3.372-.852c.804 0 1.404-.384 1.404-.996v-.9h-1.104c-.912 0-1.356.3-1.356.84v.216c0 .552.408.84 1.056.84zm7.488.852h-1.14c-.9 0-1.38-.504-1.38-1.356v-3.816h-.972v-1.068h.528c.432 0 .576-.18.576-.612v-1.092h1.176v1.704h1.308v1.068h-1.308v4.104h1.212zm2.172-7.356c-.54 0-.78-.288-.78-.684v-.204c0-.396.24-.684.78-.684s.768.288.768.684v.204c0 .396-.228.684-.768.684zm-.66 7.356v-6.24h1.308v6.24zm5.628.144c-1.776 0-2.868-1.272-2.868-3.264s1.092-3.264 2.868-3.264c1.836 0 2.772 1.38 2.772 3.108v.492h-4.284v.204c0 .96.588 1.644 1.644 1.644.768 0 1.284-.36 1.644-.936l.768.756c-.468.756-1.38 1.26-2.544 1.26zm0-5.508c-.9 0-1.512.672-1.512 1.632v.084h2.904v-.12c0-.96-.528-1.596-1.392-1.596zm5.532 5.364h-1.308v-6.24h1.308v1.032h.06c.264-.672.792-1.176 1.752-1.176 1.272 0 2.028.888 2.028 2.424v3.96h-1.308v-3.792c0-.972-.372-1.464-1.176-1.464-.684 0-1.356.348-1.356 1.08zm8.52 0h-1.14c-.9 0-1.38-.504-1.38-1.356v-3.816h-.972v-1.068h.528c.432 0 .576-.18.576-.612v-1.092h1.176v1.704h1.308v1.068h-1.308v4.104h1.212zm4.44 0v-8.376h3.708c1.38 0 2.232.852 2.232 2.16 0 1.26-.768 1.716-1.452 1.776v.072c.684.024 1.752.552 1.752 1.956 0 1.356-.924 2.412-2.16 2.412zm1.356-3.708v2.544h2.328c.696 0 1.128-.384 1.128-1.068v-.408c0-.684-.432-1.068-1.128-1.068zm0-3.504v2.376h2.1c.66 0 1.056-.36 1.056-.996v-.384c0-.636-.396-.996-1.056-.996z"/><path d="m111.416 66h-1.356v-8.376h3.6c1.536 0 2.436.996 2.436 2.52s-.9 2.52-2.436 2.52h-2.244zm0-7.188v2.664h2.16c.684 0 1.092-.372 1.092-1.044v-.576c0-.672-.408-1.044-1.092-1.044zm11.232 7.188h-.732c-.684 0-1.044-.432-1.128-1.044h-.06c-.24.78-.912 1.188-1.824 1.188-1.284 0-2.016-.732-2.016-1.86 0-1.236.924-1.872 2.664-1.872h1.128v-.528c0-.756-.408-1.2-1.284-1.2-.732 0-1.176.36-1.488.852l-.78-.708c.408-.696 1.14-1.212 2.352-1.212 1.608 0 2.508.792 2.508 2.184v3.132h.66zm-3.372-.852c.804 0 1.404-.384 1.404-.996v-.9h-1.104c-.912 0-1.356.3-1.356.84v.216c0 .552.408.84 1.056.84zm7.488.852h-1.14c-.9 0-1.38-.504-1.38-1.356v-3.816h-.972v-1.068h.528c.432 0 .576-.18.576-.612v-1.092h1.176v1.704h1.308v1.068h-1.308v4.104h1.212zm2.172-7.356c-.54 0-.78-.288-.78-.684v-.204c0-.396.24-.684.78-.684s.768.288.768.684v.204c0 .396-.228.684-.768.684zm-.66 7.356v-6.24h1.308v6.24zm5.628.144c-1.776 0-2.868-1.272-2.868-3.264s1.092-3.264 2.868-3.264c1.836 0 2.772 1.38 2.772 3.108v.492h-4.284v.204c0 .96.588 1.644 1.644 1.644.768 0 1.284-.36 1.644-.936l.768.756c-.468.756-1.38 1.26-2.544 1.26zm0-5.508c-.9 0-1.512.672-1.512 1.632v.084h2.904v-.12c0-.96-.528-1.596-1.392-1.596zm5.532 5.364h-1.308v-6.24h1.308v1.032h.06c.264-.672.792-1.176 1.752-1.176 1.272 0 2.028.888 2.028 2.424v3.96h-1.308v-3.792c0-.972-.372-1.464-1.176-1.464-.684 0-1.356.348-1.356 1.08zm8.52 0h-1.14c-.9 0-1.38-.504-1.38-1.356v-3.816h-.972v-1.068h.528c.432 0 .576-.18.576-.612v-1.092h1.176v1.704h1.308v1.068h-1.308v4.104h1.212zm7.584.144c-2.184 0-3.516-1.524-3.516-4.332s1.332-4.332 3.516-4.332c1.452 0 2.424.648 2.988 1.896l-1.14.624c-.288-.792-.876-1.308-1.848-1.308-1.284 0-2.076.936-2.076 2.484v1.272c0 1.548.792 2.484 2.076 2.484.996 0 1.632-.576 1.932-1.392l1.092.66c-.564 1.212-1.572 1.944-3.024 1.944z"/><path d="m210.54 92.144c-1.404 0-2.364-.552-3.06-1.416l.936-.876c.588.72 1.284 1.092 2.196 1.092 1.068 0 1.62-.528 1.62-1.332 0-.648-.336-1.02-1.308-1.212l-.744-.132c-1.62-.3-2.448-1.056-2.448-2.388 0-1.488 1.152-2.4 2.928-2.4 1.26 0 2.184.456 2.832 1.284l-.948.84c-.432-.564-1.032-.924-1.956-.924-.96 0-1.512.396-1.512 1.128 0 .696.432.996 1.332 1.176l.744.156c1.668.324 2.424 1.068 2.424 2.4 0 1.56-1.116 2.604-3.036 2.604zm6.984 0c-1.8 0-2.832-1.272-2.832-3.264s1.032-3.264 2.832-3.264c1.248 0 2.04.612 2.412 1.536l-1.08.504c-.18-.576-.624-.948-1.332-.948-.96 0-1.452.66-1.452 1.62v1.116c0 .96.492 1.62 1.452 1.62.756 0 1.2-.408 1.464-1.032l.996.528c-.408 1.02-1.26 1.584-2.46 1.584zm5.016-.144h-1.308v-6.24h1.308v1.2h.06c.18-.636.72-1.2 1.716-1.2h.348v1.26h-.516c-1.032 0-1.608.348-1.608.996zm5.676.144c-1.776 0-2.868-1.272-2.868-3.264s1.092-3.264 2.868-3.264c1.836 0 2.772 1.38 2.772 3.108v.492h-4.284v.204c0 .96.588 1.644 1.644 1.644.768 0 1.284-.36 1.644-.936l.768.756c-.468.756-1.38 1.26-2.544 1.26zm0-5.508c-.9 0-1.512.672-1.512 1.632v.084h2.904v-.12c0-.96-.528-1.596-1.392-1.596zm6.672 5.508c-1.776 0-2.868-1.272-2.868-3.264s1.092-3.264 2.868-3.264c1.836 0 2.772 1.38 2.772 3.108v.492h-4.284v.204c0 .96.588 1.644 1.644 1.644.768 0 1.284-.36 1.644-.936l.768.756c-.468.756-1.38 1.26-2.544 1.26zm0-5.508c-.9 0-1.512.672-1.512 1.632v.084h2.904v-.12c0-.96-.528-1.596-1.392-1.596zm5.532 5.364h-1.308v-6.24h1.308v1.032h.06c.264-.672.792-1.176 1.752-1.176 1.272 0 2.028.888 2.028 2.424v3.96h-1.308v-3.792c0-.972-.372-1.464-1.176-1.464-.684 0-1.356.348-1.356 1.08zm6.312-7.356c-.54 0-.78-.288-.78-.684v-.204c0-.396.24-.684.78-.684s.768.288.768.684v.204c0 .396-.228.684-.768.684zm-.66 7.356v-6.24h1.308v6.24zm4.488 0h-1.308v-6.24h1.308v1.032h.06c.264-.672.792-1.176 1.752-1.176 1.272 0 2.028.888 2.028 2.424v3.96h-1.308v-3.792c0-.972-.372-1.464-1.176-1.464-.684 0-1.356.348-1.356 1.08zm11.124.588c0 1.296-.924 1.956-3.168 1.956-2.04 0-2.832-.552-2.832-1.5 0-.684.408-1.056 1.068-1.2v-.132c-.456-.144-.708-.492-.708-.96 0-.648.504-.96 1.104-1.104v-.048c-.732-.348-1.14-1.008-1.14-1.848 0-1.272.9-2.136 2.484-2.136.42 0 .804.06 1.128.192v-.168c0-.552.264-.888.816-.888h.96v1.056h-1.272v.252c.564.372.876.972.876 1.692 0 1.26-.912 2.112-2.496 2.112-.3 0-.588-.036-.816-.096-.312.108-.6.312-.6.624 0 .336.324.468.876.468h1.536c1.536 0 2.184.648 2.184 1.728zm-1.224.144c0-.432-.288-.708-1.14-.708h-2.112c-.288.168-.432.42-.432.72 0 .504.372.852 1.344.852h.816c1.02 0 1.524-.288 1.524-.864zm-1.956-3.816c.768 0 1.212-.348 1.212-1.056v-.24c0-.708-.444-1.056-1.212-1.056s-1.212.348-1.212 1.056v.24c0 .708.444 1.056 1.212 1.056z"/><path d="m373.54 14.144c-1.404 0-2.364-.552-3.06-1.416l.936-.876c.588.72 1.284 1.092 2.196 1.092 1.068 0 1.62-.528 1.62-1.332 0-.648-.336-1.02-1.308-1.212l-.744-.132c-1.62-.3-2.448-1.056-2.448-2.388 0-1.488 1.152-2.4 2.928-2.4 1.26 0 2.184.456 2.832 1.284l-.948.84c-.432-.564-1.032-.924-1.956-.924-.96 0-1.512.396-1.512 1.128 0 .696.432.996 1.332 1.176l.744.156c1.668.324 2.424 1.068 2.424 2.4 0 1.56-1.116 2.604-3.036 2.604zm6.984 0c-1.8 0-2.832-1.272-2.832-3.264s1.032-3.264 2.832-3.264c1.248 0 2.04.612 2.412 1.536l-1.08.504c-.18-.576-.624-.948-1.332-.948-.96 0-1.452.66-1.452 1.62v1.116c0 .96.492 1.62 1.452 1.62.756 0 1.2-.408 1.464-1.032l.996.528c-.408 1.02-1.26 1.584-2.46 1.584zm5.016-.144h-1.308v-6.24h1.308v1.2h.06c.18-.636.72-1.2 1.716-1.2h.348v1.26h-.516c-1.032 0-1.608.348-1.608.996zm5.676.144c-1.776 0-2.868-1.272-2.868-3.264s1.092-3.264 2.868-3.264c1.836 0 2.772 1.38 2.772 3.108v.492h-4.284v.204c0 .96.588 1.644 1.644 1.644.768 0 1.284-.36 1.644-.936l.768.756c-.468.756-1.38 1.26-2.544 1.26zm0-5.508c-.9 0-1.512.672-1.512 1.632v.084h2.904v-.12c0-.96-.528-1.596-1.392-1.596zm6.672 5.508c-1.776 0-2.868-1.272-2.868-3.264s1.092-3.264 2.868-3.264c1.836 0 2.772 1.38 2.772 3.108v.492h-4.284v.204c0 .96.588 1.644 1.644 1.644.768 0 1.284-.36 1.644-.936l.768.756c-.468.756-1.38 1.26-2.544 1.26zm0-5.508c-.9 0-1.512.672-1.512 1.632v.084h2.904v-.12c0-.96-.528-1.596-1.392-1.596zm5.532 5.364h-1.308v-6.24h1.308v1.032h.06c.264-.672.792-1.176 1.752-1.176 1.272 0 2.028.888 2.028 2.424v3.96h-1.308v-3.792c0-.972-.372-1.464-1.176-1.464-.684 0-1.356.348-1.356 1.08zm6.312-7.356c-.54 0-.78-.288-.78-.684v-.204c0-.396.24-.684.78-.684s.768.288.768.684v.204c0 .396-.228.684-.768.684zm-.66 7.356v-6.24h1.308v6.24zm4.488 0h-1.308v-6.24h1.308v1.032h.06c.264-.672.792-1.176 1.752-1.176 1.272 0 2.028.888 2.028 2.424v3.96h-1.308v-3.792c0-.972-.372-1.464-1.176-1.464-.684 0-1.356.348-1.356 1.08zm11.124.588c0 1.296-.924 1.956-3.168 1.956-2.04 0-2.832-.552-2.832-1.5 0-.684.408-1.056 1.068-1.2v-.132c-.456-.144-.708-.492-.708-.96 0-.648.504-.96 1.104-1.104v-.048c-.732-.348-1.14-1.008-1.14-1.848 0-1.272.9-2.136 2.484-2.136.42 0 .804.06 1.128.192v-.168c0-.552.264-.888.816-.888h.96v1.056h-1.272v.252c.564.372.876.972.876 1.692 0 1.26-.912 2.112-2.496 2.112-.3 0-.588-.036-.816-.096-.312.108-.6.312-.6.624 0 .336.324.468.876.468h1.536c1.536 0 2.184.648 2.184 1.728zm-1.224.144c0-.432-.288-.708-1.14-.708h-2.112c-.288.168-.432.42-.432.72 0 .504.372.852 1.344.852h.816c1.02 0 1.524-.288 1.524-.864zm-1.956-3.816c.768 0 1.212-.348 1.212-1.056v-.24c0-.708-.444-1.056-1.212-1.056s-1.212.348-1.212 1.056v.24c0 .708.444 1.056 1.212 1.056z"/><path d="m532.54 40.144c-1.404 0-2.364-.552-3.06-1.416l.936-.876c.588.72 1.284 1.092 2.196 1.092 1.068 0 1.62-.528 1.62-1.332 0-.648-.336-1.02-1.308-1.212l-.744-.132c-1.62-.3-2.448-1.056-2.448-2.388 0-1.488 1.152-2.4 2.928-2.4 1.26 0 2.184.456 2.832 1.284l-.948.84c-.432-.564-1.032-.924-1.956-.924-.96 0-1.512.396-1.512 1.128 0 .696.432.996 1.332 1.176l.744.156c1.668.324 2.424 1.068 2.424 2.4 0 1.56-1.116 2.604-3.036 2.604zm6.984 0c-1.8 0-2.832-1.272-2.832-3.264s1.032-3.264 2.832-3.264c1.248 0 2.04.612 2.412 1.536l-1.08.504c-.18-.576-.624-.948-1.332-.948-.96 0-1.452.66-1.452 1.62v1.116c0 .96.492 1.62 1.452 1.62.756 0 1.2-.408 1.464-1.032l.996.528c-.408 1.02-1.26 1.584-2.46 1.584zm5.016-.144h-1.308v-6.24h1.308v1.2h.06c.18-.636.72-1.2 1.716-1.2h.348v1.26h-.516c-1.032 0-1.608.348-1.608.996zm5.676.144c-1.776 0-2.868-1.272-2.868-3.264s1.092-3.264 2.868-3.264c1.836 0 2.772 1.38 2.772 3.108v.492h-4.284v.204c0 .96.588 1.644 1.644 1.644.768 0 1.284-.36 1.644-.936l.768.756c-.468.756-1.38 1.26-2.544 1.26zm0-5.508c-.9 0-1.512.672-1.512 1.632v.084h2.904v-.12c0-.96-.528-1.596-1.392-1.596zm6.672 5.508c-1.776 0-2.868-1.272-2.868-3.264s1.092-3.264 2.868-3.264c1.836 0 2.772 1.38 2.772 3.108v.492h-4.284v.204c0 .96.588 1.644 1.644 1.644.768 0 1.284-.36 1.644-.936l.768.756c-.468.756-1.38 1.26-2.544 1.26zm0-5.508c-.9 0-1.512.672-1.512 1.632v.084h2.904v-.12c0-.96-.528-1.596-1.392-1.596zm5.532 5.364h-1.308v-6.24h1.308v1.032h.06c.264-.672.792-1.176 1.752-1.176 1.272 0 2.028.888 2.028 2.424v3.96h-1.308v-3.792c0-.972-.372-1.464-1.176-1.464-.684 0-1.356.348-1.356 1.08zm6.312-7.356c-.54 0-.78-.288-.78-.684v-.204c0-.396.24-.684.78-.684s.768.288.768.684v.204c0 .396-.228.684-.768.684zm-.66 7.356v-6.24h1.308v6.24zm4.488 0h-1.308v-6.24h1.308v1.032h.06c.264-.672.792-1.176 1.752-1.176 1.272 0 2.028.888 2.028 2.424v3.96h-1.308v-3.792c0-.972-.372-1.464-1.176-1.464-.684 0-1.356.348-1.356 1.08zm11.124.588c0 1.296-.924 1.956-3.168 1.956-2.04 0-2.832-.552-2.832-1.5 0-.684.408-1.056 1.068-1.2v-.132c-.456-.144-.708-.492-.708-.96 0-.648.504-.96 1.104-1.104v-.048c-.732-.348-1.14-1.008-1.14-1.848 0-1.272.9-2.136 2.484-2.136.42 0 .804.06 1.128.192v-.168c0-.552.264-.888.816-.888h.96v1.056h-1.272v.252c.564.372.876.972.876 1.692 0 1.26-.912 2.112-2.496 2.112-.3 0-.588-.036-.816-.096-.312.108-.6.312-.6.624 0 .336.324.468.876.468h1.536c1.536 0 2.184.648 2.184 1.728zm-1.224.144c0-.432-.288-.708-1.14-.708h-2.112c-.288.168-.432.42-.432.72 0 .504.372.852 1.344.852h.816c1.02 0 1.524-.288 1.524-.864zm-1.956-3.816c.768 0 1.212-.348 1.212-1.056v-.24c0-.708-.444-1.056-1.212-1.056s-1.212.348-1.212 1.056v.24c0 .708.444 1.056 1.212 1.056z"/><path d="m548.032 92v-8.376h3.708c1.38 0 2.232.852 2.232 2.16 0 1.26-.768 1.716-1.452 1.776v.072c.684.024 1.752.552 1.752 1.956 0 1.356-.924 2.412-2.16 2.412zm1.356-3.708v2.544h2.328c.696 0 1.128-.384 1.128-1.068v-.408c0-.684-.432-1.068-1.128-1.068zm0-3.504v2.376h2.1c.66 0 1.056-.36 1.056-.996v-.384c0-.636-.396-.996-1.056-.996zm7.116-.144c-.54 0-.78-.288-.78-.684v-.204c0-.396.24-.684.78-.684s.768.288.768.684v.204c0 .396-.228.684-.768.684zm-.66 7.356v-6.24h1.308v6.24zm5.628.144c-1.74 0-2.868-1.272-2.868-3.264s1.128-3.264 2.868-3.264 2.868 1.272 2.868 3.264-1.128 3.264-2.868 3.264zm0-1.08c.888 0 1.488-.552 1.488-1.656v-1.056c0-1.104-.6-1.656-1.488-1.656s-1.488.552-1.488 1.656v1.056c0 1.104.6 1.656 1.488 1.656zm4.32 3.336v-8.64h1.308v1.032h.06c.264-.744.924-1.176 1.752-1.176 1.572 0 2.484 1.212 2.484 3.264s-.912 3.264-2.484 3.264c-.828 0-1.488-.444-1.752-1.176h-.06v3.432zm2.724-3.384c.9 0 1.5-.636 1.5-1.596v-1.08c0-.96-.6-1.596-1.5-1.596-.792 0-1.416.432-1.416 1.068v2.136c0 .636.624 1.068 1.416 1.068zm6.36 1.128c-1.176 0-1.944-.444-2.532-1.176l.84-.768c.456.552 1.02.888 1.764.888.756 0 1.14-.312 1.14-.84 0-.396-.24-.696-.888-.78l-.576-.072c-1.272-.156-2.052-.708-2.052-1.86 0-1.212.948-1.92 2.316-1.92 1.128 0 1.764.372 2.328.996l-.804.768c-.324-.384-.852-.708-1.524-.708-.72 0-1.056.312-1.056.78 0 .48.3.696.96.804l.576.072c1.368.204 1.98.804 1.98 1.812 0 1.2-.972 2.004-2.472 2.004zm6.36-2.712 1.248-3.672h1.26l-2.628 7.476c-.3.84-.672 1.164-1.644 1.164h-.756v-1.068h1.056l.36-1.056-2.268-6.516h1.308l1.248 3.672.36 1.356h.06z"/><path d="m250.032 41v-8.376h3.708c1.38 0 2.232.852 2.232 2.16 0 1.26-.768 1.716-1.452 1.776v.072c.684.024 1.752.552 1.752 1.956 0 1.356-.924 2.412-2.16 2.412zm1.356-3.708v2.544h2.328c.696 0 1.128-.384 1.128-1.068v-.408c0-.684-.432-1.068-1.128-1.068zm0-3.504v2.376h2.1c.66 0 1.056-.36 1.056-.996v-.384c0-.636-.396-.996-1.056-.996zm7.116-.144c-.54 0-.78-.288-.78-.684v-.204c0-.396.24-.684.78-.684s.768.288.768.684v.204c0 .396-.228.684-.768.684zm-.66 7.356v-6.24h1.308v6.24zm5.628.144c-1.74 0-2.868-1.272-2.868-3.264s1.128-3.264 2.868-3.264 2.868 1.272 2.868 3.264-1.128 3.264-2.868 3.264zm0-1.08c.888 0 1.488-.552 1.488-1.656v-1.056c0-1.104-.6-1.656-1.488-1.656s-1.488.552-1.488 1.656v1.056c0 1.104.6 1.656 1.488 1.656zm4.32 3.336v-8.64h1.308v1.032h.06c.264-.744.924-1.176 1.752-1.176 1.572 0 2.484 1.212 2.484 3.264s-.912 3.264-2.484 3.264c-.828 0-1.488-.444-1.752-1.176h-.06v3.432zm2.724-3.384c.9 0 1.5-.636 1.5-1.596v-1.08c0-.96-.6-1.596-1.5-1.596-.792 0-1.416.432-1.416 1.068v2.136c0 .636.624 1.068 1.416 1.068zm6.36 1.128c-1.176 0-1.944-.444-2.532-1.176l.84-.768c.456.552 1.02.888 1.764.888.756 0 1.14-.312 1.14-.84 0-.396-.24-.696-.888-.78l-.576-.072c-1.272-.156-2.052-.708-2.052-1.86 0-1.212.948-1.92 2.316-1.92 1.128 0 1.764.372 2.328.996l-.804.768c-.324-.384-.852-.708-1.524-.708-.72 0-1.056.312-1.056.78 0 .48.3.696.96.804l.576.072c1.368.204 1.98.804 1.98 1.812 0 1.2-.972 2.004-2.472 2.004zm6.36-2.712 1.248-3.672h1.26l-2.628 7.476c-.3.84-.672 1.164-1.644 1.164h-.756v-1.068h1.056l.36-1.056-2.268-6.516h1.308l1.248 3.672.36 1.356h.06z"/><path d="m224.622 14h-1.356v-8.376h3.6c1.536 0 2.436.996 2.436 2.52s-.9 2.52-2.436 2.52h-2.244zm0-7.188v2.664h2.16c.684 0 1.092-.372 1.092-1.044v-.576c0-.672-.408-1.044-1.092-1.044zm11.232 7.188h-.732c-.684 0-1.044-.432-1.128-1.044h-.06c-.24.78-.912 1.188-1.824 1.188-1.284 0-2.016-.732-2.016-1.86 0-1.236.924-1.872 2.664-1.872h1.128v-.528c0-.756-.408-1.2-1.284-1.2-.732 0-1.176.36-1.488.852l-.78-.708c.408-.696 1.14-1.212 2.352-1.212 1.608 0 2.508.792 2.508 2.184v3.132h.66zm-3.372-.852c.804 0 1.404-.384 1.404-.996v-.9h-1.104c-.912 0-1.356.3-1.356.84v.216c0 .552.408.84 1.056.84zm7.488.852h-1.14c-.9 0-1.38-.504-1.38-1.356v-3.816h-.972v-1.068h.528c.432 0 .576-.18.576-.612v-1.092h1.176v1.704h1.308v1.068h-1.308v4.104h1.212zm2.172-7.356c-.54 0-.78-.288-.78-.684v-.204c0-.396.24-.684.78-.684s.768.288.768.684v.204c0 .396-.228.684-.768.684zm-.66 7.356v-6.24h1.308v6.24zm5.628.144c-1.776 0-2.868-1.272-2.868-3.264s1.092-3.264 2.868-3.264c1.836 0 2.772 1.38 2.772 3.108v.492h-4.284v.204c0 .96.588 1.644 1.644 1.644.768 0 1.284-.36 1.644-.936l.768.756c-.468.756-1.38 1.26-2.544 1.26zm0-5.508c-.9 0-1.512.672-1.512 1.632v.084h2.904v-.12c0-.96-.528-1.596-1.392-1.596zm5.532 5.364h-1.308v-6.24h1.308v1.032h.06c.264-.672.792-1.176 1.752-1.176 1.272 0 2.028.888 2.028 2.424v3.96h-1.308v-3.792c0-.972-.372-1.464-1.176-1.464-.684 0-1.356.348-1.356 1.08zm8.52 0h-1.14c-.9 0-1.38-.504-1.38-1.356v-3.816h-.972v-1.068h.528c.432 0 .576-.18.576-.612v-1.092h1.176v1.704h1.308v1.068h-1.308v4.104h1.212zm4.44 0v-8.376h2.964c2.136 0 3.54 1.392 3.54 4.188s-1.404 4.188-3.54 4.188zm1.356-1.2h1.608c1.248 0 2.088-.804 2.088-2.316v-1.344c0-1.512-.84-2.316-2.088-2.316h-1.608z"/><path d="m273.662 66h-1.356v-8.376h3.6c1.536 0 2.436.996 2.436 2.52s-.9 2.52-2.436 2.52h-2.244zm0-7.188v2.664h2.16c.684 0 1.092-.372 1.092-1.044v-.576c0-.672-.408-1.044-1.092-1.044zm11.232 7.188h-.732c-.684 0-1.044-.432-1.128-1.044h-.06c-.24.78-.912 1.188-1.824 1.188-1.284 0-2.016-.732-2.016-1.86 0-1.236.924-1.872 2.664-1.872h1.128v-.528c0-.756-.408-1.2-1.284-1.2-.732 0-1.176.36-1.488.852l-.78-.708c.408-.696 1.14-1.212 2.352-1.212 1.608 0 2.508.792 2.508 2.184v3.132h.66zm-3.372-.852c.804 0 1.404-.384 1.404-.996v-.9h-1.104c-.912 0-1.356.3-1.356.84v.216c0 .552.408.84 1.056.84zm7.488.852h-1.14c-.9 0-1.38-.504-1.38-1.356v-3.816h-.972v-1.068h.528c.432 0 .576-.18.576-.612v-1.092h1.176v1.704h1.308v1.068h-1.308v4.104h1.212zm2.172-7.356c-.54 0-.78-.288-.78-.684v-.204c0-.396.24-.684.78-.684s.768.288.768.684v.204c0 .396-.228.684-.768.684zm-.66 7.356v-6.24h1.308v6.24zm5.628.144c-1.776 0-2.868-1.272-2.868-3.264s1.092-3.264 2.868-3.264c1.836 0 2.772 1.38 2.772 3.108v.492h-4.284v.204c0 .96.588 1.644 1.644 1.644.768 0 1.284-.36 1.644-.936l.768.756c-.468.756-1.38 1.26-2.544 1.26zm0-5.508c-.9 0-1.512.672-1.512 1.632v.084h2.904v-.12c0-.96-.528-1.596-1.392-1.596zm5.532 5.364h-1.308v-6.24h1.308v1.032h.06c.264-.672.792-1.176 1.752-1.176 1.272 0 2.028.888 2.028 2.424v3.96h-1.308v-3.792c0-.972-.372-1.464-1.176-1.464-.684 0-1.356.348-1.356 1.08zm8.52 0h-1.14c-.9 0-1.38-.504-1.38-1.356v-3.816h-.972v-1.068h.528c.432 0 .576-.18.576-.612v-1.092h1.176v1.704h1.308v1.068h-1.308v4.104h1.212zm9.804 0h-5.364v-8.376h5.364v1.2h-4.008v2.328h3.636v1.2h-3.636v2.448h4.008z"/><path d="m388.8 40h-1.356v-8.376h3.6c1.536 0 2.436.996 2.436 2.52s-.9 2.52-2.436 2.52h-2.244zm0-7.188v2.664h2.16c.684 0 1.092-.372 1.092-1.044v-.576c0-.672-.408-1.044-1.092-1.044zm11.232 7.188h-.732c-.684 0-1.044-.432-1.128-1.044h-.06c-.24.78-.912 1.188-1.824 1.188-1.284 0-2.016-.732-2.016-1.86 0-1.236.924-1.872 2.664-1.872h1.128v-.528c0-.756-.408-1.2-1.284-1.2-.732 0-1.176.36-1.488.852l-.78-.708c.408-.696 1.14-1.212 2.352-1.212 1.608 0 2.508.792 2.508 2.184v3.132h.66zm-3.372-.852c.804 0 1.404-.384 1.404-.996v-.9h-1.104c-.912 0-1.356.3-1.356.84v.216c0 .552.408.84 1.056.84zm7.488.852h-1.14c-.9 0-1.38-.504-1.38-1.356v-3.816h-.972v-1.068h.528c.432 0 .576-.18.576-.612v-1.092h1.176v1.704h1.308v1.068h-1.308v4.104h1.212zm2.172-7.356c-.54 0-.78-.288-.78-.684v-.204c0-.396.24-.684.78-.684s.768.288.768.684v.204c0 .396-.228.684-.768.684zm-.66 7.356v-6.24h1.308v6.24zm5.628.144c-1.776 0-2.868-1.272-2.868-3.264s1.092-3.264 2.868-3.264c1.836 0 2.772 1.38 2.772 3.108v.492h-4.284v.204c0 .96.588 1.644 1.644 1.644.768 0 1.284-.36 1.644-.936l.768.756c-.468.756-1.38 1.26-2.544 1.26zm0-5.508c-.9 0-1.512.672-1.512 1.632v.084h2.904v-.12c0-.96-.528-1.596-1.392-1.596zm5.532 5.364h-1.308v-6.24h1.308v1.032h.06c.264-.672.792-1.176 1.752-1.176 1.272 0 2.028.888 2.028 2.424v3.96h-1.308v-3.792c0-.972-.372-1.464-1.176-1.464-.684 0-1.356.348-1.356 1.08zm8.52 0h-1.14c-.9 0-1.38-.504-1.38-1.356v-3.816h-.972v-1.068h.528c.432 0 .576-.18.576-.612v-1.092h1.176v1.704h1.308v1.068h-1.308v4.104h1.212zm5.796 0h-1.356v-8.376h5.232v1.2h-3.876v2.328h3.444v1.2h-3.444z"/><path d="m431.99 66h-1.356v-8.376h3.6c1.536 0 2.436.996 2.436 2.52s-.9 2.52-2.436 2.52h-2.244zm0-7.188v2.664h2.16c.684 0 1.092-.372 1.092-1.044v-.576c0-.672-.408-1.044-1.092-1.044zm11.232 7.188h-.732c-.684 0-1.044-.432-1.128-1.044h-.06c-.24.78-.912 1.188-1.824 1.188-1.284 0-2.016-.732-2.016-1.86 0-1.236.924-1.872 2.664-1.872h1.128v-.528c0-.756-.408-1.2-1.284-1.2-.732 0-1.176.36-1.488.852l-.78-.708c.408-.696 1.14-1.212 2.352-1.212 1.608 0 2.508.792 2.508 2.184v3.132h.66zm-3.372-.852c.804 0 1.404-.384 1.404-.996v-.9h-1.104c-.912 0-1.356.3-1.356.84v.216c0 .552.408.84 1.056.84zm7.488.852h-1.14c-.9 0-1.38-.504-1.38-1.356v-3.816h-.972v-1.068h.528c.432 0 .576-.18.576-.612v-1.092h1.176v1.704h1.308v1.068h-1.308v4.104h1.212zm2.172-7.356c-.54 0-.78-.288-.78-.684v-.204c0-.396.24-.684.78-.684s.768.288.768.684v.204c0 .396-.228.684-.768.684zm-.66 7.356v-6.24h1.308v6.24zm5.628.144c-1.776 0-2.868-1.272-2.868-3.264s1.092-3.264 2.868-3.264c1.836 0 2.772 1.38 2.772 3.108v.492h-4.284v.204c0 .96.588 1.644 1.644 1.644.768 0 1.284-.36 1.644-.936l.768.756c-.468.756-1.38 1.26-2.544 1.26zm0-5.508c-.9 0-1.512.672-1.512 1.632v.084h2.904v-.12c0-.96-.528-1.596-1.392-1.596zm5.532 5.364h-1.308v-6.24h1.308v1.032h.06c.264-.672.792-1.176 1.752-1.176 1.272 0 2.028.888 2.028 2.424v3.96h-1.308v-3.792c0-.972-.372-1.464-1.176-1.464-.684 0-1.356.348-1.356 1.08zm8.52 0h-1.14c-.9 0-1.38-.504-1.38-1.356v-3.816h-.972v-1.068h.528c.432 0 .576-.18.576-.612v-1.092h1.176v1.704h1.308v1.068h-1.308v4.104h1.212zm9.828 0v-1.272h-.048c-.168.804-.984 1.416-2.256 1.416-1.992 0-3.456-1.524-3.456-4.332 0-2.796 1.464-4.332 3.66-4.332 1.5 0 2.544.708 3.12 1.884l-1.104.648c-.324-.78-.996-1.32-2.016-1.32-1.32 0-2.208.9-2.208 2.436v1.368c0 1.536.888 2.436 2.208 2.436 1.056 0 1.98-.54 1.98-1.584v-.648h-1.728v-1.164h3.036v4.464z"/></g></g></svg>