<?xml version="1.0" encoding="UTF-8"?>
<svg width="594px" height="138px" viewBox="0 0 594 138" version="1.1" xmlns="http://www.w3.org/2000/svg" xmlns:xlink="http://www.w3.org/1999/xlink">
    <!-- Generator: Sketch 50.2 (55047) - http://www.bohemiancoding.com/sketch -->
    <title>radtimeline</title>
    <desc>Created with Sketch.</desc>
    <defs></defs>
    <g id="Page-1" stroke="none" stroke-width="1" fill="none" fill-rule="evenodd">
        <g id="charts" transform="translate(-729.000000, -565.000000)">
            <g id="radtimeline" transform="translate(730.000000, 565.000000)">
                <path d="M0.5,109 L591.5,109" id="Line-8" stroke="#000000" stroke-width="3" stroke-linecap="round" stroke-linejoin="round"></path>
                <path id="Line-8-decoration-1" d="M0.5,109 L11.3,106 L11.3,112 L0.5,109 Z" stroke="#000000" stroke-width="3" stroke-linecap="round" stroke-linejoin="round"></path>
                <path id="Line-8-decoration-2" d="M591.5,109 L580.7,106 L580.7,112 L591.5,109 Z" stroke="#000000" stroke-width="3" stroke-linecap="round" stroke-linejoin="round"></path>
                <path d="M3.6,135.168 C1.29,135.168 0.058,133.95 0.058,132.326 C0.058,131.024 0.856,130.254 2.032,129.932 L2.032,129.82 C1.024,129.47 0.352,128.686 0.352,127.566 C0.352,126.068 1.542,125.06 3.6,125.06 C5.658,125.06 6.848,126.068 6.848,127.566 C6.848,128.686 6.176,129.47 5.168,129.82 L5.168,129.932 C6.344,130.254 7.142,131.024 7.142,132.326 C7.142,133.95 5.91,135.168 3.6,135.168 Z M3.6,133.922 C4.818,133.922 5.518,133.348 5.518,132.368 L5.518,132.074 C5.518,131.094 4.818,130.52 3.6,130.52 C2.382,130.52 1.682,131.094 1.682,132.074 L1.682,132.368 C1.682,133.348 2.382,133.922 3.6,133.922 Z M3.6,129.316 C4.72,129.316 5.322,128.784 5.322,127.902 L5.322,127.72 C5.322,126.838 4.72,126.306 3.6,126.306 C2.48,126.306 1.878,126.838 1.878,127.72 L1.878,127.902 C1.878,128.784 2.48,129.316 3.6,129.316 Z M15.626,135 L14.688,135 C13.82,135 13.386,134.51 13.302,133.782 L13.232,133.782 C12.952,134.65 12.196,135.168 11.062,135.168 C9.592,135.168 8.64,134.342 8.64,132.984 C8.64,131.584 9.662,130.828 11.804,130.828 L13.19,130.828 L13.19,130.268 C13.19,129.302 12.672,128.798 11.636,128.798 C10.712,128.798 10.166,129.19 9.774,129.792 L8.864,129.05 C9.27,128.266 10.25,127.608 11.776,127.608 C13.596,127.608 14.716,128.518 14.716,130.17 L14.716,133.796 L15.626,133.796 L15.626,135 Z M11.496,134.048 C12.476,134.048 13.19,133.558 13.19,132.844 L13.19,131.794 L11.832,131.794 C10.712,131.794 10.18,132.144 10.18,132.788 L10.18,133.068 C10.18,133.712 10.684,134.048 11.496,134.048 Z M18.118,135 L16.816,135 L16.816,127.776 L18.118,127.776 L18.118,128.714 L18.188,128.714 C18.412,128.098 18.79,127.608 19.574,127.608 C20.33,127.608 20.75,128.056 20.862,128.784 L20.918,128.784 C21.17,128.126 21.604,127.608 22.472,127.608 C23.578,127.608 23.97,128.42 23.97,129.918 L23.97,135 L22.668,135 L22.668,130.114 C22.668,129.12 22.444,128.784 21.898,128.784 C21.408,128.784 21.044,129.106 21.044,129.764 L21.044,135 L19.742,135 L19.742,130.114 C19.742,129.12 19.532,128.784 18.986,128.784 C18.482,128.784 18.118,129.106 18.118,129.764 L18.118,135 Z" id="8am" fill="#000000"></path>
                <path d="M571.628,135.168 C569.444,135.168 568.142,133.698 568.142,131.36 C568.142,128.532 570.06,126.292 571.698,125.228 L573.798,125.228 C571.544,126.824 570.256,128.112 569.766,130.226 L569.864,130.254 C570.284,129.484 570.942,128.826 572.188,128.826 C573.868,128.826 575.1,130.002 575.1,131.864 C575.1,133.81 573.728,135.168 571.628,135.168 Z M571.614,133.908 C572.804,133.908 573.49,133.236 573.49,132.06 L573.49,131.92 C573.49,130.744 572.804,130.072 571.614,130.072 C570.438,130.072 569.752,130.744 569.752,131.92 L569.752,132.06 C569.752,133.236 570.438,133.908 571.614,133.908 Z M576.906,137.8 L576.906,127.776 L578.432,127.776 L578.432,129.008 L578.516,129.008 C578.936,128.14 579.636,127.608 580.7,127.608 C582.394,127.608 583.486,128.91 583.486,131.388 C583.486,133.866 582.394,135.168 580.7,135.168 C579.636,135.168 578.936,134.636 578.516,133.768 L578.432,133.768 L578.432,137.8 L576.906,137.8 Z M580.07,133.922 C581.218,133.922 581.876,133.152 581.876,131.976 L581.876,130.8 C581.876,129.624 581.218,128.854 580.07,128.854 C579.188,128.854 578.432,129.302 578.432,130.184 L578.432,132.592 C578.432,133.474 579.188,133.922 580.07,133.922 Z M586.118,135 L584.816,135 L584.816,127.776 L586.118,127.776 L586.118,128.714 L586.188,128.714 C586.412,128.098 586.79,127.608 587.574,127.608 C588.33,127.608 588.75,128.056 588.862,128.784 L588.918,128.784 C589.17,128.126 589.604,127.608 590.472,127.608 C591.578,127.608 591.97,128.42 591.97,129.918 L591.97,135 L590.668,135 L590.668,130.114 C590.668,129.12 590.444,128.784 589.898,128.784 C589.408,128.784 589.044,129.106 589.044,129.764 L589.044,135 L587.742,135 L587.742,130.114 C587.742,129.12 587.532,128.784 586.986,128.784 C586.482,128.784 586.118,129.106 586.118,129.764 L586.118,135 Z" id="6pm" fill="#000000"></path>
                <path d="M282.402,135 L280.876,135 L280.876,127.776 L282.402,127.776 L282.402,129.008 L282.472,129.008 C282.78,128.252 283.368,127.608 284.558,127.608 C286.014,127.608 286.994,128.602 286.994,130.352 L286.994,135 L285.468,135 L285.468,130.576 C285.468,129.428 284.95,128.854 283.97,128.854 C283.186,128.854 282.402,129.26 282.402,130.1 L282.402,135 Z M292.3,135.168 C290.172,135.168 288.87,133.698 288.87,131.388 C288.87,129.078 290.172,127.608 292.3,127.608 C294.428,127.608 295.73,129.078 295.73,131.388 C295.73,133.698 294.428,135.168 292.3,135.168 Z M292.3,133.964 C293.406,133.964 294.134,133.278 294.134,131.934 L294.134,130.842 C294.134,129.498 293.406,128.812 292.3,128.812 C291.194,128.812 290.466,129.498 290.466,130.842 L290.466,131.934 C290.466,133.278 291.194,133.964 292.3,133.964 Z M300.7,135.168 C298.572,135.168 297.27,133.698 297.27,131.388 C297.27,129.078 298.572,127.608 300.7,127.608 C302.828,127.608 304.13,129.078 304.13,131.388 C304.13,133.698 302.828,135.168 300.7,135.168 Z M300.7,133.964 C301.806,133.964 302.534,133.278 302.534,131.934 L302.534,130.842 C302.534,129.498 301.806,128.812 300.7,128.812 C299.594,128.812 298.866,129.498 298.866,130.842 L298.866,131.934 C298.866,133.278 299.594,133.964 300.7,133.964 Z M307.602,135 L306.076,135 L306.076,127.776 L307.602,127.776 L307.602,129.008 L307.672,129.008 C307.98,128.252 308.568,127.608 309.758,127.608 C311.214,127.608 312.194,128.602 312.194,130.352 L312.194,135 L310.668,135 L310.668,130.576 C310.668,129.428 310.15,128.854 309.17,128.854 C308.386,128.854 307.602,129.26 307.602,130.1 L307.602,135 Z" id="noon" fill="#000000"></path>
                <path d="M296,109.5 L296,118" id="Line-10" stroke="#000000" stroke-width="3" stroke-linecap="round"></path>
                <rect id="Rectangle-32" fill="#CCCCCC" x="29" y="0" width="88" height="18" rx="9"></rect>
                <rect id="Rectangle-32" fill="#CCCCCC" x="89" y="53" width="88" height="18" rx="9"></rect>
                <rect id="Rectangle-32" fill="#CCCCCC" x="203" y="1" width="88" height="18" rx="9"></rect>
                <rect id="Rectangle-32" fill="#CCCCCC" x="251" y="53" width="88" height="18" rx="9"></rect>
                <rect id="Rectangle-32" fill="#CCCCCC" x="411" y="53" width="88" height="18" rx="9"></rect>
                <rect id="Rectangle-32" fill="#CCCCCC" x="367" y="27" width="88" height="18" rx="9"></rect>
                <rect id="Rectangle-32" fill="#0000FF" x="339" y="1" width="27" height="18" rx="9"></rect>
                <rect id="Rectangle-32" fill="#0000FF" x="176" y="79" width="27" height="18" rx="9"></rect>
                <rect id="Rectangle-32" fill="#0000FF" x="498" y="27" width="27" height="18" rx="9"></rect>
                <rect id="Rectangle-32-Copy" fill="#CCCCCC" x="56" y="27" width="88" height="18" rx="9"></rect>
                <circle id="Oval-10" fill="#CCCCCC" cx="534" cy="88" r="9"></circle>
                <circle id="Oval-10" fill="#CCCCCC" cx="236" cy="37" r="9"></circle>
                <path d="M50.748,13 L49.392,13 L49.392,4.624 L52.992,4.624 C54.528,4.624 55.428,5.62 55.428,7.144 C55.428,8.668 54.528,9.664 52.992,9.664 L50.748,9.664 L50.748,13 Z M50.748,5.812 L50.748,8.476 L52.908,8.476 C53.592,8.476 54,8.104 54,7.432 L54,6.856 C54,6.184 53.592,5.812 52.908,5.812 L50.748,5.812 Z M61.98,13 L61.248,13 C60.564,13 60.204,12.568 60.12,11.956 L60.06,11.956 C59.82,12.736 59.148,13.144 58.236,13.144 C56.952,13.144 56.22,12.412 56.22,11.284 C56.22,10.048 57.144,9.412 58.884,9.412 L60.012,9.412 L60.012,8.884 C60.012,8.128 59.604,7.684 58.728,7.684 C57.996,7.684 57.552,8.044 57.24,8.536 L56.46,7.828 C56.868,7.132 57.6,6.616 58.812,6.616 C60.42,6.616 61.32,7.408 61.32,8.8 L61.32,11.932 L61.98,11.932 L61.98,13 Z M58.608,12.148 C59.412,12.148 60.012,11.764 60.012,11.152 L60.012,10.252 L58.908,10.252 C57.996,10.252 57.552,10.552 57.552,11.092 L57.552,11.308 C57.552,11.86 57.96,12.148 58.608,12.148 Z M66.096,13 L64.956,13 C64.056,13 63.576,12.496 63.576,11.644 L63.576,7.828 L62.604,7.828 L62.604,6.76 L63.132,6.76 C63.564,6.76 63.708,6.58 63.708,6.148 L63.708,5.056 L64.884,5.056 L64.884,6.76 L66.192,6.76 L66.192,7.828 L64.884,7.828 L64.884,11.932 L66.096,11.932 L66.096,13 Z M68.268,5.644 C67.728,5.644 67.488,5.356 67.488,4.96 L67.488,4.756 C67.488,4.36 67.728,4.072 68.268,4.072 C68.808,4.072 69.036,4.36 69.036,4.756 L69.036,4.96 C69.036,5.356 68.808,5.644 68.268,5.644 Z M67.608,13 L67.608,6.76 L68.916,6.76 L68.916,13 L67.608,13 Z M73.236,13.144 C71.46,13.144 70.368,11.872 70.368,9.88 C70.368,7.888 71.46,6.616 73.236,6.616 C75.072,6.616 76.008,7.996 76.008,9.724 L76.008,10.216 L71.724,10.216 L71.724,10.42 C71.724,11.38 72.312,12.064 73.368,12.064 C74.136,12.064 74.652,11.704 75.012,11.128 L75.78,11.884 C75.312,12.64 74.4,13.144 73.236,13.144 Z M73.236,7.636 C72.336,7.636 71.724,8.308 71.724,9.268 L71.724,9.352 L74.628,9.352 L74.628,9.232 C74.628,8.272 74.1,7.636 73.236,7.636 Z M78.768,13 L77.46,13 L77.46,6.76 L78.768,6.76 L78.768,7.792 L78.828,7.792 C79.092,7.12 79.62,6.616 80.58,6.616 C81.852,6.616 82.608,7.504 82.608,9.04 L82.608,13 L81.3,13 L81.3,9.208 C81.3,8.236 80.928,7.744 80.124,7.744 C79.44,7.744 78.768,8.092 78.768,8.824 L78.768,13 Z M87.288,13 L86.148,13 C85.248,13 84.768,12.496 84.768,11.644 L84.768,7.828 L83.796,7.828 L83.796,6.76 L84.324,6.76 C84.756,6.76 84.9,6.58 84.9,6.148 L84.9,5.056 L86.076,5.056 L86.076,6.76 L87.384,6.76 L87.384,7.828 L86.076,7.828 L86.076,11.932 L87.288,11.932 L87.288,13 Z M98.376,13 L96.96,13 L96.204,10.732 L93.072,10.732 L92.34,13 L90.96,13 L93.816,4.624 L95.52,4.624 L98.376,13 Z M95.868,9.568 L94.668,5.872 L94.608,5.872 L93.396,9.568 L95.868,9.568 Z" id="Patient-A" fill="#000000"></path>
                <path d="M77.766,40 L76.41,40 L76.41,31.624 L80.01,31.624 C81.546,31.624 82.446,32.62 82.446,34.144 C82.446,35.668 81.546,36.664 80.01,36.664 L77.766,36.664 L77.766,40 Z M77.766,32.812 L77.766,35.476 L79.926,35.476 C80.61,35.476 81.018,35.104 81.018,34.432 L81.018,33.856 C81.018,33.184 80.61,32.812 79.926,32.812 L77.766,32.812 Z M88.998,40 L88.266,40 C87.582,40 87.222,39.568 87.138,38.956 L87.078,38.956 C86.838,39.736 86.166,40.144 85.254,40.144 C83.97,40.144 83.238,39.412 83.238,38.284 C83.238,37.048 84.162,36.412 85.902,36.412 L87.03,36.412 L87.03,35.884 C87.03,35.128 86.622,34.684 85.746,34.684 C85.014,34.684 84.57,35.044 84.258,35.536 L83.478,34.828 C83.886,34.132 84.618,33.616 85.83,33.616 C87.438,33.616 88.338,34.408 88.338,35.8 L88.338,38.932 L88.998,38.932 L88.998,40 Z M85.626,39.148 C86.43,39.148 87.03,38.764 87.03,38.152 L87.03,37.252 L85.926,37.252 C85.014,37.252 84.57,37.552 84.57,38.092 L84.57,38.308 C84.57,38.86 84.978,39.148 85.626,39.148 Z M93.114,40 L91.974,40 C91.074,40 90.594,39.496 90.594,38.644 L90.594,34.828 L89.622,34.828 L89.622,33.76 L90.15,33.76 C90.582,33.76 90.726,33.58 90.726,33.148 L90.726,32.056 L91.902,32.056 L91.902,33.76 L93.21,33.76 L93.21,34.828 L91.902,34.828 L91.902,38.932 L93.114,38.932 L93.114,40 Z M95.286,32.644 C94.746,32.644 94.506,32.356 94.506,31.96 L94.506,31.756 C94.506,31.36 94.746,31.072 95.286,31.072 C95.826,31.072 96.054,31.36 96.054,31.756 L96.054,31.96 C96.054,32.356 95.826,32.644 95.286,32.644 Z M94.626,40 L94.626,33.76 L95.934,33.76 L95.934,40 L94.626,40 Z M100.254,40.144 C98.478,40.144 97.386,38.872 97.386,36.88 C97.386,34.888 98.478,33.616 100.254,33.616 C102.09,33.616 103.026,34.996 103.026,36.724 L103.026,37.216 L98.742,37.216 L98.742,37.42 C98.742,38.38 99.33,39.064 100.386,39.064 C101.154,39.064 101.67,38.704 102.03,38.128 L102.798,38.884 C102.33,39.64 101.418,40.144 100.254,40.144 Z M100.254,34.636 C99.354,34.636 98.742,35.308 98.742,36.268 L98.742,36.352 L101.646,36.352 L101.646,36.232 C101.646,35.272 101.118,34.636 100.254,34.636 Z M105.786,40 L104.478,40 L104.478,33.76 L105.786,33.76 L105.786,34.792 L105.846,34.792 C106.11,34.12 106.638,33.616 107.598,33.616 C108.87,33.616 109.626,34.504 109.626,36.04 L109.626,40 L108.318,40 L108.318,36.208 C108.318,35.236 107.946,34.744 107.142,34.744 C106.458,34.744 105.786,35.092 105.786,35.824 L105.786,40 Z M114.306,40 L113.166,40 C112.266,40 111.786,39.496 111.786,38.644 L111.786,34.828 L110.814,34.828 L110.814,33.76 L111.342,33.76 C111.774,33.76 111.918,33.58 111.918,33.148 L111.918,32.056 L113.094,32.056 L113.094,33.76 L114.402,33.76 L114.402,34.828 L113.094,34.828 L113.094,38.932 L114.306,38.932 L114.306,40 Z M118.746,40 L118.746,31.624 L122.454,31.624 C123.834,31.624 124.686,32.476 124.686,33.784 C124.686,35.044 123.918,35.5 123.234,35.56 L123.234,35.632 C123.918,35.656 124.986,36.184 124.986,37.588 C124.986,38.944 124.062,40 122.826,40 L118.746,40 Z M120.102,36.292 L120.102,38.836 L122.43,38.836 C123.126,38.836 123.558,38.452 123.558,37.768 L123.558,37.36 C123.558,36.676 123.126,36.292 122.43,36.292 L120.102,36.292 Z M120.102,32.788 L120.102,35.164 L122.202,35.164 C122.862,35.164 123.258,34.804 123.258,34.168 L123.258,33.784 C123.258,33.148 122.862,32.788 122.202,32.788 L120.102,32.788 Z" id="Patient-B" fill="#000000"></path>
                <path d="M111.416,66 L110.06,66 L110.06,57.624 L113.66,57.624 C115.196,57.624 116.096,58.62 116.096,60.144 C116.096,61.668 115.196,62.664 113.66,62.664 L111.416,62.664 L111.416,66 Z M111.416,58.812 L111.416,61.476 L113.576,61.476 C114.26,61.476 114.668,61.104 114.668,60.432 L114.668,59.856 C114.668,59.184 114.26,58.812 113.576,58.812 L111.416,58.812 Z M122.648,66 L121.916,66 C121.232,66 120.872,65.568 120.788,64.956 L120.728,64.956 C120.488,65.736 119.816,66.144 118.904,66.144 C117.62,66.144 116.888,65.412 116.888,64.284 C116.888,63.048 117.812,62.412 119.552,62.412 L120.68,62.412 L120.68,61.884 C120.68,61.128 120.272,60.684 119.396,60.684 C118.664,60.684 118.22,61.044 117.908,61.536 L117.128,60.828 C117.536,60.132 118.268,59.616 119.48,59.616 C121.088,59.616 121.988,60.408 121.988,61.8 L121.988,64.932 L122.648,64.932 L122.648,66 Z M119.276,65.148 C120.08,65.148 120.68,64.764 120.68,64.152 L120.68,63.252 L119.576,63.252 C118.664,63.252 118.22,63.552 118.22,64.092 L118.22,64.308 C118.22,64.86 118.628,65.148 119.276,65.148 Z M126.764,66 L125.624,66 C124.724,66 124.244,65.496 124.244,64.644 L124.244,60.828 L123.272,60.828 L123.272,59.76 L123.8,59.76 C124.232,59.76 124.376,59.58 124.376,59.148 L124.376,58.056 L125.552,58.056 L125.552,59.76 L126.86,59.76 L126.86,60.828 L125.552,60.828 L125.552,64.932 L126.764,64.932 L126.764,66 Z M128.936,58.644 C128.396,58.644 128.156,58.356 128.156,57.96 L128.156,57.756 C128.156,57.36 128.396,57.072 128.936,57.072 C129.476,57.072 129.704,57.36 129.704,57.756 L129.704,57.96 C129.704,58.356 129.476,58.644 128.936,58.644 Z M128.276,66 L128.276,59.76 L129.584,59.76 L129.584,66 L128.276,66 Z M133.904,66.144 C132.128,66.144 131.036,64.872 131.036,62.88 C131.036,60.888 132.128,59.616 133.904,59.616 C135.74,59.616 136.676,60.996 136.676,62.724 L136.676,63.216 L132.392,63.216 L132.392,63.42 C132.392,64.38 132.98,65.064 134.036,65.064 C134.804,65.064 135.32,64.704 135.68,64.128 L136.448,64.884 C135.98,65.64 135.068,66.144 133.904,66.144 Z M133.904,60.636 C133.004,60.636 132.392,61.308 132.392,62.268 L132.392,62.352 L135.296,62.352 L135.296,62.232 C135.296,61.272 134.768,60.636 133.904,60.636 Z M139.436,66 L138.128,66 L138.128,59.76 L139.436,59.76 L139.436,60.792 L139.496,60.792 C139.76,60.12 140.288,59.616 141.248,59.616 C142.52,59.616 143.276,60.504 143.276,62.04 L143.276,66 L141.968,66 L141.968,62.208 C141.968,61.236 141.596,60.744 140.792,60.744 C140.108,60.744 139.436,61.092 139.436,61.824 L139.436,66 Z M147.956,66 L146.816,66 C145.916,66 145.436,65.496 145.436,64.644 L145.436,60.828 L144.464,60.828 L144.464,59.76 L144.992,59.76 C145.424,59.76 145.568,59.58 145.568,59.148 L145.568,58.056 L146.744,58.056 L146.744,59.76 L148.052,59.76 L148.052,60.828 L146.744,60.828 L146.744,64.932 L147.956,64.932 L147.956,66 Z M155.54,66.144 C153.356,66.144 152.024,64.62 152.024,61.812 C152.024,59.004 153.356,57.48 155.54,57.48 C156.992,57.48 157.964,58.128 158.528,59.376 L157.388,60 C157.1,59.208 156.512,58.692 155.54,58.692 C154.256,58.692 153.464,59.628 153.464,61.176 L153.464,62.448 C153.464,63.996 154.256,64.932 155.54,64.932 C156.536,64.932 157.172,64.356 157.472,63.54 L158.564,64.2 C158,65.412 156.992,66.144 155.54,66.144 Z" id="Patient-C" fill="#000000"></path>
                <path d="M210.54,92.144 C209.136,92.144 208.176,91.592 207.48,90.728 L208.416,89.852 C209.004,90.572 209.7,90.944 210.612,90.944 C211.68,90.944 212.232,90.416 212.232,89.612 C212.232,88.964 211.896,88.592 210.924,88.4 L210.18,88.268 C208.56,87.968 207.732,87.212 207.732,85.88 C207.732,84.392 208.884,83.48 210.66,83.48 C211.92,83.48 212.844,83.936 213.492,84.764 L212.544,85.604 C212.112,85.04 211.512,84.68 210.588,84.68 C209.628,84.68 209.076,85.076 209.076,85.808 C209.076,86.504 209.508,86.804 210.408,86.984 L211.152,87.14 C212.82,87.464 213.576,88.208 213.576,89.54 C213.576,91.1 212.46,92.144 210.54,92.144 Z M217.524,92.144 C215.724,92.144 214.692,90.872 214.692,88.88 C214.692,86.888 215.724,85.616 217.524,85.616 C218.772,85.616 219.564,86.228 219.936,87.152 L218.856,87.656 C218.676,87.08 218.232,86.708 217.524,86.708 C216.564,86.708 216.072,87.368 216.072,88.328 L216.072,89.444 C216.072,90.404 216.564,91.064 217.524,91.064 C218.28,91.064 218.724,90.656 218.988,90.032 L219.984,90.56 C219.576,91.58 218.724,92.144 217.524,92.144 Z M222.54,92 L221.232,92 L221.232,85.76 L222.54,85.76 L222.54,86.96 L222.6,86.96 C222.78,86.324 223.32,85.76 224.316,85.76 L224.664,85.76 L224.664,87.02 L224.148,87.02 C223.116,87.02 222.54,87.368 222.54,88.016 L222.54,92 Z M228.216,92.144 C226.44,92.144 225.348,90.872 225.348,88.88 C225.348,86.888 226.44,85.616 228.216,85.616 C230.052,85.616 230.988,86.996 230.988,88.724 L230.988,89.216 L226.704,89.216 L226.704,89.42 C226.704,90.38 227.292,91.064 228.348,91.064 C229.116,91.064 229.632,90.704 229.992,90.128 L230.76,90.884 C230.292,91.64 229.38,92.144 228.216,92.144 Z M228.216,86.636 C227.316,86.636 226.704,87.308 226.704,88.268 L226.704,88.352 L229.608,88.352 L229.608,88.232 C229.608,87.272 229.08,86.636 228.216,86.636 Z M234.888,92.144 C233.112,92.144 232.02,90.872 232.02,88.88 C232.02,86.888 233.112,85.616 234.888,85.616 C236.724,85.616 237.66,86.996 237.66,88.724 L237.66,89.216 L233.376,89.216 L233.376,89.42 C233.376,90.38 233.964,91.064 235.02,91.064 C235.788,91.064 236.304,90.704 236.664,90.128 L237.432,90.884 C236.964,91.64 236.052,92.144 234.888,92.144 Z M234.888,86.636 C233.988,86.636 233.376,87.308 233.376,88.268 L233.376,88.352 L236.28,88.352 L236.28,88.232 C236.28,87.272 235.752,86.636 234.888,86.636 Z M240.42,92 L239.112,92 L239.112,85.76 L240.42,85.76 L240.42,86.792 L240.48,86.792 C240.744,86.12 241.272,85.616 242.232,85.616 C243.504,85.616 244.26,86.504 244.26,88.04 L244.26,92 L242.952,92 L242.952,88.208 C242.952,87.236 242.58,86.744 241.776,86.744 C241.092,86.744 240.42,87.092 240.42,87.824 L240.42,92 Z M246.732,84.644 C246.192,84.644 245.952,84.356 245.952,83.96 L245.952,83.756 C245.952,83.36 246.192,83.072 246.732,83.072 C247.272,83.072 247.5,83.36 247.5,83.756 L247.5,83.96 C247.5,84.356 247.272,84.644 246.732,84.644 Z M246.072,92 L246.072,85.76 L247.38,85.76 L247.38,92 L246.072,92 Z M250.56,92 L249.252,92 L249.252,85.76 L250.56,85.76 L250.56,86.792 L250.62,86.792 C250.884,86.12 251.412,85.616 252.372,85.616 C253.644,85.616 254.4,86.504 254.4,88.04 L254.4,92 L253.092,92 L253.092,88.208 C253.092,87.236 252.72,86.744 251.916,86.744 C251.232,86.744 250.56,87.092 250.56,87.824 L250.56,92 Z M261.684,92.588 C261.684,93.884 260.76,94.544 258.516,94.544 C256.476,94.544 255.684,93.992 255.684,93.044 C255.684,92.36 256.092,91.988 256.752,91.844 L256.752,91.712 C256.296,91.568 256.044,91.22 256.044,90.752 C256.044,90.104 256.548,89.792 257.148,89.648 L257.148,89.6 C256.416,89.252 256.008,88.592 256.008,87.752 C256.008,86.48 256.908,85.616 258.492,85.616 C258.912,85.616 259.296,85.676 259.62,85.808 L259.62,85.64 C259.62,85.088 259.884,84.752 260.436,84.752 L261.396,84.752 L261.396,85.808 L260.124,85.808 L260.124,86.06 C260.688,86.432 261,87.032 261,87.752 C261,89.012 260.088,89.864 258.504,89.864 C258.204,89.864 257.916,89.828 257.688,89.768 C257.376,89.876 257.088,90.08 257.088,90.392 C257.088,90.728 257.412,90.86 257.964,90.86 L259.5,90.86 C261.036,90.86 261.684,91.508 261.684,92.588 Z M260.46,92.732 C260.46,92.3 260.172,92.024 259.32,92.024 L257.208,92.024 C256.92,92.192 256.776,92.444 256.776,92.744 C256.776,93.248 257.148,93.596 258.12,93.596 L258.936,93.596 C259.956,93.596 260.46,93.308 260.46,92.732 Z M258.504,88.916 C259.272,88.916 259.716,88.568 259.716,87.86 L259.716,87.62 C259.716,86.912 259.272,86.564 258.504,86.564 C257.736,86.564 257.292,86.912 257.292,87.62 L257.292,87.86 C257.292,88.568 257.736,88.916 258.504,88.916 Z" id="Screening" fill="#000000"></path>
                <path d="M373.54,14.144 C372.136,14.144 371.176,13.592 370.48,12.728 L371.416,11.852 C372.004,12.572 372.7,12.944 373.612,12.944 C374.68,12.944 375.232,12.416 375.232,11.612 C375.232,10.964 374.896,10.592 373.924,10.4 L373.18,10.268 C371.56,9.968 370.732,9.212 370.732,7.88 C370.732,6.392 371.884,5.48 373.66,5.48 C374.92,5.48 375.844,5.936 376.492,6.764 L375.544,7.604 C375.112,7.04 374.512,6.68 373.588,6.68 C372.628,6.68 372.076,7.076 372.076,7.808 C372.076,8.504 372.508,8.804 373.408,8.984 L374.152,9.14 C375.82,9.464 376.576,10.208 376.576,11.54 C376.576,13.1 375.46,14.144 373.54,14.144 Z M380.524,14.144 C378.724,14.144 377.692,12.872 377.692,10.88 C377.692,8.888 378.724,7.616 380.524,7.616 C381.772,7.616 382.564,8.228 382.936,9.152 L381.856,9.656 C381.676,9.08 381.232,8.708 380.524,8.708 C379.564,8.708 379.072,9.368 379.072,10.328 L379.072,11.444 C379.072,12.404 379.564,13.064 380.524,13.064 C381.28,13.064 381.724,12.656 381.988,12.032 L382.984,12.56 C382.576,13.58 381.724,14.144 380.524,14.144 Z M385.54,14 L384.232,14 L384.232,7.76 L385.54,7.76 L385.54,8.96 L385.6,8.96 C385.78,8.324 386.32,7.76 387.316,7.76 L387.664,7.76 L387.664,9.02 L387.148,9.02 C386.116,9.02 385.54,9.368 385.54,10.016 L385.54,14 Z M391.216,14.144 C389.44,14.144 388.348,12.872 388.348,10.88 C388.348,8.888 389.44,7.616 391.216,7.616 C393.052,7.616 393.988,8.996 393.988,10.724 L393.988,11.216 L389.704,11.216 L389.704,11.42 C389.704,12.38 390.292,13.064 391.348,13.064 C392.116,13.064 392.632,12.704 392.992,12.128 L393.76,12.884 C393.292,13.64 392.38,14.144 391.216,14.144 Z M391.216,8.636 C390.316,8.636 389.704,9.308 389.704,10.268 L389.704,10.352 L392.608,10.352 L392.608,10.232 C392.608,9.272 392.08,8.636 391.216,8.636 Z M397.888,14.144 C396.112,14.144 395.02,12.872 395.02,10.88 C395.02,8.888 396.112,7.616 397.888,7.616 C399.724,7.616 400.66,8.996 400.66,10.724 L400.66,11.216 L396.376,11.216 L396.376,11.42 C396.376,12.38 396.964,13.064 398.02,13.064 C398.788,13.064 399.304,12.704 399.664,12.128 L400.432,12.884 C399.964,13.64 399.052,14.144 397.888,14.144 Z M397.888,8.636 C396.988,8.636 396.376,9.308 396.376,10.268 L396.376,10.352 L399.28,10.352 L399.28,10.232 C399.28,9.272 398.752,8.636 397.888,8.636 Z M403.42,14 L402.112,14 L402.112,7.76 L403.42,7.76 L403.42,8.792 L403.48,8.792 C403.744,8.12 404.272,7.616 405.232,7.616 C406.504,7.616 407.26,8.504 407.26,10.04 L407.26,14 L405.952,14 L405.952,10.208 C405.952,9.236 405.58,8.744 404.776,8.744 C404.092,8.744 403.42,9.092 403.42,9.824 L403.42,14 Z M409.732,6.644 C409.192,6.644 408.952,6.356 408.952,5.96 L408.952,5.756 C408.952,5.36 409.192,5.072 409.732,5.072 C410.272,5.072 410.5,5.36 410.5,5.756 L410.5,5.96 C410.5,6.356 410.272,6.644 409.732,6.644 Z M409.072,14 L409.072,7.76 L410.38,7.76 L410.38,14 L409.072,14 Z M413.56,14 L412.252,14 L412.252,7.76 L413.56,7.76 L413.56,8.792 L413.62,8.792 C413.884,8.12 414.412,7.616 415.372,7.616 C416.644,7.616 417.4,8.504 417.4,10.04 L417.4,14 L416.092,14 L416.092,10.208 C416.092,9.236 415.72,8.744 414.916,8.744 C414.232,8.744 413.56,9.092 413.56,9.824 L413.56,14 Z M424.684,14.588 C424.684,15.884 423.76,16.544 421.516,16.544 C419.476,16.544 418.684,15.992 418.684,15.044 C418.684,14.36 419.092,13.988 419.752,13.844 L419.752,13.712 C419.296,13.568 419.044,13.22 419.044,12.752 C419.044,12.104 419.548,11.792 420.148,11.648 L420.148,11.6 C419.416,11.252 419.008,10.592 419.008,9.752 C419.008,8.48 419.908,7.616 421.492,7.616 C421.912,7.616 422.296,7.676 422.62,7.808 L422.62,7.64 C422.62,7.088 422.884,6.752 423.436,6.752 L424.396,6.752 L424.396,7.808 L423.124,7.808 L423.124,8.06 C423.688,8.432 424,9.032 424,9.752 C424,11.012 423.088,11.864 421.504,11.864 C421.204,11.864 420.916,11.828 420.688,11.768 C420.376,11.876 420.088,12.08 420.088,12.392 C420.088,12.728 420.412,12.86 420.964,12.86 L422.5,12.86 C424.036,12.86 424.684,13.508 424.684,14.588 Z M423.46,14.732 C423.46,14.3 423.172,14.024 422.32,14.024 L420.208,14.024 C419.92,14.192 419.776,14.444 419.776,14.744 C419.776,15.248 420.148,15.596 421.12,15.596 L421.936,15.596 C422.956,15.596 423.46,15.308 423.46,14.732 Z M421.504,10.916 C422.272,10.916 422.716,10.568 422.716,9.86 L422.716,9.62 C422.716,8.912 422.272,8.564 421.504,8.564 C420.736,8.564 420.292,8.912 420.292,9.62 L420.292,9.86 C420.292,10.568 420.736,10.916 421.504,10.916 Z" id="Screening-Copy" fill="#000000"></path>
                <path d="M532.54,40.144 C531.136,40.144 530.176,39.592 529.48,38.728 L530.416,37.852 C531.004,38.572 531.7,38.944 532.612,38.944 C533.68,38.944 534.232,38.416 534.232,37.612 C534.232,36.964 533.896,36.592 532.924,36.4 L532.18,36.268 C530.56,35.968 529.732,35.212 529.732,33.88 C529.732,32.392 530.884,31.48 532.66,31.48 C533.92,31.48 534.844,31.936 535.492,32.764 L534.544,33.604 C534.112,33.04 533.512,32.68 532.588,32.68 C531.628,32.68 531.076,33.076 531.076,33.808 C531.076,34.504 531.508,34.804 532.408,34.984 L533.152,35.14 C534.82,35.464 535.576,36.208 535.576,37.54 C535.576,39.1 534.46,40.144 532.54,40.144 Z M539.524,40.144 C537.724,40.144 536.692,38.872 536.692,36.88 C536.692,34.888 537.724,33.616 539.524,33.616 C540.772,33.616 541.564,34.228 541.936,35.152 L540.856,35.656 C540.676,35.08 540.232,34.708 539.524,34.708 C538.564,34.708 538.072,35.368 538.072,36.328 L538.072,37.444 C538.072,38.404 538.564,39.064 539.524,39.064 C540.28,39.064 540.724,38.656 540.988,38.032 L541.984,38.56 C541.576,39.58 540.724,40.144 539.524,40.144 Z M544.54,40 L543.232,40 L543.232,33.76 L544.54,33.76 L544.54,34.96 L544.6,34.96 C544.78,34.324 545.32,33.76 546.316,33.76 L546.664,33.76 L546.664,35.02 L546.148,35.02 C545.116,35.02 544.54,35.368 544.54,36.016 L544.54,40 Z M550.216,40.144 C548.44,40.144 547.348,38.872 547.348,36.88 C547.348,34.888 548.44,33.616 550.216,33.616 C552.052,33.616 552.988,34.996 552.988,36.724 L552.988,37.216 L548.704,37.216 L548.704,37.42 C548.704,38.38 549.292,39.064 550.348,39.064 C551.116,39.064 551.632,38.704 551.992,38.128 L552.76,38.884 C552.292,39.64 551.38,40.144 550.216,40.144 Z M550.216,34.636 C549.316,34.636 548.704,35.308 548.704,36.268 L548.704,36.352 L551.608,36.352 L551.608,36.232 C551.608,35.272 551.08,34.636 550.216,34.636 Z M556.888,40.144 C555.112,40.144 554.02,38.872 554.02,36.88 C554.02,34.888 555.112,33.616 556.888,33.616 C558.724,33.616 559.66,34.996 559.66,36.724 L559.66,37.216 L555.376,37.216 L555.376,37.42 C555.376,38.38 555.964,39.064 557.02,39.064 C557.788,39.064 558.304,38.704 558.664,38.128 L559.432,38.884 C558.964,39.64 558.052,40.144 556.888,40.144 Z M556.888,34.636 C555.988,34.636 555.376,35.308 555.376,36.268 L555.376,36.352 L558.28,36.352 L558.28,36.232 C558.28,35.272 557.752,34.636 556.888,34.636 Z M562.42,40 L561.112,40 L561.112,33.76 L562.42,33.76 L562.42,34.792 L562.48,34.792 C562.744,34.12 563.272,33.616 564.232,33.616 C565.504,33.616 566.26,34.504 566.26,36.04 L566.26,40 L564.952,40 L564.952,36.208 C564.952,35.236 564.58,34.744 563.776,34.744 C563.092,34.744 562.42,35.092 562.42,35.824 L562.42,40 Z M568.732,32.644 C568.192,32.644 567.952,32.356 567.952,31.96 L567.952,31.756 C567.952,31.36 568.192,31.072 568.732,31.072 C569.272,31.072 569.5,31.36 569.5,31.756 L569.5,31.96 C569.5,32.356 569.272,32.644 568.732,32.644 Z M568.072,40 L568.072,33.76 L569.38,33.76 L569.38,40 L568.072,40 Z M572.56,40 L571.252,40 L571.252,33.76 L572.56,33.76 L572.56,34.792 L572.62,34.792 C572.884,34.12 573.412,33.616 574.372,33.616 C575.644,33.616 576.4,34.504 576.4,36.04 L576.4,40 L575.092,40 L575.092,36.208 C575.092,35.236 574.72,34.744 573.916,34.744 C573.232,34.744 572.56,35.092 572.56,35.824 L572.56,40 Z M583.684,40.588 C583.684,41.884 582.76,42.544 580.516,42.544 C578.476,42.544 577.684,41.992 577.684,41.044 C577.684,40.36 578.092,39.988 578.752,39.844 L578.752,39.712 C578.296,39.568 578.044,39.22 578.044,38.752 C578.044,38.104 578.548,37.792 579.148,37.648 L579.148,37.6 C578.416,37.252 578.008,36.592 578.008,35.752 C578.008,34.48 578.908,33.616 580.492,33.616 C580.912,33.616 581.296,33.676 581.62,33.808 L581.62,33.64 C581.62,33.088 581.884,32.752 582.436,32.752 L583.396,32.752 L583.396,33.808 L582.124,33.808 L582.124,34.06 C582.688,34.432 583,35.032 583,35.752 C583,37.012 582.088,37.864 580.504,37.864 C580.204,37.864 579.916,37.828 579.688,37.768 C579.376,37.876 579.088,38.08 579.088,38.392 C579.088,38.728 579.412,38.86 579.964,38.86 L581.5,38.86 C583.036,38.86 583.684,39.508 583.684,40.588 Z M582.46,40.732 C582.46,40.3 582.172,40.024 581.32,40.024 L579.208,40.024 C578.92,40.192 578.776,40.444 578.776,40.744 C578.776,41.248 579.148,41.596 580.12,41.596 L580.936,41.596 C581.956,41.596 582.46,41.308 582.46,40.732 Z M580.504,36.916 C581.272,36.916 581.716,36.568 581.716,35.86 L581.716,35.62 C581.716,34.912 581.272,34.564 580.504,34.564 C579.736,34.564 579.292,34.912 579.292,35.62 L579.292,35.86 C579.292,36.568 579.736,36.916 580.504,36.916 Z" id="Screening-Copy-2" fill="#000000"></path>
                <path d="M548.032,92 L548.032,83.624 L551.74,83.624 C553.12,83.624 553.972,84.476 553.972,85.784 C553.972,87.044 553.204,87.5 552.52,87.56 L552.52,87.632 C553.204,87.656 554.272,88.184 554.272,89.588 C554.272,90.944 553.348,92 552.112,92 L548.032,92 Z M549.388,88.292 L549.388,90.836 L551.716,90.836 C552.412,90.836 552.844,90.452 552.844,89.768 L552.844,89.36 C552.844,88.676 552.412,88.292 551.716,88.292 L549.388,88.292 Z M549.388,84.788 L549.388,87.164 L551.488,87.164 C552.148,87.164 552.544,86.804 552.544,86.168 L552.544,85.784 C552.544,85.148 552.148,84.788 551.488,84.788 L549.388,84.788 Z M556.504,84.644 C555.964,84.644 555.724,84.356 555.724,83.96 L555.724,83.756 C555.724,83.36 555.964,83.072 556.504,83.072 C557.044,83.072 557.272,83.36 557.272,83.756 L557.272,83.96 C557.272,84.356 557.044,84.644 556.504,84.644 Z M555.844,92 L555.844,85.76 L557.152,85.76 L557.152,92 L555.844,92 Z M561.472,92.144 C559.732,92.144 558.604,90.872 558.604,88.88 C558.604,86.888 559.732,85.616 561.472,85.616 C563.212,85.616 564.34,86.888 564.34,88.88 C564.34,90.872 563.212,92.144 561.472,92.144 Z M561.472,91.064 C562.36,91.064 562.96,90.512 562.96,89.408 L562.96,88.352 C562.96,87.248 562.36,86.696 561.472,86.696 C560.584,86.696 559.984,87.248 559.984,88.352 L559.984,89.408 C559.984,90.512 560.584,91.064 561.472,91.064 Z M565.792,94.4 L565.792,85.76 L567.1,85.76 L567.1,86.792 L567.16,86.792 C567.424,86.048 568.084,85.616 568.912,85.616 C570.484,85.616 571.396,86.828 571.396,88.88 C571.396,90.932 570.484,92.144 568.912,92.144 C568.084,92.144 567.424,91.7 567.16,90.968 L567.1,90.968 L567.1,94.4 L565.792,94.4 Z M568.516,91.016 C569.416,91.016 570.016,90.38 570.016,89.42 L570.016,88.34 C570.016,87.38 569.416,86.744 568.516,86.744 C567.724,86.744 567.1,87.176 567.1,87.812 L567.1,89.948 C567.1,90.584 567.724,91.016 568.516,91.016 Z M574.876,92.144 C573.7,92.144 572.932,91.7 572.344,90.968 L573.184,90.2 C573.64,90.752 574.204,91.088 574.948,91.088 C575.704,91.088 576.088,90.776 576.088,90.248 C576.088,89.852 575.848,89.552 575.2,89.468 L574.624,89.396 C573.352,89.24 572.572,88.688 572.572,87.536 C572.572,86.324 573.52,85.616 574.888,85.616 C576.016,85.616 576.652,85.988 577.216,86.612 L576.412,87.38 C576.088,86.996 575.56,86.672 574.888,86.672 C574.168,86.672 573.832,86.984 573.832,87.452 C573.832,87.932 574.132,88.148 574.792,88.256 L575.368,88.328 C576.736,88.532 577.348,89.132 577.348,90.14 C577.348,91.34 576.376,92.144 574.876,92.144 Z M581.236,89.432 L582.484,85.76 L583.744,85.76 L581.116,93.236 C580.816,94.076 580.444,94.4 579.472,94.4 L578.716,94.4 L578.716,93.332 L579.772,93.332 L580.132,92.276 L577.864,85.76 L579.172,85.76 L580.42,89.432 L580.78,90.788 L580.84,90.788 L581.236,89.432 Z" id="Biopsy" fill="#000000"></path>
                <path d="M250.032,41 L250.032,32.624 L253.74,32.624 C255.12,32.624 255.972,33.476 255.972,34.784 C255.972,36.044 255.204,36.5 254.52,36.56 L254.52,36.632 C255.204,36.656 256.272,37.184 256.272,38.588 C256.272,39.944 255.348,41 254.112,41 L250.032,41 Z M251.388,37.292 L251.388,39.836 L253.716,39.836 C254.412,39.836 254.844,39.452 254.844,38.768 L254.844,38.36 C254.844,37.676 254.412,37.292 253.716,37.292 L251.388,37.292 Z M251.388,33.788 L251.388,36.164 L253.488,36.164 C254.148,36.164 254.544,35.804 254.544,35.168 L254.544,34.784 C254.544,34.148 254.148,33.788 253.488,33.788 L251.388,33.788 Z M258.504,33.644 C257.964,33.644 257.724,33.356 257.724,32.96 L257.724,32.756 C257.724,32.36 257.964,32.072 258.504,32.072 C259.044,32.072 259.272,32.36 259.272,32.756 L259.272,32.96 C259.272,33.356 259.044,33.644 258.504,33.644 Z M257.844,41 L257.844,34.76 L259.152,34.76 L259.152,41 L257.844,41 Z M263.472,41.144 C261.732,41.144 260.604,39.872 260.604,37.88 C260.604,35.888 261.732,34.616 263.472,34.616 C265.212,34.616 266.34,35.888 266.34,37.88 C266.34,39.872 265.212,41.144 263.472,41.144 Z M263.472,40.064 C264.36,40.064 264.96,39.512 264.96,38.408 L264.96,37.352 C264.96,36.248 264.36,35.696 263.472,35.696 C262.584,35.696 261.984,36.248 261.984,37.352 L261.984,38.408 C261.984,39.512 262.584,40.064 263.472,40.064 Z M267.792,43.4 L267.792,34.76 L269.1,34.76 L269.1,35.792 L269.16,35.792 C269.424,35.048 270.084,34.616 270.912,34.616 C272.484,34.616 273.396,35.828 273.396,37.88 C273.396,39.932 272.484,41.144 270.912,41.144 C270.084,41.144 269.424,40.7 269.16,39.968 L269.1,39.968 L269.1,43.4 L267.792,43.4 Z M270.516,40.016 C271.416,40.016 272.016,39.38 272.016,38.42 L272.016,37.34 C272.016,36.38 271.416,35.744 270.516,35.744 C269.724,35.744 269.1,36.176 269.1,36.812 L269.1,38.948 C269.1,39.584 269.724,40.016 270.516,40.016 Z M276.876,41.144 C275.7,41.144 274.932,40.7 274.344,39.968 L275.184,39.2 C275.64,39.752 276.204,40.088 276.948,40.088 C277.704,40.088 278.088,39.776 278.088,39.248 C278.088,38.852 277.848,38.552 277.2,38.468 L276.624,38.396 C275.352,38.24 274.572,37.688 274.572,36.536 C274.572,35.324 275.52,34.616 276.888,34.616 C278.016,34.616 278.652,34.988 279.216,35.612 L278.412,36.38 C278.088,35.996 277.56,35.672 276.888,35.672 C276.168,35.672 275.832,35.984 275.832,36.452 C275.832,36.932 276.132,37.148 276.792,37.256 L277.368,37.328 C278.736,37.532 279.348,38.132 279.348,39.14 C279.348,40.34 278.376,41.144 276.876,41.144 Z M283.236,38.432 L284.484,34.76 L285.744,34.76 L283.116,42.236 C282.816,43.076 282.444,43.4 281.472,43.4 L280.716,43.4 L280.716,42.332 L281.772,42.332 L282.132,41.276 L279.864,34.76 L281.172,34.76 L282.42,38.432 L282.78,39.788 L282.84,39.788 L283.236,38.432 Z" id="Biopsy-Copy" fill="#000000"></path>
                <path d="M224.622,14 L223.266,14 L223.266,5.624 L226.866,5.624 C228.402,5.624 229.302,6.62 229.302,8.144 C229.302,9.668 228.402,10.664 226.866,10.664 L224.622,10.664 L224.622,14 Z M224.622,6.812 L224.622,9.476 L226.782,9.476 C227.466,9.476 227.874,9.104 227.874,8.432 L227.874,7.856 C227.874,7.184 227.466,6.812 226.782,6.812 L224.622,6.812 Z M235.854,14 L235.122,14 C234.438,14 234.078,13.568 233.994,12.956 L233.934,12.956 C233.694,13.736 233.022,14.144 232.11,14.144 C230.826,14.144 230.094,13.412 230.094,12.284 C230.094,11.048 231.018,10.412 232.758,10.412 L233.886,10.412 L233.886,9.884 C233.886,9.128 233.478,8.684 232.602,8.684 C231.87,8.684 231.426,9.044 231.114,9.536 L230.334,8.828 C230.742,8.132 231.474,7.616 232.686,7.616 C234.294,7.616 235.194,8.408 235.194,9.8 L235.194,12.932 L235.854,12.932 L235.854,14 Z M232.482,13.148 C233.286,13.148 233.886,12.764 233.886,12.152 L233.886,11.252 L232.782,11.252 C231.87,11.252 231.426,11.552 231.426,12.092 L231.426,12.308 C231.426,12.86 231.834,13.148 232.482,13.148 Z M239.97,14 L238.83,14 C237.93,14 237.45,13.496 237.45,12.644 L237.45,8.828 L236.478,8.828 L236.478,7.76 L237.006,7.76 C237.438,7.76 237.582,7.58 237.582,7.148 L237.582,6.056 L238.758,6.056 L238.758,7.76 L240.066,7.76 L240.066,8.828 L238.758,8.828 L238.758,12.932 L239.97,12.932 L239.97,14 Z M242.142,6.644 C241.602,6.644 241.362,6.356 241.362,5.96 L241.362,5.756 C241.362,5.36 241.602,5.072 242.142,5.072 C242.682,5.072 242.91,5.36 242.91,5.756 L242.91,5.96 C242.91,6.356 242.682,6.644 242.142,6.644 Z M241.482,14 L241.482,7.76 L242.79,7.76 L242.79,14 L241.482,14 Z M247.11,14.144 C245.334,14.144 244.242,12.872 244.242,10.88 C244.242,8.888 245.334,7.616 247.11,7.616 C248.946,7.616 249.882,8.996 249.882,10.724 L249.882,11.216 L245.598,11.216 L245.598,11.42 C245.598,12.38 246.186,13.064 247.242,13.064 C248.01,13.064 248.526,12.704 248.886,12.128 L249.654,12.884 C249.186,13.64 248.274,14.144 247.11,14.144 Z M247.11,8.636 C246.21,8.636 245.598,9.308 245.598,10.268 L245.598,10.352 L248.502,10.352 L248.502,10.232 C248.502,9.272 247.974,8.636 247.11,8.636 Z M252.642,14 L251.334,14 L251.334,7.76 L252.642,7.76 L252.642,8.792 L252.702,8.792 C252.966,8.12 253.494,7.616 254.454,7.616 C255.726,7.616 256.482,8.504 256.482,10.04 L256.482,14 L255.174,14 L255.174,10.208 C255.174,9.236 254.802,8.744 253.998,8.744 C253.314,8.744 252.642,9.092 252.642,9.824 L252.642,14 Z M261.162,14 L260.022,14 C259.122,14 258.642,13.496 258.642,12.644 L258.642,8.828 L257.67,8.828 L257.67,7.76 L258.198,7.76 C258.63,7.76 258.774,7.58 258.774,7.148 L258.774,6.056 L259.95,6.056 L259.95,7.76 L261.258,7.76 L261.258,8.828 L259.95,8.828 L259.95,12.932 L261.162,12.932 L261.162,14 Z M265.602,14 L265.602,5.624 L268.566,5.624 C270.702,5.624 272.106,7.016 272.106,9.812 C272.106,12.608 270.702,14 268.566,14 L265.602,14 Z M266.958,12.8 L268.566,12.8 C269.814,12.8 270.654,11.996 270.654,10.484 L270.654,9.14 C270.654,7.628 269.814,6.824 268.566,6.824 L266.958,6.824 L266.958,12.8 Z" id="Patient-D" fill="#000000"></path>
                <path d="M273.662,66 L272.306,66 L272.306,57.624 L275.906,57.624 C277.442,57.624 278.342,58.62 278.342,60.144 C278.342,61.668 277.442,62.664 275.906,62.664 L273.662,62.664 L273.662,66 Z M273.662,58.812 L273.662,61.476 L275.822,61.476 C276.506,61.476 276.914,61.104 276.914,60.432 L276.914,59.856 C276.914,59.184 276.506,58.812 275.822,58.812 L273.662,58.812 Z M284.894,66 L284.162,66 C283.478,66 283.118,65.568 283.034,64.956 L282.974,64.956 C282.734,65.736 282.062,66.144 281.15,66.144 C279.866,66.144 279.134,65.412 279.134,64.284 C279.134,63.048 280.058,62.412 281.798,62.412 L282.926,62.412 L282.926,61.884 C282.926,61.128 282.518,60.684 281.642,60.684 C280.91,60.684 280.466,61.044 280.154,61.536 L279.374,60.828 C279.782,60.132 280.514,59.616 281.726,59.616 C283.334,59.616 284.234,60.408 284.234,61.8 L284.234,64.932 L284.894,64.932 L284.894,66 Z M281.522,65.148 C282.326,65.148 282.926,64.764 282.926,64.152 L282.926,63.252 L281.822,63.252 C280.91,63.252 280.466,63.552 280.466,64.092 L280.466,64.308 C280.466,64.86 280.874,65.148 281.522,65.148 Z M289.01,66 L287.87,66 C286.97,66 286.49,65.496 286.49,64.644 L286.49,60.828 L285.518,60.828 L285.518,59.76 L286.046,59.76 C286.478,59.76 286.622,59.58 286.622,59.148 L286.622,58.056 L287.798,58.056 L287.798,59.76 L289.106,59.76 L289.106,60.828 L287.798,60.828 L287.798,64.932 L289.01,64.932 L289.01,66 Z M291.182,58.644 C290.642,58.644 290.402,58.356 290.402,57.96 L290.402,57.756 C290.402,57.36 290.642,57.072 291.182,57.072 C291.722,57.072 291.95,57.36 291.95,57.756 L291.95,57.96 C291.95,58.356 291.722,58.644 291.182,58.644 Z M290.522,66 L290.522,59.76 L291.83,59.76 L291.83,66 L290.522,66 Z M296.15,66.144 C294.374,66.144 293.282,64.872 293.282,62.88 C293.282,60.888 294.374,59.616 296.15,59.616 C297.986,59.616 298.922,60.996 298.922,62.724 L298.922,63.216 L294.638,63.216 L294.638,63.42 C294.638,64.38 295.226,65.064 296.282,65.064 C297.05,65.064 297.566,64.704 297.926,64.128 L298.694,64.884 C298.226,65.64 297.314,66.144 296.15,66.144 Z M296.15,60.636 C295.25,60.636 294.638,61.308 294.638,62.268 L294.638,62.352 L297.542,62.352 L297.542,62.232 C297.542,61.272 297.014,60.636 296.15,60.636 Z M301.682,66 L300.374,66 L300.374,59.76 L301.682,59.76 L301.682,60.792 L301.742,60.792 C302.006,60.12 302.534,59.616 303.494,59.616 C304.766,59.616 305.522,60.504 305.522,62.04 L305.522,66 L304.214,66 L304.214,62.208 C304.214,61.236 303.842,60.744 303.038,60.744 C302.354,60.744 301.682,61.092 301.682,61.824 L301.682,66 Z M310.202,66 L309.062,66 C308.162,66 307.682,65.496 307.682,64.644 L307.682,60.828 L306.71,60.828 L306.71,59.76 L307.238,59.76 C307.67,59.76 307.814,59.58 307.814,59.148 L307.814,58.056 L308.99,58.056 L308.99,59.76 L310.298,59.76 L310.298,60.828 L308.99,60.828 L308.99,64.932 L310.202,64.932 L310.202,66 Z M320.006,66 L314.642,66 L314.642,57.624 L320.006,57.624 L320.006,58.824 L315.998,58.824 L315.998,61.152 L319.634,61.152 L319.634,62.352 L315.998,62.352 L315.998,64.8 L320.006,64.8 L320.006,66 Z" id="Patient-E" fill="#000000"></path>
                <path d="M388.8,40 L387.444,40 L387.444,31.624 L391.044,31.624 C392.58,31.624 393.48,32.62 393.48,34.144 C393.48,35.668 392.58,36.664 391.044,36.664 L388.8,36.664 L388.8,40 Z M388.8,32.812 L388.8,35.476 L390.96,35.476 C391.644,35.476 392.052,35.104 392.052,34.432 L392.052,33.856 C392.052,33.184 391.644,32.812 390.96,32.812 L388.8,32.812 Z M400.032,40 L399.3,40 C398.616,40 398.256,39.568 398.172,38.956 L398.112,38.956 C397.872,39.736 397.2,40.144 396.288,40.144 C395.004,40.144 394.272,39.412 394.272,38.284 C394.272,37.048 395.196,36.412 396.936,36.412 L398.064,36.412 L398.064,35.884 C398.064,35.128 397.656,34.684 396.78,34.684 C396.048,34.684 395.604,35.044 395.292,35.536 L394.512,34.828 C394.92,34.132 395.652,33.616 396.864,33.616 C398.472,33.616 399.372,34.408 399.372,35.8 L399.372,38.932 L400.032,38.932 L400.032,40 Z M396.66,39.148 C397.464,39.148 398.064,38.764 398.064,38.152 L398.064,37.252 L396.96,37.252 C396.048,37.252 395.604,37.552 395.604,38.092 L395.604,38.308 C395.604,38.86 396.012,39.148 396.66,39.148 Z M404.148,40 L403.008,40 C402.108,40 401.628,39.496 401.628,38.644 L401.628,34.828 L400.656,34.828 L400.656,33.76 L401.184,33.76 C401.616,33.76 401.76,33.58 401.76,33.148 L401.76,32.056 L402.936,32.056 L402.936,33.76 L404.244,33.76 L404.244,34.828 L402.936,34.828 L402.936,38.932 L404.148,38.932 L404.148,40 Z M406.32,32.644 C405.78,32.644 405.54,32.356 405.54,31.96 L405.54,31.756 C405.54,31.36 405.78,31.072 406.32,31.072 C406.86,31.072 407.088,31.36 407.088,31.756 L407.088,31.96 C407.088,32.356 406.86,32.644 406.32,32.644 Z M405.66,40 L405.66,33.76 L406.968,33.76 L406.968,40 L405.66,40 Z M411.288,40.144 C409.512,40.144 408.42,38.872 408.42,36.88 C408.42,34.888 409.512,33.616 411.288,33.616 C413.124,33.616 414.06,34.996 414.06,36.724 L414.06,37.216 L409.776,37.216 L409.776,37.42 C409.776,38.38 410.364,39.064 411.42,39.064 C412.188,39.064 412.704,38.704 413.064,38.128 L413.832,38.884 C413.364,39.64 412.452,40.144 411.288,40.144 Z M411.288,34.636 C410.388,34.636 409.776,35.308 409.776,36.268 L409.776,36.352 L412.68,36.352 L412.68,36.232 C412.68,35.272 412.152,34.636 411.288,34.636 Z M416.82,40 L415.512,40 L415.512,33.76 L416.82,33.76 L416.82,34.792 L416.88,34.792 C417.144,34.12 417.672,33.616 418.632,33.616 C419.904,33.616 420.66,34.504 420.66,36.04 L420.66,40 L419.352,40 L419.352,36.208 C419.352,35.236 418.98,34.744 418.176,34.744 C417.492,34.744 416.82,35.092 416.82,35.824 L416.82,40 Z M425.34,40 L424.2,40 C423.3,40 422.82,39.496 422.82,38.644 L422.82,34.828 L421.848,34.828 L421.848,33.76 L422.376,33.76 C422.808,33.76 422.952,33.58 422.952,33.148 L422.952,32.056 L424.128,32.056 L424.128,33.76 L425.436,33.76 L425.436,34.828 L424.128,34.828 L424.128,38.932 L425.34,38.932 L425.34,40 Z M431.136,40 L429.78,40 L429.78,31.624 L435.012,31.624 L435.012,32.824 L431.136,32.824 L431.136,35.152 L434.58,35.152 L434.58,36.352 L431.136,36.352 L431.136,40 Z" id="Patient-F" fill="#000000"></path>
                <path d="M431.99,66 L430.634,66 L430.634,57.624 L434.234,57.624 C435.77,57.624 436.67,58.62 436.67,60.144 C436.67,61.668 435.77,62.664 434.234,62.664 L431.99,62.664 L431.99,66 Z M431.99,58.812 L431.99,61.476 L434.15,61.476 C434.834,61.476 435.242,61.104 435.242,60.432 L435.242,59.856 C435.242,59.184 434.834,58.812 434.15,58.812 L431.99,58.812 Z M443.222,66 L442.49,66 C441.806,66 441.446,65.568 441.362,64.956 L441.302,64.956 C441.062,65.736 440.39,66.144 439.478,66.144 C438.194,66.144 437.462,65.412 437.462,64.284 C437.462,63.048 438.386,62.412 440.126,62.412 L441.254,62.412 L441.254,61.884 C441.254,61.128 440.846,60.684 439.97,60.684 C439.238,60.684 438.794,61.044 438.482,61.536 L437.702,60.828 C438.11,60.132 438.842,59.616 440.054,59.616 C441.662,59.616 442.562,60.408 442.562,61.8 L442.562,64.932 L443.222,64.932 L443.222,66 Z M439.85,65.148 C440.654,65.148 441.254,64.764 441.254,64.152 L441.254,63.252 L440.15,63.252 C439.238,63.252 438.794,63.552 438.794,64.092 L438.794,64.308 C438.794,64.86 439.202,65.148 439.85,65.148 Z M447.338,66 L446.198,66 C445.298,66 444.818,65.496 444.818,64.644 L444.818,60.828 L443.846,60.828 L443.846,59.76 L444.374,59.76 C444.806,59.76 444.95,59.58 444.95,59.148 L444.95,58.056 L446.126,58.056 L446.126,59.76 L447.434,59.76 L447.434,60.828 L446.126,60.828 L446.126,64.932 L447.338,64.932 L447.338,66 Z M449.51,58.644 C448.97,58.644 448.73,58.356 448.73,57.96 L448.73,57.756 C448.73,57.36 448.97,57.072 449.51,57.072 C450.05,57.072 450.278,57.36 450.278,57.756 L450.278,57.96 C450.278,58.356 450.05,58.644 449.51,58.644 Z M448.85,66 L448.85,59.76 L450.158,59.76 L450.158,66 L448.85,66 Z M454.478,66.144 C452.702,66.144 451.61,64.872 451.61,62.88 C451.61,60.888 452.702,59.616 454.478,59.616 C456.314,59.616 457.25,60.996 457.25,62.724 L457.25,63.216 L452.966,63.216 L452.966,63.42 C452.966,64.38 453.554,65.064 454.61,65.064 C455.378,65.064 455.894,64.704 456.254,64.128 L457.022,64.884 C456.554,65.64 455.642,66.144 454.478,66.144 Z M454.478,60.636 C453.578,60.636 452.966,61.308 452.966,62.268 L452.966,62.352 L455.87,62.352 L455.87,62.232 C455.87,61.272 455.342,60.636 454.478,60.636 Z M460.01,66 L458.702,66 L458.702,59.76 L460.01,59.76 L460.01,60.792 L460.07,60.792 C460.334,60.12 460.862,59.616 461.822,59.616 C463.094,59.616 463.85,60.504 463.85,62.04 L463.85,66 L462.542,66 L462.542,62.208 C462.542,61.236 462.17,60.744 461.366,60.744 C460.682,60.744 460.01,61.092 460.01,61.824 L460.01,66 Z M468.53,66 L467.39,66 C466.49,66 466.01,65.496 466.01,64.644 L466.01,60.828 L465.038,60.828 L465.038,59.76 L465.566,59.76 C465.998,59.76 466.142,59.58 466.142,59.148 L466.142,58.056 L467.318,58.056 L467.318,59.76 L468.626,59.76 L468.626,60.828 L467.318,60.828 L467.318,64.932 L468.53,64.932 L468.53,66 Z M478.358,66 L478.358,64.728 L478.31,64.728 C478.142,65.532 477.326,66.144 476.054,66.144 C474.062,66.144 472.598,64.62 472.598,61.812 C472.598,59.016 474.062,57.48 476.258,57.48 C477.758,57.48 478.802,58.188 479.378,59.364 L478.274,60.012 C477.95,59.232 477.278,58.692 476.258,58.692 C474.938,58.692 474.05,59.592 474.05,61.128 L474.05,62.496 C474.05,64.032 474.938,64.932 476.258,64.932 C477.314,64.932 478.238,64.392 478.238,63.348 L478.238,62.7 L476.51,62.7 L476.51,61.536 L479.546,61.536 L479.546,66 L478.358,66 Z" id="Patient-G" fill="#000000"></path>
            </g>
        </g>
    </g>
</svg>