<?xml version="1.0" encoding="UTF-8"?>
<svg width="144px" height="295px" viewBox="0 0 144 295" version="1.1" xmlns="http://www.w3.org/2000/svg" xmlns:xlink="http://www.w3.org/1999/xlink">
    <!-- Generator: Sketch 49.3 (51167) - http://www.bohemiancoding.com/sketch -->
    <title>regulatory</title>
    <desc>Created with Sketch.</desc>
    <defs></defs>
    <g id="Page-1" stroke="none" stroke-width="1" fill="none" fill-rule="evenodd">
        <g id="Artboard" transform="translate(-77.000000, -544.000000)">
            <g id="regulatory" transform="translate(77.000000, 544.000000)">
                <ellipse id="Oval-2" fill="#000000" opacity="0.204483696" cx="71.8041237" cy="284.175258" rx="71.6494845" ry="10.8247423"></ellipse>
                <path d="M43.7975451,278.516152 C35.5845941,279.142233 24.7811645,281.593664 27.3422547,284.049302 C27.3422547,284.455511 42.7133691,285.262862 48.635239,284.049302 C51.5714355,283.447591 47.4909783,278.234597 43.7975451,278.516152 Z" id="Path-6" fill="#0000FF"></path>
                <path d="M108.042455,278.516152 C100.20282,279.142233 89.8904555,281.593664 92.3351325,284.049302 C92.3351325,284.455511 107.00756,285.262862 112.660254,284.049302 C115.462987,283.447591 111.568005,278.234597 108.042455,278.516152 Z" id="Path-6-Copy" fill="#0000FF" transform="translate(102.793814, 281.597938) scale(-1, 1) translate(-102.793814, -281.597938) "></path>
                <path d="M58.8887028,31.4206469 C66.9932229,28.6476615 79.9136654,30.527062 86.8350515,30.527062 C85.9268949,21.6360556 82.8718288,4.41649306 72.5941263,5.01521483 C62.3164238,5.61393659 59.6482849,22.7298577 58.8887028,31.4206469 Z" id="Path-3" fill="#0000FF"></path>
                <path d="M50.1543973,104.457101 C70.1162775,102.76327 77.6165045,102.927204 97.6528223,104.457101 C103.272578,112.03927 94.6343747,264.821993 99.6042154,280.048698 C100.048793,281.410803 92.2976237,283.816798 91.8970531,282.277138 C87.9834469,267.234534 89.3022747,141.324497 75.2922068,137.170143 C52.3734366,140.223273 54.9852052,267.617088 49.50388,282.277138 C48.9588207,283.734924 43.8064791,281.945625 43.8064791,279.303303 C43.8064791,250.193201 42.3543082,133.511235 50.1543973,104.457101 Z" id="Path-5" stroke="#000000" stroke-width="2" fill="#000000"></path>
                <path d="M67.5384558,30.671183 C69.3491011,29.7971011 77.8066942,29.7556831 78.7813044,30.671183 C79.4310445,31.2815163 78.2533664,33.6955872 75.2482701,37.9133955 C75.5253382,67.4214227 75.5253382,84.2468582 75.2482701,88.3897018 C75.2482701,89.1261824 72.9772831,90.2763142 71.8724782,88.3897018 C70.6166392,69.6118519 71.8724782,43.261884 71.8724782,37.9133955 C68.8156493,33.9502129 65.7278106,31.5452649 67.5384558,30.671183 Z" id="Path-16" fill="#000000"></path>
                <path d="M58.4154368,13.6605324 C59.7100985,14.1728692 67.9490743,14.1728692 83.1323642,13.6605324 C84.2725191,12.8276092 84.636623,11.8958088 84.2246759,10.8651312 C83.8127288,9.83445363 76.5823454,9.65243252 62.5335258,10.3190679 C58.4934715,12.0343741 57.1207751,13.1481956 58.4154368,13.6605324 Z" id="Path-17" fill="#000000"></path>
                <path d="M62.3230392,11.6023003 C58.5900029,5.40999092 57.5954609,1.78307936 59.339413,0.721565603 C61.9553412,-0.870705027 81.5320508,1.86423031 84.4376775,3.91298937 C86.374762,5.27882873 86.374762,7.664558 84.4376775,11.0701772 L62.3230392,11.6023003 Z" id="Path-18" fill="#000000"></path>
                <path d="M63,13.4267372 C64.4186106,17.8089124 65.8707258,20 67.3563455,20 C68.8419653,20 70.3580965,17.8089124 71.9047393,13.4267372 L72.5320311,13.4267372 C73.6417684,17.8089124 74.9745608,20 76.5304081,20 C78.0862553,20 79.8343102,17.6666667 81.7745725,13 L63,13.4267372 Z" id="Path-19" fill="#000000"></path>
                <path d="M81.1928242,47.4402905 C81.8118205,45.5341142 88.8630419,45.5057445 89.3853553,47.4402905 C89.9076688,49.3748365 88.7271745,53.3238152 87.6486687,54.6408644 C86.5701629,55.9579136 85.50482,56.8892841 83.4889463,54.6408644 C81.4730725,52.3924447 80.5738279,49.3464668 81.1928242,47.4402905 Z" id="Path-20" stroke="#000000" stroke-width="2"></path>
                <path d="M93.6004346,119.6187 C90.7793816,110.535569 96.6775626,102.264284 97.877036,101.653909 C99.0765095,101.043535 94.9076944,109.060672 95.5428323,109.64732 C96.9682598,107.23726 100.80078,100.826201 101.519835,101.653909 C102.238891,102.481617 96.8350677,110.024468 98.4075635,111.025435 C99.5453539,109.354871 104.806172,101.253129 105.373365,102.814917 C105.940558,104.376704 100.016869,110.420992 100.569644,114.542509 C100.449515,116.191377 104.980404,111.924806 104.591881,113.541355 C104.203357,115.157904 103.614608,116.107615 99.2130733,119.6187 C96.579816,120.895688 95.5771696,120.48947 93.6004346,119.6187 Z" id="Path-4" fill="#0000FF" transform="translate(99.128191, 111.005930) scale(-1, -1) rotate(40.000000) translate(-99.128191, -111.005930) "></path>
                <path d="M44.2313688,119.484652 C41.4103158,110.401522 47.3084968,102.130236 48.5079702,101.519862 C49.7074436,100.909488 45.5386285,108.926625 46.1737664,109.513273 C47.5991939,107.103212 51.4317138,100.692154 52.1507693,101.519862 C52.8698248,102.34757 47.4660019,109.89042 49.0384976,110.891388 C50.176288,109.220824 55.4371062,101.119081 56.0042992,102.680869 C56.5714922,104.242657 50.647803,110.286945 51.2005785,114.408462 C51.0804487,116.05733 55.6113381,111.790759 55.2228147,113.407308 C54.8342912,115.023857 54.2455421,115.973568 49.8440074,119.484652 C47.2107501,120.761641 46.2081037,120.355422 44.2313688,119.484652 Z" id="Path-4-Copy-3" fill="#0000FF" transform="translate(49.759126, 110.871883) scale(1, -1) rotate(50.000000) translate(-49.759126, -110.871883) "></path>
                <path d="M40.5359824,29.7921361 C-2.87816543,34.8922336 9.24361017,109.887861 72.2389038,109.887861 C135.234197,109.887861 145.709528,52.7824538 107.580847,30.3187127" id="Path" stroke="#000000" stroke-width="2" stroke-linecap="round" stroke-linejoin="round" transform="translate(72.290044, 69.839999) scale(1, -1) translate(-72.290044, -69.839999) "></path>
                <path d="M42.0275187,106.15444 C25.0111216,100.972807 9.95308131,61.9104091 51.9141465,50.1608375 C51.9141465,69.6343355 49.8077199,79.0034924 49.8077199,106.15444 L51.5818355,105.209061 M96.5891608,105.209061 L98.3182144,107.571039 C98.3182144,79.9055253 97.3996939,64.6561008 95.6435122,50.1608375 C130.02048,57.7167478 119.788542,98.4567413 105.651109,105.209061" id="Path-2" stroke="#000000" stroke-width="2" stroke-linecap="round" stroke-linejoin="round"></path>
            </g>
        </g>
    </g>
</svg>