<svg height="182" viewBox="0 0 322 182" width="322" xmlns="http://www.w3.org/2000/svg"><g fill="none" fill-rule="evenodd"><g fill="#ccc"><circle cx="10" cy="10" r="10"/><circle cx="130" cy="10" r="10"/><circle cx="70" cy="10" r="10"/><circle cx="190" cy="10" r="10"/><circle cx="250" cy="10" r="10"/><circle cx="40" cy="10" r="10"/><circle cx="160" cy="10" r="10"/><circle cx="100" cy="10" r="10"/><circle cx="220" cy="10" r="10"/></g><circle cx="280" cy="10" fill="#00f" r="10"/><circle cx="10" cy="40" fill="#ccc" r="10"/><circle cx="130" cy="40" fill="#ccc" r="10"/><circle cx="70" cy="40" fill="#ccc" r="10"/><circle cx="190" cy="40" fill="#ccc" r="10"/><circle cx="250" cy="40" fill="#ccc" r="10"/><circle cx="40" cy="40" fill="#ccc" r="10"/><circle cx="160" cy="40" fill="#ccc" r="10"/><circle cx="100" cy="40" fill="#ccc" r="10"/><circle cx="220" cy="40" fill="#ccc" r="10"/><circle cx="280" cy="40" fill="#00f" r="10"/><circle cx="10" cy="100" fill="#ccc" r="10"/><circle cx="130" cy="100" fill="#ccc" r="10"/><circle cx="70" cy="100" fill="#ccc" r="10"/><circle cx="190" cy="100" fill="#ccc" r="10"/><circle cx="250" cy="100" fill="#ccc" r="10"/><circle cx="40" cy="100" fill="#ccc" r="10"/><circle cx="160" cy="100" fill="#ccc" r="10"/><circle cx="100" cy="100" fill="#ccc" r="10"/><circle cx="220" cy="100" fill="#ccc" r="10"/><circle cx="280" cy="100" fill="#00f" r="10"/><circle cx="10" cy="70" fill="#ccc" r="10"/><circle cx="130" cy="70" fill="#ccc" r="10"/><circle cx="70" cy="70" fill="#ccc" r="10"/><circle cx="190" cy="70" fill="#ccc" r="10"/><circle cx="250" cy="70" fill="#ccc" r="10"/><circle cx="40" cy="70" fill="#ccc" r="10"/><circle cx="160" cy="70" fill="#ccc" r="10"/><circle cx="100" cy="70" fill="#ccc" r="10"/><circle cx="220" cy="70" fill="#ccc" r="10"/><circle cx="280" cy="70" fill="#00f" r="10"/><circle cx="10" cy="130" fill="#ccc" r="10"/><circle cx="130" cy="130" fill="#ccc" r="10"/><circle cx="70" cy="130" fill="#ccc" r="10"/><circle cx="190" cy="130" fill="#ccc" r="10"/><circle cx="250" cy="130" fill="#ccc" r="10"/><circle cx="40" cy="130" fill="#ccc" r="10"/><circle cx="160" cy="130" fill="#ccc" r="10"/><circle cx="100" cy="130" fill="#ccc" r="10"/><circle cx="220" cy="130" fill="#ccc" r="10"/><circle cx="280" cy="130" fill="#00f" r="10"/><path d="m1.5 151.5h258.00193" stroke="#ccc" stroke-linecap="round" stroke-linejoin="round" stroke-width="3"/><path d="m270 151h20" stroke="#00f" stroke-linecap="round" stroke-linejoin="round" stroke-width="3"/><path d="m130.5 152.5v10" stroke="#ccc" stroke-linecap="round" stroke-linejoin="round" stroke-width="3"/><path d="m280.5 152.5v10" stroke="#00f" stroke-linecap="round" stroke-linejoin="round" stroke-width="3"/><path d="m110.368 178.36-2.87-7.518h-.126v7.518h-1.372v-9.772h2.016l2.87 7.518h.126v-7.518h1.372v9.772zm7.224.168c-2.128 0-3.43-1.47-3.43-3.78s1.302-3.78 3.43-3.78 3.43 1.47 3.43 3.78-1.302 3.78-3.43 3.78zm0-1.204c1.106 0 1.834-.686 1.834-2.03v-1.092c0-1.344-.728-2.03-1.834-2.03s-1.834.686-1.834 2.03v1.092c0 1.344.728 2.03 1.834 2.03zm5.264 1.036v-1.232h1.918v-4.76h-1.918v-1.232h3.444v1.918h.084c.28-1.008.91-1.918 2.38-1.918h.868v1.456h-1.428c-1.246 0-1.904.826-1.904 1.834v2.702h2.618v1.232zm9.254 0h-1.302v-7.224h1.302v.938h.07c.224-.616.602-1.106 1.386-1.106.756 0 1.176.448 1.288 1.176h.056c.252-.658.686-1.176 1.554-1.176 1.106 0 1.498.812 1.498 2.31v5.082h-1.302v-4.886c0-.994-.224-1.33-.77-1.33-.49 0-.854.322-.854.98v5.236h-1.302v-4.886c0-.994-.21-1.33-.756-1.33-.504 0-.868.322-.868.98zm14.308 0h-.938c-.868 0-1.302-.49-1.386-1.218h-.07c-.28.868-1.036 1.386-2.17 1.386-1.47 0-2.422-.826-2.422-2.184 0-1.4 1.022-2.156 3.164-2.156h1.386v-.56c0-.966-.518-1.47-1.554-1.47-.924 0-1.47.392-1.862.994l-.91-.742c.406-.784 1.386-1.442 2.912-1.442 1.82 0 2.94.91 2.94 2.562v3.626h.91zm-4.13-.952c.98 0 1.694-.49 1.694-1.204v-1.05h-1.358c-1.12 0-1.652.35-1.652.994v.28c0 .644.504.98 1.316.98zm5.754.952v-1.232h2.394v-7.896h-2.394v-1.232h3.92v9.128h2.394v1.232z" fill="#9b9b9b"/><path d="m242.57 178.654c-1.694 0-2.828-.658-3.57-1.638l1.008-.966c.742.882 1.568 1.302 2.618 1.302 1.232 0 1.918-.588 1.918-1.624 0-.84-.434-1.274-1.61-1.47l-1.064-.168c-1.848-.308-2.506-1.414-2.506-2.716 0-1.834 1.288-2.828 3.36-2.828 1.54 0 2.632.532 3.304 1.414l-.98.98c-.532-.658-1.246-1.092-2.324-1.092-1.148 0-1.778.504-1.778 1.456 0 .798.42 1.246 1.624 1.442l1.036.182c1.764.322 2.52 1.33 2.52 2.716 0 1.806-1.26 3.01-3.556 3.01zm9.982-.168v-1.232h-.07c-.308.756-.896 1.4-2.086 1.4-1.456 0-2.436-.994-2.436-2.744v-4.648h1.526v4.424c0 1.148.518 1.722 1.498 1.722.784 0 1.568-.406 1.568-1.246v-4.9h1.526v7.224zm6.916.168c-1.554 0-2.702-.546-3.388-1.386l.938-.84c.63.686 1.4 1.064 2.478 1.064.98 0 1.652-.322 1.652-1.036 0-.616-.49-.784-1.106-.868l-1.148-.182c-1.134-.168-2.408-.574-2.408-2.058 0-1.47 1.232-2.254 3.08-2.254 1.344 0 2.31.42 2.968 1.134l-.854.896c-.378-.434-1.036-.868-2.17-.868-.994 0-1.526.336-1.526.966 0 .616.504.784 1.106.868l1.148.182c1.148.168 2.408.56 2.408 2.044 0 1.456-1.204 2.338-3.178 2.338zm5.292 2.632v-10.024h1.526v1.232h.084c.42-.868 1.12-1.4 2.184-1.4 1.694 0 2.786 1.302 2.786 3.78s-1.092 3.78-2.786 3.78c-1.064 0-1.764-.532-2.184-1.4h-.084v4.032zm3.164-3.878c1.148 0 1.806-.77 1.806-1.946v-1.176c0-1.176-.658-1.946-1.806-1.946-.882 0-1.638.448-1.638 1.33v2.408c0 .882.756 1.33 1.638 1.33zm8.778-7.462c-.77 0-1.05-.364-1.05-.826v-.294c0-.462.28-.826 1.036-.826.77 0 1.05.364 1.05.826v.294c0 .462-.28.826-1.036.826zm-3.234 8.54v-1.232h2.464v-4.76h-2.464v-1.232h3.99v5.992h2.31v1.232zm11.452.168c-2.156 0-3.43-1.47-3.43-3.78s1.288-3.78 3.416-3.78c1.484 0 2.366.7 2.814 1.708l-1.19.644c-.252-.672-.784-1.092-1.624-1.092-1.148 0-1.82.77-1.82 1.918v1.204c0 1.134.658 1.918 1.848 1.918.896 0 1.442-.448 1.778-1.148l1.12.686c-.462 1.008-1.4 1.722-2.912 1.722zm8.582-8.708c-.77 0-1.05-.364-1.05-.826v-.294c0-.462.28-.826 1.036-.826.77 0 1.05.364 1.05.826v.294c0 .462-.28.826-1.036.826zm-3.234 8.54v-1.232h2.464v-4.76h-2.464v-1.232h3.99v5.992h2.31v1.232zm11.186.168c-2.128 0-3.43-1.47-3.43-3.78s1.302-3.78 3.43-3.78 3.43 1.47 3.43 3.78-1.302 3.78-3.43 3.78zm0-1.204c1.106 0 1.834-.686 1.834-2.03v-1.092c0-1.344-.728-2.03-1.834-2.03s-1.834.686-1.834 2.03v1.092c0 1.344.728 2.03 1.834 2.03zm9.898 1.036v-1.232h-.07c-.308.756-.896 1.4-2.086 1.4-1.456 0-2.436-.994-2.436-2.744v-4.648h1.526v4.424c0 1.148.518 1.722 1.498 1.722.784 0 1.568-.406 1.568-1.246v-4.9h1.526v7.224zm6.916.168c-1.554 0-2.702-.546-3.388-1.386l.938-.84c.63.686 1.4 1.064 2.478 1.064.98 0 1.652-.322 1.652-1.036 0-.616-.49-.784-1.106-.868l-1.148-.182c-1.134-.168-2.408-.574-2.408-2.058 0-1.47 1.232-2.254 3.08-2.254 1.344 0 2.31.42 2.968 1.134l-.854.896c-.378-.434-1.036-.868-2.17-.868-.994 0-1.526.336-1.526.966 0 .616.504.784 1.106.868l1.148.182c1.148.168 2.408.56 2.408 2.044 0 1.456-1.204 2.338-3.178 2.338z" fill="#00f"/></g></svg>