<svg height="193" viewBox="0 0 255 193" width="255" xmlns="http://www.w3.org/2000/svg"><g fill="none" fill-rule="evenodd"><path d="m114 192.649485c62.960461 0 114 0 114-10.824743 0-10.824742-51.039539-10.824742-114-10.824742-62.9604615 0-114 0-114 10.824742 0 10.824743 51.0395385 10.824743 114 10.824743z" fill="#000" opacity=".204484"/><path d="m113 169.568308 26.323704-25.568308h30.379217l-3.505865 19.170103z" fill="#000"/><g transform="matrix(-1 0 0 1 419.811252 0)"><path d="m165 46.95586c0-8.7978573 0-28.1580027 0-36.95586 0-5.5228475 4.477153-10 10-10h79.811253c-4.540835 2.15927089-6.811253 4.89809821-6.811253 8.21648196v38.73937804c-48.666667 0-76.333333 0-83 0z" fill="#fff" fill-rule="evenodd"/><path d="m166 45.95586h24.75 56.25c0-.3467857 0-.8642003 0-1.7390377 0-2.9130315 0-2.9130315 0-7.3695756 0-11.2283571 0-11.2283571 0-28.63076474 0-2.8069578 1.405257-5.21548535 4.134333-7.21648196h-76.134333c-4.970563 0-9 4.02943725-9 9v11.5362283 6.9417017z" stroke="#000" stroke-width="2"/></g><g transform="matrix(-1 0 0 -1 394.03291 82)"><path d="m166.221658 0h79.811252c-4.540835 2.15927089-6.811252 4.89809821-6.811252 8.21648196v63.78351804c0 5.5228475-4.477153 10-10 10h-81.221658c5.481105-1.4214784 8.221658-4.4692478 8.221658-9.1433082 0-20.9522306 0-41.9044612 0-62.8566918 0-5.5228475 4.477152-10 10-10z" fill="#fff" fill-rule="evenodd"/><path d="m152.921539 81h76.300119c4.970563 0 9-4.0294373 9-9 0-15.9458795 0-15.9458795 0-31.891759s0-15.9458795 0-31.89175904c0-2.8069578 1.405257-5.21548535 4.134333-7.21648196h-76.134333c-4.970563 0-9 4.02943725-9 9v25.1426767 37.7140151c0 3.5589485-1.461047 6.2894144-4.300119 8.1433082z" stroke="#000" stroke-width="2"/></g><g stroke="#00f" stroke-linecap="round" stroke-linejoin="round" stroke-width="2" transform="matrix(1 0 0 -1 164 74)"><path d="m.5 13.5h41.5030119"/><path d="m.5 19.5h64.501938"/><path d="m.5 7.5h64.501938"/><path d="m.5 26.25h64.501938"/><path d="m32 32.625h33.001938"/><path d="m.5 32.625h24.5"/><path d="m.5 39h64.501938"/><path d="m47 45.375h18.001938"/><path d="m.5 45.375h41.5"/><path d="m.5 51.75h64.501938"/><path d="m14 58.125h51.001938"/><path d="m.5 58.125h8.5"/><path d="m.5 64.5h64.501938"/><path d="m48 13.5h17.0030119"/><path d="m48 1.5h17.0030119"/></g><path d="m180 36h29.207673c5.441075 0 9.883629 4.3502938 9.997798 9.7901709l.71798 34.2098291h-39.923451z" fill="#fff"/><path d="m138.570871 80.1856313 85.839281.7613203c0-.3467273 0-.8627517 0-1.7301293 0-2.9130315 0-2.9130315 0-7.3695756 0-11.2283571 0-11.2283571 0-28.6307647 0-2.8069578 1.405257-5.2154854 4.134333-7.216482h-76.134333c-4.970563 0-9 4.0294373-9 9v13.1817599 13.1817598l-.006252.1116444c-.455148 4.0512836-1.972028 6.9678941-4.833029 8.7104672z" stroke="#000" stroke-width="2" transform="matrix(-1 0 0 1 362.221404 0)"/><path d="m130 35h79.811253c-4.540835 2.1592709-6.811253 4.8980982-6.811253 8.216482v73.783518h-83v-72c0-5.5228475 4.477153-10 10-10z" fill="#fff" fill-rule="evenodd"/><path d="m121 116h81c0-35.2282778 0-35.5738606 0-72.783518 0-2.8069578 1.405257-5.2154854 4.134333-7.216482h-76.134333c-4.970563 0-9 4.0294373-9 9z" stroke="#000" stroke-width="2"/><path d="m105 128h21v8h-21z" fill="#fff" fill-rule="evenodd"/><path d="m106 129h19v6h-19z" stroke="#000" stroke-width="2"/><path d="m73 143h11v8h-11z" fill="#fff" fill-rule="evenodd"/><path d="m74 144h9v6h-9z" stroke="#000" stroke-width="2"/><path d="m56 155h11v8h-11z" fill="#fff" fill-rule="evenodd"/><path d="m57 156h9v6h-9z" stroke="#000" stroke-width="2"/><path d="m37 161h11v8h-11z" fill="#fff" fill-rule="evenodd"/><path d="m38 162h9v6h-9z" stroke="#000" stroke-width="2"/><path d="m100 143h11v8h-11z" fill="#fff" fill-rule="evenodd"/><path d="m101 144h9v6h-9z" stroke="#000" stroke-width="2"/><path d="m83 155h11v8h-11z" fill="#fff" fill-rule="evenodd"/><path d="m84 156h9v6h-9z" stroke="#000" stroke-width="2"/><path d="m127 143h11v8h-11z" fill="#fff" fill-rule="evenodd"/><path d="m128 144h9v6h-9z" stroke="#000" stroke-width="2"/><path d="m110 155h11v8h-11z" fill="#fff" fill-rule="evenodd"/><path d="m111 156h9v6h-9z" stroke="#000" stroke-width="2"/><path d="m106 161h11v8h-11z" fill="#fff" fill-rule="evenodd"/><path d="m107 162h9v6h-9z" stroke="#000" stroke-width="2"/><path d="m115 161h11v7.362328l-3.244645.637672h-7.755355z" fill="#fff" fill-rule="evenodd"/><path d="m116 162v6h6.658021l2.341979-.460271v-5.539729z" stroke="#000" stroke-width="2"/><path d="m124 161h11v7.362328l-3.244645.637672h-7.755355z" fill="#fff" fill-rule="evenodd"/><path d="m125 162v6h6.658021l2.341979-.460271v-5.539729z" stroke="#000" stroke-width="2"/><path d="m82 143h11v8h-11z" fill="#fff" fill-rule="evenodd"/><path d="m83 144h9v6h-9z" stroke="#000" stroke-width="2"/><path d="m65 155h11v8h-11z" fill="#fff" fill-rule="evenodd"/><path d="m66 156h9v6h-9z" stroke="#000" stroke-width="2"/><path d="m46 161h11v8h-11z" fill="#fff" fill-rule="evenodd"/><path d="m47 162h9v6h-9z" stroke="#000" stroke-width="2"/><path d="m55 161h53v8h-53z" fill="#fff" fill-rule="evenodd"/><path d="m56 162h51v6h-51z" stroke="#000" stroke-width="2"/><path d="m109 143h11v8h-11z" fill="#fff" fill-rule="evenodd"/><path d="m110 144h9v6h-9z" stroke="#000" stroke-width="2"/><path d="m92 155h11v8h-11z" fill="#fff" fill-rule="evenodd"/><path d="m93 156h9v6h-9z" stroke="#000" stroke-width="2"/><path d="m136 143h11v8h-11z" fill="#fff" fill-rule="evenodd"/><path d="m137 144h9v6h-9z" stroke="#000" stroke-width="2"/><path d="m119 155h11v8h-11z" fill="#fff" fill-rule="evenodd"/><path d="m120 156h9v6h-9z" stroke="#000" stroke-width="2"/><path d="m91 143h11v8h-11z" fill="#fff" fill-rule="evenodd"/><path d="m92 144h9v6h-9z" stroke="#000" stroke-width="2"/><path d="m74 155h11v8h-11z" fill="#fff" fill-rule="evenodd"/><path d="m75 156h9v6h-9z" stroke="#000" stroke-width="2"/><path d="m118 143h11v8h-11z" fill="#fff" fill-rule="evenodd"/><path d="m119 144h9v6h-9z" stroke="#000" stroke-width="2"/><path d="m101 155h11v8h-11z" fill="#fff" fill-rule="evenodd"/><path d="m102 156h9v6h-9z" stroke="#000" stroke-width="2"/><path d="m145 143h11v8h-11z" fill="#fff" fill-rule="evenodd"/><path d="m146 144h9v6h-9z" stroke="#000" stroke-width="2"/><path d="m128 155h11v8h-11z" fill="#fff" fill-rule="evenodd"/><path d="m129 156h9v6h-9z" stroke="#000" stroke-width="2"/><path d="m154 143h11v8h-11z" fill="#fff" fill-rule="evenodd"/><path d="m155 144h9v6h-9z" stroke="#000" stroke-width="2"/><path d="m68 149h11v8h-11z" fill="#fff" fill-rule="evenodd"/><path d="m69 150h9v6h-9z" stroke="#000" stroke-width="2"/><path d="m95 149h11v8h-11z" fill="#fff" fill-rule="evenodd"/><path d="m96 150h9v6h-9z" stroke="#000" stroke-width="2"/><path d="m122 149h11v8h-11z" fill="#fff" fill-rule="evenodd"/><path d="m123 150h9v6h-9z" stroke="#000" stroke-width="2"/><path d="m77 149h11v8h-11z" fill="#fff" fill-rule="evenodd"/><path d="m78 150h9v6h-9z" stroke="#000" stroke-width="2"/><path d="m104 149h11v8h-11z" fill="#fff" fill-rule="evenodd"/><path d="m105 150h9v6h-9z" stroke="#000" stroke-width="2"/><path d="m131 149h11v8h-11z" fill="#fff" fill-rule="evenodd"/><path d="m132 150h9v6h-9z" stroke="#000" stroke-width="2"/><path d="m86 149h11v8h-11z" fill="#fff" fill-rule="evenodd"/><path d="m87 150h9v6h-9z" stroke="#000" stroke-width="2"/><path d="m113 149h11v8h-11z" fill="#fff" fill-rule="evenodd"/><path d="m114 150h9v6h-9z" stroke="#000" stroke-width="2"/><path d="m140 149h11v8h-11z" fill="#fff" fill-rule="evenodd"/><path d="m141 150h9v6h-9z" stroke="#000" stroke-width="2"/><path d="m149 149h11v5.849453l-2.992886 2.150547h-8.007114z" fill="#fff" fill-rule="evenodd"/><path d="m150 150v6h6.685093l2.314907-1.663383v-4.336617z" stroke="#000" stroke-width="2"/><path d="m137 155h11v8h-11z" fill="#fff" fill-rule="evenodd"/><path d="m138 156h9v6h-9z" stroke="#000" stroke-width="2"/><rect fill="#fff" fill-rule="evenodd" height="8" rx="4" width="8" x="89" y="128"/><rect height="6" rx="3" stroke="#000" stroke-width="2" width="6" x="90" y="129"/><path d="m143 128h16v8h-16z" fill="#fff" fill-rule="evenodd"/><path d="m144 129h14v6h-14z" stroke="#000" stroke-width="2"/><path d="m76 123h96v22h-96z" fill="#ccc" fill-rule="evenodd"/><path d="m77 124h94v20h-94z" stroke="#000" stroke-width="2"/><path d="m181 125h-104.9569681c-.5027985-4.663221 3.4005508-7.996554 11.7100479-10h93.2469202" fill="#fff" fill-rule="evenodd"/><path d="m180 124v-8c-37.044591 0-37.274655 0-63.300431 0-20.2706217 0-20.3651254 0-28.8270304 0-7.2105688 1.757735-10.7179539 4.438109-10.8662345 8z" stroke="#000" stroke-width="2"/><path d="m180 115h23v30h-33v-20c0-5.522847 4.477153-10 10-10z" fill="#000" fill-rule="evenodd"/><path d="m171 144h31v-28h-22c-4.970563 0-9 4.029437-9 9z" stroke="#000" stroke-width="2"/><path d="m116 167.036656c15.363519-1.749881 25.95869-4.006836 31.785512-6.770863 5.826822-2.764028 13.325795-8.519292 22.496921-17.265793h32.717567v28.995372c0 5.522848-4.477153 10-10 10h-77" fill="#000" fill-rule="evenodd"/><path d="m117 167.928049v13.067323h76c4.970563 0 9-4.029437 9-9v-27.995372h-31.317655c-9.110021 8.658946-16.587676 14.37977-22.468246 17.169293-5.838769 2.769695-16.225948 5.011685-31.214092 6.758755z" stroke="#000" stroke-width="2"/><path d="m21 167h96v15h-96z" fill="#ccc" fill-rule="evenodd"/><path d="m22 168h94v13h-94z" stroke="#000" stroke-width="2"/><circle cx="187.5" cy="129.5" fill="#ccc" fill-rule="evenodd" r="14.5"/><circle cx="187.5" cy="129.5" r="13.5" stroke="#000" stroke-width="2"/><circle cx="188" cy="129.5" fill="#fff" fill-rule="evenodd" r="8"/><g stroke-width="2"><circle cx="188" cy="129.5" r="7" stroke="#000"/><path d="m128.5 45.5h28.504386" stroke="#00f" stroke-linecap="round" stroke-linejoin="round"/><path d="m128.5 51.5h52.5" stroke="#00f" stroke-linecap="round" stroke-linejoin="round"/><g stroke="#00f" stroke-linecap="round" stroke-linejoin="round" transform="translate(128 59)"><path d="m.5 1.5h41.5030119"/><path d="m.5 7.875h64.501938"/><path d="m.5 14.25h64.501938"/><path d="m32 20.625h33.001938"/><path d="m.5 20.625h24.5"/><path d="m.5 27h64.501938"/><path d="m47 33.375h18.001938"/><path d="m.5 33.375h41.5"/><path d="m.5 39.75h64.501938"/><path d="m14 46.125h51.001938"/><path d="m.5 46.125h8.5"/><path d="m.5 52.5h64.501938"/><path d="m48 1.5h17.0030119"/></g></g></g></svg>