<svg height="357" viewBox="0 0 401 357" width="401" xmlns="http://www.w3.org/2000/svg" xmlns:xlink="http://www.w3.org/1999/xlink"><mask id="a" fill="#fff"><path d="m.43217328 18.2590549c6.82247929 45.8703426 13.98084482 68.8055139 21.47509672 68.8055139 7.4942518 0 26.023602-28.8223417 55.5880506-86.467025z" fill="#fff" fill-rule="evenodd"/></mask><mask id="b" fill="#fff"><path d="m134.472863 0c-43.8243075 0-87.6486151 0-131.47292267 0-1.65685425 0-3 1.34314575-3 3l-.00000123 33c0 1.6568542 1.34314575 3 3 3h.00000123l117.34116767-.0000505c1.656853-.0000007 2.999998-1.3431463 2.999998-3 .000002-9.1147401.000002-18.2294801.000002-27.34422009 0-4.48676566 26.785028-8.65572941 11.131755-8.65572941z" fill="#fff" fill-rule="evenodd"/></mask><g fill="none" fill-rule="evenodd" transform="translate(0 -18)"><g stroke="#000" stroke-width="2"><path d="m1 40h379v334h-379z" fill="#c2ece3"/><path d="m117.554986 183.140002c-11.083421 34.758594-40.7427569 74.030452-88.9610435 117.859998h56.2947026c9.4923801-2.738665 22.8913639-12.050586 40.1113399-27.929226-.001852-27.390347-.179523-38.909963-1.064261-52.151652-1.054237-15.778571-3.059585-28.110673-6.380738-37.77912z" fill="#fff"/><path d="m1 293h379v81h-379z" fill="#ccc"/></g><path d="m190.085698 329c92.460604-3.083007 201.491413.072906 209.395137-41.593365 6.779727-35.740866-54.713873-161.724329-75.289493-173.620792-80.788902-46.7107268-181.75844-12.862739-199.234244 23.533681-11.650537 24.264279-10.507307 76.195319 3.429689 155.793119h153.88334c-30.385549 6.685904-61.144844 13.015384-92.277886 18.98844z" fill="#fff"/><path d="m290.895934 187c36.86846 46.824812 50.085729 76.358407 39.651806 88.600787-7.46568 8.759669-54.314927 20.89274-140.54774 36.399213" stroke="#000" stroke-linecap="round" stroke-linejoin="round" stroke-width="2"/><path d="m138.630221 354.599858c-5.842552-8.994786 5.575127-36.750626 9.816843-45.324035 7.141278-14.434039 11.697046-21.409308 14.680067-22.220705 5.288568-1.438517-10.465217 25.747711-7.973487 26.936774 6.035855-9.735983 11.631157-25.438115 16.804012-26.451307 5.172854-1.013192-13.731029 29.407472-10.186836 31.098775 3.512098-10.032319 15.292703-29.373862 16.180044-25.157893.887341 4.21597-10.477556 24.873755-15.167421 39.450041-.469732 6.703264 1.34767-2.252696 7.48146-10.238737 6.133789-7.986042.459172 17.682225-14.232398 33.936947-3.950439 4.370757-14.714274 2.108415-17.402284-2.02986z" fill="#00f" transform="matrix(-.42261826 -.90630779 .90630779 -.42261826 -68.675039 602.249175)"/><path d="m191.585975 328c92.460604-3.073218 199.991136.316949 207.89486-41.217018 6.779727-35.627377-54.713873-161.210803-75.289493-173.069491-80.788902-46.5624057-181.75844-12.821896-199.234244 23.458953-11.650537 24.187233-10.507307 75.953375 3.429689 155.298427h153.700017l.843863-.124434c-15.259388 3.770586-46.238863 10.121446-92.938426 19.05258" stroke="#000" stroke-linecap="round" stroke-linejoin="round" stroke-width="2"/><path d="m162.268727 108.220273-1.187285.220502c7.542615 47.051887 15.093339 70.883738 22.652169 71.495551.464731 1.18909.88686 2.193597 1.266389 3.013522-3.454945 9.945295-29.924009-18.398247-33-39.761574 4.926391-4.679757 4.926391-3.486905 8.249837-7.43167-3.421574-4.984214-4.403049-13.587677-2.944427-25.810388l4.628709-2.946216c.111904.408349.22344.815109.33461 1.220279z" fill="#fff" stroke="#000" stroke-width="2"/><path d="m176 189.500136c30.759254-24.464658 58.129492-97.058329 61.614824-98.0195337 2.323555-.6408031 5.78528-.6408031 10.385176 0-.124546 14.7465137-5.906658 29.4180157-17.346335 44.0145047-4.987009 6.363188.815427 4.190743 4.147421 16.17468-3.762287 9.387653-23.362649 21.99777-58.801086 37.830349.836227 33.531165 3.242458 68.031119 7.218691 103.499864" fill="#fff" stroke="#000" stroke-linecap="round" stroke-linejoin="round" stroke-width="2"/><path d="m161 109.293077c8.042815 45.804615 15.848086 68.706923 23.415812 68.706923 7.567727 0 26.429122-29.333333 56.584188-88z" fill="#d8d8d8"/><g transform="translate(162 91)"><path d="m-.69306112 17.4910125 80.05818202-18.34792007-.9800021 1.91080557c-29.949365 58.3951922-48.3457267 87.0106708-56.4778488 87.0106708-8.3543814 0-15.51682915-22.9482505-22.46421601-69.6583983z" stroke="#000" stroke-width="2"/><path d="m16.8857633 24.5635534c-.6369653 13.204252.0420541 21.6307448 2.0370581 25.2794783-1.8550868 11.9780785-4.5121383 27.7296797-7.9711547 47.2548036h19.6737803c-.9917523-25.4211847-1.8798341-40.6844429-2.6642453-45.7897747 2.9085304-4.1248168 5.7897145-13.0396525 8.6435521-26.7445072z" fill="#000" mask="url(#a)"/><path d="m5.34509496 55.9227681c6.71146604-13.4382008 13.18281294-21.994492 19.41404064-25.6688737 6.0685697 3.8003792 18.3565197 20.3811894 29.3936598 25.6688737 13.9573989-7.2083984 24.6056603-26.8111592 31.9447841-58.80828251l-93.21724952 12.89042941z" fill="#fff" mask="url(#a)" stroke="#000" stroke-width="2"/></g><g transform="translate(130 79)"><ellipse cx="14.134588" cy="126.2755" fill="#000" rx="7.956181" ry="13.160717" transform="matrix(.93969262 .34202014 -.34202014 .93969262 44.041185 2.781031)"/><ellipse cx="12.620178" cy="124.688961" fill="#ccc" rx="7.956181" ry="13.160717" transform="matrix(.93969262 .34202014 -.34202014 .93969262 43.407226 3.203309)"/><g stroke-linecap="round"><path d="m73.698342 158.126395c-5.3477534-3.631095-3.0540323-32.667838 4.5570243-58.8124734 7.0734996-24.2980807 18.7397495-46.098157 33.1330997-42.6848424 14.571829 3.4556402 12.015667 29.2855162 3.999013 54.4019438-8.422045 26.386529-22.8708041 51.985629-29.817736 50.026983" stroke="#ccc" stroke-width="5"/><path d="m79.8949572 94.1333771c9.0480157-23.7410322 17.8770422-40.8061067 31.4935088-37.5042979 13.616466 3.3018088 12.311766 24.5676482 5.566151 49.3424168" stroke="#000" stroke-width="10"/><path d="m11.4480903 121.622451c4.7566395-81.0816341 26.333352-121.622451 64.7301376-121.622451 38.3967851 0 50.5945051 17.9993911 36.5931571 53.9981734" stroke="#000" stroke-linejoin="round" stroke-width="10"/></g><rect fill="#ccc" height="6.891597" rx="3.445799" transform="matrix(.98480775 .17364818 -.17364818 .98480775 28.739144 -10.696137)" width="8.970388" x="71.013083" y="155.451091"/><rect fill="#ccc" height="6.891597" rx="3.445799" transform="matrix(.93969262 .34202014 -.34202014 .93969262 59.594305 -18.910936)" width="8.970388" x="78.936581" y="156.086783"/></g><path d="m164.542723 111.686394c-8.945978-20.2343409-16.702928-80.8674254 18.725553-92.3505693 35.428481-11.48314388 61.725569 54.264015 55.928636 74.9768295-4.164491 14.8799958-34.552433 28.5086438-55.928636 27.6487138-8.37927-.337085-16.441817-5.109536-18.725553-10.274974z" fill="#00f"/><path d="m145.472863 103c-43.824307 0-87.6486151 0-131.4729227 0-1.6568542 0-3 1.343146-3 3l-.0000012 33c0 1.656854 1.3431457 3 3 3h.0000012l117.3411677-.000051c1.656853 0 2.999998-1.343146 2.999998-3 .000002-9.11474.000002-18.22948.000002-27.34422 0-4.486765 26.785028-8.655729 11.131755-8.655729z" fill="#fff"/><g transform="translate(11 103)"><path d="m134.472863-1c2.433839 0 3.933438.09672679 4.723766.31647646.751146.20885506 1.27287.60181344 1.17752 1.41431474-.066193.5640509-.404386.87484425-.981382 1.20282212-.605692.34428972-1.562067.71931269-3.188379 1.28131246-.200655.06933993-3.49025 1.18084467-4.509451 1.54118365-2.3561.83299979-4.090021 1.54288588-5.370334 2.23790897-1.33198.72307087-1.983495 1.35374472-1.983495 1.66171101 0 13.67211009 0 13.67211009-.000002 27.34422009 0 2.2091383-1.79086 3.999999-3.999998 4l-117.3411689.0000505c-2.209139 0-4-1.790861-4-4l.00000123-33c0-2.209139 1.790861-4 4-4z" stroke="#000" stroke-width="2"/><path d="m-57.138-3.47h-3.08l-1.414 8.47h-1.54l1.414-8.47h-3.08l.224-1.302h7.7zm.168 8.47 1.722-10.36h1.498l-.812 4.844h.07c.532-1.148 1.218-1.876 2.38-1.876 1.288 0 1.96.854 1.96 2.086 0 .336-.028.672-.112 1.162l-.686 4.144h-1.498l.7-4.2c.042-.252.084-.574.084-.812 0-.658-.308-1.162-1.05-1.162-.56 0-.994.28-1.358.728-.182.224-.63.826-.756 1.582l-.644 3.864zm11.676.168c-1.96 0-2.982-1.078-2.982-3.094 0-2.646 1.666-4.466 4.088-4.466 1.442 0 2.548.672 2.548 1.96 0 1.078-.7 2.338-5.11 2.478-.014.126-.014.238-.014.28 0 .91.35 1.638 1.638 1.638.938 0 1.47-.378 2.254-1.442l.98.63c-.784 1.218-1.75 2.016-3.402 2.016zm.966-6.426c-1.218 0-2.044.728-2.282 2.212l-.028.154c3.136-.126 3.514-.84 3.514-1.442 0-.532-.336-.924-1.204-.924zm7.336 6.258h-1.498l.994-6.006h-1.862l.21-1.218h3.36l-.35 2.044h.084c.546-1.246 1.316-2.044 2.716-2.044h.84l-.252 1.498h-1.26c-.798 0-1.274.21-1.666.686-.182.224-.602.756-.714 1.428zm8.498.168c-1.96 0-2.982-1.078-2.982-3.094 0-2.646 1.666-4.466 4.088-4.466 1.442 0 2.548.672 2.548 1.96 0 1.078-.7 2.338-5.11 2.478-.014.126-.014.238-.014.28 0 .91.35 1.638 1.638 1.638.938 0 1.47-.378 2.254-1.442l.98.63c-.784 1.218-1.75 2.016-3.402 2.016zm.966-6.426c-1.218 0-2.044.728-2.282 2.212l-.028.154c3.136-.126 3.514-.84 3.514-1.442 0-.532-.336-.924-1.204-.924zm18.564 6.258h-1.498l.28-1.708h-.056c-.546 1.12-1.232 1.876-2.492 1.876-1.484 0-2.198-1.022-2.198-2.8 0-2.324 1.064-4.76 3.388-4.76 1.092 0 1.736.518 2.002 1.47h.07l.21-1.302h1.498zm-3.164-1.05c.56 0 1.05-.252 1.484-.756.308-.35.63-.882.742-1.554l.238-1.442c.14-.84-.406-1.372-1.414-1.372-1.246 0-1.918.84-2.114 2.016l-.168.994c-.028.168-.056.392-.056.602 0 .91.406 1.512 1.288 1.512zm8.736 1.05h-1.498l.994-6.006h-1.862l.21-1.218h3.36l-.35 2.044h.084c.546-1.246 1.316-2.044 2.716-2.044h.84l-.252 1.498h-1.26c-.798 0-1.274.21-1.666.686-.182.224-.602.756-.714 1.428zm8.498.168c-1.96 0-2.982-1.078-2.982-3.094 0-2.646 1.666-4.466 4.088-4.466 1.442 0 2.548.672 2.548 1.96 0 1.078-.7 2.338-5.11 2.478-.014.126-.014.238-.014.28 0 .91.35 1.638 1.638 1.638.938 0 1.47-.378 2.254-1.442l.98.63c-.784 1.218-1.75 2.016-3.402 2.016zm.966-6.426c-1.218 0-2.044.728-2.282 2.212l-.028.154c3.136-.126 3.514-.84 3.514-1.442 0-.532-.336-.924-1.204-.924zm15.624 6.426c-1.414 0-2.492-.462-3.066-1.288l.952-.84c.504.644 1.232.98 2.226.98 1.092 0 1.764-.406 1.764-1.134 0-.56-.392-.728-.91-.812l-1.05-.182c-1.064-.196-2.058-.602-2.058-1.918 0-1.568 1.386-2.366 3.164-2.366 1.274 0 2.254.406 2.786 1.064l-.924.882c-.28-.392-.91-.798-1.946-.798s-1.61.392-1.61 1.064c0 .574.42.714.938.812l1.05.196c1.036.196 2.044.546 2.044 1.862 0 1.54-1.33 2.478-3.36 2.478zm8.61 0c-1.96 0-2.982-1.078-2.982-3.094 0-2.646 1.666-4.466 4.088-4.466 1.442 0 2.548.672 2.548 1.96 0 1.078-.7 2.338-5.11 2.478-.014.126-.014.238-.014.28 0 .91.35 1.638 1.638 1.638.938 0 1.47-.378 2.254-1.442l.98.63c-.784 1.218-1.75 2.016-3.402 2.016zm.966-6.426c-1.218 0-2.044.728-2.282 2.212l-.028.154c3.136-.126 3.514-.84 3.514-1.442 0-.532-.336-.924-1.204-.924zm4.48-.966h2.87l-.938 6.16.182.112c2.086-.434 3.066-2.296 3.066-4.13 0-.63-.154-1.274-.434-1.806l1.372-.462c.378.574.574 1.358.574 2.226 0 2.912-2.268 5.264-4.802 5.264-.924 0-1.372-.504-1.372-1.316 0-.21.014-.392.056-.658l.644-4.172h-1.414zm11.354 7.392c-1.96 0-2.982-1.078-2.982-3.094 0-2.646 1.666-4.466 4.088-4.466 1.442 0 2.548.672 2.548 1.96 0 1.078-.7 2.338-5.11 2.478-.014.126-.014.238-.014.28 0 .91.35 1.638 1.638 1.638.938 0 1.47-.378 2.254-1.442l.98.63c-.784 1.218-1.75 2.016-3.402 2.016zm.966-6.426c-1.218 0-2.044.728-2.282 2.212l-.028.154c3.136-.126 3.514-.84 3.514-1.442 0-.532-.336-.924-1.204-.924zm7.336 6.258h-1.498l.994-6.006h-1.862l.21-1.218h3.36l-.35 2.044h.084c.546-1.246 1.316-2.044 2.716-2.044h.84l-.252 1.498h-1.26c-.798 0-1.274.21-1.666.686-.182.224-.602.756-.714 1.428zm11.228 0h-1.498l.28-1.708h-.056c-.546 1.12-1.232 1.876-2.492 1.876-1.484 0-2.198-1.022-2.198-2.8 0-2.324 1.064-4.76 3.388-4.76 1.092 0 1.736.518 2.002 1.47h.07l.21-1.302h1.498zm-3.164-1.05c.56 0 1.05-.252 1.484-.756.308-.35.63-.882.742-1.554l.238-1.442c.14-.84-.406-1.372-1.414-1.372-1.246 0-1.918.84-2.114 2.016l-.168.994c-.028.168-.056.392-.056.602 0 .91.406 1.512 1.288 1.512zm8.54 1.218c-.924 0-1.33-.518-1.33-1.288 0-.196.028-.434.084-.728l1.4-7.294h-2.38l.21-1.218h3.906l-1.778 9.212.294.098 2.492-2.254.84.77-1.204 1.176c-1.19 1.162-1.806 1.526-2.534 1.526zm16.758 0c-.896 0-1.344-.518-1.344-1.358 0-.168.042-.42.084-.672l.686-4.144h-1.988l.196-1.218h1.344c.532 0 .77-.182.868-.728l.308-1.82h1.4l-.42 2.548h2.912l-.196 1.218h-2.926l-.798 4.788.28.14 2.744-1.946.742.896-1.274.952c-1.26.966-1.862 1.344-2.618 1.344zm7.784 2.8c-1.246 0-2.114-.294-2.716-1.022l.952-.952c.406.504.994.756 1.778.756 1.204 0 1.932-.546 2.198-2.184l.238-1.498h-.056c-.532 1.148-1.218 1.876-2.38 1.876-1.288 0-1.96-.854-1.96-2.086 0-.336.028-.672.112-1.162l.644-3.92h1.498l-.658 3.976c-.042.252-.084.574-.084.812 0 .658.308 1.162 1.05 1.162.56 0 .994-.28 1.358-.728.182-.224.63-.826.756-1.582l.602-3.64h1.498l-1.176 7.028c-.364 2.212-1.708 3.164-3.654 3.164zm5.544-.168 1.666-10.024h1.498l-.28 1.708h.056c.546-1.12 1.232-1.876 2.492-1.876 1.484 0 2.198 1.022 2.198 2.8 0 2.324-1.064 4.76-3.388 4.76-1.092 0-1.736-.518-2.002-1.47h-.07l-.672 4.102zm3.78-3.85c1.246 0 1.918-.84 2.114-2.016l.168-.994c.028-.168.056-.392.056-.602 0-.91-.406-1.512-1.288-1.512-.56 0-1.05.252-1.484.756-.308.35-.63.882-.742 1.554l-.238 1.442c-.14.84.406 1.372 1.414 1.372zm8.428 1.218c-1.96 0-2.982-1.078-2.982-3.094 0-2.646 1.666-4.466 4.088-4.466 1.442 0 2.548.672 2.548 1.96 0 1.078-.7 2.338-5.11 2.478-.014.126-.014.238-.014.28 0 .91.35 1.638 1.638 1.638.938 0 1.47-.378 2.254-1.442l.98.63c-.784 1.218-1.75 2.016-3.402 2.016zm.966-6.426c-1.218 0-2.044.728-2.282 2.212l-.028.154c3.136-.126 3.514-.84 3.514-1.442 0-.532-.336-.924-1.204-.924zm7.224 6.426c-1.414 0-2.492-.462-3.066-1.288l.952-.84c.504.644 1.232.98 2.226.98 1.092 0 1.764-.406 1.764-1.134 0-.56-.392-.728-.91-.812l-1.05-.182c-1.064-.196-2.058-.602-2.058-1.918 0-1.568 1.386-2.366 3.164-2.366 1.274 0 2.254.406 2.786 1.064l-.924.882c-.28-.392-.91-.798-1.946-.798s-1.61.392-1.61 1.064c0 .574.42.714.938.812l1.05.196c1.036.196 2.044.546 2.044 1.862 0 1.54-1.33 2.478-3.36 2.478zm16.814 0c-1.89 0-2.94-1.232-2.94-3.08 0-2.758 1.666-4.48 3.92-4.48 1.89 0 2.94 1.232 2.94 3.08 0 2.758-1.666 4.48-3.92 4.48zm.098-1.19c1.162 0 1.89-.77 2.1-2.03l.154-.924c.042-.266.07-.49.07-.658 0-1.064-.602-1.568-1.54-1.568-1.162 0-1.89.77-2.1 2.03l-.154.924c-.042.266-.07.49-.07.658 0 1.064.602 1.568 1.54 1.568zm7.224 3.99c-.798 0-1.246-.546-2.212-1.694l-.728-.882 1.022-.798 1.834 2.128.224-.056 1.274-7.672h-2.436l.196-1.218h2.436l.224-1.344c.168-1.008.84-1.792 2.128-1.792h2.45l-.196 1.218h-2.786l-.322 1.918h2.8l-.196 1.218h-2.8l-1.204 7.21c-.182 1.092-.714 1.764-1.708 1.764zm-208.824 15.032h-1.498l.994-6.006h-1.862l.21-1.218h3.36l-.35 2.044h.084c.546-1.246 1.316-2.044 2.716-2.044h.84l-.252 1.498h-1.26c-.798 0-1.274.21-1.666.686-.182.224-.602.756-.714 1.428zm8.498.168c-1.96 0-2.982-1.078-2.982-3.094 0-2.646 1.666-4.466 4.088-4.466 1.442 0 2.548.672 2.548 1.96 0 1.078-.7 2.338-5.11 2.478-.014.126-.014.238-.014.28 0 .91.35 1.638 1.638 1.638.938 0 1.47-.378 2.254-1.442l.98.63c-.784 1.218-1.75 2.016-3.402 2.016zm.966-6.426c-1.218 0-2.044.728-2.282 2.212l-.028.154c3.136-.126 3.514-.84 3.514-1.442 0-.532-.336-.924-1.204-.924zm7.322 6.426c-1.862 0-2.856-1.19-2.856-3.052 0-2.632 1.568-4.508 3.85-4.508 1.582 0 2.366.77 2.632 1.778l-1.246.546c-.238-.77-.672-1.078-1.526-1.078-1.022 0-1.764.658-1.988 2.002l-.14.84c-.042.252-.056.462-.056.658 0 1.036.56 1.568 1.554 1.568.616 0 1.162-.182 2.254-1.666l.994.616c-.938 1.484-1.862 2.296-3.472 2.296zm8.316 0c-1.89 0-2.94-1.232-2.94-3.08 0-2.758 1.666-4.48 3.92-4.48 1.89 0 2.94 1.232 2.94 3.08 0 2.758-1.666 4.48-3.92 4.48zm.098-1.19c1.162 0 1.89-.77 2.1-2.03l.154-.924c.042-.266.07-.49.07-.658 0-1.064-.602-1.568-1.54-1.568-1.162 0-1.89.77-2.1 2.03l-.154.924c-.042.266-.07.49-.07.658 0 1.064.602 1.568 1.54 1.568zm6.72 1.022h-1.498l1.204-7.224h1.498l-.294 1.708h.07c.532-1.148 1.218-1.876 2.38-1.876 1.288 0 1.96.854 1.96 2.086 0 .336-.028.672-.112 1.162l-.686 4.144h-1.498l.7-4.2c.042-.252.084-.574.084-.812 0-.658-.308-1.162-1.05-1.162-.56 0-.994.28-1.358.728-.182.224-.63.826-.756 1.582zm9.968.168c-1.414 0-2.492-.462-3.066-1.288l.952-.84c.504.644 1.232.98 2.226.98 1.092 0 1.764-.406 1.764-1.134 0-.56-.392-.728-.91-.812l-1.05-.182c-1.064-.196-2.058-.602-2.058-1.918 0-1.568 1.386-2.366 3.164-2.366 1.274 0 2.254.406 2.786 1.064l-.924.882c-.28-.392-.91-.798-1.946-.798s-1.61.392-1.61 1.064c0 .574.42.714.938.812l1.05.196c1.036.196 2.044.546 2.044 1.862 0 1.54-1.33 2.478-3.36 2.478zm8.274 0c-.896 0-1.344-.518-1.344-1.358 0-.168.042-.42.084-.672l.686-4.144h-1.988l.196-1.218h1.344c.532 0 .77-.182.868-.728l.308-1.82h1.4l-.42 2.548h2.912l-.196 1.218h-2.926l-.798 4.788.28.14 2.744-1.946.742.896-1.274.952c-1.26.966-1.862 1.344-2.618 1.344zm8.638-.168h-1.498l.994-6.006h-1.862l.21-1.218h3.36l-.35 2.044h.084c.546-1.246 1.316-2.044 2.716-2.044h.84l-.252 1.498h-1.26c-.798 0-1.274.21-1.666.686-.182.224-.602.756-.714 1.428zm9.674 0 .294-1.708h-.07c-.532 1.148-1.218 1.876-2.38 1.876-1.288 0-1.96-.854-1.96-2.086 0-.336.028-.672.112-1.162l.686-4.144h1.498l-.7 4.2c-.042.252-.084.574-.084.812 0 .658.308 1.162 1.05 1.162.56 0 .994-.28 1.358-.728.182-.224.63-.826.756-1.582l.644-3.864h1.498l-1.204 7.224zm7.112.168c-1.862 0-2.856-1.19-2.856-3.052 0-2.632 1.568-4.508 3.85-4.508 1.582 0 2.366.77 2.632 1.778l-1.246.546c-.238-.77-.672-1.078-1.526-1.078-1.022 0-1.764.658-1.988 2.002l-.14.84c-.042.252-.056.462-.056.658 0 1.036.56 1.568 1.554 1.568.616 0 1.162-.182 2.254-1.666l.994.616c-.938 1.484-1.862 2.296-3.472 2.296zm8.176 0c-.896 0-1.344-.518-1.344-1.358 0-.168.042-.42.084-.672l.686-4.144h-1.988l.196-1.218h1.344c.532 0 .77-.182.868-.728l.308-1.82h1.4l-.42 2.548h2.912l-.196 1.218h-2.926l-.798 4.788.28.14 2.744-1.946.742.896-1.274.952c-1.26.966-1.862 1.344-2.618 1.344zm9.59-8.722c-.714 0-.952-.308-.952-.686 0-.112.028-.266.056-.434.084-.504.378-.812 1.092-.812s.952.308.952.686c0 .112-.028.266-.056.434-.084.504-.378.812-1.092.812zm-.812 8.722c-.882 0-1.344-.518-1.344-1.26 0-.238.042-.462.098-.798l.798-4.116h-2.436l.196-1.218h3.962l-1.176 6.062.28.112 2.422-2.226.854.77-1.092 1.092c-1.162 1.162-1.792 1.582-2.562 1.582zm5.404-7.392h2.87l-.938 6.16.182.112c2.086-.434 3.066-2.296 3.066-4.13 0-.63-.154-1.274-.434-1.806l1.372-.462c.378.574.574 1.358.574 2.226 0 2.912-2.268 5.264-4.802 5.264-.924 0-1.372-.504-1.372-1.316 0-.21.014-.392.056-.658l.644-4.172h-1.414zm11.354 7.392c-1.96 0-2.982-1.078-2.982-3.094 0-2.646 1.666-4.466 4.088-4.466 1.442 0 2.548.672 2.548 1.96 0 1.078-.7 2.338-5.11 2.478-.014.126-.014.238-.014.28 0 .91.35 1.638 1.638 1.638.938 0 1.47-.378 2.254-1.442l.98.63c-.784 1.218-1.75 2.016-3.402 2.016zm.966-6.426c-1.218 0-2.044.728-2.282 2.212l-.028.154c3.136-.126 3.514-.84 3.514-1.442 0-.532-.336-.924-1.204-.924zm15.624 6.426c-1.414 0-2.492-.462-3.066-1.288l.952-.84c.504.644 1.232.98 2.226.98 1.092 0 1.764-.406 1.764-1.134 0-.56-.392-.728-.91-.812l-1.05-.182c-1.064-.196-2.058-.602-2.058-1.918 0-1.568 1.386-2.366 3.164-2.366 1.274 0 2.254.406 2.786 1.064l-.924.882c-.28-.392-.91-.798-1.946-.798s-1.61.392-1.61 1.064c0 .574.42.714.938.812l1.05.196c1.036.196 2.044.546 2.044 1.862 0 1.54-1.33 2.478-3.36 2.478zm9.786-.168.294-1.708h-.07c-.532 1.148-1.218 1.876-2.38 1.876-1.288 0-1.96-.854-1.96-2.086 0-.336.028-.672.112-1.162l.686-4.144h1.498l-.7 4.2c-.042.252-.084.574-.084.812 0 .658.308 1.162 1.05 1.162.56 0 .994-.28 1.358-.728.182-.224.63-.826.756-1.582l.644-3.864h1.498l-1.204 7.224zm7.126 0h-1.498l.994-6.006h-1.862l.21-1.218h3.36l-.35 2.044h.084c.546-1.246 1.316-2.044 2.716-2.044h.84l-.252 1.498h-1.26c-.798 0-1.274.21-1.666.686-.182.224-.602.756-.714 1.428zm7.616 2.968c-1.232 0-2.1-.294-2.716-1.022l.952-.952c.406.504.994.756 1.778.756 1.162 0 1.89-.476 2.17-2.156l.266-1.568h-.07c-.546 1.148-1.232 1.89-2.492 1.89-1.512 0-2.212-1.078-2.212-2.772 0-2.184 1.05-4.536 3.346-4.536 1.106 0 1.75.518 2.016 1.47h.07l.21-1.302h1.498l-1.162 6.972c-.378 2.268-1.708 3.22-3.654 3.22zm.49-4.284c.56 0 1.022-.238 1.47-.742.252-.28.63-.784.756-1.526l.196-1.19c.14-.854-.406-1.4-1.414-1.4-1.232 0-1.904.826-2.114 2.03l-.112.672c-.028.224-.056.42-.056.658 0 .924.392 1.498 1.274 1.498zm8.792 1.484c-1.96 0-2.982-1.078-2.982-3.094 0-2.646 1.666-4.466 4.088-4.466 1.442 0 2.548.672 2.548 1.96 0 1.078-.7 2.338-5.11 2.478-.014.126-.014.238-.014.28 0 .91.35 1.638 1.638 1.638.938 0 1.47-.378 2.254-1.442l.98.63c-.784 1.218-1.75 2.016-3.402 2.016zm.966-6.426c-1.218 0-2.044.728-2.282 2.212l-.028.154c3.136-.126 3.514-.84 3.514-1.442 0-.532-.336-.924-1.204-.924zm7.336 6.258h-1.498l.994-6.006h-1.862l.21-1.218h3.36l-.35 2.044h.084c.546-1.246 1.316-2.044 2.716-2.044h.84l-.252 1.498h-1.26c-.798 0-1.274.21-1.666.686-.182.224-.602.756-.714 1.428zm7.546 2.968c-1.246 0-2.114-.294-2.716-1.022l.952-.952c.406.504.994.756 1.778.756 1.204 0 1.932-.546 2.198-2.184l.238-1.498h-.056c-.532 1.148-1.218 1.876-2.38 1.876-1.288 0-1.96-.854-1.96-2.086 0-.336.028-.672.112-1.162l.644-3.92h1.498l-.658 3.976c-.042.252-.084.574-.084.812 0 .658.308 1.162 1.05 1.162.56 0 .994-.28 1.358-.728.182-.224.63-.826.756-1.582l.602-3.64h1.498l-1.176 7.028c-.364 2.212-1.708 3.164-3.654 3.164zm20.482-2.968h-1.498l.28-1.708h-.056c-.546 1.12-1.232 1.876-2.492 1.876-1.484 0-2.198-1.022-2.198-2.8 0-2.324 1.064-4.76 3.388-4.76 1.092 0 1.736.518 2.002 1.47h.07l.21-1.302h1.498zm-3.164-1.05c.56 0 1.05-.252 1.484-.756.308-.35.63-.882.742-1.554l.238-1.442c.14-.84-.406-1.372-1.414-1.372-1.246 0-1.918.84-2.114 2.016l-.168.994c-.028.168-.056.392-.056.602 0 .91.406 1.512 1.288 1.512zm5.88-6.174h2.87l-.938 6.16.182.112c2.086-.434 3.066-2.296 3.066-4.13 0-.63-.154-1.274-.434-1.806l1.372-.462c.378.574.574 1.358.574 2.226 0 2.912-2.268 5.264-4.802 5.264-.924 0-1.372-.504-1.372-1.316 0-.21.014-.392.056-.658l.644-4.172h-1.414zm14.084 7.224h-1.498l.28-1.708h-.056c-.546 1.12-1.232 1.876-2.492 1.876-1.484 0-2.198-1.022-2.198-2.8 0-2.324 1.064-4.76 3.388-4.76 1.092 0 1.736.518 2.002 1.47h.07l.21-1.302h1.498zm-3.164-1.05c.56 0 1.05-.252 1.484-.756.308-.35.63-.882.742-1.554l.238-1.442c.14-.84-.406-1.372-1.414-1.372-1.246 0-1.918.84-2.114 2.016l-.168.994c-.028.168-.056.392-.056.602 0 .91.406 1.512 1.288 1.512zm9.688-7.504c-.714 0-.952-.308-.952-.686 0-.112.028-.266.056-.434.084-.504.378-.812 1.092-.812s.952.308.952.686c0 .112-.028.266-.056.434-.084.504-.378.812-1.092.812zm-.812 8.722c-.882 0-1.344-.518-1.344-1.26 0-.238.042-.462.098-.798l.798-4.116h-2.436l.196-1.218h3.962l-1.176 6.062.28.112 2.422-2.226.854.77-1.092 1.092c-1.162 1.162-1.792 1.582-2.562 1.582zm8.064 0c-.924 0-1.33-.518-1.33-1.288 0-.196.028-.434.084-.728l1.4-7.294h-2.38l.21-1.218h3.906l-1.778 9.212.294.098 2.492-2.254.84.77-1.204 1.176c-1.19 1.162-1.806 1.526-2.534 1.526zm11.424-.168h-1.498l.28-1.708h-.056c-.546 1.12-1.232 1.876-2.492 1.876-1.484 0-2.198-1.022-2.198-2.8 0-2.324 1.064-4.76 3.388-4.76 1.092 0 1.736.518 2.002 1.47h.07l.21-1.302h1.498zm-3.164-1.05c.56 0 1.05-.252 1.484-.756.308-.35.63-.882.742-1.554l.238-1.442c.14-.84-.406-1.372-1.414-1.372-1.246 0-1.918.84-2.114 2.016l-.168.994c-.028.168-.056.392-.056.602 0 .91.406 1.512 1.288 1.512zm5.488 1.05 1.722-10.36h1.498l-.798 4.844h.056c.546-1.12 1.232-1.876 2.492-1.876 1.484 0 2.198 1.022 2.198 2.8 0 2.324-1.064 4.76-3.388 4.76-1.092 0-1.736-.518-2.002-1.47h-.07l-.21 1.302zm3.318-1.05c1.246 0 1.918-.84 2.114-2.016l.168-.994c.028-.168.056-.392.056-.602 0-.91-.406-1.512-1.288-1.512-.56 0-1.05.252-1.484.756-.308.35-.63.882-.742 1.554l-.238 1.442c-.14.84.406 1.372 1.414 1.372zm8.134 1.218c-.924 0-1.33-.518-1.33-1.288 0-.196.028-.434.084-.728l1.4-7.294h-2.38l.21-1.218h3.906l-1.778 9.212.294.098 2.492-2.254.84.77-1.204 1.176c-1.19 1.162-1.806 1.526-2.534 1.526zm8.694 0c-1.96 0-2.982-1.078-2.982-3.094 0-2.646 1.666-4.466 4.088-4.466 1.442 0 2.548.672 2.548 1.96 0 1.078-.7 2.338-5.11 2.478-.014.126-.014.238-.014.28 0 .91.35 1.638 1.638 1.638.938 0 1.47-.378 2.254-1.442l.98.63c-.784 1.218-1.75 2.016-3.402 2.016zm.966-6.426c-1.218 0-2.044.728-2.282 2.212l-.028.154c3.136-.126 3.514-.84 3.514-1.442 0-.532-.336-.924-1.204-.924zm5.25 8.288 1.442-4.144h2.128l-2.366 4.144zm-263.886 15.97h-1.498l.28-1.708h-.056c-.546 1.12-1.232 1.876-2.492 1.876-1.484 0-2.198-1.022-2.198-2.8 0-2.324 1.064-4.76 3.388-4.76 1.092 0 1.736.518 2.002 1.47h.07l.21-1.302h1.498zm-3.164-1.05c.56 0 1.05-.252 1.484-.756.308-.35.63-.882.742-1.554l.238-1.442c.14-.84-.406-1.372-1.414-1.372-1.246 0-1.918.84-2.114 2.016l-.168.994c-.028.168-.056.392-.056.602 0 .91.406 1.512 1.288 1.512zm7.056 1.05h-1.498l1.204-7.224h1.498l-.294 1.708h.07c.532-1.148 1.218-1.876 2.38-1.876 1.288 0 1.96.854 1.96 2.086 0 .336-.028.672-.112 1.162l-.686 4.144h-1.498l.7-4.2c.042-.252.084-.574.084-.812 0-.658-.308-1.162-1.05-1.162-.56 0-.994.28-1.358.728-.182.224-.63.826-.756 1.582zm11.41 0 .28-1.708h-.056c-.546 1.12-1.232 1.876-2.492 1.876-1.484 0-2.198-1.022-2.198-2.8 0-2.324 1.064-4.76 3.388-4.76 1.092 0 1.736.518 2.002 1.47h.07l.728-4.438h1.498l-1.722 10.36zm-1.666-1.05c.56 0 1.05-.252 1.484-.756.308-.35.63-.882.742-1.554l.238-1.442c.14-.84-.406-1.372-1.414-1.372-1.246 0-1.918.84-2.114 2.016l-.168.994c-.028.168-.056.392-.056.602 0 .91.406 1.512 1.288 1.512zm17.024 1.218c-1.414 0-2.492-.462-3.066-1.288l.952-.84c.504.644 1.232.98 2.226.98 1.092 0 1.764-.406 1.764-1.134 0-.56-.392-.728-.91-.812l-1.05-.182c-1.064-.196-2.058-.602-2.058-1.918 0-1.568 1.386-2.366 3.164-2.366 1.274 0 2.254.406 2.786 1.064l-.924.882c-.28-.392-.91-.798-1.946-.798s-1.61.392-1.61 1.064c0 .574.42.714.938.812l1.05.196c1.036.196 2.044.546 2.044 1.862 0 1.54-1.33 2.478-3.36 2.478zm8.414 0c-1.89 0-2.94-1.232-2.94-3.08 0-2.758 1.666-4.48 3.92-4.48 1.89 0 2.94 1.232 2.94 3.08 0 2.758-1.666 4.48-3.92 4.48zm.098-1.19c1.162 0 1.89-.77 2.1-2.03l.154-.924c.042-.266.07-.49.07-.658 0-1.064-.602-1.568-1.54-1.568-1.162 0-1.89.77-2.1 2.03l-.154.924c-.042.266-.07.49-.07.658 0 1.064.602 1.568 1.54 1.568zm5.894 1.022h-1.274l1.204-7.224h1.274l-.196 1.19h.07c.336-.784.798-1.358 1.582-1.358s1.176.546 1.106 1.4h.056c.35-.826.882-1.4 1.736-1.4.812 0 1.246.49 1.246 1.372 0 .28-.042.728-.098 1.064l-.826 4.956h-1.274l.798-4.774c.042-.252.084-.602.084-.784 0-.448-.196-.686-.546-.686-.322 0-.588.182-.798.518s-.392.756-.462 1.176l-.756 4.55h-1.274l.812-4.844c.042-.252.07-.49.07-.7 0-.49-.168-.7-.504-.7-.322 0-.588.168-.826.518s-.364.756-.434 1.106zm11.004.168c-1.96 0-2.982-1.078-2.982-3.094 0-2.646 1.666-4.466 4.088-4.466 1.442 0 2.548.672 2.548 1.96 0 1.078-.7 2.338-5.11 2.478-.014.126-.014.238-.014.28 0 .91.35 1.638 1.638 1.638.938 0 1.47-.378 2.254-1.442l.98.63c-.784 1.218-1.75 2.016-3.402 2.016zm.966-6.426c-1.218 0-2.044.728-2.282 2.212l-.028.154c3.136-.126 3.514-.84 3.514-1.442 0-.532-.336-.924-1.204-.924zm7.098 6.426c-.896 0-1.344-.518-1.344-1.358 0-.168.042-.42.084-.672l.686-4.144h-1.988l.196-1.218h1.344c.532 0 .77-.182.868-.728l.308-1.82h1.4l-.42 2.548h2.912l-.196 1.218h-2.926l-.798 4.788.28.14 2.744-1.946.742.896-1.274.952c-1.26.966-1.862 1.344-2.618 1.344zm9.59-8.722c-.714 0-.952-.308-.952-.686 0-.112.028-.266.056-.434.084-.504.378-.812 1.092-.812s.952.308.952.686c0 .112-.028.266-.056.434-.084.504-.378.812-1.092.812zm-.812 8.722c-.882 0-1.344-.518-1.344-1.26 0-.238.042-.462.098-.798l.798-4.116h-2.436l.196-1.218h3.962l-1.176 6.062.28.112 2.422-2.226.854.77-1.092 1.092c-1.162 1.162-1.792 1.582-2.562 1.582zm5.754-.168h-1.274l1.204-7.224h1.274l-.196 1.19h.07c.336-.784.798-1.358 1.582-1.358s1.176.546 1.106 1.4h.056c.35-.826.882-1.4 1.736-1.4.812 0 1.246.49 1.246 1.372 0 .28-.042.728-.098 1.064l-.826 4.956h-1.274l.798-4.774c.042-.252.084-.602.084-.784 0-.448-.196-.686-.546-.686-.322 0-.588.182-.798.518s-.392.756-.462 1.176l-.756 4.55h-1.274l.812-4.844c.042-.252.07-.49.07-.7 0-.49-.168-.7-.504-.7-.322 0-.588.168-.826.518s-.364.756-.434 1.106zm11.004.168c-1.96 0-2.982-1.078-2.982-3.094 0-2.646 1.666-4.466 4.088-4.466 1.442 0 2.548.672 2.548 1.96 0 1.078-.7 2.338-5.11 2.478-.014.126-.014.238-.014.28 0 .91.35 1.638 1.638 1.638.938 0 1.47-.378 2.254-1.442l.98.63c-.784 1.218-1.75 2.016-3.402 2.016zm.966-6.426c-1.218 0-2.044.728-2.282 2.212l-.028.154c3.136-.126 3.514-.84 3.514-1.442 0-.532-.336-.924-1.204-.924zm7.224 6.426c-1.414 0-2.492-.462-3.066-1.288l.952-.84c.504.644 1.232.98 2.226.98 1.092 0 1.764-.406 1.764-1.134 0-.56-.392-.728-.91-.812l-1.05-.182c-1.064-.196-2.058-.602-2.058-1.918 0-1.568 1.386-2.366 3.164-2.366 1.274 0 2.254.406 2.786 1.064l-.924.882c-.28-.392-.91-.798-1.946-.798s-1.61.392-1.61 1.064c0 .574.42.714.938.812l1.05.196c1.036.196 2.044.546 2.044 1.862 0 1.54-1.33 2.478-3.36 2.478zm16.674 0c-.896 0-1.344-.518-1.344-1.358 0-.168.042-.42.084-.672l.686-4.144h-1.988l.196-1.218h1.344c.532 0 .77-.182.868-.728l.308-1.82h1.4l-.42 2.548h2.912l-.196 1.218h-2.926l-.798 4.788.28.14 2.744-1.946.742.896-1.274.952c-1.26.966-1.862 1.344-2.618 1.344zm5.46-.168 1.722-10.36h1.498l-.812 4.844h.07c.532-1.148 1.218-1.876 2.38-1.876 1.288 0 1.96.854 1.96 2.086 0 .336-.028.672-.112 1.162l-.686 4.144h-1.498l.7-4.2c.042-.252.084-.574.084-.812 0-.658-.308-1.162-1.05-1.162-.56 0-.994.28-1.358.728-.182.224-.63.826-.756 1.582l-.644 3.864zm11.676.168c-1.96 0-2.982-1.078-2.982-3.094 0-2.646 1.666-4.466 4.088-4.466 1.442 0 2.548.672 2.548 1.96 0 1.078-.7 2.338-5.11 2.478-.014.126-.014.238-.014.28 0 .91.35 1.638 1.638 1.638.938 0 1.47-.378 2.254-1.442l.98.63c-.784 1.218-1.75 2.016-3.402 2.016zm.966-6.426c-1.218 0-2.044.728-2.282 2.212l-.028.154c3.136-.126 3.514-.84 3.514-1.442 0-.532-.336-.924-1.204-.924zm12.026 9.058 1.666-10.024h1.498l-.28 1.708h.056c.546-1.12 1.232-1.876 2.492-1.876 1.484 0 2.198 1.022 2.198 2.8 0 2.324-1.064 4.76-3.388 4.76-1.092 0-1.736-.518-2.002-1.47h-.07l-.672 4.102zm3.78-3.85c1.246 0 1.918-.84 2.114-2.016l.168-.994c.028-.168.056-.392.056-.602 0-.91-.406-1.512-1.288-1.512-.56 0-1.05.252-1.484.756-.308.35-.63.882-.742 1.554l-.238 1.442c-.14.84.406 1.372 1.414 1.372zm8.33 1.05h-1.498l.994-6.006h-1.862l.21-1.218h3.36l-.35 2.044h.084c.546-1.246 1.316-2.044 2.716-2.044h.84l-.252 1.498h-1.26c-.798 0-1.274.21-1.666.686-.182.224-.602.756-.714 1.428zm8.302.168c-1.89 0-2.94-1.232-2.94-3.08 0-2.758 1.666-4.48 3.92-4.48 1.89 0 2.94 1.232 2.94 3.08 0 2.758-1.666 4.48-3.92 4.48zm.098-1.19c1.162 0 1.89-.77 2.1-2.03l.154-.924c.042-.266.07-.49.07-.658 0-1.064-.602-1.568-1.54-1.568-1.162 0-1.89.77-2.1 2.03l-.154.924c-.042.266-.07.49-.07.658 0 1.064.602 1.568 1.54 1.568zm8.386 1.19c-1.862 0-2.856-1.19-2.856-3.052 0-2.632 1.568-4.508 3.85-4.508 1.582 0 2.366.77 2.632 1.778l-1.246.546c-.238-.77-.672-1.078-1.526-1.078-1.022 0-1.764.658-1.988 2.002l-.14.84c-.042.252-.056.462-.056.658 0 1.036.56 1.568 1.554 1.568.616 0 1.162-.182 2.254-1.666l.994.616c-.938 1.484-1.862 2.296-3.472 2.296zm8.512 0c-1.96 0-2.982-1.078-2.982-3.094 0-2.646 1.666-4.466 4.088-4.466 1.442 0 2.548.672 2.548 1.96 0 1.078-.7 2.338-5.11 2.478-.014.126-.014.238-.014.28 0 .91.35 1.638 1.638 1.638.938 0 1.47-.378 2.254-1.442l.98.63c-.784 1.218-1.75 2.016-3.402 2.016zm.966-6.426c-1.218 0-2.044.728-2.282 2.212l-.028.154c3.136-.126 3.514-.84 3.514-1.442 0-.532-.336-.924-1.204-.924zm7.224 6.426c-1.414 0-2.492-.462-3.066-1.288l.952-.84c.504.644 1.232.98 2.226.98 1.092 0 1.764-.406 1.764-1.134 0-.56-.392-.728-.91-.812l-1.05-.182c-1.064-.196-2.058-.602-2.058-1.918 0-1.568 1.386-2.366 3.164-2.366 1.274 0 2.254.406 2.786 1.064l-.924.882c-.28-.392-.91-.798-1.946-.798s-1.61.392-1.61 1.064c0 .574.42.714.938.812l1.05.196c1.036.196 2.044.546 2.044 1.862 0 1.54-1.33 2.478-3.36 2.478zm8.4 0c-1.414 0-2.492-.462-3.066-1.288l.952-.84c.504.644 1.232.98 2.226.98 1.092 0 1.764-.406 1.764-1.134 0-.56-.392-.728-.91-.812l-1.05-.182c-1.064-.196-2.058-.602-2.058-1.918 0-1.568 1.386-2.366 3.164-2.366 1.274 0 2.254.406 2.786 1.064l-.924.882c-.28-.392-.91-.798-1.946-.798s-1.61.392-1.61 1.064c0 .574.42.714.938.812l1.05.196c1.036.196 2.044.546 2.044 1.862 0 1.54-1.33 2.478-3.36 2.478zm14.406-.168h-1.274l1.204-7.224h1.274l-.196 1.19h.07c.336-.784.798-1.358 1.582-1.358s1.176.546 1.106 1.4h.056c.35-.826.882-1.4 1.736-1.4.812 0 1.246.49 1.246 1.372 0 .28-.042.728-.098 1.064l-.826 4.956h-1.274l.798-4.774c.042-.252.084-.602.084-.784 0-.448-.196-.686-.546-.686-.322 0-.588.182-.798.518s-.392.756-.462 1.176l-.756 4.55h-1.274l.812-4.844c.042-.252.07-.49.07-.7 0-.49-.168-.7-.504-.7-.322 0-.588.168-.826.518s-.364.756-.434 1.106zm11.004.168c-1.96 0-2.982-1.078-2.982-3.094 0-2.646 1.666-4.466 4.088-4.466 1.442 0 2.548.672 2.548 1.96 0 1.078-.7 2.338-5.11 2.478-.014.126-.014.238-.014.28 0 .91.35 1.638 1.638 1.638.938 0 1.47-.378 2.254-1.442l.98.63c-.784 1.218-1.75 2.016-3.402 2.016zm.966-6.426c-1.218 0-2.044.728-2.282 2.212l-.028.154c3.136-.126 3.514-.84 3.514-1.442 0-.532-.336-.924-1.204-.924zm10.164 6.258h-1.498l.28-1.708h-.056c-.546 1.12-1.232 1.876-2.492 1.876-1.484 0-2.198-1.022-2.198-2.8 0-2.324 1.064-4.76 3.388-4.76 1.092 0 1.736.518 2.002 1.47h.07l.21-1.302h1.498zm-3.164-1.05c.56 0 1.05-.252 1.484-.756.308-.35.63-.882.742-1.554l.238-1.442c.14-.84-.406-1.372-1.414-1.372-1.246 0-1.918.84-2.114 2.016l-.168.994c-.028.168-.056.392-.056.602 0 .91.406 1.512 1.288 1.512zm7.056 1.05h-1.498l1.204-7.224h1.498l-.294 1.708h.07c.532-1.148 1.218-1.876 2.38-1.876 1.288 0 1.96.854 1.96 2.086 0 .336-.028.672-.112 1.162l-.686 4.144h-1.498l.7-4.2c.042-.252.084-.574.084-.812 0-.658-.308-1.162-1.05-1.162-.56 0-.994.28-1.358.728-.182.224-.63.826-.756 1.582zm9.968.168c-1.414 0-2.492-.462-3.066-1.288l.952-.84c.504.644 1.232.98 2.226.98 1.092 0 1.764-.406 1.764-1.134 0-.56-.392-.728-.91-.812l-1.05-.182c-1.064-.196-2.058-.602-2.058-1.918 0-1.568 1.386-2.366 3.164-2.366 1.274 0 2.254.406 2.786 1.064l-.924.882c-.28-.392-.91-.798-1.946-.798s-1.61.392-1.61 1.064c0 .574.42.714.938.812l1.05.196c1.036.196 2.044.546 2.044 1.862 0 1.54-1.33 2.478-3.36 2.478zm-254.394 17.832h-1.274l1.204-7.224h1.274l-.196 1.19h.07c.336-.784.798-1.358 1.582-1.358s1.176.546 1.106 1.4h.056c.35-.826.882-1.4 1.736-1.4.812 0 1.246.49 1.246 1.372 0 .28-.042.728-.098 1.064l-.826 4.956h-1.274l.798-4.774c.042-.252.084-.602.084-.784 0-.448-.196-.686-.546-.686-.322 0-.588.182-.798.518s-.392.756-.462 1.176l-.756 4.55h-1.274l.812-4.844c.042-.252.07-.49.07-.7 0-.49-.168-.7-.504-.7-.322 0-.588.168-.826.518s-.364.756-.434 1.106zm10.808.168c-1.89 0-2.94-1.232-2.94-3.08 0-2.758 1.666-4.48 3.92-4.48 1.89 0 2.94 1.232 2.94 3.08 0 2.758-1.666 4.48-3.92 4.48zm.098-1.19c1.162 0 1.89-.77 2.1-2.03l.154-.924c.042-.266.07-.49.07-.658 0-1.064-.602-1.568-1.54-1.568-1.162 0-1.89.77-2.1 2.03l-.154.924c-.042.266-.07.49-.07.658 0 1.064.602 1.568 1.54 1.568zm8.4 1.022h-1.498l.994-6.006h-1.862l.21-1.218h3.36l-.35 2.044h.084c.546-1.246 1.316-2.044 2.716-2.044h.84l-.252 1.498h-1.26c-.798 0-1.274.21-1.666.686-.182.224-.602.756-.714 1.428zm8.498.168c-1.96 0-2.982-1.078-2.982-3.094 0-2.646 1.666-4.466 4.088-4.466 1.442 0 2.548.672 2.548 1.96 0 1.078-.7 2.338-5.11 2.478-.014.126-.014.238-.014.28 0 .91.35 1.638 1.638 1.638.938 0 1.47-.378 2.254-1.442l.98.63c-.784 1.218-1.75 2.016-3.402 2.016zm.966-6.426c-1.218 0-2.044.728-2.282 2.212l-.028.154c3.136-.126 3.514-.84 3.514-1.442 0-.532-.336-.924-1.204-.924zm15.498 6.426c-.896 0-1.344-.518-1.344-1.358 0-.168.042-.42.084-.672l.686-4.144h-1.988l.196-1.218h1.344c.532 0 .77-.182.868-.728l.308-1.82h1.4l-.42 2.548h2.912l-.196 1.218h-2.926l-.798 4.788.28.14 2.744-1.946.742.896-1.274.952c-1.26.966-1.862 1.344-2.618 1.344zm5.46-.168 1.722-10.36h1.498l-.812 4.844h.07c.532-1.148 1.218-1.876 2.38-1.876 1.288 0 1.96.854 1.96 2.086 0 .336-.028.672-.112 1.162l-.686 4.144h-1.498l.7-4.2c.042-.252.084-.574.084-.812 0-.658-.308-1.162-1.05-1.162-.56 0-.994.28-1.358.728-.182.224-.63.826-.756 1.582l-.644 3.864zm14.406 0h-1.498l.28-1.708h-.056c-.546 1.12-1.232 1.876-2.492 1.876-1.484 0-2.198-1.022-2.198-2.8 0-2.324 1.064-4.76 3.388-4.76 1.092 0 1.736.518 2.002 1.47h.07l.21-1.302h1.498zm-3.164-1.05c.56 0 1.05-.252 1.484-.756.308-.35.63-.882.742-1.554l.238-1.442c.14-.84-.406-1.372-1.414-1.372-1.246 0-1.918.84-2.114 2.016l-.168.994c-.028.168-.056.392-.056.602 0 .91.406 1.512 1.288 1.512zm7.056 1.05h-1.498l1.204-7.224h1.498l-.294 1.708h.07c.532-1.148 1.218-1.876 2.38-1.876 1.288 0 1.96.854 1.96 2.086 0 .336-.028.672-.112 1.162l-.686 4.144h-1.498l.7-4.2c.042-.252.084-.574.084-.812 0-.658-.308-1.162-1.05-1.162-.56 0-.994.28-1.358.728-.182.224-.63.826-.756 1.582zm18.382.168c-1.89 0-2.94-1.232-2.94-3.08 0-2.758 1.666-4.48 3.92-4.48 1.89 0 2.94 1.232 2.94 3.08 0 2.758-1.666 4.48-3.92 4.48zm.098-1.19c1.162 0 1.89-.77 2.1-2.03l.154-.924c.042-.266.07-.49.07-.658 0-1.064-.602-1.568-1.54-1.568-1.162 0-1.89.77-2.1 2.03l-.154.924c-.042.266-.07.49-.07.658 0 1.064.602 1.568 1.54 1.568zm6.72 1.022h-1.498l1.204-7.224h1.498l-.294 1.708h.07c.532-1.148 1.218-1.876 2.38-1.876 1.288 0 1.96.854 1.96 2.086 0 .336-.028.672-.112 1.162l-.686 4.144h-1.498l.7-4.2c.042-.252.084-.574.084-.812 0-.658-.308-1.162-1.05-1.162-.56 0-.994.28-1.358.728-.182.224-.63.826-.756 1.582zm10.178.168c-1.96 0-2.982-1.078-2.982-3.094 0-2.646 1.666-4.466 4.088-4.466 1.442 0 2.548.672 2.548 1.96 0 1.078-.7 2.338-5.11 2.478-.014.126-.014.238-.014.28 0 .91.35 1.638 1.638 1.638.938 0 1.47-.378 2.254-1.442l.98.63c-.784 1.218-1.75 2.016-3.402 2.016zm.966-6.426c-1.218 0-2.044.728-2.282 2.212l-.028.154c3.136-.126 3.514-.84 3.514-1.442 0-.532-.336-.924-1.204-.924zm15.638 6.426c-1.89 0-2.94-1.232-2.94-3.08 0-2.758 1.666-4.48 3.92-4.48 1.89 0 2.94 1.232 2.94 3.08 0 2.758-1.666 4.48-3.92 4.48zm.098-1.19c1.162 0 1.89-.77 2.1-2.03l.154-.924c.042-.266.07-.49.07-.658 0-1.064-.602-1.568-1.54-1.568-1.162 0-1.89.77-2.1 2.03l-.154.924c-.042.266-.07.49-.07.658 0 1.064.602 1.568 1.54 1.568zm4.69 3.822 1.666-10.024h1.498l-.28 1.708h.056c.546-1.12 1.232-1.876 2.492-1.876 1.484 0 2.198 1.022 2.198 2.8 0 2.324-1.064 4.76-3.388 4.76-1.092 0-1.736-.518-2.002-1.47h-.07l-.672 4.102zm3.78-3.85c1.246 0 1.918-.84 2.114-2.016l.168-.994c.028-.168.056-.392.056-.602 0-.91-.406-1.512-1.288-1.512-.56 0-1.05.252-1.484.756-.308.35-.63.882-.742 1.554l-.238 1.442c-.14.84.406 1.372 1.414 1.372zm8.428 1.218c-1.96 0-2.982-1.078-2.982-3.094 0-2.646 1.666-4.466 4.088-4.466 1.442 0 2.548.672 2.548 1.96 0 1.078-.7 2.338-5.11 2.478-.014.126-.014.238-.014.28 0 .91.35 1.638 1.638 1.638.938 0 1.47-.378 2.254-1.442l.98.63c-.784 1.218-1.75 2.016-3.402 2.016zm.966-6.426c-1.218 0-2.044.728-2.282 2.212l-.028.154c3.136-.126 3.514-.84 3.514-1.442 0-.532-.336-.924-1.204-.924zm7.336 6.258h-1.498l.994-6.006h-1.862l.21-1.218h3.36l-.35 2.044h.084c.546-1.246 1.316-2.044 2.716-2.044h.84l-.252 1.498h-1.26c-.798 0-1.274.21-1.666.686-.182.224-.602.756-.714 1.428zm11.228 0h-1.498l.28-1.708h-.056c-.546 1.12-1.232 1.876-2.492 1.876-1.484 0-2.198-1.022-2.198-2.8 0-2.324 1.064-4.76 3.388-4.76 1.092 0 1.736.518 2.002 1.47h.07l.21-1.302h1.498zm-3.164-1.05c.56 0 1.05-.252 1.484-.756.308-.35.63-.882.742-1.554l.238-1.442c.14-.84-.406-1.372-1.414-1.372-1.246 0-1.918.84-2.114 2.016l-.168.994c-.028.168-.056.392-.056.602 0 .91.406 1.512 1.288 1.512zm8.498 1.218c-.896 0-1.344-.518-1.344-1.358 0-.168.042-.42.084-.672l.686-4.144h-1.988l.196-1.218h1.344c.532 0 .77-.182.868-.728l.308-1.82h1.4l-.42 2.548h2.912l-.196 1.218h-2.926l-.798 4.788.28.14 2.744-1.946.742.896-1.274.952c-1.26.966-1.862 1.344-2.618 1.344zm9.59-8.722c-.714 0-.952-.308-.952-.686 0-.112.028-.266.056-.434.084-.504.378-.812 1.092-.812s.952.308.952.686c0 .112-.028.266-.056.434-.084.504-.378.812-1.092.812zm-.812 8.722c-.882 0-1.344-.518-1.344-1.26 0-.238.042-.462.098-.798l.798-4.116h-2.436l.196-1.218h3.962l-1.176 6.062.28.112 2.422-2.226.854.77-1.092 1.092c-1.162 1.162-1.792 1.582-2.562 1.582zm8.162 0c-1.89 0-2.94-1.232-2.94-3.08 0-2.758 1.666-4.48 3.92-4.48 1.89 0 2.94 1.232 2.94 3.08 0 2.758-1.666 4.48-3.92 4.48zm.098-1.19c1.162 0 1.89-.77 2.1-2.03l.154-.924c.042-.266.07-.49.07-.658 0-1.064-.602-1.568-1.54-1.568-1.162 0-1.89.77-2.1 2.03l-.154.924c-.042.266-.07.49-.07.658 0 1.064.602 1.568 1.54 1.568zm6.72 1.022h-1.498l1.204-7.224h1.498l-.294 1.708h.07c.532-1.148 1.218-1.876 2.38-1.876 1.288 0 1.96.854 1.96 2.086 0 .336-.028.672-.112 1.162l-.686 4.144h-1.498l.7-4.2c.042-.252.084-.574.084-.812 0-.658-.308-1.162-1.05-1.162-.56 0-.994.28-1.358.728-.182.224-.63.826-.756 1.582zm9.87.14c-.784 0-1.078-.336-1.078-.756 0-.14.028-.308.07-.56.098-.588.532-.952 1.316-.952s1.078.336 1.078.756c0 .14-.028.308-.07.56-.098.588-.532.952-1.316.952z" fill="#00f" mask="url(#b)"/></g><path d="m182.436416 64.9379205c-3.301929 11.4306004-4.339562 18.9990922-3.112899 22.7054754 1.226664 3.7063833 4.769162 3.7063833 10.627494 0" stroke="#000" stroke-linecap="round" stroke-width="2"/><g stroke="#000" stroke-width="2" transform="translate(156 46)"><ellipse cx="39.5" cy="16.5" rx="8.5" ry="10.5" transform="matrix(.9961947 -.08715574 .08715574 .9961947 -1.28776 3.505439)"/><ellipse cx="14" cy="20" rx="8" ry="10" transform="matrix(.9961947 -.08715574 .08715574 .9961947 -1.689841 1.296286)"/><path d="m22.3831839 18.1902558c.9034452-.8391939 2.3049892-1.4754014 4.2046319-1.9086224 1.8996428-.433221 3.4225988-.433221 4.5688681 0"/><g stroke-linecap="round"><path d="m48.5326299 14.3350552c9.5215884-7.77693012 15.1320682-12.03199733 16.8314392-12.76520166 2.5490566-1.09980649 4.5378107-.7376199 5.9424633 1.70478216s-.2926562 5.16057013-2.1884929 6.73083"/><path d="m5.59890439 19.9430101-4.67032068-1.1899415"/></g></g></g></svg>