<svg height="212" viewBox="0 0 602 212" width="602" xmlns="http://www.w3.org/2000/svg"><g fill="none" fill-rule="evenodd"><path d="m2 60h600v30h-600z" fill="#ccc"/><path d="m2 0h600v30h-600z" fill="#000"/><path d="m26.16 19.156c-2.301 0-3.406-1.69-3.406-4.693s1.105-4.693 3.406-4.693c1.755 0 2.561 1.014 2.977 2.249l-1.313.442c-.273-.832-.65-1.482-1.677-1.482-1.287 0-1.846 1.053-1.846 2.717v1.534c0 1.664.559 2.717 1.846 2.717 1.027 0 1.404-.65 1.677-1.482l1.313.442c-.416 1.235-1.222 2.249-2.977 2.249zm10.907-.156h-.871c-.806 0-1.209-.455-1.287-1.131h-.065c-.26.806-.962 1.287-2.015 1.287-1.365 0-2.249-.767-2.249-2.028 0-1.3.949-2.002 2.938-2.002h1.287v-.52c0-.897-.481-1.365-1.443-1.365-.858 0-1.365.364-1.729.923l-.845-.689c.377-.728 1.287-1.339 2.704-1.339 1.69 0 2.73.845 2.73 2.379v3.367h.845zm-3.835-.884c.91 0 1.573-.455 1.573-1.118v-.975h-1.261c-1.04 0-1.534.325-1.534.923v.26c0 .598.468.91 1.222.91zm11.232.884h-2.561c-1.17 0-1.716-.702-1.716-1.703v-3.861h-2.067v-1.144h1.469c.494 0 .689-.169.689-.689v-1.677h1.326v2.366h2.86v1.144h-2.86v4.42h2.86zm4.979.156c-2.054 0-3.263-1.365-3.263-3.497 0-2.158 1.248-3.523 3.159-3.523 1.885 0 3.081 1.352 3.081 3.328v.533h-4.81v.221c0 1.053.702 1.794 1.859 1.794.858 0 1.482-.403 1.859-1.027l.884.78c-.455.78-1.391 1.391-2.769 1.391zm-.104-5.941c-1.014 0-1.729.741-1.729 1.781v.091h3.367v-.13c0-1.053-.65-1.742-1.638-1.742zm11.271 6.513c0 1.378-1.157 2.028-3.523 2.028-2.314 0-3.12-.611-3.12-1.612 0-.728.429-1.105 1.17-1.3v-.13c-.455-.169-.741-.468-.741-.975 0-.663.507-.962 1.209-1.131v-.065c-.806-.377-1.287-1.092-1.287-2.054 0-1.43 1.079-2.353 2.73-2.353.468 0 .897.078 1.261.221v-.221c0-.52.299-.91.897-.91h1.222v1.118h-1.56v.312c.585.403.91 1.027.91 1.833 0 1.43-1.079 2.34-2.73 2.34-.299 0-.572-.026-.832-.078-.312.078-.702.286-.702.65 0 .416.455.468 1.04.468h1.508c1.807 0 2.548.754 2.548 1.859zm-1.326.091c0-.455-.312-.741-1.261-.741h-2.327c-.325.156-.494.403-.494.754 0 .507.39.923 1.378.923h1.053c1.066 0 1.651-.325 1.651-.936zm-2.236-3.965c.91 0 1.339-.481 1.339-1.196v-.351c0-.715-.429-1.196-1.339-1.196s-1.339.481-1.339 1.196v.351c0 .715.429 1.196 1.339 1.196zm7.852 3.302c-1.976 0-3.185-1.365-3.185-3.51s1.209-3.51 3.185-3.51 3.185 1.365 3.185 3.51-1.209 3.51-3.185 3.51zm0-1.118c1.027 0 1.703-.637 1.703-1.885v-1.014c0-1.248-.676-1.885-1.703-1.885s-1.703.637-1.703 1.885v1.014c0 1.248.676 1.885 1.703 1.885zm4.888.962v-1.144h1.781v-4.42h-1.781v-1.144h3.198v1.781h.078c.26-.936.845-1.781 2.21-1.781h.806v1.352h-1.326c-1.157 0-1.768.767-1.768 1.703v2.509h2.431v1.144zm11.609-3.9 1.066-2.808h1.43l-3.25 8.008c-.351.858-.832 1.3-1.898 1.3h-1.131v-1.144h1.586l.611-1.547-2.704-6.617h1.482l1.066 2.808.832 2.301h.078z" fill="#fff"/><path d="m215.9 19.156c-2.301 0-3.328-1.729-3.328-4.693s1.027-4.693 3.328-4.693 3.328 1.729 3.328 4.693-1.027 4.693-3.328 4.693zm0-1.209c1.3 0 1.781-1.053 1.781-2.73v-1.521c0-1.664-.481-2.717-1.781-2.717s-1.781 1.053-1.781 2.717v1.534c0 1.664.481 2.717 1.781 2.717zm4.927 3.653v-9.308h1.417v1.144h.078c.39-.806 1.04-1.3 2.028-1.3 1.573 0 2.587 1.209 2.587 3.51s-1.014 3.51-2.587 3.51c-.988 0-1.638-.494-2.028-1.3h-.078v3.744zm2.938-3.601c1.066 0 1.677-.715 1.677-1.807v-1.092c0-1.092-.611-1.807-1.677-1.807-.819 0-1.521.416-1.521 1.235v2.236c0 .819.702 1.235 1.521 1.235zm7.878 1.157c-2.054 0-3.263-1.365-3.263-3.497 0-2.158 1.248-3.523 3.159-3.523 1.885 0 3.081 1.352 3.081 3.328v.533h-4.81v.221c0 1.053.702 1.794 1.859 1.794.858 0 1.482-.403 1.859-1.027l.884.78c-.455.78-1.391 1.391-2.769 1.391zm-.104-5.941c-1.014 0-1.729.741-1.729 1.781v.091h3.367v-.13c0-1.053-.65-1.742-1.638-1.742zm4.849 5.785v-1.144h1.781v-4.42h-1.781v-1.144h3.198v1.781h.078c.26-.936.845-1.781 2.21-1.781h.806v1.352h-1.326c-1.157 0-1.768.767-1.768 1.703v2.509h2.431v1.144zm14.079 0h-.871c-.806 0-1.209-.455-1.287-1.131h-.065c-.26.806-.962 1.287-2.015 1.287-1.365 0-2.249-.767-2.249-2.028 0-1.3.949-2.002 2.938-2.002h1.287v-.52c0-.897-.481-1.365-1.443-1.365-.858 0-1.365.364-1.729.923l-.845-.689c.377-.728 1.287-1.339 2.704-1.339 1.69 0 2.73.845 2.73 2.379v3.367h.845zm-3.835-.884c.91 0 1.573-.455 1.573-1.118v-.975h-1.261c-1.04 0-1.534.325-1.534.923v.26c0 .598.468.91 1.222.91zm11.232.884h-2.561c-1.17 0-1.716-.702-1.716-1.703v-3.861h-2.067v-1.144h1.469c.494 0 .689-.169.689-.689v-1.677h1.326v2.366h2.86v1.144h-2.86v4.42h2.86zm5.252-7.93c-.715 0-.975-.338-.975-.767v-.273c0-.429.26-.767.962-.767.715 0 .975.338.975.767v.273c0 .429-.26.767-.962.767zm-3.003 7.93v-1.144h2.288v-4.42h-2.288v-1.144h3.705v5.564h2.145v1.144zm10.387.156c-1.976 0-3.185-1.365-3.185-3.51s1.209-3.51 3.185-3.51 3.185 1.365 3.185 3.51-1.209 3.51-3.185 3.51zm0-1.118c1.027 0 1.703-.637 1.703-1.885v-1.014c0-1.248-.676-1.885-1.703-1.885s-1.703.637-1.703 1.885v1.014c0 1.248.676 1.885 1.703 1.885zm6.409.962h-1.417v-6.708h1.417v1.144h.065c.286-.702.832-1.3 1.937-1.3 1.352 0 2.262.923 2.262 2.548v4.316h-1.417v-4.108c0-1.066-.481-1.599-1.391-1.599-.728 0-1.456.377-1.456 1.157z" fill="#fff"/><path d="m411.066 19v-9.074h2.704c2.301 0 3.419 1.586 3.419 4.537s-1.118 4.537-3.419 4.537zm1.443-1.196h1.17c1.326 0 1.976-.936 1.976-2.587v-1.508c0-1.651-.65-2.587-1.976-2.587h-1.17zm12.558 1.196h-.871c-.806 0-1.209-.455-1.287-1.131h-.065c-.26.806-.962 1.287-2.015 1.287-1.365 0-2.249-.767-2.249-2.028 0-1.3.949-2.002 2.938-2.002h1.287v-.52c0-.897-.481-1.365-1.443-1.365-.858 0-1.365.364-1.729.923l-.845-.689c.377-.728 1.287-1.339 2.704-1.339 1.69 0 2.73.845 2.73 2.379v3.367h.845zm-3.835-.884c.91 0 1.573-.455 1.573-1.118v-.975h-1.261c-1.04 0-1.534.325-1.534.923v.26c0 .598.468.91 1.222.91zm11.232.884h-2.561c-1.17 0-1.716-.702-1.716-1.703v-3.861h-2.067v-1.144h1.469c.494 0 .689-.169.689-.689v-1.677h1.326v2.366h2.86v1.144h-2.86v4.42h2.86zm8.203 0h-.871c-.806 0-1.209-.455-1.287-1.131h-.065c-.26.806-.962 1.287-2.015 1.287-1.365 0-2.249-.767-2.249-2.028 0-1.3.949-2.002 2.938-2.002h1.287v-.52c0-.897-.481-1.365-1.443-1.365-.858 0-1.365.364-1.729.923l-.845-.689c.377-.728 1.287-1.339 2.704-1.339 1.69 0 2.73.845 2.73 2.379v3.367h.845zm-3.835-.884c.91 0 1.573-.455 1.573-1.118v-.975h-1.261c-1.04 0-1.534.325-1.534.923v.26c0 .598.468.91 1.222.91zm19.643-6.968h-2.847v7.852h-1.456v-7.852h-2.847v-1.222h7.15zm5.122 3.952 1.066-2.808h1.43l-3.25 8.008c-.351.858-.832 1.3-1.898 1.3h-1.131v-1.144h1.586l.611-1.547-2.704-6.617h1.482l1.066 2.808.832 2.301h.078zm4.03 6.5v-9.308h1.417v1.144h.078c.39-.806 1.04-1.3 2.028-1.3 1.573 0 2.587 1.209 2.587 3.51s-1.014 3.51-2.587 3.51c-.988 0-1.638-.494-2.028-1.3h-.078v3.744zm2.938-3.601c1.066 0 1.677-.715 1.677-1.807v-1.092c0-1.092-.611-1.807-1.677-1.807-.819 0-1.521.416-1.521 1.235v2.236c0 .819.702 1.235 1.521 1.235zm7.878 1.157c-2.054 0-3.263-1.365-3.263-3.497 0-2.158 1.248-3.523 3.159-3.523 1.885 0 3.081 1.352 3.081 3.328v.533h-4.81v.221c0 1.053.702 1.794 1.859 1.794.858 0 1.482-.403 1.859-1.027l.884.78c-.455.78-1.391 1.391-2.769 1.391zm-.104-5.941c-1.014 0-1.729.741-1.729 1.781v.091h3.367v-.13c0-1.053-.65-1.742-1.638-1.742z" fill="#fff"/><path d="m2 120h600v30h-600z" fill="#ccc"/><path d="m2 180h600v30h-600z" fill="#ccc"/><g fill="#fff"><path d="m2 30h600v30h-600z"/><path d="m2 90h600v30h-600z"/><path d="m0 150h600v30h-600z"/><path d="m2 150h600v30h-600z"/></g><path d="m3 29h598v182h-598z" stroke="#000" stroke-width="2"/><g fill="#000"><path d="m24.262 50h-1.092v-9.074h3.302c1.677 0 2.587.975 2.587 2.613s-.91 2.613-2.587 2.613h-2.21zm0-8.125v3.328h2.184c.91 0 1.456-.481 1.456-1.326v-.676c0-.845-.546-1.326-1.456-1.326zm12.688 8.125h-.715c-.806 0-1.118-.468-1.196-1.092h-.065c-.286.767-.923 1.248-2.015 1.248-1.404 0-2.301-.78-2.301-2.041 0-1.235.871-1.95 2.886-1.95h1.43v-.663c0-.975-.585-1.482-1.599-1.482-.897 0-1.443.377-1.794.988l-.702-.52c.338-.702 1.196-1.352 2.561-1.352 1.573 0 2.574.845 2.574 2.262v3.692h.936zm-3.809-.715c1.066 0 1.833-.546 1.833-1.235v-1.105h-1.43c-1.235 0-1.794.364-1.794 1.014v.273c0 .689.533 1.053 1.391 1.053zm11.297.715h-2.613c-1.014 0-1.482-.637-1.482-1.534v-4.29h-2.236v-.884h1.664c.442 0 .611-.156.611-.611v-1.755h1.001v2.366h3.055v.884h-3.055v4.94h3.055zm5.278-8.19c-.598 0-.819-.286-.819-.663v-.208c0-.377.221-.663.819-.663s.819.286.819.663v.208c0 .377-.221.663-.819.663zm-2.938 8.19v-.884h2.418v-4.94h-2.418v-.884h3.458v5.824h2.262v.884zm10.439.156c-1.924 0-3.146-1.378-3.146-3.497 0-2.145 1.261-3.523 3.081-3.523 1.807 0 2.977 1.378 2.977 3.276v.494h-4.966v.312c0 1.183.793 2.041 2.054 2.041.897 0 1.573-.442 1.924-1.17l.767.52c-.403.897-1.365 1.547-2.691 1.547zm-.065-6.162c-1.144 0-1.989.871-1.989 2.041v.091h3.848v-.143c0-1.183-.754-1.989-1.859-1.989zm6.162 6.006h-1.04v-6.708h1.04v1.092h.052c.286-.663.806-1.248 1.911-1.248 1.404 0 2.327.936 2.327 2.561v4.303h-1.04v-4.121c0-1.222-.559-1.82-1.586-1.82-.832 0-1.664.403-1.664 1.287zm12.324 0h-2.613c-1.014 0-1.482-.637-1.482-1.534v-4.29h-2.236v-.884h1.664c.442 0 .611-.156.611-.611v-1.755h1.001v2.366h3.055v.884h-3.055v4.94h3.055zm13.975 0-3.094-7.683h-.091v7.683h-.988v-9.074h1.547l3.094 7.605h.091v-7.605h.988v9.074zm9.737 0h-.715c-.806 0-1.118-.468-1.196-1.092h-.065c-.286.767-.923 1.248-2.015 1.248-1.404 0-2.301-.78-2.301-2.041 0-1.235.871-1.95 2.886-1.95h1.43v-.663c0-.975-.585-1.482-1.599-1.482-.897 0-1.443.377-1.794.988l-.702-.52c.338-.702 1.196-1.352 2.561-1.352 1.573 0 2.574.845 2.574 2.262v3.692h.936zm-3.809-.715c1.066 0 1.833-.546 1.833-1.235v-1.105h-1.43c-1.235 0-1.794.364-1.794 1.014v.273c0 .689.533 1.053 1.391 1.053zm6.123.715h-.962v-6.708h.962v.78h.052c.208-.52.546-.936 1.287-.936.767 0 1.144.429 1.222 1.053h.039c.247-.611.663-1.053 1.456-1.053 1.092 0 1.378.793 1.378 2.21v4.654h-.962v-4.485c0-1.144-.195-1.521-.819-1.521-.546 0-.936.364-.936 1.079v4.927h-.962v-4.485c0-1.144-.195-1.521-.806-1.521-.559 0-.949.364-.949 1.079zm10.153.156c-1.924 0-3.146-1.378-3.146-3.497 0-2.145 1.261-3.523 3.081-3.523 1.807 0 2.977 1.378 2.977 3.276v.494h-4.966v.312c0 1.183.793 2.041 2.054 2.041.897 0 1.573-.442 1.924-1.17l.767.52c-.403.897-1.365 1.547-2.691 1.547zm-.065-6.162c-1.144 0-1.989.871-1.989 2.041v.091h3.848v-.143c0-1.183-.754-1.989-1.859-1.989zm-88.517 36.006v-9.074h2.535c2.21 0 3.302 1.56 3.302 4.537s-1.092 4.537-3.302 4.537zm1.092-.949h1.391c1.443 0 2.197-1.066 2.197-2.886v-1.404c0-1.82-.754-2.886-2.197-2.886h-1.391zm9.789-7.241c-.598 0-.819-.286-.819-.663v-.208c0-.377.221-.663.819-.663s.819.286.819.663v.208c0 .377-.221.663-.819.663zm-2.938 8.19v-.884h2.418v-4.94h-2.418v-.884h3.458v5.824h2.262v.884zm10.4.156c-1.404 0-2.405-.52-3.107-1.313l.702-.611c.637.676 1.365 1.053 2.431 1.053 1.04 0 1.781-.364 1.781-1.157 0-.702-.572-.884-1.183-.975l-1.053-.156c-.949-.143-2.301-.403-2.301-1.859 0-1.339 1.144-2.002 2.704-2.002 1.209 0 2.093.403 2.73 1.079l-.676.637c-.312-.377-.91-.845-2.093-.845-1.053 0-1.638.377-1.638 1.066 0 .702.585.884 1.183.975l1.053.156c.962.143 2.301.403 2.301 1.859 0 1.326-1.118 2.093-2.834 2.093zm7.956 0c-1.924 0-3.042-1.391-3.042-3.51 0-2.132 1.131-3.51 3.029-3.51 1.3 0 2.106.637 2.483 1.547l-.832.442c-.247-.689-.819-1.092-1.651-1.092-1.222 0-1.911.858-1.911 2.041v1.144c0 1.183.676 2.041 1.937 2.041.897 0 1.482-.442 1.82-1.17l.741.507c-.39.897-1.235 1.56-2.574 1.56zm4.901 2.444v-9.308h1.04v1.092h.052c.429-.819 1.131-1.248 2.067-1.248 1.638 0 2.626 1.313 2.626 3.51s-.988 3.51-2.626 3.51c-.936 0-1.638-.429-2.067-1.248h-.052v3.692zm2.756-3.367c1.209 0 1.911-.806 1.911-2.015v-1.144c0-1.209-.702-2.015-1.911-2.015-.923 0-1.716.481-1.716 1.378v2.418c0 .897.793 1.378 1.716 1.378zm4.81.767v-.884h1.963v-4.94h-1.963v-.884h3.003v1.69h.065c.26-.884.858-1.69 2.262-1.69h.936v1.04h-1.261c-1.313 0-2.002.845-2.002 1.885v2.899h2.6v.884zm10.816.156c-1.924 0-3.146-1.378-3.146-3.497 0-2.145 1.261-3.523 3.081-3.523 1.807 0 2.977 1.378 2.977 3.276v.494h-4.966v.312c0 1.183.793 2.041 2.054 2.041.897 0 1.573-.442 1.924-1.17l.767.52c-.403.897-1.365 1.547-2.691 1.547zm-.065-6.162c-1.144 0-1.989.871-1.989 2.041v.091h3.848v-.143c0-1.183-.754-1.989-1.859-1.989zm10.998 6.006h-.715c-.806 0-1.118-.468-1.196-1.092h-.065c-.286.767-.923 1.248-2.015 1.248-1.404 0-2.301-.78-2.301-2.041 0-1.235.871-1.95 2.886-1.95h1.43v-.663c0-.975-.585-1.482-1.599-1.482-.897 0-1.443.377-1.794.988l-.702-.52c.338-.702 1.196-1.352 2.561-1.352 1.573 0 2.574.845 2.574 2.262v3.692h.936zm-3.809-.715c1.066 0 1.833-.546 1.833-1.235v-1.105h-1.43c-1.235 0-1.794.364-1.794 1.014v.273c0 .689.533 1.053 1.391 1.053zm6.773.715h-1.04v-6.708h1.04v1.092h.052c.286-.663.806-1.248 1.911-1.248 1.404 0 2.327.936 2.327 2.561v4.303h-1.04v-4.121c0-1.222-.559-1.82-1.586-1.82-.832 0-1.664.403-1.664 1.287zm9.62.156c-1.924 0-3.042-1.391-3.042-3.51 0-2.132 1.131-3.51 3.029-3.51 1.3 0 2.106.637 2.483 1.547l-.832.442c-.247-.689-.819-1.092-1.651-1.092-1.222 0-1.911.858-1.911 2.041v1.144c0 1.183.676 2.041 1.937 2.041.897 0 1.482-.442 1.82-1.17l.741.507c-.39.897-1.235 1.56-2.574 1.56zm8.606-4.056 1.131-2.808h1.04l-3.328 8.177c-.312.767-.702 1.131-1.716 1.131h-.988v-.884h1.56l.754-1.846-2.704-6.578h1.066l1.131 2.808 1.001 2.548h.052zm18.135-4.225h-3.029v8.125h-1.092v-8.125h-3.029v-.949h7.15zm5.265 4.225 1.131-2.808h1.04l-3.328 8.177c-.312.767-.702 1.131-1.716 1.131h-.988v-.884h1.56l.754-1.846-2.704-6.578h1.066l1.131 2.808 1.001 2.548h.052zm4.095 6.5v-9.308h1.04v1.092h.052c.429-.819 1.131-1.248 2.067-1.248 1.638 0 2.626 1.313 2.626 3.51s-.988 3.51-2.626 3.51c-.936 0-1.638-.429-2.067-1.248h-.052v3.692zm2.756-3.367c1.209 0 1.911-.806 1.911-2.015v-1.144c0-1.209-.702-2.015-1.911-2.015-.923 0-1.716.481-1.716 1.378v2.418c0 .897.793 1.378 1.716 1.378zm7.826.923c-1.924 0-3.146-1.378-3.146-3.497 0-2.145 1.261-3.523 3.081-3.523 1.807 0 2.977 1.378 2.977 3.276v.494h-4.966v.312c0 1.183.793 2.041 2.054 2.041.897 0 1.573-.442 1.924-1.17l.767.52c-.403.897-1.365 1.547-2.691 1.547zm-.065-6.162c-1.144 0-1.989.871-1.989 2.041v.091h3.848v-.143c0-1.183-.754-1.989-1.859-1.989zm-119.717 36.006v-9.074h2.535c2.21 0 3.302 1.56 3.302 4.537s-1.092 4.537-3.302 4.537zm1.092-.949h1.391c1.443 0 2.197-1.066 2.197-2.886v-1.404c0-1.82-.754-2.886-2.197-2.886h-1.391zm12.623.949h-.715c-.806 0-1.118-.468-1.196-1.092h-.065c-.286.767-.923 1.248-2.015 1.248-1.404 0-2.301-.78-2.301-2.041 0-1.235.871-1.95 2.886-1.95h1.43v-.663c0-.975-.585-1.482-1.599-1.482-.897 0-1.443.377-1.794.988l-.702-.52c.338-.702 1.196-1.352 2.561-1.352 1.573 0 2.574.845 2.574 2.262v3.692h.936zm-3.809-.715c1.066 0 1.833-.546 1.833-1.235v-1.105h-1.43c-1.235 0-1.794.364-1.794 1.014v.273c0 .689.533 1.053 1.391 1.053zm9.399-3.185 1.131-2.808h1.04l-3.328 8.177c-.312.767-.702 1.131-1.716 1.131h-.988v-.884h1.56l.754-1.846-2.704-6.578h1.066l1.131 2.808 1.001 2.548h.052zm6.838 4.056c-1.404 0-2.405-.52-3.107-1.313l.702-.611c.637.676 1.365 1.053 2.431 1.053 1.04 0 1.781-.364 1.781-1.157 0-.702-.572-.884-1.183-.975l-1.053-.156c-.949-.143-2.301-.403-2.301-1.859 0-1.339 1.144-2.002 2.704-2.002 1.209 0 2.093.403 2.73 1.079l-.676.637c-.312-.377-.91-.845-2.093-.845-1.053 0-1.638.377-1.638 1.066 0 .702.585.884 1.183.975l1.053.156c.962.143 2.301.403 2.301 1.859 0 1.326-1.118 2.093-2.834 2.093zm15.522 0c-2.21 0-3.172-1.729-3.172-4.693s.962-4.693 3.172-4.693 3.172 1.729 3.172 4.693-.962 4.693-3.172 4.693zm0-.949c1.443 0 2.015-1.183 2.015-3.003v-1.482c0-1.82-.572-3.003-2.015-3.003s-2.015 1.183-2.015 3.003v1.482c0 1.82.572 3.003 2.015 3.003zm5.135 3.393v-9.308h1.04v1.092h.052c.429-.819 1.131-1.248 2.067-1.248 1.638 0 2.626 1.313 2.626 3.51s-.988 3.51-2.626 3.51c-.936 0-1.638-.429-2.067-1.248h-.052v3.692zm2.756-3.367c1.209 0 1.911-.806 1.911-2.015v-1.144c0-1.209-.702-2.015-1.911-2.015-.923 0-1.716.481-1.716 1.378v2.418c0 .897.793 1.378 1.716 1.378zm7.826.923c-1.924 0-3.146-1.378-3.146-3.497 0-2.145 1.261-3.523 3.081-3.523 1.807 0 2.977 1.378 2.977 3.276v.494h-4.966v.312c0 1.183.793 2.041 2.054 2.041.897 0 1.573-.442 1.924-1.17l.767.52c-.403.897-1.365 1.547-2.691 1.547zm-.065-6.162c-1.144 0-1.989.871-1.989 2.041v.091h3.848v-.143c0-1.183-.754-1.989-1.859-1.989zm6.162 6.006h-1.04v-6.708h1.04v1.092h.052c.286-.663.806-1.248 1.911-1.248 1.404 0 2.327.936 2.327 2.561v4.303h-1.04v-4.121c0-1.222-.559-1.82-1.586-1.82-.832 0-1.664.403-1.664 1.287zm-60.814 30.156c-2.21 0-3.172-1.729-3.172-4.693s.962-4.693 3.172-4.693 3.172 1.729 3.172 4.693-.962 4.693-3.172 4.693zm0-.949c1.443 0 2.015-1.183 2.015-3.003v-1.482c0-1.82-.572-3.003-2.015-3.003s-2.015 1.183-2.015 3.003v1.482c0 1.82.572 3.003 2.015 3.003zm8.463.793h-1.326l-2.405-6.708h1.053l.962 2.808 1.04 3.029h.052l1.04-3.029.962-2.808h1.027zm7.254.156c-1.924 0-3.146-1.378-3.146-3.497 0-2.145 1.261-3.523 3.081-3.523 1.807 0 2.977 1.378 2.977 3.276v.494h-4.966v.312c0 1.183.793 2.041 2.054 2.041.897 0 1.573-.442 1.924-1.17l.767.52c-.403.897-1.365 1.547-2.691 1.547zm-.065-6.162c-1.144 0-1.989.871-1.989 2.041v.091h3.848v-.143c0-1.183-.754-1.989-1.859-1.989zm4.849 6.006v-.884h1.963v-4.94h-1.963v-.884h3.003v1.69h.065c.26-.884.858-1.69 2.262-1.69h.936v1.04h-1.261c-1.313 0-2.002.845-2.002 1.885v2.899h2.6v.884zm12.324 0v-1.092h-.052c-.429.819-1.131 1.248-2.067 1.248-1.638 0-2.626-1.313-2.626-3.51s.988-3.51 2.626-3.51c.936 0 1.638.429 2.067 1.248h.052v-4.004h1.04v9.62zm-1.716-.767c.923 0 1.716-.481 1.716-1.378v-2.418c0-.897-.793-1.378-1.716-1.378-1.209 0-1.911.806-1.911 2.015v1.144c0 1.209.702 2.015 1.911 2.015zm9.477.767v-1.092h-.052c-.286.663-.806 1.248-1.911 1.248-1.404 0-2.327-.936-2.327-2.561v-4.303h1.04v4.121c0 1.222.559 1.82 1.586 1.82.832 0 1.664-.403 1.664-1.287v-4.654h1.04v6.708zm6.331.156c-1.924 0-3.146-1.378-3.146-3.497 0-2.145 1.261-3.523 3.081-3.523 1.807 0 2.977 1.378 2.977 3.276v.494h-4.966v.312c0 1.183.793 2.041 2.054 2.041.897 0 1.573-.442 1.924-1.17l.767.52c-.403.897-1.365 1.547-2.691 1.547zm-.065-6.162c-1.144 0-1.989.871-1.989 2.041v.091h3.848v-.143c0-1.183-.754-1.989-1.859-1.989zm-49.517 36.006v-9.074h2.535c2.21 0 3.302 1.56 3.302 4.537s-1.092 4.537-3.302 4.537zm1.092-.949h1.391c1.443 0 2.197-1.066 2.197-2.886v-1.404c0-1.82-.754-2.886-2.197-2.886h-1.391zm9.789-7.241c-.598 0-.819-.286-.819-.663v-.208c0-.377.221-.663.819-.663s.819.286.819.663v.208c0 .377-.221.663-.819.663zm-2.938 8.19v-.884h2.418v-4.94h-2.418v-.884h3.458v5.824h2.262v.884zm10.4.156c-1.404 0-2.405-.52-3.107-1.313l.702-.611c.637.676 1.365 1.053 2.431 1.053 1.04 0 1.781-.364 1.781-1.157 0-.702-.572-.884-1.183-.975l-1.053-.156c-.949-.143-2.301-.403-2.301-1.859 0-1.339 1.144-2.002 2.704-2.002 1.209 0 2.093.403 2.73 1.079l-.676.637c-.312-.377-.91-.845-2.093-.845-1.053 0-1.638.377-1.638 1.066 0 .702.585.884 1.183.975l1.053.156c.962.143 2.301.403 2.301 1.859 0 1.326-1.118 2.093-2.834 2.093zm7.956 0c-1.924 0-3.042-1.391-3.042-3.51 0-2.132 1.131-3.51 3.029-3.51 1.3 0 2.106.637 2.483 1.547l-.832.442c-.247-.689-.819-1.092-1.651-1.092-1.222 0-1.911.858-1.911 2.041v1.144c0 1.183.676 2.041 1.937 2.041.897 0 1.482-.442 1.82-1.17l.741.507c-.39.897-1.235 1.56-2.574 1.56zm7.566 0c-1.885 0-3.042-1.378-3.042-3.51s1.157-3.51 3.042-3.51 3.042 1.378 3.042 3.51-1.157 3.51-3.042 3.51zm0-.897c1.157 0 1.937-.689 1.937-2.132v-.962c0-1.443-.78-2.132-1.937-2.132s-1.937.689-1.937 2.132v.962c0 1.443.78 2.132 1.937 2.132zm8.463.741h-1.326l-2.405-6.708h1.053l.962 2.808 1.04 3.029h.052l1.04-3.029.962-2.808h1.027zm7.254.156c-1.924 0-3.146-1.378-3.146-3.497 0-2.145 1.261-3.523 3.081-3.523 1.807 0 2.977 1.378 2.977 3.276v.494h-4.966v.312c0 1.183.793 2.041 2.054 2.041.897 0 1.573-.442 1.924-1.17l.767.52c-.403.897-1.365 1.547-2.691 1.547zm-.065-6.162c-1.144 0-1.989.871-1.989 2.041v.091h3.848v-.143c0-1.183-.754-1.989-1.859-1.989zm4.849 6.006v-.884h1.963v-4.94h-1.963v-.884h3.003v1.69h.065c.26-.884.858-1.69 2.262-1.69h.936v1.04h-1.261c-1.313 0-2.002.845-2.002 1.885v2.899h2.6v.884zm10.816.156c-1.924 0-3.146-1.378-3.146-3.497 0-2.145 1.261-3.523 3.081-3.523 1.807 0 2.977 1.378 2.977 3.276v.494h-4.966v.312c0 1.183.793 2.041 2.054 2.041.897 0 1.573-.442 1.924-1.17l.767.52c-.403.897-1.365 1.547-2.691 1.547zm-.065-6.162c-1.144 0-1.989.871-1.989 2.041v.091h3.848v-.143c0-1.183-.754-1.989-1.859-1.989zm9.373 6.006v-1.092h-.052c-.429.819-1.131 1.248-2.067 1.248-1.638 0-2.626-1.313-2.626-3.51s.988-3.51 2.626-3.51c.936 0 1.638.429 2.067 1.248h.052v-4.004h1.04v9.62zm-1.716-.767c.923 0 1.716-.481 1.716-1.378v-2.418c0-.897-.793-1.378-1.716-1.378-1.209 0-1.911.806-1.911 2.015v1.144c0 1.209.702 2.015 1.911 2.015zm13.026.767v-9.074h2.535c2.21 0 3.302 1.56 3.302 4.537s-1.092 4.537-3.302 4.537zm1.092-.949h1.391c1.443 0 2.197-1.066 2.197-2.886v-1.404c0-1.82-.754-2.886-2.197-2.886h-1.391zm12.623.949h-.715c-.806 0-1.118-.468-1.196-1.092h-.065c-.286.767-.923 1.248-2.015 1.248-1.404 0-2.301-.78-2.301-2.041 0-1.235.871-1.95 2.886-1.95h1.43v-.663c0-.975-.585-1.482-1.599-1.482-.897 0-1.443.377-1.794.988l-.702-.52c.338-.702 1.196-1.352 2.561-1.352 1.573 0 2.574.845 2.574 2.262v3.692h.936zm-3.809-.715c1.066 0 1.833-.546 1.833-1.235v-1.105h-1.43c-1.235 0-1.794.364-1.794 1.014v.273c0 .689.533 1.053 1.391 1.053zm11.297.715h-2.613c-1.014 0-1.482-.637-1.482-1.534v-4.29h-2.236v-.884h1.664c.442 0 .611-.156.611-.611v-1.755h1.001v2.366h3.055v.884h-3.055v4.94h3.055zm4.979.156c-1.924 0-3.146-1.378-3.146-3.497 0-2.145 1.261-3.523 3.081-3.523 1.807 0 2.977 1.378 2.977 3.276v.494h-4.966v.312c0 1.183.793 2.041 2.054 2.041.897 0 1.573-.442 1.924-1.17l.767.52c-.403.897-1.365 1.547-2.691 1.547zm-.065-6.162c-1.144 0-1.989.871-1.989 2.041v.091h3.848v-.143c0-1.183-.754-1.989-1.859-1.989z"/><path d="m216.134 50.156c-1.924 0-3.042-1.391-3.042-3.51 0-2.132 1.131-3.51 3.029-3.51 1.3 0 2.106.637 2.483 1.547l-.832.442c-.247-.689-.819-1.092-1.651-1.092-1.222 0-1.911.858-1.911 2.041v1.144c0 1.183.676 2.041 1.937 2.041.897 0 1.482-.442 1.82-1.17l.741.507c-.39.897-1.235 1.56-2.574 1.56zm7.566 0c-1.885 0-3.042-1.378-3.042-3.51s1.157-3.51 3.042-3.51 3.042 1.378 3.042 3.51-1.157 3.51-3.042 3.51zm0-.897c1.157 0 1.937-.689 1.937-2.132v-.962c0-1.443-.78-2.132-1.937-2.132s-1.937.689-1.937 2.132v.962c0 1.443.78 2.132 1.937 2.132zm6.214.741h-1.04v-6.708h1.04v1.092h.052c.286-.663.806-1.248 1.911-1.248 1.404 0 2.327.936 2.327 2.561v4.303h-1.04v-4.121c0-1.222-.559-1.82-1.586-1.82-.832 0-1.664.403-1.664 1.287zm12.324 0h-2.613c-1.014 0-1.482-.637-1.482-1.534v-4.29h-2.236v-.884h1.664c.442 0 .611-.156.611-.611v-1.755h1.001v2.366h3.055v.884h-3.055v4.94h3.055zm8.112 0h-.715c-.806 0-1.118-.468-1.196-1.092h-.065c-.286.767-.923 1.248-2.015 1.248-1.404 0-2.301-.78-2.301-2.041 0-1.235.871-1.95 2.886-1.95h1.43v-.663c0-.975-.585-1.482-1.599-1.482-.897 0-1.443.377-1.794.988l-.702-.52c.338-.702 1.196-1.352 2.561-1.352 1.573 0 2.574.845 2.574 2.262v3.692h.936zm-3.809-.715c1.066 0 1.833-.546 1.833-1.235v-1.105h-1.43c-1.235 0-1.794.364-1.794 1.014v.273c0 .689.533 1.053 1.391 1.053zm8.775-7.475c-.598 0-.819-.286-.819-.663v-.208c0-.377.221-.663.819-.663s.819.286.819.663v.208c0 .377-.221.663-.819.663zm-2.938 8.19v-.884h2.418v-4.94h-2.418v-.884h3.458v5.824h2.262v.884zm8.736 0h-1.04v-6.708h1.04v1.092h.052c.286-.663.806-1.248 1.911-1.248 1.404 0 2.327.936 2.327 2.561v4.303h-1.04v-4.121c0-1.222-.559-1.82-1.586-1.82-.832 0-1.664.403-1.664 1.287zm9.464.156c-1.404 0-2.405-.52-3.107-1.313l.702-.611c.637.676 1.365 1.053 2.431 1.053 1.04 0 1.781-.364 1.781-1.157 0-.702-.572-.884-1.183-.975l-1.053-.156c-.949-.143-2.301-.403-2.301-1.859 0-1.339 1.144-2.002 2.704-2.002 1.209 0 2.093.403 2.73 1.079l-.676.637c-.312-.377-.91-.845-2.093-.845-1.053 0-1.638.377-1.638 1.066 0 .702.585.884 1.183.975l1.053.156c.962.143 2.301.403 2.301 1.859 0 1.326-1.118 2.093-2.834 2.093zm-54.262 21.654c-.598 0-.819-.286-.819-.663v-.208c0-.377.221-.663.819-.663s.819.286.819.663v.208c0 .377-.221.663-.819.663zm-2.938 8.19v-.884h2.418v-4.94h-2.418v-.884h3.458v5.824h2.262v.884zm10.4.156c-1.404 0-2.405-.52-3.107-1.313l.702-.611c.637.676 1.365 1.053 2.431 1.053 1.04 0 1.781-.364 1.781-1.157 0-.702-.572-.884-1.183-.975l-1.053-.156c-.949-.143-2.301-.403-2.301-1.859 0-1.339 1.144-2.002 2.704-2.002 1.209 0 2.093.403 2.73 1.079l-.676.637c-.312-.377-.91-.845-2.093-.845-1.053 0-1.638.377-1.638 1.066 0 .702.585.884 1.183.975l1.053.156c.962.143 2.301.403 2.301 1.859 0 1.326-1.118 2.093-2.834 2.093zm-4.784 25.008h-6.188v-.884h6.188zm0 2.6h-6.188v-.884h6.188zm3.458 4.069.689-3.601h1.677l-1.495 3.601zm19.643-2.041-5.59-3.237v-1.04l5.59-3.237v1.079l-4.615 2.613v.104l4.615 2.613zm3.757 2.041.689-3.601h1.677l-1.495 3.601zm14.053-2.041v-1.079l4.615-2.613v-.104l-4.615-2.613v-1.105l5.59 3.237v1.04zm-43.589 22.018c-.598 0-.819-.286-.819-.663v-.208c0-.377.221-.663.819-.663s.819.286.819.663v.208c0 .377-.221.663-.819.663zm-2.938 8.19v-.884h2.418v-4.94h-2.418v-.884h3.458v5.824h2.262v.884zm10.4.156c-1.404 0-2.405-.52-3.107-1.313l.702-.611c.637.676 1.365 1.053 2.431 1.053 1.04 0 1.781-.364 1.781-1.157 0-.702-.572-.884-1.183-.975l-1.053-.156c-.949-.143-2.301-.403-2.301-1.859 0-1.339 1.144-2.002 2.704-2.002 1.209 0 2.093.403 2.73 1.079l-.676.637c-.312-.377-.91-.845-2.093-.845-1.053 0-1.638.377-1.638 1.066 0 .702.585.884 1.183.975l1.053.156c.962.143 2.301.403 2.301 1.859 0 1.326-1.118 2.093-2.834 2.093zm-7.462 21.654c-.598 0-.819-.286-.819-.663v-.208c0-.377.221-.663.819-.663s.819.286.819.663v.208c0 .377-.221.663-.819.663zm-2.938 8.19v-.884h2.418v-4.94h-2.418v-.884h3.458v5.824h2.262v.884zm10.4.156c-1.404 0-2.405-.52-3.107-1.313l.702-.611c.637.676 1.365 1.053 2.431 1.053 1.04 0 1.781-.364 1.781-1.157 0-.702-.572-.884-1.183-.975l-1.053-.156c-.949-.143-2.301-.403-2.301-1.859 0-1.339 1.144-2.002 2.704-2.002 1.209 0 2.093.403 2.73 1.079l-.676.637c-.312-.377-.91-.845-2.093-.845-1.053 0-1.638.377-1.638 1.066 0 .702.585.884 1.183.975l1.053.156c.962.143 2.301.403 2.301 1.859 0 1.326-1.118 2.093-2.834 2.093zm6.474 1.677.689-3.601h1.677l-1.495 3.601zm14.183-1.833v-9.62h1.04v4.004h.052c.429-.819 1.131-1.248 2.067-1.248 1.638 0 2.626 1.313 2.626 3.51s-.988 3.51-2.626 3.51c-.936 0-1.638-.429-2.067-1.248h-.052v1.092zm2.756-.767c1.209 0 1.911-.806 1.911-2.015v-1.144c0-1.209-.702-2.015-1.911-2.015-.923 0-1.716.481-1.716 1.378v2.418c0 .897.793 1.378 1.716 1.378zm7.826.923c-1.924 0-3.146-1.378-3.146-3.497 0-2.145 1.261-3.523 3.081-3.523 1.807 0 2.977 1.378 2.977 3.276v.494h-4.966v.312c0 1.183.793 2.041 2.054 2.041.897 0 1.573-.442 1.924-1.17l.767.52c-.403.897-1.365 1.547-2.691 1.547zm-.065-6.162c-1.144 0-1.989.871-1.989 2.041v.091h3.848v-.143c0-1.183-.754-1.989-1.859-1.989zm4.927 6.006v-.884h2.262v-4.94h-2.392v-.884h2.392v-1.378c0-.897.468-1.534 1.482-1.534h2.249v.884h-2.691v2.028h2.691v.884h-2.691v4.94h2.392v.884zm10.621.156c-1.885 0-3.042-1.378-3.042-3.51s1.157-3.51 3.042-3.51 3.042 1.378 3.042 3.51-1.157 3.51-3.042 3.51zm0-.897c1.157 0 1.937-.689 1.937-2.132v-.962c0-1.443-.78-2.132-1.937-2.132s-1.937.689-1.937 2.132v.962c0 1.443.78 2.132 1.937 2.132zm4.901.741v-.884h1.963v-4.94h-1.963v-.884h3.003v1.69h.065c.26-.884.858-1.69 2.262-1.69h.936v1.04h-1.261c-1.313 0-2.002.845-2.002 1.885v2.899h2.6v.884zm10.816.156c-1.924 0-3.146-1.378-3.146-3.497 0-2.145 1.261-3.523 3.081-3.523 1.807 0 2.977 1.378 2.977 3.276v.494h-4.966v.312c0 1.183.793 2.041 2.054 2.041.897 0 1.573-.442 1.924-1.17l.767.52c-.403.897-1.365 1.547-2.691 1.547zm-.065-6.162c-1.144 0-1.989.871-1.989 2.041v.091h3.848v-.143c0-1.183-.754-1.989-1.859-1.989zm6.5 7.839.689-3.601h1.677l-1.495 3.601zm20.098-1.833h-.715c-.806 0-1.118-.468-1.196-1.092h-.065c-.286.767-.923 1.248-2.015 1.248-1.404 0-2.301-.78-2.301-2.041 0-1.235.871-1.95 2.886-1.95h1.43v-.663c0-.975-.585-1.482-1.599-1.482-.897 0-1.443.377-1.794.988l-.702-.52c.338-.702 1.196-1.352 2.561-1.352 1.573 0 2.574.845 2.574 2.262v3.692h.936zm-3.809-.715c1.066 0 1.833-.546 1.833-1.235v-1.105h-1.43c-1.235 0-1.794.364-1.794 1.014v.273c0 .689.533 1.053 1.391 1.053zm5.538.715v-.884h2.262v-4.94h-2.392v-.884h2.392v-1.378c0-.897.468-1.534 1.482-1.534h2.249v.884h-2.691v2.028h2.691v.884h-2.691v4.94h2.392v.884zm13.559 0h-2.613c-1.014 0-1.482-.637-1.482-1.534v-4.29h-2.236v-.884h1.664c.442 0 .611-.156.611-.611v-1.755h1.001v2.366h3.055v.884h-3.055v4.94h3.055zm4.979.156c-1.924 0-3.146-1.378-3.146-3.497 0-2.145 1.261-3.523 3.081-3.523 1.807 0 2.977 1.378 2.977 3.276v.494h-4.966v.312c0 1.183.793 2.041 2.054 2.041.897 0 1.573-.442 1.924-1.17l.767.52c-.403.897-1.365 1.547-2.691 1.547zm-.065-6.162c-1.144 0-1.989.871-1.989 2.041v.091h3.848v-.143c0-1.183-.754-1.989-1.859-1.989zm4.849 6.006v-.884h1.963v-4.94h-1.963v-.884h3.003v1.69h.065c.26-.884.858-1.69 2.262-1.69h.936v1.04h-1.261c-1.313 0-2.002.845-2.002 1.885v2.899h2.6v.884z"/><path d="m413.874 50.156c-1.625 0-2.613-.663-3.289-1.599l.793-.65c.702.884 1.443 1.313 2.535 1.313 1.313 0 2.028-.637 2.028-1.729 0-.884-.455-1.352-1.69-1.56l-1.014-.169c-1.781-.299-2.34-1.326-2.34-2.47 0-1.664 1.183-2.522 3.029-2.522 1.443 0 2.431.52 3.042 1.391l-.767.663c-.507-.663-1.157-1.118-2.288-1.118-1.222 0-1.911.533-1.911 1.56 0 .806.416 1.326 1.703 1.547l.975.169c1.781.312 2.366 1.3 2.366 2.483 0 1.677-1.157 2.691-3.172 2.691zm10.764-.156h-2.613c-1.014 0-1.482-.637-1.482-1.534v-4.29h-2.236v-.884h1.664c.442 0 .611-.156.611-.611v-1.755h1.001v2.366h3.055v.884h-3.055v4.94h3.055zm1.963 0v-.884h1.963v-4.94h-1.963v-.884h3.003v1.69h.065c.26-.884.858-1.69 2.262-1.69h.936v1.04h-1.261c-1.313 0-2.002.845-2.002 1.885v2.899h2.6v.884zm11.115-8.19c-.598 0-.819-.286-.819-.663v-.208c0-.377.221-.663.819-.663s.819.286.819.663v.208c0 .377-.221.663-.819.663zm-2.938 8.19v-.884h2.418v-4.94h-2.418v-.884h3.458v5.824h2.262v.884zm8.736 0h-1.04v-6.708h1.04v1.092h.052c.286-.663.806-1.248 1.911-1.248 1.404 0 2.327.936 2.327 2.561v4.303h-1.04v-4.121c0-1.222-.559-1.82-1.586-1.82-.832 0-1.664.403-1.664 1.287zm12.779.767c0 1.352-1.144 1.989-3.38 1.989-2.158 0-3.042-.598-3.042-1.664 0-.715.403-1.105 1.092-1.287v-.156c-.377-.182-.598-.468-.598-.923 0-.689.52-1.001 1.209-1.17v-.052c-.819-.364-1.313-1.105-1.313-2.054 0-1.365 1.027-2.314 2.6-2.314.507 0 .949.091 1.326.273v-.117c0-.52.221-.91.806-.91h1.235v.91h-1.508v.455c.481.416.754 1.001.754 1.703 0 1.365-1.04 2.314-2.613 2.314-.221 0-.429-.013-.637-.052-.403.078-.962.312-.962.767 0 .403.442.494 1.079.494h1.482c1.729 0 2.47.702 2.47 1.794zm-.975.052c0-.533-.377-.884-1.456-.884h-2.327c-.442.182-.676.481-.676.91 0 .585.429 1.079 1.521 1.079h1.014c1.209 0 1.924-.377 1.924-1.105zm-2.457-3.861c1.04 0 1.521-.533 1.521-1.326v-.377c0-.793-.481-1.313-1.521-1.313-1.027 0-1.508.52-1.508 1.313v.377c0 .793.481 1.326 1.508 1.326zm12.818 3.042v-.884h2.262v-4.94h-2.392v-.884h2.392v-1.378c0-.897.468-1.534 1.482-1.534h2.249v.884h-2.691v2.028h2.691v.884h-2.691v4.94h2.392v.884zm7.722 0v-.884h1.963v-4.94h-1.963v-.884h3.003v1.69h.065c.26-.884.858-1.69 2.262-1.69h.936v1.04h-1.261c-1.313 0-2.002.845-2.002 1.885v2.899h2.6v.884zm10.816.156c-1.924 0-3.146-1.378-3.146-3.497 0-2.145 1.261-3.523 3.081-3.523 1.807 0 2.977 1.378 2.977 3.276v.494h-4.966v.312c0 1.183.793 2.041 2.054 2.041.897 0 1.573-.442 1.924-1.17l.767.52c-.403.897-1.365 1.547-2.691 1.547zm-.065-6.162c-1.144 0-1.989.871-1.989 2.041v.091h3.848v-.143c0-1.183-.754-1.989-1.859-1.989zm7.865 6.162c-1.924 0-3.146-1.378-3.146-3.497 0-2.145 1.261-3.523 3.081-3.523 1.807 0 2.977 1.378 2.977 3.276v.494h-4.966v.312c0 1.183.793 2.041 2.054 2.041.897 0 1.573-.442 1.924-1.17l.767.52c-.403.897-1.365 1.547-2.691 1.547zm-.065-6.162c-1.144 0-1.989.871-1.989 2.041v.091h3.848v-.143c0-1.183-.754-1.989-1.859-1.989zm15.964-2.184c-.598 0-.819-.286-.819-.663v-.208c0-.377.221-.663.819-.663s.819.286.819.663v.208c0 .377-.221.663-.819.663zm-2.938 8.19v-.884h2.418v-4.94h-2.418v-.884h3.458v5.824h2.262v.884zm8.736 0h-1.04v-6.708h1.04v1.092h.052c.286-.663.806-1.248 1.911-1.248 1.404 0 2.327.936 2.327 2.561v4.303h-1.04v-4.121c0-1.222-.559-1.82-1.586-1.82-.832 0-1.664.403-1.664 1.287zm6.721 2.6v-9.308h1.04v1.092h.052c.429-.819 1.131-1.248 2.067-1.248 1.638 0 2.626 1.313 2.626 3.51s-.988 3.51-2.626 3.51c-.936 0-1.638-.429-2.067-1.248h-.052v3.692zm2.756-3.367c1.209 0 1.911-.806 1.911-2.015v-1.144c0-1.209-.702-2.015-1.911-2.015-.923 0-1.716.481-1.716 1.378v2.418c0 .897.793 1.378 1.716 1.378zm9.295.767v-1.092h-.052c-.286.663-.806 1.248-1.911 1.248-1.404 0-2.327-.936-2.327-2.561v-4.303h1.04v4.121c0 1.222.559 1.82 1.586 1.82.832 0 1.664-.403 1.664-1.287v-4.654h1.04v6.708zm9.152 0h-2.613c-1.014 0-1.482-.637-1.482-1.534v-4.29h-2.236v-.884h1.664c.442 0 .611-.156.611-.611v-1.755h1.001v2.366h3.055v.884h-3.055v4.94h3.055zm-127.764 30.156c-1.625 0-2.613-.663-3.289-1.599l.793-.65c.702.884 1.443 1.313 2.535 1.313 1.313 0 2.028-.637 2.028-1.729 0-.884-.455-1.352-1.69-1.56l-1.014-.169c-1.781-.299-2.34-1.326-2.34-2.47 0-1.664 1.183-2.522 3.029-2.522 1.443 0 2.431.52 3.042 1.391l-.767.663c-.507-.663-1.157-1.118-2.288-1.118-1.222 0-1.911.533-1.911 1.56 0 .806.416 1.326 1.703 1.547l.975.169c1.781.312 2.366 1.3 2.366 2.483 0 1.677-1.157 2.691-3.172 2.691zm10.764-.156h-2.613c-1.014 0-1.482-.637-1.482-1.534v-4.29h-2.236v-.884h1.664c.442 0 .611-.156.611-.611v-1.755h1.001v2.366h3.055v.884h-3.055v4.94h3.055zm1.963 0v-.884h1.963v-4.94h-1.963v-.884h3.003v1.69h.065c.26-.884.858-1.69 2.262-1.69h.936v1.04h-1.261c-1.313 0-2.002.845-2.002 1.885v2.899h2.6v.884zm11.115-8.19c-.598 0-.819-.286-.819-.663v-.208c0-.377.221-.663.819-.663s.819.286.819.663v.208c0 .377-.221.663-.819.663zm-2.938 8.19v-.884h2.418v-4.94h-2.418v-.884h3.458v5.824h2.262v.884zm8.736 0h-1.04v-6.708h1.04v1.092h.052c.286-.663.806-1.248 1.911-1.248 1.404 0 2.327.936 2.327 2.561v4.303h-1.04v-4.121c0-1.222-.559-1.82-1.586-1.82-.832 0-1.664.403-1.664 1.287zm12.779.767c0 1.352-1.144 1.989-3.38 1.989-2.158 0-3.042-.598-3.042-1.664 0-.715.403-1.105 1.092-1.287v-.156c-.377-.182-.598-.468-.598-.923 0-.689.52-1.001 1.209-1.17v-.052c-.819-.364-1.313-1.105-1.313-2.054 0-1.365 1.027-2.314 2.6-2.314.507 0 .949.091 1.326.273v-.117c0-.52.221-.91.806-.91h1.235v.91h-1.508v.455c.481.416.754 1.001.754 1.703 0 1.365-1.04 2.314-2.613 2.314-.221 0-.429-.013-.637-.052-.403.078-.962.312-.962.767 0 .403.442.494 1.079.494h1.482c1.729 0 2.47.702 2.47 1.794zm-.975.052c0-.533-.377-.884-1.456-.884h-2.327c-.442.182-.676.481-.676.91 0 .585.429 1.079 1.521 1.079h1.014c1.209 0 1.924-.377 1.924-1.105zm-2.457-3.861c1.04 0 1.521-.533 1.521-1.326v-.377c0-.793-.481-1.313-1.521-1.313-1.027 0-1.508.52-1.508 1.313v.377c0 .793.481 1.326 1.508 1.326zm13.403 3.042h-.962v-6.708h.962v.78h.052c.208-.52.546-.936 1.287-.936.767 0 1.144.429 1.222 1.053h.039c.247-.611.663-1.053 1.456-1.053 1.092 0 1.378.793 1.378 2.21v4.654h-.962v-4.485c0-1.144-.195-1.521-.819-1.521-.546 0-.936.364-.936 1.079v4.927h-.962v-4.485c0-1.144-.195-1.521-.806-1.521-.559 0-.949.364-.949 1.079zm11.622 0v-1.092h-.052c-.286.663-.806 1.248-1.911 1.248-1.404 0-2.327-.936-2.327-2.561v-4.303h1.04v4.121c0 1.222.559 1.82 1.586 1.82.832 0 1.664-.403 1.664-1.287v-4.654h1.04v6.708zm3.354 0v-.884h2.34v-7.852h-2.34v-.884h3.38v8.736h2.34v.884zm13.598 0h-2.613c-1.014 0-1.482-.637-1.482-1.534v-4.29h-2.236v-.884h1.664c.442 0 .611-.156.611-.611v-1.755h1.001v2.366h3.055v.884h-3.055v4.94h3.055zm5.278-8.19c-.598 0-.819-.286-.819-.663v-.208c0-.377.221-.663.819-.663s.819.286.819.663v.208c0 .377-.221.663-.819.663zm-2.938 8.19v-.884h2.418v-4.94h-2.418v-.884h3.458v5.824h2.262v.884zm7.657 2.6v-9.308h1.04v1.092h.052c.429-.819 1.131-1.248 2.067-1.248 1.638 0 2.626 1.313 2.626 3.51s-.988 3.51-2.626 3.51c-.936 0-1.638-.429-2.067-1.248h-.052v3.692zm2.756-3.367c1.209 0 1.911-.806 1.911-2.015v-1.144c0-1.209-.702-2.015-1.911-2.015-.923 0-1.716.481-1.716 1.378v2.418c0 .897.793 1.378 1.716 1.378zm4.849.767v-.884h2.34v-7.852h-2.34v-.884h3.38v8.736h2.34v.884zm10.777.156c-1.924 0-3.146-1.378-3.146-3.497 0-2.145 1.261-3.523 3.081-3.523 1.807 0 2.977 1.378 2.977 3.276v.494h-4.966v.312c0 1.183.793 2.041 2.054 2.041.897 0 1.573-.442 1.924-1.17l.767.52c-.403.897-1.365 1.547-2.691 1.547zm-.065-6.162c-1.144 0-1.989.871-1.989 2.041v.091h3.848v-.143c0-1.183-.754-1.989-1.859-1.989zm15.782 6.162c-1.924 0-3.042-1.391-3.042-3.51 0-2.132 1.131-3.51 3.029-3.51 1.3 0 2.106.637 2.483 1.547l-.832.442c-.247-.689-.819-1.092-1.651-1.092-1.222 0-1.911.858-1.911 2.041v1.144c0 1.183.676 2.041 1.937 2.041.897 0 1.482-.442 1.82-1.17l.741.507c-.39.897-1.235 1.56-2.574 1.56zm4.94-.156v-9.62h1.04v4.004h.052c.286-.663.806-1.248 1.911-1.248 1.404 0 2.327.936 2.327 2.561v4.303h-1.04v-4.121c0-1.222-.559-1.82-1.586-1.82-.832 0-1.664.403-1.664 1.287v4.654zm10.426.156c-1.885 0-3.042-1.378-3.042-3.51s1.157-3.51 3.042-3.51 3.042 1.378 3.042 3.51-1.157 3.51-3.042 3.51zm0-.897c1.157 0 1.937-.689 1.937-2.132v-.962c0-1.443-.78-2.132-1.937-2.132s-1.937.689-1.937 2.132v.962c0 1.443.78 2.132 1.937 2.132zm8.216-7.449c-.598 0-.819-.286-.819-.663v-.208c0-.377.221-.663.819-.663s.819.286.819.663v.208c0 .377-.221.663-.819.663zm-2.938 8.19v-.884h2.418v-4.94h-2.418v-.884h3.458v5.824h2.262v.884zm10.556.156c-1.924 0-3.042-1.391-3.042-3.51 0-2.132 1.131-3.51 3.029-3.51 1.3 0 2.106.637 2.483 1.547l-.832.442c-.247-.689-.819-1.092-1.651-1.092-1.222 0-1.911.858-1.911 2.041v1.144c0 1.183.676 2.041 1.937 2.041.897 0 1.482-.442 1.82-1.17l.741.507c-.39.897-1.235 1.56-2.574 1.56zm7.683 0c-1.924 0-3.146-1.378-3.146-3.497 0-2.145 1.261-3.523 3.081-3.523 1.807 0 2.977 1.378 2.977 3.276v.494h-4.966v.312c0 1.183.793 2.041 2.054 2.041.897 0 1.573-.442 1.924-1.17l.767.52c-.403.897-1.365 1.547-2.691 1.547zm-.065-6.162c-1.144 0-1.989.871-1.989 2.041v.091h3.848v-.143c0-1.183-.754-1.989-1.859-1.989zm-161.044 36.006h-5.616v-.871h2.262v-7.332h-2.262v-.871h5.616v.871h-2.262v7.332h2.262zm3.406 0h-1.04v-6.708h1.04v1.092h.052c.286-.663.806-1.248 1.911-1.248 1.404 0 2.327.936 2.327 2.561v4.303h-1.04v-4.121c0-1.222-.559-1.82-1.586-1.82-.832 0-1.664.403-1.664 1.287zm12.324 0h-2.613c-1.014 0-1.482-.637-1.482-1.534v-4.29h-2.236v-.884h1.664c.442 0 .611-.156.611-.611v-1.755h1.001v2.366h3.055v.884h-3.055v4.94h3.055zm4.979.156c-1.924 0-3.146-1.378-3.146-3.497 0-2.145 1.261-3.523 3.081-3.523 1.807 0 2.977 1.378 2.977 3.276v.494h-4.966v.312c0 1.183.793 2.041 2.054 2.041.897 0 1.573-.442 1.924-1.17l.767.52c-.403.897-1.365 1.547-2.691 1.547zm-.065-6.162c-1.144 0-1.989.871-1.989 2.041v.091h3.848v-.143c0-1.183-.754-1.989-1.859-1.989zm11.141 6.773c0 1.352-1.144 1.989-3.38 1.989-2.158 0-3.042-.598-3.042-1.664 0-.715.403-1.105 1.092-1.287v-.156c-.377-.182-.598-.468-.598-.923 0-.689.52-1.001 1.209-1.17v-.052c-.819-.364-1.313-1.105-1.313-2.054 0-1.365 1.027-2.314 2.6-2.314.507 0 .949.091 1.326.273v-.117c0-.52.221-.91.806-.91h1.235v.91h-1.508v.455c.481.416.754 1.001.754 1.703 0 1.365-1.04 2.314-2.613 2.314-.221 0-.429-.013-.637-.052-.403.078-.962.312-.962.767 0 .403.442.494 1.079.494h1.482c1.729 0 2.47.702 2.47 1.794zm-.975.052c0-.533-.377-.884-1.456-.884h-2.327c-.442.182-.676.481-.676.91 0 .585.429 1.079 1.521 1.079h1.014c1.209 0 1.924-.377 1.924-1.105zm-2.457-3.861c1.04 0 1.521-.533 1.521-1.326v-.377c0-.793-.481-1.313-1.521-1.313-1.027 0-1.508.52-1.508 1.313v.377c0 .793.481 1.326 1.508 1.326zm7.956 3.198c-1.924 0-3.146-1.378-3.146-3.497 0-2.145 1.261-3.523 3.081-3.523 1.807 0 2.977 1.378 2.977 3.276v.494h-4.966v.312c0 1.183.793 2.041 2.054 2.041.897 0 1.573-.442 1.924-1.17l.767.52c-.403.897-1.365 1.547-2.691 1.547zm-.065-6.162c-1.144 0-1.989.871-1.989 2.041v.091h3.848v-.143c0-1.183-.754-1.989-1.859-1.989zm4.849 6.006v-.884h1.963v-4.94h-1.963v-.884h3.003v1.69h.065c.26-.884.858-1.69 2.262-1.69h.936v1.04h-1.261c-1.313 0-2.002.845-2.002 1.885v2.899h2.6v.884zm-46.657 30v-9.074h3.081c1.547 0 2.496.923 2.496 2.34 0 1.079-.585 1.69-1.417 1.95v.039c1.014.234 1.755.871 1.755 2.132 0 1.469-1.04 2.613-2.444 2.613zm1.092-.949h2.054c1.001 0 1.612-.455 1.612-1.378v-.533c0-.91-.611-1.378-1.612-1.378h-2.054zm0-4.186h1.872c.91 0 1.469-.403 1.469-1.235v-.507c0-.832-.559-1.248-1.469-1.248h-1.872zm9.464 5.291c-1.885 0-3.042-1.378-3.042-3.51s1.157-3.51 3.042-3.51 3.042 1.378 3.042 3.51-1.157 3.51-3.042 3.51zm0-.897c1.157 0 1.937-.689 1.937-2.132v-.962c0-1.443-.78-2.132-1.937-2.132s-1.937.689-1.937 2.132v.962c0 1.443.78 2.132 1.937 2.132zm7.8.897c-1.885 0-3.042-1.378-3.042-3.51s1.157-3.51 3.042-3.51 3.042 1.378 3.042 3.51-1.157 3.51-3.042 3.51zm0-.897c1.157 0 1.937-.689 1.937-2.132v-.962c0-1.443-.78-2.132-1.937-2.132s-1.937.689-1.937 2.132v.962c0 1.443.78 2.132 1.937 2.132zm4.94.741v-.884h2.34v-7.852h-2.34v-.884h3.38v8.736h2.34v.884zm10.777.156c-1.924 0-3.146-1.378-3.146-3.497 0-2.145 1.261-3.523 3.081-3.523 1.807 0 2.977 1.378 2.977 3.276v.494h-4.966v.312c0 1.183.793 2.041 2.054 2.041.897 0 1.573-.442 1.924-1.17l.767.52c-.403.897-1.365 1.547-2.691 1.547zm-.065-6.162c-1.144 0-1.989.871-1.989 2.041v.091h3.848v-.143c0-1.183-.754-1.989-1.859-1.989zm10.998 6.006h-.715c-.806 0-1.118-.468-1.196-1.092h-.065c-.286.767-.923 1.248-2.015 1.248-1.404 0-2.301-.78-2.301-2.041 0-1.235.871-1.95 2.886-1.95h1.43v-.663c0-.975-.585-1.482-1.599-1.482-.897 0-1.443.377-1.794.988l-.702-.52c.338-.702 1.196-1.352 2.561-1.352 1.573 0 2.574.845 2.574 2.262v3.692h.936zm-3.809-.715c1.066 0 1.833-.546 1.833-1.235v-1.105h-1.43c-1.235 0-1.794.364-1.794 1.014v.273c0 .689.533 1.053 1.391 1.053zm6.773.715h-1.04v-6.708h1.04v1.092h.052c.286-.663.806-1.248 1.911-1.248 1.404 0 2.327.936 2.327 2.561v4.303h-1.04v-4.121c0-1.222-.559-1.82-1.586-1.82-.832 0-1.664.403-1.664 1.287zm-47.879 30v-9.074h2.535c2.21 0 3.302 1.56 3.302 4.537s-1.092 4.537-3.302 4.537zm1.092-.949h1.391c1.443 0 2.197-1.066 2.197-2.886v-1.404c0-1.82-.754-2.886-2.197-2.886h-1.391zm12.623.949h-.715c-.806 0-1.118-.468-1.196-1.092h-.065c-.286.767-.923 1.248-2.015 1.248-1.404 0-2.301-.78-2.301-2.041 0-1.235.871-1.95 2.886-1.95h1.43v-.663c0-.975-.585-1.482-1.599-1.482-.897 0-1.443.377-1.794.988l-.702-.52c.338-.702 1.196-1.352 2.561-1.352 1.573 0 2.574.845 2.574 2.262v3.692h.936zm-3.809-.715c1.066 0 1.833-.546 1.833-1.235v-1.105h-1.43c-1.235 0-1.794.364-1.794 1.014v.273c0 .689.533 1.053 1.391 1.053zm11.297.715h-2.613c-1.014 0-1.482-.637-1.482-1.534v-4.29h-2.236v-.884h1.664c.442 0 .611-.156.611-.611v-1.755h1.001v2.366h3.055v.884h-3.055v4.94h3.055zm4.979.156c-1.924 0-3.146-1.378-3.146-3.497 0-2.145 1.261-3.523 3.081-3.523 1.807 0 2.977 1.378 2.977 3.276v.494h-4.966v.312c0 1.183.793 2.041 2.054 2.041.897 0 1.573-.442 1.924-1.17l.767.52c-.403.897-1.365 1.547-2.691 1.547zm-.065-6.162c-1.144 0-1.989.871-1.989 2.041v.091h3.848v-.143c0-1.183-.754-1.989-1.859-1.989z"/><path d="m293.9 198.13c-.819 0-1.131-.403-1.131-.897v-.338c0-.494.312-.897 1.131-.897s1.131.403 1.131.897v.338c0 .494-.312.897-1.131.897zm7.8 0c-.819 0-1.131-.403-1.131-.897v-.338c0-.494.312-.897 1.131-.897s1.131.403 1.131.897v.338c0 .494-.312.897-1.131.897zm7.8 0c-.819 0-1.131-.403-1.131-.897v-.338c0-.494.312-.897 1.131-.897s1.131.403 1.131.897v.338c0 .494-.312.897-1.131.897z"/></g></g></svg>