<svg height="163" viewBox="0 0 352 163" width="352" xmlns="http://www.w3.org/2000/svg"><g fill="none" fill-rule="evenodd" transform="translate(0 -6)"><ellipse cx="176" cy="146" fill="#000" opacity=".204484" rx="176" ry="22"/><g transform="matrix(.99862953 .05233596 -.05233596 .99862953 135.551341 114.479777)"><path d="m.5879361 15.7358938 20.1813952-13.27007645 119.7225577-1.67528255-21.098714 15.3106627" fill="#fff" stroke="#000" stroke-width="2"/><path d="m0 15h121v5c0 1.1045695-.895431 2-2 2h-119z" fill="#ccc" fill-rule="evenodd"/><g stroke="#000" stroke-width="2"><path d="m1 16v5h118c.552285 0 1-.4477153 1-1v-4z"/><path d="m120.423786 15.7467413 19.294029-14.20984671v6.02589463c0 1.87849668-1.052897 3.59848978-2.725845 4.45288858l-16.326729 8.3383006z" fill="#000"/></g></g><path d="m275 121h29v18h-29z" fill="#000"/><path d="m277.505985 130.125463h33.494015c2.761424 0 5 2.238576 5 5v7.488994l-62.549085.053052z" fill="#000"/><path d="m308 18h22c2.761424 0 5 2.2385763 5 5v87.870969c0 2.761424-2.238576 5-5 5h-22z" fill="#ccc" stroke="#000" stroke-width="2"/><path d="m293 19.0039163h36.142073c2.174575 0 5.256892.5592304 4.848078 5.7026868-8.775099 0-22.438483 0-40.990151 0" fill="#fff"/><path d="m271 10.2999878h44.488095c3.320284 0 6.011905 2.2285992 6.011905 4.9777156v93.0891376c0 8.247349-8.074864 14.933147-18.035714 14.933147h-32.464286" fill="#ccc" stroke="#000" stroke-width="2"/><path d="m274.008721 11h40.506365c3.686771 0 5.993635.6887164 5.993635 5.7158035-9.834726 0-25.334726 0-46.5 0" fill="#fff"/><g stroke-width="2"><path d="m321.5 110c-2.616355 5.397874-8.052077 11.052747-17.672413 12.018118h-28.827587v-12.018118z" fill="#000" stroke="#000"/><path d="m333.092792 108c0 6.009059.126263 6.786733-2.949228 6.786733h-8.643564v-6.786733z" fill="#000" stroke="#000"/><path d="m282 86h27v1h-27z" stroke="#fff" stroke-linecap="round" stroke-linejoin="round"/><path d="m288 86h27v1h-27z" stroke="#000" stroke-linecap="round" stroke-linejoin="round"/><path d="m282 80h27v1h-27z" stroke="#fff" stroke-linecap="round" stroke-linejoin="round"/><path d="m288 80h27v1h-27z" stroke="#000" stroke-linecap="round" stroke-linejoin="round"/><path d="m282 93h27v1h-27z" stroke="#fff" stroke-linecap="round" stroke-linejoin="round"/><path d="m288 93h27v1h-27z" stroke="#000" stroke-linecap="round" stroke-linejoin="round"/><path d="m282 100h27v1h-27z" stroke="#fff" stroke-linecap="round" stroke-linejoin="round"/><path d="m288 100h27v1h-27z" stroke="#000" stroke-linecap="round" stroke-linejoin="round"/><path d="m162.175002 14.5775242 107.624515-4.3188471c2.759203-.1107236 5.085738 2.0362932 5.196462 4.7954962.00268.0667941.004021.1336351.004021.2004829v103.0484308c0 2.761423-2.238576 5-5 5-.082171 0-.16433-.002026-.246401-.006075l-109.75718-5.415438c-2.706625-.133546-4.814211-2.398958-4.752293-5.108169l2.132664-93.3141453c.060304-2.6385878 2.161057-4.7759096 4.798212-4.8817355z" fill="#fff" stroke="#000"/></g><path d="m178.736187 29.5057882 76.635569-4.2156368c2.757255-.1516735 5.115408 1.9605678 5.267081 4.717823.005031.0914567.007548.1830343.007548.2746292v72.2526734c0 2.761424-2.238576 5-5 5-.067486 0-.134964-.001367-.202395-.004098l-79.874949-3.2359c-2.75916-.111779-4.905286-2.439136-4.793507-5.1982965.000638-.0157505.00135-.0314979.002138-.0472417l3.23938-64.8011365c.127751-2.555555 2.164252-4.6022748 4.719135-4.7428161z" fill="#fff" fill-rule="evenodd"/><path d="m178.791113 30.5042787c-2.043906.112433-3.673107 1.7498088-3.775308 3.7942528l-3.239381 64.8011365c-.000914.018894-.000914.018894-.00171.0377934-.089423 2.2073286 1.627478 4.0692136 3.834806 4.1586366l79.874949 3.2359c.053945.002186.107927.003279.161916.003279 2.209139 0 4-1.790861 4-4v-72.2526734c0-.0732759-.002014-.146538-.006038-.2197033-.121339-2.2058042-2.007861-3.8955972-4.213666-3.7742584z" stroke="#000" stroke-width="2"/><path d="m176.673583 27.6806424h3.49357l-2.148431 76.5269756h-2.975243c-2.761424 0-5-2.238576-5-5.0000001 0-.0408306.0005-.0816596.0015-.1224778l1.630105-66.5269754c.066473-2.7128946 2.28479-4.8775223 4.998499-4.8775223z" fill="#000"/><path d="m176.676688 27.552452 78.815347-2.4341916c2.760107-.0852452 5.066722 2.0831592 5.151967 4.8432669.001588.0514347.002383.1028909.002383.1543501v1.1822127l-88.815347 2.7019099v-1.449931c0-2.7013276 2.145609-4.914227 4.84565-4.997617z" fill="#000"/><ellipse cx="155.5" cy="70.5" fill="#fff" rx="6.5" ry="11.5" stroke="#000" stroke-width="2"/><path d="m80.2762391 116.885739c22.5575329 4.613657 64.3801389 8.448839 83.2827919 0-2.707989-26.511664-12.100535-81.6256702-42.747121-79.8403706-30.6465865 1.7852996-38.2707097 53.9257249-40.5356709 79.8403706z" fill="#00f"/><path d="m44.8997445 160.15293c-34.790586-6.248169-8.5378026-50.15293 73.9543305-50.15293 82.492133 0 136.926853 53.997118 112.224823 56.401099-24.702029 2.403981-151.3885675 0-186.1791535-6.248169z" fill="#fff" stroke="#000" stroke-linecap="round" stroke-linejoin="round" stroke-width="2"/><path d="m162.167775 69.8349801c-18.96932 0-32.297731 0-39.98523 0-11.53125 0-11.711403 16.0563062 0 16.0563062" stroke="#000" stroke-width="2"/><path d="m85.2295373 11c-14.0918312 7.7655808-19.1174988 12.0185429-15.0770026 12.7588863 6.0607443 1.1105152 24.1866083-12.3694392 26.0482568-8.4621313s-20.2288905 11.2173291-20.2288905 14.4805986 12.7267888-4.9587229 18.2023754-4.9587229c5.4755867 0-9.8422114 6.5317771-8.9447391 9.881226.5983149 2.2329659 3.5798946 2.7971933 8.9447391 1.692682" stroke="#000" stroke-linecap="round" stroke-linejoin="round" stroke-width="2"/><path d="m85.7755364 8.19601118c-16.5510125 9.44077872-22.8062707 14.53133972-18.7657745 15.27168312 6.0607443 1.1105152 26.7401546-14.81708405 28.6018031-10.9097761 1.8616486 3.9073079-24.9130312 14.9464263-24.9130312 18.2096957 0 3.2632695 20.5726701-9.8127164 26.0482567-9.8127164 5.4755865 0-15.6250291 9.590397-14.7275569 12.9398459" stroke="#000" stroke-linecap="round" stroke-linejoin="round" stroke-width="2" transform="matrix(-.5 .8660254 .8660254 .5 104.381055 -60.26443)"/><path d="m215.164 78h-3.892l-1.372-4.956h-5.796l-1.344 4.956h-3.696l5.488-19.544h5.096zm-5.88-7.952-2.156-7.98h-.224l-2.156 7.98zm20.832 7.952h-12.432v-2.744h4.396v-14.056h-4.396v-2.744h12.432v2.744h-4.396v14.056h4.396z" fill="#000"/></g></svg>