<svg height="61" viewBox="0 0 976 61" width="976" xmlns="http://www.w3.org/2000/svg"><g fill="none" fill-rule="evenodd"><rect height="57" rx="5" stroke="#000" stroke-width="3" width="122" x="1.5" y="2.5"/><rect height="57" rx="5" stroke="#000" stroke-width="3" width="122" x="852.5" y="1.5"/><rect fill="#00f" height="60" rx="5" width="200" x="388" y="1"/><path d="m39.384 41.112v2.28h-3.24c-2.376 0-3.312-1.32-3.312-3.288v-.936c-3.408-.6-4.968-3.672-4.968-8.544 0-5.472 1.968-8.664 6.336-8.664s6.336 3.192 6.336 8.664c0 4.872-1.56 7.944-4.968 8.544v1.944zm-5.184-4.392c2.232 0 3-1.776 3-4.68v-2.856c0-2.88-.768-4.656-3-4.656s-3 1.776-3 4.656v2.88c0 2.88.768 4.656 3 4.656zm16.728 2.28v-2.184h-.12c-.552 1.344-1.608 2.472-3.624 2.472-2.424 0-4.104-1.68-4.104-4.68v-7.992h3.072v7.56c0 1.776.792 2.688 2.328 2.688 1.248 0 2.448-.648 2.448-1.968v-8.28h3.072v12.384zm12.36.288c-3.96 0-6.168-2.496-6.168-6.456 0-4.008 2.304-6.504 5.928-6.504 3.576 0 5.832 2.472 5.832 6.216v1.008h-8.688v.312c0 1.776 1.176 3 3.192 3 1.512 0 2.616-.672 3.36-1.704l1.752 1.752c-.888 1.296-2.592 2.376-5.208 2.376zm-.216-10.704c-1.728 0-2.88 1.2-2.88 2.976v.168h5.616v-.216c0-1.776-1.056-2.928-2.736-2.928zm16.656 10.416v-2.184h-.12c-.552 1.344-1.608 2.472-3.624 2.472-2.424 0-4.104-1.68-4.104-4.68v-7.992h3.072v7.56c0 1.776.792 2.688 2.328 2.688 1.248 0 2.448-.648 2.448-1.968v-8.28h3.072v12.384zm12.36.288c-3.96 0-6.168-2.496-6.168-6.456 0-4.008 2.304-6.504 5.928-6.504 3.576 0 5.832 2.472 5.832 6.216v1.008h-8.688v.312c0 1.776 1.176 3 3.192 3 1.512 0 2.616-.672 3.36-1.704l1.752 1.752c-.888 1.296-2.592 2.376-5.208 2.376zm-.216-10.704c-1.728 0-2.88 1.2-2.88 2.976v.168h5.616v-.216c0-1.776-1.056-2.928-2.736-2.928z" fill="#000"/><path d="m886.952 39v-16.752h5.208c4.344 0 6.456 2.952 6.456 8.376s-2.112 8.376-6.456 8.376zm3.096-2.52h1.896c2.304 0 3.384-1.56 3.384-4.416v-2.904c0-2.832-1.08-4.392-3.384-4.392h-1.896zm16.752 2.808c-3.744 0-6.048-2.496-6.048-6.48s2.304-6.48 6.048-6.48 6.048 2.496 6.048 6.48-2.304 6.48-6.048 6.48zm0-2.352c1.752 0 2.856-1.104 2.856-3.168v-1.92c0-2.064-1.104-3.168-2.856-3.168s-2.856 1.104-2.856 3.168v1.92c0 2.064 1.104 3.168 2.856 3.168zm12.072 2.064h-3.072v-12.384h3.072v2.184h.12c.552-1.344 1.608-2.472 3.624-2.472 2.424 0 4.104 1.68 4.104 4.68v7.992h-3.072v-7.56c0-1.776-.792-2.688-2.328-2.688-1.248 0-2.448.648-2.448 1.968zm17.016.288c-3.96 0-6.168-2.496-6.168-6.456 0-4.008 2.304-6.504 5.928-6.504 3.576 0 5.832 2.472 5.832 6.216v1.008h-8.688v.312c0 1.776 1.176 3 3.192 3 1.512 0 2.616-.672 3.36-1.704l1.752 1.752c-.888 1.296-2.592 2.376-5.208 2.376zm-.216-10.704c-1.728 0-2.88 1.2-2.88 2.976v.168h5.616v-.216c0-1.776-1.056-2.928-2.736-2.928z" fill="#000"/><path d="m430.88 39.288c-4.248 0-6.288-3.12-6.288-8.664s2.04-8.664 6.288-8.664c3.24 0 4.728 1.872 5.496 4.152l-2.424.816c-.504-1.536-1.2-2.736-3.096-2.736-2.376 0-3.408 1.944-3.408 5.016v2.832c0 3.072 1.032 5.016 3.408 5.016 1.896 0 2.592-1.2 3.096-2.736l2.424.816c-.768 2.28-2.256 4.152-5.496 4.152zm20.664-.288h-2.856l-1.272-4.464h-5.328l-1.272 4.464h-2.736l4.896-16.752h3.672zm-4.632-6.696-2.064-7.344h-.192l-2.064 7.344zm15.912.696h-7.248v-2.616h7.248zm5.568 6v-16.752h5.784c3.024 0 4.8 1.704 4.8 4.392 0 1.944-1.032 3.072-2.664 3.552v.12c1.944.456 3.24 1.656 3.24 3.96 0 2.736-1.896 4.728-4.728 4.728zm2.64-2.064h2.976c1.776 0 2.784-.72 2.784-2.328v-.864c0-1.632-1.008-2.328-2.784-2.328h-2.976zm0-7.488h2.592c1.68 0 2.592-.624 2.592-2.136v-.864c0-1.512-.912-2.136-2.592-2.136h-2.592zm11.592 9.552v-2.112h3.288v-8.16h-3.288v-2.112h5.904v3.288h.144c.48-1.728 1.56-3.288 4.08-3.288h1.488v2.496h-2.448c-2.136 0-3.264 1.416-3.264 3.144v4.632h4.488v2.112zm20.04.288c-3.792 0-6.024-2.52-6.024-6.456 0-3.984 2.304-6.504 5.832-6.504 3.48 0 5.688 2.496 5.688 6.144v.984h-8.88v.408c0 1.944 1.296 3.312 3.432 3.312 1.584 0 2.736-.744 3.432-1.896l1.632 1.44c-.84 1.44-2.568 2.568-5.112 2.568zm-.192-10.968c-1.872 0-3.192 1.368-3.192 3.288v.168h6.216v-.24c0-1.944-1.2-3.216-3.024-3.216zm20.544 10.68h-1.608c-1.488 0-2.232-.84-2.376-2.088h-.12c-.48 1.488-1.776 2.376-3.72 2.376-2.52 0-4.152-1.416-4.152-3.744 0-2.4 1.752-3.696 5.424-3.696h2.376v-.96c0-1.656-.888-2.52-2.664-2.52-1.584 0-2.52.672-3.192 1.704l-1.56-1.272c.696-1.344 2.376-2.472 4.992-2.472 3.12 0 5.04 1.56 5.04 4.392v6.216h1.56zm-7.08-1.632c1.68 0 2.904-.84 2.904-2.064v-1.8h-2.328c-1.92 0-2.832.6-2.832 1.704v.48c0 1.104.864 1.68 2.256 1.68zm15.288 1.92c-2.664 0-4.632-.936-5.808-2.376l1.608-1.44c1.08 1.176 2.4 1.824 4.248 1.824 1.68 0 2.832-.552 2.832-1.776 0-1.056-.84-1.344-1.896-1.488l-1.968-.312c-1.944-.288-4.128-.984-4.128-3.528 0-2.52 2.112-3.864 5.28-3.864 2.304 0 3.96.72 5.088 1.944l-1.464 1.536c-.648-.744-1.776-1.488-3.72-1.488-1.704 0-2.616.576-2.616 1.656 0 1.056.864 1.344 1.896 1.488l1.968.312c1.968.288 4.128.96 4.128 3.504 0 2.496-2.064 4.008-5.448 4.008zm19.848-.288h-4.728c-2.16 0-3.168-1.296-3.168-3.144v-7.128h-3.816v-2.112h2.712c.912 0 1.272-.312 1.272-1.272v-3.096h2.448v4.368h5.28v2.112h-5.28v8.16h5.28z" fill="#fff"/><g stroke="#000" stroke-linecap="square" stroke-width="3"><path d="m589.5 31h258"/><path d="m836.7 34 10.8-3-10.8-3"/><path d="m124.5 31h259"/><path d="m372.7 34 10.8-3-10.8-3"/></g><path d="m192.512 18v-7.752l.144-4.848h-.216l-3.24 8.616-3.24-8.616h-.216l.144 4.848v7.752h-2.736v-16.752h3.744l2.328 6.168h.168l2.352-6.168h3.504v16.752zm17.448 0h-1.8c-1.488 0-2.328-.816-2.472-2.136h-.12c-.456 1.536-1.824 2.424-3.744 2.424-2.472 0-4.08-1.392-4.08-3.72 0-2.496 1.848-3.744 5.496-3.744h2.184v-.816c0-1.56-.744-2.376-2.448-2.376-1.56 0-2.448.672-3.12 1.632l-1.752-1.488c.768-1.368 2.496-2.448 5.184-2.448 3.24 0 5.208 1.56 5.208 4.536v5.832h1.464zm-7.104-1.824c1.464 0 2.568-.744 2.568-1.92v-1.656h-2.112c-1.68 0-2.52.552-2.52 1.584v.48c0 .984.792 1.512 2.064 1.512zm11.376 1.824h-2.544v-12.384h2.544v1.704h.144c.384-1.104 1.032-1.992 2.352-1.992 1.248 0 1.992.768 2.208 2.064h.12c.432-1.128 1.152-2.064 2.664-2.064 1.8 0 2.568 1.344 2.568 3.888v8.784h-2.52v-8.424c0-1.44-.408-1.944-1.2-1.944-.744 0-1.296.48-1.296 1.464v8.904h-2.544v-8.424c0-1.44-.384-1.944-1.176-1.944-.768 0-1.32.48-1.32 1.464zm14.4 0h-2.544v-12.384h2.544v1.704h.144c.384-1.104 1.032-1.992 2.352-1.992 1.248 0 1.992.768 2.208 2.064h.12c.432-1.128 1.152-2.064 2.664-2.064 1.8 0 2.568 1.344 2.568 3.888v8.784h-2.52v-8.424c0-1.44-.408-1.944-1.2-1.944-.744 0-1.296.48-1.296 1.464v8.904h-2.544v-8.424c0-1.44-.384-1.944-1.176-1.944-.768 0-1.32.48-1.32 1.464zm18.168.288c-3.744 0-6.048-2.496-6.048-6.48s2.304-6.48 6.048-6.48 6.048 2.496 6.048 6.48-2.304 6.48-6.048 6.48zm0-2.352c1.752 0 2.856-1.104 2.856-3.168v-1.92c0-2.064-1.104-3.168-2.856-3.168s-2.856 1.104-2.856 3.168v1.92c0 2.064 1.104 3.168 2.856 3.168zm21.024 3.36c0 2.592-2.136 3.792-6.672 3.792-4.488 0-5.88-1.152-5.88-2.928 0-1.368.84-2.04 2.28-2.4v-.192c-.96-.312-1.56-.864-1.56-1.872 0-1.224.912-1.752 2.232-2.064v-.12c-1.464-.696-2.352-2.016-2.352-3.816 0-2.736 2.064-4.368 5.208-4.368.84 0 1.608.12 2.256.336v-.528c0-.96.648-1.68 1.776-1.68h2.232v2.304h-2.928v.408c1.2.72 1.896 1.92 1.896 3.528 0 2.76-2.088 4.368-5.232 4.368-.624 0-1.224-.048-1.776-.192-.456.168-.96.504-.96 1.08 0 .768.84.84 1.872.84h2.808c3.432 0 4.8 1.44 4.8 3.504zm-2.88.216c0-.744-.504-1.2-2.088-1.2h-4.272c-.48.264-.72.672-.72 1.2 0 .864.672 1.512 2.376 1.512h1.992c1.8 0 2.712-.528 2.712-1.512zm-3.864-7.464c1.56 0 2.28-.84 2.28-2.04v-.624c0-1.2-.72-2.04-2.28-2.04-1.536 0-2.256.84-2.256 2.04v.624c0 1.2.72 2.04 2.256 2.04zm9.12 5.952v-2.424h3.072v-7.536h-3.072v-2.424h6.144v3.384h.192c.456-1.752 1.512-3.384 3.984-3.384h1.344v2.88h-2.544c-1.944 0-2.976 1.32-2.976 2.904v4.176h4.296v2.424zm26.16 0h-1.8c-1.488 0-2.328-.816-2.472-2.136h-.12c-.456 1.536-1.824 2.424-3.744 2.424-2.472 0-4.08-1.392-4.08-3.72 0-2.496 1.848-3.744 5.496-3.744h2.184v-.816c0-1.56-.744-2.376-2.448-2.376-1.56 0-2.448.672-3.12 1.632l-1.752-1.488c.768-1.368 2.496-2.448 5.184-2.448 3.24 0 5.208 1.56 5.208 4.536v5.832h1.464zm-7.104-1.824c1.464 0 2.568-.744 2.568-1.92v-1.656h-2.112c-1.68 0-2.52.552-2.52 1.584v.48c0 .984.792 1.512 2.064 1.512zm11.376 1.824h-2.544v-12.384h2.544v1.704h.144c.384-1.104 1.032-1.992 2.352-1.992 1.248 0 1.992.768 2.208 2.064h.12c.432-1.128 1.152-2.064 2.664-2.064 1.8 0 2.568 1.344 2.568 3.888v8.784h-2.52v-8.424c0-1.44-.408-1.944-1.2-1.944-.744 0-1.296.48-1.296 1.464v8.904h-2.544v-8.424c0-1.44-.384-1.944-1.176-1.944-.768 0-1.32.48-1.32 1.464zm18.12.288c-2.712 0-4.752-.912-5.856-2.352l1.8-1.632c1.008 1.104 2.328 1.752 4.08 1.752 1.536 0 2.544-.504 2.544-1.56 0-.888-.696-1.128-1.704-1.272l-1.992-.312c-2.064-.312-4.032-1.128-4.032-3.576 0-2.568 2.088-4.008 5.448-4.008 2.376 0 4.056.72 5.136 1.92l-1.608 1.776c-.696-.768-1.848-1.464-3.624-1.464-1.536 0-2.352.504-2.352 1.464 0 .888.72 1.152 1.728 1.296l1.968.312c2.088.312 4.056 1.104 4.056 3.552 0 2.544-2.088 4.104-5.592 4.104z" fill="#000"/><path d="m675.164 11.496v6.504h-3.144v-16.752h6.36c3.24 0 5.04 1.992 5.04 5.184 0 2.448-1.2 4.248-3.288 4.704l3.576 6.864h-3.456l-3.192-6.504zm0-2.448h2.568c1.68 0 2.376-.672 2.376-2.16v-.912c0-1.488-.696-2.16-2.376-2.16h-2.568zm16.824 9.24c-3.96 0-6.168-2.496-6.168-6.456 0-4.008 2.304-6.504 5.928-6.504 3.576 0 5.832 2.472 5.832 6.216v1.008h-8.688v.312c0 1.776 1.176 3 3.192 3 1.512 0 2.616-.672 3.36-1.704l1.752 1.752c-.888 1.296-2.592 2.376-5.208 2.376zm-.216-10.704c-1.728 0-2.88 1.2-2.88 2.976v.168h5.616v-.216c0-1.776-1.056-2.928-2.736-2.928zm8.784 15.216v-17.184h3.072v2.184h.168c.672-1.488 1.8-2.472 3.696-2.472 2.832 0 4.728 2.112 4.728 6.48s-1.896 6.48-4.728 6.48c-1.896 0-3.024-.984-3.696-2.472h-.168v6.984zm5.64-6.96c1.776 0 2.808-1.176 2.808-3.048v-1.968c0-1.872-1.032-3.048-2.808-3.048-1.392 0-2.568.672-2.568 2.088v3.888c0 1.416 1.176 2.088 2.568 2.088zm14.304 2.448c-3.744 0-6.048-2.496-6.048-6.48s2.304-6.48 6.048-6.48 6.048 2.496 6.048 6.48-2.304 6.48-6.048 6.48zm0-2.352c1.752 0 2.856-1.104 2.856-3.168v-1.92c0-2.064-1.104-3.168-2.856-3.168s-2.856 1.104-2.856 3.168v1.92c0 2.064 1.104 3.168 2.856 3.168zm9 2.064v-2.424h3.072v-7.536h-3.072v-2.424h6.144v3.384h.192c.456-1.752 1.512-3.384 3.984-3.384h1.344v2.88h-2.544c-1.944 0-2.976 1.32-2.976 2.904v4.176h4.296v2.424zm25.296 0h-4.656c-2.352 0-3.456-1.392-3.456-3.36v-6.6h-3.6v-2.424h2.448c.984 0 1.368-.336 1.368-1.368v-3h2.856v4.368h5.04v2.424h-5.04v7.536h5.04zm8.856.288c-2.712 0-4.752-.912-5.856-2.352l1.8-1.632c1.008 1.104 2.328 1.752 4.08 1.752 1.536 0 2.544-.504 2.544-1.56 0-.888-.696-1.128-1.704-1.272l-1.992-.312c-2.064-.312-4.032-1.128-4.032-3.576 0-2.568 2.088-4.008 5.448-4.008 2.376 0 4.056.72 5.136 1.92l-1.608 1.776c-.696-.768-1.848-1.464-3.624-1.464-1.536 0-2.352.504-2.352 1.464 0 .888.72 1.152 1.728 1.296l1.968.312c2.088.312 4.056 1.104 4.056 3.552 0 2.544-2.088 4.104-5.592 4.104z" fill="#000"/></g></svg>