<svg height="425" viewBox="0 0 559 425" width="559" xmlns="http://www.w3.org/2000/svg"><g fill="none" fill-rule="evenodd"><g transform="translate(0 12)"><path d="m152 367.65c83.947282 0 152 0 152-10.825s-68.052718-10.825-152-10.825-152 0-152 10.825 68.052718 10.825 152 10.825z" fill="#000" opacity=".204484"/><g transform="translate(50 260)"><path d="m0 0h42.159383v10.892237h-42.159383z" fill="#ccc" fill-rule="evenodd"/><path d="m1 1h40.159383v8.892237h-40.159383z" stroke="#ccc" stroke-width="2"/><path d="m40 0h32.432112v10.892237h-32.432112z" fill="#ccc" fill-rule="evenodd"/><path d="m40.5.5h31.432112v9.892237h-31.432112z" stroke="#ccc"/><path d="m7 9h42.159383v21.5h-42.159383z" fill="#ccc" fill-rule="evenodd"/><path d="m8 10h40.159383v19.5h-40.159383z" stroke="#ccc" stroke-width="2"/><path d="m47 9h32.432112v21.5h-32.432112z" fill="#ccc" fill-rule="evenodd"/><path d="m47.5 9.5h31.432112v20.5h-31.432112z" stroke="#ccc"/><path d="m7 43h42.159383v14.307424h-42.159383z" fill="#ccc" fill-rule="evenodd"/><path d="m8 44h40.159383v12.307424h-40.159383z" stroke="#ccc" stroke-width="2"/><path d="m47 43h32.432112v14.307424h-32.432112z" fill="#ccc" fill-rule="evenodd"/><path d="m47.5 43.5h31.432112v13.307424h-31.432112z" stroke="#ccc"/><path d="m0 28h42.159383v16.452442h-42.159383z" fill="#ccc" fill-rule="evenodd"/><path d="m1 29h40.159383v14.452442h-40.159383z" stroke="#ccc" stroke-width="2"/><path d="m40 28h32.432112v16.452442h-32.432112z" fill="#ccc" fill-rule="evenodd"/><path d="m40.5 28.5h31.432112v15.452442h-31.432112z" stroke="#ccc"/><g transform="matrix(1 0 0 -1 0 103.107762)"><path d="m118 46.107763h42.159383v10.892237h-42.159383z" fill="#ccc" fill-rule="evenodd"/><path d="m119 47.107763h40.159383v8.892237h-40.159383z" stroke="#ccc" stroke-width="2"/></g><g transform="matrix(1 0 0 -1 0 103.107762)"><path d="m158 46.107763h32.432112v10.892237h-32.432112z" fill="#ccc" fill-rule="evenodd"/><path d="m158.5 46.607763h31.432112v9.892237h-31.432112z" stroke="#ccc"/></g><g transform="matrix(1 0 0 -1 0 74.5)"><path d="m125 26.5h42.159383v21.5h-42.159383z" fill="#ccc" fill-rule="evenodd"/><path d="m126 27.5h40.159383v19.5h-40.159383z" stroke="#ccc" stroke-width="2"/></g><g transform="matrix(1 0 0 -1 0 74.5)"><path d="m165 26.5h32.432112v21.5h-32.432112z" fill="#ccc" fill-rule="evenodd"/><path d="m165.5 27h31.432112v20.5h-31.432112z" stroke="#ccc"/></g><g transform="matrix(1 0 0 -1 0 41.547558)"><path d="m118 12.547558h42.159383v16.452442h-42.159383z" fill="#ccc" fill-rule="evenodd"/><path d="m119 13.547558h40.159383v14.452442h-40.159383z" stroke="#ccc" stroke-width="2"/></g><g transform="matrix(1 0 0 -1 0 41.547558)"><path d="m158 12.547558h32.432112v16.452442h-32.432112z" fill="#ccc" fill-rule="evenodd"/><path d="m158.5 13.047558h31.432112v15.452442h-31.432112z" stroke="#ccc"/></g><path d="m5 41h42.159383v10.892237h-42.159383z" fill="#ccc" fill-rule="evenodd"/><path d="m6 42h40.159383v8.892237h-40.159383z" stroke="#ccc" stroke-width="2"/><path d="m45 41h32.432112v10.892237h-32.432112z" fill="#ccc" fill-rule="evenodd"/><path d="m45.5 41.5h31.432112v9.892237h-31.432112z" stroke="#ccc"/><path d="m12 50h42.159383v21.5h-42.159383z" fill="#ccc" fill-rule="evenodd"/><path d="m13 51h40.159383v19.5h-40.159383z" stroke="#ccc" stroke-width="2"/><path d="m52 50h32.432112v21.5h-32.432112z" fill="#ccc" fill-rule="evenodd"/><path d="m52.5 50.5h31.432112v20.5h-31.432112z" stroke="#ccc"/><path d="m12 84h42.159383v14.307424h-42.159383z" fill="#ccc" fill-rule="evenodd"/><path d="m13 85h40.159383v12.307424h-40.159383z" stroke="#ccc" stroke-width="2"/><path d="m52 84h32.432112v14.307424h-32.432112z" fill="#ccc" fill-rule="evenodd"/><path d="m52.5 84.5h31.432112v13.307424h-31.432112z" stroke="#ccc"/><path d="m5 69h42.159383v16.452442h-42.159383z" fill="#ccc" fill-rule="evenodd"/><path d="m6 70h40.159383v14.452442h-40.159383z" stroke="#ccc" stroke-width="2"/><path d="m45 69h32.432112v16.452442h-32.432112z" fill="#ccc" fill-rule="evenodd"/><path d="m45.5 69.5h31.432112v15.452442h-31.432112z" stroke="#ccc"/><g transform="matrix(1 0 0 -1 0 185.107762)"><path d="m126 87.107763h42.159383v10.892237h-42.159383z" fill="#ccc" fill-rule="evenodd"/><path d="m127 88.107763h40.159383v8.892237h-40.159383z" stroke="#ccc" stroke-width="2"/></g><g transform="matrix(1 0 0 -1 0 185.107762)"><path d="m166 87.107763h32.432112v10.892237h-32.432112z" fill="#ccc" fill-rule="evenodd"/><path d="m166.5 87.607763h31.432112v9.892237h-31.432112z" stroke="#ccc"/></g><g transform="matrix(1 0 0 -1 0 156.5)"><path d="m133 67.5h42.159383v21.5h-42.159383z" fill="#ccc" fill-rule="evenodd"/><path d="m134 68.5h40.159383v19.5h-40.159383z" stroke="#ccc" stroke-width="2"/></g><g transform="matrix(1 0 0 -1 0 156.5)"><path d="m173 67.5h32.432112v21.5h-32.432112z" fill="#ccc" fill-rule="evenodd"/><path d="m173.5 68h31.432112v20.5h-31.432112z" stroke="#ccc"/></g><g transform="matrix(1 0 0 -1 0 95.692576)"><path d="m133 40.692576h42.159383v14.307424h-42.159383z" fill="#ccc" fill-rule="evenodd"/><path d="m134 41.692576h40.159383v12.307424h-40.159383z" stroke="#ccc" stroke-width="2"/></g><g transform="matrix(1 0 0 -1 0 95.692576)"><path d="m173 40.692576h32.432112v14.307424h-32.432112z" fill="#ccc" fill-rule="evenodd"/><path d="m173.5 41.192576h31.432112v13.307424h-31.432112z" stroke="#ccc"/></g><g transform="matrix(1 0 0 -1 0 123.547558)"><g><path d="m126 53.547558h42.159383v16.452442h-42.159383z" fill="#ccc" fill-rule="evenodd"/><path d="m127 54.547558h40.159383v14.452442h-40.159383z" stroke="#ccc" stroke-width="2"/></g><g><path d="m166 53.547558h32.432112v16.452442h-32.432112z" fill="#ccc" fill-rule="evenodd"/><path d="m166.5 54.047558h31.432112v15.452442h-31.432112z" stroke="#ccc"/></g></g></g><g fill="#00f"><path d="m234.303368 294.012445c-9.415029.708515-21.799688 3.482718-18.863747 6.261682 0 .459693 17.620887 1.373346 24.409503 0 3.365949-.680936-1.311739-6.580308-5.545756-6.261682z" transform="matrix(-1 0 0 1 456 0)"/><path d="m82.8382695 288.047105c-9.3985457.68531-21.7615232 3.368651-18.8307224 6.056598 0 .444637 17.5900383 1.328366 24.36677 0 3.3600563-.658634-1.3094424-6.364788-5.5360476-6.056598z" transform="matrix(-.8660254 -.5 -.5 .8660254 288.54688 77.315904)"/><path d="m244.809991 56.7580241c-2.918251-9.6370102 3.183149-18.4126703 4.423949-19.0602645 1.240801-.6475943-3.071649 7.8584196-2.414627 8.4808407 1.474539-2.5570235 5.439107-9.3590213 6.182937-8.4808407s-4.846179 8.8809863-3.219503 9.9429917c1.176992-1.7724334 6.619069-10.3682115 7.205804-8.7111875.586736 1.657024-5.541051 8.0698861-4.96923 12.4427287-.124269 1.7494145 4.56273-2.7773274 4.16082-1.0622032-.40191 1.7151243-1.010944 2.7227477-5.564131 6.4479348-2.723985 1.354858-3.761177.9238684-5.806019 0z" transform="matrix(.93969262 -.34202014 .34202014 .93969262 -1.178319 88.557533)"/><path d="m112.59342 53.1994423c-3.035043-9.3116094 3.836962-16.6774149 5.127421-17.3031426 1.290459-.6257278-3.19458 7.5930743-2.511264 8.1944788 1.533553-2.4706836 5.656787-9.043007 6.430386-8.1944788s-5.040128 8.5811132-3.348352 9.6072592c1.224097-1.7125859 6.883972-10.0181212 7.49419-8.4170478.610217 1.6010734-5.762811 7.7974004-5.168105 12.0225908-.129242 1.6903442 4.745336-2.6835489 4.327341-1.0263371s-1.051403 2.6308121-5.786814 6.2302155c-2.833002 1.3091103-4.438124-.2208647-6.564803-1.113538z" transform="matrix(-.93969262 -.34202014 -.34202014 .93969262 245.988703 43.374445)"/><path d="m159 61.6595146c8.145477-1.2414451 20.310964-.3416707 27 1.3404854-.920773-8.9971431-1.998495-29.5927864-12.418981-28.9869174-10.420485.605869-13.810884 18.8518963-14.581019 27.646432z"/></g><path d="m145.165434 140c-2.067283 39.122493 13.890765 28.827419 33.4824 45.775557 7.74868 6.703151 12.983305 16.105835 15.703877 28.208052 12.280356 54.185299 19.164987 82.440541 20.653894 84.765726 1.373187 1.134341 7.266332-1.833901 6.984625-3.847491-3.305353-81.935656-12.958312-133.368034-31.719376-154.053101-17.088584 2.818217-36.456775-.848743-45.10542-.848743z" fill="#000"/><path d="m122 54c19.634352 56.320698 10.66157 5.7760798 49.115094 6.5463192 36.731793.7357525 44.665473 32.5819164 53.85687 29.2026823 9.191396-3.3792341 17.687364-15.4463106 22.028036-33.6979258" stroke="#000" stroke-linecap="round" stroke-linejoin="round" stroke-width="2"/><path d="m116 55c8.136399 29.3582362 5.823044 54.846279 37.149971 28.4852385-3.762536 18.3106625-6.054328 39.8096665-7.198706 57.3516755 13.16226 0 31.324784 3.589548 44.310457 1.520539 0-28.952563 0-24.425976 0-57.7135752 0-9.5576083 22.156827 19.3427272 31.560687 18.3389972 21.254453-2.268613 29.2232-33.8210709 31.177591-46.4238269" stroke="#000" stroke-linecap="round" stroke-linejoin="round" stroke-width="2"/><path d="m146.437692 141c-4.739677 9.028474-8.748468 28.584843-8.748468 36.350859-14.631777 71.047527-67.7975278 90.099771-72.5392271 109.103062 0 2.15924 9.0306116 2.166746 9.4513999 1.506319 58.1997572-40.500228 79.2936502-55.166732 97.3986032-124.342286-4.722297 1.785544-5.333119-20.129921-25.562308-22.617954z" fill="#000"/><g transform="translate(22 299)"><path d="m0 .539639h42.159383v11.982696h-42.159383z" fill="#fff" fill-rule="evenodd"/><path d="m1 1.539639h40.159383v9.982696h-40.159383z" stroke="#000" stroke-width="2"/><path d="m40.416217.539639h32.432112v11.982696h-32.432112z" fill="#000"/><g stroke-linecap="square" stroke-width="2"><path d="m1.99614396 6.54241645h21.30976864" stroke="#000"/><path d="m55.4614329 6h16.3906899" stroke="#ccc"/></g></g><g transform="translate(22 336)"><path d="m.141388.159383h42.159383v21.730537h-42.159383z" fill="#fff" fill-rule="evenodd"/><path d="m1.141388 1.159383h40.159383v19.730537h-40.159383z" stroke="#000" stroke-width="2"/><path d="m40.716988.159383h32.432112v21.730537h-32.432112z" fill="#000"/><g stroke-linecap="square" stroke-width="2"><path d="m1.68380463 5.89974293h28.79177377" stroke="#000"/><path d="m52.0694087 10.9845758h20.0643293" stroke="#ccc"/><path d="m1.51413882 9.54241645h24.67866328" stroke="#000"/><path d="m15.5141388 15.5424165h24.6786633" stroke="#000"/></g></g><g transform="translate(25 309)"><path d="m0 .880236h42.159383v14.307424h-42.159383z" fill="#fff" fill-rule="evenodd"/><path d="m1 1.880236h40.159383v12.307424h-40.159383z" stroke="#000" stroke-width="2"/><path d="m40.5756.880236h32.432112v14.307424h-32.432112z" fill="#000"/><g stroke-linecap="square" stroke-width="2"><path d="m41.2067352 7.97943445h5.5798972" stroke="#ccc"/><path d="m20.2665579 7.97943445h18.8835543" stroke="#000"/></g></g><g transform="translate(17 321)"><path d="m0 .979434h42.159383v16.452442h-42.159383z" fill="#fff" fill-rule="evenodd"/><path d="m1 1.979434h40.159383v14.452442h-40.159383z" stroke="#000" stroke-width="2"/><path d="m40.416217 1h32.432112v16.452442h-32.432112z" fill="#000"/><g stroke-linecap="square" stroke-width="2"><path d="m1.51413882 6.54241645h28.79177378" stroke="#000"/><path d="m56.2107969 10.7969152h15.6853471" stroke="#ccc"/><path d="m46.5141388 6.54241645h16.4524422" stroke="#ccc"/><path d="m17.5141388 11.5424165h24.6786633" stroke="#000"/><path d="m1.68380463 11.8534704h3.0848329" stroke="#000"/></g></g><g transform="translate(201 300)"><path d="m0 .539639h42.159383v10.892237h-42.159383z" fill="#fff" fill-rule="evenodd"/><path d="m1 1.539639h40.159383v8.892237h-40.159383z" stroke="#000" stroke-width="2"/><path d="m40.416217.539639h32.432112v10.892237h-32.432112z" fill="#000"/><g stroke-linecap="square" stroke-width="2"><path d="m1.99614396 5.54241645h21.30976864" stroke="#000"/><path d="m55.4614329 6h16.3906899" stroke="#ccc"/></g></g><g transform="translate(208 309)"><path d="m.141388.450012h42.159383v21.5h-42.159383z" fill="#fff" fill-rule="evenodd"/><path d="m1.141388 1.450012h40.159383v19.5h-40.159383z" stroke="#000" stroke-width="2"/><path d="m40.716988.450012h32.432112v21.5h-32.432112z" fill="#000"/><g stroke-linecap="square" stroke-width="2"><path d="m1.68380463 5.89974293h28.79177377" stroke="#000"/><path d="m52.0694087 10.9845758h20.0643293" stroke="#ccc"/><path d="m1.51413882 9.54241645h24.67866328" stroke="#000"/><path d="m15.5141388 15.5424165h24.6786633" stroke="#000"/></g></g><g transform="translate(208 343)"><path d="m0 .880236h42.159383v14.307424h-42.159383z" fill="#fff" fill-rule="evenodd"/><path d="m1 1.880236h40.159383v12.307424h-40.159383z" stroke="#000" stroke-width="2"/><path d="m40.5756.880236h32.432112v14.307424h-32.432112z" fill="#000"/><g stroke-linecap="square" stroke-width="2"><path d="m41.2067352 7.97943445h5.5798972" stroke="#ccc"/><path d="m20.2665579 7.97943445h18.8835543" stroke="#000"/></g></g><g transform="translate(201 328)"><path d="m0 .979434h42.159383v16.452442h-42.159383z" fill="#fff" fill-rule="evenodd"/><path d="m1 1.979434h40.159383v14.452442h-40.159383z" stroke="#000" stroke-width="2"/><path d="m40.416217 1h32.432112v16.452442h-32.432112z" fill="#000"/><g stroke-linecap="square" stroke-width="2"><path d="m1.51413882 6.54241645h28.79177378" stroke="#000"/><path d="m56.2107969 10.7969152h15.6853471" stroke="#ccc"/><path d="m46.5141388 6.54241645h16.4524422" stroke="#ccc"/><path d="m17.5141388 11.5424165h24.6786633" stroke="#000"/><path d="m1.68380463 11.8534704h3.0848329" stroke="#000"/></g></g><g transform="translate(117 330)"><path d="m.424165.583548h42.159383v12.339332h-42.159383z" fill="#fff" fill-rule="evenodd"/><path d="m1.424165 1.583548h40.159383v10.339332h-40.159383z" stroke="#000" stroke-width="2"/><path d="m40.999765.583548h32.432112v12.339332h-32.432112z" fill="#000"/><g stroke-linecap="square" stroke-width="2"><path d="m12.2493573 7.26735219h28.7917738" stroke="#000"/><path d="m42.0694087 7.35218509h19.5372751" stroke="#ccc"/></g></g><g transform="translate(112 341)"><path d="m0 .479434h42.159383v16.452442h-42.159383z" fill="#fff" fill-rule="evenodd"/><path d="m1 1.479434h40.159383v14.452442h-40.159383z" stroke="#000" stroke-width="2"/><path d="m40.416217.479434h32.432112v16.452442h-32.432112z" fill="#000"/><g stroke-linecap="square" stroke-width="2"><path d="m44 7h24.4820051" stroke="#ccc"/><path d="m16.5141388 10.5424165h22.6519345" stroke="#000"/><path d="m41.1792078 10.5424165h14.0135943" stroke="#ccc"/></g></g><g transform="translate(111 314)"><path d="m.424165.113776h42.159383v18.762831h-42.159383z" fill="#fff" fill-rule="evenodd"/><path d="m1.424165 1.113776h40.159383v16.762831h-40.159383z" stroke="#000" stroke-width="2"/><path d="m40.999765.113776h32.432112v18.762831h-32.432112z" fill="#000"/><g stroke-linecap="square" stroke-width="2"><path d="m1.96658098 11.1362468h29.84340932" stroke="#000"/><path d="m40.9997647 7.07969152h10.3241428" stroke="#ccc"/><path d="m57.4935733 14.2493573h15.0025707" stroke="#ccc"/><path d="m17.3907455 7.07969152h22.1856743" stroke="#000"/></g></g><g transform="translate(109 299)"><path d="m0 .979434h42.159383v16.452442h-42.159383z" fill="#fff" fill-rule="evenodd"/><path d="m1 1.979434h40.159383v14.452442h-40.159383z" stroke="#000" stroke-width="2"/><path d="m40.416217 1h32.432112v16.452442h-32.432112z" fill="#000"/><g stroke-linecap="square" stroke-width="2"><path d="m1.51413882 6.54241645h28.79177378" stroke="#000"/><path d="m56.2107969 10.7969152h15.6853471" stroke="#ccc"/><path d="m46.5141388 6.54241645h16.4524422" stroke="#ccc"/><path d="m17.5141388 11.5424165h24.6786633" stroke="#000"/><path d="m1.68380463 11.8534704h3.0848329" stroke="#000"/></g></g><path d="m232.331186 16.9503419 20.633025-7.50980693c6.454854 13.26036793 10.910513 25.50218853 13.366975 36.72546183-8.85167 3.3506609-12.004294 3.2749934-23.062787 6.2919548-1.889895-8.8310204-5.535633-20.6668902-10.937213-35.5076097z" fill="#000" transform="matrix(.93969262 .34202014 -.34202014 .93969262 25.621775 -83.40982)"/><path d="m102.720623 17.8960204 21.780418-12.7847074c7.005061 13.6783511 12.411588 25.7487155 16.219582 36.2110931-9.13544 3.743989-10.669677 4.5815828-23.455239 9.7889069-2.486921-9.3322449-7.335175-20.4040092-14.544761-33.2152926z" fill="#000" transform="matrix(-.93969262 .34202014 .34202014 .93969262 226.485959 -39.935585)"/><path d="m112.345104 52.3108404c-3.077595-9.7078632 1.788983-1.1335394 6.245786-3.1258951 1.841487-.8232128 2.510911-8.851421 3.696401-4.1245561.225607 3.6406624.411532 4.1116669-4.390271 7.8642421-2.872722 1.3648193-3.395419.31687-5.551916-.6137909z" fill="#00f" transform="matrix(-.93969262 -.34202014 -.34202014 .93969262 243.323382 42.904477)"/><path d="m248.706433 54.0234445c-2.894019-10.0529181 3.937627-.4367653 6.768805-4.4946056.224313-.3215011 4.905506-4.0207495 4.506933-2.231605-.398572 1.7891445-1.1277 2.6322563-5.643079 6.5182126-2.701366 1.4133302-3.604796 1.1717382-5.632659.207998z" fill="#00f" transform="matrix(.93969262 -.34202014 .34202014 .93969262 -2.059898 89.939521)"/></g><g transform="translate(404)"><ellipse cx="71.649485" cy="368.824742" fill="#000" opacity=".204484" rx="71.649485" ry="10.824742"/><g transform="translate(32 128)"><path d="m0 .539639h42.159383v11.982696h-42.159383z" fill="#fff" fill-rule="evenodd"/><path d="m1 1.539639h40.159383v9.982696h-40.159383z" stroke="#000" stroke-width="2"/><path d="m40.416217.539639h32.432112v11.982696h-32.432112z" fill="#000"/><g stroke-linecap="square" stroke-width="2"><path d="m1.99614396 6.54241645h21.30976864" stroke="#000"/><path d="m55.4614329 6h16.3906899" stroke="#ccc"/></g></g><g transform="translate(32 165)"><path d="m.141388.159383h42.159383v21.730537h-42.159383z" fill="#fff" fill-rule="evenodd"/><path d="m1.141388 1.159383h40.159383v19.730537h-40.159383z" stroke="#000" stroke-width="2"/><path d="m40.716988.159383h32.432112v21.730537h-32.432112z" fill="#000"/><g stroke-linecap="square" stroke-width="2"><path d="m1.68380463 5.89974293h28.79177377" stroke="#000"/><path d="m52.0694087 10.9845758h20.0643293" stroke="#ccc"/><path d="m1.51413882 9.54241645h24.67866328" stroke="#000"/><path d="m15.5141388 15.5424165h24.6786633" stroke="#000"/></g></g><g transform="translate(35 138)"><path d="m0 .880236h42.159383v14.307424h-42.159383z" fill="#fff" fill-rule="evenodd"/><path d="m1 1.880236h40.159383v12.307424h-40.159383z" stroke="#000" stroke-width="2"/><path d="m40.5756.880236h32.432112v14.307424h-32.432112z" fill="#000"/><g stroke-linecap="square" stroke-width="2"><path d="m41.2067352 7.97943445h5.5798972" stroke="#ccc"/><path d="m20.2665579 7.97943445h18.8835543" stroke="#000"/></g></g><g transform="translate(27 150)"><path d="m0 .979434h42.159383v16.452442h-42.159383z" fill="#fff" fill-rule="evenodd"/><path d="m1 1.979434h40.159383v14.452442h-40.159383z" stroke="#000" stroke-width="2"/><path d="m40.416217 1h32.432112v16.452442h-32.432112z" fill="#000"/><g stroke-linecap="square" stroke-width="2"><path d="m1.51413882 6.54241645h28.79177378" stroke="#000"/><path d="m56.2107969 10.7969152h15.6853471" stroke="#ccc"/><path d="m46.5141388 6.54241645h16.4524422" stroke="#ccc"/><path d="m17.5141388 11.5424165h24.6786633" stroke="#000"/><path d="m1.68380463 11.8534704h3.0848329" stroke="#000"/></g></g><g transform="translate(27 241)"><path d="m0 .539639h42.159383v10.892237h-42.159383z" fill="#fff" fill-rule="evenodd"/><path d="m1 1.539639h40.159383v8.892237h-40.159383z" stroke="#000" stroke-width="2"/><path d="m40.416217.539639h32.432112v10.892237h-32.432112z" fill="#000"/><g stroke-linecap="square" stroke-width="2"><path d="m1.99614396 5.54241645h21.30976864" stroke="#000"/><path d="m55.4614329 6h16.3906899" stroke="#ccc"/></g></g><g transform="translate(34 250)"><path d="m.141388.450012h42.159383v21.5h-42.159383z" fill="#fff" fill-rule="evenodd"/><path d="m1.141388 1.450012h40.159383v19.5h-40.159383z" stroke="#000" stroke-width="2"/><path d="m40.716988.450012h32.432112v21.5h-32.432112z" fill="#000"/><g stroke-linecap="square" stroke-width="2"><path d="m1.68380463 5.89974293h28.79177377" stroke="#000"/><path d="m52.0694087 10.9845758h20.0643293" stroke="#ccc"/><path d="m1.51413882 9.54241645h24.67866328" stroke="#000"/><path d="m15.5141388 15.5424165h24.6786633" stroke="#000"/></g></g><g transform="translate(34 284)"><path d="m0 .880236h42.159383v14.307424h-42.159383z" fill="#fff" fill-rule="evenodd"/><path d="m1 1.880236h40.159383v12.307424h-40.159383z" stroke="#000" stroke-width="2"/><path d="m40.5756.880236h32.432112v14.307424h-32.432112z" fill="#000"/><g stroke-linecap="square" stroke-width="2"><path d="m41.2067352 7.97943445h5.5798972" stroke="#ccc"/><path d="m20.2665579 7.97943445h18.8835543" stroke="#000"/></g></g><g transform="translate(27 269)"><path d="m0 .979434h42.159383v16.452442h-42.159383z" fill="#fff" fill-rule="evenodd"/><path d="m1 1.979434h40.159383v14.452442h-40.159383z" stroke="#000" stroke-width="2"/><path d="m40.416217 1h32.432112v16.452442h-32.432112z" fill="#000"/><g stroke-linecap="square" stroke-width="2"><path d="m1.51413882 6.54241645h28.79177378" stroke="#000"/><path d="m56.2107969 10.7969152h15.6853471" stroke="#ccc"/><path d="m46.5141388 6.54241645h16.4524422" stroke="#ccc"/><path d="m17.5141388 11.5424165h24.6786633" stroke="#000"/><path d="m1.68380463 11.8534704h3.0848329" stroke="#000"/></g></g><g transform="translate(38 215)"><path d="m.424165.583548h42.159383v12.339332h-42.159383z" fill="#fff" fill-rule="evenodd"/><path d="m1.424165 1.583548h40.159383v10.339332h-40.159383z" stroke="#000" stroke-width="2"/><path d="m40.999765.583548h32.432112v12.339332h-32.432112z" fill="#000"/><g stroke-linecap="square" stroke-width="2"><path d="m12.2493573 7.26735219h28.7917738" stroke="#000"/><path d="m42.0694087 7.35218509h19.5372751" stroke="#ccc"/></g></g><g transform="translate(33 226)"><path d="m0 .479434h42.159383v16.452442h-42.159383z" fill="#fff" fill-rule="evenodd"/><path d="m1 1.479434h40.159383v14.452442h-40.159383z" stroke="#000" stroke-width="2"/><path d="m40.416217.479434h32.432112v16.452442h-32.432112z" fill="#000"/><g stroke-linecap="square" stroke-width="2"><path d="m44 7h24.4820051" stroke="#ccc"/><path d="m16.5141388 10.5424165h22.6519345" stroke="#000"/><path d="m41.1792078 10.5424165h14.0135943" stroke="#ccc"/></g></g><g transform="translate(32 199)"><path d="m.424165.113776h42.159383v18.762831h-42.159383z" fill="#fff" fill-rule="evenodd"/><path d="m1.424165 1.113776h40.159383v16.762831h-40.159383z" stroke="#000" stroke-width="2"/><path d="m40.999765.113776h32.432112v18.762831h-32.432112z" fill="#000"/><g stroke-linecap="square" stroke-width="2"><path d="m1.96658098 11.1362468h29.84340932" stroke="#000"/><path d="m40.9997647 7.07969152h10.3241428" stroke="#ccc"/><path d="m57.4935733 14.2493573h15.0025707" stroke="#ccc"/><path d="m17.3907455 7.07969152h22.1856743" stroke="#000"/></g></g><g transform="translate(30 184)"><path d="m0 .979434h42.159383v16.452442h-42.159383z" fill="#fff" fill-rule="evenodd"/><path d="m1 1.979434h40.159383v14.452442h-40.159383z" stroke="#000" stroke-width="2"/><path d="m40.416217 1h32.432112v16.452442h-32.432112z" fill="#000"/><g stroke-linecap="square" stroke-width="2"><path d="m1.51413882 6.54241645h28.79177378" stroke="#000"/><path d="m56.2107969 10.7969152h15.6853471" stroke="#ccc"/><path d="m46.5141388 6.54241645h16.4524422" stroke="#ccc"/><path d="m17.5141388 11.5424165h24.6786633" stroke="#000"/><path d="m1.68380463 11.8534704h3.0848329" stroke="#000"/></g></g><g transform="translate(36 297)"><path d="m0 .539639h42.159383v11.982696h-42.159383z" fill="#fff" fill-rule="evenodd"/><path d="m1 1.539639h40.159383v9.982696h-40.159383z" stroke="#000" stroke-width="2"/><path d="m40.416217.539639h32.432112v11.982696h-32.432112z" fill="#000"/><g stroke-linecap="square" stroke-width="2"><path d="m1.99614396 6.54241645h21.30976864" stroke="#000"/><path d="m55.4614329 6h16.3906899" stroke="#ccc"/></g></g><g transform="translate(36 334)"><path d="m.141388.159383h42.159383v21.730537h-42.159383z" fill="#fff" fill-rule="evenodd"/><path d="m1.141388 1.159383h40.159383v19.730537h-40.159383z" stroke="#000" stroke-width="2"/><path d="m40.716988.159383h32.432112v21.730537h-32.432112z" fill="#000"/><g stroke-linecap="square" stroke-width="2"><path d="m1.68380463 5.89974293h28.79177377" stroke="#000"/><path d="m52.0694087 10.9845758h20.0643293" stroke="#ccc"/><path d="m1.51413882 9.54241645h24.67866328" stroke="#000"/><path d="m15.5141388 15.5424165h24.6786633" stroke="#000"/></g></g><g transform="translate(39 307)"><path d="m0 .880236h42.159383v14.307424h-42.159383z" fill="#fff" fill-rule="evenodd"/><path d="m1 1.880236h40.159383v12.307424h-40.159383z" stroke="#000" stroke-width="2"/><path d="m40.5756.880236h32.432112v14.307424h-32.432112z" fill="#000"/><g stroke-linecap="square" stroke-width="2"><path d="m41.2067352 7.97943445h5.5798972" stroke="#ccc"/><path d="m20.2665579 7.97943445h18.8835543" stroke="#000"/></g></g><g transform="translate(31 319)"><path d="m0 .979434h42.159383v16.452442h-42.159383z" fill="#fff" fill-rule="evenodd"/><path d="m1 1.979434h40.159383v14.452442h-40.159383z" stroke="#000" stroke-width="2"/><path d="m40.416217 1h32.432112v16.452442h-32.432112z" fill="#000"/><g stroke-linecap="square" stroke-width="2"><path d="m1.51413882 6.54241645h28.79177378" stroke="#000"/><path d="m56.2107969 10.7969152h15.6853471" stroke="#ccc"/><path d="m46.5141388 6.54241645h16.4524422" stroke="#ccc"/><path d="m17.5141388 11.5424165h24.6786633" stroke="#000"/><path d="m1.68380463 11.8534704h3.0848329" stroke="#000"/></g></g><g transform="translate(34 353)"><path d="m0 .979434h42.159383v16.452442h-42.159383z" fill="#fff" fill-rule="evenodd"/><path d="m1 1.979434h40.159383v14.452442h-40.159383z" stroke="#000" stroke-width="2"/><path d="m40.416217 1h32.432112v16.452442h-32.432112z" fill="#000"/><g stroke-linecap="square" stroke-width="2"><path d="m1.51413882 6.54241645h28.79177378" stroke="#000"/><path d="m56.2107969 10.7969152h15.6853471" stroke="#ccc"/><path d="m46.5141388 6.54241645h16.4524422" stroke="#ccc"/><path d="m17.5141388 11.5424165h24.6786633" stroke="#000"/><path d="m1.68380463 11.8534704h3.0848329" stroke="#000"/></g></g><path d="m66.0328659 208.45918c-9.0091672.686778-20.8599507 3.375866-18.050572 6.06957 0 .445589 16.861289 1.331211 23.357263 0 3.2208504-.660045-1.2551926-6.378419-5.306691-6.06957z" fill="#00f" transform="matrix(.17364818 -.98480775 .98480775 .17364818 -159.039293 234.143821)"/><path d="m108.23542 283.825931c-9.0849439.692555-21.0354049 3.404261-18.2023963 6.120621 0 .449337 17.0031103 1.342408 23.5537223 0 3.247941-.665596-1.265751-6.432068-5.351326-6.120621z" fill="#00f" transform="matrix(-.8660254 -.5 -.5 .8660254 334.237635 89.558704)"/><path d="m94.053445 281.695814c.6535919-4.296713-3.9291386-46.612274-5.9978526-93.865739 2.6797318-38.048342 30.1245886-48.357539 31.0348156-63.05413.910228-14.696591-14.21826-21.775945-31.0348156-21.775945-25.3201955 55.597124-22.9076493 69.368326-20.8770951 86.773869 2.9793404 25.538368 17.1128577 87.189124 20.0998435 90.39997" fill="#000" stroke="#fff" stroke-linecap="round" stroke-linejoin="round" stroke-width="2" transform="matrix(-1 0 0 1 185.129486 0)"/><path d="m45.424329 106.95063c-38.33111841 26.849995-45.10503701 36.306233-41.62021799 45.533283 6.67602039 17.676661 51.36533269 54.038981 54.68939999 55.366098 2.6139654 1.043613 3.6672066-3.605484 4.3110765-6.313482.6438699-2.707999-23.081553-18.548865-32.4716339-49.052616 8.7582733-9.502801 35.5137771-23.81501 41.6877891-19.801513 4.116008 2.675665 5.5393103 4.091527 4.2699069 4.247587 4.4910296-18.218053 5.5737925-28.211172 3.2482889-29.979357-6.0554398-4.604225-24.1968053-3.202146-34.1146095 0z" fill="#000"/><path d="m37.9692279 16.7859475 24.3813085-8.44641393c4.5100832 12.39135163 7.8597964 24.89265173 10.0491398 37.50390013-8.963734 3.3325211-12.1562717 3.2572632-23.3547679 6.2578912-2.2561143-6.1986231-5.9480078-17.9704155-11.0756804-35.3153774z" fill="#000" stroke="#fff" stroke-width="2" transform="matrix(.93969262 .34202014 -.34202014 .93969262 43.664025 54.948321)"/><g transform="matrix(.96592583 .25881905 -.25881905 .96592583 37.838956 65.181435)"><path d="m12.6003238 12.927628 24.3813086-8.44641396c4.5100831 12.39135166 7.8597964 24.89265166 10.0491397 37.50390016-8.9637339 3.3325211-12.1562716 3.2572632-23.3547678 6.2578912-2.2561143-6.1986231-5.9480078-17.9704156-11.0756805-35.3153774z" fill="#000" fill-rule="evenodd"/><path d="m11.3706149 12.295329 26.2139759-9.08130475.3367342.92516965c4.5301467 12.4464757 7.8951821 25.0049589 10.0947105 37.6748762l.142141.8187732-.7789299.2895892c-3.4737546 1.2914663-6.2195139 2.1321929-9.3481471 2.9041589-.6546136.1615208-1.3368213.323113-2.1275946.5049566-.3758548.0864303-3.9839406.8994286-5.1989863 1.1827276-2.2543462.5256213-4.3910966 1.057312-6.7696953 1.6946556l-.8851079.237164-.3134037-.8610696c-2.2652968-6.2238518-5.9616387-18.0098282-11.0949601-35.3738976z" stroke="#fff" stroke-width="2"/></g><path d="m5.60032384 19.927628 24.38130856-8.446414c4.5100831 12.3913517 7.8597964 24.8926517 10.0491397 37.5039002-8.9637339 3.3325211-12.1562716 3.2572632-23.3547678 6.2578912-2.2561143-6.1986231-5.9480078-17.9704156-11.07568046-35.3153774z" fill="#000" stroke="#fff" stroke-width="2" transform="matrix(.96592583 .25881905 -.25881905 .96592583 39.41217 67.231688)"/><path d="m91.6889522 111.976531c-2.9182509-9.63701 3.1831488-18.4126704 4.4239495-19.0602647 1.2408006-.6475942-3.0716488 7.8584197-2.4146275 8.4808407 1.4745398-2.5570234 5.4391071-9.3590213 6.1829373-8.4808407.7438305.8781806-4.8461786 8.8809867-3.2195033 9.9429917 1.1769924-1.772433 6.6190688-10.3682115 7.2058048-8.7111874.586735 1.657024-5.5410516 8.0698864-4.9692306 12.4427284-.0828458 1.166277.3959154 1.438697 1.4362836.817262l.972186 1.393436c-1.14764 1.074586-2.4182337 2.132931-3.8117806 3.175034-2.7239848 1.354858-3.7611768.923868-5.8060192 0z" fill="#00f" transform="matrix(-.76604444 -.64278761 .64278761 -.76604444 105.922028 244.229593)"/><path d="m35.6889522 110.976531c-2.9182509-9.63701 3.1831488-18.4126704 4.4239495-19.0602647 1.2408006-.6475942-3.0716488 7.8584197-2.4146275 8.4808407 1.4745398-2.5570234 5.4391071-9.3590213 6.1829373-8.4808407s-4.8461786 8.8809867-3.2195033 9.9429917c1.1769924-1.772433 6.6190692-10.3682115 7.2058046-8.7111874.5867353 1.657024-5.5410514 8.0698864-4.9692304 12.4427284-.0828458 1.166277.4000112 1.422929 1.4485713.769958l.9449751 1.262151c-1.1376914 1.193646-2.4033105 2.31152-3.7968574 3.353623-2.7239848 1.354858-3.7611768.923868-5.8060192 0z" fill="#00f" transform="matrix(.76604444 -.64278761 -.64278761 -.76604444 75.148003 206.467443)"/><path d="m34.1188973 95.5280035c-10.808756-14.3159131-4.1444454-39.5013831 16.6305891-51.5280035-.7482904 18.268593-.3072193 31.478519 1.3232132 39.6297782m39.1293014 1.8513385c.8959368-11.6139804.8959368-25.3450844 0-41.1933121 18.726754 8.4298613 26.406228 39.6837863 13.14061 52.7121954" stroke="#000" stroke-linecap="round" stroke-linejoin="round" stroke-width="2"/><path d="m32.2756459 99.0955189c-13.8737053-6.2795568-26.73519361-58.3274126 38.0133661-79.0955189 65.334372 15.1603912 52.815746 74.8335598 37.2607 80" stroke="#000" stroke-linecap="round" stroke-linejoin="round" stroke-width="2"/><path d="m56.8006732 24.6277203c6.606444 6.0584806 22.2704833 5.8973399 26.643571-.9625735 1.5098833-.6537959.8338863-23.6651468-13.617347-23.6651468s-14.9315205 23.6111331-13.026224 24.6277203z" fill="#00f"/><g stroke="#000" stroke-width="2"><ellipse cx="66" cy="21" rx="3" ry="4"/><ellipse cx="76" cy="21" rx="3" ry="4"/><path d="m69.5 20.5h3" stroke-linecap="square"/><path d="m79 20c2.2911807-3.7616271 3.6895891-5.7526441 4.195225-5.973051.7584539-.3306103 1.2561581 2.4593653.2009252 4.0567675" stroke-linecap="round" stroke-linejoin="round"/><path d="m57 20c2.2911807-3.7616271 3.6895891-5.7526441 4.195225-5.973051.7584539-.3306103 1.2561581 2.4593653.2009252 4.0567675" stroke-linecap="round" stroke-linejoin="round" transform="matrix(-1 0 0 1 119 0)"/></g></g><g fill="#252525"><path d="m79.788 419v-2.716h-.224c-.644 1.596-1.904 3.052-4.396 3.052-3.948 0-6.02-3.668-6.02-9.968 0-6.636 2.352-10.248 7.308-10.248 3.92 0 5.824 2.24 6.608 5.236l-3.36.952c-.504-1.68-1.204-3.192-3.276-3.192-2.436 0-3.388 2.072-3.388 5.432v3.136c0 3.388.896 5.684 3.556 5.684 2.072 0 3.192-1.4 3.192-3.332v-1.596h-3.556v-2.66h6.832v10.22zm13.748.336c-4.62 0-7.196-2.912-7.196-7.532 0-4.676 2.688-7.588 6.916-7.588 4.172 0 6.804 2.884 6.804 7.252v1.176h-10.136v.364c0 2.072 1.372 3.5 3.724 3.5 1.764 0 3.052-.784 3.92-1.988l2.044 2.044c-1.036 1.512-3.024 2.772-6.076 2.772zm-.252-12.488c-2.016 0-3.36 1.4-3.36 3.472v.196h6.552v-.252c0-2.072-1.232-3.416-3.192-3.416zm14 12.152h-3.584v-14.448h3.584v2.548h.14c.644-1.568 1.876-2.884 4.228-2.884 2.828 0 4.788 1.96 4.788 5.46v9.324h-3.584v-8.82c0-2.072-.924-3.136-2.716-3.136-1.456 0-2.856.756-2.856 2.296zm19.852.336c-4.62 0-7.196-2.912-7.196-7.532 0-4.676 2.688-7.588 6.916-7.588 4.172 0 6.804 2.884 6.804 7.252v1.176h-10.136v.364c0 2.072 1.372 3.5 3.724 3.5 1.764 0 3.052-.784 3.92-1.988l2.044 2.044c-1.036 1.512-3.024 2.772-6.076 2.772zm-.252-12.488c-2.016 0-3.36 1.4-3.36 3.472v.196h6.552v-.252c0-2.072-1.232-3.416-3.192-3.416zm10.416 12.152v-2.828h3.584v-8.792h-3.584v-2.828h7.168v3.948h.224c.532-2.044 1.764-3.948 4.648-3.948h1.568v3.36h-2.968c-2.268 0-3.472 1.54-3.472 3.388v4.872h5.012v2.828zm30.52 0h-2.1c-1.736 0-2.716-.952-2.884-2.492h-.14c-.532 1.792-2.128 2.828-4.368 2.828-2.884 0-4.76-1.624-4.76-4.34 0-2.912 2.156-4.368 6.412-4.368h2.548v-.952c0-1.82-.868-2.772-2.856-2.772-1.82 0-2.856.784-3.64 1.904l-2.044-1.736c.896-1.596 2.912-2.856 6.048-2.856 3.78 0 6.076 1.82 6.076 5.292v6.804h1.708zm-8.288-2.128c1.708 0 2.996-.868 2.996-2.24v-1.932h-2.464c-1.96 0-2.94.644-2.94 1.848v.56c0 1.148.924 1.764 2.408 1.764zm11.284 2.128v-2.828h4.592v-15.064h-4.592v-2.828h8.176v17.892h4.62v2.828zm24.08-16.688c-1.68 0-2.296-.812-2.296-1.82v-.672c0-1.008.616-1.82 2.296-1.82s2.296.812 2.296 1.82v.672c0 1.008-.616 1.82-2.296 1.82zm-6.552 16.688v-2.828h4.76v-8.792h-4.76v-2.828h8.344v11.62h4.424v2.828zm22.4.336c-3.164 0-5.544-1.064-6.832-2.744l2.1-1.904c1.176 1.288 2.716 2.044 4.76 2.044 1.792 0 2.968-.588 2.968-1.82 0-1.036-.812-1.316-1.988-1.484l-2.324-.364c-2.408-.364-4.704-1.316-4.704-4.172 0-2.996 2.436-4.676 6.356-4.676 2.772 0 4.732.84 5.992 2.24l-1.876 2.072c-.812-.896-2.156-1.708-4.228-1.708-1.792 0-2.744.588-2.744 1.708 0 1.036.84 1.344 2.016 1.512l2.296.364c2.436.364 4.732 1.288 4.732 4.144 0 2.968-2.436 4.788-6.524 4.788zm23.268-.336h-5.432c-2.744 0-4.032-1.624-4.032-3.92v-7.7h-4.2v-2.828h2.856c1.148 0 1.596-.392 1.596-1.596v-3.5h3.332v5.096h5.88v2.828h-5.88v8.792h5.88z"/><path d="m400.176 419.336c-3.332 0-5.712-1.26-7.196-3.164l2.212-2.296c1.456 1.68 3.164 2.464 5.096 2.464 2.24 0 3.472-1.064 3.472-2.94 0-1.54-.812-2.296-2.94-2.632l-2.072-.336c-3.612-.616-5.012-2.8-5.012-5.516 0-3.724 2.604-5.796 6.86-5.796 3.052 0 5.292 1.036 6.636 2.716l-2.156 2.296c-1.036-1.232-2.492-2.016-4.452-2.016-2.1 0-3.192.896-3.192 2.632 0 1.484.812 2.212 2.968 2.576l2.044.364c3.36.616 5.012 2.548 5.012 5.46 0 3.64-2.548 6.188-7.28 6.188zm10.556 5.264v-20.048h3.584v2.548h.196c.784-1.736 2.1-2.884 4.312-2.884 3.304 0 5.516 2.464 5.516 7.56s-2.212 7.56-5.516 7.56c-2.212 0-3.528-1.148-4.312-2.884h-.196v8.148zm6.58-8.12c2.072 0 3.276-1.372 3.276-3.556v-2.296c0-2.184-1.204-3.556-3.276-3.556-1.624 0-2.996.784-2.996 2.436v4.536c0 1.652 1.372 2.436 2.996 2.436zm17.024 2.856c-4.62 0-7.196-2.912-7.196-7.532 0-4.676 2.688-7.588 6.916-7.588 4.172 0 6.804 2.884 6.804 7.252v1.176h-10.136v.364c0 2.072 1.372 3.5 3.724 3.5 1.764 0 3.052-.784 3.92-1.988l2.044 2.044c-1.036 1.512-3.024 2.772-6.076 2.772zm-.252-12.488c-2.016 0-3.36 1.4-3.36 3.472v.196h6.552v-.252c0-2.072-1.232-3.416-3.192-3.416zm17.276 12.488c-4.424 0-7.084-2.912-7.084-7.56s2.688-7.56 7.056-7.56c3.052 0 4.872 1.4 5.824 3.472l-2.772 1.512c-.504-1.232-1.428-2.072-3.052-2.072-2.1 0-3.304 1.344-3.304 3.444v2.408c0 2.072 1.176 3.444 3.36 3.444 1.708 0 2.66-.868 3.304-2.156l2.688 1.596c-.98 2.044-2.912 3.472-6.02 3.472zm17.136-17.024c-1.68 0-2.296-.812-2.296-1.82v-.672c0-1.008.616-1.82 2.296-1.82s2.296.812 2.296 1.82v.672c0 1.008-.616 1.82-2.296 1.82zm-6.552 16.688v-2.828h4.76v-8.792h-4.76v-2.828h8.344v11.62h4.424v2.828zm29.876 0h-2.1c-1.736 0-2.716-.952-2.884-2.492h-.14c-.532 1.792-2.128 2.828-4.368 2.828-2.884 0-4.76-1.624-4.76-4.34 0-2.912 2.156-4.368 6.412-4.368h2.548v-.952c0-1.82-.868-2.772-2.856-2.772-1.82 0-2.856.784-3.64 1.904l-2.044-1.736c.896-1.596 2.912-2.856 6.048-2.856 3.78 0 6.076 1.82 6.076 5.292v6.804h1.708zm-8.288-2.128c1.708 0 2.996-.868 2.996-2.24v-1.932h-2.464c-1.96 0-2.94.644-2.94 1.848v.56c0 1.148.924 1.764 2.408 1.764zm11.284 2.128v-2.828h4.592v-15.064h-4.592v-2.828h8.176v17.892h4.62v2.828zm24.08-16.688c-1.68 0-2.296-.812-2.296-1.82v-.672c0-1.008.616-1.82 2.296-1.82s2.296.812 2.296 1.82v.672c0 1.008-.616 1.82-2.296 1.82zm-6.552 16.688v-2.828h4.76v-8.792h-4.76v-2.828h8.344v11.62h4.424v2.828zm22.4.336c-3.164 0-5.544-1.064-6.832-2.744l2.1-1.904c1.176 1.288 2.716 2.044 4.76 2.044 1.792 0 2.968-.588 2.968-1.82 0-1.036-.812-1.316-1.988-1.484l-2.324-.364c-2.408-.364-4.704-1.316-4.704-4.172 0-2.996 2.436-4.676 6.356-4.676 2.772 0 4.732.84 5.992 2.24l-1.876 2.072c-.812-.896-2.156-1.708-4.228-1.708-1.792 0-2.744.588-2.744 1.708 0 1.036.84 1.344 2.016 1.512l2.296.364c2.436.364 4.732 1.288 4.732 4.144 0 2.968-2.436 4.788-6.524 4.788zm23.268-.336h-5.432c-2.744 0-4.032-1.624-4.032-3.92v-7.7h-4.2v-2.828h2.856c1.148 0 1.596-.392 1.596-1.596v-3.5h3.332v5.096h5.88v2.828h-5.88v8.792h5.88z"/></g></g></svg>