<svg height="397" viewBox="0 0 150 397" width="150" xmlns="http://www.w3.org/2000/svg"><g fill="none" fill-rule="evenodd" transform="translate(1 1)"><ellipse cx="76.804124" cy="385.175258" fill="#000" opacity=".204484" rx="71.649485" ry="10.824742"/><path d="m4.991675 58.9843972c-3.23992963-10.4318152 3.53402721-19.931241 4.91160129-20.6322451 1.37757411-.7010041-3.41023652 8.5065367-2.68079187 9.1802915 1.63707834-2.767912 6.03865988-10.1308993 6.86448238-9.1802915.8258226.9506079-5.38037274 9.6134388-3.5743891 10.7630323 1.3067322-1.9186135 7.3486891-11.2233218 8.0001003-9.4296359.6514111 1.7936858-6.1518414 8.7354436-5.5169885 13.4689331-.137967 1.893696 5.0656796-3.0063854 4.6194672-1.1498076-.4462123 1.8565778-1.1223802 2.9473042-6.1774652 6.9797232-3.02424958 1.4665989-4.17577124 1.0000638-6.4460165 0z" fill="#00f"/><path d="m132.764729 59.0732666c-3.008506-9.438309 3.281597-18.0330276 4.560773-18.6672694s-3.166648 7.6963904-2.489307 8.305978c1.520144-2.5043013 5.607327-9.1660517 6.374162-8.305978.766836.8600738-4.99606 8.6978732-3.319075 9.7379816 1.213394-1.7358884 6.823782-10.154434 7.428664-8.5315754s-5.712424 7.9034967-5.122918 12.1861776c-.128112 1.7133441 4.703846-2.7200629 4.289506-1.0403021-.41434 1.6797609-1.042211 2.6666086-5.736218 6.3149877-2.808232 1.3269228-3.877502.9048196-5.985587 0z" fill="#00f" transform="matrix(-1 0 0 1 277.319588 0)"/><path d="m48.7975451 379.516152c-8.212951.626081-19.0163806 3.077512-16.4552904 5.53315 0 .406209 15.3711144 1.21356 21.2929843 0 2.9361965-.601711-1.1442607-5.814705-4.8376939-5.53315z" fill="#00f"/><path d="m115.042455 379.516152c-7.839635.626081-18.1519995 3.077512-15.7073225 5.53315 0 .406209 14.6724275 1.21356 20.3251215 0 2.802733-.601711-1.092249-5.814705-4.617799-5.53315z" fill="#00f" transform="matrix(-1 0 0 1 219.587628 0)"/><path d="m63.9175258 131.038069c7.564941 1.547246 21.4958187 1.569836 27.8350515-1.263584-.9081567-8.891007-3.9632227-26.110569-14.2409252-25.511847-10.2777026.598721-12.8345443 18.084642-13.5941263 26.775431z" fill="#00f"/><g stroke="#000" stroke-width="2"><path d="m8.55226021 59.9175258c-9.69109502 48.1099652 10.38000809 72.1649482 60.21330939 72.1649482 49.8333014 0 73.5957404-24.054983 71.2873184-72.1649482" stroke-linecap="round" stroke-linejoin="round"/><path d="m4.44363085 58.8865979c-10.34926588 37.8847042-2.62086488 63.5984491 23.18520295 77.1412341 30.3989545 12.426979 26.8462108 54.470705 26.8462108 81.621653 28.3416971-3.600544 23.2583674-3.368755 47.9246494 0 0-27.665514 1.145883-64.051597 16.354342-77.71484 20.09894-19.28593 28.351728-46.3019453 24.758363-81.0480471" stroke-linecap="round" stroke-linejoin="round"/><circle cx="25.164949" cy="26.350516" r="4.639175"/><circle cx="56.123711" cy="4.639175" r="4.639175"/><circle cx="94.329897" cy="5.793814" r="4.639175"/><circle cx="123.195876" cy="28.474227" r="4.639175"/><path d="m54.50388 205.457101c19.9618803-1.693831 28.1126245-1.529897 48.148942 0 5.619756 7.582169 8.22511 166.72249 1.951393 175.591597-.582513.823495-4.56927 3.462563-4.9698403 1.922902-3.9136063-15.042604-5.3321-140.647103-19.3421679-144.801457-22.9187702 3.05313-21.3598551 130.446945-26.8411802 145.106995-.5450594 1.457786-3.7857614-2.026748-4.6445475-2.973835-9.4950665-10.471364-2.1026882-145.792068 5.6974009-174.846202z" fill="#000"/></g></g></svg>