<svg height="351" viewBox="0 0 144 351" width="144" xmlns="http://www.w3.org/2000/svg"><g fill="none" fill-rule="evenodd" transform="translate(0 -1)"><ellipse cx="71.649485" cy="340.824742" fill="#000" opacity=".204484" rx="71.649485" ry="10.824742"/><path d="m59.8671019 63.3549386c-10.967577 3.8587894-5.3302147 8.7281354-4.4607896 13.2717069.869425 4.5435716-10.5460754 13.091117-3.9566384 14.7535147 21.8115726 2.7788358 47.2635022 3.7772101 59.7133761 19.6056438 3.082492-1.785599 6.981958-16.9612504 3.066225-25.4481931-3.915734-8.4869427-18.3601604-16.4568343-25.5916398-22.1826723s-17.8029563-3.8587894-28.7705333 0z" fill="#000"/><path d="m49.4548203 161.209678c19.9618802-1.69383 23.9141904-1.529897 43.9505081 0 5.6197559 7.582169.5294692 160.364893 5.4993099 175.591597.4445775 1.362106-7.3065917 3.768101-7.7071623 2.22844-3.9136062-15.042604-6.2258841-140.639835-20.2359519-144.794189-22.9187702 3.053129-16.675896 130.134139-22.1572211 144.794189-.5450594 1.457786-5.6974009-.331513-5.6974009-2.973835 0-29.110102-1.452171-145.792067 6.3479182-174.846202z" fill="#00f" stroke="#00f" stroke-width="2"/><path d="m48.8578807 161.209678c20.1661849-1.639526 24.51113-1.529897 44.5474477 0 5.6197559 7.582169 6.5611724 78.660393 4.4717845 95.33713-.1895165 1.512652-57.1087119-.716499-57.1087119-3.358822 0-29.110101 3.6008422-62.806874 8.0894797-91.978308z" fill="#000" stroke="#000" stroke-width="2"/><path d="m58.2555219 93.0663986c8.7708453.6415994 19.2589421 2.3542483 26.1803283 2.3542483-.9081567-8.8910065-2.8124616-28.8195251-13.0901641-28.2208033-10.2777026.5987217-12.3305821 17.1757659-13.0901642 25.866555z" fill="#00f"/><path d="m19.094293 23.1932153c-3.3226132-10.698037 3.6242162-20.4398899 5.0369463-21.15878374 1.41273-.71889384-3.4972664 8.72362504-2.7492062 9.41457424 1.6788569-2.83854964 6.1927675-10.3894418 7.0396653-9.41457424.8468977.97486755-5.5176809 9.85877554-3.6656083 11.03770684 1.3400803-1.9675769 7.5362291-11.509743 8.2042643-9.67028199.6680353 1.839461-6.3088374 8.95837379-5.657783 13.81266279-.1414879 1.9420235 5.1949567-3.0831089 4.7373569-1.1791509s-1.1510236 3.02252-6.3351153 7.157847c-3.1014289 1.5040268-4.2823377 1.0255856-6.61052 0z" fill="#00f" transform="matrix(.93969262 -.34202014 .34202014 .93969262 -2.918917 9.544332)"/><path d="m58.5785981 79.8432369c2.479299 1.2212634 2.1269003-12.378437 10.3460513-11.5209517s4.2154488 12.1508502 11.7219594 16.2640552c2.4449198.4988639 4.5661207 5.8958008 2.6982813 11.023658 6.6717282-.9747744 5.9208566-10.2624257-2.2526148-27.8629538l-10.9055643-3.5133854-10.8348832 4.5322605c-2.1683524 6.5707025-2.4260956 10.2631416-.7732297 11.0773172z" fill="#000"/><path d="m76 126.936764c5.4955488-6.872389 8.2433231-11.659993 8.2433231-14.362812 0-4.054229-1.6299876-5.573952-4.0186295-5.573952s-3.6156666 1.832095-3.6156666 5.573952c0 2.494571 2.6816632 7.282175 8.0449895 14.362812" stroke="#ff0087" stroke-linecap="round" stroke-linejoin="round" stroke-width="3"/><path d="m27.069074 159.548574c2.2100853-16.689665 6.4405028-38.335675 10.3424342-49.463271 4.6973099-13.3958699 9.6503114-21.118789 32.078725-21.4320631 31.6149338-.4415889 51.6758818-22.4956855 56.5835308-40.5297991 2.661029-9.7784698-12.091007-16.3246827-26.7561327-25.0187746" stroke="#000" stroke-linecap="round" stroke-linejoin="round" stroke-width="2" transform="matrix(1 0 0 -1 0 182.65324)"/><path d="m21.862682 23.4455298c.0002519 6.9848415 1.8818515 31.864345 4.5181757 50.4503994 4.7284758 18.0908827 9.7377204 26.2040848 24.2059471 35.1982508 0 19.473498-1.9138735 25.920617-1.9138735 53.071564 6.4589979 2.74522 38.9760663 5.907414 44.5486819 0 0-15.587337-.5774467-37.572039-1.7397774-47.165744 35.9129032 19.68859 24.0024882 23.794964 6.629663 39.000364" stroke="#000" stroke-linecap="round" stroke-linejoin="round" stroke-width="2"/><g fill="#00f"><path d="m84.7203968 168.881331c-2.8920245-9.311642 3.1545417-17.791015 4.3841912-18.416745 1.2296496-.62573-3.0440437 7.593101-2.3929271 8.194508 1.461288-2.470693 5.3902256-9.043039 6.127371-8.194508s-4.8026258 8.581143-3.1905696 9.607293c1.1664148-1.712592 6.5595835-10.018156 7.1410458-8.417077s-5.4912538 7.797427-4.9245717 12.022632c-.123152 1.69035-.060415 1.104553-.4587128 2.761771.3541567.354156.5793369.579337.854971.854971-.1960004.196-.920689 1.074679-1.7869576 1.587155-2.6995042 1.309115-3.7273749.892676-5.7538402 0z" transform="matrix(-.70710678 -.70710678 .70710678 -.70710678 41.126864 337.139071)"/><path d="m43.8387822 335.010997c-8.2129509.626081-19.0163806 3.077512-16.4552904 5.53315 0 .406209 15.3711144 1.213561 21.2929843 0 2.9361966-.60171-1.1442607-5.814704-4.8376939-5.53315z"/><path d="m108.073383 335.010997c-7.839635.626081-18.1519997 3.077512-15.7073226 5.53315 0 .406209 14.6724276 1.213561 20.3251216 0 2.802733-.60171-1.092249-5.814704-4.617799-5.53315z" transform="matrix(-1 0 0 1 205.649484 0)"/></g><path d="m92.6249095 125.175683c2.196895-.642292 6.7330933-1.809327 8.6803625-3.889441-.713041-1.102458-3.72204-2.676987-9.0269968-4.723586-.9750458 4.764989-.859501 7.635999.3466343 8.613027z" fill="#000"/></g></svg>