<svg height="137" viewBox="0 0 700 137" width="700" xmlns="http://www.w3.org/2000/svg"><g fill="none" fill-rule="evenodd"><path d="m0 0h700v137h-700z" fill="#fff"/><path d="m127 109h450" stroke="#000" stroke-linecap="round" stroke-linejoin="round" stroke-width="3"/><path d="m566.2 112 10.8-3-10.8-3" stroke="#000" stroke-linecap="round" stroke-linejoin="round" stroke-width="3"/><rect fill="#fff" fill-rule="evenodd" height="90" rx="3" width="75" x="148"/><rect height="87" rx="3" stroke="#000" stroke-width="3" width="72" x="149.5" y="1.5"/><rect fill="#fff" fill-rule="evenodd" height="90" rx="3" width="75" x="314"/><rect height="87" rx="3" stroke="#000" stroke-width="3" width="72" x="315.5" y="1.5"/><rect fill="#fff" fill-rule="evenodd" height="90" rx="3" width="75" x="479"/><g stroke="#000" stroke-width="3"><rect height="87" rx="3" width="72" x="480.5" y="1.5"/><path d="m350.5 91.5v15" stroke-linecap="square"/><path d="m185.5 91.5v15" stroke-linecap="square"/><path d="m516.5 91.5v15" stroke-linecap="square"/></g><path d="m501.35 122.128h-3.942v10.872h-2.016v-10.872h-3.942v-1.692h9.9zm5.85 11.088c-2.736 0-4.41-1.89-4.41-4.86s1.674-4.86 4.41-4.86 4.41 1.89 4.41 4.86-1.674 4.86-4.41 4.86zm0-1.548c1.422 0 2.358-.882 2.358-2.61v-1.404c0-1.728-.936-2.61-2.358-2.61s-2.358.882-2.358 2.61v1.404c0 1.728.936 2.61 2.358 2.61zm12.816 1.332v-1.584h-.108c-.54 1.116-1.44 1.8-2.808 1.8-2.178 0-3.582-1.674-3.582-4.86s1.404-4.86 3.582-4.86c1.368 0 2.268.684 2.808 1.8h.108v-5.616h1.962v13.32zm-2.106-1.386c1.134 0 2.106-.576 2.106-1.71v-3.096c0-1.134-.972-1.71-2.106-1.71-1.476 0-2.322.99-2.322 2.502v1.512c0 1.512.846 2.502 2.322 2.502zm15.552 1.386h-1.206c-1.116 0-1.674-.63-1.782-1.566h-.09c-.36 1.116-1.332 1.782-2.79 1.782-1.89 0-3.114-1.062-3.114-2.808 0-1.8 1.314-2.772 4.068-2.772h1.782v-.72c0-1.242-.666-1.89-1.998-1.89-1.188 0-1.89.504-2.394 1.278l-1.17-.954c.522-1.008 1.782-1.854 3.744-1.854 2.34 0 3.78 1.17 3.78 3.294v4.662h1.17zm-5.31-1.224c1.26 0 2.178-.63 2.178-1.548v-1.35h-1.746c-1.44 0-2.124.45-2.124 1.278v.36c0 .828.648 1.26 1.692 1.26zm12.69-4.176 1.476-3.888h1.98l-4.5 11.088c-.486 1.188-1.152 1.8-2.628 1.8h-1.566v-1.584h2.196l.846-2.142-3.744-9.162h2.052l1.476 3.888 1.152 3.186h.108z" fill="#000"/><path d="m318.97 133h-8.586v-1.674h3.528v-9.414h-.144l-2.916 3.114-1.242-1.116 3.204-3.474h3.114v10.89h3.042zm18.072-5.4 1.476-3.888h1.98l-4.5 11.088c-.486 1.188-1.152 1.8-2.628 1.8h-1.566v-1.584h2.196l.846-2.142-3.744-9.162h2.052l1.476 3.888 1.152 3.186h.108zm5.526 5.4v-1.584h2.466v-6.12h-2.466v-1.584h4.428v2.466h.108c.36-1.296 1.17-2.466 3.06-2.466h1.116v1.872h-1.836c-1.602 0-2.448 1.062-2.448 2.358v3.474h3.366v1.584zm30.294 0h-1.206c-1.116 0-1.674-.63-1.782-1.566h-.09c-.36 1.116-1.332 1.782-2.79 1.782-1.89 0-3.114-1.062-3.114-2.808 0-1.8 1.314-2.772 4.068-2.772h1.782v-.72c0-1.242-.666-1.89-1.998-1.89-1.188 0-1.89.504-2.394 1.278l-1.17-.954c.522-1.008 1.782-1.854 3.744-1.854 2.34 0 3.78 1.17 3.78 3.294v4.662h1.17zm-5.31-1.224c1.26 0 2.178-.63 2.178-1.548v-1.35h-1.746c-1.44 0-2.124.45-2.124 1.278v.36c0 .828.648 1.26 1.692 1.26zm16.308 2.232c0 1.908-1.602 2.808-4.878 2.808-3.204 0-4.32-.846-4.32-2.232 0-1.008.594-1.53 1.62-1.8v-.18c-.63-.234-1.026-.648-1.026-1.35 0-.918.702-1.332 1.674-1.566v-.09c-1.116-.522-1.782-1.512-1.782-2.844 0-1.98 1.494-3.258 3.78-3.258.648 0 1.242.108 1.746.306v-.306c0-.72.414-1.26 1.242-1.26h1.692v1.548h-2.16v.432c.81.558 1.26 1.422 1.26 2.538 0 1.98-1.494 3.24-3.78 3.24-.414 0-.792-.036-1.152-.108-.432.108-.972.396-.972.9 0 .576.63.648 1.44.648h2.088c2.502 0 3.528 1.044 3.528 2.574zm-1.836.126c0-.63-.432-1.026-1.746-1.026h-3.222c-.45.216-.684.558-.684 1.044 0 .702.54 1.278 1.908 1.278h1.458c1.476 0 2.286-.45 2.286-1.296zm-3.096-5.49c1.26 0 1.854-.666 1.854-1.656v-.486c0-.99-.594-1.656-1.854-1.656s-1.854.666-1.854 1.656v.486c0 .99.594 1.656 1.854 1.656zm10.872 4.572c-2.736 0-4.41-1.89-4.41-4.86s1.674-4.86 4.41-4.86 4.41 1.89 4.41 4.86-1.674 4.86-4.41 4.86zm0-1.548c1.422 0 2.358-.882 2.358-2.61v-1.404c0-1.728-.936-2.61-2.358-2.61s-2.358.882-2.358 2.61v1.404c0 1.728.936 2.61 2.358 2.61z" fill="#000"/><path d="m147.21 131.29v1.71h-8.676v-1.926l4.104-3.582c1.278-1.134 2.034-2.142 2.034-3.276v-.198c0-1.314-.756-2.052-2.106-2.052-1.386 0-2.088.828-2.43 1.98l-1.764-.666c.504-1.584 1.782-3.06 4.338-3.06 2.61 0 4.086 1.548 4.086 3.69 0 1.998-1.278 3.366-3.042 4.824l-3.042 2.556zm18.432-3.69 1.476-3.888h1.98l-4.5 11.088c-.486 1.188-1.152 1.8-2.628 1.8h-1.566v-1.584h2.196l.846-2.142-3.744-9.162h2.052l1.476 3.888 1.152 3.186h.108zm5.526 5.4v-1.584h2.466v-6.12h-2.466v-1.584h4.428v2.466h.108c.36-1.296 1.17-2.466 3.06-2.466h1.116v1.872h-1.836c-1.602 0-2.448 1.062-2.448 2.358v3.474h3.366v1.584zm14.85.216c-1.998 0-3.474-.702-4.356-1.782l1.206-1.08c.81.882 1.8 1.368 3.186 1.368 1.26 0 2.124-.414 2.124-1.332 0-.792-.63-1.008-1.422-1.116l-1.476-.234c-1.458-.216-3.096-.738-3.096-2.646 0-1.89 1.584-2.898 3.96-2.898 1.728 0 2.97.54 3.816 1.458l-1.098 1.152c-.486-.558-1.332-1.116-2.79-1.116-1.278 0-1.962.432-1.962 1.242 0 .792.648 1.008 1.422 1.116l1.476.234c1.476.216 3.096.72 3.096 2.628 0 1.872-1.548 3.006-4.086 3.006zm26.244-.216h-1.206c-1.116 0-1.674-.63-1.782-1.566h-.09c-.36 1.116-1.332 1.782-2.79 1.782-1.89 0-3.114-1.062-3.114-2.808 0-1.8 1.314-2.772 4.068-2.772h1.782v-.72c0-1.242-.666-1.89-1.998-1.89-1.188 0-1.89.504-2.394 1.278l-1.17-.954c.522-1.008 1.782-1.854 3.744-1.854 2.34 0 3.78 1.17 3.78 3.294v4.662h1.17zm-5.31-1.224c1.26 0 2.178-.63 2.178-1.548v-1.35h-1.746c-1.44 0-2.124.45-2.124 1.278v.36c0 .828.648 1.26 1.692 1.26zm16.308 2.232c0 1.908-1.602 2.808-4.878 2.808-3.204 0-4.32-.846-4.32-2.232 0-1.008.594-1.53 1.62-1.8v-.18c-.63-.234-1.026-.648-1.026-1.35 0-.918.702-1.332 1.674-1.566v-.09c-1.116-.522-1.782-1.512-1.782-2.844 0-1.98 1.494-3.258 3.78-3.258.648 0 1.242.108 1.746.306v-.306c0-.72.414-1.26 1.242-1.26h1.692v1.548h-2.16v.432c.81.558 1.26 1.422 1.26 2.538 0 1.98-1.494 3.24-3.78 3.24-.414 0-.792-.036-1.152-.108-.432.108-.972.396-.972.9 0 .576.63.648 1.44.648h2.088c2.502 0 3.528 1.044 3.528 2.574zm-1.836.126c0-.63-.432-1.026-1.746-1.026h-3.222c-.45.216-.684.558-.684 1.044 0 .702.54 1.278 1.908 1.278h1.458c1.476 0 2.286-.45 2.286-1.296zm-3.096-5.49c1.26 0 1.854-.666 1.854-1.656v-.486c0-.99-.594-1.656-1.854-1.656s-1.854.666-1.854 1.656v.486c0 .99.594 1.656 1.854 1.656zm10.872 4.572c-2.736 0-4.41-1.89-4.41-4.86s1.674-4.86 4.41-4.86 4.41 1.89 4.41 4.86-1.674 4.86-4.41 4.86zm0-1.548c1.422 0 2.358-.882 2.358-2.61v-1.404c0-1.728-.936-2.61-2.358-2.61s-2.358.882-2.358 2.61v1.404c0 1.728.936 2.61 2.358 2.61z" fill="#000"/><circle cx="185.5" cy="46.5" fill="#00f" r="5.5"/><circle cx="350.5" cy="45.5" fill="#00f" r="9.5"/><circle cx="516.5" cy="45.5" fill="#00f" r="13.5"/></g></svg>