<svg height="295" viewBox="0 0 144 295" width="144" xmlns="http://www.w3.org/2000/svg"><g fill="none" fill-rule="evenodd"><ellipse cx="71.804124" cy="284.175258" fill="#000" opacity=".204484" rx="71.649485" ry="10.824742"/><path d="m43.7975451 278.516152c-8.212951.626081-19.0163806 3.077512-16.4552904 5.53315 0 .406209 15.3711144 1.21356 21.2929843 0 2.9361965-.601711-1.1442607-5.814705-4.8376939-5.53315z" fill="#00f"/><path d="m108.042455 278.516152c-7.839635.626081-18.1519995 3.077512-15.7073225 5.53315 0 .406209 14.6724275 1.21356 20.3251215 0 2.802733-.601711-1.092249-5.814705-4.617799-5.53315z" fill="#00f" transform="matrix(-1 0 0 1 205.587628 0)"/><path d="m58.8887028 31.4206469c8.1045201-2.7729854 21.0249626-.8935849 27.9463487-.8935849-.9081566-8.8910064-3.9632227-26.11056894-14.2409252-25.51184717-10.2777025.59872176-12.9458414 17.71464287-13.7054235 26.40543207z" fill="#00f"/><g fill="#000"><path d="m50.1543973 104.457101c19.9618802-1.693831 27.4621072-1.529897 47.498425 0 5.6197557 7.582169-3.0184476 160.364892 1.9513931 175.591597.4445776 1.362105-7.3065917 3.7681-7.7071623 2.22844-3.9136062-15.042604-2.5947784-140.952641-16.6048463-145.106995-22.9187702 3.05313-20.3070016 130.446945-25.7883268 145.106995-.5450593 1.457786-5.6974009-.331513-5.6974009-2.973835 0-29.110102-1.4521709-145.792068 6.3479182-174.846202z" stroke="#000" stroke-width="2"/><path d="m67.5384558 30.671183c1.8106453-.8740819 10.2682384-.9154999 11.2428486 0 .6497401.6103333-.527938 3.0244042-3.5330343 7.2422125.2770681 29.5080272.2770681 46.3334627 0 50.4763063 0 .7364806-2.270987 1.8866124-3.3757919 0-1.255839-18.7778499 0-45.1278178 0-50.4763063-3.0568289-3.9631826-6.1446676-6.3681306-4.3340224-7.2422125z"/><path d="m58.4154368 13.6605324c1.2946617.5123368 9.5336375.5123368 24.7169274 0 1.1401549-.8329232 1.5042588-1.7647236 1.0923117-2.7954012-.4119471-1.03067757-7.6423305-1.21269868-21.6911501-.5460633-4.0400543 1.7153062-5.4127507 2.8291277-4.118089 3.3414645z"/><path d="m62.3230392 11.6023003c-3.7330363-6.19230938-4.7275783-9.81922094-2.9836262-10.8807347 2.6159282-1.59227063 22.1926378 1.14266471 25.0982645 3.19142377 1.9370845 1.36583936 1.9370845 3.75156863 0 7.15718783z"/><path d="m63 13.4267372c1.4186106 4.3821752 2.8707258 6.5732628 4.3563455 6.5732628 1.4856198 0 3.001751-2.1910876 4.5483938-6.5732628h.6272918c1.1097373 4.3821752 2.4425297 6.5732628 3.998377 6.5732628 1.5558472 0 3.3039021-2.3333333 5.2441644-7z"/></g><path d="m81.1928242 47.4402905c.6189963-1.9061763 7.6702177-1.934546 8.1925311 0 .5223135 1.934546-.6581808 5.8835247-1.7366866 7.2005739s-2.1438487 2.2484197-4.1597224 0c-2.0158738-2.2484197-2.9151184-5.2943976-2.2961221-7.2005739z" stroke="#000" stroke-width="2"/><path d="m93.6004346 119.6187c-2.821053-9.083131 3.077128-17.354416 4.2766014-17.964791 1.1994735-.610374-2.9693416 7.406763-2.3342037 7.993411 1.4254275-2.41006 5.2579477-8.821119 5.9770027-7.993411.719056.827708-4.6847673 8.370559-3.1122715 9.371526 1.1377904-1.670564 6.3986085-9.772306 6.9658015-8.210518.567193 1.561787-5.356496 7.606075-4.803721 11.727592-.120129 1.648868 4.41076-2.617703 4.022237-1.001154-.388524 1.616549-.977273 2.56626-5.3788077 6.077345-2.6332573 1.276988-3.6359037.87077-5.6126387 0z" fill="#00f" transform="matrix(-.76604444 -.64278761 .64278761 -.76604444 103.711554 259.759779)"/><path d="m44.2313688 119.484652c-2.821053-9.08313 3.077128-17.354416 4.2766014-17.96479s-2.9693417 7.406763-2.3342038 7.993411c1.4254275-2.410061 5.2579474-8.821119 5.9770029-7.993411s-4.6847674 8.370558-3.1122717 9.371526c1.1377904-1.670564 6.3986086-9.772307 6.9658016-8.210519s-5.3564962 7.606076-4.8037207 11.727593c-.1201298 1.648868 4.4107596-2.617703 4.0222362-1.001154-.3885235 1.616549-.9772726 2.56626-5.3788073 6.077344-2.6332573 1.276989-3.6359037.87077-5.6126386 0z" fill="#00f" transform="matrix(.64278761 -.76604444 -.76604444 -.64278761 102.707366 220.256658)"/><path d="m40.5359824 29.7921361c-41.69986333 13.9106336-30.557922 80.0957249 31.7029214 80.0957249 62.2608432 0 73.4706242-57.1054072 35.3419432-79.5691483" stroke="#000" stroke-linecap="round" stroke-linejoin="round" stroke-width="2" transform="matrix(1 0 0 -1 0 139.679998)"/><path d="m42.0275187 106.15444c-17.0163971-5.181633-26.8630812-49.2494941 9.8866278-55.9936025 0 19.473498-2.1064266 28.8426549-2.1064266 55.9936025l1.7741156-.945379m45.0073253 0 1.7290536 2.361978c0-27.6655137-.9185205-42.9149382-2.6747022-57.4102015 34.3769678 7.5559103 24.1450298 48.2959038 10.0075968 55.0482235" stroke="#000" stroke-linecap="round" stroke-linejoin="round" stroke-width="2"/></g></svg>